<svg width="124" height="124" viewBox="0 0 124 124" fill="none" xmlns="http://www.w3.org/2000/svg">
<path d="M48.0527 83.0261C45.8038 80.5992 42.6107 80.2507 40.6904 77.6854C38.2981 74.4874 36.489 71.9863 34.0077 68.3212C32.3025 65.8028 31.1137 59.1374 28.4594 58.784C27.1248 58.6061 26.3241 62.0413 24.7152 61.8164C23.4795 61.6459 20.4446 60.1285 19.2262 60.4102C15.8577 61.1912 16.2037 63.7071 16.8537 64.8587C17.7656 66.4701 20.3235 67.6045 19.5475 68.9885C18.0844 71.5909 13.5074 68.5931 11.7576 71.7738C9.55806 75.775 14.5009 78.6863 17.815 77.5939C22.1252 76.1753 24.0529 73.264 28.9438 75.0953C33.6345 76.8525 37.5765 80.5819 41.5851 83.466C46.5279 87.0248 51.6412 88.9649 57.58 90.2129L59.011 89.8546C55.0172 88.1419 51.0506 86.2636 48.0503 83.0261H48.0527Z" fill="#4DCDF1"/>
<path d="M67.0107 54.6704L68.1698 53.1455C67.7744 53.6521 67.3864 54.1613 67.0107 54.6704Z" fill="#046C8C"/>
<path d="M100.4 106.897C100.237 103.047 99.7104 100.229 97.5553 97.2239C102.004 96.1118 97.9853 91.5249 95.6819 89.6614C89.7481 84.8595 81.4491 85.3414 75.2656 80.841C68.3852 75.8314 65.5678 67.6313 63.7785 59.7129C61.621 63.7784 60.5138 68.1305 61.3837 73.2241C62.7356 81.1277 67.4288 88.5765 72.7893 94.4041C75.2928 97.1251 78.0534 99.5273 81.412 101.107C82.9616 101.836 84.2912 102.374 85.4923 103.652C88.374 106.719 89.2785 112.379 93.0697 114.494C97.7925 117.129 100.558 110.624 100.4 106.9V106.897Z" fill="#038BCF"/>
<path d="M34.6289 41.0035C34.6363 41.0529 34.6487 41.1024 34.6561 41.1543V40.9961C34.6561 40.9961 34.6388 41.001 34.6289 41.0035Z" fill="#4DCDF1"/>
<path d="M28.1584 31.4955C24.906 29.2861 18.9623 28.0504 16.5675 32.2839C14.321 36.2554 18.9277 37.0661 21.3126 37.0216C23.7346 36.9746 28.5143 36.0775 30.4173 38.0003C31.9965 39.5968 31.8631 41.8977 34.6286 41.0006C33.986 36.9302 31.5541 33.8013 28.1584 31.4955Z" fill="#4DCDF1"/>
<path d="M77.0675 45.0471C78.5503 43.8114 76.0789 42.3285 73.8547 42.8228C74.3489 37.88 79.0446 35.6557 82.5046 32.69C83.246 32.1958 82.5046 30.9601 81.7632 30.4658C78.0561 26.7587 73.3604 30.4658 69.6533 32.9372C69.159 33.1843 68.1704 33.1843 68.1704 32.9372C66.4404 30.2186 68.6647 27.2529 70.1475 25.0287C70.3947 24.5344 70.3947 23.5458 70.1475 23.5458C67.9233 21.8158 65.4519 22.3101 62.9805 22.5573C61.2505 22.8044 59.7676 23.2987 58.2848 24.2873C52.1409 28.4565 47.3636 33.2115 43.7751 39.0688C42.4727 42.0443 41.4001 45.0693 40.5178 48.3316C37.8734 58.1159 43.4983 70.7251 49.2691 78.4803C55.4254 86.7546 62.1921 92.1967 70.1475 97.9328C76.3063 102.374 83.3968 107.391 90.0918 111.518C90.0918 111.518 86.7777 105.233 85.3665 103.513C79.1286 95.9112 70.58 88.8776 67.2906 79.3898C66.5936 77.3806 66.2724 74.8671 66.3169 72.2277C65.8596 70.898 65.4988 69.4968 65.2047 68.0287C63.2276 57.896 69.4061 50.976 77.0675 45.0446V45.0471Z" fill="#03B8F1"/>
<path d="M112.964 39.7232C108.516 37.6596 106.366 36.9478 106.294 35.7516C105.975 30.5098 113.207 35.1437 113.602 32.5759C114.02 29.8499 107.097 24.4523 105.343 23.0461C100.795 19.4008 94.2781 16.9986 88.7521 15.7629C85.1141 14.9498 77.344 16.2843 72.3048 15.4218C69.8087 14.9943 71.1927 11.7691 67.6981 11.9272C63.3237 12.1249 61.5023 20.5055 57.3726 12.8812C54.701 7.95072 50.6652 8.39312 49.4295 10.4988C49.4295 10.4988 52.6398 17.9575 52.6052 19.2352C52.5286 22.2231 51.8267 24.6525 50.2302 27.1808C47.608 31.3327 45.4925 35.156 43.7773 39.0707C47.3658 33.2135 52.1431 28.4585 58.287 24.2892C59.7698 23.3007 61.2527 22.8064 62.9827 22.5592C65.4541 22.3121 67.9255 21.8178 70.1497 23.5478C70.3969 23.5478 70.3969 24.5364 70.1497 25.0306C68.6669 27.2549 66.4426 30.2206 68.1726 32.9392C68.1726 33.1863 69.1612 33.1863 69.6555 32.9392C73.3626 30.4678 78.0583 26.7606 81.7654 30.4678C82.5068 30.962 83.2482 32.1977 82.5068 32.692C79.0468 35.6577 74.3511 37.882 73.8569 42.8248C76.0811 42.3305 78.5525 43.8134 77.0697 45.0491C69.4083 50.9805 63.2298 57.9004 65.2069 68.0332C65.501 69.5012 65.8619 70.9025 66.3191 72.2321C66.4105 66.8518 68.0392 60.9402 71.1902 57.6755C74.8059 53.9288 78.508 52.4361 82.5513 55.0039C85.9198 57.1441 87.8673 54.3712 86.7576 51.7985C85.9074 49.8238 82.1361 48.3336 82.6279 47.0336C84.7088 41.5298 93.2797 44.8168 95.9364 47.3771C98.5512 49.8955 101.813 52.231 102.97 55.6638C103.754 57.9943 100.108 64.2297 106.932 63.8713C109.747 63.723 111.373 60.6387 110.584 57.201C109.682 53.264 106.126 48.8699 106.297 47.9876C106.825 45.2542 111.061 50.37 115.191 46.3984C116.382 45.2542 116.313 41.2802 112.967 39.7281L112.964 39.7232Z" fill="#4DCDF1"/>
<path d="M67.0265 95.2603C61.063 91.0045 56.2636 85.7552 52.9173 79.201C50.6609 74.7797 48.5552 68.6185 50.221 63.5471C51.4369 59.8524 53.7724 54.7192 53.8737 50.681C53.9627 47.2185 50.2209 46.3931 48.0535 47.6362C48.0782 45.4045 49.0841 43.027 47.5395 41.1166C47.0576 40.521 46.0146 39.6165 45.1373 39.7227C44.166 39.8414 42.8858 40.7755 42.4657 41.5021C42.0085 42.2955 41.0075 44.1688 41.0075 44.1688C41.0075 44.1688 40.1944 43.3804 39.7372 42.7403C38.8179 41.4527 36.821 39.9847 35.2887 39.7227C31.2628 39.0307 29.125 41.3069 29.125 41.3069C34.4064 45.4317 37.9776 52.0452 37.8318 58.7946C37.6958 65.1387 38.4002 71.6435 41.5908 77.2659C46.9364 86.6845 56.7801 93.9479 66.5669 98.2754C71.0624 100.262 75.5282 101.278 79.6011 104.212C75.6295 100.907 71.218 98.2556 67.0191 95.2603H67.0265Z" fill="#009ADC"/>
<path d="M13.8807 50.6494C13.8807 50.6494 3.50825 51.6009 5.08501 55.0708C6.80511 58.8594 18.9595 54.5073 16.7056 51.638C16.1891 50.9781 14.8001 50.7779 13.8807 50.6494Z" fill="#04B0F0"/>
<path d="M5.9626 69.582C3.28853 69.7872 -0.458143 71.4232 0.0460244 74.6311C0.367308 76.6725 1.88477 76.5143 3.55792 75.9805C6.11336 75.1625 7.75684 69.4461 5.9626 69.5845V69.582Z" fill="#4DCDF1"/>
<path d="M27.3645 82.374C25.249 82.5297 23.7488 83.2267 22.0954 84.1633C20.835 84.8776 18.2969 86.521 18.6083 88.2832C18.8974 89.9217 21.0994 89.5361 22.219 88.9999C23.7883 88.2485 24.206 87.2921 25.9088 85.661C26.8554 84.754 28.7584 83.7778 29.8903 83.0882C29.7444 82.8238 28.0194 82.327 27.3645 82.3765V82.374Z" fill="#4DCDF1"/>
<path d="M120.27 58.7859C121.046 60.469 120.586 63.709 118.317 64.0204C115.109 64.4603 114.286 56.6902 112.902 55.2246C114.417 55.4693 119.35 56.7964 120.27 58.7859Z" fill="#4DCDF1"/>
<path d="M8.91008 87.4258C7.77323 88.2562 5.44023 90.0949 5.33396 91.4591C5.2351 92.7294 7.0491 91.9756 8.03767 91.3158C9.4266 90.3939 10.4597 89.0791 11.4507 87.7421C12.2193 86.7016 14.2434 85.7773 15.2764 84.9939C15.2147 84.8085 10.4028 86.3383 8.91008 87.4258Z" fill="#4DCDF1"/>
<path d="M100.189 62.6708C99.3167 60.2982 97.4063 58.4027 96.1261 56.2451C96.1261 56.2451 99.2179 63.2318 98.773 66.4644C98.5283 68.2438 94.7347 73.2089 96.3609 74.6621C98.7211 76.7727 101.41 72.03 101.501 70.2679C101.623 67.9176 101.005 64.8852 100.189 62.6708Z" fill="#4DCDF1"/>
<path d="M123.598 21.4693L123.393 21.195C120.68 18.9237 112.947 21.1752 116.691 24.645C119.274 27.0398 124.928 25.856 123.601 21.4693H123.598Z" fill="#4DCDF1"/>
</svg>
