<svg width="124" height="124" viewBox="0 0 124 124" fill="none" xmlns="http://www.w3.org/2000/svg">
<path d="M22.5077 30.9043C18.6867 38.7219 16.0594 47.1977 14.9828 55.4658C13.8563 64.1231 14.9184 72.9676 20.2491 80.1035C22.1596 82.6606 24.6903 85.8145 28.0228 86.3967C31.6624 87.0316 32.1393 83.9303 35.7789 85.1738C40.3664 86.7419 43.8598 93.2605 48.1781 95.2237C51.3409 96.6602 57.5229 97.5438 57.2713 94.5098C56.0835 80.2966 20.6996 55.2113 22.5077 30.9072V30.9043Z" fill="#009ADC"/>
<path d="M77.5236 69.9443C77.3188 69.959 77.1169 69.9707 76.9092 69.997C77.1315 69.997 77.3334 69.9794 77.5236 69.9443Z" fill="#0486CC"/>
<path d="M77.5226 69.9445C77.3324 69.9767 77.1305 69.9971 76.9082 69.9971C77.113 69.9737 77.3178 69.962 77.5226 69.9445C78.0814 69.8479 78.5203 69.6285 78.9562 69.412C79.5413 69.1194 80.1265 68.5343 80.1265 67.9491C80.1265 67.364 80.4191 66.4862 80.1265 65.9011C76.9082 58.0016 66.6681 62.3902 59.9389 61.5125C55.2578 61.2199 47.0657 57.709 49.1137 53.0279C49.6989 52.1501 53.7949 53.3204 56.428 52.4427C57.3058 52.1501 56.7206 50.9799 56.1355 50.3947C50.284 47.469 43.5548 44.5432 42.3845 37.5215C40.2341 25.1485 47.9697 13.5217 57.6422 6.49698L57.2765 6.47943C53.4994 5.42616 50.4186 6.2951 46.5303 7.29278C41.3108 8.63277 36.3253 10.8622 32.9198 14.8558C28.8793 19.5955 25.3597 25.0666 22.5071 30.9064C20.699 55.2134 34.9034 84.3976 68.1602 90.5095C71.6536 91.1502 73.8303 91.1941 75.1352 87.7856C76.2089 84.9827 72.5371 82.1038 75.9632 82.253C80.3664 82.4461 87.1775 82.1623 92.005 80.1055C89.7522 74.1107 84.2898 69.4559 77.5197 69.9474L77.5226 69.9445Z" fill="#038BCF"/>
<path d="M96.7686 65.2926C95.4491 64.0434 91.2068 67.879 88.6702 64.3769C88.4273 64.0404 90.4022 62.7765 89.7556 60.3247C89.2963 58.581 86.2974 57.165 84.7058 56.4774C78.4096 53.7477 71.6599 55.8191 64.9893 55.8659C59.7756 55.901 61.3496 54.4937 63.7985 51.2871C66.9085 47.2145 65.9196 44.3736 61.6481 41.7931C56.5602 38.7211 50.2143 36.48 47.7391 30.5612C44.4096 22.5945 49.8515 15.4206 55.188 10.1513C56.3935 8.96054 57.5871 7.75806 58.775 6.55266L57.6427 6.49414C47.9703 13.5188 40.2317 25.1486 42.385 37.5186C43.5553 44.5404 50.2845 47.4661 56.136 50.3919C56.7211 50.977 57.3063 52.1473 56.4286 52.4399C53.7954 53.3176 49.6994 52.1473 49.1142 53.025C47.0662 57.7062 55.2583 61.2171 59.9394 61.5097C66.6686 62.3874 76.9087 57.9988 80.127 65.8983C80.4196 66.4834 80.127 67.3611 80.127 67.9463C80.127 68.5314 79.5419 69.1166 78.9567 69.4091C78.5179 69.6286 78.0819 69.8451 77.5231 69.9416C84.2933 69.4501 89.7556 74.105 92.0084 80.0998C93.1114 79.6287 94.112 79.067 94.9546 78.397C98.9132 75.2489 100.882 69.178 96.7715 65.2897L96.7686 65.2926Z" fill="#009ADC"/>
<path d="M23.1738 11.5048C18.1035 13.6084 13.2176 18.313 9.39948 22.3183C7.55919 24.2493 5.56969 27.7017 6.0817 30.6567C6.90968 35.4285 11.9946 29.7438 14.6746 29.4249C16.4125 29.2201 16.7197 29.4483 16.4944 31.2272C16.0994 34.3402 13.7676 37.6931 12.5944 40.5661C10.9501 44.5978 6.27771 56.5962 13.7354 57.9099C17.6735 58.6033 18.6653 50.9262 22.1001 53.9426C25.2921 56.7454 33.1389 69.095 38.4403 65.2593C41.5416 63.0182 41.8547 58.4863 40.462 55.4932C37.981 50.1625 36.167 45.5487 35.3771 40.0219C34.1629 31.5198 38.9553 22.8566 43.5545 15.7266C45.6727 12.441 48.1216 7.85055 51.9514 6.37891C42.1151 6.50764 32.4162 7.67208 23.1709 11.5077L23.1738 11.5048Z" fill="#00B2EA"/>
<path d="M58.2709 6.41698C58.1187 6.41405 57.9637 6.41113 57.8115 6.4082C57.8554 6.41698 57.8964 6.42868 57.9403 6.43746L58.2709 6.41698Z" fill="#1783A5"/>
<path d="M113.196 45.2658C112.696 46.3776 111.789 48.1184 110.674 48.7386C109.396 49.4496 108.814 48.4314 107.673 48.7679C105.914 49.2857 104.899 53.2033 104.355 54.7393C102.155 60.9477 97.4559 61.7318 91.5693 62.8787L92.0755 63.0133C94.931 63.3029 97.8363 63.6657 100.712 63.4726C106.771 63.0689 111.818 59.3152 115.016 54.2712C118.837 48.2413 117.872 42.9018 113.764 37.4336C115.034 39.78 114.229 42.972 113.196 45.2687V45.2658Z" fill="#009ADC"/>
<path d="M84.1735 54.3718C84.1735 54.325 84.1735 54.2811 84.1735 54.2373L83.9043 54.1992C84.0506 54.2577 84.1647 54.5649 84.1705 54.3718H84.1735Z" fill="#4DCDF1"/>
<path d="M90.587 36.607C89.2821 37.672 89.759 41.8792 88.5799 43.5703C87.7637 42.9442 86.3388 40.9547 85.1715 41.3643C83.9017 41.8061 84.2206 43.9155 84.2294 44.9103C84.2528 48.0467 84.7443 54.3165 84.7443 54.3165C89.6303 51.853 97.1875 47.7014 95.5227 41.0454C95.1453 39.5386 92.635 34.9364 90.587 36.607Z" fill="#009ADC"/>
<path d="M79.8501 101.303C74.97 101.025 71.6405 99.7466 68.6445 95.8145C68.6445 95.8145 70.321 100.221 72.5065 103.111C74.5516 105.815 77.2111 108.234 80.6108 108.992C83.4078 109.612 89.938 108.767 90.0785 104.779C90.2189 100.736 82.2785 101.441 79.853 101.303H79.8501Z" fill="#0486CC"/>
<path d="M93.4121 113.904L93.2981 113.597C91.5104 110.946 84.6437 112.315 87.0399 116.318C88.6959 119.08 93.6199 118.553 93.4121 113.904Z" fill="#009ADC"/>
<path d="M66.5953 108.064C66.1769 107.582 64.6643 106.499 64.0733 106.441C62.0399 106.236 61.2061 108.699 62.6894 110.572C65.738 114.416 68.3507 110.089 66.5953 108.064Z" fill="#00B2EA"/>
<path d="M77.4559 45.6464C78.1376 44.9735 79.2874 42.352 79.2874 42.352C81.4437 36.0968 72.4821 34.9353 71.3206 40.7107C70.2118 46.2257 75.0217 48.0455 77.4559 45.6464Z" fill="#00B2EA"/>
<path d="M64.7789 98.8457C64.4453 98.5502 63.3043 97.9417 62.8917 97.9563C61.4728 98.0031 61.1246 99.782 62.3212 100.941C64.7759 103.316 66.1744 100.083 64.7789 98.8487V98.8457Z" fill="#00B2EA"/>
<path d="M90.8731 87.9233L90.7824 87.7244C89.4307 85.9748 84.5184 86.6858 86.3441 89.3189C87.6051 91.1358 91.1393 90.9193 90.8731 87.9233Z" fill="#0486CC"/>
<path d="M107.172 40.5498C108.278 39.6838 108.226 38.888 106.657 37.8669C103.585 35.8628 106.257 40.427 101.71 42.2204C103.811 42.1912 105.862 41.5738 107.169 40.5498H107.172Z" fill="#00B2EA"/>
<path d="M103.418 96.6388L103.266 96.3374C101.022 93.675 93.1427 94.5498 96.1826 98.5463C98.2803 101.305 103.962 101.118 103.418 96.6388Z" fill="#009ADC"/>
</svg>
