<svg width="124" height="124" viewBox="0 0 124 124" fill="none" xmlns="http://www.w3.org/2000/svg">
<path d="M70.1483 36.4746C69.7868 36.5341 69.4253 36.6005 69.0615 36.6668C69.2514 36.7698 69.439 36.8796 69.6243 36.9985L70.1483 36.4746Z" fill="#4DCDF1"/>
<path d="M57.0815 36.4904C50.6547 38.2063 45.1272 39.4212 40.0572 43.8025C34.1567 48.9 29.3955 61.019 20.6466 61.7259C18.1139 61.9296 14.2702 60.9343 12.1631 62.847C9.74474 65.0411 12.6069 66.8989 14.7621 67.583C16.0799 68.0017 19.6216 67.7385 19.8435 69.1525C20.0815 70.6739 17.1598 71.7767 19.1023 73.5384C21.2026 75.4396 25.2979 72.6758 26.737 71.1864C28.7252 69.1296 30.0499 66.375 31.6972 64.0459C32.5597 68.5393 31.6812 72.6118 27.6522 75.3161C23.6003 78.0341 17.8599 79.6471 15.9244 84.6736C15.2014 86.552 15.858 89.7047 18.2672 89.8443C20.9944 90.0044 22.1543 86.417 24.2889 85.4767C27.8695 83.898 33.0631 85.3073 36.2089 87.1377C36.3233 87.204 36.44 87.2727 36.5567 87.339C39.7414 84.637 42.7546 81.7611 45.5115 78.6381C43.203 74.2888 42.6928 68.8093 43.1619 64.0848C43.4295 61.3873 44.2303 58.9667 45.7426 56.7154C46.8706 55.0384 49.1562 51.8125 49.735 49.822C50.6433 46.699 45.873 46.3329 48.1518 43.8689C50.1446 41.7136 54.686 40.7825 57.3423 39.8856C60.598 38.7874 63.9063 37.7556 67.2649 37.0234C67.8598 36.893 68.4592 36.7786 69.0586 36.6688C65.3522 34.6326 61.0373 35.4356 57.0769 36.4927L57.0815 36.4904Z" fill="#009ADC"/>
<path d="M101.288 52.1764C101.753 48.7263 102.078 45.0862 99.6639 42.2538C96.9321 39.0462 91.9399 33.3287 87.943 33.8595C79.7203 34.9508 70.3604 32.1619 62.8081 27.3435C55.9398 22.9622 62.4923 18.3635 62.4054 12.4722C62.3665 9.83879 60.6895 9.30113 58.683 10.8981C56.0382 13.003 55.0841 17.0342 54.5693 20.187C54.2742 22.0013 54.7043 24.2434 52.6361 24.3532C50.4854 24.4676 46.8591 18.9446 42.6723 19.7294C37.1744 20.7612 37.6229 26.9226 38.0667 28.8421C39.531 35.1682 43.6538 32.9054 43.9809 34.3834C45.0036 39.0164 38.1834 43.9537 44.7657 43.018C50.7554 42.1692 62.4557 35.8111 67.7934 39.879C69.9967 41.5583 67.7934 43.2811 74.8585 45.1114C77.9128 45.903 82.4314 43.6952 85.3942 45.0702C88.9336 46.7152 91.146 50.0853 93.6422 52.9246C95.4679 54.9997 97.5453 57.2396 100.167 55.1118C101.311 54.1829 102.11 52.6294 102.858 51.3917L101.288 52.1764Z" fill="#04B0F0"/>
<path d="M105.736 34.9053C107.303 32.4938 110.797 29.3068 109.381 25.9687C107.891 22.4614 102.673 23.4154 100.611 25.685C97.3898 29.2267 99.0829 33.7247 98.7168 37.8887C98.4125 41.3618 96.0194 39.2729 93.7612 38.2502C88.8125 36.0058 87.2338 39.0167 87.68 41.9703C87.998 44.0867 90.3294 45.9055 88.7073 46.9877C87.2361 47.9692 83.4748 46.72 83.3238 48.9988C82.9715 54.2678 89.1305 53.9658 90.8213 55.3157C93.8596 57.7386 96.5456 61.7744 97.3029 65.7874C97.6415 67.5834 98.2913 73.9827 96.1727 75.0992C94.2806 76.0944 94.5093 72.2965 92.9147 70.2328C91.0523 67.8214 84.2801 67.6154 87.5953 74.1863C89.0527 77.0782 88.467 83.2235 84.7698 84.8502C81.5804 86.2527 77.9884 84.523 74.7556 86.4769C73.1358 87.4561 71.8889 88.9936 70.7129 90.4464C72.0673 92.1395 76.8834 92.5627 78.9173 92.716C81.5278 92.9105 84.1406 92.8785 86.6252 92.128C91.105 90.7759 96.9986 88.5658 99.7189 84.3629L96.3168 85.4085C103.515 81.2193 109.255 73.5343 107.045 64.9981C106.109 61.3855 102.567 59.0152 104.276 55.3157C105.798 52.0211 110.003 51.1814 111.593 48.3193C116.727 39.0899 100.886 42.3753 105.736 34.903V34.9053Z" fill="#0E91D9"/>
<path d="M111.018 85.2252C105.937 85.2252 106.456 83.4246 106.491 78.9838C106.543 72.2253 102.105 76.2474 99.6086 79.462C96.2705 83.7563 94.5226 85.2252 90.306 80.9857C89.0225 83.7678 87.0686 84.0812 84.6366 82.6604C82.4402 81.3792 80.7082 80.5945 78.0406 81.0383C74.5401 81.6217 74.6018 83.1844 73.6683 86.0809C72.5518 89.5402 70.2914 92.2513 66.9213 93.7225C62.0778 95.8388 54.2852 94.7612 51.0479 90.3798L51.3087 95.0906C54.0839 99.0716 57.4105 103.551 62.2472 105.096C66.3128 106.393 68.3604 104.13 71.8655 102.803C75.9311 101.263 80.5847 102.437 84.7693 101.124C89.4091 99.6664 91.0816 96.1019 94.2206 92.8416C97.895 89.0277 103.244 87.8906 108.376 88.1354C110.14 88.22 118.873 90.6429 119.85 88.2521C121.172 85.017 112.352 85.2275 111.021 85.2252H111.018Z" fill="#03B8F1"/>
<path d="M83.3871 88.293C81.4035 88.7437 79.5617 88.9542 77.9076 87.586C76.7361 86.6159 76.2534 84.6415 74.78 84.0375C71.2544 82.5938 66.134 88.5378 62.4093 88.9359C57.2958 89.4804 51.1597 85.4857 47.8193 81.9074C46.9042 80.9282 46.1423 79.8232 45.5131 78.6357C42.7539 81.7587 39.7408 84.6346 36.5583 87.3366C38.5167 88.4783 40.8412 89.8831 42.1133 91.7248C43.7515 94.0974 38.8531 97.591 35.3457 96.9207C38.7204 98.8082 47.2382 102.215 51.0521 99.8949C53.7084 98.282 53.7061 98.4421 55.5708 100.696C56.82 102.206 58.6457 102.979 60.6591 102.048C63.313 100.822 63.0842 97.7443 62.3452 95.3832C66.9165 96.2961 70.7533 95.5731 75.265 94.7975C79.6761 94.0402 84.1215 93.8411 87.5511 90.5466C92.239 86.0463 86.1966 87.6547 83.3894 88.2907L83.3871 88.293Z" fill="#009ADC"/>
<path d="M93.4381 17.0293C93.1384 15.1052 92.4635 13.1261 90.8116 11.8106C89.1094 10.4562 86.5516 10.4745 86.9016 13.0072C87.1647 14.9199 88.3979 16.4939 89.7043 17.9376C91.0313 19.4019 92.2118 20.9462 93.4496 22.4288C94.287 21.3923 93.6463 18.3563 93.4381 17.0293Z" fill="#04B0F0"/>
<path d="M106.584 14.032C107.684 12.2223 109.139 10.6093 111.162 10.3576C113.246 10.0968 115.481 11.8585 114.07 14.2722C113.003 16.0957 110.912 15.9676 109.137 16.5899C107.336 17.2191 105.95 18.9693 104.218 19.6808C103.936 18.0267 105.822 15.2835 106.581 14.0343L106.584 14.032Z" fill="#0E91D9"/>
<path d="M34.6648 93.5304C31.9742 93.4961 28.2426 93.3222 24.6483 96.2896C22.2277 98.287 21.8136 100.444 24.0832 100.097C26.1858 99.7741 28.4142 97.8065 30.5694 96.1889C32.4318 94.7887 33.8183 94.338 35.5044 94.0131L34.6671 93.5327L34.6648 93.5304Z" fill="#04B0F0"/>
<path d="M3.82583 84.2789C2.14194 84.7067 -1.59649 87.2669 0.755472 89.4999C2.67502 91.3211 6.40201 87.9029 8.25979 87.3813C9.90022 86.9214 11.6665 87.093 13.3183 86.6263L12.9248 85.6082C10.4058 83.0434 6.90993 83.4941 3.82583 84.2789Z" fill="#04B0F0"/>
<path d="M121.438 48.2505C114.11 44.5876 107.482 58.5438 110.623 59.7632C112.456 60.4771 112.717 56.7981 116.904 56.2742C119.201 55.9859 120.745 55.4505 122.66 54.0069C124.488 52.6295 124.147 49.6049 121.438 48.2505Z" fill="#0E91D9"/>
<path d="M50.5907 102.987C47.0467 102.07 43.0521 106.616 47.2389 108.515C50.8195 110.139 53.0044 105.3 50.5907 102.987Z" fill="#0E91D9"/>
<path d="M115.972 91.7431C117.83 91.75 119.772 92.1092 121.165 93.4956C122.602 94.9256 122.801 97.3668 120.36 97.4011C118.516 97.4262 116.912 96.4768 115.425 95.4381C113.92 94.3833 111.041 94.301 110.829 92.5141C110.673 91.2054 114.688 91.7385 115.972 91.7431Z" fill="#04B0F0"/>
<path d="M11.7395 59.5944C12.3527 59.8301 14.3569 60.1298 15.025 59.9468C17.322 59.3199 17.4547 56.9634 15.2309 55.9979C10.6619 54.0188 9.17023 58.6084 11.7395 59.5922V59.5944Z" fill="#04B0F0"/>
<path d="M72.6501 108.095C72.0027 108.202 70.3348 109.218 70.3348 109.218C66.6856 111.868 71.2911 116.013 74.1922 113.243C76.9605 110.6 74.9563 107.706 72.6501 108.095Z" fill="#00B2EA"/>
</svg>
