<svg width="161" height="160" viewBox="0 0 161 160" fill="none" xmlns="http://www.w3.org/2000/svg">
<g clip-path="url(#clip0_202_71966)">
<rect x="0.0703125" width="160" height="160" rx="80" fill="#FEF0FF"/>
<path d="M89.5539 55.4737C89.1154 56.9874 88.078 59.9628 86.8897 63.4569C86.918 63.4427 86.951 63.438 86.984 63.4239C86.8614 63.6219 86.7577 63.7964 86.7058 63.9284C86.1635 65.2157 85.7439 66.5549 85.2488 67.8705C84.1595 70.7893 82.7685 73.6987 81.4387 76.5185C72.3239 95.8893 60.1063 113.827 45.2434 129.246C43.1215 131.448 40.943 133.598 38.7126 135.697C36.5247 137.757 33.9454 138.978 31.3661 140.535C30.9181 140.808 30.456 141.086 30.1401 141.506C29.8241 141.926 29.6827 142.52 29.9326 142.982C30.0363 143.01 30.1353 143.029 30.2391 143.048C32.0356 143.354 33.7992 142.194 35.2987 141.091C43.9797 134.702 51.3499 125.53 58.14 117.146C64.8641 108.847 70.9564 100.029 76.1151 90.6694C78.2558 86.7839 80.2269 82.8088 82.0329 78.7583C83.4663 75.5424 85.4327 72.5387 86.7152 69.2615C89.7142 61.6084 90.8318 53.498 94.6654 46.142C96.5893 42.4546 98.8621 39.1962 101.823 36.3387C104.129 34.1083 109.778 30.3502 109.448 29.2656C100.673 32.2552 92.916 43.8126 89.5539 55.4737Z" fill="#8FAF05"/>
<path d="M84.4199 41.0391C82.1612 45.9053 80.5957 51.4648 79.9309 56.911C79.2849 62.1828 74.5412 84.7978 76.8753 87.1838C79.167 90.5412 79.1198 74.3532 80.0252 65.6817C80.69 59.33 81.4964 52.9265 83.5051 46.8909C84.0804 45.1603 84.7547 43.5099 85.5186 41.9114C85.1367 41.6379 84.7689 41.3503 84.4199 41.0391Z" fill="#8FAF05"/>
<path d="M83.6674 21.5047C84.9075 22.3535 87.4633 18.6943 89.0005 18.3171C91.179 17.7796 94.6165 18.0908 96.314 19.6893C99.1008 22.311 99.4828 26.6775 96.0547 28.8418C93.2113 30.629 89.8775 34.4626 88.5006 37.4993C87.4963 39.7155 87.8688 43.502 84.9028 44.2423C83.6202 44.5629 81.0456 44.5771 79.9941 43.5538C78.919 42.5165 79.4 40.6586 79.4283 39.343C79.5037 35.8536 79.4141 32.3124 78.4003 28.9503C77.8345 27.0689 75.7927 25.0695 76.1463 23.0749C76.3491 21.9197 76.8725 21.5707 77.6977 20.8964C78.2117 20.4815 78.5795 20.5758 79.0605 20.0618C79.3575 19.7459 79.2726 19.0904 79.6074 18.7934C80.4845 18.02 81.4842 18.2134 82.3801 18.982C83.2006 19.6846 82.9884 20.9341 83.6108 21.4481C83.6297 21.4764 83.6485 21.4953 83.6674 21.5047Z" fill="#F9F200"/>
<path d="M83.6101 21.4606C82.9877 20.9467 83.1999 19.6924 82.3794 18.9945C81.4835 18.2259 80.4838 18.0278 79.6067 18.8059C79.2672 19.103 79.3568 19.7584 79.0598 20.0743C78.5741 20.5836 78.2063 20.4893 77.697 20.9089C76.8718 21.5832 76.3484 21.9322 76.1456 23.0875C75.8957 24.5115 76.8624 25.9403 77.6451 27.3313C77.3103 25.9968 76.6879 24.9312 77.2821 23.4835C77.7017 22.4603 79.2531 21.2202 80.0406 20.3525C80.4838 19.8668 81.1487 19.9847 81.4552 20.5506C81.7711 21.1447 82.0587 22.8092 83.0961 22.5452C83.5582 22.4273 83.9355 22.8705 84.0156 23.2619C84.1948 24.1107 84.5673 25.5206 84.4023 26.3646C84.5107 25.8035 84.605 25.2471 84.7559 24.6954C85.0766 23.5166 86.3969 22.3943 87.1325 21.4654C87.92 20.4704 88.7546 19.6782 90.0796 19.5132C91.2773 19.367 92.5882 20.7156 93.6491 20.4327C93.9981 20.3384 94.3942 20.362 94.6205 20.6968C94.9647 21.1966 94.8846 21.5314 94.8469 22.1538C94.8044 22.88 93.569 23.4175 94.7808 22.913C95.4127 22.6489 96.5963 22.7432 96.8745 23.5118C97.412 24.9878 96.5868 26.9588 95.889 28.2744C95.7569 28.5243 95.6579 28.8449 95.5777 29.1892C95.7381 29.076 95.8984 28.9487 96.0587 28.8497C99.4868 26.69 99.1048 22.3188 96.3181 19.6971C94.6158 18.0986 91.183 17.7874 89.0045 18.3249C87.4673 18.7021 84.9115 22.3613 83.6714 21.5125C83.6478 21.4937 83.629 21.4748 83.6101 21.4606Z" fill="#F6FF48"/>
<path d="M93.172 25.2931C91.7715 27.0849 89.8382 29.0041 87.4852 29.2493C87.1834 26.9105 89.0318 24.6424 88.9941 22.2375C85.9244 24.8263 86.4855 29.669 83.5431 32.2247C84.0618 31.7532 83.4913 28.3581 83.3357 27.6885C82.8075 25.411 80.6809 22.86 78.3987 22.1244C79.6199 23.1523 83.5997 30.0886 80.4687 30.8525C79.2238 31.1543 78.592 28.0705 77.3047 26.7407C77.7385 27.4952 78.1723 28.2355 78.3892 28.9617C79.403 32.3237 79.4879 35.865 79.4172 39.3544C79.4077 39.9155 79.3182 40.5757 79.2993 41.2311C79.8746 42.9899 81.4825 43.8953 83.5243 43.5369C85.2737 43.2304 86.4761 41.9714 87.6314 40.6652C87.9002 39.5571 88.0888 38.4066 88.4943 37.5059C89.4704 35.3604 91.4178 32.833 93.4785 30.895C91.9978 31.2863 90.5738 31.4797 89.4327 31.2156C88.7631 31.0647 93.2663 26.5568 93.469 26.3258C94.6526 24.9819 95.8833 23.1712 95.4778 21.3086C94.5347 22.511 94.148 24.0435 93.172 25.2931Z" fill="#E8D80A"/>
<path d="M86.6619 33.6925C86.3978 33.254 87.355 31.382 87.5248 30.9104C88.0624 29.4487 88.9488 28.1284 89.5005 26.6666C90.0475 25.2237 91.0943 23.6582 91.3207 22.1445C90.5096 23.9882 89.4298 25.9734 88.1897 27.5672C87.3645 28.6329 86.3695 29.5147 85.5585 30.5898C85.0021 31.3348 84.1533 32.3345 83.6723 30.9434C83.0735 29.2035 83.1819 27.5578 82.0738 26.0064C82.9556 27.7558 82.767 29.8919 82.7104 31.7403C82.6868 32.5042 82.3756 33.7632 81.4089 33.0418C80.6168 32.4524 80.3527 31.4668 79.5888 30.868C79.3247 30.6605 79.023 30.453 78.707 30.255C79.3955 33.221 79.4898 36.2954 79.4238 39.3321C79.4143 39.898 79.32 40.5723 79.3012 41.2324C79.3719 41.5106 79.4568 41.7794 79.6077 42.0435C81.0741 44.5662 84.5447 43.6137 86.4261 42.1613C86.8835 41.8077 87.2324 41.355 87.5672 40.8882C87.8737 39.7093 88.0576 38.4456 88.4962 37.479C88.9017 36.5878 89.4864 35.6258 90.1654 34.6686C90.0522 34.7157 89.9391 34.7818 89.8259 34.8148C89.6137 34.8808 89.3968 34.9232 89.1799 34.9421C88.8498 34.0414 89.774 32.2496 90.2126 31.4716C91.0943 29.8966 92.4194 28.647 93.0842 26.8835C91.9761 27.5719 91.3678 29.2129 90.5002 30.1843C89.642 31.1415 88.6706 32.0091 87.8502 32.9758C87.5908 33.3058 86.9825 34.2159 86.6619 33.6925Z" fill="#CCBA1B"/>
<path opacity="0.48" d="M85.6769 32.9082C86.073 31.5408 86.5823 30.3572 87.2849 29.1406C85.9174 29.8998 84.715 31.305 84.0595 32.7432C83.7766 33.3703 83.6635 34.3134 82.843 34.1059C82.0791 33.9126 81.7584 32.8516 81.4189 32.2386C81.4708 32.8941 81.5887 34.8651 80.5042 34.8179C80.0232 34.7944 79.6365 34.3087 79.2734 33.7523C79.4432 35.6101 79.4668 37.4869 79.4243 39.3494C79.4149 39.9058 79.3253 40.5613 79.3017 41.2073C79.5234 41.9005 79.8063 42.5512 80.4664 43.0227C82.2677 44.3242 84.8517 43.3905 86.4314 42.1834C86.8605 41.8533 87.233 41.4431 87.5489 40.9951C87.8696 39.788 88.0535 38.4912 88.5014 37.501C88.7844 36.8833 89.1616 36.2231 89.586 35.563C89.3785 35.7044 89.1805 35.8459 88.973 35.9685C88.5392 36.2184 88.1053 36.4023 87.6998 36.4448C87.5442 35.7893 88.1761 35.181 88.4496 34.6246C88.7514 34.0163 88.8881 33.3232 89.0343 32.6677C88.294 32.9742 87.7753 34.7897 87.266 35.464C86.6106 36.3363 85.7571 37.3737 84.5735 37.3454C84.0501 35.9732 85.3044 34.2002 85.6769 32.9082Z" fill="#979E02"/>
<path d="M85.9301 37.0928C85.982 36.6401 86.0339 36.3006 86.0339 36.2582C86.2131 35.0746 86.4064 33.3582 85.3596 32.5C83.4451 34.1692 83.1103 36.7627 81.1205 38.3612C80.399 37.602 80.366 36.6495 79.984 35.7725C76.919 37.951 77.6169 42.8456 77.5038 46.0897C77.4094 48.7445 78.1828 51.7954 79.9793 53.7664C83.8271 57.9867 88.4623 45.0335 88.981 42.4636C89.3016 40.8887 89.8911 38.4508 89.0187 37.0126C88.849 36.7297 86.3498 39.3137 86.0622 39.5118C85.6755 39.79 85.8075 38.1443 85.9301 37.0928Z" fill="#8FAF05"/>
<path opacity="0.71" d="M89.0274 37.0149C88.9236 36.8404 87.9051 37.7788 87.0893 38.5616C87.1601 39.1227 88.3861 39.2877 87.476 44.1116C87.1601 45.7761 85.7266 48.7987 84.1092 49.5107C83.2651 48.8835 85.2928 41.7963 85.1372 40.9145C84.958 39.9337 81.7374 48.1715 81.8694 47.1624C82.124 45.248 82.8973 40.8674 83.3642 39.0001C83.765 37.4252 84.2318 36.0058 84.9438 34.5016C85.1654 34.0254 85.4625 33.5019 85.7454 32.9597C85.637 32.7946 85.5191 32.6437 85.3588 32.5117C84.3638 33.3793 83.7933 34.5016 83.1991 35.5956C83.0388 36.0671 82.8879 36.5434 82.737 37.0338C82.2561 38.6276 81.7751 40.1742 81.2422 41.768C80.7943 43.1119 80.1483 45.1254 79.1628 46.1533C78.38 44.5029 78.7525 39.0189 80.3275 36.8027C80.2237 36.4632 80.1294 36.119 79.988 35.7889C76.923 37.9674 77.6208 42.862 77.5077 46.1062C77.4134 48.7609 78.1867 51.8118 79.9832 53.7828C83.831 58.0031 88.4662 45.0499 88.9849 42.48C89.3103 40.891 89.8997 38.4531 89.0274 37.0149Z" fill="#637F1D"/>
<path d="M91.7309 55.4581C90.7218 56.6039 88.383 58.7353 88.2227 60.3668C88.5763 60.3149 88.8639 60.0603 89.194 59.7632C90.9623 58.1694 97.2715 51.8036 97.5874 51.2802C97.9222 50.7144 97.71 50.2806 97.0074 50.3277C96.2152 50.3843 95.5692 51.4076 94.9987 52.0206C93.9188 53.1758 92.7871 54.2556 91.7309 55.4581Z" fill="#8FAF05"/>
<path d="M109.395 41.7818C109.508 41.546 109.607 41.3102 109.692 41.0603C109.928 40.3577 110.144 38.7215 109.3 38.382C108.329 37.9906 106.688 39.2779 105.769 39.5797C104.698 39.9286 104.698 39.8107 103.845 39.2166C103.067 38.6743 102.364 38.995 101.619 39.4665C99.2567 40.9566 94.0933 47.7892 94.447 51.6416C94.9327 56.904 105.679 50.6373 106.933 48.3267C107.174 47.874 107.296 47.3742 107.414 46.8414C107.636 45.7993 107.919 44.9411 108.296 43.9697C108.593 43.2105 109.046 42.5174 109.395 41.7818Z" fill="#B3D100"/>
<path opacity="0.71" d="M94.6891 52.548C94.7834 52.7413 94.8966 52.9064 95.0333 53.0431C95.0616 53.0714 95.0852 53.0997 95.1087 53.1327C95.2691 53.2742 95.4483 53.3873 95.6463 53.4769C95.6652 53.4816 95.6793 53.4911 95.6982 53.5005C95.8962 53.576 96.1225 53.6278 96.3489 53.6561C96.4102 53.6656 96.4762 53.6703 96.5375 53.675C96.679 53.6844 96.8346 53.6797 96.9902 53.675C99.197 53.5618 102.408 51.8784 104.903 50.2846C105.898 49.549 106.657 48.8464 106.935 48.3325C107.157 47.9175 107.274 47.4554 107.383 46.9744C107.048 47.3422 106.657 47.7477 106.176 48.2051C104.945 49.3698 102.012 50.9778 100.286 50.61C99.975 49.6056 105.766 45.0505 106.152 44.2442C106.586 43.3436 99.1451 48.1344 99.843 47.3941C101.177 45.9889 104.365 42.8909 105.836 41.6508C107.081 40.6087 108.298 39.7316 109.75 38.9253C109.755 38.9253 109.759 38.9205 109.764 38.9205C109.67 38.6753 109.524 38.4773 109.293 38.3877C109.099 38.3123 108.878 38.3123 108.642 38.3453C108.326 38.4914 108.01 38.6376 107.699 38.7932C107.293 39.0762 106.892 39.3732 106.482 39.6844C105.157 40.6935 103.865 41.6649 102.498 42.6504C101.352 43.4756 99.6449 44.7346 98.2445 44.9845C98.5085 43.5416 100.838 40.5474 103.073 38.9677C102.583 38.9441 102.106 39.161 101.611 39.4722C99.2488 40.9623 94.0855 47.7949 94.4392 51.6474C94.4627 51.9256 94.5335 52.1566 94.6136 52.3735C94.6466 52.4254 94.6608 52.4914 94.6891 52.548Z" fill="#7DA012"/>
<path d="M63.9952 75.2207C65.2495 79.1439 65.7069 83.086 65.6503 87.2449C65.5654 93.606 64.2215 99.9199 62.7645 106.139C62.3448 107.927 61.7742 110.02 61.1707 112.185C62.0336 111.02 62.9295 109.884 63.8632 108.761C64.6695 104.046 65.3249 99.7832 65.7352 97.8829C68.3003 86.0189 66.947 72.1699 60.6331 65.375C59.8268 66.1766 63.0191 72.1604 63.9952 75.2207Z" fill="#8FAF05"/>
<path d="M63.6447 62.156C63.0081 63.5942 63.5127 65.4237 64.2341 66.711C64.8235 67.7626 65.7477 69.2102 63.6588 69.4931C62.6969 69.6204 61.9377 69.0169 61.0842 68.7764C59.8912 68.4416 58.6275 69.0829 57.4722 68.7387C55.8784 68.2671 56.2132 66.8242 55.5059 65.6359C54.9401 64.6834 54.4733 64.2732 53.4312 64.0751C51.2055 63.646 48.961 64.4477 46.8674 65.122C43.708 66.1358 40.5204 66.1358 37.4272 64.806C34.7394 63.6555 30.604 60.3688 31.1133 57.0115C31.4386 54.866 33.8482 53.8758 35.0176 52.1688C36.8849 49.4433 34.7488 46.4632 35.6542 43.5915C36.2106 41.828 38.9832 40.3756 40.4874 39.5127C42.3453 38.4423 44.571 37.8293 46.6929 38.5178C50.3803 39.7155 52.7003 44.3648 54.2611 47.6043C55.4918 50.1648 56.317 52.8761 57.7033 55.3092C58.5851 56.8559 59.0943 57.1765 59.5376 55.064C59.9195 53.2298 60.4288 51.4709 61.1833 49.7592C63.2392 45.0957 69.3456 36.9475 75.3011 41.2715C77.7578 43.054 78.003 45.3598 78.7811 48.0193C79.1111 49.1509 79.097 50.1412 79.9882 51.0135C80.9454 51.9566 82.6383 51.9566 82.4355 53.541C82.096 56.1674 77.6588 58.5063 75.7396 59.869C73.4951 61.4628 70.8687 61.9957 68.1715 61.4392C66.4268 61.0762 64.5878 60.0246 63.6447 62.156Z" fill="#EFE306"/>
<path d="M43.514 44.6367C44.1648 45.2403 46.0556 46.6926 47.159 47.7064C49.927 50.248 52.7751 52.1247 53.9869 55.8122C51.6009 54.2938 49.4884 52.6953 46.7205 51.8795C49.6818 52.7519 52.6383 56.3026 54.4113 58.7593C52.7892 56.7034 49.2244 54.8738 46.6073 54.6475C44.0846 54.4306 39.4824 55.5858 37.9688 57.8021C40.1095 57.373 42.2739 56.6091 44.4854 56.5855C46.1499 56.5666 49.9505 56.5855 51.0021 58.217C48.701 57.7361 45.3436 57.8068 43.3584 59.377C45.9896 59.3346 47.9371 58.83 50.4834 59.8061C52.5817 60.6077 55.3214 62.1261 55.5618 64.6441C55.5901 64.9789 55.51 65.243 55.3968 65.474C55.4345 65.5306 55.4675 65.573 55.5053 65.6343C56.2079 66.8226 55.8778 68.2655 57.4716 68.737C58.542 69.053 59.7114 68.5532 60.8289 68.7418H60.8384C60.8431 68.7418 60.8478 68.7465 60.8525 68.7465C60.9327 68.7606 61.0128 68.7512 61.0883 68.7748C61.1543 68.7936 61.2203 68.8266 61.2816 68.8455C61.7814 69.0011 62.2718 69.2699 62.7952 69.2274C63.3894 69.1803 64.2853 68.7323 64.903 68.1571C64.7899 67.6808 64.4881 67.1621 64.2382 66.7094C63.5167 65.4221 63.0122 63.5926 63.6487 62.1544C64.5918 60.023 66.4308 61.0793 68.1802 61.4376C70.8774 61.9988 73.5039 61.4612 75.7484 59.8674C76.0172 59.6788 76.3425 59.4619 76.6962 59.2308C77.0876 58.9715 77.512 58.698 77.9599 58.4009C77.9741 58.3915 77.9929 58.3821 78.0071 58.3679C78.4032 58.1039 78.8134 57.8209 79.2095 57.5239C79.2425 57.5003 79.2755 57.4767 79.3085 57.4531C79.7282 57.1419 80.1337 56.8166 80.5109 56.477C79.417 57.307 78.2146 58.0095 76.9367 58.5471C75.3146 59.2308 73.7161 59.9051 71.9101 59.7165C70.8868 59.6128 69.9296 59.2403 68.9488 59.0988C68.548 59.0422 65.549 59.0281 65.3934 59.2968C66.2516 57.8304 68.6753 57.2362 70.0664 56.5101C71.9242 55.5434 74.5979 53.9166 75.8427 52.2615C74.2301 52.9264 72.8013 54.0062 71.1368 54.6475C69.642 55.2228 67.3927 55.2416 66.1196 56.1517C67.4399 54.1712 69.7221 53.0254 71.5659 51.4646C69.9579 51.8796 68.6706 52.8038 67.3032 53.7751C66.3459 54.4541 65.351 55.9348 64.1486 56.1658C61.9748 56.5902 64.7144 53.8176 65.2991 53.2093C67.2041 51.2194 69.2223 49.2201 71.5517 47.631C70.7029 48.211 69.2883 48.3383 68.3358 48.8853C67.289 49.4889 66.478 50.2009 65.6858 51.0826C63.9458 53.016 61.9465 54.7748 60.3574 56.8401C59.8623 56.3733 59.7208 55.5623 59.6218 54.7889C59.6029 54.8785 59.5699 54.9681 59.5511 55.0577C59.1125 57.1702 58.5986 56.8496 57.7168 55.3029C57.4763 54.888 57.2735 54.4542 57.0661 54.0203C55.444 54.1241 53.0533 50.7856 51.8838 49.7906C50.6296 48.725 49.2102 47.8856 47.7815 47.0793C46.6262 46.4474 44.4807 45.5279 43.514 44.6367Z" fill="#E0CF05"/>
<path opacity="0.48" d="M55.9124 56.4512C56.4829 57.6442 57.6618 59.5539 57.6241 60.8648C56.7706 59.8415 56.0491 58.7994 55.1202 57.8517C54.2573 56.9699 53.2623 56.305 52.3287 55.4987C53.9885 57.6347 57.7184 60.1575 57.5816 63.1848C55.4267 61.2232 53.6066 58.5165 50.3812 58.3421C52.7861 59.5068 55.1202 61.6758 56.3415 64.0665C55.7662 63.661 55.3371 63.0386 54.6157 62.6236C53.6631 62.0672 52.5126 61.4401 51.4233 61.176C49.7494 60.7705 47.7783 61.0723 46.1562 61.5297C48.0801 61.0911 51.4281 61.5721 52.9511 62.9867C53.3001 63.3074 53.8046 63.8119 54.163 64.3023C54.7288 64.5522 55.0919 64.9483 55.5021 65.6415C56.2047 66.8297 55.8747 68.2727 57.4685 68.7442C58.6237 69.0837 59.8922 68.4424 61.0804 68.7819C61.5661 68.9187 62.0235 69.1591 62.4998 69.3336C63.3108 68.9139 63.7163 67.8436 64.6217 67.4427C64.4944 67.1928 64.3576 66.9476 64.2303 66.7166C63.7399 65.8395 63.3768 64.7125 63.3815 63.628C63.1363 62.6849 63.1741 61.7654 64.0181 60.9119C65.3762 59.5445 68.4977 59.5869 70.2472 59.8887C67.5641 59.5445 65.0838 58.8136 62.5752 60.2282C62.8534 59.2003 64.5415 58.3751 65.395 57.7668C66.3522 57.083 67.4886 55.9844 68.6156 55.7297C66.621 56.2814 64.7584 56.786 63.0892 58.0827C61.9104 58.9928 60.9295 60.1952 59.7601 61.0251C59.7177 60.1999 60.1185 59.4266 60.0666 58.5401C60.0195 57.8186 59.8544 57.017 59.5809 56.3946C59.2886 57.8234 59.265 59.3889 58.784 60.7893C58.9255 57.4886 55.9878 53.9473 53.0879 52.6836C54.0498 53.9285 55.1768 54.914 55.9124 56.4512Z" fill="#979E02"/>
<path opacity="0.63" d="M61.6892 58.5863C60.0624 59.1475 59.4117 61.3165 58.9118 62.849C58.4733 61.7221 58.346 60.812 57.5349 59.7463C56.7192 58.6712 55.6299 58.0912 54.5312 57.332C55.4413 59.2465 57.021 60.7884 56.474 63.0235C55.9836 62.6038 55.347 62.1229 54.7434 61.9955C55.347 62.1181 55.762 64.2118 55.6299 64.7069C55.5592 64.9662 55.4413 65.1643 55.2999 65.3246C55.3659 65.4236 55.4366 65.5132 55.5073 65.6311C55.9411 66.3667 55.9836 67.2013 56.3278 67.8426C56.7663 67.8473 57.153 67.8615 57.3841 67.9039C58.4827 68.1067 59.4588 68.4745 60.3925 68.6961C60.6235 68.7008 60.8593 68.7103 61.0856 68.7716C61.1517 68.7904 61.2129 68.8187 61.279 68.8423C62.2928 68.9413 63.2783 68.7338 64.3298 67.7342C64.4241 67.6446 64.5326 67.5503 64.641 67.4512C64.5137 67.1966 64.3675 66.9373 64.2355 66.7062C63.8913 66.0885 63.6036 65.3482 63.4575 64.589C63.1698 64.8766 62.9246 65.1077 62.7737 65.1266C61.4581 65.2539 61.7835 62.4765 62.1937 61.8494C62.8539 60.8356 64.4241 60.1565 65.3672 59.3974C63.4905 59.4398 61.5147 60.2556 60.4538 61.8635C60.185 61.0336 60.9819 59.0767 61.6892 58.5863Z" fill="#ADA405"/>
<path opacity="0.5" d="M60.4258 51.8159C65.839 44.7711 68.9088 42.3569 72.9829 42.9133C78.3207 43.6394 75.2179 50.2551 79.4288 52.278C81.3197 53.1834 81.6167 54.4848 81.1829 55.8004C81.8383 55.0837 82.3335 54.3292 82.4325 53.5418C82.6352 51.9574 80.9471 51.9621 79.9852 51.0143C79.094 50.142 79.1081 49.1517 78.7781 48.02C78 45.3606 77.7548 43.0547 75.2981 41.2723C69.3426 36.9483 63.2361 45.0965 61.1802 49.76C60.8879 50.4343 60.6568 51.1228 60.4258 51.8159Z" fill="#FCFF7D"/>
<path opacity="0.5" d="M35.6581 43.592C34.7527 46.4589 36.8888 49.4438 35.0215 52.1692C33.8521 53.8762 31.4425 54.8664 31.1172 57.0119C30.6079 60.3693 34.7433 63.6559 37.4311 64.8065C40.5291 66.1315 43.712 66.1362 46.8713 65.1224C48.9555 64.4528 51.1905 63.6606 53.4115 64.0756C51.4169 61.2464 45.3859 63.6795 42.783 63.9907C40.3735 64.2784 38.6853 63.7974 36.521 62.661C30.938 59.728 34.1114 55.7011 37.2283 52.2494C38.558 50.7782 40.0528 50.0285 39.2135 47.3265C38.9258 46.3976 38.5769 45.4027 38.7467 44.4172C39.0296 42.7385 40.6752 40.9749 42.3445 40.6448C44.8248 40.1544 46.3148 39.6688 48.3047 41.0598C49.8231 42.1208 51.8696 44.5256 53.2465 45.5724C51.7328 42.6772 49.658 39.4896 46.6968 38.5276C44.5701 37.8345 42.3492 38.4522 40.4913 39.5226C38.9824 40.3761 36.2145 41.8284 35.6581 43.592Z" fill="#FCFF7D"/>
<path d="M48.0156 54.8755C51.67 55.4885 53.5845 59.5012 55.3858 62.3493C56.409 63.9667 57.4087 66.7629 58.5262 68.3332C59.4221 68.5029 60.2992 68.6161 61.148 68.8283C61.3885 67.3382 61.0159 64.7448 61.0301 63.9196C61.0725 60.2699 61.6384 55.281 64.9957 53.0742C59.6108 53.442 59.3797 63.0708 59.7428 67.3807C58.1914 62.4012 56.824 54.8613 56.7862 50.5703C55.4141 52.5979 55.8903 56.1439 56.4609 58.4591C57.3002 61.8919 57.3662 63.2641 58.0688 65.5181C54.7539 59.7417 53.278 53.9795 48.0156 54.8755Z" fill="#8D9309"/>
<path d="M49.379 53.9207C48.7236 53.3266 47.2524 53.4963 46.663 54.2461C46.4083 54.5715 46.3895 55.0006 46.8044 55.5051C47.4363 56.2784 49.3743 56.1747 49.6525 55.0619C49.7798 54.5432 49.6525 54.1707 49.379 53.9207Z" fill="#B2AD02"/>
<path d="M49.3801 53.9207C48.7247 53.3266 47.2535 53.4963 46.6641 54.2461C46.6641 54.2461 47.7156 53.6331 48.6634 54.4206C49.5735 55.175 48.7718 55.9059 48.7718 55.9059C49.1962 55.7692 49.5499 55.491 49.6536 55.0666C49.7809 54.5432 49.6536 54.1707 49.3801 53.9207Z" fill="#8D9309"/>
<path d="M57.3156 52.3C57.8862 51.6304 57.674 50.1639 56.9101 49.5933C56.5753 49.3481 56.1462 49.3434 55.6511 49.7725C54.9013 50.428 55.0617 52.366 56.1839 52.6065C56.7073 52.7244 57.0751 52.5829 57.3156 52.3Z" fill="#B2AD02"/>
<path d="M57.3157 52.3004C57.8863 51.6308 57.6741 50.1643 56.9102 49.5938C56.9102 49.5938 57.5515 50.6264 56.797 51.5931C56.0662 52.5267 55.3164 51.7487 55.3164 51.7487C55.4626 52.1683 55.7502 52.5126 56.1793 52.6022C56.7074 52.7248 57.0752 52.5833 57.3157 52.3004Z" fill="#8D9309"/>
<path d="M63.1322 53.0985C63.3444 52.2403 64.6647 51.566 65.57 51.8584C65.9661 51.9857 66.216 52.3346 66.1547 52.9853C66.0557 53.9756 64.3865 54.9658 63.5377 54.1972C63.1416 53.8388 63.0426 53.4569 63.1322 53.0985Z" fill="#B2AD02"/>
<path d="M63.1322 53.0985C63.3444 52.2403 64.6647 51.566 65.57 51.8584C65.57 51.8584 64.3534 51.9338 64.0045 53.1079C63.665 54.2444 64.7354 54.4047 64.7354 54.4047C64.3063 54.5273 63.8583 54.4896 63.5377 54.1972C63.1416 53.8388 63.0426 53.4569 63.1322 53.0985Z" fill="#8D9309"/>
<path d="M55.6256 67.1725C47.6991 66.7528 40.1639 71.8784 36.3633 78.7535C34.7695 81.644 37.1225 84.0017 37.5657 86.8356C39.6122 85.1239 43.7806 87.4581 46.1854 87.1657C49.076 86.8168 51.5657 84.36 53.3717 82.2947C55.1965 80.2058 57.691 77.4096 58.3087 74.5992C58.5869 73.3213 57.7004 71.5719 58.1955 70.4025C58.9594 68.6012 60.6758 69.8225 61.9065 70.4261C63.6654 68.7285 57.7146 67.3894 56.7762 67.2715C56.3895 67.2291 56.0076 67.196 55.6256 67.1725Z" fill="#EFE306"/>
<path d="M40.0977 73.7503C40.7059 74.038 41.8801 73.2741 42.4789 73.1137C43.9737 72.7176 45.4732 72.0999 46.9868 71.7321C49.3209 71.1663 47.812 72.3263 47.0198 73.1656C47.6564 72.9015 48.7645 72.0339 49.3351 72.5007C47.8497 73.557 45.4025 75.2026 44.7046 76.9238C46.322 76.0043 47.7036 74.6509 49.3021 73.689C48.5193 74.1558 48.2553 75.0188 47.6093 75.5987C48.8636 74.7075 50.198 74.0379 51.4146 73.208C50.9478 74.1841 49.2832 75.1083 48.4863 75.9383C47.3499 77.1171 45.6571 78.3337 45.5156 80.0595C46.5813 78.8288 47.5291 77.6499 48.9013 76.6739C49.585 76.1882 53.5459 73.0902 54.2532 73.5004C54.9605 73.9106 53.8383 75.561 53.4563 76.0043C54.2957 75.0282 57.2051 73.2693 56.3752 75.8958C56.71 75.4101 56.9552 74.8348 57.5116 74.5661C57.6955 75.1791 57.686 75.8534 57.5917 76.5418C57.9077 75.8958 58.1576 75.2451 58.3038 74.5897C58.582 73.3118 57.6955 71.5624 58.1906 70.393C58.9545 68.5917 60.6709 69.813 61.9016 70.4165C63.6604 68.719 57.7096 67.3798 56.7713 67.2619C56.3893 67.2148 56.0026 67.1818 55.6254 67.1629C49.7925 66.8658 44.1765 69.5631 40.0977 73.7503Z" fill="#E0CF05"/>
<path opacity="0.5" d="M42.5027 84.6003C39.9046 84.2137 37.9099 83.8129 37.3394 81.0449C36.9339 79.088 38.0844 76.6738 39.2821 74.6367C38.1646 75.9099 37.1743 77.2868 36.3633 78.7533C34.7695 81.6438 37.1225 84.0015 37.5657 86.8354C39.6122 85.1237 43.7806 87.4579 46.1854 87.1655C49.076 86.8166 51.5657 84.3598 53.3717 82.2945C54.1356 81.4222 55.0079 80.4272 55.8143 79.3568C52.4522 83.1527 48.3734 85.4727 42.5027 84.6003Z" fill="#FCFF7D"/>
<path opacity="0.41" d="M39.9453 73.9009C41.8598 72.4438 44.0713 70.7793 45.8631 69.8787C47.207 69.2044 49.7816 68.4311 51.2952 68.5772C49.5836 69.3647 42.7745 72.9578 40.0632 76.1266C43.7836 73.4011 52.6957 67.5681 54.7092 68.7706C50.0457 72.5146 43.9817 74.6224 40.0632 80.9315C41.143 79.2906 43.4206 77.7062 45.0002 76.4708C46.8722 75.0043 51.2717 71.7318 53.9972 70.6473C52.7429 72.2175 49.0271 74.6789 47.6125 76.1407C45.2737 78.555 44.1609 80.559 43.6092 82.7611C45.2077 80.4977 46.4573 78.1306 48.4707 76.2067C50.3663 74.3913 54.4215 71.713 56.5765 70.1333C56.3218 72.8117 56.4774 76.8763 50.6492 83.6193C51.8281 82.2613 54.7563 80.7005 56.7038 74.2404C57.0669 73.0474 56.6849 71.2697 57.9958 70.7416C58.0288 70.7275 58.0712 70.7275 58.109 70.7133C58.1325 70.6096 58.1514 70.5058 58.1938 70.4115C58.9577 68.6102 60.6741 69.8315 61.9049 70.4351C63.6637 68.7376 57.7129 67.3984 56.7745 67.2805C56.3926 67.2333 56.0059 67.2003 55.6287 67.1815C49.7203 66.8608 44.0336 69.624 39.9453 73.9009Z" fill="#979E02"/>
<path opacity="0.68" d="M47.7383 70.4538C48.7615 69.8643 50.6571 68.4167 54.9434 67.8792C54.9434 67.8792 51.6992 70.1425 52.232 70.5999C52.232 70.5999 55.2074 67.8131 57.8905 68.4827C58.3007 68.5865 54.6039 70.3453 54.8962 70.6141C55.1226 70.8216 58.0131 68.9354 58.4516 69.9822C59.2957 68.8505 60.7999 69.8785 61.908 70.4255C63.6669 68.7279 57.716 67.3888 56.7777 67.2709C56.3957 67.2237 56.0091 67.1907 55.6318 67.1719C53.5052 67.0587 51.4068 67.3605 49.4028 67.9735C50.3223 67.8933 51.2512 67.8556 52.1896 67.8886C52.1896 67.8886 51.322 67.997 49.8932 68.8222C48.4597 69.6427 47.7383 70.4538 47.7383 70.4538Z" fill="#B2A906"/>
<path d="M65.1593 65.0561C64.9942 65.0939 64.8339 65.141 64.6783 65.1882C63.1128 65.6691 62.8204 67.0555 62.0518 68.2909C61.3209 69.4556 59.6375 70.2195 59.614 71.7425C59.581 73.8833 60.7409 75.8449 62.1131 77.4199C64.2539 79.8766 67.0879 80.9753 70.068 82.1965C72.5388 83.2104 75.0804 84.3468 77.7258 83.3943C80.1966 82.503 82.4459 80.8668 83.554 78.4242C84.3792 76.6088 85.2939 73.5438 84.5018 71.6294C83.7709 69.8564 82.6722 68.1258 81.0925 67.0743C78.9376 65.6456 75.7311 65.4805 73.199 65.1269C70.7847 64.7873 67.6113 64.462 65.1593 65.0561Z" fill="#EFE306"/>
<path d="M59.614 71.7424C59.581 73.8831 60.7409 75.8447 62.1131 77.4197C62.231 77.5564 62.363 77.6743 62.4856 77.8063C62.0754 77.2358 61.7925 76.6416 61.8349 76.0239C62.7969 76.5143 63.6786 77.1933 64.7066 77.5564C65.1498 77.712 66.7672 77.745 67.0501 78.1317C66.2155 76.9859 64.3152 76.7312 63.6409 75.5241C65.1121 75.5854 66.7059 76.5521 68.1724 76.9104C67.6301 75.9249 66.0693 75.293 65.1876 74.6423C68.9787 75.51 72.6944 77.4574 76.5846 77.9101C76.0848 77.099 74.6513 76.5662 73.8403 76.0664C72.7369 75.3874 71.5675 74.7508 70.3745 74.2509C68.5638 73.4871 66.489 72.5581 64.6359 72.0724C66.937 72.4497 69.356 72.7467 71.6476 73.2324C73.364 73.6002 75.2125 74.4207 76.9241 74.4301C76.1933 73.0815 72.8689 72.3554 71.5156 71.7518C69.8652 71.0162 68.1205 70.0684 66.3192 69.8468C67.5028 69.6582 68.8184 70.2617 70.002 70.0825C69.4173 69.8138 68.7571 69.6204 68.1913 69.2574C70.0444 68.7151 72.2512 69.3139 74.1562 69.1253C72.7133 67.4844 68.5732 67.5928 66.5409 67.5928C68.394 66.0792 70.2377 66.1358 72.4021 65.6642C72.1993 65.3813 71.7749 65.122 71.2468 64.8815C69.2286 64.6787 66.9888 64.608 65.1545 65.0512C64.9895 65.089 64.8292 65.1361 64.6736 65.1833C63.1081 65.6642 62.8157 67.0506 62.0471 68.286C61.3209 69.4554 59.6375 70.2193 59.614 71.7424Z" fill="#E0CF05"/>
<path opacity="0.5" d="M75.9485 66.3952C78.9333 67.7721 84.6719 70.2005 83.3846 74.5575C82.1917 78.5986 79.0371 82.3662 74.4584 81.9135C71.549 81.6259 67.9229 81.0412 64.8438 79.7256C66.4423 80.73 68.2247 81.442 70.0637 82.1964C72.5345 83.2103 75.0761 84.3467 77.7215 83.3942C80.1923 82.503 82.4416 80.8667 83.5497 78.4241C84.3749 76.6087 85.2897 73.5437 84.4975 71.6293C83.7666 69.8563 82.6679 68.1257 81.0882 67.0742C78.9333 65.6455 75.7269 65.4804 73.1947 65.1268C73.1145 65.1173 73.0297 65.1032 72.9448 65.0938C74.001 65.5181 75.0195 65.9661 75.9485 66.3952Z" fill="#FCFF7D"/>
<path opacity="0.41" d="M62.0511 68.2891C61.3202 69.4538 59.6369 70.2177 59.6133 71.7407C59.6133 71.7502 59.618 71.7596 59.618 71.769C60.0141 72.1934 60.4432 72.5753 60.7638 72.863C62.5981 74.5369 63.6402 76.4655 66.2195 77.1493C64.4135 76.6683 62.4519 73.8485 61.4994 72.2971C63.0036 72.5895 64.3334 74.0183 65.8706 74.4898C67.4833 74.9802 69.1336 75.5036 70.7746 75.961C73.4435 76.706 76.8574 77.5595 79.102 79.257C77.5883 77.0691 73.9056 75.8242 71.496 74.9755C67.9171 73.7165 64.4088 73.7872 61.556 70.9863C63.1451 70.991 64.8615 71.8115 66.3846 72.2406C68.1481 72.7451 69.9824 72.9007 71.7507 73.3345C72.5004 73.5184 73.2596 73.7825 74.0235 73.9664C74.7167 74.1314 76.0888 74.122 76.6688 74.4662C74.3536 73.0893 71.4253 72.3349 68.8271 71.6276C66.5685 71.0098 64.2155 70.7458 61.9191 70.2601C66.4694 69.0577 70.5105 68.3456 75.2071 69.6141C75.1222 69.5905 75.0467 69.5999 74.976 69.6377C77.0838 69.8734 78.7766 71.1183 80.6533 71.8728C80.0922 70.543 77.8665 69.7603 76.6028 69.383C72.9955 68.3079 69.8551 67.6525 66.1252 68.3881C64.9511 68.6191 63.4375 69.218 62.2586 68.7842C63.5978 66.6198 66.4977 66.5114 68.6762 66.0304C68.0397 66.1719 66.7948 65.6154 66.0309 65.672C65.1303 65.738 64.5974 66.0068 63.7628 66.4029C63.5884 66.4878 63.4139 66.5632 63.2253 66.6481C63.1262 66.6905 62.9942 66.7424 62.8669 66.7896C62.5981 67.2611 62.3623 67.7845 62.0511 68.2891Z" fill="#979E02"/>
<path d="M125.427 17.7418C126.558 21.1463 123.545 24.9234 121.334 27.2292C119.698 28.9314 117.491 30.3838 115.029 30.0254C111.398 29.502 108.536 26.437 111.417 23.2683C112.955 21.5802 116.444 18.8405 118.698 18.2417C119.853 17.9352 124.814 15.8934 125.427 17.7418Z" fill="#F9F200"/>
<path d="M121.334 27.2284C122.621 25.8845 124.177 24.0408 125.031 22.0604C124.366 22.4942 123.503 22.6828 122.682 22.4517C121.885 22.2254 120.961 21.5228 120.853 20.641C120.735 19.7027 121.296 19.0095 122.036 18.5097C122.923 17.9108 124.078 17.5006 125.21 17.3921C124.073 16.2039 119.768 17.9627 118.703 18.2456C116.449 18.8398 112.959 21.5794 111.422 23.2722C108.541 26.4362 111.398 29.5012 115.034 30.0294C117.491 30.3783 119.698 28.9307 121.334 27.2284Z" fill="#E8D80A"/>
<path d="M121.331 27.2306C122.444 26.0706 123.76 24.5334 124.646 22.8642C122.331 23.3876 119.889 23.3215 117.592 22.5577C117.305 22.4586 117.182 22.1757 117.248 21.8881C117.635 20.2801 118.681 18.941 119.983 17.8281C119.422 18.012 118.955 18.1723 118.691 18.2431C116.437 18.8372 112.948 21.5769 111.41 23.2697C108.529 26.4337 111.387 29.4987 115.022 30.0268C117.488 30.3805 119.695 28.9329 121.331 27.2306Z" fill="#CCBA1B"/>
<path opacity="0.48" d="M121.331 27.2276C121.826 26.7136 122.359 26.1148 122.877 25.4688C120.614 26.459 118.049 26.9683 116.662 25.134C115.281 23.2997 116.238 20.5459 117.733 18.5938C115.545 19.5557 112.749 21.8049 111.414 23.2714C108.533 26.4354 111.391 29.5004 115.026 30.0286C117.488 30.3775 119.694 28.9299 121.331 27.2276Z" fill="#979E02"/>
<path d="M118.324 26.118C118.682 25.8398 118.96 25.6371 118.993 25.6135C119.965 24.9156 121.332 23.8594 121.219 22.5108C118.682 22.2986 116.593 23.8735 114.061 23.5623C114.099 22.5155 114.759 21.827 115.122 20.9453C111.425 20.2662 108.403 24.18 105.998 26.3585C104.032 28.1456 102.381 30.824 102.226 33.4882C101.886 39.1891 114.401 33.4787 116.607 32.0547C117.956 31.1871 120.116 29.9092 120.54 28.2824C120.625 27.9665 117.027 27.9712 116.688 27.9052C116.211 27.8203 117.48 26.7688 118.324 26.118Z" fill="#8FAF05"/>
<path opacity="0.71" d="M120.54 28.2793C120.592 28.0812 119.21 28.0105 118.079 27.9681C117.725 28.4113 118.465 29.4063 114.368 32.1129C112.958 33.0465 109.789 34.1264 108.153 33.4662C108.016 32.4194 114.509 28.9347 115.033 28.2086C115.613 27.3928 107.464 30.8303 108.28 30.222C109.831 29.0715 113.509 26.5676 115.179 25.601C116.584 24.7899 117.932 24.1345 119.503 23.5922C119.993 23.4224 120.578 23.2668 121.167 23.0924C121.21 22.9038 121.238 22.7104 121.219 22.5077C119.904 22.3992 118.706 22.767 117.503 23.1065C117.055 23.3187 116.607 23.5403 116.15 23.7761C114.674 24.54 113.231 25.2756 111.713 26.0065C110.44 26.6195 108.539 27.5673 107.115 27.572C107.752 25.8603 111.944 22.3002 114.632 21.8899C114.806 21.5787 114.985 21.2722 115.122 20.9374C111.425 20.2584 108.403 24.1722 105.998 26.3507C104.032 28.1378 102.381 30.8162 102.226 33.4804C101.886 39.1813 114.401 33.4709 116.607 32.0469C117.961 31.184 120.116 29.9108 120.54 28.2793Z" fill="#637F1D"/>
<path d="M92.3104 64.8723C91.0325 65.6173 89.7452 66.3671 88.4391 67.0791C87.595 67.5365 86.7415 68.008 86.0719 68.6965C85.3976 69.3896 84.7658 70.4978 85.275 71.356C86.1898 71.1155 86.8358 70.4082 87.5667 69.8235C90.3347 67.6025 93.3384 66.0842 96.4599 64.3772C97.0163 64.0707 97.6293 63.8066 98.2282 63.5284C99.2326 63.0663 100.077 62.6514 101.114 62.26C101.614 62.0761 104.448 61.5338 103.967 60.5059C103.703 59.9447 102.283 60.1852 101.859 60.2606C100.129 60.5813 98.5111 61.4584 96.9503 62.2411C95.3848 63.0805 93.8523 63.9764 92.3104 64.8723Z" fill="#8FAF05"/>
<path d="M121.245 47.7609C122.07 51.255 118.736 54.7491 116.331 56.8475C114.553 58.4035 112.224 59.6484 109.805 59.0778C106.235 58.2338 103.656 54.9283 106.806 52.0283C108.489 50.477 112.205 48.058 114.502 47.6619C115.676 47.4639 120.797 45.8653 121.245 47.7609Z" fill="#F9F200"/>
<path d="M116.324 56.8457C117.729 55.6197 119.441 53.9222 120.464 52.0266C119.766 52.4038 118.885 52.5123 118.088 52.2058C117.31 51.9087 116.456 51.1259 116.423 50.2394C116.385 49.2917 117.008 48.6551 117.791 48.2213C118.729 47.7026 119.913 47.3961 121.049 47.3866C120.021 46.1041 115.579 47.4715 114.49 47.6601C112.193 48.0562 108.478 50.4752 106.794 52.0266C103.644 54.9265 106.224 58.2273 109.793 59.0761C112.217 59.6466 114.546 58.4018 116.324 56.8457Z" fill="#E8D80A"/>
<path d="M116.324 56.8459C117.536 55.7897 118.984 54.3751 120.012 52.7907C117.659 53.1066 115.23 52.8284 113.014 51.8618C112.736 51.7392 112.637 51.4468 112.726 51.1686C113.254 49.5984 114.414 48.3629 115.81 47.3633C115.235 47.4953 114.754 47.6179 114.49 47.6651C112.193 48.0612 108.478 50.4802 106.794 52.0315C103.644 54.9315 106.224 58.2322 109.793 59.081C112.217 59.6469 114.546 58.402 116.324 56.8459Z" fill="#CCBA1B"/>
<path opacity="0.48" d="M116.324 56.8473C116.862 56.3757 117.446 55.8288 118.022 55.2346C115.683 56.0221 113.08 56.3003 111.859 54.3481C110.642 52.4007 111.845 49.7412 113.504 47.9258C111.236 48.6897 108.256 50.6843 106.794 52.0282C103.644 54.9281 106.224 58.2289 109.793 59.0777C112.217 59.6482 114.546 58.4034 116.324 56.8473Z" fill="#979E02"/>
<path d="M113.43 55.4763C113.812 55.2311 114.109 55.0566 114.142 55.0331C115.175 54.4248 116.627 53.4911 116.637 52.1378C114.128 51.704 111.907 53.0856 109.413 52.5528C109.545 51.5107 110.262 50.8835 110.7 50.0395C107.079 49.0351 103.721 52.6659 101.133 54.6275C99.02 56.2308 97.1386 58.7582 96.7425 61.3941C95.8985 67.0384 108.875 62.4598 111.195 61.2385C112.619 60.4935 114.878 59.4089 115.444 57.8293C115.557 57.5181 111.973 57.2069 111.638 57.1125C111.176 56.9899 112.534 56.0516 113.43 55.4763Z" fill="#8FAF05"/>
<path opacity="0.71" d="M115.448 57.8348C115.518 57.6415 114.146 57.4482 113.024 57.3067C112.628 57.7169 113.283 58.7732 108.964 61.1073C107.474 61.9136 104.22 62.7105 102.655 61.9042C102.612 60.8527 109.388 57.9527 109.973 57.2737C110.624 56.5145 102.197 59.2164 103.065 58.6836C104.711 57.6745 108.596 55.5054 110.341 54.6896C111.812 54.0059 113.213 53.4731 114.825 53.0723C115.33 52.945 115.929 52.8412 116.532 52.7186C116.593 52.5347 116.631 52.3414 116.636 52.1386C115.334 51.917 114.108 52.1811 112.882 52.4074C112.416 52.5772 111.954 52.7611 111.477 52.9544C109.935 53.5862 108.436 54.1898 106.861 54.784C105.541 55.2838 103.565 56.0571 102.146 55.9392C102.928 54.2936 107.422 51.1154 110.133 50.9409C110.331 50.6486 110.539 50.3562 110.704 50.0356C107.083 49.0312 103.725 52.662 101.136 54.6236C99.0239 56.2269 97.1425 58.7543 96.7464 61.3902C95.9024 67.0345 108.879 62.4559 111.199 61.2346C112.618 60.499 114.882 59.4145 115.448 57.8348Z" fill="#637F1D"/>
<path d="M81.7955 81.2822C81.173 81.8056 80.197 82.56 79.004 83.4701C77.7261 85.0451 76.5001 86.6483 75.293 88.2657C75.491 88.0912 75.6843 87.9214 75.873 87.7517C80.6968 83.5691 85.6621 79.4385 91.2498 76.4018C94.9042 74.4166 98.6058 72.9878 102.666 72.2664C105.825 71.7052 112.611 71.7477 112.941 70.6584C103.986 68.2347 91.0989 73.4876 81.7955 81.2822Z" fill="#8FAF05"/>
<path d="M133.267 61.3141C132.947 62.7806 137.299 63.7756 138.228 65.0629C139.544 66.8783 140.543 70.1791 139.699 72.3576C138.313 75.9224 134.408 77.9217 131.122 75.5499C128.396 73.5836 123.591 71.9332 120.262 71.8012C117.829 71.7021 114.458 73.4657 112.661 70.9995C111.883 69.9291 110.902 67.5479 111.454 66.1898C112.015 64.8082 113.911 64.5536 115.146 64.0868C118.404 62.8466 121.653 61.432 124.393 59.2347C125.926 58.0039 127.015 55.3586 128.995 54.9389C130.141 54.6937 130.66 55.0474 131.593 55.5614C132.173 55.8773 132.225 56.2592 132.881 56.5139C133.286 56.6695 133.857 56.3441 134.262 56.5469C135.309 57.0656 135.502 58.0652 135.125 59.1875C134.781 60.2107 133.541 60.4842 133.3 61.2528C133.282 61.267 133.272 61.2906 133.267 61.3141Z" fill="#F9F200"/>
<path d="M133.286 61.2426C133.531 60.474 134.767 60.2005 135.111 59.1772C135.483 58.055 135.295 57.0553 134.248 56.5366C133.847 56.3339 133.272 56.6592 132.866 56.5036C132.216 56.249 132.159 55.867 131.579 55.5511C130.645 55.0419 130.127 54.6882 128.981 54.9287C127.562 55.2305 126.604 56.6639 125.609 57.9088C126.717 57.0978 127.472 56.1217 129.042 56.1264C130.146 56.1311 131.881 57.1025 132.975 57.508C133.593 57.7343 133.734 58.3992 133.324 58.8943C132.895 59.413 131.456 60.2995 132.093 61.1624C132.376 61.5491 132.107 62.0631 131.772 62.2847C131.051 62.7657 129.886 63.6427 129.042 63.8078C129.603 63.6946 130.155 63.5767 130.721 63.5107C131.933 63.3645 133.47 64.1661 134.606 64.5009C135.823 64.8593 136.874 65.3308 137.525 66.5002C138.11 67.5518 137.351 69.2729 138.011 70.1547C138.228 70.4423 138.355 70.8195 138.129 71.1543C137.794 71.6589 137.454 71.7107 136.865 71.9088C136.177 72.1398 135.21 71.2015 136.134 72.1304C136.615 72.6161 136.969 73.7478 136.365 74.2948C135.2 75.3463 133.06 75.3227 131.579 75.1671C131.296 75.1388 130.966 75.1671 130.612 75.219C130.773 75.3274 130.957 75.4265 131.108 75.5396C134.399 77.9067 138.303 75.9121 139.685 72.3473C140.529 70.1688 139.529 66.868 138.214 65.0526C137.285 63.7653 132.937 62.7751 133.253 61.3039C133.272 61.2897 133.281 61.2662 133.286 61.2426Z" fill="#F6FF48"/>
<path d="M133.329 71.5411C131.141 70.914 128.642 69.8436 127.529 67.7546C129.58 66.5947 132.381 67.4576 134.593 66.5239C131.037 64.6472 126.761 66.9908 123.295 65.2225C123.927 65.529 126.855 63.723 127.421 63.3269C129.335 61.983 130.901 59.0548 130.726 56.6641C130.231 58.1824 125.294 64.4775 123.417 61.8604C122.672 60.8183 125.294 59.0783 126.039 57.3855C125.506 58.0692 124.983 58.753 124.389 59.2245C121.649 61.4266 118.4 62.8365 115.142 64.0766C114.614 64.2747 113.968 64.4397 113.355 64.6708C111.94 65.8685 111.704 67.6933 112.803 69.4522C113.741 70.9564 115.363 71.5977 117.004 72.1777C118.131 72.0079 119.272 71.7533 120.258 71.791C122.611 71.8853 125.685 72.7482 128.26 73.9271C127.341 72.7011 126.628 71.4562 126.445 70.2962C126.331 69.6172 132.202 72.0975 132.49 72.2013C134.183 72.7954 136.323 73.2575 137.894 72.1824C136.418 71.7627 134.857 71.9796 133.329 71.5411Z" fill="#E8D80A"/>
<path d="M123.098 68.6653C123.405 68.2597 125.498 68.4389 125.998 68.4201C127.554 68.3682 129.11 68.6936 130.671 68.6605C132.213 68.6275 134.057 69.0095 135.542 68.6511C133.524 68.5898 131.284 68.3352 129.341 67.7882C128.045 67.4204 126.856 66.831 125.55 66.4868C124.654 66.251 123.405 65.836 124.513 64.8694C125.899 63.6622 127.465 63.1483 128.488 61.5356C127.196 63.0068 125.149 63.6387 123.409 64.2752C122.693 64.5393 121.41 64.7232 121.717 63.5585C121.967 62.606 122.782 61.9883 123.046 61.0546C123.136 60.7293 123.216 60.3756 123.282 60.0078C120.788 61.7572 117.977 63.0021 115.139 64.0819C114.606 64.2847 113.95 64.4497 113.328 64.6808C113.102 64.8505 112.88 65.0297 112.691 65.2702C110.904 67.576 113.092 70.4335 115.139 71.636C115.639 71.9283 116.19 72.0792 116.747 72.2159C117.954 72.0556 119.194 71.7538 120.255 71.7963C121.231 71.834 122.344 72.0179 123.485 72.2867C123.4 72.1971 123.296 72.1216 123.221 72.0273C123.079 71.8529 122.957 71.669 122.858 71.4756C123.57 70.8296 125.574 71.0182 126.46 71.1267C128.247 71.3483 129.907 72.1122 131.793 72.0651C130.737 71.2964 128.988 71.3483 127.762 70.9098C126.555 70.4713 125.385 69.896 124.178 69.4999C123.806 69.382 122.73 69.1557 123.098 68.6653Z" fill="#CCBA1B"/>
<path opacity="0.48" d="M123.455 67.452C124.874 67.3058 126.157 67.3341 127.553 67.5321C126.331 66.5466 124.582 65.9619 123.002 65.8959C122.314 65.8676 121.399 66.1175 121.281 65.2782C121.173 64.4954 122.031 63.8023 122.474 63.2553C121.885 63.5523 120.102 64.4011 119.739 63.3779C119.579 62.9252 119.885 62.3829 120.267 61.8359C118.607 62.6894 116.877 63.4156 115.137 64.0805C114.614 64.2785 113.977 64.4435 113.369 64.6652C112.808 65.1273 112.317 65.6365 112.124 66.424C111.596 68.5789 113.425 70.6254 115.137 71.6345C115.604 71.908 116.122 72.0966 116.66 72.2239C117.895 72.0683 119.169 71.7524 120.253 71.7948C120.932 71.8231 121.682 71.9269 122.455 72.0683C122.252 71.9316 122.04 71.7995 121.852 71.6487C121.46 71.3374 121.125 71.0074 120.932 70.6443C121.484 70.2576 122.281 70.6113 122.903 70.6584C123.582 70.7103 124.275 70.5783 124.936 70.4651C124.37 69.8898 122.498 70.0926 121.677 69.8757C120.621 69.5927 119.343 69.1967 118.919 68.0838C120.003 67.0936 122.116 67.5934 123.455 67.452Z" fill="#979E02"/>
<path d="M119.669 69.2586C120.107 69.136 120.442 69.0559 120.48 69.0464C121.645 68.7682 123.304 68.3014 123.715 67.0094C121.447 65.8589 118.919 66.5237 116.693 65.2836C117.123 64.3263 117.995 63.9397 118.664 63.2607C115.496 61.2378 111.219 63.7228 108.173 64.8356C105.678 65.7457 103.137 67.6083 101.986 70.0131C99.52 75.1623 113.265 74.5965 115.845 74.1155C117.424 73.8184 119.905 73.4506 120.909 72.1067C121.107 71.8427 117.773 70.4941 117.481 70.3055C117.075 70.0414 118.65 69.5416 119.669 69.2586Z" fill="#8FAF05"/>
<path opacity="0.71" d="M120.91 72.1028C121.032 71.9425 119.778 71.3484 118.75 70.8815C118.255 71.155 118.566 72.3575 113.752 73.3241C112.092 73.6589 108.749 73.4609 107.485 72.2301C107.754 71.2116 115.082 70.4336 115.841 69.9573C116.685 69.4245 107.839 69.5282 108.824 69.2736C110.696 68.7926 115.044 67.8637 116.954 67.5949C118.562 67.3733 120.056 67.2743 121.716 67.3686C122.24 67.3969 122.838 67.4723 123.447 67.5336C123.555 67.3733 123.654 67.2035 123.715 67.0055C122.537 66.4114 121.287 66.3029 120.047 66.1614C119.552 66.1897 119.052 66.2275 118.543 66.2746C116.883 66.4255 115.27 66.5622 113.592 66.666C112.182 66.7556 110.069 66.9112 108.744 66.3831C109.98 65.0392 115.204 63.3228 117.845 63.9546C118.123 63.733 118.406 63.5161 118.661 63.2568C115.492 61.2339 111.215 63.7189 108.169 64.8317C105.674 65.7418 103.133 67.6044 101.982 70.0092C99.5161 75.1584 113.261 74.5925 115.841 74.1116C117.42 73.8192 119.905 73.4514 120.91 72.1028Z" fill="#637F1D"/>
<path d="M35.385 140.251C35.9792 139.949 36.5969 139.69 37.2099 139.426C38.0728 137.827 38.7895 136.521 39.2752 135.724C45.5514 125.336 48.7626 111.794 44.9903 103.32C43.967 103.811 45.0468 110.511 44.9808 113.722C44.8912 117.839 44.0472 121.72 42.6467 125.634C40.7936 130.82 38.0492 135.654 35.1445 140.374C35.2247 140.331 35.3049 140.289 35.385 140.251Z" fill="#8FAF05"/>
<path d="M40.5401 115.344C41.3983 110.251 42.4263 105.856 48.4714 106.04C49.8059 106.083 51.1686 106.083 52.4842 106.262C56.7563 106.837 59.5007 110.671 63.6549 111.576C64.7253 109.115 58.1851 106.875 56.629 106.22C54.045 105.135 51.3525 104.862 48.6082 104.286C45.661 103.678 46.4815 101.165 47.2784 98.8022C48.0517 96.5153 49.2117 94.3839 50.433 92.3092C51.4704 90.5409 52.3097 88.1549 53.5923 86.6083C54.078 86.0188 55.7331 85.1465 54.243 84.6278C52.8803 84.1563 52.2107 85.9717 51.7062 86.7686C50.0746 89.329 48.8439 92.0404 47.2926 94.6386C45.7742 97.1802 45.1188 99.4954 44.1663 102.164C42.879 101.735 41.4926 100.047 40.5873 99.0757C39.0784 97.4631 37.9891 95.9542 37.329 93.8417C36.8338 92.2479 36.136 90.7955 35.5135 89.2583C35.0279 88.0606 34.877 86.4291 34.2451 85.3304C33.4623 83.9676 32.4674 84.6608 31.9911 86.0188C31.4064 87.6834 32.1468 89.9845 32.7079 91.5358C33.8537 94.7093 35.6409 97.2603 38.1306 99.4907C39.4462 100.67 42.5489 101.976 42.9638 103.815C43.3411 105.475 41.6718 107.988 41.0305 109.44C40.3138 111.072 39.5358 112.628 39.0925 114.339C38.5078 116.598 38.2956 119.965 39.9837 121.827C40.4128 121.106 40.1299 119.838 40.1723 118.932C40.2195 117.73 40.3421 116.494 40.5401 115.344Z" fill="#AEC803"/>
<path d="M42.2951 100.875C42.4838 101.413 42.479 101.988 42.1914 102.526C42.5686 102.927 42.8516 103.351 42.9553 103.813C43.1392 104.624 42.8327 105.633 42.4036 106.628C43.0496 106.515 43.6673 106.652 44.0964 107.133C45.1574 106.392 46.5579 105.987 48.4723 106.044C48.8212 106.058 49.1749 106.072 49.5238 106.086C48.7364 105.742 48.1186 105.124 48.3261 104.219C45.7232 103.511 46.5013 101.092 47.2699 98.8054C47.3029 98.7111 47.3453 98.6168 47.3783 98.5225C46.6852 97.7728 46.5437 96.8061 46.6805 95.7734C45.5912 97.8812 44.9688 99.8994 44.1577 102.163C43.5353 101.951 42.894 101.451 42.2951 100.875Z" fill="#878E00"/>
<path d="M50.9633 96.3243C49.6052 97.8332 48.0916 99.2054 46.9033 100.865C46.5308 101.384 46.2903 101.822 46.031 102.398C45.8942 102.709 45.7386 103.015 45.6113 103.331C45.4227 103.789 44.5881 105.265 45.2529 105.642C45.7669 105.925 46.2668 104.991 46.4789 104.642C46.7807 104.147 46.9929 103.577 47.2947 103.063C47.8794 102.072 48.3227 101.002 49.0111 100.082C49.7184 99.1441 50.4587 98.2293 51.2226 97.3381C52.7315 95.5793 54.1132 93.2687 56.2162 92.0899C58.5315 90.7885 61.9831 91.326 64.5719 91.2128C67.6133 91.0808 70.9376 89.1994 73.1114 86.9784C74.361 85.6958 73.814 85.13 73.847 83.6352C73.88 82.197 75.3418 81.4567 75.8275 80.0468C77.1808 76.133 73.7009 72.1721 69.971 71.3516C66.3779 70.5595 61.9407 72.6861 59.4698 75.256C56.8339 77.9956 56.1832 81.4944 55.2307 84.9178C54.1414 88.8363 53.7831 93.1886 50.9633 96.3243Z" fill="#F9F200"/>
<path d="M63.129 76.625C59.7575 78.0585 57.3007 81.2555 55.3014 84.66C55.2779 84.7449 55.2543 84.8345 55.2307 84.9194C54.1414 88.8378 53.7831 93.1949 50.9633 96.3259C49.6052 97.8348 48.0916 99.207 46.9033 100.867C46.5308 101.385 46.2903 101.824 46.031 102.399C45.8942 102.711 45.7386 103.017 45.6113 103.333C45.4227 103.79 44.5881 105.266 45.2529 105.643C45.7669 105.926 46.2668 104.993 46.4789 104.644C46.7807 104.149 46.9929 103.578 47.2947 103.064C47.8794 102.074 48.3227 101.004 49.0111 100.084C49.7184 99.1457 50.4587 98.2309 51.2226 97.3397C52.7315 95.5808 54.1132 93.2703 56.2162 92.0915C56.7066 91.8133 57.263 91.6341 57.8383 91.4973C59.5971 90.4316 61.5682 89.6866 63.7703 88.852C65.4442 88.2201 67.0569 86.9328 68.4055 85.7304C66.6466 86.4943 64.652 87.0601 62.9121 88.1258C61.2522 89.1491 59.4698 90.2808 57.4422 90.3515C57.6308 90.3421 58.7767 88.9039 59.0219 88.6964C59.7339 88.1022 60.5261 87.6213 61.2994 87.112C62.5678 86.2821 63.9353 85.5229 65.0906 84.5233C67.5756 82.3636 69.2071 79.4354 71.3102 76.9362C69.9474 77.4313 68.4338 79.1477 67.4105 80.2228C66.0855 81.6233 64.9868 83.236 63.4732 84.3865C61.4927 85.8907 59.616 87.4987 57.5224 88.852C58.3146 88.3427 59.003 86.5933 59.6019 85.8389C60.5497 84.6506 61.6578 83.5849 62.7659 82.5522C61.0401 83.1605 59.7056 85.2117 58.4136 86.4141C59.4321 83.4812 62.3556 81.4536 64.1758 79.0534C63.0064 80.5954 60.9033 81.5809 59.5358 82.9719C58.0835 84.4478 56.9612 86.2397 55.7871 87.9325C55.7494 83.236 59.8423 79.3788 63.129 76.625Z" fill="#E2D207"/>
<path d="M43.6557 94.2177C42.4721 90.0068 42.4391 85.6263 43.0191 81.3164C43.4812 77.8742 44.0895 74.1443 42.1043 71.0557C40.3455 68.3114 35.3613 66.3026 32.1784 67.5428C31.0797 67.9719 30.2593 68.7075 29.4388 69.5185C27.6564 71.2773 27.7837 72.6967 27.6658 75.0261C27.5715 76.9452 27.0622 78.7937 27.364 80.7694C28.2364 86.475 34.621 84.7539 38.464 87.3709C40.685 88.8799 41.8497 92.6097 42.3448 95.1278C42.5523 96.1887 42.9059 97.2921 43.0568 98.3531C43.2313 99.5696 42.9295 100.791 43.1181 102.012C43.2407 102.819 44.1366 105.143 45.1882 103.898C45.8766 103.083 45.2353 100.565 45.0986 99.5838C44.8534 97.7401 44.1555 95.9907 43.6557 94.2177Z" fill="#F9F200"/>
<path d="M36.5763 75.6219C35.3314 73.6745 33.5301 71.9487 31.5685 70.7227C32.0212 71.8449 33.0633 72.8729 33.8084 73.8442C34.6571 74.9476 35.2135 76.1642 35.8595 77.3714C37.0431 79.5829 39.1179 82.6903 39.448 85.2319C38.5615 82.7657 35.9256 81.1012 34.129 79.3754C32.6767 77.9796 31.6016 76.3057 29.6211 75.5748C31.9835 78.4936 35.7511 81.37 37.2694 84.9112C34.9023 85.0291 32.0542 84.7368 29.9087 83.8833C30.0832 83.954 30.6208 84.7179 30.8801 84.8924C30.9273 84.9254 30.9838 84.949 31.031 84.9773C33.3651 85.7883 36.3217 85.8921 38.4719 87.3633C40.6928 88.8722 41.8575 92.602 42.3526 95.1201C42.5601 96.181 42.9138 97.2844 43.0647 98.3454C43.2391 99.5619 42.9373 100.783 43.126 102.005C43.2486 102.811 44.1445 105.136 45.196 103.891C45.8845 103.075 45.2432 100.557 45.1064 99.5761C44.8518 97.7371 44.1586 95.9924 43.6588 94.2147C42.9326 91.6354 42.645 88.9901 42.6591 86.34C41.999 84.3643 41.5982 82.4545 41.5416 80.3185C41.485 78.1022 42.0037 74.5044 40.6315 72.6135C40.325 74.5657 40.9286 76.2349 40.9522 78.1164C40.971 79.8092 39.9336 82.9779 40.5844 84.5199C40.0892 83.3457 39.5423 82.0584 39.0283 80.8749C38.2691 79.1255 37.5901 77.2157 36.5763 75.6219Z" fill="#E2D207"/>
<path d="M37.6359 100.945C39.4371 101.817 41.2997 102.468 42.9218 103.642C43.3792 103.977 45.7463 106.566 43.7847 105.844C43.167 105.618 39.9322 103.897 36.8625 103.255C35.8204 103.039 34.7359 103.171 33.6749 103.222C30.2516 103.383 26.8989 107.056 24.2159 103.548C23.1219 102.119 22.773 100.601 21.712 99.2568C20.684 97.9601 19.2836 97.0265 20.4577 95.3336C22.7022 92.1036 26.9838 95.8948 29.0963 97.0217C31.8076 98.4694 34.8491 99.5869 37.6359 100.945Z" fill="#F9F200"/>
<path d="M29.0948 97.0217C26.9823 95.8948 22.7008 92.1036 20.4562 95.3336C20.3949 95.4185 20.3667 95.4987 20.3242 95.5835C21.107 95.3383 21.918 95.178 22.2009 95.1639C23.3185 95.1262 24.8981 95.9231 25.9827 96.1918C28.5714 96.8331 30.2737 98.3609 32.7304 99.2946C31.6647 99.9028 29.5664 98.9456 28.4205 98.7287C26.4071 98.3421 24.5728 98.0497 22.5357 98.2053C24.436 98.3468 26.011 98.8089 27.817 99.3511C28.7978 99.6435 31.7873 99.7802 32.3107 100.511C31.6506 101.105 30.0709 101.176 29.2033 101.379C28.1518 101.624 26.4495 102.237 25.3885 102.147C28.0292 102.369 30.6509 101.756 33.2019 102.124C31.9665 102.529 30.4434 102.742 29.3542 103.595C30.2784 103.468 31.2026 103.468 32.1174 103.52C32.6361 103.369 33.1548 103.26 33.6735 103.232C34.7344 103.185 35.819 103.048 36.8611 103.265C39.9308 103.906 43.1655 105.627 43.7833 105.854C45.7449 106.57 43.3824 103.982 42.9203 103.652C41.2982 102.477 39.4357 101.827 37.6344 100.954C34.8476 99.5869 31.8062 98.4694 29.0948 97.0217Z" fill="#E2D207"/>
<path d="M54.4426 118.84C56.1495 120.339 57.4463 118.83 59.7097 118.906C61.5062 118.967 62.6945 119.726 63.8592 117.812C64.8023 116.26 64.4156 114.077 63.2321 112.828C61.841 111.356 59.5682 111.097 57.7009 110.875C54.7255 110.522 52.8676 109.253 50.4345 107.66C49.4348 107.004 48.4305 106.5 47.3412 106.009C47.0771 105.887 43.9367 105.17 44.1772 105.42C46.1718 107.494 49.5952 108.235 51.0758 110.739C52.4715 113.106 52.1037 116.246 54.0182 118.411C54.1597 118.576 54.3058 118.717 54.4426 118.84Z" fill="#F9F200"/>
<path d="M47.3412 106.009C47.0771 105.887 43.9367 105.17 44.1772 105.42C46.1718 107.494 49.5952 108.235 51.0758 110.739C52.4715 113.106 52.1037 116.246 54.0182 118.411C54.1644 118.576 54.3058 118.717 54.4473 118.84C55.0273 119.349 55.5554 119.5 56.093 119.495C55.2065 118.901 54.0371 118.368 53.5702 117.288C53.061 116.114 52.448 115.124 52.8016 113.709C53.1883 114.266 53.74 114.61 54.2162 115.063C54.7161 115.539 55.23 116.043 55.7629 116.458C54.9235 115.36 54.1738 114.101 53.391 112.988C53.5797 113.252 54.5039 113.766 54.8151 113.945C55.2442 114.19 55.6214 114.388 56.0269 114.704C56.9983 115.468 57.9933 116.223 59.1202 116.737C57.682 114.883 55.0414 113.577 53.2496 112.064C55.9987 113.332 59.1014 113.714 61.7373 114.949C60.6952 113.346 57.8801 112.96 56.2486 112.328C54.7821 111.757 52.6554 110.875 51.769 109.527C53.6693 110.39 55.1405 111.238 57.3378 111.22C58.0734 111.215 58.8845 111.196 59.7049 111.163C59.0212 111.026 58.3375 110.946 57.6962 110.871C54.7208 110.517 52.8629 109.249 50.4298 107.655C49.4348 107.004 48.4305 106.495 47.3412 106.009Z" fill="#E2D207"/>
<path d="M37.9062 90.796C40.8864 92.1964 41.5607 96.0914 42.4142 98.9677C42.8998 100.599 43.0837 103.235 43.659 104.848C43.7486 105.447 44.1683 106.074 44.4795 106.22C44.885 106.413 45.5688 106.225 45.7809 105.904C46.3468 104.683 46.6533 102.372 46.8608 101.674C47.7803 98.5622 49.4637 94.4268 52.8682 93.3517C48.1716 92.3709 45.6536 100.552 44.9275 104.329C44.8001 99.6939 45.4461 92.9085 46.4458 89.2305C44.786 90.6309 44.338 93.7855 44.2673 95.898C44.1588 99.0385 43.8854 100.231 43.9419 102.325C42.499 96.5817 42.6263 91.2958 37.9062 90.796Z" fill="#979E02"/>
<path d="M39.3004 90.307C38.8807 89.6422 37.584 89.4347 36.8955 89.9298C36.5985 90.1467 36.4806 90.5051 36.7116 91.0426C37.0653 91.8537 38.7487 92.2356 39.258 91.3491C39.4937 90.9389 39.4701 90.5852 39.3004 90.307Z" fill="#C9C90D"/>
<path d="M39.2994 90.307C38.8797 89.6422 37.583 89.4347 36.8945 89.9298C36.8945 89.9298 37.9413 89.661 38.5638 90.5569C39.1626 91.4246 38.2997 91.8537 38.2997 91.8537C38.6958 91.8395 39.0636 91.6886 39.2569 91.3491C39.4927 90.9389 39.4691 90.5852 39.2994 90.307Z" fill="#979E02"/>
<path d="M46.4811 90.8305C47.1318 90.3919 47.3016 89.0858 46.7829 88.4209C46.5565 88.1285 46.1887 88.0248 45.6653 88.27C44.8637 88.6519 44.5336 90.3448 45.4343 90.821C45.8587 91.0474 46.2076 91.0144 46.4811 90.8305Z" fill="#C9C90D"/>
<path d="M46.4812 90.8314C47.1319 90.3929 47.3017 89.0867 46.783 88.4219C46.783 88.4219 47.0848 89.4593 46.2077 90.11C45.3589 90.7324 44.9062 89.8884 44.9062 89.8884C44.9298 90.2845 45.0949 90.6475 45.4391 90.8267C45.8588 91.0483 46.2077 91.0153 46.4812 90.8314Z" fill="#979E02"/>
<path d="M51.2731 92.9195C51.6597 92.2358 52.9517 91.9765 53.6591 92.4433C53.9656 92.6508 54.0976 93.0044 53.8854 93.5514C53.5647 94.3766 51.8955 94.8246 51.3532 93.9616C51.1033 93.5514 51.108 93.1978 51.2731 92.9195Z" fill="#C9C90D"/>
<path d="M51.2726 92.9195C51.6593 92.2358 52.9513 91.9765 53.6586 92.4433C53.6586 92.4433 52.6024 92.2122 52.0177 93.1365C51.4565 94.0277 52.3336 94.4238 52.3336 94.4238C51.9375 94.4285 51.565 94.287 51.3575 93.9569C51.1029 93.5514 51.1076 93.1978 51.2726 92.9195Z" fill="#979E02"/>
<path d="M61.2656 113.168C64.4108 110.258 67.6927 107.5 71.3 105.227C74.8176 103.011 78.4249 101.346 82.4236 100.365C85.5404 99.6015 92.3164 99.2054 92.5758 98.102C83.5977 96.2772 71.267 102.186 62.5058 110.404C62.1144 111.329 61.6947 112.248 61.2656 113.168Z" fill="#8FAF05"/>
<path d="M94.6362 100.328C93.2452 100.167 91.8258 101.077 90.9252 102.03C90.1896 102.808 89.2041 103.973 88.4119 102.275C88.0488 101.497 88.36 100.691 88.3412 99.9032C88.3129 98.7998 87.4358 97.8945 87.4169 96.8241C87.3981 95.3482 88.709 95.2444 89.5341 94.3344C90.1896 93.6035 90.4159 93.0989 90.3122 92.1606C90.0859 90.1565 88.8174 88.4637 87.6904 86.8652C85.9929 84.4509 85.1583 81.749 85.4648 78.7689C85.7336 76.1848 87.4311 71.8043 90.4159 71.3516C92.3209 71.0639 93.7969 72.8416 95.5557 73.3886C98.3614 74.2563 100.332 71.6534 103.006 71.6675C104.652 71.6722 106.618 73.6433 107.75 74.6901C109.145 75.9868 110.258 77.7126 110.23 79.6978C110.183 83.1448 106.858 86.3465 104.515 88.525C102.666 90.2461 100.582 91.6655 98.8848 93.4809C97.8049 94.6361 97.6682 95.1548 99.5732 94.9709C101.238 94.8106 102.86 94.7776 104.515 94.9662C109.018 95.4802 117.544 98.5122 115.45 104.713C114.582 107.269 112.691 108.084 110.64 109.452C109.768 110.032 108.924 110.282 108.419 111.267C107.868 112.333 108.32 113.766 106.92 114.012C104.6 114.417 101.44 111.272 99.7807 110.004C97.8332 108.518 96.6874 106.429 96.4469 103.991C96.2866 102.402 96.6968 100.568 94.6362 100.328Z" fill="#F9F200"/>
<path d="M104.191 78.6143C103.851 79.3311 103.116 81.3163 102.55 82.5187C101.121 85.5365 100.282 88.4506 97.4714 90.4547C98.1268 88.0262 98.9284 85.8147 98.8907 83.2448C98.9331 85.9892 96.698 89.4362 95.0807 91.5911C96.401 89.6719 97.0045 86.159 96.5094 83.8814C96.0285 81.6793 93.8358 78.0815 91.5536 77.3789C92.4825 79.0812 93.7038 80.7221 94.3073 82.5941C94.76 84.004 95.7455 87.2294 94.6421 88.5544C94.4441 86.4702 93.4963 83.6409 91.6384 82.3725C92.3693 84.5934 93.3124 86.1118 93.1568 88.5308C93.0295 90.5254 92.4683 93.2556 90.3936 94.1232C90.1154 94.2364 89.8749 94.2411 89.6438 94.1987C89.6061 94.2458 89.5778 94.2836 89.5354 94.3354C88.7102 95.2455 87.3993 95.3492 87.4182 96.8252C87.4323 97.8154 88.1632 98.6783 88.2952 99.6733C88.2952 99.6733 88.2952 99.678 88.2999 99.6827C88.2999 99.6874 88.2999 99.6921 88.2999 99.6968C88.3094 99.7676 88.3377 99.8336 88.3377 99.9043C88.3377 99.9656 88.333 100.027 88.3282 100.088C88.3282 100.555 88.2292 101.041 88.4037 101.475C88.6017 101.965 89.2194 102.606 89.8702 102.979C90.2427 102.757 90.6058 102.366 90.9217 102.031C91.8223 101.078 93.2417 100.168 94.6327 100.329C96.6886 100.569 96.2831 102.403 96.434 103.983C96.6745 106.421 97.8203 108.51 99.7678 109.995C99.9988 110.174 100.272 110.391 100.555 110.632C100.876 110.896 101.225 111.183 101.593 111.485C101.607 111.499 101.621 111.509 101.635 111.518C101.965 111.787 102.314 112.056 102.672 112.32C102.701 112.343 102.729 112.362 102.762 112.386C103.135 112.659 103.521 112.919 103.908 113.15C102.913 112.438 102.003 111.608 101.206 110.66C100.202 109.462 99.2066 108.284 98.886 106.704C98.7068 105.803 98.7634 104.898 98.6219 104.026C98.5653 103.672 97.7826 101.121 97.5138 101.06C98.985 101.399 100.126 103.304 101.112 104.29C102.423 105.61 104.511 107.454 106.242 108.071C105.256 106.878 103.96 105.949 102.974 104.709C102.092 103.592 101.484 101.687 100.376 100.847C102.408 101.446 103.983 103.078 105.794 104.233C105.016 102.974 103.894 102.13 102.705 101.225C101.876 100.588 100.357 100.135 99.8385 99.1781C98.9048 97.4476 101.979 99.0367 102.654 99.3715C104.846 100.465 107.072 101.649 109.038 103.205C108.321 102.639 107.84 101.47 107.124 100.81C106.336 100.083 105.516 99.5789 104.559 99.1404C102.456 98.1738 100.433 96.9383 98.2636 96.1367C98.5276 95.5944 99.1783 95.2596 99.8102 94.972C99.7253 94.9767 99.6452 94.9767 99.5603 94.9862C97.6506 95.1701 97.792 94.6514 98.8718 93.4961C99.1595 93.1849 99.4754 92.8972 99.7866 92.6049C99.2679 91.2563 101.47 88.3422 102.008 87.0879C102.583 85.744 102.918 84.3152 103.224 82.8865C103.474 81.7359 103.691 79.6659 104.191 78.6143Z" fill="#E8D80A"/>
<path opacity="0.48" d="M97.4392 92.2566C96.5763 93.0583 95.2654 94.5625 94.1431 94.8784C94.7844 93.8834 95.4823 92.997 96.0387 91.9549C96.5574 90.9882 96.8639 89.9697 97.3024 88.9653C95.9302 90.941 94.7703 94.7747 92.1627 95.4537C93.2566 93.1054 95.0768 90.8467 94.3742 88.0647C94.0205 90.4129 92.7945 92.9687 91.0923 94.6379C91.2856 94.0438 91.6958 93.5109 91.8609 92.7895C92.0825 91.8323 92.3088 90.6911 92.2428 89.6962C92.1438 88.1684 91.3705 86.5746 90.55 85.3203C91.4318 86.8387 91.9033 89.8046 91.1064 91.4739C90.9272 91.8558 90.6302 92.417 90.3095 92.8508C90.2482 93.3978 90.0077 93.8127 89.5315 94.3408C88.7063 95.2509 87.3954 95.3546 87.4143 96.8306C87.4284 97.901 88.3102 98.8063 88.3385 99.9097C88.3526 100.358 88.2678 100.81 88.2489 101.258C88.8195 101.838 89.8333 101.9 90.418 102.56C90.5972 102.385 90.7669 102.201 90.9272 102.036C91.5402 101.386 92.4031 100.782 93.3226 100.499C94.0582 100.046 94.8504 99.8295 95.7982 100.32C97.3166 101.107 98.104 103.772 98.3115 105.337C97.8966 102.97 97.8588 100.669 96.001 98.9148C96.9441 98.8818 98.0946 100.094 98.8349 100.659C99.6648 101.296 100.905 101.966 101.419 102.857C100.424 101.31 99.5045 99.8626 97.9673 98.7874C96.878 98.0283 95.6002 97.5096 94.5864 96.741C95.2748 96.4863 96.034 96.6278 96.7743 96.3449C97.3779 96.1138 98.0097 95.7649 98.4671 95.3641C97.1798 95.4914 95.8407 95.8875 94.5298 95.8498C97.3684 95.0953 99.5988 91.6672 99.91 88.8757C99.0896 90.0074 98.5473 91.2287 97.4392 92.2566Z" fill="#979E02"/>
<path opacity="0.63" d="M97.1502 97.7246C96.2448 96.4939 94.2313 96.5128 92.7979 96.4939C93.6419 95.8243 94.3775 95.4754 95.0707 94.504C95.7686 93.5279 95.976 92.4528 96.3297 91.3164C94.9434 92.5943 94.0474 94.3437 92.0104 94.471C92.2367 93.9429 92.4772 93.2733 92.4206 92.731C92.4772 93.278 90.8127 94.1834 90.3506 94.1975C90.1101 94.2069 89.9121 94.1598 89.7376 94.0796C89.6669 94.1645 89.615 94.2447 89.5348 94.3342C89.0256 94.9001 88.3277 95.15 87.875 95.6168C87.9835 95.9893 88.0731 96.3241 88.1013 96.5269C88.2192 97.5124 88.1674 98.4413 88.2239 99.2901C88.2805 99.4882 88.3371 99.6862 88.3418 99.8984C88.3418 99.9597 88.3324 100.016 88.3324 100.078C88.5163 100.964 88.9501 101.747 90.0771 102.379C90.1808 102.435 90.2893 102.501 90.4024 102.567C90.5863 102.393 90.7655 102.2 90.9306 102.03C91.3644 101.572 91.9161 101.134 92.5244 100.813C92.2037 100.643 91.9397 100.497 91.8878 100.375C91.4304 99.2901 93.8777 98.8374 94.5143 99.0166C95.5516 99.309 96.5372 100.464 97.4331 101.063C96.9002 99.4834 95.6884 98.0217 94.038 97.5407C94.6746 97.0975 96.5466 97.2578 97.1502 97.7246Z" fill="#ADA405"/>
<path d="M102.57 94.8633C109.978 97.5982 112.836 99.5692 113.444 103.172C114.241 107.897 107.8 107.01 107.196 111.122C106.927 112.966 105.899 113.56 104.669 113.541C105.451 113.909 106.22 114.126 106.913 114.008C108.309 113.763 107.861 112.329 108.413 111.263C108.922 110.278 109.761 110.028 110.634 109.448C112.685 108.085 114.576 107.269 115.443 104.709C117.542 98.5083 109.012 95.4763 104.508 94.9623C103.862 94.8916 103.216 94.8774 102.57 94.8633Z" fill="#FCFF7D"/>
<path d="M103.002 71.6674C100.328 71.6533 98.3572 74.2562 95.5516 73.3886C93.7927 72.8463 92.3168 71.0639 90.4118 71.3515C87.4317 71.8042 85.7294 76.1848 85.4606 78.7688C85.1541 81.7489 85.9935 84.4508 87.6863 86.8651C88.8086 88.4589 90.0723 90.147 90.3033 92.1369C92.1754 89.6991 88.5162 85.2195 87.5684 83.0928C86.6866 81.1218 86.6489 79.561 87.045 77.4202C88.0588 71.9032 92.3168 73.5347 96.0703 75.27C97.6735 76.0103 98.7062 77.0854 100.776 75.6567C101.488 75.1663 102.243 74.6098 103.124 74.492C104.619 74.2892 106.557 75.2228 107.279 76.5479C108.344 78.5236 109.16 79.6647 108.505 81.7206C108.005 83.2909 106.505 85.6627 105.982 87.1103C108.043 85.0591 110.198 82.461 110.235 79.6883C110.259 77.7031 109.151 75.9773 107.755 74.6806C106.614 73.6385 104.648 71.6722 103.002 71.6674Z" fill="#FCFF7D"/>
<path d="M96.6879 85.1367C97.1311 88.3998 94.2359 91.0875 92.2884 93.3698C91.185 94.6618 89.0773 96.2556 88.0352 97.6183C88.1247 98.42 88.2662 99.198 88.3086 99.976C89.6384 99.7874 91.7414 98.7878 92.444 98.5803C95.5515 97.6561 99.9415 96.8167 102.7 99.0848C100.965 94.6099 92.7317 96.9582 89.1668 98.4011C92.9816 95.7699 99.0267 92.6153 102.658 91.4506C100.578 90.8188 97.6923 92.1626 95.8768 93.2566C93.1844 94.8787 92.0385 95.2937 90.3127 96.4867C94.3349 92.1438 98.8381 89.3664 96.6879 85.1367Z" fill="#979E02"/>
<path d="M97.858 86.0439C98.1881 85.3318 97.6553 84.1247 96.8631 83.8229C96.5188 83.6909 96.151 83.7899 95.8304 84.2756C95.34 85.0159 95.9389 86.6333 96.9574 86.5814C97.4336 86.5484 97.7166 86.3409 97.858 86.0439Z" fill="#C9C90D"/>
<path d="M97.8593 86.0452C98.1894 85.3331 97.6566 84.126 96.8644 83.8242C96.8644 83.8242 97.6613 84.5551 97.2463 85.5642C96.8455 86.5403 96.0156 86.0499 96.0156 86.0499C96.242 86.3752 96.572 86.5969 96.9634 86.578C97.435 86.5497 97.7179 86.3422 97.8593 86.0452Z" fill="#979E02"/>
<path d="M101.326 92.3526C102.048 92.6591 103.236 92.0933 103.514 91.2917C103.632 90.9427 103.529 90.5797 103.029 90.2732C102.274 89.811 100.676 90.4571 100.765 91.4709C100.808 91.9471 101.025 92.2206 101.326 92.3526Z" fill="#C9C90D"/>
<path d="M101.327 92.3515C102.049 92.658 103.237 92.0922 103.515 91.2906C103.515 91.2906 102.808 92.111 101.785 91.7244C100.799 91.3519 101.261 90.5078 101.261 90.5078C100.941 90.7483 100.728 91.0784 100.766 91.4698C100.808 91.946 101.025 92.2195 101.327 92.3515Z" fill="#979E02"/>
<path d="M102.189 97.5017C102.972 97.4545 103.896 98.3976 103.886 99.2464C103.882 99.6142 103.655 99.9207 103.08 100.039C102.212 100.218 100.93 99.0578 101.359 98.1383C101.566 97.7045 101.863 97.5206 102.189 97.5017Z" fill="#C9C90D"/>
<path d="M102.19 97.5017C102.972 97.4545 103.897 98.3976 103.887 99.2464C103.887 99.2464 103.5 98.2326 102.411 98.2467C101.36 98.2609 101.506 99.2087 101.506 99.2087C101.289 98.8786 101.204 98.4872 101.364 98.1383C101.567 97.7045 101.864 97.5206 102.19 97.5017Z" fill="#979E02"/>
<path d="M88.2566 94.844C86.5213 88.0067 80.1791 82.9612 73.3418 81.5513C70.4654 80.9572 69.0886 83.5789 66.7969 84.7059C68.7868 85.9885 67.9097 90.1475 68.7915 92.1091C69.8524 94.4715 72.5921 95.9332 74.8272 96.9235C77.0811 97.9231 80.1131 99.3 82.6641 99.0784C83.8241 98.9794 85.0737 97.7628 86.196 97.876C87.9265 98.0504 87.3465 99.8281 87.1579 101.031C89.0676 102.077 88.6291 96.6688 88.4782 95.8389C88.4122 95.5089 88.3415 95.1741 88.2566 94.844Z" fill="#F9F200"/>
<path d="M78.5733 83.4062C78.4931 84.0004 79.4503 84.7926 79.7427 85.2594C80.4736 86.4241 81.3978 87.5322 82.1051 88.7205C83.199 90.5501 81.8174 89.5787 80.8979 89.126C81.2893 89.6023 82.322 90.3096 82.0721 90.9179C80.7848 89.9371 78.7383 88.2914 77.0926 88.1546C78.2998 89.2863 79.8134 90.1021 81.0536 91.2055C80.45 90.6679 79.6437 90.6679 78.9835 90.2718C80.068 91.1018 80.9922 92.059 82.0155 92.8747C81.063 92.738 79.8417 91.5686 78.9222 91.1112C77.6207 90.4557 76.1401 89.3429 74.6406 89.6777C75.9656 90.2577 77.2199 90.7481 78.4082 91.6582C79.0024 92.1108 82.6756 94.6572 82.5153 95.3645C82.3503 96.0765 80.6575 95.5578 80.1765 95.3503C81.228 95.803 83.4914 97.8117 81.0394 97.8023C81.5392 97.9579 82.0909 98.0145 82.4682 98.4153C81.9966 98.7312 81.4213 98.9057 80.8131 99.0095C81.4449 99.1038 82.0626 99.1462 82.6568 99.0943C83.8168 98.9953 85.0663 97.7787 86.1886 97.8919C87.9191 98.0664 87.3392 99.8441 87.1505 101.046C89.0603 102.093 88.6217 96.6848 88.4708 95.8549C88.4095 95.5154 88.3341 95.1853 88.2492 94.8552C86.9808 89.8145 83.2038 85.7592 78.5733 83.4062Z" fill="#E8D80A"/>
<path d="M69.9994 88.3085C69.6411 86.0026 69.4524 84.2014 71.6498 82.9848C73.2012 82.1266 75.5541 82.4614 77.6053 82.9424C76.2332 82.3294 74.795 81.8531 73.3379 81.5513C70.4615 80.9572 69.0846 83.5789 66.793 84.7059C68.7829 85.9885 67.9058 90.1475 68.7876 92.1091C69.8485 94.4715 72.5882 95.9332 74.8233 96.9235C75.7663 97.3384 76.8414 97.8194 77.959 98.2249C73.8519 96.3718 70.8058 93.519 69.9994 88.3085Z" fill="#FCFF7D"/>
<path d="M78.4082 83.3164C80.1529 84.5566 82.1475 85.9947 83.3877 87.2773C84.3166 88.2393 85.6511 90.2197 85.9246 91.5448C84.807 90.2999 79.9549 85.4666 76.5504 84.0001C79.8464 86.4427 87.1506 92.4643 86.6649 94.4919C82.256 91.5212 78.8656 86.9331 72.4716 85.2733C74.1502 85.759 76.0977 87.2679 77.5642 88.2864C79.3042 89.4888 83.2462 92.3558 84.8872 94.3834C83.2226 93.7327 80.1482 91.2288 78.5403 90.4178C75.8714 89.0692 73.8768 88.6542 71.8633 88.7674C74.2068 89.5266 76.5457 89.9604 78.7147 91.1628C80.7565 92.2945 84.0997 95.0294 86.0141 96.4393C83.6753 96.9297 80.2661 98.1369 72.9997 94.9681C74.4662 95.6094 76.5598 97.6842 82.5625 97.6323C83.6706 97.6229 85.0805 96.8307 85.8727 97.8068C85.8915 97.8304 85.9057 97.8681 85.9246 97.8964C86.0189 97.8917 86.1132 97.8775 86.2028 97.8869C87.9333 98.0614 87.3533 99.8391 87.1647 101.042C89.0744 102.088 88.6359 96.6798 88.485 95.8499C88.4237 95.5104 88.3483 95.1803 88.2634 94.8502C86.9667 89.7529 83.1142 85.6552 78.4082 83.3164Z" fill="#CCBA1B"/>
<path opacity="0.68" d="M83.3867 89.0156C84.1553 89.7276 85.8859 90.9536 87.475 94.4525C87.475 94.4525 84.6976 92.2975 84.4524 92.8681C84.4524 92.8681 87.5976 94.6552 87.7437 97.1167C87.7673 97.4939 85.2917 94.8155 85.1456 95.1362C85.0277 95.3861 87.3948 97.3383 86.6215 97.989C87.805 98.4087 87.3288 99.9553 87.159 101.04C89.0688 102.087 88.6302 96.6781 88.4793 95.8482C88.418 95.5087 88.3426 95.1786 88.2577 94.8486C87.7909 93.0143 86.9846 91.312 85.933 89.7748C86.249 90.534 86.5224 91.312 86.7441 92.1183C86.7441 92.1183 86.4187 91.4063 85.3436 90.4161C84.2685 89.4164 83.3867 89.0156 83.3867 89.0156Z" fill="#B2A906"/>
<path d="M92.5726 102.378C92.4972 102.251 92.417 102.123 92.3369 102.005C91.5164 100.808 90.2574 100.921 89.0078 100.595C87.8242 100.284 86.735 99.0582 85.4335 99.4402C83.6087 99.9777 82.2459 101.482 81.2746 103.062C79.7562 105.528 79.5723 108.225 79.3224 111.078C79.1149 113.44 78.8226 115.902 80.3268 117.891C81.7367 119.754 83.7219 121.23 86.089 121.527C87.8431 121.749 90.6912 121.711 92.1058 120.537C93.4167 119.443 94.5955 118.057 95.0671 116.439C95.7084 114.232 95.0058 111.469 94.638 109.225C94.289 107.084 93.7279 104.302 92.5726 102.378Z" fill="#F9F200"/>
<path d="M85.433 99.4363C83.6081 99.9738 82.2454 101.478 81.274 103.058C81.1891 103.194 81.1231 103.336 81.043 103.477C81.4202 102.978 81.8493 102.581 82.3821 102.454C82.2218 103.402 81.8776 104.331 81.8399 105.297C81.8257 105.717 82.2218 107.094 81.9672 107.443C82.7169 106.434 82.434 104.75 83.2828 103.859C83.6176 105.123 83.2215 106.736 83.3016 108.07C83.9948 107.349 84.1174 105.859 84.438 104.934C84.7021 108.381 84.0278 112.045 84.6738 115.473C85.2302 114.837 85.3057 113.479 85.5132 112.658C85.8008 111.541 86.0271 110.385 86.1403 109.235C86.3101 107.5 86.5505 105.491 86.4704 103.793C86.758 105.844 87.1447 107.976 87.338 110.051C87.4795 111.607 87.272 113.394 87.7152 114.846C88.663 113.87 88.4037 110.857 88.5593 109.546C88.7479 107.948 89.0921 106.217 88.8045 104.633C89.276 105.585 89.111 106.863 89.5778 107.82C89.6533 107.254 89.6438 106.641 89.7994 106.066C90.7519 107.5 90.8274 109.532 91.4828 111.093C92.4966 109.433 91.3084 105.948 90.7755 104.227C92.5485 105.401 92.987 106.981 93.9631 108.693C94.147 108.447 94.2555 108.014 94.3215 107.509C93.9631 105.741 93.4303 103.822 92.5674 102.383C92.4919 102.256 92.4118 102.129 92.3316 102.011C91.5111 100.813 90.2521 100.926 89.0025 100.601C87.8237 100.28 86.7344 99.0543 85.433 99.4363Z" fill="#E8D80A"/>
<path d="M94.289 111.893C93.9118 114.793 93.3648 120.305 89.3237 120.362C85.5797 120.413 81.5481 118.735 80.7182 114.727C80.1947 112.18 79.7326 108.95 80.0391 105.984C79.6053 107.606 79.4733 109.309 79.3224 111.068C79.1149 113.43 78.8226 115.891 80.3268 117.881C81.7367 119.744 83.7219 121.22 86.089 121.517C87.8431 121.738 90.6912 121.701 92.1058 120.527C93.4167 119.433 94.5955 118.046 95.0671 116.429C95.7084 114.222 95.0058 111.459 94.638 109.214C94.6238 109.144 94.6144 109.068 94.6002 108.993C94.5201 110.007 94.4069 110.992 94.289 111.893Z" fill="#FCFF7D"/>
<path d="M89.0095 100.595C87.8259 100.284 86.7367 99.0582 85.4352 99.4402C85.4258 99.4449 85.4211 99.4449 85.4117 99.4496C85.157 99.9023 84.9496 100.364 84.7845 100.713C83.8462 102.713 82.4881 104.108 82.5872 106.476C82.5164 104.816 84.3931 102.406 85.4588 101.185C85.605 102.538 84.7468 104.047 84.7562 105.476C84.7657 106.971 84.7609 108.517 84.8034 110.031C84.8741 112.492 85.0533 115.619 84.2045 117.972C85.6616 116.109 85.7465 112.653 85.8266 110.38C85.9492 107.008 84.9637 104.052 86.5905 100.888C87.0055 102.236 86.765 103.91 86.798 105.316C86.8357 106.947 87.1894 108.546 87.2884 110.163C87.3308 110.847 87.3073 111.563 87.3544 112.261C87.3968 112.893 87.7694 114.058 87.6279 114.638C88.1843 112.308 88.0523 109.621 87.9627 107.23C87.892 105.151 87.4959 103.08 87.2978 101.006C89.5235 104.552 91.1927 107.796 91.3578 112.115C91.3531 112.04 91.3295 111.974 91.2776 111.927C91.636 113.78 91.023 115.543 90.8815 117.34C91.8623 116.51 91.9378 114.416 91.9236 113.242C91.8812 109.894 91.6124 107.056 89.9997 104.08C89.4952 103.146 88.5851 102.02 88.6417 100.902C90.8296 101.468 91.6926 103.901 92.6781 105.622C92.3904 105.118 92.5319 103.92 92.282 103.279C91.9896 102.533 91.6171 102.152 91.0654 101.543C90.9522 101.421 90.8344 101.289 90.7165 101.152C90.6552 101.081 90.575 100.977 90.5043 100.883C90.028 100.789 89.5188 100.727 89.0095 100.595Z" fill="#CCBA1B"/>
</g>
<defs>
<clipPath id="clip0_202_71966">
<rect x="0.0703125" width="160" height="160" rx="80" fill="white"/>
</clipPath>
</defs>
</svg>
