<svg width="160" height="160" viewBox="0 0 160 160" fill="none" xmlns="http://www.w3.org/2000/svg">
<circle cx="80" cy="80" r="80" fill="#FEF0FF"/>
<path d="M56.1634 103.023C59.0541 90.9159 59.1237 78.7721 55.9727 67.0124C52.8217 55.2527 46.6895 44.7706 38.1362 35.7323L38.8838 35.3577C47.48 44.4401 53.6415 54.9736 56.8074 66.7888C59.9732 78.6039 59.9039 90.807 57.0011 102.972L56.1663 103.022L56.1634 103.023Z" fill="#BACCCE"/>
<path d="M67.5361 50.4261L47.4478 46.717C47.3434 46.6966 47.2633 46.6244 47.2377 46.5285C47.212 46.4327 47.2452 46.3301 47.3254 46.2603L62.892 33.0941C63.0094 32.9961 63.1838 33.0038 63.2834 33.1131C63.3829 33.2224 63.3701 33.389 63.2526 33.4869L48.1082 46.2983L67.6528 49.9084C67.8042 49.9373 67.8986 50.0752 67.8633 50.2176C67.8398 50.3206 67.7581 50.3969 67.6598 50.4232C67.6181 50.4344 67.5741 50.4371 67.5301 50.4277L67.5361 50.4261Z" fill="#BACCCE"/>
<path d="M81.1053 70.6017L56.3407 68.1455C56.2108 68.135 56.1147 68.067 56.0883 67.9684C56.0626 67.8725 56.1119 67.7656 56.2183 67.6888L76.4612 53.2696C76.6167 53.1614 76.8368 53.1569 76.9549 53.2612C77.073 53.3655 77.045 53.5362 76.8933 53.6433L57.2096 67.6709L81.2934 70.0648C81.4822 70.0807 81.5887 70.2183 81.5378 70.3649C81.5008 70.4715 81.392 70.555 81.2658 70.5889C81.2123 70.6032 81.1565 70.6091 81.1015 70.6027L81.1053 70.6017Z" fill="#BACCCE"/>
<path d="M78.4988 95.1084L58.3781 91.4094C58.28 91.3903 58.2027 91.3144 58.177 91.2185C58.1514 91.1227 58.1811 91.0211 58.2557 90.9527L73.8554 77.7791C73.9647 77.6834 74.1293 77.6937 74.2248 77.804C74.3203 77.9144 74.3108 78.0801 74.2015 78.1758L58.9946 91.0025L78.6009 94.5946C78.7442 94.6257 78.8353 94.7645 78.805 94.9085C78.7836 95.0079 78.7085 95.0854 78.6162 95.1102C78.577 95.1207 78.5356 95.1227 78.4939 95.1127L78.4988 95.1084Z" fill="#BACCCE"/>
<path d="M80.7878 71.2834C89.4332 67.1473 98.0126 65.0837 106.489 64.3968C114.965 63.71 122.649 61.9742 131.491 57.6974C129.826 54.5328 124.518 51.1087 122.615 50.1278C123.77 48.3275 126.654 42.7053 126.517 39.1313C117.622 43.2124 108.993 45.4111 100.517 46.0979C92.0407 46.7848 84.7619 48.755 75.8131 52.7173L80.7878 71.2834Z" fill="#F2F2F2"/>
<path d="M116.956 46.8571C116.548 45.3339 115.425 44.1949 114.044 43.7004C112.403 44.1515 110.773 44.5401 109.147 44.871C108.079 45.9988 107.599 47.6381 108.031 49.2485C108.692 51.7157 111.224 53.1798 113.69 52.5191C116.156 51.8584 117.617 49.3243 116.956 46.8571Z" fill="#F2F2F2"/>
<path d="M116.188 47.0633C116.735 49.1048 115.524 51.2034 113.486 51.7495C111.448 52.2956 109.35 51.0834 108.803 49.042C108.256 47.0005 109.467 44.9019 111.505 44.3558C113.543 43.8097 115.641 45.0219 116.188 47.0633Z" fill="#FFF000"/>
<path d="M115.461 47.2578C115.9 48.8973 114.93 50.583 113.291 51.0221C111.652 51.4612 109.969 50.4866 109.53 48.8471C109.09 47.2076 110.061 45.5219 111.7 45.0828C113.338 44.6438 115.022 45.6183 115.461 47.2578Z" fill="#D700FA"/>
<path d="M119.347 55.7892C120.008 58.2564 118.547 60.7906 116.081 61.4513C113.615 62.112 111.083 60.6479 110.422 58.1807C109.761 55.7135 111.222 53.1793 113.688 52.5186C116.153 51.8579 118.686 53.322 119.347 55.7892Z" fill="#F2F2F2"/>
<path d="M118.579 55.9957C119.126 58.0371 117.915 60.1357 115.877 60.6818C113.839 61.2279 111.741 60.0157 111.194 57.9743C110.647 55.9328 111.858 53.8342 113.896 53.2881C115.934 52.7421 118.032 53.9542 118.579 55.9957Z" fill="#FFF000"/>
<path d="M117.852 56.1901C118.291 57.8296 117.321 59.5152 115.682 59.9543C114.044 60.3934 112.36 59.4188 111.921 57.7793C111.482 56.1398 112.452 54.4542 114.091 54.0151C115.73 53.576 117.413 54.5506 117.852 56.1901Z" fill="#D700FA"/>
<path d="M115.187 52.1191C115.848 54.5863 114.387 57.1205 111.921 57.7812C109.456 58.4419 106.923 56.9778 106.262 54.5106C105.601 52.0434 107.062 49.5092 109.528 48.8485C111.994 48.1878 114.526 49.6519 115.187 52.1191Z" fill="#F2F2F2"/>
<path d="M114.419 52.3259C114.966 54.3674 113.758 56.4653 111.718 57.012C109.677 57.5588 107.582 56.346 107.035 54.3045C106.488 52.2631 107.698 50.1645 109.736 49.6184C111.774 49.0723 113.872 50.2845 114.419 52.3259Z" fill="#FFF000"/>
<path d="M113.693 52.5203C114.132 54.1598 113.159 55.8462 111.523 56.2846C109.887 56.723 108.201 55.7491 107.761 54.1096C107.322 52.4701 108.293 50.7844 109.931 50.3453C111.57 49.9063 113.253 50.8808 113.693 52.5203Z" fill="#204C8C"/>
<path d="M112.933 43.996C109.906 44.7787 106.903 45.3536 103.922 45.7386C104.65 48.1057 107.121 49.4929 109.527 48.8481C111.72 48.2605 113.116 46.1858 112.931 43.9993L112.933 43.996Z" fill="#F2F2F2"/>
<path d="M112.15 44.194C109.659 44.8106 107.184 45.2837 104.725 45.6281C105.375 47.5087 107.373 48.5972 109.324 48.0746C111.096 47.5997 112.238 45.9559 112.15 44.194Z" fill="#FFF000"/>
<path d="M111.399 44.3756C109.418 44.8442 107.443 45.2258 105.482 45.5218C106.052 46.9478 107.608 47.7553 109.125 47.3487C110.498 46.9807 111.402 45.7353 111.399 44.3756Z" fill="#D700FA"/>
<path d="M117.579 61.0502C116.918 58.583 114.386 57.1189 111.92 57.7796C109.454 58.4403 107.993 60.9745 108.654 63.4417C108.722 63.6955 108.814 63.9346 108.92 64.1641C111.896 63.8428 114.798 63.3684 117.71 62.6731C117.759 62.1415 117.725 61.5949 117.579 61.0502Z" fill="#F2F2F2"/>
<path d="M116.81 61.2576C116.263 59.2162 114.165 58.004 112.127 58.5501C110.089 59.0962 108.879 61.1948 109.426 63.2362C109.506 63.535 109.619 63.8136 109.76 64.0733C112.164 63.7892 114.522 63.3955 116.883 62.8679C116.97 62.3485 116.956 61.8024 116.811 61.2603L116.81 61.2576Z" fill="#FFF000"/>
<path d="M116.086 61.4509C115.646 59.8114 113.961 58.8402 112.325 59.2786C110.689 59.717 109.716 61.4033 110.155 63.0402C110.246 63.3813 110.392 63.6907 110.58 63.9665C112.432 63.728 114.262 63.4248 116.088 63.0374C116.224 62.5334 116.233 61.9897 116.088 61.4503L116.086 61.4509Z" fill="#D700FA"/>
<path d="M115.186 52.1181C115.848 54.5853 114.386 57.1195 111.921 57.7802C109.455 58.4409 106.922 56.9768 106.261 54.5096C105.6 52.0424 107.061 49.5082 109.527 48.8475C111.993 48.1868 114.525 49.6509 115.186 52.1181Z" fill="#F2F2F2"/>
<path d="M114.416 52.3241C114.963 54.3656 113.753 56.4642 111.715 57.0103C109.677 57.5564 107.579 56.3442 107.032 54.3028C106.485 52.2613 107.696 50.1627 109.734 49.6166C111.772 49.0705 113.869 50.2827 114.416 52.3241Z" fill="#FFF000"/>
<path d="M113.692 52.5194C114.131 54.1589 113.158 55.8453 111.522 56.2837C109.886 56.7221 108.2 55.7482 107.761 54.1087C107.321 52.4692 108.292 50.7835 109.931 50.3444C111.569 49.9053 113.252 50.8799 113.692 52.5194Z" fill="#D700FA"/>
<path d="M110.253 48.6532C110.8 50.6947 109.59 52.7933 107.552 53.3394C105.514 53.8855 103.416 52.6733 102.869 50.6319C102.322 48.5904 103.533 46.4918 105.571 45.9457C107.609 45.3996 109.706 46.6118 110.253 48.6532Z" fill="#FFF000"/>
<path d="M109.527 48.8477C109.966 50.4872 108.996 52.1728 107.357 52.6119C105.718 53.051 104.035 52.0764 103.596 50.4369C103.156 48.7974 104.127 47.1118 105.765 46.6727C107.404 46.2336 109.087 47.2082 109.527 48.8477Z" fill="#D700FA"/>
<path d="M113.417 57.3783C114.078 59.8455 112.617 62.3797 110.152 63.0404C107.686 63.7011 105.153 62.237 104.492 59.7698C103.831 57.3026 105.292 54.7684 107.758 54.1077C110.224 53.447 112.756 54.9111 113.417 57.3783Z" fill="#F2F2F2"/>
<path d="M112.647 57.5843C113.194 59.6258 111.984 61.7244 109.946 62.2705C107.908 62.8166 105.81 61.6044 105.263 59.563C104.716 57.5215 105.926 55.4229 107.965 54.8768C110.003 54.3307 112.1 55.5429 112.647 57.5843Z" fill="#FFF000"/>
<path d="M111.921 57.7788C112.36 59.4183 111.389 61.1039 109.751 61.543C108.112 61.9821 106.429 61.0075 105.989 59.368C105.55 57.7285 106.521 56.0429 108.159 55.6038C109.798 55.1647 111.481 56.1393 111.921 57.7788Z" fill="#D700FA"/>
<path d="M109.256 53.7078C109.917 56.175 108.456 58.7092 105.99 59.3699C103.524 60.0306 100.992 58.5665 100.331 56.0993C99.6696 53.6321 101.131 51.0979 103.596 50.4372C106.062 49.7765 108.595 51.2406 109.256 53.7078Z" fill="#F2F2F2"/>
<path d="M108.486 53.9137C109.033 55.9552 107.822 58.0538 105.784 58.5999C103.746 59.146 101.648 57.9338 101.101 55.8924C100.554 53.8509 101.765 51.7523 103.803 51.2062C105.841 50.6601 107.939 51.8723 108.486 53.9137Z" fill="#FFF000"/>
<path d="M107.759 54.1082C108.198 55.7477 107.228 57.4334 105.589 57.8725C103.95 58.3116 102.267 57.337 101.828 55.6975C101.389 54.058 102.362 52.3716 103.998 51.9332C105.634 51.4948 107.32 52.4687 107.759 54.1082Z" fill="#204C8C"/>
<path d="M106.968 45.2822C104.808 45.6539 102.658 45.924 100.52 46.0973C99.6005 46.1707 98.698 46.2651 97.8034 46.3688C97.8269 46.6318 97.868 46.8985 97.9388 47.1629C98.5999 49.6301 101.132 51.0942 103.598 50.4335C105.894 49.8184 107.318 47.5776 106.967 45.2795L106.968 45.2822Z" fill="#F2F2F2"/>
<path d="M106.178 45.4097C104.282 45.7136 102.394 45.9445 100.518 46.0957C99.8693 46.1477 99.2317 46.2109 98.5956 46.2793C98.6143 46.5038 98.6448 46.7309 98.7057 46.9583C99.2527 48.9998 101.35 50.2119 103.388 49.6658C105.285 49.1577 106.463 47.3087 106.178 45.4097Z" fill="#FFF000"/>
<path d="M105.436 45.5282C103.79 45.7765 102.151 45.9663 100.518 46.0977C100.121 46.1304 99.7303 46.167 99.3378 46.207C99.3518 46.3932 99.3827 46.5804 99.4323 46.7656C99.8716 48.4051 101.557 49.3789 103.194 48.9406C104.714 48.5332 105.659 47.0527 105.436 45.5309L105.436 45.5282Z" fill="#D700FA"/>
<path d="M102.675 64.8038C103.948 64.6384 105.22 64.4989 106.49 64.3966C108.29 64.2515 110.052 64.0544 111.8 63.7985C111.797 63.4166 111.753 63.0259 111.65 62.6399C110.989 60.1727 108.456 58.7086 105.991 59.3693C103.525 60.03 102.161 62.4106 102.678 64.8031L102.675 64.8038Z" fill="#F2F2F2"/>
<path d="M103.467 64.703C104.476 64.5829 105.484 64.48 106.489 64.3978C108.013 64.2755 109.514 64.1143 110.999 63.9149C111.007 63.5641 110.971 63.2051 110.876 62.8481C110.329 60.8067 108.231 59.5945 106.193 60.1406C104.155 60.6867 102.996 62.7006 103.464 64.7037L103.467 64.703Z" fill="#FFF000"/>
<path d="M104.217 64.6171C104.976 64.5328 105.734 64.4571 106.491 64.396C107.761 64.2936 109.011 64.163 110.253 64.0086C110.271 63.6921 110.241 63.3656 110.154 63.0403C109.715 61.4008 108.032 60.4289 106.393 60.868C104.755 61.3071 103.79 62.9827 104.22 64.619L104.217 64.6171Z" fill="#D700FA"/>
<path d="M109.256 53.7086C109.917 56.1758 108.456 58.71 105.99 59.3707C103.524 60.0314 100.992 58.5673 100.331 56.1001C99.6696 53.6329 101.131 51.0987 103.596 50.438C106.062 49.7774 108.595 51.2414 109.256 53.7086Z" fill="#F2F2F2"/>
<path d="M108.486 53.9145C109.033 55.956 107.822 58.0546 105.784 58.6007C103.746 59.1468 101.648 57.9346 101.101 55.8932C100.554 53.8517 101.765 51.7531 103.803 51.207C105.841 50.6609 107.939 51.8731 108.486 53.9145Z" fill="#FFF000"/>
<path d="M107.759 54.109C108.198 55.7485 107.228 57.4342 105.589 57.8733C103.95 58.3124 102.267 57.3378 101.828 55.6983C101.389 54.0588 102.362 52.3724 103.998 51.934C105.634 51.4956 107.32 52.4695 107.759 54.109Z" fill="#D700FA"/>
<path d="M105.093 50.0351C105.754 52.5023 104.293 55.0365 101.827 55.6972C99.3613 56.3579 96.8289 54.8938 96.1678 52.4266C95.5067 49.9594 96.9678 47.4252 99.4336 46.7645C101.899 46.1038 104.432 47.5679 105.093 50.0351Z" fill="#F2F2F2"/>
<path d="M104.323 50.2408C104.87 52.2822 103.659 54.3808 101.621 54.9269C99.5831 55.473 97.4854 54.2608 96.9384 52.2194C96.3914 50.1779 97.6019 48.0793 99.64 47.5333C101.678 46.9872 103.776 48.1993 104.323 50.2408Z" fill="#FFF000"/>
<path d="M103.596 50.4352C104.035 52.0747 103.065 53.7604 101.426 54.1994C99.7876 54.6385 98.1043 53.664 97.6649 52.0245C97.2256 50.3849 98.1962 48.6993 99.8348 48.2602C101.474 47.8211 103.157 48.7957 103.596 50.4352Z" fill="#D700FA"/>
<path d="M107.485 58.9679C108.146 61.4351 106.685 63.9693 104.219 64.63C101.753 65.2907 99.2208 63.8266 98.5597 61.3594C97.8986 58.8922 99.3597 56.358 101.825 55.6973C104.291 55.0366 106.824 56.5007 107.485 58.9679Z" fill="#F2F2F2"/>
<path d="M106.715 59.1739C107.262 61.2154 106.051 63.314 104.013 63.8601C101.975 64.4062 99.8773 63.194 99.3303 61.1526C98.7832 59.1111 99.9938 57.0125 102.032 56.4664C104.07 55.9203 106.168 57.1325 106.715 59.1739Z" fill="#FFF000"/>
<path d="M105.988 59.3684C106.427 61.0079 105.457 62.6936 103.818 63.1327C102.179 63.5718 100.496 62.5972 100.057 60.9577C99.6175 59.3182 100.588 57.6325 102.227 57.1934C103.865 56.7543 105.549 57.7289 105.988 59.3684Z" fill="#D700FA"/>
<path d="M103.324 55.297C103.986 57.7642 102.524 60.2984 100.059 60.9591C97.5929 61.6198 95.0604 60.1557 94.3994 57.6885C93.7383 55.2213 95.1994 52.6871 97.6652 52.0264C100.131 51.3657 102.663 52.8298 103.324 55.297Z" fill="#F2F2F2"/>
<path d="M102.554 55.503C103.101 57.5444 101.891 59.643 99.8528 60.1891C97.8148 60.7352 95.7171 59.523 95.1701 57.4816C94.6231 55.4401 95.8337 53.3416 97.8717 52.7955C99.9097 52.2494 102.007 53.4615 102.554 55.503Z" fill="#FFF000"/>
<path d="M101.828 55.6974C102.267 57.3369 101.297 59.0226 99.6579 59.4617C98.0193 59.9007 96.336 58.9262 95.8967 57.2867C95.4573 55.6471 96.4304 53.9608 98.0665 53.5224C99.7026 53.084 101.389 54.0579 101.828 55.6974Z" fill="#204C8C"/>
<path d="M91.8583 47.3439C91.8365 47.8088 91.8778 48.2824 92.0053 48.7584C92.6664 51.2256 95.1989 52.6897 97.6646 52.029C100.13 51.3683 101.592 48.8341 100.93 46.3669C100.904 46.2664 100.87 46.1707 100.835 46.0723C100.729 46.0807 100.622 46.0924 100.519 46.1002C97.5242 46.3415 94.6813 46.749 91.8583 47.3439Z" fill="#F2F2F2"/>
<path d="M97.4581 51.2568C99.4961 50.7107 100.707 48.6121 100.16 46.5707C100.121 46.4252 100.071 46.2826 100.018 46.1439C97.492 46.3644 95.0668 46.7024 92.6694 47.1748C92.6239 47.6234 92.6521 48.0892 92.7753 48.5493C93.3223 50.5908 95.42 51.8029 97.4581 51.2568Z" fill="#FFF000"/>
<path d="M97.2634 50.5291C98.902 50.09 99.8726 48.4044 99.4332 46.7649C99.3815 46.5718 99.3106 46.3896 99.2256 46.2168C97.2534 46.4108 95.3367 46.6778 93.4426 47.0295C93.3669 47.4579 93.3823 47.9072 93.5021 48.3541C93.9414 49.9936 95.6273 50.9675 97.2634 50.5291Z" fill="#D700FA"/>
<path d="M100.059 60.9611C97.8534 61.552 96.456 63.644 96.6593 65.8455C99.7077 65.1846 102.744 64.7366 105.77 64.4645C105.754 64.3864 105.739 64.3083 105.718 64.2316C105.057 61.7645 102.522 60.3011 100.059 60.9611Z" fill="#F2F2F2"/>
<path d="M104.966 64.5383C104.958 64.5066 104.954 64.4735 104.945 64.4391C104.398 62.3977 102.3 61.1855 100.262 61.7316C98.4666 62.2128 97.3159 63.8958 97.4384 65.6825C99.9541 65.1671 102.465 64.789 104.966 64.5357L104.966 64.5383Z" fill="#FFF000"/>
<path d="M104.216 64.6195C103.771 62.9873 102.092 62.02 100.459 62.4577C99.0519 62.8347 98.138 64.1339 98.1868 65.5322C100.201 65.1429 102.211 64.8424 104.214 64.6202L104.216 64.6195Z" fill="#D700FA"/>
<path d="M103.324 55.299C103.985 57.7662 102.521 60.3011 100.058 60.9611C97.5948 61.6211 95.0598 60.1577 94.3987 57.6905C93.7376 55.2233 95.1988 52.6891 97.6645 52.0284C100.13 51.3677 102.663 52.8318 103.324 55.299Z" fill="#F2F2F2"/>
<path d="M102.554 55.5049C103.101 57.5464 101.89 59.645 99.852 60.1911C97.8139 60.7372 95.7162 59.525 95.1692 57.4835C94.6222 55.4421 95.8328 53.3435 97.8708 52.7974C99.9089 52.2513 102.007 53.4635 102.554 55.5049Z" fill="#FFF000"/>
<path d="M101.827 55.6994C102.266 57.3389 101.296 59.0245 99.6571 59.4636C98.0184 59.9027 96.3351 58.9281 95.8958 57.2886C95.4565 55.6491 96.4296 53.9628 98.0657 53.5244C99.7018 53.086 101.388 54.0598 101.827 55.6994Z" fill="#D700FA"/>
<path d="M99.1585 51.6281C99.8196 54.0953 98.3585 56.6295 95.8927 57.2901C93.427 57.9508 90.8945 56.4867 90.2334 54.0196C89.5723 51.5524 91.0335 49.0182 93.4992 48.3575C95.965 47.6968 98.4974 49.1609 99.1585 51.6281Z" fill="#F2F2F2"/>
<path d="M98.3897 51.8337C98.9367 53.8751 97.7261 55.9737 95.6881 56.5198C93.65 57.0659 91.5523 55.8537 91.0053 53.8123C90.4583 51.7708 91.6689 49.6722 93.7069 49.1262C95.745 48.5801 97.8427 49.7922 98.3897 51.8337Z" fill="#FFF000"/>
<path d="M97.6639 52.0293C98.1032 53.6688 97.1327 55.3545 95.494 55.7936C93.8553 56.2326 92.172 55.2581 91.7327 53.6186C91.2934 51.9791 92.2639 50.2934 93.9026 49.8543C95.5413 49.4152 97.2246 50.3898 97.6639 52.0293Z" fill="#D700FA"/>
<path d="M101.552 60.5604C100.891 58.0932 98.3586 56.6291 95.8929 57.2898C93.4271 57.9505 91.966 60.4847 92.6271 62.9519C93.0338 64.4697 94.1491 65.6022 95.5202 66.1021C97.0847 65.7367 98.6473 65.4257 100.205 65.1698C101.436 64.0436 102.012 62.2878 101.55 60.5637L101.552 60.5604Z" fill="#F2F2F2"/>
<path d="M100.784 60.7671C101.331 62.8085 100.12 64.9071 98.0825 65.4532C96.0444 65.9993 93.9467 64.7872 93.3997 62.7457C92.8527 60.7043 94.0633 58.6057 96.1013 58.0596C98.1394 57.5135 100.237 58.7256 100.784 60.7671Z" fill="#FFF000"/>
<path d="M100.057 60.9616C100.497 62.6011 99.5263 64.2867 97.8876 64.7258C96.2489 65.1649 94.5656 64.1903 94.1263 62.5508C93.687 60.9113 94.6575 59.2257 96.2962 58.7866C97.9349 58.3475 99.6182 59.3221 100.057 60.9616Z" fill="#D700FA"/>
<path d="M97.3917 56.889C98.0528 59.3562 96.5917 61.8904 94.1259 62.5511C91.6602 63.2118 89.1277 61.7477 88.4666 59.2805C87.8056 56.8133 89.2667 54.2791 91.7324 53.6184C94.1982 52.9577 96.7307 54.4218 97.3917 56.889Z" fill="#F2F2F2"/>
<path d="M96.6236 57.0957C97.1706 59.1372 95.96 61.2358 93.9219 61.7819C91.8839 62.328 89.7862 61.1158 89.2392 59.0744C88.6922 57.0329 89.9028 54.9343 91.9408 54.3882C93.9789 53.8421 96.0765 55.0543 96.6236 57.0957Z" fill="#FFF000"/>
<path d="M95.8969 57.2902C96.3363 58.9297 95.3632 60.616 93.7271 61.0544C92.091 61.4928 90.4051 60.5189 89.9658 58.8794C89.5265 57.2399 90.497 55.5543 92.1357 55.1152C93.7743 54.6761 95.4576 55.6507 95.8969 57.2902Z" fill="#BACCCE"/>
<path d="M94.9966 47.9536C94.8889 47.5517 94.7254 47.1788 94.5258 46.8355C91.6399 47.3197 88.8154 47.9915 85.9278 48.8814C85.8993 49.3624 85.9404 49.8559 86.0715 50.3451C86.7325 52.8123 89.265 54.2764 91.7308 53.6157C94.1965 52.955 95.6576 50.4208 94.9966 47.9536Z" fill="#F2F2F2"/>
<path d="M94.2263 48.1601C94.1101 47.7264 93.9223 47.3346 93.6797 46.9858C91.362 47.4056 89.0737 47.9451 86.7549 48.6287C86.6878 49.1201 86.7059 49.631 86.842 50.1387C87.389 52.1802 89.4867 53.3923 91.5247 52.8462C93.5627 52.3002 94.7733 50.2016 94.2263 48.1601Z" fill="#FFF000"/>
<path d="M93.5021 48.3531C93.3774 47.8877 93.1509 47.4751 92.8554 47.1348C91.0862 47.4785 89.3298 47.9009 87.5577 48.3984C87.4354 48.8903 87.4281 49.4195 87.5684 49.943C88.0077 51.5825 89.691 52.5571 91.3297 52.118C92.9684 51.679 93.9389 49.9933 93.4996 48.3538L93.5021 48.3531Z" fill="#D700FA"/>
<path d="M90.7228 67.3984C93.6921 66.4838 96.6509 65.7873 99.5976 65.2727C98.7317 63.1438 96.4015 61.9401 94.1264 62.5497C91.8514 63.1593 90.5373 65.2119 90.7228 67.3984Z" fill="#F2F2F2"/>
<path d="M91.5035 67.1645C93.9393 66.4438 96.3694 65.8664 98.7894 65.4164C98.0262 63.7531 96.158 62.8309 94.3313 63.3204C92.5045 63.8099 91.4331 65.4177 91.5035 67.1645Z" fill="#FFF000"/>
<path d="M92.2539 66.9471C94.1811 66.3996 96.1052 65.9435 98.0259 65.5677C97.3679 64.3383 95.9308 63.6747 94.5266 64.0509C93.1224 64.4272 92.2845 65.6182 92.2539 66.9471Z" fill="#D700FA"/>
<path d="M95.7903 55.5038C95.2008 53.3037 93.2405 51.0996 91.1193 51.0983C90.9209 49.791 90.714 48.7921 90.2864 47.6908C87.017 48.4648 83.744 49.5034 80.2785 50.8543C78.8472 52.8816 78.2973 55.5599 79.0087 58.2149C80.2473 62.8372 84.8378 65.6233 89.2643 64.4372C90.2125 64.1831 92.1065 63.4914 92.8673 62.9503C95.6514 60.9629 96.5858 58.4622 95.7929 55.5031L95.7903 55.5038Z" fill="#FFF000"/>
<path d="M94.8951 55.6446C94.3684 53.5552 92.6252 51.7492 90.5263 51.9857C90.3483 50.3527 90.0149 49.1496 89.4548 47.8939C86.7142 48.5801 83.9604 49.454 81.0782 50.5494C79.2923 52.5414 78.517 55.368 79.261 58.1445C80.4322 62.5157 84.9218 65.1105 89.289 63.9404C90.2243 63.6897 91.0796 63.2849 91.8325 62.7657C94.5949 60.8521 95.7201 58.9295 94.8925 55.6453L94.8951 55.6446Z" fill="#D700FA"/>
<path d="M88.0317 56.4015C88.4858 58.0966 87.481 59.8396 85.7882 60.2932C84.0954 60.7468 82.3537 59.7397 81.8995 58.0446C81.4453 56.3496 82.4502 54.6066 84.143 54.153C85.8357 53.6994 87.5775 54.7065 88.0317 56.4015Z" fill="#FFF000"/>
<path d="M85.6924 59.9031C84.2083 60.3008 82.6822 59.4179 82.2838 57.9312C81.8854 56.4444 82.7656 54.9168 84.2498 54.5191C85.734 54.1215 87.2601 55.0043 87.6584 56.491C88.0568 57.9778 87.1766 59.5054 85.6924 59.9031Z" fill="white"/>
<path d="M86.2445 56.399C86.5357 57.4859 85.8904 58.6026 84.8057 58.8932C83.721 59.1839 82.6039 58.5394 82.3127 57.4526C82.0214 56.3657 82.6667 55.249 83.7514 54.9584C84.8361 54.6678 85.9532 55.3122 86.2445 56.399Z" fill="#231815"/>
<path d="M84.1608 56.3817C84.2473 56.7043 84.0546 57.0365 83.7326 57.1228C83.4105 57.2091 83.0775 57.0178 82.9911 56.6951C82.9047 56.3725 83.0973 56.0403 83.4194 55.954C83.7414 55.8677 84.0744 56.0591 84.1608 56.3817Z" fill="white"/>
<path d="M118.059 44.6396C119.513 44.1109 123.631 42.3925 124.851 41.5216C123.225 43.0823 120.143 44.9655 118.389 45.5516C117.656 45.7961 117.332 44.9052 118.059 44.6396Z" fill="#D700FA"/>
<path d="M118.211 49.2418C119.666 48.7132 122.004 47.9478 123.28 47.0816C121.674 48.7163 120.295 49.5677 118.541 50.1538C117.809 50.3983 117.485 49.5074 118.211 49.2418Z" fill="#D700FA"/>
<path d="M121.927 58.0632C123.45 57.7911 127.876 57.2229 129.368 57.3675C127.177 56.8293 123.569 56.739 121.757 57.1083C121 57.2629 121.164 58.1966 121.927 58.0632Z" fill="#D700FA"/>
<path d="M119.759 54.0028C121.283 53.7333 123.691 53.2271 125.229 53.3393C123.021 52.7263 121.401 52.6786 119.589 53.0479C118.832 53.2025 118.997 54.1362 119.759 54.0028Z" fill="#D700FA"/>
<path d="M66.8611 51.0115C75.2824 46.9355 83.6531 44.9278 91.9282 44.2948C100.206 43.6612 107.702 41.9757 116.315 37.7604C114.668 34.591 109.46 31.1399 107.598 30.148C108.717 28.3573 111.498 22.7628 111.34 19.1943C102.675 23.2139 94.2572 25.356 85.9821 25.989C77.7044 26.6227 70.6033 28.5453 61.8864 32.4455L66.8611 51.0115Z" fill="#F2F2F2"/>
<path d="M102.047 26.8489C101.639 25.3257 100.534 24.1819 99.1842 23.6792C97.5845 24.1192 95.993 24.4974 94.408 24.8172C93.3714 25.9368 92.9142 27.5699 93.3458 29.1803C94.0068 31.6475 96.4904 33.1247 98.8943 32.4806C101.298 31.8365 102.71 29.3154 102.049 26.8482L102.047 26.8489Z" fill="#F2F2F2"/>
<path d="M101.298 27.0497C101.845 29.0911 100.675 31.1787 98.6863 31.7116C96.6972 32.2446 94.6407 31.0214 94.0937 28.98C93.5467 26.9385 94.7161 24.851 96.7052 24.318C98.6943 23.785 100.751 25.0082 101.298 27.0497Z" fill="#FFF000"/>
<path d="M100.588 27.2392C101.027 28.8787 100.088 30.556 98.4903 30.9841C96.8929 31.4121 95.2405 30.4293 94.8012 28.7897C94.3619 27.1502 95.3015 25.4729 96.8989 25.0448C98.4964 24.6168 100.149 25.5996 100.588 27.2392Z" fill="#00A8E3"/>
<path d="M104.441 35.7823C105.102 38.2494 103.689 40.7705 101.286 41.4146C98.8817 42.0588 96.3981 40.5815 95.737 38.1144C95.076 35.6472 96.4882 33.1261 98.8921 32.482C101.296 31.8378 103.779 33.3151 104.441 35.7823Z" fill="#F2F2F2"/>
<path d="M103.691 35.9837C104.238 38.0252 103.068 40.1127 101.079 40.6457C99.0901 41.1787 97.0337 39.9555 96.4867 37.914C95.9396 35.8726 97.109 33.785 99.0981 33.2521C101.087 32.7191 103.144 33.9423 103.691 35.9837Z" fill="#FFF000"/>
<path d="M102.982 36.1724C103.421 37.8119 102.482 39.4893 100.884 39.9173C99.287 40.3453 97.6346 39.3625 97.1953 37.723C96.756 36.0835 97.6956 34.4061 99.293 33.9781C100.89 33.55 102.543 34.5329 102.982 36.1724Z" fill="#00A8E3"/>
<path d="M100.349 32.0919C101.01 34.5591 99.5982 37.0801 97.1943 37.7243C94.7904 38.3684 92.3069 36.8912 91.6458 34.424C90.9847 31.9568 92.3969 29.4357 94.8008 28.7916C97.2047 28.1475 99.6883 29.6247 100.349 32.0919Z" fill="#F2F2F2"/>
<path d="M99.5993 32.2934C100.146 34.3349 98.977 36.4224 96.9879 36.9554C94.9988 37.4884 92.9423 36.2652 92.3953 34.2237C91.8483 32.1823 93.0177 30.0947 95.0068 29.5618C96.9959 29.0288 99.0523 30.252 99.5993 32.2934Z" fill="#FFF000"/>
<path d="M98.8909 32.4821C99.3302 34.1216 98.3906 35.799 96.7931 36.227C95.1957 36.655 93.5433 35.6722 93.104 34.0327C92.6647 32.3932 93.6043 30.7158 95.2017 30.2877C96.7992 29.8597 98.4516 30.8426 98.8909 32.4821Z" fill="#204C8C"/>
<path d="M98.0945 23.9662C95.1424 24.7289 92.2122 25.2844 89.3029 25.6502C90.0285 28.0179 92.45 29.4182 94.7997 28.7886C96.9383 28.2156 98.2909 26.1526 98.0952 23.9688L98.0945 23.9662Z" fill="#F2F2F2"/>
<path d="M97.3301 24.1612C94.9006 24.7612 92.4853 25.2185 90.0852 25.547C90.7303 27.4289 92.6899 28.5278 94.594 28.0177C96.3228 27.5544 97.4287 25.9203 97.3327 24.1605L97.3301 24.1612Z" fill="#FFF000"/>
<path d="M96.6001 24.3363C94.665 24.7924 92.7422 25.1603 90.8271 25.4438C91.3918 26.8712 92.9166 27.687 94.3981 27.29C95.7379 26.931 96.6104 25.6939 96.6001 24.3363Z" fill="#00A8E3"/>
<path d="M102.742 41.0216C102.081 38.5544 99.5974 37.0772 97.1935 37.7213C94.7896 38.3654 93.3774 40.8865 94.0385 43.3537C94.1065 43.6075 94.1982 43.8466 94.3013 44.0768C97.2082 43.7741 100.041 43.3183 102.881 42.6424C102.926 42.1115 102.888 41.5663 102.742 41.0216Z" fill="#F2F2F2"/>
<path d="M101.989 41.2241C101.442 39.1827 99.3858 37.9595 97.3967 38.4924C95.4076 39.0254 94.2383 41.113 94.7853 43.1544C94.8653 43.4532 94.9786 43.7318 95.1175 43.9922C97.4645 43.7233 99.7656 43.3447 102.069 42.8323C102.149 42.315 102.135 41.7688 101.99 41.2267L101.989 41.2241Z" fill="#FFF000"/>
<path d="M101.283 41.4127C100.844 39.7732 99.1919 38.7929 97.5944 39.221C95.997 39.649 95.0574 41.3264 95.496 42.9632C95.5874 43.3044 95.7312 43.6144 95.9158 43.8909C97.7246 43.6642 99.5105 43.3727 101.291 42.9978C101.418 42.4958 101.425 41.9528 101.28 41.4133L101.283 41.4127Z" fill="#00A8E3"/>
<path d="M100.348 32.0908C101.009 34.558 99.597 37.079 97.1931 37.7232C94.7892 38.3673 92.3057 36.8901 91.6446 34.4229C90.9835 31.9557 92.3957 29.4346 94.7996 28.7905C97.2035 28.1464 99.687 29.6236 100.348 32.0908Z" fill="#F2F2F2"/>
<path d="M99.5953 32.2931C100.142 34.3346 98.973 36.4221 96.9839 36.9551C94.9948 37.4881 92.9384 36.2649 92.3913 34.2234C91.8443 32.182 93.0137 30.0944 95.0028 29.5615C96.9919 29.0285 99.0483 30.2517 99.5953 32.2931Z" fill="#FFF000"/>
<path d="M98.8896 32.4806C99.3289 34.1201 98.3893 35.7975 96.7918 36.2255C95.1944 36.6536 93.542 35.6707 93.1027 34.0312C92.6634 32.3917 93.603 30.7143 95.2004 30.2863C96.7979 29.8582 98.4503 30.8411 98.8896 32.4806Z" fill="#00A8E3"/>
<path d="M103.11 24.6441C104.526 24.1259 108.541 22.435 109.727 21.5731C108.148 23.1214 105.148 24.9824 103.438 25.5569C102.723 25.7965 102.402 24.9049 103.11 24.6441Z" fill="#00A8E3"/>
<path d="M103.29 29.2388C104.706 28.7205 106.987 27.9703 108.227 27.1138C106.67 28.7354 105.325 29.5778 103.615 30.1522C102.9 30.3919 102.578 29.5003 103.287 29.2395L103.29 29.2388Z" fill="#00A8E3"/>
<path d="M106.974 38.0686C108.459 37.8095 112.782 37.2663 114.239 37.4198C112.098 36.8684 108.569 36.7568 106.801 37.1144C106.062 37.2641 106.23 38.1971 106.974 38.0686Z" fill="#00A8E3"/>
<path d="M104.83 34.0018C106.315 33.7427 108.666 33.2516 110.168 33.3735C108.009 32.7475 106.425 32.69 104.657 33.0476C103.918 33.1974 104.085 34.1304 104.83 34.0018Z" fill="#00A8E3"/>
<path d="M89.5044 25.6234C90.6527 25.4773 91.806 25.2986 92.9619 25.0881C94.5058 25.4907 95.8078 26.712 96.2592 28.3964C96.9203 30.8636 95.5081 33.3847 93.1042 34.0288C90.7003 34.6729 88.2168 33.1957 87.5557 30.7285C87.015 28.7109 87.8618 26.6559 89.5044 25.6234Z" fill="#F2F2F2"/>
<path d="M95.5114 28.6001C96.0584 30.6415 94.889 32.7291 92.9 33.2621C90.9109 33.795 88.8544 32.5718 88.3074 30.5304C87.7604 28.4889 88.9298 26.4014 90.9188 25.8684C92.9079 25.3354 94.9644 26.5586 95.5114 28.6001Z" fill="#FFF000"/>
<path d="M94.8037 28.7904C95.243 30.4299 94.3034 32.1073 92.7059 32.5353C91.1085 32.9634 89.4587 31.9798 89.0194 30.3403C88.5801 28.7008 89.5197 27.0234 91.1145 26.5961C92.7094 26.1688 94.3644 27.1509 94.8037 28.7904Z" fill="#00A8E3"/>
<path d="M98.6534 37.3315C99.3144 39.7987 97.9022 42.3198 95.4983 42.9639C93.0944 43.608 90.6109 42.1308 89.9498 39.6636C89.2888 37.1964 90.7009 34.6753 93.1048 34.0312C95.5087 33.3871 97.9923 34.8643 98.6534 37.3315Z" fill="#F2F2F2"/>
<path d="M97.9032 37.5327C98.4502 39.5741 97.2809 41.6617 95.2918 42.1947C93.3027 42.7276 91.2462 41.5044 90.6992 39.463C90.1522 37.4215 91.3216 35.334 93.3107 34.801C95.2997 34.2681 97.3562 35.4912 97.9032 37.5327Z" fill="#FFF000"/>
<path d="M97.1947 37.7213C97.634 39.3608 96.6945 41.0382 95.097 41.4662C93.4996 41.8943 91.8497 40.9107 91.4104 39.2712C90.9711 37.6317 91.9107 35.9543 93.5056 35.527C95.1005 35.0997 96.7554 36.0818 97.1947 37.7213Z" fill="#00A8E3"/>
<path d="M94.5656 33.6411C95.2267 36.1083 93.8145 38.6294 91.4106 39.2735C89.0067 39.9176 86.5232 38.4404 85.8621 35.9732C85.201 33.506 86.6132 30.985 89.0171 30.3409C91.421 29.6967 93.9046 31.1739 94.5656 33.6411Z" fill="#F2F2F2"/>
<path d="M93.8156 33.8422C94.3626 35.8837 93.1933 37.9712 91.2042 38.5042C89.2151 39.0372 87.1586 37.814 86.6116 35.7725C86.0646 33.7311 87.234 31.6435 89.2231 31.1105C91.2121 30.5776 93.2686 31.8008 93.8156 33.8422Z" fill="#FFF000"/>
<path d="M93.1077 34.0321C93.547 35.6716 92.6074 37.349 91.01 37.777C89.4125 38.2051 87.7601 37.2222 87.3208 35.5827C86.8815 33.9432 87.8211 32.2658 89.4186 31.8378C91.016 31.4098 92.6684 32.3926 93.1077 34.0321Z" fill="#204C8C"/>
<path d="M92.2754 25.2161C90.1676 25.574 88.0685 25.8303 85.9821 25.9898C85.0835 26.0577 84.2041 26.1459 83.3301 26.244C83.3537 26.507 83.3973 26.773 83.4682 27.0375C84.1293 29.5047 86.6128 30.9819 89.0167 30.3378C91.2557 29.7378 92.6305 27.5102 92.2773 25.2128L92.2754 25.2161Z" fill="#F2F2F2"/>
<path d="M91.5084 25.3396C89.659 25.6311 87.815 25.8503 85.9829 25.9898C85.3495 26.0376 84.7248 26.0973 84.1067 26.1609C84.1254 26.3854 84.1585 26.6118 84.2194 26.8392C84.7664 28.8807 86.8229 30.1039 88.812 29.5709C90.6619 29.0752 91.7987 27.2373 91.511 25.339L91.5084 25.3396Z" fill="#FFF000"/>
<path d="M90.7849 25.4513C89.1779 25.6892 87.5774 25.8686 85.9833 25.9897C85.5964 26.0197 85.2135 26.0542 84.8314 26.0914C84.8479 26.2769 84.8762 26.4649 84.9258 26.65C85.3651 28.2895 87.0175 29.2723 88.615 28.8443C90.099 28.4467 91.0109 26.9751 90.7856 25.454L90.7849 25.4513Z" fill="#00A8E3"/>
<path d="M88.207 44.6765C89.4509 44.5161 90.6923 44.3875 91.9319 44.2935C93.6884 44.1601 95.4112 43.9734 97.1159 43.7291C97.1104 43.348 97.0639 42.958 96.9605 42.5719C96.2994 40.1047 93.8159 38.6275 91.412 39.2716C89.0081 39.9158 87.6902 42.284 88.207 44.6765Z" fill="#F2F2F2"/>
<path d="M88.9789 44.5801C89.9646 44.4662 90.9468 44.3702 91.9314 44.2934C93.4227 44.1801 94.8845 44.0293 96.3358 43.8389C96.3414 43.4888 96.3059 43.1298 96.2103 42.7728C95.6633 40.7314 93.6068 39.5082 91.6177 40.0411C89.6287 40.5741 88.5112 42.5769 88.9789 44.5801Z" fill="#FFF000"/>
<path d="M89.7122 44.5028C90.4531 44.4233 91.1935 44.3525 91.9324 44.2962C93.1719 44.2022 94.3927 44.0791 95.6045 43.933C95.6193 43.6172 95.5898 43.2907 95.5027 42.9654C95.0634 41.3259 93.4117 40.3457 91.8142 40.7738C90.2168 41.2018 89.2828 42.8692 89.7155 44.5048L89.7122 44.5028Z" fill="#00A8E3"/>
<path d="M94.5655 33.6409C95.2266 36.1081 93.8144 38.6292 91.4105 39.2733C89.0066 39.9174 86.5231 38.4402 85.862 35.973C85.2009 33.5058 86.6131 30.9847 89.017 30.3406C91.4209 29.6965 93.9045 31.1737 94.5655 33.6409Z" fill="#F2F2F2"/>
<path d="M93.8155 33.842C94.3625 35.8835 93.1932 37.971 91.2041 38.504C89.215 39.037 87.1585 37.8138 86.6115 35.7723C86.0645 33.7309 87.2339 31.6433 89.223 31.1104C91.212 30.5774 93.2685 31.8006 93.8155 33.842Z" fill="#FFF000"/>
<path d="M93.1078 34.0319C93.5471 35.6714 92.6076 37.3488 91.0101 37.7768C89.4127 38.2048 87.7603 37.222 87.321 35.5825C86.8816 33.943 87.8212 32.2656 89.4187 31.8376C91.0161 31.4095 92.6685 32.3924 93.1078 34.0319Z" fill="#00A8E3"/>
<path d="M90.4757 29.9497C91.1368 32.4169 89.7246 34.9379 87.3207 35.5821C84.9168 36.2262 82.4333 34.749 81.7722 32.2818C81.1111 29.8146 82.5233 27.2935 84.9272 26.6494C87.3311 26.0053 89.8147 27.4825 90.4757 29.9497Z" fill="#F2F2F2"/>
<path d="M89.7228 30.1521C90.2698 32.1935 89.1005 34.2811 87.1114 34.8141C85.1223 35.347 83.0658 34.1238 82.5188 32.0824C81.9718 30.0409 83.1412 27.9534 85.1302 27.4204C87.1193 26.8874 89.1758 28.1106 89.7228 30.1521Z" fill="#FFF000"/>
<path d="M89.0143 30.3408C89.4536 31.9803 88.514 33.6577 86.9166 34.0857C85.3191 34.5137 83.6668 33.5309 83.2274 31.8914C82.7881 30.2519 83.7277 28.5745 85.3252 28.1465C86.9226 27.7184 88.575 28.7013 89.0143 30.3408Z" fill="#00A8E3"/>
<path d="M92.8697 38.8796C93.5307 41.3468 92.1186 43.8679 89.7147 44.512C87.3107 45.1561 84.8272 43.6789 84.1661 41.2117C83.5051 38.7445 84.9172 36.2234 87.3212 35.5793C89.7251 34.9352 92.2086 36.4124 92.8697 38.8796Z" fill="#F2F2F2"/>
<path d="M92.1169 39.0821C92.6639 41.1235 91.4945 43.2111 89.5055 43.744C87.5164 44.277 85.4599 43.0538 84.9129 41.0124C84.3659 38.9709 85.5353 36.8834 87.5243 36.3504C89.5134 35.8174 91.5699 37.0406 92.1169 39.0821Z" fill="#FFF000"/>
<path d="M91.4084 39.2707C91.8477 40.9102 90.9081 42.5876 89.3107 43.0156C87.7132 43.4437 86.0608 42.4608 85.6215 40.8213C85.1822 39.1818 86.1218 37.5044 87.7193 37.0764C89.3167 36.6483 90.9691 37.6312 91.4084 39.2707Z" fill="#00A8E3"/>
<path d="M88.7791 35.1909C89.4402 37.6581 88.028 40.1791 85.6241 40.8233C83.2202 41.4674 80.7367 39.9902 80.0756 37.523C79.4145 35.0558 80.8267 32.5347 83.2306 31.8906C85.6345 31.2465 88.118 32.7237 88.7791 35.1909Z" fill="#F2F2F2"/>
<path d="M88.0274 35.3925C88.5744 37.434 87.4051 39.5215 85.416 40.0545C83.4269 40.5874 81.3704 39.3643 80.8234 37.3228C80.2764 35.2814 81.4458 33.1938 83.4349 32.6608C85.4239 32.1279 87.4804 33.3511 88.0274 35.3925Z" fill="#FFF000"/>
<path d="M87.3178 35.5819C87.7571 37.2214 86.8175 38.8988 85.22 39.3268C83.6226 39.7549 81.9702 38.772 81.5309 37.1325C81.0916 35.493 82.0312 33.8156 83.6286 33.3876C85.2261 32.9596 86.8785 33.9424 87.3178 35.5819Z" fill="#204C8C"/>
<path d="M77.5275 27.178C77.5083 27.6422 77.5521 28.1151 77.6797 28.5911C78.3408 31.0583 80.8243 32.5355 83.2282 31.8914C85.6321 31.2473 87.0443 28.7262 86.3832 26.259C86.3563 26.1585 86.3223 26.0628 86.2903 25.9637C86.1874 25.9714 86.0827 25.9824 85.9798 25.9902C83.0568 26.2122 80.2784 26.6024 77.5275 27.178Z" fill="#F2F2F2"/>
<path d="M83.0246 31.1199C85.0136 30.5869 86.183 28.4993 85.636 26.4579C85.597 26.3124 85.5477 26.1698 85.494 26.0311C83.0276 26.2357 80.6617 26.5579 78.3209 27.015C78.278 27.463 78.3087 27.9281 78.432 28.3882C78.979 30.4296 81.0355 31.6528 83.0246 31.1199Z" fill="#FFF000"/>
<path d="M82.8294 30.3899C84.4268 29.9619 85.3664 28.2845 84.9271 26.645C84.8754 26.452 84.8045 26.2697 84.7221 26.0963C82.7963 26.2778 80.9259 26.5324 79.0756 26.8723C79.005 27.2994 79.0205 27.7487 79.1402 28.1956C79.5795 29.8351 81.2319 30.818 82.8294 30.3899Z" fill="#00A8E3"/>
<path d="M85.6239 40.8226C83.4725 41.3991 82.1189 43.4793 82.3325 45.6781C85.3061 45.0372 88.2704 44.6086 91.2237 44.3557C91.2083 44.2776 91.1929 44.1996 91.1724 44.1229C90.5113 41.6557 88.0278 40.1785 85.6239 40.8226Z" fill="#F2F2F2"/>
<path d="M90.4418 44.4239C90.4333 44.3921 90.43 44.359 90.4208 44.3246C89.8738 42.2832 87.8173 41.06 85.8282 41.593C84.0788 42.0617 82.9641 43.735 83.0943 45.5197C85.5508 45.0202 88.0001 44.6587 90.4411 44.4212L90.4418 44.4239Z" fill="#FFF000"/>
<path d="M89.7077 44.5003C89.2621 42.8682 87.617 41.8919 86.0247 42.3185C84.6514 42.6865 83.7684 43.9774 83.825 45.3737C85.7924 44.9967 87.7534 44.7094 89.7103 44.4996L89.7077 44.5003Z" fill="#00A8E3"/>
<path d="M88.7794 35.1904C89.4405 37.6576 88.0283 40.1787 85.6244 40.8228C83.2205 41.4669 80.737 39.9897 80.0759 37.5225C79.4148 35.0553 80.827 32.5342 83.2309 31.8901C85.6348 31.246 88.1183 32.7232 88.7794 35.1904Z" fill="#F2F2F2"/>
<path d="M88.0277 35.392C88.5747 37.4335 87.4053 39.521 85.4162 40.054C83.4271 40.587 81.3707 39.3638 80.8237 37.3223C80.2767 35.2809 81.446 33.1933 83.4351 32.6603C85.4242 32.1274 87.4806 33.3506 88.0277 35.392Z" fill="#FFF000"/>
<path d="M87.318 35.5814C87.7573 37.2209 86.8177 38.8983 85.2203 39.3264C83.6228 39.7544 81.9704 38.7715 81.5311 37.132C81.0918 35.4925 82.0314 33.8151 83.6289 33.3871C85.2263 32.9591 86.8787 33.9419 87.318 35.5814Z" fill="#00A8E3"/>
<path d="M84.6882 31.5C85.3493 33.9672 83.9371 36.4883 81.5332 37.1324C79.1293 37.7765 76.6458 36.2993 75.9847 33.8321C75.3236 31.3649 76.7358 28.8439 79.1397 28.1997C81.5436 27.5556 84.0271 29.0328 84.6882 31.5Z" fill="#F2F2F2"/>
<path d="M83.9381 31.7012C84.4851 33.7427 83.3158 35.8302 81.3267 36.3632C79.3376 36.8962 77.2812 35.673 76.7341 33.6315C76.1871 31.5901 77.3565 29.5025 79.3456 28.9695C81.3347 28.4366 83.3911 29.6598 83.9381 31.7012Z" fill="#FFF000"/>
<path d="M83.2297 31.8899C83.669 33.5294 82.7294 35.2068 81.1319 35.6348C79.5345 36.0629 77.8821 35.08 77.4428 33.4405C77.0035 31.801 77.9431 30.1236 79.5405 29.6956C81.138 29.2675 82.7904 30.2504 83.2297 31.8899Z" fill="#00A8E3"/>
<path d="M87.083 40.4315C86.4219 37.9644 83.9384 36.4871 81.5345 37.1313C79.1306 37.7754 77.7184 40.2965 78.3795 42.7636C78.7862 44.2815 79.8809 45.4195 81.2237 45.9269C82.7496 45.5719 84.2735 45.2713 85.7954 45.0251C86.9902 43.9085 87.5457 42.1583 87.0837 40.4342L87.083 40.4315Z" fill="#F2F2F2"/>
<path d="M86.3328 40.6327C86.8798 42.6742 85.7105 44.7617 83.7214 45.2947C81.7323 45.8277 79.6759 44.6045 79.1288 42.563C78.5818 40.5216 79.7512 38.434 81.7403 37.9011C83.7294 37.3681 85.7858 38.5913 86.3328 40.6327Z" fill="#FFF000"/>
<path d="M85.6244 40.8214C86.0637 42.4609 85.1241 44.1382 83.5266 44.5663C81.9292 44.9943 80.2768 44.0115 79.8375 42.372C79.3982 40.7325 80.3378 39.0551 81.9352 38.627C83.5327 38.199 85.1851 39.1819 85.6244 40.8214Z" fill="#00A8E3"/>
<path d="M82.9917 36.7407C83.6528 39.2079 82.2406 41.729 79.8367 42.3731C77.4328 43.0173 74.9492 41.54 74.2882 39.0728C73.6271 36.6057 75.0393 34.0846 77.4432 33.4405C79.8471 32.7963 82.3306 34.2736 82.9917 36.7407Z" fill="#F2F2F2"/>
<path d="M82.2417 36.9419C82.7887 38.9834 81.6193 41.0709 79.6302 41.6039C77.6411 42.1369 75.5847 40.9137 75.0377 38.8722C74.4907 36.8308 75.66 34.7432 77.6491 34.2103C79.6382 33.6773 81.6947 34.9005 82.2417 36.9419Z" fill="#FFF000"/>
<path d="M81.5332 37.1306C81.9725 38.7701 81.0329 40.4475 79.4355 40.8755C77.838 41.3035 76.1856 40.3207 75.7463 38.6812C75.307 37.0417 76.2466 35.3643 77.844 34.9362C79.4415 34.5082 81.0939 35.4911 81.5332 37.1306Z" fill="#00A8E3"/>
<path d="M80.599 27.8085C80.4913 27.4066 80.3305 27.033 80.1334 26.689C77.3171 27.1546 74.5621 27.8077 71.746 28.6757C71.72 29.156 71.7637 29.6487 71.8948 30.138C72.5559 32.6051 75.0394 34.0824 77.4433 33.4382C79.8472 32.7941 81.2594 30.273 80.5983 27.8059L80.599 27.8085Z" fill="#F2F2F2"/>
<path d="M79.8485 28.0091C79.7323 27.5754 79.5445 27.1836 79.3071 26.8334C77.0435 27.2387 74.8144 27.7623 72.5524 28.4308C72.4878 28.9214 72.5085 29.4317 72.6445 29.9394C73.1915 31.9809 75.248 33.2041 77.2371 32.6711C79.2262 32.1381 80.3955 30.0506 79.8485 28.0091Z" fill="#FFF000"/>
<path d="M79.1405 28.1983C79.0158 27.7329 78.7918 27.3196 78.5014 26.9779C76.7735 27.3105 75.0609 27.7212 73.3352 28.2063C73.218 28.6968 73.2159 29.2246 73.3562 29.7482C73.7955 31.3877 75.4479 32.3705 77.0453 31.9425C78.6428 31.5145 79.5823 29.8371 79.143 28.1976L79.1405 28.1983Z" fill="#00A8E3"/>
<path d="M76.542 47.1923C79.4366 46.2977 82.3225 45.6179 85.2004 45.1246C84.3422 42.9936 82.0584 41.7775 79.8375 42.3726C77.6165 42.9677 76.3488 45.0079 76.542 47.1923Z" fill="#F2F2F2"/>
<path d="M77.3037 46.9659C79.6803 46.2611 82.0485 45.7002 84.4118 45.2654C83.6563 43.6 81.8243 42.6682 80.0439 43.1452C78.2635 43.6223 77.2255 45.2211 77.3037 46.9659Z" fill="#FFF000"/>
<path d="M78.0366 46.7504C79.9174 46.2153 81.7951 45.7716 83.6669 45.409C83.0166 44.1775 81.6079 43.5063 80.2397 43.8729C78.8716 44.2394 78.0594 45.4235 78.0366 46.7504Z" fill="#00A8E3"/>
<path d="M81.4221 35.3521C80.8326 33.152 78.9058 30.9389 76.8336 30.9245C76.6326 29.6179 76.4231 28.6197 75.9981 27.5177C72.8086 28.2703 69.618 29.2868 66.2375 30.6149C64.8501 32.6305 64.3311 35.3005 65.0425 37.9555C66.281 42.5778 70.784 45.3874 75.0997 44.231C76.0247 43.9831 77.8723 43.3038 78.6099 42.7689C81.3193 40.8015 82.215 38.3112 81.4221 35.3521Z" fill="#FFF000"/>
<path d="M80.5473 35.4874C80.0206 33.398 78.3058 31.5845 76.2584 31.8071C76.0727 30.1762 75.7419 28.9724 75.1869 27.7154C72.5133 28.3836 69.829 29.2388 67.0215 30.3142C65.2897 32.2917 64.5479 35.1093 65.2919 37.8859C66.4632 42.257 70.8652 44.8754 75.1242 43.7342C76.0363 43.4898 76.8684 43.0911 77.6006 42.5775C80.2883 40.6839 81.3748 38.7716 80.5473 35.4874Z" fill="#00A8E3"/>
<path d="M73.8451 36.1998C74.2993 37.8948 73.328 39.6289 71.6764 40.0714C70.0249 40.514 68.3166 39.4979 67.8624 37.8029C67.4083 36.1078 68.3796 34.3738 70.0312 33.9312C71.6827 33.4887 73.391 34.5048 73.8451 36.1998Z" fill="#FFF000"/>
<path d="M71.5819 39.6801C70.1333 40.0683 68.6361 39.1777 68.2377 37.691C67.8393 36.2042 68.6907 34.6843 70.1393 34.2962C71.5879 33.908 73.0852 34.7986 73.4835 36.2853C73.8819 37.7721 73.0305 39.292 71.5819 39.6801Z" fill="white"/>
<path d="M70.7104 38.6699C69.6517 38.9536 68.5575 38.3027 68.2663 37.2161C67.9752 36.1296 68.5974 35.0188 69.6561 34.7351C70.7148 34.4514 71.8091 35.1023 72.1002 36.1888C72.3914 37.2754 71.7691 38.3862 70.7104 38.6699Z" fill="#231815"/>
<path d="M70.0645 36.1559C70.1509 36.4786 69.966 36.8087 69.6516 36.8929C69.3373 36.9771 69.0121 36.7837 68.9256 36.4611C68.8392 36.1385 69.0241 35.8083 69.3385 35.7241C69.6528 35.6399 69.978 35.8333 70.0645 36.1559Z" fill="white"/>
<path d="M78.8628 95.8024C87.2848 91.729 95.6548 89.7187 103.93 89.0857C112.208 88.4521 119.704 86.7666 128.317 82.5513C126.669 79.3819 121.462 75.9308 119.6 74.9389C120.719 73.1482 123.5 67.5536 123.342 63.9852C114.676 68.0048 106.259 70.1469 97.9838 70.7799C89.7061 71.4136 82.6075 73.3355 73.888 77.2363L78.8628 95.8024Z" fill="#F2F2F2"/>
<path d="M114.048 71.6396C113.64 70.1165 112.536 68.9726 111.186 68.4699C109.586 68.9099 107.995 69.2881 106.41 69.608C105.373 70.7275 104.916 72.3606 105.347 73.971C106.008 76.4382 108.492 77.9154 110.896 77.2713C113.3 76.6272 114.712 74.1061 114.051 71.6389L114.048 71.6396Z" fill="#F2F2F2"/>
<path d="M113.298 71.841C113.845 73.8824 112.676 75.97 110.687 76.503C108.698 77.0359 106.641 75.8127 106.094 73.7713C105.547 71.7298 106.716 69.6423 108.706 69.1093C110.695 68.5763 112.751 69.7995 113.298 71.841Z" fill="#FFF000"/>
<path d="M112.59 72.0296C113.029 73.6691 112.089 75.3465 110.492 75.7745C108.894 76.2026 107.242 75.2197 106.803 73.5802C106.363 71.9407 107.303 70.2633 108.9 69.8353C110.498 69.4073 112.15 70.3901 112.59 72.0296Z" fill="#FF599F"/>
<path d="M116.443 80.5709C117.104 83.0381 115.691 85.5592 113.288 86.2033C110.884 86.8475 108.4 85.3702 107.739 82.903C107.078 80.4359 108.49 77.9148 110.894 77.2707C113.298 76.6265 115.782 78.1038 116.443 80.5709Z" fill="#F2F2F2"/>
<path d="M115.693 80.7724C116.24 82.8139 115.07 84.9014 113.081 85.4344C111.092 85.9674 109.036 84.7442 108.489 82.7027C107.942 80.6613 109.111 78.5737 111.1 78.0408C113.089 77.5078 115.146 78.731 115.693 80.7724Z" fill="#FFF000"/>
<path d="M114.984 80.9611C115.423 82.6006 114.484 84.278 112.886 84.706C111.289 85.134 109.637 84.1512 109.197 82.5117C108.758 80.8722 109.697 79.1948 111.295 78.7668C112.892 78.3387 114.545 79.3216 114.984 80.9611Z" fill="#FF599F"/>
<path d="M112.351 76.8826C113.012 79.3498 111.6 81.8709 109.196 82.515C106.792 83.1591 104.309 81.6819 103.647 79.2147C102.986 76.7475 104.399 74.2264 106.802 73.5823C109.206 72.9382 111.69 74.4154 112.351 76.8826Z" fill="#F2F2F2"/>
<path d="M111.601 77.084C112.148 79.1254 110.979 81.213 108.989 81.7459C107 82.2789 104.944 81.0557 104.397 79.0143C103.85 76.9728 105.019 74.8853 107.008 74.3523C108.997 73.8193 111.054 75.0425 111.601 77.084Z" fill="#FFF000"/>
<path d="M110.892 77.2726C111.332 78.9121 110.392 80.5895 108.795 81.0175C107.197 81.4456 105.545 80.4627 105.106 78.8232C104.666 77.1837 105.606 75.5063 107.203 75.0783C108.801 74.6502 110.453 75.6331 110.892 77.2726Z" fill="#204C8C"/>
<path d="M110.097 68.7594C107.145 69.5221 104.215 70.0776 101.306 70.4434C102.031 72.8111 104.453 74.2114 106.803 73.5818C108.941 73.0088 110.294 70.9458 110.098 68.7621L110.097 68.7594Z" fill="#F2F2F2"/>
<path d="M109.334 68.9503C106.904 69.5477 104.49 70.0076 102.089 70.3361C102.735 72.218 104.694 73.317 106.598 72.8068C108.327 72.3435 109.433 70.7095 109.337 68.9496L109.334 68.9503Z" fill="#FFF000"/>
<path d="M108.602 69.127C106.666 69.5832 104.744 69.951 102.829 70.2346C103.393 71.662 104.918 72.4778 106.4 72.0808C107.739 71.7218 108.612 70.4847 108.602 69.127Z" fill="#FF599F"/>
<path d="M114.743 85.8119C114.082 83.3447 111.599 81.8675 109.195 82.5116C106.791 83.1558 105.379 85.6768 106.04 88.144C106.108 88.3979 106.2 88.6369 106.303 88.8672C109.209 88.5644 112.042 88.1087 114.882 87.4327C114.928 86.9019 114.889 86.3567 114.743 85.8119Z" fill="#F2F2F2"/>
<path d="M113.994 86.0145C113.447 83.973 111.391 82.7498 109.402 83.2828C107.412 83.8157 106.243 85.9033 106.79 87.9448C106.869 88.2409 106.983 88.5221 107.122 88.7825C109.469 88.5136 111.77 88.1351 114.074 87.62C114.153 87.1027 114.139 86.5565 113.994 86.0145Z" fill="#FFF000"/>
<path d="M113.286 86.2039C112.847 84.5643 111.195 83.5841 109.598 84.0122C108 84.4402 107.061 86.1176 107.499 87.7544C107.591 88.0956 107.735 88.4056 107.919 88.6821C109.728 88.4554 111.514 88.1639 113.294 87.7889C113.422 87.287 113.428 86.744 113.284 86.2045L113.286 86.2039Z" fill="#FF599F"/>
<path d="M112.35 76.8791C113.011 79.3463 111.599 81.8674 109.195 82.5115C106.791 83.1556 104.307 81.6784 103.646 79.2112C102.985 76.744 104.397 74.223 106.801 73.5788C109.205 72.9347 111.689 74.4119 112.35 76.8791Z" fill="#F2F2F2"/>
<path d="M111.6 77.0803C112.147 79.1218 110.977 81.2093 108.988 81.7423C106.999 82.2752 104.943 81.0521 104.396 79.0106C103.849 76.9692 105.018 74.8816 107.007 74.3486C108.996 73.8157 111.053 75.0389 111.6 77.0803Z" fill="#FFF000"/>
<path d="M110.891 77.2689C111.331 78.9084 110.391 80.5858 108.794 81.0139C107.196 81.4419 105.544 80.459 105.104 78.8195C104.665 77.18 105.605 75.5026 107.202 75.0746C108.8 74.6466 110.452 75.6294 110.891 77.2689Z" fill="#FF599F"/>
<path d="M115.115 69.4339C116.531 68.9157 120.546 67.2248 121.732 66.3629C120.153 67.9112 117.153 69.7722 115.443 70.3467C114.728 70.5863 114.406 69.6947 115.115 69.4339Z" fill="#FF599F"/>
<path d="M115.291 74.0298C116.707 73.5116 118.989 72.7613 120.228 71.9048C118.672 73.5265 117.326 74.3688 115.616 74.9433C114.902 75.1829 114.58 74.2913 115.289 74.0305L115.291 74.0298Z" fill="#FF599F"/>
<path d="M118.975 82.8596C120.461 82.6005 124.783 82.0573 126.241 82.2108C124.1 81.6595 120.571 81.5478 118.803 81.9054C118.064 82.0551 118.231 82.9882 118.975 82.8596Z" fill="#FF599F"/>
<path d="M116.833 78.7925C118.318 78.5334 120.669 78.0423 122.171 78.1643C120.012 77.5382 118.428 77.4808 116.66 77.8383C115.921 77.9881 116.088 78.9211 116.833 78.7925Z" fill="#FF599F"/>
<path d="M101.509 70.4163C102.657 70.2702 103.811 70.0915 104.966 69.881C106.51 70.2836 107.812 71.5049 108.264 73.1893C108.925 75.6565 107.513 78.1776 105.109 78.8217C102.705 79.4658 100.221 77.9886 99.5602 75.5214C99.0196 73.5038 99.8663 71.4488 101.509 70.4163Z" fill="#F2F2F2"/>
<path d="M107.512 73.3897C108.059 75.4311 106.89 77.5187 104.901 78.0517C102.912 78.5846 100.856 77.3614 100.309 75.32C99.7615 73.2785 100.931 71.191 102.92 70.658C104.909 70.125 106.965 71.3482 107.512 73.3897Z" fill="#FFF000"/>
<path d="M106.805 73.58C107.244 75.2195 106.304 76.8969 104.707 77.3249C103.11 77.7529 101.46 76.7694 101.02 75.1299C100.581 73.4904 101.521 71.813 103.116 71.3856C104.711 70.9583 106.365 71.9405 106.805 73.58Z" fill="#FF599F"/>
<path d="M110.658 82.1212C111.319 84.5884 109.906 87.1095 107.503 87.7536C105.099 88.3977 102.615 86.9205 101.954 84.4533C101.293 81.9861 102.705 79.4651 105.109 78.821C107.513 78.1768 109.996 79.654 110.658 82.1212Z" fill="#F2F2F2"/>
<path d="M109.906 82.3231C110.453 84.3645 109.284 86.4521 107.295 86.9851C105.305 87.518 103.249 86.2949 102.702 84.2534C102.155 82.212 103.324 80.1244 105.313 79.5914C107.302 79.0585 109.359 80.2816 109.906 82.3231Z" fill="#FFF000"/>
<path d="M109.196 82.5126C109.636 84.1521 108.696 85.8295 107.099 86.2575C105.501 86.6855 103.851 85.702 103.412 84.0625C102.973 82.423 103.912 80.7456 105.507 80.3183C107.102 79.8909 108.757 80.8731 109.196 82.5126Z" fill="#FF599F"/>
<path d="M106.569 78.4312C107.23 80.8984 105.817 83.4195 103.414 84.0636C101.01 84.7077 98.5261 83.2305 97.865 80.7633C97.2039 78.2961 98.6161 75.7751 101.02 75.131C103.424 74.4868 105.907 75.964 106.569 78.4312Z" fill="#F2F2F2"/>
<path d="M105.817 78.6331C106.364 80.6746 105.195 82.7621 103.205 83.2951C101.216 83.828 99.16 82.6049 98.6129 80.5634C98.0659 78.522 99.2353 76.4344 101.224 75.9014C103.213 75.3685 105.27 76.5917 105.817 78.6331Z" fill="#FFF000"/>
<path d="M102.99 82.5709C101.389 82.9888 99.7433 81.9958 99.3139 80.3531C98.8845 78.7104 99.8341 77.0399 101.435 76.622C103.036 76.2042 104.681 77.1971 105.111 78.8399C105.54 80.4826 104.591 82.153 102.99 82.5709Z" fill="#204C8C"/>
<path d="M104.28 70.0053C102.172 70.3632 100.073 70.6195 97.9866 70.7789C97.088 70.8468 96.2086 70.9351 95.3346 71.0332C95.3581 71.2962 95.4018 71.5622 95.4727 71.8267C96.1338 74.2939 98.6173 75.7711 101.021 75.1269C103.26 74.527 104.635 72.2994 104.282 70.0019L104.28 70.0053Z" fill="#F2F2F2"/>
<path d="M103.512 70.1279C101.662 70.4194 99.8182 70.6386 97.9867 70.7807C97.3533 70.8286 96.7286 70.8883 96.1105 70.9519C96.1293 71.1764 96.1623 71.4028 96.2233 71.6302C96.7703 73.6717 98.8267 74.8949 100.816 74.3619C102.666 73.8662 103.803 72.0283 103.515 70.1299L103.512 70.1279Z" fill="#FFF000"/>
<path d="M102.785 70.2399C101.178 70.4778 99.5778 70.6572 97.9837 70.7783C97.5968 70.8083 97.2139 70.8428 96.8311 70.8774C96.8476 71.0628 96.8759 71.2508 96.9255 71.4359C97.3648 73.0754 99.0172 74.0583 100.615 73.6303C102.099 73.2326 103.011 71.761 102.785 70.2399Z" fill="#FF599F"/>
<path d="M100.208 89.4687C101.452 89.3083 102.693 89.1797 103.933 89.0856C105.689 88.9522 107.412 88.7655 109.117 88.5213C109.112 88.1402 109.065 87.7502 108.962 87.3641C108.3 84.8969 105.817 83.4197 103.413 84.0638C101.009 84.7079 99.6913 87.0762 100.208 89.4687Z" fill="#F2F2F2"/>
<path d="M100.979 89.371C101.965 89.2571 102.947 89.1611 103.932 89.0843C105.423 88.971 106.885 88.8202 108.336 88.6298C108.342 88.2797 108.306 87.9207 108.211 87.5637C107.664 85.5223 105.607 84.2991 103.618 84.832C101.629 85.365 100.512 87.3678 100.979 89.371Z" fill="#FFF000"/>
<path d="M101.712 89.2926C102.453 89.2131 103.193 89.1422 103.932 89.086C105.172 88.9919 106.392 88.8689 107.604 88.7227C107.619 88.407 107.59 88.0804 107.502 87.7552C107.063 86.1157 105.411 85.1355 103.814 85.5635C102.217 85.9915 101.283 87.6589 101.715 89.2945L101.712 89.2926Z" fill="#FF599F"/>
<path d="M106.568 78.4294C107.229 80.8966 105.817 83.4177 103.413 84.0618C101.009 84.7059 98.5256 83.2287 97.8645 80.7615C97.2034 78.2943 98.6156 75.7732 101.02 75.1291C103.423 74.485 105.907 75.9622 106.568 78.4294Z" fill="#F2F2F2"/>
<path d="M105.816 78.6314C106.363 80.6728 105.194 82.7604 103.205 83.2934C101.216 83.8263 99.1595 82.6031 98.6125 80.5617C98.0655 78.5202 99.2348 76.4327 101.224 75.8997C103.213 75.3667 105.269 76.5899 105.816 78.6314Z" fill="#FFF000"/>
<path d="M105.107 78.8208C105.546 80.4603 104.607 82.1377 103.009 82.5657C101.412 82.9938 99.7592 82.0109 99.3199 80.3714C98.8806 78.7319 99.8202 77.0545 101.418 76.6265C103.015 76.1985 104.668 77.1813 105.107 78.8208Z" fill="#FF599F"/>
<path d="M102.477 74.7386C103.138 77.2058 101.726 79.7269 99.3217 80.371C96.9178 81.0151 94.4342 79.5379 93.7732 77.0707C93.1121 74.6035 94.5243 72.0825 96.9282 71.4383C99.3321 70.7942 101.816 72.2714 102.477 74.7386Z" fill="#F2F2F2"/>
<path d="M101.726 74.9398C102.273 76.9813 101.104 79.0688 99.115 79.6018C97.126 80.1348 95.0695 78.9116 94.5225 76.8701C93.9755 74.8287 95.1448 72.7411 97.1339 72.2081C99.123 71.6752 101.179 72.8984 101.726 74.9398Z" fill="#FFF000"/>
<path d="M101.018 75.1284C101.457 76.7679 100.518 78.4453 98.9203 78.8734C97.3228 79.3014 95.6704 78.3185 95.2311 76.679C94.7918 75.0395 95.7314 73.3621 97.3289 72.9341C98.9263 72.5061 100.579 73.4889 101.018 75.1284Z" fill="#FF599F"/>
<path d="M104.87 83.6705C105.531 86.1377 104.119 88.6588 101.715 89.3029C99.3113 89.947 96.8278 88.4698 96.1667 86.0026C95.5056 83.5354 96.9178 81.0143 99.3217 80.3702C101.726 79.7261 104.209 81.2033 104.87 83.6705Z" fill="#F2F2F2"/>
<path d="M104.12 83.8716C104.667 85.9131 103.498 88.0006 101.509 88.5336C99.5194 89.0666 97.463 87.8434 96.916 85.8019C96.369 83.7605 97.5383 81.6729 99.5274 81.14C101.516 80.607 103.573 81.8302 104.12 83.8716Z" fill="#FFF000"/>
<path d="M103.411 84.0603C103.851 85.6998 102.911 87.3771 101.314 87.8052C99.7163 88.2332 98.0639 87.2504 97.6246 85.6108C97.1853 83.9713 98.1249 82.294 99.7223 81.8659C101.32 81.4379 102.972 82.4207 103.411 84.0603Z" fill="#FF599F"/>
<path d="M100.78 79.9798C101.441 82.447 100.029 84.968 97.6253 85.6121C95.2214 86.2563 92.7379 84.7791 92.0768 82.3119C91.4157 79.8447 92.8279 77.3236 95.2318 76.6795C97.6357 76.0354 100.119 77.5126 100.78 79.9798Z" fill="#F2F2F2"/>
<path d="M100.03 80.1809C100.577 82.2223 99.4078 84.3099 97.4187 84.8429C95.4296 85.3758 93.3731 84.1526 92.8261 82.1112C92.2791 80.0697 93.4485 77.9822 95.4376 77.4492C97.4266 76.9162 99.4831 78.1394 100.03 80.1809Z" fill="#FFF000"/>
<path d="M99.3216 80.3696C99.761 82.0091 98.8214 83.6865 97.2239 84.1145C95.6265 84.5425 93.9741 83.5597 93.5348 81.9202C93.0955 80.2807 94.035 78.6033 95.6325 78.1753C97.2299 77.7472 98.8823 78.7301 99.3216 80.3696Z" fill="#204C8C"/>
<path d="M89.5329 71.9667C89.5137 72.431 89.5576 72.9039 89.6844 73.3773C90.3455 75.8445 92.829 77.3217 95.2329 76.6775C97.6368 76.0334 99.049 73.5124 98.3879 71.0452C98.361 70.9447 98.3271 70.8489 98.295 70.7498C98.1921 70.7575 98.0874 70.7686 97.9845 70.7763C95.0616 70.9983 92.2831 71.3885 89.5322 71.9641L89.5329 71.9667Z" fill="#F2F2F2"/>
<path d="M95.0266 75.9109C97.0157 75.378 98.1851 73.2904 97.6381 71.249C97.5991 71.1035 97.5498 70.9608 97.4961 70.8222C95.0297 71.0268 92.6638 71.3489 90.323 71.8061C90.2801 72.2541 90.3108 72.7191 90.4341 73.1793C90.9811 75.2207 93.0376 76.4439 95.0266 75.9109Z" fill="#FFF000"/>
<path d="M94.8327 75.1839C96.4302 74.7559 97.3698 73.0785 96.9305 71.439C96.8787 71.246 96.8078 71.0638 96.7254 70.8903C94.7996 71.0719 92.9299 71.3291 91.079 71.6663C91.0084 72.0934 91.0238 72.5427 91.1436 72.9896C91.5829 74.6291 93.2353 75.612 94.8327 75.1839Z" fill="#FF599F"/>
<path d="M97.6273 85.6133C95.4759 86.1898 94.1223 88.27 94.3359 90.4688C97.3095 89.8279 100.274 89.3993 103.227 89.1464C103.212 89.0684 103.196 88.9903 103.176 88.9136C102.515 86.4464 100.031 84.9692 97.6273 85.6133Z" fill="#F2F2F2"/>
<path d="M102.444 89.2154C102.436 89.1836 102.431 89.1479 102.423 89.1161C101.876 87.0747 99.8195 85.8515 97.8304 86.3845C96.081 86.8532 94.9663 88.5265 95.0965 90.3112C97.553 89.8117 100.002 89.4502 102.444 89.2154Z" fill="#FFF000"/>
<path d="M101.711 89.2948C101.266 87.6626 99.6205 86.6863 98.0282 87.113C96.6549 87.481 95.7719 88.7719 95.8284 90.1682C97.7958 89.7912 99.7568 89.5039 101.714 89.2941L101.711 89.2948Z" fill="#FF599F"/>
<path d="M100.783 79.9811C101.444 82.4483 100.032 84.9694 97.6278 85.6135C95.2239 86.2576 92.7404 84.7804 92.0793 82.3132C91.4182 79.846 92.8304 77.3249 95.2343 76.6808C97.6382 76.0367 100.122 77.5139 100.783 79.9811Z" fill="#F2F2F2"/>
<path d="M100.033 80.1825C100.58 82.224 99.4104 84.3115 97.4213 84.8445C95.4323 85.3775 93.3758 84.1543 92.8288 82.1128C92.2818 80.0714 93.4511 77.9838 95.4402 77.4509C97.4293 76.9179 99.4858 78.1411 100.033 80.1825Z" fill="#FFF000"/>
<path d="M99.3243 80.3712C99.7636 82.0107 98.824 83.6881 97.2266 84.1161C95.6291 84.5442 93.9767 83.5613 93.5374 81.9218C93.0981 80.2823 94.0377 78.6049 95.6352 78.1769C97.2326 77.7489 98.885 78.7317 99.3243 80.3712Z" fill="#FF599F"/>
<path d="M96.6916 76.2907C97.3527 78.7579 95.9405 81.279 93.5366 81.9231C91.1327 82.5672 88.6491 81.09 87.9881 78.6228C87.327 76.1556 88.7392 73.6346 91.1431 72.9905C93.547 72.3463 96.0305 73.8235 96.6916 76.2907Z" fill="#F2F2F2"/>
<path d="M95.9415 76.4922C96.4885 78.5337 95.3191 80.6212 93.33 81.1542C91.341 81.6872 89.2845 80.464 88.7375 78.4225C88.1905 76.3811 89.3598 74.2935 91.3489 73.7606C93.338 73.2276 95.3945 74.4508 95.9415 76.4922Z" fill="#FFF000"/>
<path d="M95.233 76.6809C95.6723 78.3204 94.7327 79.9978 93.1353 80.4259C91.5378 80.8539 89.8854 79.871 89.4461 78.2315C89.0068 76.592 89.9464 74.9146 91.5439 74.4866C93.1413 74.0586 94.7937 75.0414 95.233 76.6809Z" fill="#FF599F"/>
<path d="M99.0852 85.223C98.4241 82.7558 95.9406 81.2786 93.5367 81.9228C91.1328 82.5669 89.7206 85.088 90.3817 87.5551C90.7884 89.073 91.8831 90.211 93.2259 90.7184C94.7518 90.3634 96.2757 90.0628 97.7976 89.8166C98.9924 88.7 99.5479 86.9498 99.0852 85.223Z" fill="#F2F2F2"/>
<path d="M98.3351 85.4245C98.8821 87.4659 97.7127 89.5535 95.7236 90.0865C93.7346 90.6194 91.6781 89.3962 91.1311 87.3548C90.5841 85.3133 91.7534 83.2258 93.7425 82.6928C95.7316 82.1598 97.7881 83.383 98.3351 85.4245Z" fill="#FFF000"/>
<path d="M97.6266 85.6131C98.0659 87.2526 97.1263 88.93 95.5289 89.358C93.9314 89.7861 92.279 88.8032 91.8397 87.1637C91.4004 85.5242 92.34 83.8468 93.9375 83.4188C95.5349 82.9908 97.1873 83.9736 97.6266 85.6131Z" fill="#FF599F"/>
<path d="M94.999 81.5294C95.6601 83.9966 94.2479 86.5177 91.844 87.1618C89.4401 87.806 86.9566 86.3287 86.2955 83.8615C85.6344 81.3944 87.0466 78.8733 89.4505 78.2292C91.8544 77.585 94.3379 79.0623 94.999 81.5294Z" fill="#F2F2F2"/>
<path d="M94.2464 81.7322C94.7934 83.7736 93.624 85.8612 91.6349 86.3941C89.6459 86.9271 87.5894 85.7039 87.0424 83.6625C86.4954 81.621 87.6647 79.5335 89.6538 79.0005C91.6429 78.4675 93.6994 79.6907 94.2464 81.7322Z" fill="#FFF000"/>
<path d="M93.5379 81.9209C93.9772 83.5604 93.0376 85.2377 91.4402 85.6658C89.8427 86.0938 88.1903 85.111 87.751 83.4714C87.3117 81.8319 88.2513 80.1546 89.8488 79.7265C91.4462 79.2985 93.0986 80.2814 93.5379 81.9209Z" fill="#BACCCE"/>
<path d="M92.6041 72.5987C92.4964 72.1967 92.3356 71.8232 92.1385 71.4792C89.3222 71.9447 86.5673 72.5979 83.7518 73.4685C83.7259 73.9488 83.7695 74.4416 83.9006 74.9308C84.5617 77.398 87.0452 78.8752 89.4491 78.2311C91.853 77.5869 93.2652 75.0659 92.6041 72.5987Z" fill="#F2F2F2"/>
<path d="M91.8521 72.7998C91.7359 72.3661 91.5507 71.9736 91.3107 71.6242C89.0471 72.0294 86.818 72.553 84.556 73.2215C84.4914 73.7121 84.5121 74.2224 84.6481 74.7301C85.1951 76.7716 87.2516 77.9948 89.2407 77.4618C91.2298 76.9288 92.3991 74.8413 91.8521 72.7998Z" fill="#FFF000"/>
<path d="M91.1427 72.9898C91.018 72.5244 90.794 72.1111 90.5036 71.7694C88.7757 72.102 87.0631 72.5127 85.3374 72.9978C85.2203 73.4883 85.2181 74.0161 85.3584 74.5397C85.7977 76.1792 87.4501 77.162 89.0475 76.734C90.645 76.306 91.5846 74.6286 91.1453 72.9891L91.1427 72.9898Z" fill="#FF599F"/>
<path d="M88.5446 91.9828C91.4392 91.0882 94.3252 90.4084 97.203 89.915C96.3448 87.7841 94.0603 86.5653 91.8394 87.1604C89.6184 87.7555 88.3508 89.7957 88.5439 91.9802L88.5446 91.9828Z" fill="#F2F2F2"/>
<path d="M89.3098 91.7554C91.6864 91.0506 94.0546 90.4897 96.418 90.0548C95.6624 88.3895 93.8304 87.4577 92.05 87.9347C90.2696 88.4118 89.2317 90.0106 89.3098 91.7554Z" fill="#FFF000"/>
<path d="M90.0386 91.542C91.9194 91.0068 93.7971 90.5632 95.6689 90.2005C95.0186 88.969 93.6098 88.2978 92.2417 88.6644C90.8736 89.031 90.0614 90.2151 90.0386 91.542Z" fill="#FF599F"/>
<path d="M93.4244 80.141C92.8349 77.9409 90.9081 75.7278 88.8359 75.7134C88.6349 74.4068 88.4254 73.4086 88.0003 72.3066C84.8109 73.0592 81.6203 74.0757 78.2398 75.4038C76.8523 77.4194 76.3334 80.0894 77.0448 82.7444C78.2833 87.3667 82.7863 90.1762 87.102 89.0198C88.0269 88.772 89.8746 88.0927 90.6122 87.5578C93.3216 85.5904 94.2173 83.1 93.4244 80.141Z" fill="#FFF000"/>
<path d="M92.5482 80.2765C92.0215 78.1871 90.3067 76.3736 88.2593 76.5962C88.0736 74.9653 87.7428 73.7616 87.1878 72.5045C84.5142 73.1727 81.8307 74.0306 79.0225 75.1033C77.2907 77.0809 76.5489 79.8984 77.2929 82.675C78.4641 87.0462 82.8661 89.6645 87.1251 88.5233C88.0372 88.2789 88.8693 87.8802 89.6016 87.3666C92.2893 85.4731 93.3758 83.5607 92.5482 80.2765Z" fill="#FF599F"/>
<path d="M85.8468 80.9907C86.301 82.6857 85.3296 84.4198 83.6781 84.8623C82.0265 85.3049 80.3183 84.2888 79.8641 82.5938C79.4099 80.8987 80.3813 79.1647 82.0328 78.7221C83.6844 78.2796 85.3926 79.2957 85.8468 80.9907Z" fill="#FFF000"/>
<path d="M85.4872 81.0793C85.8854 82.5654 85.0336 84.0861 83.5856 84.474C82.1376 84.862 80.6396 83.971 80.2414 82.4849C79.8431 80.9988 80.6957 79.4808 82.1437 79.0928C83.5917 78.7048 85.089 79.5931 85.4872 81.0793Z" fill="white"/>
<path d="M82.2628 83.5286C81.1655 83.5551 80.2434 82.6665 80.2033 81.5438C80.1631 80.4211 81.02 79.4895 82.1173 79.463C83.2146 79.4365 84.1366 80.3251 84.1768 81.4478C84.217 82.5705 83.36 83.5021 82.2628 83.5286Z" fill="#231815"/>
<path d="M82.0661 80.9466C82.1525 81.2692 81.9676 81.5993 81.6533 81.6836C81.3389 81.7678 81.0137 81.5743 80.9272 81.2517C80.8408 80.9291 81.0257 80.599 81.3401 80.5148C81.6544 80.4305 81.9796 80.624 82.0661 80.9466Z" fill="white"/>
<path d="M39.2517 33.5135C38.778 31.7456 36.9446 30.7008 35.1566 31.1799C33.3687 31.659 32.3033 33.4805 32.777 35.2484L65.2256 156.349C65.6993 158.116 67.5328 159.161 69.3207 158.682C71.1087 158.203 72.1741 156.382 71.7004 154.614L39.2517 33.5135Z" fill="#BACCCE"/>
</svg>
