<svg width="161" height="160" viewBox="0 0 161 160" fill="none" xmlns="http://www.w3.org/2000/svg">
<g clip-path="url(#clip0_526_92668)">
<circle cx="80.2785" cy="80.0012" r="102.45" fill="#FEF0FF"/>
<path d="M35.5317 40.513C35.058 38.7451 33.2246 37.7003 31.4366 38.1794C29.6486 38.6585 28.5832 40.48 29.0569 42.2479L61.5056 163.348C61.9793 165.116 63.8128 166.161 65.6007 165.682C67.3887 165.203 68.4541 163.381 67.9804 161.613L35.5317 40.513Z" fill="#BACCCE"/>
<path d="M126.379 55.531C127.742 55.6779 128.21 57.4249 127.104 58.2335L50.8292 113.964C49.9782 114.585 48.7681 114.159 48.4954 113.141L30.8491 47.2841C30.5763 46.266 31.4109 45.2915 32.4588 45.4045L126.379 55.531Z" fill="#FF7600" stroke="#CDCDCD"/>
</g>
<defs>
<clipPath id="clip0_526_92668">
<rect x="0.279297" width="160" height="160" rx="80" fill="white"/>
</clipPath>
</defs>
</svg>
