<svg width="161" height="160" viewBox="0 0 161 160" fill="none" xmlns="http://www.w3.org/2000/svg">
<g clip-path="url(#clip0_526_92592)">
<circle cx="80.1418" cy="80.0012" r="102.45" fill="#FEF0FF"/>
<path d="M35.393 40.513C34.9193 38.7451 33.0859 37.7003 31.2979 38.1794C29.51 38.6585 28.4446 40.48 28.9183 42.2479L61.3669 163.348C61.8406 165.116 63.6741 166.161 65.462 165.682C67.25 165.203 68.3154 163.381 67.8417 161.613L35.393 40.513Z" fill="#BACCCE"/>
<mask id="mask0_526_92592" style="mask-type:luminance" maskUnits="userSpaceOnUse" x="29" y="23" width="104" height="88">
<path d="M32.889 45.0001C30.7198 45.5813 29.4337 47.8483 30.0238 50.0506L45.4821 107.742C46.0742 109.952 48.3195 111.264 50.4887 110.683L129.892 89.4071C132.068 88.8238 133.347 86.5588 132.757 84.3565L117.299 26.6654C116.706 24.4556 114.461 23.1429 112.292 23.7241L32.889 45.0001Z" fill="white"/>
</mask>
<g mask="url(#mask0_526_92592)">
<path d="M127.939 66.3746L40.6641 89.7598L43.6085 100.749L130.883 77.3634L127.939 66.3746Z" fill="#2C5EFA"/>
<path d="M124.995 55.3863L37.7207 78.7715L40.6651 89.7603L127.94 66.3751L124.995 55.3863Z" fill="#2FAC4C"/>
<path d="M130.882 77.3629L43.6074 100.748L46.5519 111.737L133.827 88.3516L130.882 77.3629Z" fill="#7416A7"/>
<path d="M116.228 22.6695L28.9531 46.0547L31.8286 56.7862L119.103 33.401L116.228 22.6695Z" fill="#F6022D"/>
<path d="M122.048 44.3902L34.7734 67.7754L37.7179 78.7642L124.993 55.379L122.048 44.3902Z" fill="#FBE12B"/>
<path d="M119.105 33.4L31.8301 56.7852L34.7745 67.7739L122.049 44.3888L119.105 33.4Z" fill="#F77316"/>
</g>
</g>
<defs>
<clipPath id="clip0_526_92592">
<rect x="0.140625" width="160" height="160" rx="80" fill="white"/>
</clipPath>
</defs>
</svg>
