<svg width="301" height="225" viewBox="0 0 301 225" fill="none" xmlns="http://www.w3.org/2000/svg">
<g clip-path="url(#clip0_834_268371)">
<g clip-path="url(#clip1_834_268371)">
<path d="M327.877 160.536H-25.123V225.5H327.877V160.536Z" fill="#F3E0FA"/>
<path d="M303.657 215.011H-13.8818L22.5674 166.161H267.208L303.657 215.011Z" fill="#C472F7"/>
<path d="M327.877 0.5H-25.123V160.536H327.877V0.5Z" fill="#FBF0FF"/>
<path d="M153.484 26.4199H92.3135V99.8149H153.484V26.4199Z" fill="#B18DFF"/>
<path d="M149.316 30.7275H96.4834V99.8148H149.316V30.7275Z" fill="#FDEAEA"/>
<path d="M147.531 32.8184H98.2676V96.387H147.531V32.8184Z" fill="#DAD4FF"/>
<path d="M124.131 31.4316H121.672V99.8112H124.131V31.4316Z" fill="#FDEAEA"/>
<path d="M155.509 98.8457H90.2939V105.731H155.509V98.8457Z" fill="#2E106D"/>
<path d="M210.726 26.4199H149.555V99.8149H210.726V26.4199Z" fill="#B18DFF"/>
<path d="M206.557 30.7275H153.725V99.8148H206.557V30.7275Z" fill="#FDEAEA"/>
<path d="M204.768 32.8184H155.505V96.387H204.768V32.8184Z" fill="#F0E2FF"/>
<path d="M181.368 31.4316H178.909V99.8112H181.368V31.4316Z" fill="#FDEAEA"/>
<path d="M212.746 98.8457H147.531V105.731H212.746V98.8457Z" fill="#2E106D"/>
<g opacity="0.23">
<path d="M204.768 32.8184V38.8934L161.733 96.387H155.505V91.8461L199.689 32.8184H204.768Z" fill="#FDEAEA"/>
<path d="M195.041 32.8184L155.505 85.6361V78.387L189.613 32.8184H195.041Z" fill="#FDEAEA"/>
</g>
<path d="M98.9956 77.1958C98.9799 76.6231 99.0309 75.9522 99.4114 75.6372C99.7644 75.3467 100.266 75.5227 100.568 75.899C100.87 76.2754 101.016 76.799 101.153 77.3063C102.212 81.2704 103.059 85.3245 103.691 89.4277C103.781 90.0086 103.867 90.5936 103.945 91.1786C104.008 91.6204 104.208 92.3281 104.106 92.7536C103.036 91.0354 102.157 88.949 101.349 87.0181C100.533 85.0708 99.8311 83.0254 99.4114 80.8817C99.176 79.6749 99.027 78.4395 98.9956 77.1958Z" fill="#7FF3FF"/>
<path d="M104.365 78.2966C104.506 77.5357 104.675 76.7666 105.036 76.1325C105.397 75.4984 105.981 75.0198 106.601 75.0689C107.342 78.2598 106.326 81.6184 105.589 84.8134C105.083 87.0184 104.698 89.2725 104.463 91.5471C104.549 90.8762 104.212 89.9148 104.122 89.2398C104.004 88.3643 103.918 87.4807 103.863 86.593C103.757 84.8053 103.789 83.0053 103.957 81.2257C104.051 80.2398 104.185 79.2662 104.361 78.3007L104.365 78.2966Z" fill="#7FF3FF"/>
<path d="M109.284 79.4949C109.708 78.8649 110.402 78.2308 110.955 78.6727C111.441 79.0572 111.398 79.9654 111.229 80.6567C110.755 82.5958 109.786 84.269 108.833 85.9013C108.064 87.2145 107.299 88.5277 106.531 89.8408C106.158 90.479 105.813 91.244 105.377 91.8127C105.032 92.2627 104.797 91.7227 104.86 91.244C104.946 90.5772 105.213 89.8777 105.385 89.2354C105.566 88.5686 105.746 87.9058 105.942 87.2472C106.327 85.9381 106.754 84.6413 107.26 83.3977C107.825 82.0108 108.488 80.6854 109.288 79.4949H109.284Z" fill="#7FF3FF"/>
<path d="M108.821 98.8575H100.067L98.0156 89.0557H110.873L108.821 98.8575Z" fill="#841AD8"/>
<path d="M110.52 90.7493L110.873 89.0557H98.0156L98.1333 89.6161C98.5138 89.7348 99.0746 89.8984 99.7689 90.0416C101.871 90.4752 103.499 90.3729 104.287 90.3402C105.723 90.2829 107.798 90.3157 110.52 90.7493Z" fill="#2E106D"/>
<path d="M111.347 88.1436H97.3682V89.8085H111.347V88.1436Z" fill="#841AD8"/>
<path d="M162.725 85.734C162.8 84.9895 163.067 84.0731 163.776 83.9749C164.384 83.889 164.883 84.4986 165.087 85.104C165.322 85.8036 165.334 86.5604 165.338 87.3049C165.341 89.6858 165.247 92.0667 165.055 94.4354C165.028 94.7831 164.981 95.1799 164.702 95.409C164.463 95.6054 164.067 95.679 163.765 95.6545C163.165 95.6095 162.965 95.0858 162.91 94.5295C162.725 92.6558 162.619 90.7536 162.6 88.8717C162.588 87.8245 162.623 86.7772 162.725 85.7381V85.734Z" fill="#5317B5"/>
<path d="M166.722 91.1504C166.875 91.1177 167.028 91.0768 167.149 90.9745C167.326 90.8273 167.4 90.5859 167.448 90.3527C167.538 89.9273 167.573 89.4895 167.55 89.0518C167.538 88.7859 167.502 88.5159 167.546 88.25C167.589 87.9841 167.714 87.7182 167.946 87.5995C168.008 87.5668 168.079 87.5464 168.15 87.5545C168.33 87.5791 168.424 87.7918 168.475 87.9759C168.765 89.0314 168.793 90.1645 168.55 91.2323C168.518 91.3714 168.483 91.5105 168.412 91.6332C168.252 91.9155 167.946 92.0668 167.644 92.1609C166.844 92.4104 165.989 92.3614 165.157 92.3123C165.055 92.3041 164.945 92.3 164.855 92.2468C164.573 92.0832 164.569 91.5391 164.784 91.3141C164.882 91.2077 165.028 91.1954 165.161 91.2077C165.408 91.2282 165.655 91.2527 165.906 91.2445C166.181 91.2364 166.455 91.2036 166.726 91.1423L166.722 91.1504Z" fill="#5317B5"/>
<path d="M161.392 89.7306C160.894 89.3665 160.584 88.7652 160.478 88.1392C160.423 87.812 160.419 87.4806 160.419 87.1492C160.419 86.8056 160.415 86.4579 160.411 86.1142C160.411 85.7052 160.454 85.202 160.811 85.0302C160.862 85.0056 160.921 84.9892 160.972 85.0056C161.047 85.0261 161.09 85.1038 161.125 85.1733C161.368 85.6724 161.439 86.2411 161.505 86.7974C161.541 87.1165 161.576 87.4397 161.69 87.7383C161.804 88.037 162.007 88.3111 162.29 88.4338C162.4 88.4829 162.521 88.5074 162.627 88.5606C162.847 88.6792 162.98 88.9206 163.031 89.1702C163.07 89.3583 163.07 89.5547 163.059 89.747C163.051 89.8779 163.019 89.9515 162.894 89.9965C162.58 90.1111 162.215 90.0824 161.902 89.9842C161.721 89.927 161.549 89.837 161.392 89.7224V89.7306Z" fill="#5317B5"/>
<path d="M166.118 98.8617H161.894L160.905 94.1367H167.106L166.118 98.8617Z" fill="#7FF3FF"/>
<path d="M166.961 94.8322L167.106 94.1367H160.901L161.046 94.8322C161.933 94.734 162.913 94.6726 163.976 94.6726C165.059 94.6726 166.059 94.7381 166.957 94.8363L166.961 94.8322Z" fill="#2E106D"/>
<path d="M167.334 93.6953H160.592V94.5012H167.334V93.6953Z" fill="#7FF3FF"/>
<path d="M164.063 86.4789C164.055 86.3725 164.063 86.258 164.126 86.1761C164.224 86.0493 164.424 86.0657 164.545 86.1721C164.663 86.2743 164.718 86.438 164.753 86.5975C164.828 86.9248 164.84 87.2643 164.793 87.5957C164.906 87.1457 165.134 86.7243 165.44 86.3848C165.553 86.2621 165.679 86.1475 165.832 86.0902C165.985 86.033 166.169 86.0452 166.295 86.1557C166.444 86.2907 166.467 86.5321 166.393 86.7243C166.318 86.9125 166.169 87.0598 166.016 87.1866C165.75 87.4075 165.451 87.5875 165.138 87.7266C165.561 87.5139 166.083 87.7634 166.401 88.1275C166.609 88.3689 166.765 88.7452 166.577 89.0071C166.467 89.1625 166.259 89.2198 166.075 89.1871C165.891 89.1543 165.73 89.0398 165.593 88.9089C165.369 88.6961 165.193 88.4302 165.083 88.1398C165.197 88.6266 165.157 89.1543 164.973 89.6166C164.922 89.7434 164.847 89.8743 164.722 89.9152C164.51 89.9807 164.33 89.7393 164.271 89.5184C164.149 89.0725 164.243 88.5652 164.518 88.2011C164.377 88.4425 164.067 88.5652 163.812 88.4752C163.557 88.3852 163.373 88.0989 163.4 87.8166C163.408 87.7511 163.424 87.6816 163.471 87.6366C163.526 87.5875 163.6 87.5752 163.671 87.5671C163.836 87.5507 164.004 87.5425 164.169 87.5752C164.287 87.5998 164.487 87.6243 164.385 87.428C164.224 87.1171 164.083 86.843 164.059 86.4789H164.063Z" fill="#FC97C9"/>
<path d="M163.408 84.5162L163.354 85.0039L163.678 85.0425L163.731 84.5547L163.408 84.5162Z" fill="#2E106D"/>
<path d="M160.706 87.2024C160.631 87.0388 160.584 86.867 160.557 86.687L160.878 86.6338C160.902 86.7811 160.941 86.9242 161 87.0592L160.702 87.2024H160.706Z" fill="#2E106D"/>
<path d="M162.225 88.8267L161.912 88.9189L162.058 89.4583L162.371 89.3661L162.225 88.8267Z" fill="#2E106D"/>
<path d="M164.934 85.7221L164.616 85.6362C164.691 85.3498 164.808 85.0757 164.965 84.8262L165.236 85.0144C165.095 85.2312 164.993 85.4684 164.93 85.7221H164.934Z" fill="#2E106D"/>
<path d="M163.531 90.9838L163.223 91.0918L163.503 91.9645L163.812 91.8565L163.531 90.9838Z" fill="#2E106D"/>
<path d="M166.263 91.6088L165.941 91.5515C165.981 91.3143 166.047 91.0852 166.138 90.8643L166.44 90.9993C166.361 91.1956 166.302 91.4002 166.267 91.6129L166.263 91.6088Z" fill="#2E106D"/>
<path d="M168.609 89.2231L168.334 89.039C168.452 88.8426 168.616 88.679 168.809 88.5645L168.973 88.859C168.828 88.949 168.703 89.0717 168.612 89.219L168.609 89.2231Z" fill="#2E106D"/>
<path d="M167.636 88.3518C167.487 88.1022 167.369 87.8363 167.283 87.5622L167.593 87.46C167.671 87.7095 167.777 87.9509 167.911 88.1759L167.632 88.3559L167.636 88.3518Z" fill="#2E106D"/>
<path d="M168.546 92.0136C168.342 91.9768 168.13 91.9563 167.922 91.944L167.938 91.6045C168.157 91.6168 168.381 91.6413 168.596 91.6781L168.546 92.0136Z" fill="#2E106D"/>
<path d="M183.968 86.8095C183.889 86.3227 183.842 85.8032 184.026 85.345C184.211 84.8868 184.701 84.5309 185.156 84.6741C185.403 84.7518 185.591 84.9563 185.76 85.1609C186.756 86.38 187.439 87.8773 187.709 89.4523C187 86.0609 186.866 82.3586 188.376 79.2659C188.576 78.8568 188.812 78.4518 189.157 78.1654C189.502 77.8791 189.98 77.7359 190.396 77.8954C190.726 78.0223 190.965 78.3168 191.157 78.6195C192.043 80.0186 192.224 81.7736 192.193 83.4509C192.169 84.7723 192.032 86.0936 191.781 87.3904C191.836 86.1591 192.569 84.985 193.628 84.4409C193.899 84.3018 194.22 84.2036 194.491 84.3345C194.785 84.4736 194.918 84.8295 194.997 85.1568C195.275 86.3186 195.217 87.5704 194.82 88.6954C195.417 87.5132 196.589 86.6663 197.86 86.4986C198.413 86.425 199.021 86.4863 199.456 86.8545C199.868 87.2023 200.06 87.7627 200.104 88.3109C200.206 89.6282 199.566 90.88 198.837 91.9641C198.362 92.6718 197.841 93.3468 197.276 93.985C197.04 94.2468 196.793 94.5127 196.48 94.66C196.181 94.7991 195.852 94.8236 195.526 94.8482C194.299 94.9341 193.063 95.02 191.832 94.9627C190.616 94.9054 189.451 94.6559 188.286 94.3C187.631 94.0995 187.156 93.8173 186.741 93.2486C186.117 92.3895 185.548 91.4854 185.097 90.5159C184.611 89.4645 184.25 88.3477 184.03 87.2023C184.007 87.0713 183.983 86.9363 183.96 86.8054L183.968 86.8095Z" fill="#FC97C9"/>
<path d="M200.083 98.7391H184.669L183.477 89.8945H201.272L200.083 98.7391Z" fill="#5317B5"/>
<path d="M200.891 92.7091L201.268 89.8945H183.477L183.833 92.5454C189.693 93.7604 195.075 93.8177 200.891 92.705V92.7091Z" fill="#2E106D"/>
<path d="M201.602 89.8945H183.147V92.3654H201.602V89.8945Z" fill="#5317B5"/>
<path d="M188.669 81.5158L188.297 81.3931C188.509 80.6853 188.873 80.0267 189.352 79.4785L189.638 79.7526C189.199 80.2558 188.866 80.8612 188.669 81.5117V81.5158Z" fill="#333333"/>
<path d="M190.669 81.7593L190.287 81.834L190.555 83.3257L190.937 83.2511L190.669 81.7593Z" fill="#333333"/>
<path d="M188.993 84.6532L188.747 85.7988L189.126 85.8874L189.372 84.7417L188.993 84.6532Z" fill="#333333"/>
<path d="M193.098 87.8074L192.71 87.791C192.733 87.2265 192.973 86.6824 193.369 86.2979L193.636 86.5965C193.314 86.9115 193.118 87.3533 193.102 87.8115L193.098 87.8074Z" fill="#333333"/>
<path d="M197.428 88.7851L197.056 88.6624C197.209 88.1551 197.569 87.7174 198.028 87.4883L198.197 87.8524C197.836 88.0365 197.546 88.3801 197.428 88.7851Z" fill="#333333"/>
<path d="M185.854 88.3153C185.563 88.1271 185.312 87.8653 185.132 87.5625L185.461 87.3457C185.61 87.5993 185.818 87.8121 186.061 87.9716L185.854 88.3153Z" fill="#333333"/>
<path d="M190.223 88.855L189.905 88.6218L190.227 88.1514L190.545 88.3846L190.223 88.855Z" fill="#333333"/>
<g opacity="0.22">
<path d="M140.513 12.3965H133.916C133.927 13.681 133.998 15.0719 134.147 16.5488C134.245 17.5224 134.371 18.4428 134.512 19.3183C137.65 28.7274 134.904 40.1819 127.452 46.3183C119.607 53.2728 110.194 54.9092 101.957 61.8638C87.8374 73.7274 80.3852 90.5001 72.933 107.273C72.4388 108.3 71.9328 109.371 71.4033 110.443C72.3133 113.54 72.6545 117.14 73.2585 120.27C74.1175 124.704 75.7923 129.638 78.0711 134.179C93.9443 121.71 90.6889 99.4428 94.8974 80.6819C99.2119 61.8638 118.431 59.8183 132.551 50.4092C138.434 46.7274 142.749 39.7728 143.533 32.4092C144.557 25.6469 143.204 18.8888 140.513 12.3965Z" fill="#FDEAEA"/>
</g>
<g opacity="0.78">
<path d="M57.0286 169.086C64.0817 169.086 69.7993 168.15 69.7993 166.996C69.7993 165.841 64.0817 164.905 57.0286 164.905C49.9755 164.905 44.2578 165.841 44.2578 166.996C44.2578 168.15 49.9755 169.086 57.0286 169.086Z" fill="#841AD8"/>
</g>
<path d="M49.8748 166.98H65.2969L69.7957 138.74H45.376L49.8748 166.98Z" fill="#5317B5"/>
<path d="M69.074 143.273L69.7957 138.744H45.376L46.0702 143.101C53.7068 144.034 61.4806 144.533 69.078 143.273H69.074Z" fill="#2E106D"/>
<path d="M44.0107 124.095C44.2107 123.89 44.5049 123.772 44.8069 123.694C46.2189 123.326 47.7878 123.788 48.9252 124.577C50.0587 125.367 50.8393 126.451 51.5806 127.519C52.2238 128.439 52.8553 129.376 53.4554 130.329C51.812 126.214 50.1646 122.098 48.5212 117.983C47.5564 115.569 46.5837 113.119 46.3993 110.578C46.3797 110.288 46.3719 109.977 46.5523 109.727C47.0857 108.983 48.4663 109.466 49.2233 110.063C53.9496 113.777 56.1303 119.186 57.7777 124.43C58.5582 126.909 59.2524 129.458 59.5741 132.011C59.2917 120.09 54.6674 108.148 54.6752 96.1088C54.6752 94.272 54.8125 92.3575 55.9068 90.762C56.1225 90.447 56.4127 90.1279 56.8324 90.0502C57.5345 89.9152 58.115 90.492 58.4798 91.0075C60.6644 94.1002 61.7744 97.647 62.3824 101.202C63.4884 107.67 63.0099 114.244 62.5275 120.769C62.1353 126.083 61.7352 131.413 60.5585 136.642C61.6097 132.62 63.1982 128.693 65.2887 124.962C65.6574 124.307 66.0614 123.632 66.7517 123.195C67.442 122.757 68.501 122.642 69.1443 123.125C69.8973 123.69 69.7287 124.7 69.4659 125.518C68.9482 127.134 68.3128 128.722 67.5675 130.272C66.2418 133.029 64.567 135.672 62.5785 138.135C62.249 138.54 61.9235 139.174 61.4803 139.501C60.9861 139.865 59.9937 139.882 59.3701 139.89C58.6719 139.902 57.9777 139.824 57.2992 139.681C57.3149 139.812 57.3384 139.943 57.3502 140.074C57.2952 139.935 57.2403 139.796 57.1815 139.657C56.3029 139.46 55.4596 139.153 54.6909 138.761C52.5807 137.681 50.9609 136.052 49.4547 134.416C46.9876 131.737 44.6461 128.844 43.8185 125.535C43.6969 125.044 43.6263 124.483 44.0068 124.095H44.0107Z" fill="#2E106D"/>
<path d="M57.9894 93.4207C58.3071 93.8789 58.5386 94.3739 58.668 94.8894C58.7111 95.0653 58.3895 95.143 58.3424 94.963C58.2169 94.468 58.0012 93.9975 57.6992 93.5598C57.5894 93.4044 57.8796 93.2612 57.9894 93.4166V93.4207Z" fill="white"/>
<path d="M57.197 95.5117C57.2989 95.5117 57.3539 95.5772 57.3656 95.6508C57.448 96.1622 57.5304 96.6694 57.6127 97.1808C57.6245 97.2544 57.5264 97.3199 57.4441 97.3199C57.3421 97.3199 57.2872 97.2544 57.2754 97.1808C57.193 96.6694 57.1107 96.1622 57.0283 95.6508C57.0165 95.5772 57.1146 95.5117 57.197 95.5117Z" fill="white"/>
<path d="M56.6205 99.676C56.6322 99.6023 56.746 99.5614 56.8283 99.5778C56.9264 99.5983 56.9578 99.676 56.946 99.7496C56.8793 100.138 56.946 100.547 57.1303 100.907C57.1656 100.977 57.1539 101.059 57.0715 101.1C57.0009 101.132 56.8754 101.12 56.8401 101.051C56.6165 100.613 56.542 100.146 56.6244 99.676H56.6205Z" fill="white"/>
<path d="M58.9343 99.1201C59.0362 99.1201 59.0912 99.1856 59.1029 99.2592C59.1696 99.7092 59.2363 100.163 59.3069 100.613C59.3186 100.687 59.2206 100.752 59.1382 100.752C59.0362 100.752 58.9813 100.687 58.9696 100.613C58.9029 100.163 58.8362 99.7092 58.7656 99.2592C58.7538 99.1856 58.8519 99.1201 58.9343 99.1201Z" fill="white"/>
<path d="M60.7468 102.822C60.8252 102.806 60.9429 102.843 60.9547 102.92C61.0488 103.493 61.139 104.066 61.2332 104.639C61.2449 104.712 61.2096 104.79 61.1155 104.81C61.037 104.827 60.9194 104.79 60.9076 104.712L60.6291 102.994C60.6174 102.92 60.6527 102.843 60.7468 102.822Z" fill="white"/>
<path d="M58.5781 104.626C58.6604 104.606 58.7663 104.651 58.7859 104.724C58.8997 105.211 58.935 105.71 58.884 106.205C58.8762 106.283 58.8134 106.344 58.7153 106.344C58.629 106.344 58.5388 106.279 58.5467 106.205C58.5937 105.735 58.5663 105.26 58.4604 104.798C58.4447 104.724 58.4839 104.646 58.5781 104.626Z" fill="white"/>
<path d="M57.0484 106.03C57.0602 105.956 57.119 105.891 57.2171 105.891C57.2995 105.891 57.3975 105.956 57.3858 106.03C57.3308 106.439 57.3544 106.856 57.4642 107.257C57.5113 107.433 57.1896 107.507 57.1387 107.331C57.021 106.905 56.9896 106.463 57.0484 106.03Z" fill="white"/>
<path d="M60.9389 109.638V111.082C60.9389 111.262 60.6016 111.262 60.6016 111.082V109.638C60.6016 109.458 60.9389 109.458 60.9389 109.638Z" fill="white"/>
<path d="M58.8249 112.112C58.9229 112.112 58.9818 112.178 58.9935 112.251C59.0367 112.583 59.0798 112.91 59.123 113.241C59.1347 113.315 59.0367 113.38 58.9543 113.38C58.8563 113.38 58.7974 113.315 58.7857 113.241C58.7425 112.91 58.6994 112.583 58.6562 112.251C58.6445 112.178 58.7425 112.112 58.8249 112.112Z" fill="white"/>
<path d="M60.5981 117.718C60.6804 117.239 60.7628 116.756 60.8491 116.278C60.8608 116.204 60.9746 116.163 61.057 116.179C61.155 116.2 61.1864 116.278 61.1746 116.351C61.0923 116.83 61.0099 117.313 60.9236 117.791C60.9118 117.865 60.7981 117.906 60.7157 117.889C60.6177 117.869 60.5863 117.791 60.5981 117.718Z" fill="white"/>
<path d="M59.8568 119.292C59.8647 119.828 59.9235 120.36 60.0451 120.884C60.0843 121.059 59.7627 121.137 59.7196 120.957C59.5941 120.409 59.5235 119.853 59.5195 119.292C59.5195 119.112 59.8529 119.112 59.8568 119.292Z" fill="white"/>
<path d="M48.7679 111.797C48.8268 111.748 48.9484 111.736 49.0072 111.797C49.3837 112.202 49.7171 112.636 49.9956 113.094C50.0936 113.254 49.8034 113.397 49.7053 113.237C49.4386 112.804 49.1288 112.386 48.7719 111.998C48.7169 111.936 48.7013 111.859 48.7719 111.797H48.7679Z" fill="white"/>
<path d="M48.7603 113.916C48.8584 113.896 48.9329 113.941 48.9682 114.014C49.1094 114.317 49.2506 114.62 49.3918 114.918C49.4232 114.988 49.3565 115.074 49.2742 115.09C49.1761 115.111 49.1016 115.066 49.0663 114.992C48.9251 114.689 48.7839 114.387 48.6427 114.088C48.6113 114.018 48.678 113.932 48.7603 113.916Z" fill="white"/>
<path d="M52.4476 117.206C52.5065 117.157 52.6281 117.144 52.6869 117.206C53.1693 117.721 53.4949 118.331 53.6047 118.981C53.6165 119.055 53.5812 119.132 53.487 119.153C53.4086 119.169 53.2948 119.128 53.2792 119.055C53.1772 118.457 52.8948 117.881 52.4476 117.402C52.3927 117.341 52.377 117.263 52.4476 117.202V117.206Z" fill="white"/>
<path d="M50.5611 118.805L51.1181 120.425C51.1769 120.601 50.8514 120.674 50.7925 120.498C50.6082 119.958 50.4239 119.418 50.2356 118.878C50.1768 118.703 50.5023 118.629 50.5611 118.805Z" fill="white"/>
<path d="M52.4243 120.057C52.5145 120.036 52.6047 120.081 52.6322 120.155C52.7734 120.515 52.9146 120.879 53.0558 121.239C53.0832 121.313 53.0244 121.394 52.9381 121.411C52.8479 121.431 52.7577 121.386 52.7302 121.313C52.589 120.953 52.4478 120.589 52.3066 120.229C52.2792 120.155 52.338 120.073 52.4243 120.057Z" fill="white"/>
<path d="M55.5339 123.043C55.6712 123.497 55.8085 123.947 55.9497 124.401C56.0046 124.577 55.679 124.651 55.6241 124.475C55.4868 124.021 55.3496 123.571 55.2084 123.117C55.1535 122.941 55.479 122.867 55.5339 123.043Z" fill="white"/>
<path d="M50.643 115.111C50.7136 115.078 50.8391 115.091 50.8744 115.16C51.0588 115.52 51.2431 115.88 51.4236 116.24C51.4589 116.31 51.4471 116.392 51.3647 116.432C51.2941 116.465 51.1686 116.453 51.1333 116.383L50.5842 115.303C50.5489 115.234 50.5607 115.152 50.643 115.111Z" fill="white"/>
<path d="M52.9375 125.478C53.0317 125.453 53.1101 125.506 53.1454 125.576C53.4396 126.206 53.7337 126.836 54.0279 127.466C54.0632 127.535 53.9926 127.621 53.9102 127.638C53.8161 127.662 53.7377 127.609 53.7024 127.54C53.4082 126.91 53.114 126.28 52.8199 125.65C52.7846 125.58 52.8552 125.494 52.9375 125.478Z" fill="white"/>
<path d="M56.3152 129.891C56.3936 129.875 56.5074 129.916 56.523 129.989C56.625 130.562 56.7309 131.135 56.8329 131.704C56.8447 131.777 56.8094 131.855 56.7152 131.875C56.6368 131.892 56.523 131.851 56.5074 131.777C56.4054 131.204 56.2995 130.632 56.1975 130.063C56.1857 129.989 56.221 129.912 56.3152 129.891Z" fill="white"/>
<path d="M47.7996 125.511C47.8702 125.453 47.9683 125.462 48.0389 125.511C48.4703 125.805 48.788 126.21 48.9528 126.652C48.9802 126.726 48.9214 126.803 48.8351 126.824C48.7449 126.844 48.6547 126.799 48.6272 126.726C48.4782 126.325 48.1879 125.973 47.7996 125.707C47.729 125.658 47.7408 125.56 47.7996 125.507V125.511Z" fill="white"/>
<path d="M45.8189 125.474C45.9131 125.453 45.9954 125.498 46.0268 125.572C46.2582 126.108 46.5838 126.611 46.9878 127.069C47.0427 127.131 46.9995 127.225 46.9289 127.261C46.8426 127.302 46.7524 127.274 46.6975 127.212C46.2739 126.734 45.9444 126.206 45.7013 125.65C45.6699 125.58 45.7366 125.494 45.8189 125.478V125.474Z" fill="white"/>
<path d="M47.6502 129.768C47.9953 130.227 48.3405 130.689 48.6817 131.147C48.7955 131.302 48.5052 131.442 48.3915 131.29C48.0463 130.832 47.7012 130.37 47.3599 129.912C47.2462 129.756 47.5364 129.617 47.6502 129.768Z" fill="white"/>
<path d="M49.0388 129.719C49.1251 129.678 49.2153 129.707 49.2702 129.768C49.7174 130.284 50.0782 130.844 50.3488 131.437C50.3802 131.507 50.3135 131.593 50.2312 131.609C50.137 131.63 50.0547 131.581 50.0233 131.511C49.7644 130.942 49.4114 130.402 48.98 129.912C48.9251 129.85 48.9682 129.756 49.0388 129.719Z" fill="white"/>
<path d="M51.0467 132.812C51.1094 132.763 51.2232 132.751 51.2859 132.812C51.533 133.053 51.7841 133.299 52.0312 133.54C52.09 133.598 52.1018 133.683 52.0312 133.741C51.9684 133.79 51.8547 133.802 51.7919 133.741L51.0467 133.013C50.9879 132.955 50.9761 132.869 51.0467 132.812Z" fill="white"/>
<path d="M66.783 126.528C66.983 126.185 67.0889 125.808 67.0889 125.428C67.0889 125.248 67.4262 125.248 67.4262 125.428C67.4262 125.862 67.3007 126.283 67.0732 126.672C67.034 126.741 66.9163 126.758 66.8418 126.721C66.7595 126.68 66.7398 126.598 66.783 126.528Z" fill="white"/>
<path d="M65.4733 127.195C65.6577 126.745 65.8381 126.295 66.0225 125.845C66.0499 125.772 66.1401 125.727 66.2303 125.747C66.3127 125.768 66.3755 125.849 66.348 125.919L65.7989 127.269C65.7714 127.343 65.6812 127.388 65.591 127.367C65.5086 127.347 65.4459 127.265 65.4733 127.195Z" fill="white"/>
<path d="M65.2534 131.073C65.3514 130.619 65.5436 130.182 65.8142 129.777C65.9201 129.617 66.2104 129.76 66.1045 129.92C65.8456 130.304 65.673 130.718 65.5789 131.147C65.5632 131.221 65.4534 131.266 65.371 131.245C65.2769 131.225 65.2377 131.147 65.2534 131.073Z" fill="white"/>
<path d="M63.0843 132.788C63.2726 132.199 63.5707 131.638 63.959 131.123C64.0727 130.971 64.3669 131.111 64.2492 131.266C63.8727 131.761 63.5903 132.297 63.4099 132.861C63.355 133.037 63.0294 132.964 63.0843 132.788Z" fill="white"/>
<path d="M63.5237 134.277C63.712 134.073 63.8963 133.864 64.0846 133.659C64.1121 133.631 64.1395 133.606 64.1866 133.594C64.2258 133.586 64.2807 133.59 64.316 133.606C64.3866 133.643 64.4337 133.737 64.3748 133.798C64.1866 134.003 64.0022 134.212 63.814 134.416C63.7865 134.445 63.7591 134.469 63.712 134.482C63.6728 134.49 63.6179 134.486 63.5826 134.469C63.512 134.433 63.4649 134.338 63.5237 134.277Z" fill="white"/>
<path d="M55.1224 132.416C55.2087 132.396 55.3068 132.441 55.3303 132.514L55.6441 133.508C55.6676 133.582 55.6166 133.66 55.5264 133.68C55.4401 133.701 55.3421 133.656 55.3185 133.582C55.2126 133.251 55.1106 132.919 55.0047 132.588C54.9812 132.514 55.0322 132.437 55.1224 132.416Z" fill="white"/>
<path d="M60.3351 125.56C60.4332 125.56 60.496 125.625 60.5038 125.699C60.543 126.03 60.5862 126.361 60.6254 126.689C60.6332 126.762 60.543 126.828 60.4567 126.828C60.3587 126.828 60.2959 126.762 60.2881 126.689C60.2489 126.357 60.2057 126.026 60.1665 125.699C60.1586 125.621 60.2489 125.56 60.3351 125.56Z" fill="white"/>
<path d="M45.0424 142.68H70.5447C70.9779 142.68 71.3291 142.313 71.3291 141.862V138.707C71.3291 138.256 70.9779 137.889 70.5447 137.889H45.0424C44.6091 137.889 44.2579 138.256 44.2579 138.707V141.862C44.2579 142.313 44.6091 142.68 45.0424 142.68Z" fill="#5317B5"/>
<g opacity="0.32">
<path d="M267.353 183.044H264.384V182.431H267.353V183.044ZM257.32 183.044H250.26V182.431H257.32V183.044ZM243.2 183.044H236.14V182.431H243.2V183.044ZM229.08 183.044H222.02V182.431H229.08V183.044ZM214.96 183.044H207.9V182.431H214.96V183.044ZM200.84 183.044H193.78V182.431H200.84V183.044ZM186.72 183.044H179.66V182.431H186.72V183.044ZM172.6 183.044H165.54V182.431H172.6V183.044ZM158.48 183.044H151.42V182.431H158.48V183.044ZM144.36 183.044H137.3V182.431H144.36V183.044ZM130.24 183.044H123.18V182.431H130.24V183.044ZM116.12 183.044H109.06V182.431H116.12V183.044ZM102 183.044H94.9398V182.431H102V183.044ZM87.8798 183.044H80.8198V182.431H87.8798V183.044ZM73.7598 183.044H66.6998V182.431H73.7598V183.044ZM59.6398 183.044H52.5798V182.431H59.6398V183.044ZM45.5198 183.044H38.4598V182.431H45.5198V183.044ZM31.3998 183.044H24.3398V182.431H31.3998V183.044Z" fill="#FDEAEA"/>
</g>
<g opacity="0.32">
<path d="M260.603 173.66H258.406V173.046H260.603V173.66ZM251.346 173.66H244.286V173.046H251.346V173.66ZM237.226 173.66H230.166V173.046H237.226V173.66ZM223.106 173.66H216.046V173.046H223.106V173.66ZM208.986 173.66H201.926V173.046H208.986V173.66ZM194.866 173.66H187.806V173.046H194.866V173.66ZM180.746 173.66H173.686V173.046H180.746V173.66ZM166.626 173.66H159.566V173.046H166.626V173.66ZM152.506 173.66H145.446V173.046H152.506V173.66ZM138.386 173.66H131.326V173.046H138.386V173.66ZM124.266 173.66H117.206V173.046H124.266V173.66ZM110.146 173.66H103.086V173.046H110.146V173.66ZM96.0263 173.66H88.9663V173.046H96.0263V173.66ZM81.9063 173.66H74.8463V173.046H81.9063V173.66ZM67.7863 173.66H60.7263V173.046H67.7863V173.66ZM53.6663 173.66H46.6063V173.046H53.6663V173.66ZM39.5463 173.66H32.4863V173.046H39.5463V173.66Z" fill="#FDEAEA"/>
</g>
<g opacity="0.32">
<path d="M275.014 193.53H274.002V192.912H275.014V193.53ZM266.942 193.493L259.882 193.464V192.85L266.942 192.879V193.493ZM252.822 193.435L245.762 193.407V192.793L252.826 192.822V193.435H252.822ZM238.702 193.374L231.642 193.345V192.732L238.706 192.76V193.374H238.702ZM224.582 193.317L217.522 193.288V192.675L224.586 192.703V193.317H224.582ZM210.462 193.255L203.402 193.227V192.613L210.466 192.642V193.255H210.462ZM196.342 193.194L189.282 193.165V192.552L196.346 192.58V193.194H196.342ZM182.222 193.137L175.162 193.108V192.495L182.226 192.523V193.137H182.222ZM168.102 193.075L161.042 193.047V192.433L168.106 192.462V193.075H168.102ZM153.982 193.018L146.922 192.99V192.376L153.986 192.405V193.018H153.982ZM139.862 192.957L132.802 192.928V192.315L139.866 192.343V192.957H139.862ZM125.742 192.895L118.682 192.867V192.253L125.746 192.282V192.895H125.742ZM111.626 192.838L104.566 192.81V192.196L111.63 192.225V192.838H111.626ZM97.5057 192.777L90.4457 192.748V192.135L97.5096 192.163V192.777H97.5057ZM83.3857 192.72L76.3257 192.691V192.077L83.3896 192.106V192.72H83.3857ZM69.2657 192.658L62.2057 192.63V192.016L69.2696 192.045V192.658H69.2657ZM55.1457 192.601L48.0857 192.572V191.959L55.1496 191.987V192.601H55.1457ZM41.0257 192.54L33.9657 192.511V191.897L41.0296 191.926V192.54H41.0257ZM26.9057 192.478L19.8457 192.45V191.836L26.9096 191.865V192.478H26.9057Z" fill="#FDEAEA"/>
</g>
<g opacity="0.32">
<path d="M11.0322 204.42V203.806L18.0922 203.794V204.407L11.0322 204.42ZM25.1522 204.395V203.781L32.2122 203.769V204.383L25.1522 204.395ZM39.2722 204.37V203.757L46.3322 203.745V204.358L39.2722 204.37ZM53.3922 204.342V203.728L60.4522 203.716V204.33L53.3922 204.342ZM67.5122 204.317V203.704L74.5722 203.691V204.305L67.5122 204.317ZM81.6322 204.293V203.679L88.6922 203.667V204.28L81.6322 204.293ZM95.7522 204.264V203.65L102.812 203.638V204.252L95.7522 204.264ZM109.872 204.24V203.626L116.932 203.614V204.227L109.872 204.24ZM123.992 204.211V203.597L131.052 203.585V204.199L123.992 204.211ZM138.112 204.186V203.573L145.172 203.56V204.174L138.112 204.186ZM152.232 204.162V203.548L159.292 203.536V204.15L152.232 204.162ZM166.352 204.133V203.52L173.412 203.507V204.121L166.352 204.133ZM180.472 204.109V203.495L187.532 203.483V204.096L180.472 204.109ZM194.592 204.08V203.466L201.652 203.454V204.068L194.592 204.08ZM208.712 204.055V203.442L215.772 203.43V204.043L208.712 204.055ZM222.832 204.031V203.417L229.892 203.405V204.019L222.832 204.031ZM236.952 204.002V203.389L244.012 203.376V203.99L236.952 204.002ZM251.072 203.978V203.364L258.132 203.352V203.965L251.072 203.978ZM265.192 203.953V203.34L272.252 203.327V203.941L265.192 203.953ZM279.312 203.925V203.311L283.733 203.303V203.916L279.312 203.925Z" fill="#FDEAEA"/>
</g>
<g style="mix-blend-mode:multiply" opacity="0.53">
<path d="M148.055 205.344C148.058 206.154 143.069 206.976 129.189 208.203C110.299 209.872 97.4265 210.306 80.4786 210.973C61.7382 211.709 49.8617 212.266 33.3531 209.729C29.121 209.079 20.0175 207.643 20.0371 205.892C20.0607 203.769 33.4629 202.337 39.0795 201.736C52.5602 200.291 62.4834 200.308 80.71 200.586C93.9593 200.791 110.48 201.114 131.848 202.889C142.842 203.801 148.055 204.513 148.058 205.344H148.055Z" fill="#C472F7"/>
</g>
<g style="mix-blend-mode:multiply" opacity="0.53">
<path d="M216.13 177.501C216.169 179.825 181.148 183.67 146.259 183.666C114.693 183.666 82.0722 180.508 82.0918 178.278C82.1153 175.762 123.663 174.49 147.687 174.322C172.993 174.142 216.087 174.928 216.13 177.505V177.501Z" fill="#C472F7"/>
</g>
<g style="mix-blend-mode:multiply" opacity="0.53">
<path d="M259.733 178.831C259.745 180.013 248.72 181.972 237.73 181.968C227.791 181.968 217.519 180.361 217.522 179.223C217.53 177.943 230.615 177.292 238.177 177.206C246.147 177.116 259.718 177.513 259.73 178.826L259.733 178.831Z" fill="#C472F7"/>
</g>
<g style="mix-blend-mode:multiply" opacity="0.53">
<path d="M202.495 205.123C202.507 205.855 192.87 207.062 183.272 207.062C174.588 207.062 165.61 206.068 165.618 205.369C165.626 204.579 177.055 204.178 183.664 204.125C190.626 204.068 202.483 204.317 202.495 205.127V205.123Z" fill="#C472F7"/>
</g>
<path d="M208.568 152.183H93.8779V164.095H208.568V152.183Z" fill="#841AD8"/>
<path d="M164.376 109.748H195.416C202.676 109.748 208.568 115.897 208.568 123.465V152.183H151.221V123.465C151.221 115.893 157.116 109.748 164.372 109.748H164.376Z" fill="#841AD8"/>
<path d="M153.55 143.011C151.127 139.567 151.315 135.48 151.221 131.422V152.183H208.568V141.408C203.065 145.842 196.169 148.354 189.58 149.271C177.57 151.246 161.768 154.544 153.55 143.007V143.011Z" fill="#5317B5"/>
<path d="M151.221 123.469V152.183H93.8779V123.469C93.8779 115.893 99.7652 109.748 107.029 109.748H138.07C143.027 109.748 147.342 112.612 149.585 116.838C150.629 118.801 151.221 121.064 151.221 123.469Z" fill="#841AD8"/>
<path d="M151.221 123.469V152.183H93.8779V147.16C106.202 148.935 116.713 149.847 124.816 150.351C138.603 151.21 144.639 150.825 147.554 146.702C149.044 144.595 148.958 142.578 149.107 134.134C149.236 126.922 149.428 120.97 149.585 116.838C150.629 118.802 151.221 121.064 151.221 123.469Z" fill="#5317B5"/>
<path d="M214.486 164.1H88.1592V169.017H214.486V164.1Z" fill="#2E106D"/>
<path d="M199.194 151.876H105.014V152.49H199.194V151.876Z" fill="#2E106D"/>
<path d="M102.068 179.576H96.855L93.8467 169.018H105.013L102.068 179.576Z" fill="#2E106D"/>
<path d="M200.582 179.576H205.795L208.803 169.018H197.637L200.582 179.576Z" fill="#2E106D"/>
<path d="M151.507 120.18H150.919V152.183H151.507V120.18Z" fill="#2E106D"/>
<path d="M106.265 164.1H88.038L81.1977 137.931C80.4485 134.883 80.9388 131.79 82.3469 129.258C82.8215 128.403 84.9473 124.844 88.9951 123.952C89.3598 123.87 90.8895 123.559 92.8624 123.976C99.0634 125.286 103.213 132.42 104.158 134.04C110.971 145.752 107.163 160.831 106.269 164.1H106.265Z" fill="#A04CF4"/>
<path d="M86.5515 147.626C82.6097 140.577 82.4332 131.704 86.4613 124.954C84.0413 126.37 82.7078 128.603 82.343 129.258C80.9349 131.79 80.4446 134.879 81.1938 137.93L88.0341 164.1H106.155C97.8593 161.29 90.7679 155.607 86.5476 147.626H86.5515Z" fill="#841AD8"/>
<path d="M196.248 164.1H214.475L221.315 137.931C222.064 134.883 221.574 131.79 220.166 129.258C219.691 128.403 217.565 124.844 213.518 123.952C213.153 123.87 211.623 123.559 209.65 123.976C203.449 125.286 199.3 132.42 198.354 134.04C191.541 145.752 195.35 160.831 196.244 164.1H196.248Z" fill="#A04CF4"/>
<path d="M220.166 129.257C219.805 128.607 218.479 126.381 216.079 124.966C219.734 131.004 219.232 138.809 217.707 145.973C215.291 156.609 205.587 162.725 195.75 162.111C195.946 162.966 196.127 163.645 196.248 164.095H214.475L221.315 137.926C222.064 134.878 221.574 131.785 220.166 129.253V129.257Z" fill="#841AD8"/>
<path d="M109.512 121.547C110.077 121.547 110.536 121.069 110.536 120.479C110.536 119.889 110.077 119.411 109.512 119.411C108.947 119.411 108.488 119.889 108.488 120.479C108.488 121.069 108.947 121.547 109.512 121.547Z" fill="#5317B5"/>
<path d="M137.434 120.479C137.434 121.068 136.975 121.547 136.41 121.547C135.846 121.547 135.387 121.068 135.387 120.479C135.387 119.89 135.846 119.411 136.41 119.411C136.975 119.411 137.434 119.89 137.434 120.479Z" fill="#5317B5"/>
<path d="M137.434 137.12C137.434 137.71 136.975 138.188 136.41 138.188C135.846 138.188 135.387 137.71 135.387 137.12C135.387 136.531 135.846 136.053 136.41 136.053C136.975 136.053 137.434 136.531 137.434 137.12Z" fill="#5317B5"/>
<path d="M109.512 138.188C110.077 138.188 110.536 137.71 110.536 137.12C110.536 136.531 110.077 136.053 109.512 136.053C108.947 136.053 108.488 136.531 108.488 137.12C108.488 137.71 108.947 138.188 109.512 138.188Z" fill="#5317B5"/>
<path d="M165.706 121.247C165.706 121.837 165.247 122.315 164.682 122.315C164.117 122.315 163.658 121.837 163.658 121.247C163.658 120.658 164.117 120.18 164.682 120.18C165.247 120.18 165.706 120.658 165.706 121.247Z" fill="#5317B5"/>
<path d="M192.604 121.247C192.604 121.837 192.145 122.315 191.58 122.315C191.016 122.315 190.557 121.837 190.557 121.247C190.557 120.658 191.016 120.18 191.58 120.18C192.145 120.18 192.604 120.658 192.604 121.247Z" fill="#5317B5"/>
<path d="M192.604 137.894C192.604 138.483 192.145 138.962 191.58 138.962C191.016 138.962 190.557 138.483 190.557 137.894C190.557 137.305 191.016 136.826 191.58 136.826C192.145 136.826 192.604 137.305 192.604 137.894Z" fill="#5317B5"/>
<path d="M165.706 137.894C165.706 138.483 165.247 138.962 164.682 138.962C164.117 138.962 163.658 138.483 163.658 137.894C163.658 137.305 164.117 136.826 164.682 136.826C165.247 136.826 165.706 137.305 165.706 137.894Z" fill="#5317B5"/>
<path d="M238.93 126.181C238.804 125.694 238.702 125.179 238.797 124.684C239.028 125.265 239.62 125.571 240.107 125.952C240.511 126.267 240.856 126.651 241.173 127.056C241.546 127.527 241.883 128.026 242.181 128.545C242.483 129.069 242.75 129.617 242.978 130.178C243.205 130.742 243.393 131.323 243.542 131.912C243.691 132.505 243.797 133.111 243.864 133.72C243.88 133.872 243.892 134.023 243.903 134.175C243.911 134.301 243.942 134.457 243.919 134.58C243.88 134.768 243.68 134.702 243.558 134.641C243.354 134.535 243.201 134.363 243.068 134.17C242.887 133.909 242.711 133.651 242.534 133.389C242.177 132.861 241.824 132.325 241.487 131.781C241.154 131.241 240.832 130.693 240.53 130.133C240.232 129.576 239.954 129.008 239.706 128.423C239.459 127.838 239.24 127.24 239.059 126.627C239.016 126.475 238.973 126.328 238.934 126.177L238.93 126.181Z" fill="#5317B5"/>
<path d="M243.77 126.397C243.896 125.898 244.065 125.399 244.429 125.056C244.363 125.706 244.822 126.397 245.127 127.064C245.382 127.617 245.539 128.189 245.657 128.758C245.794 129.421 245.884 130.079 245.92 130.734C245.959 131.388 245.943 132.039 245.881 132.673C245.818 133.307 245.708 133.925 245.547 134.526C245.386 135.127 245.175 135.708 244.916 136.265C244.853 136.404 244.786 136.539 244.716 136.67C244.657 136.78 244.61 136.932 244.516 137.017C244.374 137.144 244.198 136.948 244.104 136.805C243.947 136.567 243.876 136.31 243.841 136.056C243.79 135.708 243.743 135.361 243.696 135.013C243.602 134.313 243.519 133.614 243.457 132.914C243.394 132.223 243.347 131.532 243.331 130.848C243.315 130.169 243.331 129.49 243.378 128.827C243.429 128.161 243.519 127.502 243.657 126.864C243.692 126.708 243.727 126.553 243.766 126.397H243.77Z" fill="#2E106D"/>
<path d="M250.281 126.201C250.685 125.903 251.124 125.633 251.615 125.612C251.16 126.066 251.085 126.901 250.909 127.617C250.76 128.21 250.528 128.754 250.265 129.27C249.963 129.871 249.622 130.435 249.246 130.959C248.869 131.487 248.457 131.974 248.018 132.42C247.579 132.865 247.108 133.262 246.614 133.618C246.12 133.97 245.598 134.277 245.057 134.53C244.923 134.592 244.786 134.653 244.653 134.706C244.539 134.751 244.406 134.837 244.284 134.837C244.096 134.837 244.084 134.571 244.1 134.404C244.127 134.113 244.229 133.872 244.359 133.655C244.535 133.356 244.712 133.058 244.892 132.759C245.253 132.162 245.621 131.569 246.006 130.992C246.386 130.419 246.779 129.863 247.186 129.327C247.594 128.795 248.022 128.284 248.473 127.809C248.924 127.33 249.399 126.889 249.901 126.488C250.022 126.39 250.148 126.295 250.273 126.205L250.281 126.201Z" fill="#5317B5"/>
<path d="M239.009 133.524H250.921V140.958C250.921 141.751 250.305 142.394 249.544 142.394H240.385C239.625 142.394 239.009 141.751 239.009 140.958V133.524Z" fill="#7FF3FF"/>
<path d="M250.924 133.524H239.013V135.427C243.28 135.427 246.881 135.447 250.924 136.057V133.524Z" fill="#2E106D"/>
<path d="M251.54 132.898H238.393C238.243 132.898 238.122 133.025 238.122 133.181V134.723C238.122 134.879 238.243 135.005 238.393 135.005H251.54C251.689 135.005 251.811 134.879 251.811 134.723V133.181C251.811 133.025 251.689 132.898 251.54 132.898Z" fill="#7FF3FF"/>
<path d="M240.142 136.114C239.275 134.13 238.142 132.747 237.326 131.904C237.526 130.959 237.722 130.014 237.922 129.069C236.848 129.106 235.769 129.139 234.694 129.176C234.808 130.088 234.922 130.996 235.035 131.908C234.31 132.919 233.325 134.543 232.678 136.752C231.945 139.252 231.964 141.416 232.074 142.741H241.354C241.413 141.399 241.354 138.888 240.142 136.122V136.114Z" fill="#5317B5"/>
<path d="M233.922 139.035L233.396 139.022C233.432 137.3 233.981 135.582 234.938 134.179L235.369 134.498C234.471 135.811 233.957 137.423 233.926 139.035H233.922Z" fill="#FDEAEA"/>
<path d="M254.149 142.401H222.947V145.887H254.149V142.401Z" fill="#2E106D"/>
<path d="M254.149 142.401H222.947V144.75H254.149V142.401Z" fill="#FDEAEA"/>
<path d="M226.183 145.65L220.668 179.825H222.284L229.901 145.032L226.183 145.65Z" fill="#2E106D"/>
<path d="M250.913 145.65L256.427 179.825H254.811L247.198 145.032L250.913 145.65Z" fill="#2E106D"/>
<path d="M158.75 196.189L160.809 188.94L155.227 187.754L154.062 195.776C155.592 196.075 157.192 196.267 158.753 196.189H158.75Z" fill="#FDAFA0"/>
<path d="M166.775 84.1555C167.367 82.7769 167.806 82.7196 168.05 81.9382C168.277 81.2059 168.261 80.0646 167.12 78.2932C167.034 77.4259 166.79 76.3255 166.179 75.2128C165.818 74.5541 165.143 73.5846 163.982 72.8032C163.249 72.3082 162.233 71.8991 161.554 72.4759C161.237 72.7459 161.233 73.1264 161.021 73.1387C160.66 73.1591 160.605 72.0341 159.872 71.2446C159.197 70.5164 158.115 70.2546 157.208 70.3896C155.432 70.6555 154.659 72.3941 154.608 72.5128C154.204 72.2141 152.843 71.2937 151.262 71.6209C150.866 71.7028 150.09 71.8541 149.67 72.5373C149.458 72.8769 149.38 73.29 149.368 73.695C149.348 74.3987 149.537 75.1064 149.897 75.6955C149.988 75.8428 150.09 75.9982 150.074 76.17C150.058 76.3091 149.968 76.4278 149.874 76.53C149.384 77.0782 148.776 77.4996 148.246 78.0069C147.717 78.5141 147.25 79.1523 147.164 79.8969C147.077 80.6414 147.489 81.4841 148.191 81.6437C148.38 81.6846 148.591 81.6846 148.744 81.8073C149.046 82.0528 148.893 82.5437 148.823 82.9364C148.689 83.7055 149.023 84.495 149.501 85.0964C149.98 85.6978 150.6 86.16 151.164 86.6755C151.376 86.8678 151.584 87.0682 151.843 87.1787C152.055 87.2687 152.286 87.2891 152.514 87.3096C153.773 87.42 155.032 87.5305 156.291 87.6409C157.714 87.7678 159.201 87.8823 160.515 87.2973C161.111 87.0355 161.645 86.6346 162.241 86.3809C162.853 86.1232 163.508 86.1887 164.088 86.1723C165.327 86.1437 165.48 86.3155 165.833 86.1028C166.343 85.7959 166.285 85.2805 166.767 84.1514L166.775 84.1555Z" fill="#333333"/>
<path d="M162.343 115.652C162.343 115.652 163.778 123.506 164.088 124.504C164.398 125.502 177.949 140.717 177.847 141.261C177.745 141.809 176.93 142.455 176.808 143.29C176.686 144.124 176.808 146.501 177.169 146.824C177.53 147.147 181.389 148.943 181.687 148.686C181.989 148.428 183.256 145.54 183.072 145.151C182.887 144.762 181.024 139.371 180.722 139.113C180.42 138.855 169.634 122.283 169.634 122.283L168.548 110.91L162.339 115.647L162.343 115.652Z" fill="#FDAFA0"/>
<path d="M191.532 157.796C183.409 148.816 175.282 139.841 167.159 130.861C166.743 132.072 166.269 132.854 165.531 133.463C173.54 142.357 181.55 151.25 189.559 160.144C190.218 159.363 190.873 158.577 191.532 157.796Z" fill="#FDEAEA"/>
<path d="M191.531 157.796C190.873 158.577 190.218 159.363 189.559 160.144C190.233 160.893 190.908 161.645 191.586 162.394C192.234 161.564 192.822 160.692 193.344 159.796C192.74 159.13 192.135 158.463 191.535 157.796H191.531Z" fill="#7FA9C6"/>
<path d="M221.678 191.108C212.234 180.672 202.785 170.232 193.34 159.796C192.819 160.696 192.23 161.567 191.583 162.394C200.777 172.605 209.974 182.815 219.168 193.026L221.678 191.108Z" fill="#FDEAEA"/>
<path d="M217.387 192.671L220.826 188.944L225.317 193.763L221.352 197.417L217.387 192.671Z" fill="black"/>
<path d="M239.94 203.155C240.269 201.208 237.971 198.017 225.318 193.763L221.353 197.412C221.353 197.412 218.98 198.275 218.223 202.157C225.463 202.419 232.703 203.421 239.94 203.151V203.155Z" fill="#D2D2D2"/>
<path d="M218.222 202.162C218.198 202.285 218.171 202.403 218.147 202.534V205.345H220.269L220.846 203.201L221.364 205.345H226.557L226.863 203.753L227.086 205.345H228.91L229.09 203.201L229.373 205.345H234.966C235.154 204.637 235.429 203.753 235.429 203.753L235.55 205.345H238.025C238.025 205.345 239.692 204.588 239.935 203.156C232.695 203.426 225.455 202.424 218.218 202.162H218.222Z" fill="black"/>
<path d="M106.604 190.556L104.521 188.65C105.408 187.594 106.965 185.761 108.95 183.487L110.099 182.174C112.801 179.097 113.319 178.48 113.546 177.31C114.139 174.303 112.013 171.496 111.923 171.378C110.228 169.185 107.749 168.625 103.153 167.745C100.485 167.234 98.591 167.131 96.7594 167.033C94.4806 166.91 92.1233 166.78 88.4325 165.892C85.0437 165.074 83.1218 164.116 81.345 162.365C80.4468 161.482 78.2465 158.307 78.8505 154.282C79.2663 151.5 80.8469 149.176 83.5454 147.368C87.4206 144.775 91.6448 145.515 93.0293 145.756C96.9045 146.435 98.9793 148.272 100.815 149.888C102.411 151.295 103.788 152.515 106.267 153.001C109.212 153.582 113.464 153.034 116.308 150.518C118.332 148.726 118.943 146.57 119.649 144.075C120.461 141.207 121.383 137.955 124.76 135.316C125.309 134.887 127.341 133.385 130.357 132.113C132.314 131.287 134.366 130.698 136.46 130.362L136.88 133.218C134.997 133.52 133.154 134.048 131.397 134.793C129.247 135.701 127.415 136.855 126.419 137.632C123.776 139.694 123.062 142.222 122.305 144.893C121.54 147.585 120.752 150.371 118.1 152.719C114.319 156.07 109.087 156.491 105.753 155.84C102.56 155.215 100.764 153.627 99.0264 152.093C97.3124 150.58 95.6964 149.156 92.5704 148.604C91.4448 148.407 88.0167 147.806 85.0437 149.794C83.0394 151.136 81.8745 152.793 81.5882 154.724C81.1097 157.919 83.2277 160.238 83.2473 160.259C84.475 161.47 85.7654 162.275 89.0561 163.069C92.5116 163.904 94.6453 164.018 96.9045 164.141C98.8264 164.247 100.811 164.354 103.655 164.898C108.306 165.785 111.668 166.428 114.084 169.561C114.594 170.224 117.084 173.722 116.265 177.886C115.872 179.875 115.009 180.86 112.146 184.121L111.001 185.426C109.032 187.684 107.487 189.5 106.604 190.548V190.556Z" fill="#D2D2D2"/>
<path d="M113.828 198.05C113.757 199.699 112.961 201.462 111.902 202.804C111.714 203.049 111.522 203.274 111.314 203.483C109.082 205.794 106.152 206.121 104.262 206.314C95.3465 207.181 87.7335 206.891 86.6588 206.85C73.6213 206.367 71.2366 207.455 69.1814 204.964C66.6045 201.814 67.6086 196.676 68.2754 193.215C68.7813 190.621 69.8756 185.012 73.9704 181.74C78.5908 178.054 84.9017 179.06 90.6595 181.016H90.6673C93.0716 181.826 95.3779 182.807 97.4292 183.675C99.5629 184.571 107.501 187.937 111.498 192.527V192.536C112.192 193.337 112.781 194.176 113.181 195.043C113.632 196.013 113.867 197.023 113.824 198.05H113.828Z" fill="#7E7E7E"/>
<path d="M68.1385 195.755C68.5503 193.644 69.4407 189.071 72.7785 186.407C78.1166 182.149 86.216 185.577 91.8875 187.978C94.2605 188.985 105.502 193.742 105.235 199.691C105.164 201.282 104.27 202.996 103.184 204.117C101.368 205.999 98.9789 206.269 97.4453 206.416C90.1814 207.12 83.9803 206.887 83.1096 206.858C72.4961 206.469 70.5428 207.349 68.8798 205.32C66.7775 202.759 67.5933 198.57 68.1424 195.755H68.1385Z" fill="#D2D2D2"/>
<path d="M78.8021 208.251C83.6504 206.119 85.9238 200.292 83.8798 195.235C81.8357 190.178 76.2483 187.807 71.3999 189.939C66.5515 192.071 64.2781 197.898 66.3222 202.955C68.3662 208.012 73.9537 210.383 78.8021 208.251Z" fill="black"/>
<path d="M82.3249 200.31C82.9694 196.141 80.2517 192.216 76.2547 191.544C72.2577 190.872 68.4951 193.707 67.8506 197.875C67.2061 202.044 69.9238 205.969 73.9207 206.641C77.9177 207.313 81.6804 204.479 82.3249 200.31Z" fill="white"/>
<path d="M75.0887 200.558C75.8577 200.558 76.4811 199.908 76.4811 199.106C76.4811 198.304 75.8577 197.653 75.0887 197.653C74.3197 197.653 73.6963 198.304 73.6963 199.106C73.6963 199.908 74.3197 200.558 75.0887 200.558Z" fill="#2E106D"/>
<path d="M111.506 192.524V192.532C111 196.954 93.3423 187.017 90.032 185.213C86.7961 183.458 90.5026 181.11 90.6635 181.008H90.6713C93.0756 181.818 95.3819 182.8 97.4332 183.667C99.5669 184.563 107.505 187.93 111.502 192.52L111.506 192.524Z" fill="white"/>
<path d="M113.829 198.051C113.758 199.699 112.962 201.463 111.903 202.804C107.671 202.428 106.459 195.441 109.098 196.828C111.746 198.206 113.177 195.044 113.177 195.044H113.185C113.636 196.013 113.872 197.024 113.829 198.051Z" fill="#D2D2D2"/>
<path d="M105.745 185.671L103.87 187.749C103.878 187.888 104.011 189.566 105.455 190.441C106.757 191.231 108.071 190.723 108.236 190.654C108.577 189.844 108.918 189.034 109.259 188.22C108.09 187.369 106.918 186.518 105.749 185.667L105.745 185.671Z" fill="black"/>
<path d="M176.894 144.823C177.015 144.647 177.161 144.541 177.329 144.59C178.012 144.791 177.745 146.239 177.643 146.721C177.564 147.094 177.459 147.646 177.2 147.941C176.921 148.251 176.423 148.354 176.341 147.765C176.254 147.139 176.294 146.488 176.474 145.887C176.537 145.682 176.674 145.142 176.894 144.823Z" fill="#FDAFA0"/>
<path d="M178.02 145.347C178.141 145.171 178.286 145.064 178.455 145.114C179.138 145.314 178.871 146.762 178.769 147.245C178.69 147.617 178.585 148.169 178.326 148.464C178.047 148.775 177.549 148.877 177.467 148.288C177.38 147.662 177.42 147.012 177.6 146.41C177.663 146.206 177.8 145.666 178.02 145.347Z" fill="#FDAFA0"/>
<path d="M179.164 145.748C179.286 145.547 179.431 145.42 179.6 145.478C180.282 145.711 180.015 147.388 179.913 147.949C179.835 148.382 179.729 149.02 179.47 149.36C179.192 149.724 178.694 149.839 178.611 149.159C178.525 148.435 178.564 147.683 178.745 146.983C178.807 146.746 178.945 146.12 179.164 145.752V145.748Z" fill="#FDAFA0"/>
<path d="M180.243 146.484C180.365 146.284 180.51 146.157 180.679 146.214C181.361 146.447 181.095 148.124 180.993 148.685C180.914 149.119 180.808 149.757 180.549 150.096C180.271 150.46 179.773 150.579 179.69 149.896C179.604 149.172 179.643 148.419 179.824 147.719C179.886 147.482 180.024 146.856 180.243 146.488V146.484Z" fill="#FDAFA0"/>
<path d="M166.327 203.774C164.48 202.768 157.796 199.552 157.796 199.552L158.749 196.193C157.188 196.267 155.588 196.079 154.058 195.78L153.49 199.687C153.49 199.687 151.689 202.903 151.882 203.909C152.074 204.915 153.545 206.053 153.545 206.053C153.545 206.053 167.045 206.723 167.237 206.053C167.429 205.382 168.171 204.78 166.323 203.774H166.327Z" fill="#2E106D"/>
<path d="M128.886 187.406L124.384 183.667L120.846 190.429C122.022 191.419 123.097 192.479 124.352 193.219C126.054 191.022 128.886 187.402 128.886 187.402V187.406Z" fill="#FDAFA0"/>
<path d="M123.096 194.859C123.116 194.818 123.638 194.143 124.352 193.219C123.096 192.478 122.022 191.419 120.845 190.429L119.37 193.247C118.664 193.865 118.045 194.303 117.605 194.589C116.699 195.178 116.331 195.281 116.029 195.792C115.672 196.401 115.632 197.203 115.868 197.829C116.182 198.664 116.931 199.069 117.186 199.208C120.888 201.27 126.026 206.436 127.917 206.044C128.56 205.909 128.623 204.571 127.917 203.364C127.211 202.157 123.034 194.99 123.096 194.855V194.859Z" fill="#2E106D"/>
<path d="M159.24 128.223C161.373 134.081 162.95 139.121 164.076 142.995C166.37 150.895 166.81 153.983 167.021 156.156C167.484 160.909 167.174 164.464 167.021 166.248C165.927 179.016 166.696 180.505 164.782 184.019C163.491 186.391 161.899 187.995 160.809 188.944C158.726 188.768 156.639 188.592 154.557 188.412C153.451 185.61 153.078 183.241 152.937 181.654C152.725 179.277 152.913 177.236 153.07 175.546C153.38 172.176 153.796 171.709 153.737 169.717C153.655 166.927 152.76 164.906 152.407 164.026C148.665 154.765 145.916 126.856 145.916 126.856L159.248 128.223H159.24Z" fill="#00A1D4"/>
<path d="M145.908 126.857C145.908 126.857 148.018 148.264 151.058 159.801C152.16 156.949 153.219 153.583 153.98 149.741C154.325 148.003 154.576 146.342 154.753 144.775C151.803 138.802 148.858 132.829 145.908 126.853V126.857Z" fill="#2E106D"/>
<path d="M141.728 125.948L157.66 131.737C153.416 151.586 149.325 160.983 146.148 165.826C143.277 170.204 139.202 173.824 137.095 179.707C136.766 180.627 135.927 183.168 133.636 185.119C131.981 186.535 130.173 187.124 128.89 187.398C127.16 186.391 125.431 185.385 123.701 184.375C123.595 183.491 123.513 182.133 123.787 180.537C124.133 178.533 124.807 177.531 126.05 174.847C127.627 171.439 127.266 171.488 128.58 168.739C129.278 167.279 130.369 165.192 131.977 162.795C132.146 158.275 132.699 152.891 134.036 146.947C136.009 138.176 139.033 131.111 141.728 125.948Z" fill="#00A1D4"/>
<path d="M135.648 105.089C135.648 105.089 129.694 113.623 129.592 115.23C129.49 116.838 133.8 118.658 134.726 117.799C135.651 116.944 141.911 109.847 141.911 109.847L135.648 105.093V105.089Z" fill="#FDAFA0"/>
<path d="M168.716 112.587L168.552 110.914L162.343 115.549C162.343 115.549 162.606 116.956 162.931 118.642C165.594 117.39 167.171 115.001 168.716 112.583V112.587Z" fill="#F35F65"/>
<path d="M135.648 105.089C135.648 105.089 134.993 106.03 134.118 107.335C135.593 109.626 137.115 111.827 139.143 112.964C140.629 111.295 141.912 109.843 141.912 109.843L135.648 105.089Z" fill="#F35F65"/>
<path d="M150.494 144.897C150.494 144.897 150.462 144.897 150.447 144.897C149.988 144.877 149.56 144.517 149.38 144.01C149.247 143.637 149.235 143.212 149.341 142.668C149.439 142.165 149.611 141.641 149.858 141.122C150.043 140.729 150.278 140.32 150.572 139.874C150.6 139.833 150.631 139.784 150.662 139.731C150.847 139.42 151.192 138.843 151.733 139.101C152.153 139.301 152.541 139.812 152.761 140.23C152.882 140.459 152.973 140.696 153.059 140.929C153.13 141.117 153.2 141.31 153.29 141.49L153.365 141.633C153.455 141.805 153.549 141.981 153.596 142.193C153.663 142.5 153.596 142.893 153.294 143.089C152.879 143.359 152.388 143.052 152.082 142.631C151.965 142.467 151.855 142.296 151.761 142.116L151.78 142.488C151.808 142.95 151.835 143.47 151.659 143.961C151.494 144.423 151.059 144.906 150.494 144.906V144.897ZM151.141 139.833C151.114 139.878 151.082 139.927 151.047 139.984C151.012 140.042 150.98 140.099 150.949 140.144C150.666 140.569 150.447 140.958 150.27 141.334C150.043 141.817 149.882 142.296 149.792 142.762C149.705 143.212 149.713 143.556 149.811 143.842C149.925 144.165 150.196 144.402 150.466 144.415C150.823 144.427 151.11 144.108 151.227 143.781C151.368 143.388 151.341 142.922 151.317 142.508L151.2 140.451C151.168 140.246 151.149 140.042 151.141 139.837V139.833ZM151.659 140.397C151.772 141.097 152.043 141.772 152.447 142.332C152.62 142.574 152.886 142.774 153.043 142.672C153.141 142.607 153.165 142.427 153.137 142.292C153.106 142.148 153.031 142.009 152.953 141.858L152.871 141.702C152.773 141.506 152.698 141.302 152.62 141.097C152.533 140.872 152.455 140.659 152.349 140.459C152.173 140.132 151.886 139.747 151.612 139.575L151.659 140.393V140.397Z" fill="#FDEAEA"/>
<path d="M161.318 116.486C161.008 116.728 159.059 124.545 158.957 125.936C158.855 127.327 160.138 131.934 160.138 131.934L140.476 130.113C140.476 130.113 142.837 122.619 143.249 119.833L143.66 117.047L161.322 116.486H161.318Z" fill="#FDAFA0"/>
<path d="M167.171 102.487C166.908 102.013 166.602 101.468 166.065 100.847C165.186 99.8198 164.268 99.2552 160.636 97.4021C160.04 97.0993 159.307 96.7271 158.467 96.3098C155.902 95.7902 153.337 95.2666 150.772 94.7471C149.807 94.788 148.446 94.8984 146.842 95.2053C144.704 95.6143 142.786 95.9825 140.805 97.2671C139.511 98.1057 138.782 98.9484 137.346 100.613C135.746 102.467 134.546 104.238 133.659 105.715C135.828 107.924 137.997 110.133 140.166 112.342C140.558 112.207 140.951 112.072 141.343 111.937C141.17 112.759 140.884 114.052 140.476 115.615C138.668 122.528 136.856 124.905 135.938 129.724C135.573 131.631 135.177 134.437 135.177 137.955C138.283 138.823 141.864 139.588 145.869 140.029C153.392 140.864 159.922 140.295 164.931 139.416C163.288 134.617 161.899 128.276 162.413 120.949C162.503 119.657 162.648 118.413 162.829 117.231C164.959 115.459 167.088 113.688 169.218 111.917C169.238 109.515 168.955 105.715 167.163 102.491L167.171 102.487Z" fill="#7FF3FF"/>
<path d="M160.585 97.3736C159.997 97.075 159.287 96.715 158.471 96.3059C155.906 95.7863 153.341 95.2627 150.776 94.7432C150.623 94.7513 150.442 94.7595 150.27 94.7718C150.301 95.1236 150.599 97.9995 152.831 99.3823C155.11 100.798 158.494 100.09 160.589 97.3736H160.585Z" fill="#2E106D"/>
<path d="M167.987 131.054C167.665 130.739 167.347 130.428 167.026 130.113C166.163 129.25 164.774 128.051 162.829 127.16C159.291 125.54 156.012 125.904 153.369 126.264C145.999 127.27 139.315 128.825 134.746 130.019C134.632 130.342 134.334 131.328 134.679 132.494C134.954 133.419 135.491 133.991 135.75 134.233C145.355 131.177 152.772 129.618 156.028 129.524C157.448 129.483 159.483 129.422 160.989 130.756C161.535 131.238 161.841 131.754 162.852 132.699C163.813 133.595 164.692 134.208 165.28 134.581C165.598 134.503 166.41 134.249 167.085 133.464C167.928 132.486 167.983 131.357 167.987 131.05V131.054Z" fill="black"/>
<path d="M153.121 84.9855L150.771 94.7465C150.811 94.9101 151.591 97.876 154.239 98.686C154.549 98.7801 156.349 99.2955 158.028 98.2155C158.753 97.7492 159.189 97.1601 159.424 96.7837C159.428 93.1878 159.436 89.5919 159.44 85.996L153.121 84.9814V84.9855Z" fill="#FDAFA0"/>
<path d="M153.122 84.9863C152.922 85.7595 152.718 86.5368 152.518 87.31C152.537 87.4941 152.902 90.5991 155.534 91.8877C157.322 92.7631 159.017 92.2395 159.432 92.0963C159.432 90.0631 159.44 88.0341 159.444 86.0009L153.126 84.9863H153.122Z" fill="#F35F65"/>
<path d="M163.596 87.7853C165.95 84.8784 165.599 80.5319 162.812 78.0771C160.025 75.6224 155.857 75.9889 153.504 78.8958C151.15 81.8027 151.502 86.1492 154.289 88.604C157.076 91.0587 161.243 90.6922 163.596 87.7853Z" fill="#FDAFA0"/>
<path d="M130.075 113.921C130.075 113.921 127.4 116.821 130.075 118.646C132.75 120.47 148.964 125.56 148.964 125.56C148.964 125.56 149.65 129.781 150.368 130.645C150.737 131.086 154.753 130.137 155.177 129.998C155.6 129.859 156.197 126.693 155.475 126.063C154.753 125.433 150.474 122.459 150.474 122.459L137.068 115.283L130.079 113.921H130.075Z" fill="#FDAFA0"/>
<path d="M137.197 144.902C137.087 144.902 136.977 144.902 136.863 144.898L136.879 144.415C140.856 144.562 142.123 141.891 142.139 141.862L142.554 142.071C142.5 142.19 141.213 144.902 137.197 144.902Z" fill="#FDEAEA"/>
<path d="M124.783 184.145C124.744 184.145 124.705 184.137 124.67 184.112L124.266 183.875C124.156 183.81 124.117 183.662 124.179 183.548C124.242 183.429 124.383 183.388 124.493 183.458L124.897 183.695C125.007 183.76 125.046 183.908 124.983 184.022C124.94 184.1 124.862 184.145 124.783 184.145Z" fill="#FDEAEA"/>
<path d="M127.98 186.014C127.941 186.014 127.902 186.006 127.866 185.981L127.066 185.511C126.956 185.446 126.917 185.298 126.98 185.184C127.043 185.069 127.184 185.024 127.294 185.094L128.094 185.564C128.204 185.63 128.243 185.777 128.18 185.891C128.137 185.969 128.058 186.014 127.98 186.014ZM126.384 185.081C126.344 185.081 126.305 185.073 126.27 185.049L125.47 184.578C125.36 184.513 125.321 184.366 125.383 184.251C125.446 184.136 125.587 184.091 125.697 184.161L126.497 184.631C126.607 184.697 126.646 184.844 126.584 184.959C126.541 185.036 126.462 185.081 126.384 185.081Z" fill="#FDEAEA"/>
<path d="M129.18 186.722C129.141 186.722 129.101 186.714 129.066 186.69L128.662 186.452C128.552 186.387 128.513 186.24 128.576 186.125C128.639 186.01 128.78 185.965 128.89 186.035L129.294 186.272C129.403 186.338 129.443 186.485 129.38 186.6C129.337 186.677 129.258 186.722 129.18 186.722Z" fill="#FDEAEA"/>
<path d="M160.809 188.376C160.809 188.376 160.79 188.376 160.782 188.376L160.554 188.347C160.429 188.331 160.339 188.212 160.354 188.077C160.37 187.946 160.476 187.844 160.613 187.869L160.841 187.897C160.966 187.914 161.056 188.032 161.041 188.167C161.025 188.29 160.927 188.38 160.813 188.38L160.809 188.376ZM159.664 188.233C159.664 188.233 159.644 188.233 159.636 188.233L158.719 188.114C158.593 188.098 158.503 187.979 158.519 187.844C158.534 187.713 158.652 187.623 158.778 187.635L159.695 187.754C159.821 187.77 159.911 187.889 159.895 188.024C159.88 188.147 159.782 188.237 159.668 188.237L159.664 188.233ZM157.832 187.999C157.832 187.999 157.813 187.999 157.805 187.999L156.887 187.881C156.762 187.864 156.671 187.746 156.687 187.611C156.703 187.48 156.82 187.386 156.946 187.402L157.864 187.521C157.989 187.537 158.079 187.656 158.064 187.791C158.048 187.914 157.95 188.004 157.836 188.004L157.832 187.999ZM155.997 187.762C155.997 187.762 155.977 187.762 155.969 187.762L155.051 187.644C154.926 187.627 154.836 187.509 154.851 187.374C154.867 187.243 154.989 187.149 155.11 187.165L156.028 187.284C156.154 187.3 156.244 187.419 156.228 187.554C156.212 187.676 156.114 187.766 156.001 187.766L155.997 187.762Z" fill="#FDEAEA"/>
<path d="M144.497 166.427H144.493C142.398 166.378 140.327 165.147 139.221 163.29C139.155 163.175 139.186 163.028 139.296 162.958C139.406 162.889 139.547 162.921 139.614 163.036C140.641 164.758 142.559 165.9 144.505 165.945C144.634 165.945 144.732 166.059 144.728 166.19C144.728 166.321 144.622 166.423 144.497 166.423V166.427Z" fill="#FDEAEA"/>
<path d="M139.382 170.351C139.327 170.351 139.268 170.33 139.225 170.285C138.346 169.426 137.848 168.162 137.891 166.906C137.895 166.775 138.001 166.685 138.131 166.673C138.26 166.677 138.358 166.791 138.354 166.922C138.315 168.043 138.758 169.168 139.539 169.933C139.633 170.023 139.637 170.175 139.55 170.273C139.507 170.322 139.444 170.351 139.382 170.351Z" fill="#FDEAEA"/>
<path d="M163.276 169.218C162.331 169.218 161.382 168.87 160.68 168.22C160.586 168.13 160.578 167.978 160.66 167.88C160.747 167.782 160.892 167.77 160.986 167.86C161.943 168.752 163.429 168.993 164.602 168.453C164.716 168.4 164.853 168.453 164.908 168.576C164.959 168.698 164.908 168.842 164.79 168.895C164.316 169.116 163.798 169.218 163.276 169.218Z" fill="#FDEAEA"/>
<path d="M163.116 171.681C162.029 171.681 160.943 171.292 160.123 170.535C160.029 170.449 160.017 170.294 160.103 170.196C160.186 170.097 160.335 170.085 160.429 170.175C161.7 171.341 163.684 171.537 165.143 170.637C165.253 170.568 165.394 170.609 165.461 170.723C165.528 170.838 165.489 170.985 165.379 171.055C164.692 171.476 163.904 171.685 163.116 171.685V171.681Z" fill="#FDEAEA"/>
<path d="M162.731 116.67C162.7 116.67 162.668 116.666 162.641 116.65C162.523 116.597 162.472 116.454 162.519 116.335C163.723 113.439 164.39 110.391 164.5 107.278C164.575 105.257 164.406 103.224 164.006 101.231C163.978 101.1 164.061 100.974 164.186 100.945C164.308 100.916 164.433 101.002 164.461 101.133C164.869 103.162 165.037 105.236 164.963 107.294C164.849 110.465 164.171 113.574 162.943 116.527C162.904 116.617 162.821 116.67 162.731 116.67Z" fill="#00A1D4"/>
<path d="M142.637 110.362C142.602 110.362 142.571 110.354 142.539 110.338C142.425 110.28 142.374 110.137 142.429 110.019C143.806 106.983 144.638 103.747 144.908 100.397C144.92 100.266 145.034 100.176 145.159 100.176C145.285 100.188 145.379 100.303 145.371 100.438C145.097 103.845 144.249 107.134 142.849 110.223C142.81 110.309 142.727 110.362 142.641 110.362H142.637Z" fill="#00A1D4"/>
<path d="M149.843 83.6074C149.843 84.9819 150.91 86.0947 152.227 86.0947C153.545 86.0947 154.612 84.9819 154.612 83.6074C154.612 82.2328 153.545 81.1201 152.227 81.1201C150.91 81.1201 149.843 82.2328 149.843 83.6074Z" fill="#FDAFA0"/>
<path d="M162.053 84.6913C162.006 84.945 162.128 85.1863 162.332 85.2273C162.532 85.2682 162.736 85.0963 162.783 84.8427C162.83 84.5891 162.708 84.3477 162.504 84.3068C162.304 84.2659 162.1 84.4377 162.053 84.6913Z" fill="#333333"/>
<path d="M158.021 83.5175C157.974 83.7712 158.095 84.0125 158.299 84.0534C158.499 84.0943 158.703 83.9225 158.75 83.6689C158.797 83.4152 158.676 83.1739 158.472 83.133C158.272 83.0921 158.068 83.2639 158.021 83.5175Z" fill="#333333"/>
<path d="M157.601 88.0547C157.601 88.0547 157.57 88.0547 157.554 88.0506C156.895 87.9074 156.361 87.2979 156.283 86.6065C156.267 86.4756 156.358 86.3529 156.483 86.3406C156.609 86.3201 156.726 86.4183 156.738 86.5492C156.793 87.036 157.185 87.482 157.644 87.5801C157.77 87.6088 157.848 87.7356 157.824 87.8665C157.801 87.981 157.707 88.0588 157.601 88.0588V88.0547Z" fill="#333333"/>
<path d="M151.462 84.6788C151.411 84.6788 151.36 84.6624 151.321 84.6256C151.219 84.5438 151.204 84.3924 151.282 84.286C151.525 83.9629 151.847 83.7051 152.204 83.5333C151.961 83.4188 151.71 83.3288 151.451 83.2633C151.325 83.2306 151.251 83.0997 151.282 82.9729C151.313 82.846 151.435 82.7683 151.561 82.7969C152.039 82.9197 152.494 83.116 152.914 83.386C152.992 83.4392 153.035 83.5374 153.02 83.6356C153.004 83.7338 152.929 83.8074 152.835 83.8279C152.372 83.9219 151.937 84.196 151.647 84.5847C151.6 84.646 151.533 84.6788 151.466 84.6788H151.462Z" fill="#F35F65"/>
<path d="M160.292 86.8393C160.084 86.8393 159.892 86.7575 159.759 86.6103C159.672 86.5121 159.676 86.3607 159.766 86.2707C159.857 86.1807 160.006 86.1807 160.092 86.2789C160.139 86.3321 160.221 86.3566 160.308 86.3566C160.41 86.3525 160.508 86.3034 160.567 86.2298C160.688 86.0743 160.676 85.8043 160.547 85.6284C160.504 85.5712 160.453 85.518 160.402 85.4689C160.276 85.338 160.131 85.1907 160.08 84.9698C160.049 84.8389 160.123 84.7121 160.249 84.6793C160.374 84.6466 160.5 84.7243 160.527 84.8553C160.547 84.9453 160.629 85.0271 160.727 85.1253C160.794 85.1948 160.861 85.2603 160.916 85.338C161.175 85.6939 161.182 86.2093 160.927 86.5366C160.786 86.7166 160.563 86.8312 160.327 86.8393C160.316 86.8393 160.304 86.8393 160.296 86.8393H160.292Z" fill="#333333"/>
<path d="M163.783 84.0333C163.755 84.0333 163.724 84.0292 163.696 84.0169C163.194 83.8001 162.704 83.5465 162.237 83.2601C162.128 83.1905 162.092 83.0433 162.155 82.9287C162.218 82.8142 162.363 82.7774 162.473 82.8428C162.92 83.1169 163.39 83.3624 163.873 83.5669C163.991 83.616 164.045 83.7592 163.998 83.8819C163.963 83.976 163.877 84.0333 163.787 84.0333H163.783Z" fill="#333333"/>
<path d="M159.582 82.4537C159.582 82.4537 159.558 82.4537 159.546 82.4537C159.013 82.3678 158.476 82.2369 157.958 82.0732C157.836 82.0323 157.766 81.8973 157.805 81.7705C157.844 81.6437 157.973 81.57 158.095 81.6109C158.593 81.7705 159.103 81.8932 159.617 81.975C159.742 81.9955 159.829 82.1182 159.809 82.2491C159.793 82.3678 159.691 82.4537 159.582 82.4537Z" fill="#333333"/>
<g opacity="0.5">
<path d="M158.593 85.002C158.452 84.237 156.804 83.7911 156.408 84.2657C156.212 84.4989 156.342 84.9325 156.467 85.1616C156.867 85.8857 158.067 86.0084 158.46 85.5257C158.471 85.5134 158.648 85.2884 158.597 85.002H158.593Z" fill="#F35F65"/>
</g>
<g opacity="0.5">
<path d="M163.9 86.7532C163.869 86.0578 162.151 85.3664 161.751 85.8696C161.555 86.1151 161.704 86.606 161.841 86.8555C162.217 87.5469 163.206 87.686 163.669 87.2196C163.735 87.1501 163.908 86.9782 163.896 86.7532H163.9Z" fill="#F35F65"/>
</g>
<path d="M163.982 82.7073C163.334 82.4414 163.028 81.6886 162.73 81.0341C162.401 80.3141 162.009 79.6268 161.554 78.9845C161.307 78.6368 160.895 78.2645 160.53 78.4732C160.334 78.5836 160.248 78.8209 160.15 79.0295C160.012 79.3159 159.816 79.5859 159.534 79.7086C159.251 79.8314 158.875 79.7495 158.726 79.4714C158.577 79.1891 158.698 78.8373 158.647 78.5182C158.569 77.9864 158.008 77.6468 157.49 77.6632C156.973 77.6795 156.502 77.9577 156.07 78.2523C155.498 78.6409 154.937 79.095 154.623 79.7291C154.349 80.2854 154.286 80.9482 153.968 81.4759C153.647 82.0077 152.862 82.3309 152.454 81.8686C152.231 81.615 152.219 81.2264 152.07 80.9155C151.889 80.535 151.501 80.2323 151.509 79.8068C151.513 79.5818 151.634 79.3773 151.756 79.1932C153.36 76.7591 156.027 75.0041 158.859 74.9673C160.546 74.9468 162.232 75.5973 163.515 76.7386C164.142 77.2991 164.676 77.9782 165.048 78.7473C165.252 79.1686 165.39 79.6064 165.507 80.0564C165.613 80.4654 165.782 80.8991 165.805 81.3286C165.852 82.2082 164.77 83.0223 163.985 82.6991L163.982 82.7073Z" fill="#333333"/>
</g>
</g>
<defs>
<clipPath id="clip0_834_268371">
<rect width="300" height="225" fill="white" transform="translate(0.876953)"/>
</clipPath>
<clipPath id="clip1_834_268371">
<rect width="353" height="225" fill="white" transform="translate(-25.123 0.5)"/>
</clipPath>
</defs>
</svg>
