<svg width="301" height="225" viewBox="0 0 301 225" fill="none" xmlns="http://www.w3.org/2000/svg">
<g clip-path="url(#clip0_834_268369)">
<rect x="-25.123" y="167.401" width="353" height="61.2676" fill="#F3E0FA"/>
<rect x="-25.123" y="0.5" width="353" height="166.901" fill="#FBF0FF"/>
<g clip-path="url(#clip1_834_268369)">
<path d="M218.393 35.4062H69.7524C68.8223 35.4062 68.0684 36.1579 68.0684 37.0851V125.399C68.0684 126.327 68.8223 127.078 69.7524 127.078H218.393C219.323 127.078 220.077 126.327 220.077 125.399V37.0851C220.077 36.1579 219.323 35.4062 218.393 35.4062Z" fill="#000B67"/>
<path d="M216.204 38.5264H71.9414V123.958H216.204V38.5264Z" fill="#3831A4"/>
<g style="mix-blend-mode:multiply" opacity="0.44">
<path d="M216.204 56.3506V123.958H71.9414V61.1587C72.2548 61.28 72.5636 61.4152 72.8676 61.5645C76.4509 63.3086 79.1454 66.1861 81.9288 68.9469C85.077 72.0622 88.5059 74.8836 91.9442 77.6725C97.2536 81.9909 103.952 87.9976 111.381 87.2841C113.697 87.0602 115.563 85.8291 117.598 84.8451C120.115 83.6325 122.697 82.8071 125.443 82.2847C131.271 81.1795 136.815 82.1075 141.549 85.7871C146.681 89.7698 150.259 95.0023 156.715 97.1569C164.181 99.6519 172.086 97.0776 178.294 92.7498C186.083 87.3214 190.19 79.5192 195.471 71.9363C199.77 65.7664 207.938 58.2114 216.204 56.3506Z" fill="#3831A4"/>
</g>
<path d="M216.204 112.938H71.9414V123.959H216.204V112.938Z" fill="#6154DB"/>
<g opacity="0.72">
<path d="M204.397 86.8454C203.71 86.0899 202.526 86.2485 201.637 85.9687C202.952 85.1292 204.131 83.4084 204.496 81.8927C205.019 79.7241 203.345 77.9007 201.399 77.2431C200.996 77.1079 200.164 76.9307 199.411 76.968C199.64 74.8694 198.204 72.7894 196.707 71.4929C195.584 70.5182 193.142 69.301 191.678 70.3317C191.491 70.4623 191.046 71.0499 190.864 71.5862C190.817 71.5442 190.77 71.5116 190.719 71.4929C189.709 71.1152 187.968 72.4256 187.674 73.3537C187.529 73.8154 187.753 74.9207 188.277 75.3031C187.505 75.471 186.705 75.9933 186.387 76.6508C185.99 77.467 186.864 78.395 187.636 78.2365C186.303 78.4277 185.106 79.8967 184.572 81.0206C183.543 83.1985 185.438 84.0799 187.356 84.1732C187.463 84.1779 188.764 84.1359 189.755 83.968C189.297 84.537 189.002 85.2925 188.993 86.02C188.965 88.3471 191.177 89.1306 193.142 89.3171C193.343 89.3358 195.453 89.4151 196.744 89.1632C196.763 89.2192 196.791 89.2751 196.828 89.3358C197.783 90.7115 200.94 89.956 202.138 89.4803C202.98 89.1446 205.567 88.1326 204.402 86.8501L204.397 86.8454Z" fill="#C04FA0"/>
<path d="M200.164 76.2079C201.174 74.571 202.068 72.8362 202.577 70.9987C202.807 70.1733 202.966 69.9401 203.56 69.3058C204.088 68.7416 204.57 68 204.734 67.2539C204.954 66.2699 204.668 65.7196 203.78 65.4491C203.349 65.3185 202.685 64.9734 202.273 65.3651C201.969 65.6543 201.955 66.4704 201.885 66.8668C201.763 66.5683 201.45 66.1579 201.188 66.5217C200.935 66.8761 201.478 67.7855 201.576 68.1073C201.6 68.1773 201.618 68.2519 201.632 68.3312C201.08 70.5977 199.803 72.7802 198.512 74.7249C197.254 76.6183 195.841 78.3066 194.152 79.8036C193.722 79.7756 193.254 79.7569 192.777 79.7523L192.843 78.4558C193.582 78.1293 194.218 77.5837 194.55 76.8608C195.023 76.7116 195.518 76.1893 195.621 75.8722C195.827 75.2472 195.238 74.6736 194.761 74.7482C194.616 73.9414 194.251 73.172 193.769 72.6077C193.254 72.0014 191.669 70.8262 190.377 71.8568C189.142 72.3465 188.721 74.2912 188.609 75.3872C188.464 76.8422 188.88 78.3439 190.415 78.7216C190.532 78.7496 190.653 78.7682 190.775 78.7869L190.724 79.8222C190.027 79.8782 189.381 79.9761 188.88 80.1207C187.725 78.4791 186.846 76.7116 186.144 74.7762C185.391 72.6916 184.708 70.3785 184.736 68.0933C184.773 68.0187 184.806 67.9487 184.843 67.8835C185.016 67.5896 185.756 66.7828 185.597 66.4004C185.438 66.0087 185.035 66.3585 184.853 66.6336C184.881 66.2372 185.068 65.4397 184.848 65.1133C184.553 64.6702 183.838 64.9081 183.398 64.9687C182.49 65.0993 182.088 65.5936 182.055 66.5823C182.032 67.3332 182.308 68.126 182.673 68.7555C183.08 69.4644 183.173 69.7116 183.192 70.551C183.23 72.4118 183.66 74.2352 184.221 75.9748C184.9 78.0827 185.629 80.0974 186.794 81.9768C187.023 82.3499 187.243 82.7743 187.482 83.18C187.529 85.4605 188.249 88.4172 189.39 89.252C187.355 91.7423 183.927 102.04 183.927 102.04C183.927 102.04 185.194 111.413 184.703 111.614C184.217 111.814 180.577 112.915 180.577 112.915H186.789C186.789 112.915 187.426 103.112 187.65 102.529C187.875 101.946 190.593 96.308 191.874 94.769C192.581 96.252 193.984 101.191 194.293 102.123C194.606 103.056 201.937 111.124 200.856 111.227C199.775 111.325 196.838 112.728 196.838 112.728H203.649C203.939 111.726 198.175 102.291 198.012 101.839C197.848 101.387 198.218 95.7763 197.362 93.743C196.281 91.178 194.985 89.2939 194.803 88.9022C194.555 88.3659 196.131 83.7396 196.365 81.4032C197.862 79.8129 199.027 78.0547 200.168 76.2079H200.164Z" fill="#CAA0FF"/>
<path d="M197.357 93.7382C196.276 91.1732 194.98 89.2891 194.798 88.8974C194.667 88.6176 195.041 87.1998 195.462 85.5769C195.158 85.5349 194.854 85.493 194.555 85.4603C193.521 85.3484 192.492 85.3111 191.462 85.4836C190.373 85.6655 188.955 85.992 188.024 86.7568C188.352 87.8807 188.815 88.8228 189.385 89.2425C187.351 91.7328 183.922 102.03 183.922 102.03C183.922 102.03 185.189 111.404 184.698 111.604C184.212 111.805 180.572 112.905 180.572 112.905H186.785C186.785 112.905 187.421 103.103 187.645 102.52C187.87 101.937 190.588 96.2985 191.869 94.7595C192.576 96.2425 193.979 101.181 194.288 102.114C194.601 103.047 201.932 111.115 200.851 111.217C199.77 111.315 196.833 112.719 196.833 112.719H203.644C203.934 111.716 198.171 102.282 198.007 101.829C197.843 101.377 198.213 95.7668 197.357 93.7335V93.7382Z" fill="#FF4FD8"/>
<path d="M203.784 65.4441C203.354 65.3135 202.69 64.9684 202.278 65.3601C201.974 65.6493 201.96 66.4654 201.89 66.8618C201.768 66.5633 201.455 66.1529 201.193 66.5167C200.94 66.8711 201.483 67.7805 201.581 68.1023C201.605 68.1723 201.623 68.2469 201.637 68.3262C201.099 70.546 199.864 72.682 198.597 74.594C198.929 74.8132 199.275 75.0091 199.645 75.177C199.958 75.3169 200.243 75.4428 200.561 75.5547C201.408 74.109 202.143 72.5933 202.582 70.9984C202.811 70.173 202.971 69.9398 203.565 69.3055C204.093 68.7412 204.575 67.9997 204.739 67.2536C204.959 66.2695 204.673 65.7192 203.784 65.4487V65.4441Z" fill="#C984FF"/>
<path d="M183.192 70.5461C183.22 71.8846 183.449 73.2044 183.786 74.4869C183.838 74.4589 183.894 74.4309 183.945 74.4029C184.291 74.235 184.647 74.0671 184.979 73.8666C185.232 73.7127 185.442 73.5029 185.643 73.2883C185.115 71.6188 184.717 69.8466 184.74 68.0884C184.778 68.0138 184.811 67.9439 184.848 67.8786C185.021 67.5848 185.76 66.778 185.601 66.3956C185.442 66.0038 185.04 66.3536 184.857 66.6287C184.885 66.2323 185.073 65.4349 184.853 65.1084C184.558 64.6654 183.842 64.9032 183.403 64.9638C182.495 65.0944 182.093 65.5888 182.06 66.5774C182.037 67.3283 182.313 68.1211 182.677 68.7507C183.084 69.4595 183.178 69.7067 183.197 70.5461H183.192Z" fill="#C984FF"/>
<path d="M189.91 89.308C190.148 89.4152 190.42 89.4805 190.672 89.4805C191.243 89.4805 191.818 89.1494 192.31 88.8323C192.95 88.4172 193.512 87.9042 194.125 87.4565C194.433 87.2327 194.779 86.9902 195.154 86.8083C195.448 85.6331 195.855 84.1594 196.117 82.8909C196.024 82.8303 195.926 82.7696 195.837 82.7043C195.238 82.2566 194.747 81.7017 194.326 81.0861C194.125 80.7969 193.942 80.4938 193.774 80.1813C193.704 80.0461 193.629 79.9155 193.573 79.7803C193.526 79.7803 193.474 79.7803 193.423 79.7803C192.918 80.2746 192.165 80.5311 191.467 80.4938C190.972 80.4705 190.429 80.2699 190.153 79.8875C189.942 79.9155 189.737 79.9435 189.545 79.9808C189.493 80.0414 189.442 80.1021 189.395 80.1627C189.096 80.5451 188.796 80.9182 188.525 81.3193C188.263 81.711 188.006 82.1214 187.837 82.5644C187.758 82.7696 187.683 82.9842 187.636 83.1987C187.594 83.3945 187.59 83.5858 187.538 83.7816C187.533 83.8003 187.524 83.8189 187.515 83.8376C187.641 85.6331 188.142 87.6664 188.899 88.739C189.269 88.8323 189.568 89.1634 189.91 89.3173V89.308Z" fill="#C984FF"/>
<path d="M189.483 76.4688C189.483 76.4688 191.855 76.7579 192.515 76.6506C192.515 76.6506 191.383 77.6673 190.653 77.5227C189.923 77.3781 189.483 76.4688 189.483 76.4688Z" fill="white"/>
<path d="M192 70.8262C191.153 70.0707 188.931 71.1667 189.086 72.3372C189.147 72.8036 190.12 73.5171 190.606 73.5731C191.06 73.6244 191.392 73.1487 191.476 72.743C190.952 74.8882 194.676 75.8909 194.667 73.5824C194.662 72.272 193.689 70.8589 191.995 70.8262H192Z" fill="#C04FA0"/>
</g>
<path d="M82.0225 135.23H78.9912L81.2834 125.786H86.6115L82.0225 135.23Z" fill="#000B67"/>
<path d="M206.118 135.23H209.154L206.857 125.786H201.529L206.118 135.23Z" fill="#000B67"/>
<g style="mix-blend-mode:multiply" opacity="0.71">
<path d="M117.687 67.8691H170.454C177.176 67.8691 182.635 73.3115 182.635 80.0131V82.4755C182.635 89.177 177.176 94.6194 170.454 94.6194H117.687C110.965 94.6194 105.506 89.177 105.506 82.4755V80.0131C105.506 73.3115 110.965 67.8691 117.687 67.8691Z" fill="#3831A4"/>
</g>
<path d="M163.662 53.1006L202.793 53.1006C204.611 53.1006 206.086 51.6307 206.086 49.8174V48.8334C206.086 47.0202 204.611 45.5503 202.793 45.5503L163.662 45.5503C161.843 45.5503 160.369 47.0202 160.369 48.8334V49.8174C160.369 51.6307 161.843 53.1006 163.662 53.1006Z" fill="white"/>
<path d="M179.403 52.1577C180.652 50.227 181.868 48.2776 183.126 46.3516H201.843C203.489 46.3516 204.822 47.6807 204.822 49.3223C204.822 50.9638 203.489 52.293 201.843 52.293H179.318C179.346 52.2463 179.379 52.2044 179.407 52.1577H179.403Z" fill="#7FF3FF"/>
<path d="M82.6306 53.0996L121.761 53.0996C123.58 53.0996 125.055 51.6297 125.055 49.8165V48.8324C125.055 47.0192 123.58 45.5493 121.761 45.5493L82.6306 45.5493C80.8118 45.5493 79.3374 47.0192 79.3374 48.8324V49.8165C79.3374 51.6297 80.8118 53.0996 82.6306 53.0996Z" fill="white"/>
<path d="M146.276 55.6242C149.458 54.4084 151.049 50.8512 149.83 47.6789C148.61 44.5067 145.042 42.9207 141.86 44.1365C138.678 45.3523 137.087 48.9095 138.307 52.0817C139.526 55.254 143.094 56.84 146.276 55.6242Z" fill="#CAA0FF"/>
<g style="mix-blend-mode:overlay" opacity="0.43">
<path d="M131.159 99.4887C126.551 91.0009 122.187 82.3873 117.598 73.8903C113.004 65.3886 108.312 56.9428 103.644 48.4831C101.847 45.2279 100.21 41.8515 98.4746 38.5264H71.9414V66.7737C73.1343 68.5458 74.3038 70.3273 75.4779 72.1088C79.6647 78.4606 83.7438 84.8823 87.7715 91.3321C91.7851 97.7585 95.9812 104.078 100.06 110.467C102.933 114.967 105.781 119.486 108.7 123.958H144.814C140.178 115.848 135.613 107.697 131.159 99.4887Z" fill="white"/>
<path d="M210.703 123.958H185.966C185.536 123.212 185.101 122.471 184.67 121.725C174.627 104.404 165.28 86.6452 156.013 68.9003C150.947 59.1953 146.222 49.2666 141.381 39.4451C141.231 39.142 141.081 38.8342 140.932 38.5264H171.773C173.406 41.5437 175.029 44.5704 176.634 47.6017C181.297 56.4205 185.788 65.3419 189.863 74.4499C194.115 83.9636 197.876 93.6872 201.908 103.299C203.597 107.314 205.333 111.311 207.077 115.303C208.125 118.264 209.388 121.114 210.703 123.958Z" fill="white"/>
</g>
<path d="M229.591 138.094H58.5527V169.843H229.591V138.094Z" fill="#E4C8FF"/>
<path d="M231.388 135.021H56.7568V138.094H231.388V135.021Z" fill="#E0B8FF"/>
<path d="M223.636 142.464H174.172V166.444H223.636V142.464Z" fill="#ECA0FF"/>
<path d="M113.972 142.464H64.5078V166.444H113.972V142.464Z" fill="#ECA0FF"/>
<path d="M221.775 146.997H216.297V166.509H221.775V146.997Z" fill="white"/>
<path d="M216.695 150.914H212.288V166.509H216.695V150.914Z" fill="#E0B8FF"/>
<path d="M209.472 166.509L206.876 165.786L209.762 152.122L212.359 152.85L209.472 166.509Z" fill="white"/>
<path d="M197.861 152.527C198.497 150.923 198.844 148.955 197.861 148.591C196.729 148.176 195.49 150.336 195.148 151.044C195.031 151.287 194.905 151.553 194.788 151.833C194.816 151.487 194.844 151.156 194.867 150.844C194.952 149.851 195.195 147.551 194.138 146.903C192.917 146.152 191.757 148.176 191.42 149.039C191.092 149.874 191.041 150.751 191.069 151.632C190.943 150.401 190.615 148.983 189.694 149.137C187.897 149.435 189.132 153.829 189.301 154.929C189.011 153.973 186.957 148.834 185.722 150.578C184.927 151.702 185.03 153.232 185.516 154.453C186.578 157.121 189.506 158.385 192.224 158.525C193.497 158.59 195.022 158.506 196.13 157.83C197.552 156.958 198.446 155.312 198.97 153.777C199.489 152.238 198.689 152.098 197.871 152.537L197.861 152.527Z" fill="#7FF3FF"/>
<path d="M199.096 158.096H185.647V166.509H199.096V158.096Z" fill="#6154DB"/>
<path d="M199.887 156.039H184.856V158.403H199.887V156.039Z" fill="#E0B8FF"/>
<path d="M105.796 166.509H69.1631L69.7899 161.594L70.253 157.942H104.711L105.174 161.594L105.796 166.509Z" fill="#6154DB"/>
<path d="M99.6821 157.942H74.9453V162.564H99.6821V157.942Z" fill="#000B67"/>
<path d="M78.8371 159.934C78.8371 160.386 78.4675 160.755 78.0137 160.755C77.56 160.755 77.1904 160.386 77.1904 159.934C77.1904 159.482 77.56 159.113 78.0137 159.113C78.4675 159.113 78.8371 159.482 78.8371 159.934Z" fill="#3FE2FF"/>
<path d="M84.5952 160.279H80.4646C80.2401 160.279 80.0576 160.097 80.0576 159.874C80.0576 159.65 80.2401 159.468 80.4646 159.468H84.5952C84.8197 159.468 85.0022 159.65 85.0022 159.874C85.0022 160.097 84.8197 160.279 84.5952 160.279Z" fill="#3FE2FF"/>
<path d="M144.07 210.276C184.609 210.276 217.471 203.536 217.471 195.222C217.471 186.908 184.609 180.168 144.07 180.168C103.532 180.168 70.6689 186.908 70.6689 195.222C70.6689 203.536 103.532 210.276 144.07 210.276Z" fill="#6154DB"/>
<path d="M144.07 203.947C174.662 203.947 199.461 199.176 199.461 193.291C199.461 187.406 174.662 182.635 144.07 182.635C113.478 182.635 88.6787 187.406 88.6787 193.291C88.6787 199.176 113.478 203.947 144.07 203.947Z" fill="#3831A4"/>
<path d="M144.07 200.151C167.591 200.151 186.658 196.919 186.658 192.932C186.658 188.945 167.591 185.713 144.07 185.713C120.55 185.713 101.482 188.945 101.482 192.932C101.482 196.919 120.55 200.151 144.07 200.151Z" fill="#6154DB"/>
<path d="M145.226 194.663C140.361 194.719 134.827 194.999 130.28 193.227C123.006 190.387 116.864 186.796 110.708 181.866C106.558 178.541 100.701 173.514 102.573 167.521C104.294 162.013 111.465 164.159 115.273 165.866C119.137 167.596 122.692 169.946 126.364 172.026C129.611 173.864 134.153 175.757 136.548 178.718C139.191 178.471 141.816 178.844 144.505 178.798C147.803 178.742 151.298 178.247 154.427 177.249C159.653 175.584 163.933 172.87 168.316 169.862C173.204 166.505 179.244 163.301 185.236 163.151C190.022 163.035 192.178 166.365 191.64 171.014C190.99 176.592 186.363 180.826 182.397 184.249C176.147 189.636 168.246 191.893 160.457 193.945C157.627 194.691 147.177 194.645 145.226 194.668V194.663Z" fill="#000B67"/>
<path d="M154.75 120.517C155.401 122.419 155.387 124.513 155.27 126.495C155.101 129.322 154.821 132.381 153.754 135.142C152.996 137.11 151.116 137.795 148.674 137.991C146.208 138.187 143.261 137.749 141.446 136.448C137.442 133.575 137.732 128.468 140.188 124.775C141.292 123.119 142.967 121.519 144.819 120.335C146.204 119.449 148.108 118.455 149.932 118.535C151.972 118.623 154.03 119.346 154.746 120.521L154.75 120.517Z" fill="#FFC27C"/>
<path d="M124.447 130.846C124.222 130.394 123.848 129.993 123.469 129.704C120.793 127.628 116.611 126.934 113.753 128.37C111.129 129.69 108.439 132.931 107.447 135.664C107.008 136.872 107.485 138.495 107.962 139.688C108.49 141.013 109.697 141.96 110.965 142.617C111.868 143.088 112.827 143.443 113.814 143.681C114.764 143.909 116.223 143.904 116.298 142.603C116.335 141.899 115.858 141.311 115.386 140.845C115.119 140.584 114.862 140.332 114.633 140.057C114.647 139.842 114.684 139.633 114.754 139.437C115.376 137.674 117.201 136.708 118.221 135.216C118.599 134.661 118.847 134.06 119.254 133.528C119.516 133.187 119.764 132.828 120.031 132.488C120.569 132.404 121.14 132.418 121.64 132.474C122.389 132.563 124.133 132.898 124.578 132.031C124.653 131.886 124.667 131.714 124.653 131.551C124.629 131.308 124.554 131.075 124.442 130.851L124.447 130.846Z" fill="#000B67"/>
<path d="M116.312 129.242C116.382 129.452 116.256 129.685 116.027 129.759C115.798 129.834 115.554 129.727 115.484 129.517C115.414 129.307 115.54 129.074 115.77 128.999C115.999 128.925 116.242 129.032 116.312 129.242Z" fill="#3FE2FF"/>
<path d="M118.183 128.659C118.253 128.869 118.127 129.102 117.898 129.176C117.669 129.251 117.425 129.144 117.355 128.934C117.285 128.724 117.411 128.491 117.641 128.416C117.87 128.342 118.113 128.449 118.183 128.659Z" fill="#FFC27C"/>
<path d="M116.733 130.613C116.803 130.823 116.677 131.056 116.448 131.131C116.219 131.205 115.975 131.098 115.905 130.888C115.835 130.678 115.961 130.445 116.19 130.37C116.42 130.296 116.663 130.403 116.733 130.613Z" fill="#FF77D1"/>
<path d="M118.628 129.978C118.698 130.188 118.571 130.421 118.342 130.496C118.113 130.57 117.87 130.463 117.8 130.253C117.729 130.043 117.856 129.81 118.085 129.736C118.314 129.661 118.557 129.768 118.628 129.978Z" fill="#0095A0"/>
<path d="M118.478 131.755C118.707 132.287 118.464 132.898 117.936 133.126C117.407 133.35 116.799 133.103 116.57 132.576C116.34 132.049 116.584 131.433 117.112 131.205C117.641 130.981 118.249 131.228 118.478 131.755Z" fill="#384CA4"/>
<path d="M114.914 135.351C115.143 135.882 114.9 136.493 114.371 136.722C113.843 136.95 113.234 136.698 113.005 136.171C112.776 135.644 113.019 135.029 113.548 134.8C114.076 134.576 114.685 134.824 114.914 135.351Z" fill="#384CA4"/>
<path d="M108.823 135.79C108.729 135.916 108.888 136.308 108.931 136.443C108.963 136.555 109.038 136.76 109.164 136.807C109.398 136.895 109.712 136.527 109.815 136.354C109.894 136.219 110.081 135.991 109.983 135.86C109.871 135.715 109.52 135.687 109.352 135.645C109.146 135.594 108.945 135.58 108.823 135.79Z" fill="#384CA4"/>
<path d="M111.948 137.711C112.022 137.552 111.737 137.118 111.662 136.974C111.601 136.857 111.48 136.657 111.335 136.619C111.077 136.554 110.811 136.955 110.727 137.151C110.661 137.305 110.488 137.575 110.614 137.72C110.759 137.883 111.162 137.888 111.367 137.93C111.615 137.977 111.859 137.981 111.948 137.711Z" fill="#384CA4"/>
<path d="M111.279 135.109C111.138 135.043 110.745 135.263 110.61 135.323C110.498 135.375 110.306 135.472 110.259 135.594C110.179 135.818 110.554 136.065 110.731 136.144C110.876 136.205 111.129 136.363 111.265 136.247C111.419 136.116 111.424 135.766 111.461 135.589C111.503 135.384 111.503 135.188 111.274 135.109H111.279Z" fill="#384CA4"/>
<path d="M108.992 138.508C109.137 138.606 109.595 138.359 109.75 138.294C109.876 138.238 110.101 138.131 110.157 137.981C110.25 137.716 109.871 137.408 109.689 137.315C109.549 137.24 109.315 137.063 109.165 137.179C108.997 137.31 108.936 137.702 108.87 137.902C108.791 138.145 108.753 138.392 108.992 138.513V138.508Z" fill="#384CA4"/>
<path d="M113.346 146.964C111.447 146.922 109.267 145.481 108.266 143.923C107.943 143.42 107.443 141.186 108.018 140.416C108.13 140.267 108.369 140.295 108.458 140.463C108.986 141.452 110.198 142.538 110.979 141.746C112.093 140.612 111.807 139.381 111.428 138.122C111.199 137.352 111.077 136.317 111.76 136.042C112.28 135.832 113.136 136.769 113.374 137.166C113.66 137.637 113.777 138.169 113.856 138.696C113.996 139.628 114.333 140.524 114.82 141.33C115.428 142.338 115.774 143.07 115.816 144.213C115.84 144.889 115.914 145.854 115.442 146.404C115.002 146.913 113.931 147.202 113.342 146.964H113.346Z" fill="#FFC27C"/>
<path d="M183.37 105.03C183.037 105.491 181.863 107.371 180.624 109.381C179.482 111.232 178.289 113.195 177.653 114.263C177.616 114.319 177.583 114.371 177.555 114.422C177.082 115.215 176.615 116.012 176.156 116.814C175.151 118.563 174.173 120.335 173.237 122.131C172.704 123.143 172.189 124.16 171.684 125.176C170.613 127.349 169.598 129.551 168.658 131.766C168.587 131.929 168.517 132.097 168.447 132.26C167.872 133.622 167.301 134.984 166.726 136.345C165.87 138.383 165.009 140.412 164.134 142.441C163.559 143.789 162.974 145.132 162.38 146.47C160.911 149.795 159.395 153.097 157.795 156.362C157.931 156.082 156.429 154.608 155.709 153.89C155.531 153.713 155.41 153.587 155.358 153.526C155.255 153.405 155.152 153.284 155.054 153.162C154.413 152.398 153.777 151.6 153.202 150.765C152.645 149.963 152.145 149.119 151.742 148.238C150.227 144.894 151.382 142.217 152.79 139.097C153.81 136.844 154.989 134.676 156.247 132.545C156.565 131.999 156.888 131.458 157.22 130.922C158.109 129.457 159.021 128.007 159.924 126.552C160.312 125.932 160.7 125.311 161.093 124.691C161.496 124.057 161.903 123.427 162.319 122.798C163.573 120.867 164.864 118.96 166.202 117.08C166.618 116.483 167.044 115.896 167.474 115.308C168.714 113.606 169.991 111.932 171.31 110.295C171.759 109.735 172.213 109.18 172.676 108.63C173.99 107.049 175.347 105.505 176.755 104.008C177.48 103.225 178.229 102.451 178.986 101.69C180.404 102.427 182.022 104.479 183.374 105.03H183.37Z" fill="#7FF3FF"/>
<path d="M163.376 176.28C163.343 176.984 163.235 178.35 162.725 179.978C161.411 184.156 157.435 190.046 145.258 190.751C128.347 191.73 126.383 180.197 126.49 177.693C126.523 176.862 126.691 176.275 127.028 175.687C127.356 175.118 127.847 174.549 128.53 173.771C128.881 173.369 129.283 172.912 129.741 172.367C130.186 171.84 130.677 171.234 131.229 170.52C131.285 170.445 131.346 170.371 131.402 170.296C132.169 169.294 132.623 167.936 132.857 166.439C132.965 165.777 133.025 165.087 133.058 164.387C133.133 162.489 132.974 160.512 132.745 158.791C132.628 157.928 132.497 157.131 132.37 156.445C132.09 154.948 131.837 153.978 131.837 153.978C131.837 153.978 135.004 147.235 143.186 147.668C147.78 147.911 151.138 149.459 153.197 150.765C154.806 151.791 155.624 152.673 155.624 152.673C155.624 152.673 155.634 152.798 155.648 153.041C155.662 153.246 155.676 153.531 155.704 153.885C155.751 154.552 155.821 155.461 155.919 156.553C156.013 157.649 156.139 158.931 156.293 160.33C156.429 161.599 156.593 162.965 156.789 164.373C156.831 164.714 156.878 165.054 156.93 165.399C157.131 166.817 157.533 168.011 158.038 169.028C158.548 170.058 159.17 170.912 159.802 171.649C161.519 173.645 163.338 174.764 163.366 176.172C163.366 176.205 163.366 176.242 163.366 176.28H163.376Z" fill="#7FF3FF"/>
<path d="M130.495 160.694C129.316 161.842 127.861 162.849 126.299 163.702C125.382 164.211 124.428 164.663 123.464 165.064C121.86 165.736 120.236 166.258 118.763 166.622C117.696 166.888 116.705 167.069 115.849 167.163C114.651 167.293 113.72 167.256 113.22 167.042C111.04 166.104 110.988 163.25 110.675 161.273C110.548 160.489 110.45 159.706 110.375 158.913C110.301 158.125 110.249 157.332 110.226 156.539C110.184 155.126 110.216 153.718 110.329 152.314C110.366 151.843 110.413 151.377 110.464 150.906C110.539 150.285 110.619 149.665 110.722 149.045C110.754 148.835 110.792 148.634 110.834 148.429C110.974 147.73 111.185 147.021 111.624 146.447C112.546 145.249 114.136 145.197 115.521 145.23C115.629 145.23 115.741 145.305 115.764 145.412C115.806 145.612 115.849 145.813 115.891 146.013C116.073 146.881 116.237 147.758 116.377 148.63C116.41 148.807 116.438 148.989 116.466 149.166C116.555 149.749 116.639 150.337 116.709 150.924C116.822 151.81 116.91 152.701 116.981 153.592C116.999 153.788 117.013 153.983 117.027 154.179C117.065 154.72 117.098 155.261 117.121 155.798C117.135 156.059 117.135 156.325 117.144 156.586C117.79 156.222 118.421 155.854 119.044 155.485C119.572 155.173 120.096 154.856 120.615 154.538C121.359 154.095 122.094 153.648 122.833 153.2C124.578 152.137 126.355 151.083 128.278 150.061C128.961 149.698 129.798 149.194 130.832 148.648C130.645 148.746 131.29 154.926 131.248 155.62C131.145 157.285 131.81 159.421 130.495 160.694Z" fill="#7FF3FF"/>
<g style="mix-blend-mode:multiply">
<path d="M126.299 163.702C125.382 164.21 124.428 164.662 123.464 165.063C123.151 164.504 122.898 163.925 122.706 163.506C121.874 161.715 121.27 159.812 120.924 157.867C120.728 156.767 120.629 155.652 120.615 154.538C121.359 154.095 122.093 153.647 122.833 153.199C123.015 155.704 123.604 158.18 124.582 160.502C124.769 160.95 125.663 162.331 126.299 163.702Z" fill="#7FF3FF"/>
</g>
<g style="mix-blend-mode:multiply">
<path d="M142.976 177.74C137.985 177.633 133.185 175.721 129.742 172.367C130.187 171.84 130.678 171.234 131.23 170.521C134.687 173.319 139.196 174.881 143.636 174.783C147.434 174.695 151.125 173.449 154.376 171.523C155.653 170.772 156.879 169.938 158.044 169.028C158.553 170.059 159.176 170.912 159.807 171.649C158.268 172.852 156.565 173.85 155.288 174.545C151.546 176.583 147.266 177.833 142.976 177.74Z" fill="#7FF3FF"/>
</g>
<g style="mix-blend-mode:multiply">
<path d="M163.376 176.28C163.343 176.984 163.235 178.35 162.726 179.978C161.107 181.358 159.348 182.575 157.482 183.611C153.131 186.031 148.158 187.467 143.144 187.192C135.968 186.801 129.049 182.342 127.028 175.687C127.356 175.118 127.847 174.549 128.53 173.771C130.64 180.575 137.872 184.758 145.066 184.52C149.487 184.371 153.706 182.818 157.439 180.509C159.301 179.357 161.102 178.047 162.796 176.662C162.987 176.503 163.179 176.34 163.371 176.172C163.371 176.205 163.371 176.242 163.371 176.28H163.376Z" fill="#7FF3FF"/>
</g>
<g style="mix-blend-mode:multiply">
<path d="M164.134 142.441C163.558 143.789 162.974 145.132 162.38 146.47C162.033 144.6 161.547 142.763 160.887 140.972C159.774 137.959 158.188 135.114 156.242 132.545C156.56 131.999 156.883 131.458 157.215 130.922C159.69 133.599 161.678 136.639 163.142 140.025C163.456 140.748 163.802 141.564 164.134 142.441Z" fill="#7FF3FF"/>
</g>
<g style="mix-blend-mode:multiply">
<path d="M168.658 131.766C168.588 131.929 168.517 132.097 168.447 132.26C167.872 133.622 167.301 134.984 166.726 136.346C166.445 134.839 166.01 133.361 165.477 131.934C164.48 129.257 162.941 126.851 161.089 124.691C161.491 124.057 161.898 123.427 162.314 122.798C164.85 124.966 166.833 127.69 168.232 130.777C168.368 131.076 168.513 131.411 168.658 131.766Z" fill="#7FF3FF"/>
</g>
<g style="mix-blend-mode:multiply">
<path d="M173.238 122.13C172.704 123.142 172.19 124.159 171.684 125.176C171.39 124.136 170.945 123.096 170.281 122.009C169.158 120.176 167.727 118.577 166.197 117.08C166.614 116.483 167.039 115.895 167.47 115.308C169.603 117.215 171.596 119.295 173.036 121.781C173.102 121.897 173.167 122.014 173.238 122.13Z" fill="#7FF3FF"/>
</g>
<g style="mix-blend-mode:multiply">
<path d="M177.653 114.263C177.615 114.319 177.582 114.371 177.554 114.422C177.082 115.215 176.614 116.012 176.156 116.814C176.062 116.609 175.964 116.404 175.861 116.204C174.715 113.937 173.176 111.955 171.305 110.295C171.754 109.735 172.208 109.18 172.671 108.63C174.635 110.206 176.324 112.1 177.653 114.263Z" fill="#7FF3FF"/>
</g>
<g style="mix-blend-mode:multiply">
<path d="M183.369 105.03C183.037 105.491 181.863 107.371 180.623 109.381C179.711 107.343 178.364 105.538 176.75 104.008C177.475 103.225 178.224 102.451 178.981 101.69C180.399 102.427 182.017 104.479 183.369 105.03Z" fill="#7FF3FF"/>
</g>
<g style="mix-blend-mode:multiply">
<path d="M116.377 148.629C115.647 148.839 114.931 149.035 114.37 149.329C112.854 150.126 111.643 151.283 110.328 152.313C110.366 151.842 110.412 151.376 110.464 150.905C110.539 150.285 110.618 149.664 110.721 149.044C111.498 148.368 112.358 147.799 113.196 147.328C113.921 146.917 114.889 146.372 115.89 146.013C116.073 146.88 116.236 147.757 116.377 148.629Z" fill="#7FF3FF"/>
</g>
<g style="mix-blend-mode:multiply">
<path d="M116.981 153.591C116.115 154.17 115.236 154.72 114.487 155.326C113.07 156.473 111.694 157.658 110.375 158.913C110.3 158.124 110.249 157.332 110.226 156.539C111.208 155.508 112.237 154.529 113.336 153.629C114.337 152.803 115.484 151.726 116.709 150.924C116.821 151.81 116.91 152.701 116.981 153.591Z" fill="#7FF3FF"/>
</g>
<g style="mix-blend-mode:multiply">
<path d="M118.599 165.749C118.65 166.048 118.707 166.337 118.763 166.621C117.696 166.887 116.704 167.069 115.848 167.162C115.198 164.737 115.395 161.795 115.647 159.682C115.876 157.779 116.321 155.928 117.027 154.184C117.065 154.72 117.097 155.261 117.121 155.797C117.135 156.058 117.135 156.324 117.144 156.585C117.79 156.222 118.421 155.853 119.043 155.485C118.618 157.094 118.328 158.735 118.243 160.437C118.159 162.214 118.29 164 118.599 165.749Z" fill="#7FF3FF"/>
</g>
<g style="mix-blend-mode:multiply">
<path d="M156.794 164.373C156.013 164.844 155.213 165.232 154.586 165.525C152.065 166.719 149.37 167.531 146.615 167.964C142.012 168.692 137.147 168.281 132.857 166.439C132.965 165.777 133.026 165.087 133.059 164.387C137.479 165.213 141.923 165.385 146.381 164.443C148.931 163.902 151.345 163.007 153.655 161.822C154.455 161.407 155.358 160.768 156.298 160.33C156.434 161.599 156.598 162.965 156.794 164.373Z" fill="#7FF3FF"/>
</g>
<g style="mix-blend-mode:multiply">
<path d="M155.924 156.553C152.397 158.493 147.719 159.164 143.869 159.425C140.403 159.659 136.282 159.752 132.745 158.791C132.628 157.928 132.497 157.131 132.371 156.445C136.132 156.287 139.884 156.651 143.678 156.063C147.785 155.424 151.611 153.811 155.648 153.041C155.662 153.246 155.676 153.531 155.705 153.885C155.751 154.552 155.821 155.461 155.92 156.553H155.924Z" fill="#7FF3FF"/>
</g>
<path d="M187.654 96.9611C187.612 96.4947 187.687 96.117 187.355 95.7252C187.079 95.3988 186.63 95.3568 186.373 95.021C186.097 94.6619 186.218 94.3401 185.774 93.9904C185.395 93.6966 185.035 93.5846 184.576 93.524C183.453 93.3841 182.513 94.8485 181.713 95.4314C181.175 94.9324 180.034 94.7272 179.618 95.6879C179.332 96.3501 179.772 97.7306 179.903 98.3881C180.006 98.9151 180.067 99.4654 180.151 100.011C179.936 100.403 179.697 100.785 179.407 101.135C179.098 101.503 178.776 101.862 178.49 102.254C179.009 102.907 179.533 103.574 180.174 104.11C180.782 104.623 181.671 105.094 182.462 105.444C182.499 105.463 182.527 105.472 182.546 105.481C182.565 105.491 182.597 105.5 182.644 105.519C182.719 105.547 182.789 105.575 182.864 105.603C183.584 104.721 184.506 103.616 184.857 103.248C185.895 102.166 187.617 100.804 188.047 99.2835C188.253 98.5467 187.715 97.7166 187.65 96.9657L187.654 96.9611Z" fill="#FFC27C"/>
<path d="M170.814 159.719C167.998 162.345 164.499 164.406 160.934 165.847C159.521 166.421 158.081 166.906 156.616 167.321C151.415 168.794 145.96 169.531 140.492 169.55C140.365 169.555 140.239 169.555 140.117 169.555C133.049 169.541 125.967 168.342 119.361 166.001C119.259 165.964 119.16 165.931 119.057 165.894C117.813 165.446 116.583 164.956 115.376 164.425C114.852 164.196 110.497 161.841 110.366 161.967C110.403 161.93 110.441 161.888 110.478 161.85C109.379 161.328 108.261 160.582 107.681 159.64C110.118 159.486 111.18 159.09 111.849 156.492C112.242 154.967 112.447 153.778 113.481 152.523C114.721 151.026 117.724 151.036 118.332 148.993C118.716 147.706 117.682 146.619 117.228 145.505C116.756 144.343 116.573 143.066 116.882 141.834C117.406 139.736 118.763 137.842 120.386 136.439C122.865 134.303 126.682 133.911 128.605 131.15C130.378 128.608 129.19 125.834 129.157 123.045C129.12 119.911 130.593 116.586 132.984 114.534C133.774 113.853 135.43 112.771 136.805 112.734C136.642 111.507 136.557 110.742 137.806 109.74C138.826 108.923 140.019 108.294 141.277 107.935C147.789 106.083 154.974 110.467 157.089 116.698C157.627 118.279 157.875 119.971 157.767 121.683C157.66 123.432 157.486 126.547 156.219 126.999C154.951 127.452 153.702 126.295 153.482 125.353C150.245 126.547 151.209 130.805 151.91 132.852C152.388 134.237 153.281 135.431 154.123 136.63C154.974 137.847 155.69 139.087 156.097 140.524C156.518 142.012 156.289 143.299 156.256 144.8C156.242 145.323 156.228 145.859 156.228 146.419C156.214 149.371 158.768 149.534 161.168 150.019C163.788 150.546 165.345 152.048 166.211 154.557C166.683 155.918 166.557 159.192 167.675 160.185C168.489 160.908 170.037 160.26 170.814 159.719Z" fill="black"/>
<path d="M148.416 116.843C146.573 120.256 143.368 122.649 139.677 123.763C139.631 123.777 139.649 123.843 139.696 123.833C142.625 123.19 145.291 121.366 147.125 119.016C147.644 118.349 148.102 117.635 148.491 116.885C148.519 116.833 148.444 116.791 148.416 116.843Z" fill="#383838"/>
<path d="M151.428 121.222C151.274 122.057 150.586 122.607 149.899 123.027C149.132 123.498 148.313 123.89 147.476 124.221C145.801 124.883 144.033 125.228 142.241 125.382C142.194 125.382 142.19 125.456 142.241 125.456C144.15 125.456 146.058 125.013 147.812 124.277C148.65 123.922 149.487 123.502 150.236 122.985C150.844 122.56 151.405 122.01 151.531 121.255C151.541 121.189 151.442 121.161 151.428 121.227V121.222Z" fill="#383838"/>
<path d="M150.137 128.805C148.285 129.276 146.334 129.323 144.468 128.912C143.551 128.712 142.662 128.395 141.815 127.994C140.95 127.578 140.201 127.037 139.415 126.492C139.369 126.459 139.322 126.529 139.359 126.566C140.37 127.606 141.811 128.32 143.172 128.777C144.613 129.262 146.152 129.481 147.672 129.393C148.523 129.341 149.356 129.192 150.17 128.94C150.254 128.912 150.221 128.786 150.133 128.805H150.137Z" fill="#383838"/>
<path d="M132.88 126.109C132.74 126.286 132.609 126.468 132.45 126.626C132.282 126.794 132.09 126.939 131.884 127.06C131.482 127.307 131.023 127.457 130.551 127.489C130.485 127.489 130.481 127.597 130.551 127.597C131.037 127.569 131.51 127.424 131.931 127.181C132.333 126.948 132.745 126.589 132.951 126.169C132.969 126.127 132.913 126.072 132.88 126.113V126.109Z" fill="#383838"/>
<path d="M134.523 123.082C133.76 122.131 133.204 121.026 132.9 119.85C132.596 118.675 132.6 117.519 132.698 116.315C132.698 116.269 132.628 116.259 132.619 116.306C132.338 117.477 132.465 118.782 132.773 119.934C133.091 121.119 133.657 122.219 134.434 123.171C134.481 123.231 134.57 123.148 134.518 123.087L134.523 123.082Z" fill="#383838"/>
<path d="M132.408 124.095C131.276 123.316 130.518 122.075 130.495 120.685C130.495 120.606 130.373 120.606 130.373 120.685C130.392 122.071 131.14 123.484 132.361 124.174C132.417 124.206 132.459 124.127 132.408 124.09V124.095Z" fill="#383838"/>
<path d="M154.24 118.815C153.946 117.551 153.398 116.339 152.631 115.29C151.101 113.196 148.73 111.885 146.157 111.582C144.655 111.405 143.14 111.587 141.732 112.137C141.699 112.151 141.713 112.207 141.746 112.193C144.187 111.321 146.971 111.503 149.282 112.678C151.579 113.844 153.239 115.98 153.918 118.447C154.292 119.818 154.296 121.194 154.142 122.597C154.133 122.677 154.264 122.691 154.282 122.616C154.61 121.385 154.521 120.046 154.236 118.815H154.24Z" fill="#383838"/>
<path d="M133.98 129.905C133.264 130.493 132.506 131.043 131.88 131.729C131.239 132.428 130.794 133.258 130.56 134.177C129.541 138.197 132.099 142.003 132.244 145.967C132.315 147.846 131.734 149.604 130.682 151.157C129.592 152.762 128.118 154.044 126.612 155.243C123.618 157.626 119.871 160.205 119.361 164.327C119.291 164.906 119.291 165.465 119.361 166.001C119.258 165.964 119.16 165.931 119.057 165.894C118.973 165.143 119.006 164.383 119.174 163.628C120.054 159.668 123.614 157.253 126.584 154.874C128.114 153.652 129.592 152.319 130.649 150.658C131.178 149.828 131.589 148.923 131.8 147.963C132.025 146.951 132.02 145.897 131.88 144.871C131.608 142.833 130.85 140.907 130.42 138.901C130.036 137.111 129.877 135.152 130.546 133.408C130.869 132.573 131.388 131.85 132.029 131.23C132.689 130.6 133.442 130.083 134.139 129.5C135.449 128.404 136.885 126.501 135.935 124.743C135.907 124.696 135.987 124.664 136.01 124.71C136.207 125.041 136.324 125.405 136.352 125.787C136.483 127.508 135.215 128.889 133.98 129.905Z" fill="#383838"/>
<path d="M147.087 160.946C145.221 163.963 142.03 166.328 140.491 169.55C140.365 169.555 140.239 169.555 140.117 169.555C141.698 166.137 145.01 163.772 146.942 160.536C148.098 158.596 148.589 156.329 148.303 154.081C148.018 151.852 146.937 149.926 145.52 148.215C142.924 145.081 139.032 142.175 138.746 137.782C138.592 135.38 139.607 133.119 139.701 130.74C139.771 128.931 139.256 126.827 137.544 125.895C137.511 125.876 137.53 125.82 137.568 125.839C137.918 126.016 138.232 126.24 138.508 126.52C139.719 127.732 140.014 129.644 139.874 131.281C139.668 133.715 138.658 136.075 139.111 138.542C139.916 142.926 144.018 145.584 146.498 148.979C147.775 150.728 148.593 152.729 148.692 154.902C148.79 157.047 148.215 159.123 147.087 160.946Z" fill="#383838"/>
<path d="M143.368 122.308C142.143 119.785 140.243 122.41 138.835 123.805C138.391 123.371 137.778 123.105 137.1 123.105C136.487 123.105 135.93 123.334 135.495 123.697C134.101 122.284 132.268 119.85 131.07 122.308C130.49 123.497 130.195 125.516 130.518 126.817C130.813 128.016 132.118 127.983 133.17 127.839C133.891 127.741 134.616 127.438 135.313 127.172C135.762 127.638 136.393 127.927 137.1 127.927C137.806 127.927 138.489 127.606 138.943 127.102C139.696 127.382 140.482 127.727 141.263 127.834C142.316 127.979 143.621 128.011 143.916 126.813C144.238 125.512 143.939 123.492 143.364 122.303L143.368 122.308Z" fill="#7FF3FF"/>
<path d="M135.243 126.649C135.074 126.299 134.976 125.903 134.962 125.516C134.957 125.325 134.967 125.133 135.004 124.942C135.037 124.751 135.102 124.569 135.135 124.378C135.144 124.317 135.074 124.285 135.037 124.336C134.808 124.658 134.78 125.147 134.798 125.53C134.798 125.53 134.798 125.535 134.798 125.539C134.232 125.772 133.582 125.833 132.993 125.66C132.843 125.618 132.674 125.562 132.572 125.437C132.464 125.311 132.464 125.133 132.604 125.04C132.857 124.872 133.212 125.017 133.493 124.98C133.535 124.975 133.54 124.914 133.493 124.91C133.152 124.896 132.763 124.686 132.459 124.952C132.183 125.194 132.38 125.572 132.656 125.712C132.997 125.884 133.428 125.936 133.807 125.922C134.162 125.908 134.494 125.814 134.812 125.66C134.85 126.029 134.962 126.379 135.144 126.7C135.182 126.766 135.275 126.71 135.243 126.644V126.649Z" fill="#383838"/>
<path d="M141.221 125.013C141.09 125.092 140.973 125.19 140.843 125.264C140.702 125.344 140.552 125.404 140.398 125.442C140.094 125.516 139.781 125.516 139.481 125.428C139.458 125.008 139.332 124.607 139.107 124.248C139.074 124.192 138.99 124.243 139.023 124.299C139.252 124.724 139.322 125.232 139.285 125.712C139.266 125.945 139.215 126.174 139.13 126.393C139.046 126.617 138.906 126.813 138.822 127.037C138.803 127.083 138.868 127.135 138.911 127.107C139.112 126.962 139.219 126.734 139.308 126.51C139.406 126.262 139.463 126.001 139.486 125.74C139.491 125.68 139.486 125.624 139.486 125.563C139.795 125.666 140.127 125.684 140.445 125.61C140.754 125.54 141.128 125.381 141.296 125.101C141.324 125.055 141.268 125.003 141.226 125.027L141.221 125.013Z" fill="#383838"/>
<path d="M153.94 125.04C152.144 125.362 150.605 128.44 152.369 129.857C152.813 130.216 153.711 130.235 154.118 129.843C154.665 129.321 154.53 127.987 154.506 127.278C154.497 126.938 154.591 125.119 153.945 125.035L153.94 125.04Z" fill="#FF8E94"/>
<path d="M154.951 130.818C154.797 129.345 154.778 127.806 155.395 126.462C155.831 125.52 156.616 123.897 154.942 124.047C152.402 124.28 152.238 127.829 152.827 129.718C152.972 130.189 153.323 130.753 153.716 131.051C154.114 131.355 155.031 131.625 154.951 130.814V130.818Z" fill="#FF8E94"/>
<path d="M217.443 130.726C217.691 131.756 217.892 132.801 218.061 133.86C218.458 133.127 218.033 131.91 217.443 130.726Z" fill="white"/>
</g>
</g>
<defs>
<clipPath id="clip0_834_268369">
<rect width="300" height="225" fill="white" transform="translate(0.876953)"/>
</clipPath>
<clipPath id="clip1_834_268369">
<rect width="174.631" height="174.87" fill="white" transform="translate(56.7568 35.4062)"/>
</clipPath>
</defs>
</svg>
