<svg width="301" height="225" viewBox="0 0 301 225" fill="none" xmlns="http://www.w3.org/2000/svg">
<g clip-path="url(#clip0_834_268367)">
<rect x="-25.123" y="160.711" width="353" height="64.7887" fill="#F6DEFF"/>
<rect x="-25.123" y="0.5" width="353" height="161.972" fill="#FBF0FF"/>
<g clip-path="url(#clip1_834_268367)">
<path d="M260.884 159.099C260.877 158.909 260.238 140.071 257.167 137.092C254.181 134.194 250.75 136.983 250.605 137.103L250.298 136.733C250.337 136.701 254.206 133.55 257.503 136.744C260.711 139.856 261.34 158.297 261.364 159.082L260.884 159.096V159.099Z" fill="#E8DAFF"/>
<path d="M261.145 162.8C261.124 162.574 259.045 140.184 267.241 130.8L267.605 131.113C259.542 140.342 261.6 162.529 261.622 162.751L261.142 162.796L261.145 162.8Z" fill="#E8DAFF"/>
<path d="M260.845 160.434L260.365 160.402C260.383 160.149 261.971 134.948 255.956 129.43L256.281 129.078C262.462 134.751 260.912 159.388 260.845 160.434Z" fill="#E8DAFF"/>
<path d="M261.626 160.42H261.146C261.153 159.723 261.343 143.395 265.992 140.737C267.026 140.145 268.04 140.047 269 140.444C271.81 141.603 273.204 146.596 273.264 146.807L272.802 146.934C272.787 146.885 271.411 141.959 268.82 140.888C268.001 140.55 267.132 140.642 266.236 141.152C261.823 143.673 261.629 160.254 261.629 160.42H261.626Z" fill="#E8DAFF"/>
<path d="M259.815 160.43L259.335 160.402C259.342 160.272 260.037 147.501 256.581 142.997C255.745 141.906 254.834 141.388 253.874 141.455C251.607 141.613 249.712 144.92 249.691 144.951L249.271 144.716C249.352 144.571 251.314 141.152 253.838 140.976C254.968 140.895 256.02 141.48 256.962 142.705C260.528 147.346 259.846 159.895 259.815 160.427V160.43Z" fill="#E8DAFF"/>
<path d="M260.574 162.166C260.479 160.926 258.315 131.757 262.123 126.62L262.508 126.905C258.805 131.902 261.029 161.828 261.05 162.131L260.57 162.166H260.574Z" fill="#E8DAFF"/>
<path d="M270.038 143.398C270.038 143.398 267.754 144.239 268.431 146.222C269.109 148.208 276.339 151.472 276.339 151.472C276.339 151.472 279.364 148.704 276.586 144.204C273.808 139.704 270.101 141.979 270.038 143.398Z" fill="#EFDBFF"/>
<path d="M260.104 139.62C260.104 139.62 262.537 139.518 262.678 141.609C262.815 143.701 257.404 149.49 257.404 149.49C257.404 149.49 253.542 148.099 254.372 142.877C255.201 137.655 259.501 138.331 260.104 139.62Z" fill="#EFDBFF"/>
<path d="M258.043 129.606C258.043 129.606 259.667 129.433 259.536 128.447C259.405 127.461 253.228 124.922 249.585 129.028C249.585 129.028 251.918 133.028 255.293 133.077C258.668 133.13 258.046 129.606 258.046 129.606H258.043Z" fill="#EFDBFF"/>
<path d="M261.068 127.211C261.068 127.211 259.599 127.919 259.186 127.014C258.773 126.109 262.67 120.697 267.941 122.257C267.941 122.257 268.082 126.88 265.244 128.704C262.409 130.528 261.068 127.211 261.068 127.211Z" fill="#EFDBFF"/>
<path d="M253.383 142.598C253.383 142.598 254.502 141.697 253.295 141.257C252.088 140.817 246.157 140.94 246.094 146.802C246.094 146.802 253.002 147.947 253.856 145.714C254.71 143.482 253.383 142.598 253.383 142.598Z" fill="#EFDBFF"/>
<path d="M267.468 129.458C267.468 129.458 266.349 128.556 267.556 128.116C268.763 127.676 274.694 127.799 274.757 133.662C274.757 133.662 267.849 134.806 266.995 132.574C266.14 130.341 267.468 129.458 267.468 129.458Z" fill="#EFDBFF"/>
<path d="M263.818 134.179C263.818 134.179 263.72 133.084 264.606 133.514C265.492 133.944 268.584 137.271 265.379 140.426C265.379 140.426 261.065 137.239 261.842 135.581C262.618 133.922 263.815 134.179 263.815 134.179H263.818Z" fill="#EFDBFF"/>
<path d="M252.384 135.739C252.384 135.739 253.055 134.862 252.073 134.757C251.092 134.648 246.701 135.817 247.721 140.193C247.721 140.193 253.072 139.792 253.302 137.975C253.531 136.158 252.381 135.739 252.381 135.739H252.384Z" fill="#EFDBFF"/>
<path d="M266.126 168.87H255.331L252.458 155.655H268.724L266.126 168.87Z" fill="#D2C7FF"/>
<path d="M269.663 155.465H251.48V159.264H269.663V155.465Z" fill="#EED9FF"/>
<path d="M120.56 48.3877H40.0018C39.4092 48.3877 38.9287 48.8669 38.9287 49.4581V50.6025C38.9287 51.1937 39.4092 51.6729 40.0018 51.6729H120.56C121.153 51.6729 121.633 51.1937 121.633 50.6025V49.4581C121.633 48.8669 121.153 48.3877 120.56 48.3877Z" fill="#E8DAFF"/>
<path d="M116.716 51H43.8389V115.511H116.716V51Z" fill="#EED9FF"/>
<path d="M114.891 52.7715H45.7559V113.775H114.891V52.7715Z" fill="#F9EDFF"/>
<path d="M98.667 52.7715L114.891 113.645V85.0391L106.327 52.7715H98.667Z" fill="#FBF0FF"/>
<path d="M92.9199 52.7715L109.289 113.775H111.897L95.5286 52.7715H92.9199Z" fill="#FBF0FF"/>
<path d="M45.7559 91.2646V101.015L49.067 113.775H51.6827L45.7559 91.2646Z" fill="#FBF0FF"/>
<path d="M91.9387 51.6729H90.7773V115.138H91.9387V51.6729Z" fill="#EED9FF"/>
<path d="M69.3713 51.6729H68.21V115.138H69.3713V51.6729Z" fill="#EED9FF"/>
<path d="M55.7177 49.4404C55.7177 49.4404 54.0375 71.2644 44.397 82.3876C44.397 82.3876 51.4217 110.476 51.4147 120.264L38.3643 117.863L43.0662 82.5566L40.8141 49.4404H55.7142H55.7177Z" fill="#E8DAFF"/>
<path d="M104.841 49.4404C104.841 49.4404 106.514 71.2644 116.158 82.3876C116.158 82.3876 109.133 110.476 109.14 120.264L122.198 117.863L117.489 82.5566L119.737 49.4404H104.841Z" fill="#E8DAFF"/>
<path d="M195.012 57.8277V95.7256H251.841V57.8277H195.012Z" fill="#E8DAFF"/>
<path opacity="0.6" d="M197.663 60.6798V92.877H249.194V60.6798H197.663Z" fill="#FBF0FF"/>
<path d="M199.52 62.8069V90.7471H247.337V62.8069H199.52Z" fill="#FBF0FF"/>
<path d="M205.789 68.8528V84.3281H240.514V68.8528H205.789Z" fill="#EED9FF"/>
<path d="M256.828 147.042H193.024C191.883 147.042 190.955 146.116 190.955 144.979V52.2782C190.955 51.1409 191.883 50.2148 193.024 50.2148H256.828C257.969 50.2148 258.897 51.1409 258.897 52.2782V144.979C258.897 146.116 257.969 147.042 256.828 147.042ZM193.027 50.3029C191.936 50.3029 191.047 51.1902 191.047 52.2782V144.979C191.047 146.067 191.936 146.954 193.027 146.954H256.832C257.923 146.954 258.812 146.067 258.812 144.979V52.2782C258.812 51.1902 257.923 50.3029 256.832 50.3029H193.027Z" fill="#E8DAFF"/>
<path d="M183.256 147.042H119.451C118.311 147.042 117.383 146.116 117.383 144.979V52.2782C117.383 51.1409 118.311 50.2148 119.451 50.2148H183.256C184.396 50.2148 185.325 51.1409 185.325 52.2782V144.979C185.325 146.116 184.396 147.042 183.256 147.042ZM119.451 50.3029C118.361 50.3029 117.471 51.1902 117.471 52.2782V144.979C117.471 146.067 118.361 146.954 119.451 146.954H183.256C184.347 146.954 185.236 146.067 185.236 144.979V52.2782C185.236 51.1902 184.347 50.3029 183.256 50.3029H119.451Z" fill="#E8DAFF"/>
<path d="M109.726 147.042H45.925C44.7848 147.042 43.8564 146.116 43.8564 144.979V52.2782C43.8564 51.1409 44.7848 50.2148 45.925 50.2148H109.73C110.87 50.2148 111.798 51.1409 111.798 52.2782V144.979C111.798 146.116 110.87 147.042 109.73 147.042H109.726ZM45.925 50.3029C44.8343 50.3029 43.9447 51.1902 43.9447 52.2782V144.979C43.9447 146.067 44.8343 146.954 45.925 146.954H109.73C110.821 146.954 111.71 146.067 111.71 144.979V52.2782C111.71 51.1902 110.821 50.3029 109.73 50.3029H45.925Z" fill="#E8DAFF"/>
<path d="M283.752 168.546H19.002V168.588H283.752V168.546Z" fill="#E8DAFF"/>
<path d="M269.406 178.891H249.733V179.038H269.406V178.891Z" fill="#EFDBFF"/>
<path d="M198.915 180.5H193.751V180.648H198.915V180.5Z" fill="#EFDBFF"/>
<path d="M59.0002 174.384H33.3477V174.532H59.0002V174.384Z" fill="#EFDBFF"/>
<path d="M68.055 174.384H64.292V174.532H68.055V174.384Z" fill="#EFDBFF"/>
<path d="M135.916 176.888H80.2793V177.036H135.916V176.888Z" fill="#EFDBFF"/>
<path d="M267.613 188.159C267.613 193.211 214.536 197.307 149.061 197.307C83.5868 197.307 30.5098 193.211 30.5098 188.159C30.5098 183.106 83.5868 179.011 149.061 179.011C214.536 179.011 267.613 183.106 267.613 188.159Z" fill="#F9EDFF"/>
<path d="M47.3967 166.751C47.1601 165.772 46.9201 164.779 46.9095 163.772C46.8989 162.765 47.1425 161.719 47.7744 160.934C48.2827 160.3 49.0134 159.87 49.5041 159.226C50.3301 158.145 50.4183 156.567 51.4456 155.67C52.1304 155.071 53.0905 154.909 53.8777 154.458C54.679 154.001 55.2721 153.258 55.9957 152.691C56.7194 152.12 57.7148 151.722 58.5585 152.096C59.6175 152.567 59.8611 153.997 59.5787 155.117C59.2963 156.236 58.6468 157.254 58.4597 158.395C58.3291 159.187 58.3926 160.085 57.856 160.68C57.2877 161.307 56.2746 161.317 55.6427 161.881C54.972 162.479 54.9297 163.486 54.6826 164.349C54.2766 165.758 53.1753 166.951 51.795 167.465C50.4183 167.979 48.8016 167.803 47.5696 167.004" fill="#B18DFF"/>
<path d="M47.7258 152.916C46.7656 152.6 45.7984 152.276 44.9335 151.751C44.0722 151.226 43.3133 150.469 42.9779 149.515C42.7096 148.751 42.7273 147.906 42.4414 147.145C41.9613 145.874 40.6658 144.962 40.4434 143.621C40.2951 142.726 40.6693 141.828 40.7011 140.92C40.7328 140.001 40.4187 139.107 40.3163 138.191C40.2175 137.276 40.4045 136.223 41.167 135.709C42.1272 135.061 43.4721 135.614 44.2769 136.445C45.0818 137.276 45.6007 138.364 46.4726 139.128C47.0762 139.656 47.874 140.078 48.0964 140.85C48.3294 141.663 47.7999 142.526 47.9446 143.36C48.0964 144.244 48.933 144.814 49.5366 145.48C50.5215 146.568 50.9486 148.135 50.6592 149.571C50.3662 151.008 49.3602 152.283 48.0293 152.906" fill="#B18DFF"/>
<g opacity="0.2">
<path d="M47.7258 152.916C46.7656 152.6 45.7984 152.276 44.9335 151.751C44.0722 151.226 43.3133 150.469 42.9779 149.515C42.7096 148.751 42.7273 147.906 42.4414 147.145C41.9613 145.874 40.6658 144.962 40.4434 143.621C40.2951 142.726 40.6693 141.828 40.7011 140.92C40.7328 140.001 40.4187 139.107 40.3163 138.191C40.2175 137.276 40.4045 136.223 41.167 135.709C42.1272 135.061 43.4721 135.614 44.2769 136.445C45.0818 137.276 45.6007 138.364 46.4726 139.128C47.0762 139.656 47.874 140.078 48.0964 140.85C48.3294 141.663 47.7999 142.526 47.9446 143.36C48.0964 144.244 48.933 144.814 49.5366 145.48C50.5215 146.568 50.9486 148.135 50.6592 149.571C50.3662 151.008 49.3602 152.283 48.0293 152.906" fill="black"/>
</g>
<path d="M46.0066 163.324C45.4136 163.817 44.8135 164.317 44.1216 164.663C43.4297 165.008 42.6319 165.194 41.88 165.029C41.2729 164.895 40.7293 164.539 40.1221 164.42C39.0984 164.219 37.9864 164.691 37.0228 164.293C36.3803 164.025 35.9461 163.427 35.3672 163.039C34.7812 162.648 34.0717 162.49 33.4363 162.187C32.8009 161.884 32.1902 161.339 32.1619 160.634C32.1302 159.751 33.0303 159.103 33.8952 158.916C34.76 158.729 35.6778 158.832 36.525 158.574C37.1145 158.398 37.7111 158.05 38.3006 158.219C38.9219 158.395 39.2749 159.085 39.875 159.328C40.5139 159.585 41.2199 159.272 41.8977 159.152C43.0026 158.955 44.1957 159.307 45.0147 160.074C45.8336 160.842 46.2572 162.008 46.1266 163.12" fill="#B18DFF"/>
<g opacity="0.2">
<path d="M46.0066 163.324C45.4136 163.817 44.8135 164.317 44.1216 164.663C43.4297 165.008 42.6319 165.194 41.88 165.029C41.2729 164.895 40.7293 164.539 40.1221 164.42C39.0984 164.219 37.9864 164.691 37.0228 164.293C36.3803 164.025 35.9461 163.427 35.3672 163.039C34.7812 162.648 34.0717 162.49 33.4363 162.187C32.8009 161.884 32.1902 161.339 32.1619 160.634C32.1302 159.751 33.0303 159.103 33.8952 158.916C34.76 158.729 35.6778 158.832 36.525 158.574C37.1145 158.398 37.7111 158.05 38.3006 158.219C38.9219 158.395 39.2749 159.085 39.875 159.328C40.5139 159.585 41.2199 159.272 41.8977 159.152C43.0026 158.955 44.1957 159.307 45.0147 160.074C45.8336 160.842 46.2572 162.008 46.1266 163.12" fill="black"/>
</g>
<path d="M45.7909 160.053C44.7708 160.215 43.74 160.373 42.7092 160.299C41.6785 160.225 40.6336 159.894 39.8852 159.187C39.2816 158.616 38.9004 157.842 38.2826 157.289C37.2483 156.359 35.6457 156.141 34.8126 155.025C34.2584 154.282 34.1737 153.292 33.7748 152.454C33.3724 151.606 32.6629 150.94 32.144 150.159C31.6215 149.377 31.2968 148.331 31.7486 147.507C32.3169 146.472 33.796 146.342 34.9185 146.718C36.0411 147.099 37.0224 147.838 38.1732 148.127C38.971 148.324 39.8923 148.335 40.4571 148.93C41.0501 149.56 40.9795 150.588 41.502 151.278C42.0562 152.011 43.0834 152.134 43.9447 152.458C45.3497 152.986 46.4758 154.204 46.8852 155.644C47.2947 157.085 46.9841 158.711 46.0663 159.902" fill="#B18DFF"/>
<path d="M46.9908 154.286C46.5249 153.226 46.0554 152.155 45.84 151.018C45.6247 149.881 45.6883 148.652 46.246 147.638C46.6943 146.821 47.4285 146.187 47.8557 145.36C48.5723 143.972 48.3534 142.173 49.3312 140.951C49.9843 140.138 51.0362 139.761 51.834 139.092C52.6459 138.413 53.1648 137.455 53.8708 136.666C54.5768 135.877 55.6181 135.226 56.6454 135.479C57.9374 135.8 58.5022 137.363 58.4104 138.687C58.3186 140.011 57.7926 141.289 57.8067 142.617C57.8173 143.536 58.075 144.539 57.5844 145.321C57.069 146.145 55.9253 146.36 55.3252 147.124C54.6862 147.934 54.8451 149.082 54.7392 150.11C54.5662 151.782 53.5602 153.353 52.1093 154.208C50.6585 155.067 48.7947 155.191 47.2415 154.539" fill="#B18DFF"/>
<path d="M45.7023 169.839C49.1475 164.557 53.1294 159.634 57.2207 154.842C57.3301 154.712 57.143 154.525 57.0336 154.656C52.9282 159.465 48.9322 164.409 45.4763 169.705C45.3846 169.849 45.614 169.979 45.7058 169.839H45.7023Z" fill="#263238"/>
<path d="M45.7203 169.772C45.392 165.758 46.2145 161.649 47.2488 157.786C48.4242 153.392 50.0339 149.078 52.1202 145.033C53.105 143.124 54.2029 141.251 55.5372 139.561C55.6431 139.427 55.456 139.24 55.3501 139.374C52.8297 142.571 51.0329 146.35 49.5291 150.11C47.8241 154.371 46.4827 158.828 45.7909 163.367C45.4696 165.48 45.2825 167.638 45.4555 169.772C45.4696 169.941 45.7344 169.941 45.7203 169.772Z" fill="#263238"/>
<path d="M46.1652 159.786C45.1168 157.666 43.1259 156.31 41.2267 155.008C38.9463 153.441 36.9095 151.68 35.2751 149.434C35.1763 149.296 34.9468 149.43 35.0457 149.567C36.5918 151.691 38.491 153.434 40.6478 154.93C42.6458 156.314 44.8238 157.673 45.9357 159.923C46.0099 160.074 46.2393 159.941 46.1652 159.789V159.786Z" fill="#263238"/>
<path d="M54.8273 169.255H37.5373C37.5373 169.255 36.8914 180.543 42.3487 185.008L40.3755 187.35H52.3033L50.0512 184.888C50.0512 184.888 54.5414 182.955 54.8273 169.251V169.255Z" fill="#263238"/>
<g opacity="0.3">
<path d="M43.0768 170.258L38.5654 170.297C38.7984 172.73 39.0314 175.177 39.6915 177.529C40.3516 179.881 41.4742 182.159 43.2462 183.842C42.1025 179.49 42.5543 174.726 43.0768 170.258Z" fill="#FBF0FF"/>
</g>
<path d="M232.21 114.304C231.991 114.272 231.769 114.258 231.546 114.261L92.1501 114.339C88.1082 114.339 84.8394 117.427 84.8536 121.23L85.0795 173.8H236.022L235.468 118.49C235.796 116.487 234.338 114.61 232.21 114.3V114.304Z" fill="#263238"/>
<path opacity="0.5" d="M232.21 114.304C231.991 114.272 231.769 114.258 231.546 114.261L92.1501 114.339C88.1082 114.339 84.8394 117.427 84.8536 121.23L85.0795 173.8H236.022L235.468 118.49C235.796 116.487 234.338 114.61 232.21 114.3V114.304Z" fill="#FCF5FF"/>
<path d="M87.6214 151.602C87.5791 142.736 80.3602 135.574 71.4717 135.574H66.9674C65.1883 135.585 63.7551 137.032 63.7657 138.807C63.7657 138.895 63.7692 138.979 63.7763 139.067L64.1787 143.655C64.3093 145.162 65.4777 146.374 66.9815 146.564L67.8958 146.68C69.0254 146.828 69.8973 147.74 69.9891 148.87L72.1953 174.025C72.3542 175.859 73.9956 177.109 75.8453 177.106L87.6779 162.511L87.625 151.602H87.6214Z" fill="#263238"/>
<path opacity="0.4" d="M87.6214 151.602C87.5791 142.736 80.3602 135.574 71.4717 135.574H66.9674C65.1883 135.585 63.7551 137.032 63.7657 138.807C63.7657 138.895 63.7692 138.979 63.7763 139.067L64.1787 143.655C64.3093 145.162 65.4777 146.374 66.9815 146.564L67.8958 146.68C69.0254 146.828 69.8973 147.74 69.9891 148.87L72.1953 174.025C72.3542 175.859 73.9956 177.109 75.8453 177.106L87.6779 162.511L87.625 151.602H87.6214Z" fill="#FBF0FF"/>
<path d="M231.79 148.067C231.84 138.088 239.966 130.021 249.97 130.021H255.039C257.044 130.032 258.657 131.662 258.643 133.662C258.643 133.761 258.639 133.86 258.629 133.955L258.177 139.12C258.029 140.817 256.715 142.18 255.025 142.395L253.997 142.525C252.727 142.691 251.745 143.719 251.639 144.99L249.154 173.31C248.974 175.377 247.237 176.962 245.158 176.958H231.727L231.787 148.064L231.79 148.067Z" fill="#263238"/>
<path opacity="0.4" d="M231.79 148.067C231.84 138.088 239.966 130.021 249.97 130.021H255.039C257.044 130.032 258.657 131.662 258.643 133.662C258.643 133.761 258.639 133.86 258.629 133.955L258.177 139.12C258.029 140.817 256.715 142.18 255.025 142.395L253.997 142.525C252.727 142.691 251.745 143.719 251.639 144.99L249.154 173.31C248.974 175.377 247.237 176.962 245.158 176.958H231.727L231.787 148.064L231.79 148.067Z" fill="#FBF0FF"/>
<path d="M209.537 174.296H201.298L203.261 189.257H208.065L209.537 174.296Z" fill="#263238"/>
<path d="M235.842 174.296H227.61L229.573 189.257H234.377L235.842 174.296Z" fill="#263238"/>
<path opacity="0.2" d="M235.842 174.296H227.61L229.573 189.257H234.377L235.842 174.296Z" fill="#FBF0FF"/>
<path d="M111.933 174.296H103.69L105.653 189.257H110.457L111.933 174.296Z" fill="#263238"/>
<path d="M90.8374 174.296H82.6055L84.5646 189.257H89.3725L90.8374 174.296Z" fill="#263238"/>
<path opacity="0.2" d="M90.8374 174.296H82.6055L84.5646 189.257H89.3725L90.8374 174.296Z" fill="#FBF0FF"/>
<path d="M75.4893 173.349L75.9693 178.859C76.0046 179.264 76.3823 179.577 76.8342 179.577H246.878C247.333 179.577 247.711 179.264 247.743 178.859L248.223 173.349H75.4893Z" fill="#263238"/>
<path opacity="0.2" d="M75.4893 173.349L75.9693 178.859C76.0046 179.264 76.3823 179.577 76.8342 179.577H246.878C247.333 179.577 247.711 179.264 247.743 178.859L248.223 173.349H75.4893Z" fill="#FBF0FF"/>
<path d="M71.0693 160.553L72.2413 173.518C72.4249 175.585 74.2216 177.169 76.3679 177.166H245.077C247.188 177.166 248.95 175.606 249.126 173.574L250.291 160.338L232.553 160.381C205.012 158 178.96 157.201 156.831 160.557C134.8 154.592 111.791 155.293 88.1122 160.557H71.0693V160.553Z" fill="#263238"/>
<path opacity="0.4" d="M71.0693 160.553L72.2413 173.518C72.4249 175.585 74.2216 177.169 76.3679 177.166H245.077C247.188 177.166 248.95 175.606 249.126 173.574L250.291 160.338L232.553 160.381C205.012 158 178.96 157.201 156.831 160.557C134.8 154.592 111.791 155.293 88.1122 160.557H71.0693V160.553Z" fill="#FBF0FF"/>
<g opacity="0.3">
<path d="M233.644 176.997V161.388C233.644 161.046 233.114 161.046 233.114 161.388V176.997C233.114 177.339 233.644 177.339 233.644 176.997Z" fill="black"/>
</g>
<path d="M116.13 128.184C111.015 127.469 91.3177 131.064 86.7217 133.413C87.5759 143.233 90.6541 152.853 95.6561 161.353C96.4115 162.638 97.3117 163.98 98.7131 164.487C100.16 165.012 101.759 164.505 103.21 163.987C110.436 161.406 117.528 158.455 124.447 155.145C123.296 145.762 120.461 136.589 116.127 128.181L116.13 128.184Z" fill="#B18DFF"/>
<g opacity="0.3">
<path d="M116.13 128.184C111.015 127.469 91.3177 131.064 86.7217 133.413C87.5759 143.233 90.6541 152.853 95.6561 161.353C96.4115 162.638 97.3117 163.98 98.7131 164.487C100.16 165.012 101.759 164.505 103.21 163.987C110.436 161.406 117.528 158.455 124.447 155.145C123.296 145.762 120.461 136.589 116.127 128.181L116.13 128.184Z" fill="#FBF0FF"/>
</g>
<path opacity="0.3" d="M87.5156 139.367L110.849 140.378L118.304 132.751L120.546 138.455L113.094 146.399L89.0512 145.962C89.0512 145.962 87.5827 140.814 87.5156 139.367Z" fill="#FBF0FF"/>
<path d="M88.1162 134.005C94.4596 142.297 98.2826 152.487 98.9498 162.896" stroke="#B18DFF" stroke-linecap="round" stroke-linejoin="round"/>
<path opacity="0.3" d="M91.8864 131.677C91.7664 131.715 108.679 134.004 108.679 134.004L113.458 128.096C113.458 128.096 101.827 128.539 91.8864 131.677Z" fill="#FBF0FF"/>
<path opacity="0.3" d="M92.193 154.61L114.785 155.17L122.989 146.885L124.45 153.621L121.284 156.631L111.929 160.67H95.257C95.257 160.67 92.9308 156.343 92.1895 154.61H92.193Z" fill="#FBF0FF"/>
<path d="M218.129 126.606C223.244 125.891 242.942 129.486 247.538 131.835C246.683 141.655 243.605 151.275 238.603 159.775C237.848 161.06 236.948 162.402 235.546 162.909C234.099 163.433 232.5 162.926 231.049 162.409C223.823 159.828 216.731 156.877 209.812 153.567C210.963 144.183 213.798 135.011 218.133 126.603L218.129 126.606Z" fill="#B18DFF"/>
<g opacity="0.3">
<path d="M218.129 126.606C223.244 125.891 242.942 129.486 247.538 131.835C246.683 141.655 243.605 151.275 238.603 159.775C237.848 161.06 236.948 162.402 235.546 162.909C234.099 163.433 232.5 162.926 231.049 162.409C223.823 159.828 216.731 156.877 209.812 153.567C210.963 144.183 213.798 135.011 218.133 126.603L218.129 126.606Z" fill="#FBF0FF"/>
</g>
<path opacity="0.3" d="M246.743 137.789L223.41 138.8L215.954 131.173L213.713 136.877L221.165 144.821L245.208 144.384C245.208 144.384 246.676 139.236 246.743 137.789Z" fill="#FBF0FF"/>
<path d="M246.146 132.423C239.803 140.715 235.98 150.905 235.312 161.314" stroke="#B18DFF" stroke-linecap="round" stroke-linejoin="round"/>
<path opacity="0.3" d="M242.376 130.099C242.496 130.137 225.584 132.426 225.584 132.426L220.801 126.518C220.801 126.518 232.432 126.961 242.373 130.099H242.376Z" fill="#FBF0FF"/>
<path opacity="0.3" d="M242.066 153.028L219.474 153.588L211.27 145.303L209.809 152.039L212.975 155.049L222.329 159.088H239.002C239.002 159.088 241.328 154.76 242.069 153.028H242.066Z" fill="#FBF0FF"/>
<g opacity="0.3">
<path d="M232.772 165.733C213.932 165.733 195.096 165.557 176.26 165.342C157.583 165.127 138.909 164.874 120.232 164.719C109.596 164.631 98.9601 164.574 88.3242 164.574C87.9818 164.574 87.9818 165.102 88.3242 165.102C107.164 165.102 126 165.278 144.836 165.493C163.513 165.708 182.187 165.962 200.864 166.116C211.5 166.205 222.136 166.261 232.772 166.261C233.114 166.261 233.114 165.733 232.772 165.733Z" fill="black"/>
</g>
<g opacity="0.3">
<path d="M87.5264 160.86V177.127C87.5264 177.469 88.0559 177.469 88.0559 177.127V160.86C88.0559 160.518 87.5264 160.518 87.5264 160.86Z" fill="black"/>
</g>
<path opacity="0.2" d="M131.28 124.881C129.194 125.634 127.503 127.243 126.635 129.271C126.412 129.124 126.144 129.035 125.855 129.035C125.477 129.035 125.138 129.187 124.884 129.426C123.659 127.962 121.88 127.043 119.963 126.916C119.624 126.895 119.624 127.423 119.963 127.444C121.749 127.564 123.465 128.462 124.57 129.87C124.492 130.043 124.446 130.236 124.446 130.437C124.446 131.162 125 131.754 125.71 131.824C125.265 133.571 125.544 135.472 126.487 137.018C126.663 137.307 127.122 137.043 126.945 136.75C126.031 135.257 125.802 133.437 126.275 131.764C126.843 131.585 127.256 131.06 127.256 130.433C127.256 130.152 127.171 129.891 127.03 129.673C127.789 127.705 129.427 126.102 131.414 125.384C131.732 125.268 131.594 124.757 131.273 124.874L131.28 124.881Z" fill="black"/>
<path opacity="0.2" d="M203.32 124.881C201.234 125.634 199.543 127.243 198.675 129.271C198.452 129.124 198.184 129.035 197.895 129.035C197.517 129.035 197.178 129.187 196.924 129.426C195.699 127.962 193.92 127.043 192.003 126.916C191.664 126.895 191.664 127.423 192.003 127.444C193.789 127.564 195.505 128.462 196.61 129.87C196.532 130.043 196.486 130.236 196.486 130.437C196.486 131.162 197.04 131.754 197.75 131.824C197.305 133.571 197.584 135.472 198.527 137.018C198.703 137.307 199.162 137.043 198.986 136.75C198.071 135.257 197.842 133.437 198.315 131.764C198.883 131.585 199.296 131.06 199.296 130.433C199.296 130.152 199.211 129.891 199.07 129.673C199.829 127.705 201.467 126.102 203.455 125.384C203.772 125.268 203.635 124.757 203.313 124.874L203.32 124.881Z" fill="black"/>
<path opacity="0.2" d="M124.093 145.452C124.093 145.452 143.498 118.691 161.501 123.727C161.501 123.727 167.682 146.318 166.75 146.089C165.821 145.86 157.981 146.55 157.717 146.403C157.452 146.258 160.241 135.853 154.66 134.758C149.079 133.667 134.33 144.85 133.931 144.822C133.533 144.797 124.09 145.448 124.09 145.448L124.093 145.452Z" fill="black"/>
<path opacity="0.2" d="M121.99 143.001C121.99 143.001 92.2815 150.043 90.873 151.402L92.7757 154.307L122.894 146.638C122.894 146.638 121.93 142.789 121.99 143.001Z" fill="black"/>
<path opacity="0.3" d="M221.08 158.684C221.08 158.684 224.412 158.3 226.301 156.24C228.193 154.177 228.454 149.694 228.454 149.694C228.454 149.694 231.885 152.863 231.776 152.071C231.667 151.279 231.84 150.49 231.84 150.49C231.84 150.49 234.776 153.296 234.826 152.902C234.875 152.508 234.826 149.691 234.826 149.691C234.826 149.691 237.205 151.86 239.757 151.219C242.309 150.578 243.76 148.948 243.76 148.948L246.207 140.571L228.373 138.747C228.373 138.747 222.785 148.251 222.563 148.427C222.34 148.603 221.08 158.68 221.08 158.68V158.684Z" fill="black"/>
<path opacity="0.2" d="M178.667 142.24C178.667 142.24 183.821 139.057 185.229 139.782C186.638 140.507 187.34 141.285 187.34 141.285C187.34 141.285 195.727 137.613 212.643 140.152L216.191 140.553C216.191 140.553 218.065 137.44 218.771 137.064C219.474 136.687 220.801 136.532 220.801 136.532C220.801 136.532 227.201 124.877 233.424 125.127L219.615 145.627L177.41 149.697L178.667 141.895" fill="black"/>
<path d="M238.038 127.385C237.883 126.047 236.789 124.98 235.444 124.874C234.176 124.776 232.242 125.166 229.595 127.342C224.667 131.399 219.615 139.385 219.615 139.385C219.615 139.385 225.941 144.504 227.261 144.67C228.578 144.835 234.946 134.818 236.467 132.504C237.922 130.29 238.176 128.578 238.035 127.385H238.038Z" fill="#FFB5AF"/>
<path d="M216.936 141.66L219.495 138.156C219.495 138.156 232.118 140.311 231.719 140.769C231.32 141.227 225.972 148.248 225.972 148.248L216.936 141.66Z" fill="#7FF3FF"/>
<path opacity="0.2" d="M224.331 142.318C224.303 142.213 222.598 138.114 226.082 134.765C229.566 131.417 232.902 131.751 232.902 131.751C232.902 131.751 235.522 128.607 236.178 129.089C236.835 129.572 237.371 130.882 237.371 130.882C237.615 131.248 229.538 140.973 227.861 141.811C226.195 142.642 224.331 142.322 224.331 142.322V142.318Z" fill="black"/>
<path d="M225.086 150.624C225.909 147.663 231.13 145.969 234.201 145.272L226.142 140.944C225.87 141.226 225.581 141.487 225.274 141.726C224.733 142.18 224.087 142.487 223.396 142.62C222.817 142.708 220.413 142.867 220.413 142.867C220.413 142.867 218.259 144.927 219.975 148.941C221.846 152.821 225.083 150.62 225.083 150.62L225.086 150.624Z" fill="#FFB5AF"/>
<path opacity="0.2" d="M230.794 145.24C227.536 146.916 224.588 144.134 223.392 142.62C224.083 142.486 224.733 142.18 225.27 141.726L230.794 145.24Z" fill="black"/>
<path d="M240.784 133.67C239.644 130.219 238.076 133.261 235.669 130.124C233.547 131.226 232.57 134.913 234.356 135.075C236.315 135.258 241.762 136.522 240.787 133.666L240.784 133.67Z" fill="#263238"/>
<path d="M237.166 145.413C232.838 146.142 230.417 146.638 227.716 144.937C223.657 142.374 224.296 136.656 228.309 134.613C231.924 132.775 238.391 131.895 241.077 135.793C243.721 139.631 241.49 144.687 237.163 145.416L237.166 145.413Z" fill="#FFB5AF"/>
<path d="M229.143 137.895C229.054 137.814 228.843 137.835 228.691 137.979C228.536 138.102 228.384 138.236 228.239 138.373C228.175 138.433 228.112 138.511 228.126 138.595C228.144 138.701 228.271 138.747 228.377 138.75C228.603 138.75 228.818 138.648 228.991 138.507C229.083 138.43 229.167 138.342 229.21 138.229C229.249 138.116 229.234 137.979 229.146 137.898L229.143 137.895Z" fill="#263238"/>
<path d="M234.798 139.761C234.66 139.793 234.512 139.796 234.385 139.768C234.353 139.761 234.325 139.754 234.293 139.743C234.265 139.733 234.258 139.733 234.223 139.712C234.166 139.68 234.148 139.669 234.102 139.62C234.099 139.616 234.095 139.609 234.092 139.606C234.095 139.609 234.102 139.623 234.092 139.606C234.085 139.595 234.078 139.585 234.074 139.574C234.074 139.567 234.057 139.535 234.06 139.546C234.064 139.56 234.06 139.543 234.06 139.539C234.06 139.532 234.057 139.525 234.053 139.518C234.05 139.511 234.046 139.476 234.046 139.49C234.046 139.504 234.046 139.472 234.046 139.469C234.046 139.454 234.046 139.44 234.046 139.43C234.046 139.43 234.046 139.409 234.046 139.423C234.046 139.44 234.05 139.405 234.05 139.405C234.05 139.395 234.057 139.381 234.06 139.37C234.06 139.363 234.074 139.331 234.071 139.342C234.067 139.352 234.081 139.324 234.081 139.317C234.088 139.303 234.099 139.289 234.106 139.275C234.127 139.243 234.127 139.243 234.145 139.222C234.166 139.197 234.191 139.173 234.215 139.152C234.321 139.057 234.473 138.99 234.625 138.954C234.791 138.916 234.72 138.659 234.554 138.701C234.24 138.778 233.894 138.983 233.799 139.314C233.76 139.454 233.778 139.616 233.862 139.74C233.954 139.874 234.095 139.962 234.251 140.007C234.448 140.067 234.667 140.06 234.869 140.014C234.939 140 234.978 139.919 234.96 139.852C234.939 139.782 234.869 139.743 234.798 139.761Z" fill="#263238"/>
<path d="M233.442 135.476C233.305 135.507 233.156 135.511 233.029 135.483C232.998 135.476 232.969 135.469 232.938 135.458C232.909 135.447 232.902 135.447 232.867 135.426C232.811 135.395 232.793 135.384 232.747 135.335C232.743 135.331 232.74 135.324 232.736 135.321C232.74 135.324 232.747 135.338 232.736 135.321C232.729 135.31 232.722 135.3 232.719 135.289C232.719 135.282 232.701 135.25 232.705 135.261C232.708 135.275 232.705 135.257 232.705 135.254C232.705 135.247 232.701 135.24 232.698 135.233C232.694 135.226 232.691 135.19 232.691 135.205C232.691 135.219 232.691 135.187 232.691 135.183C232.691 135.169 232.691 135.155 232.691 135.145C232.691 135.145 232.691 135.124 232.691 135.138C232.691 135.155 232.694 135.12 232.694 135.12C232.694 135.109 232.701 135.095 232.705 135.085C232.705 135.078 232.719 135.046 232.715 135.057C232.712 135.067 232.726 135.039 232.726 135.032C232.733 135.018 232.743 135.004 232.751 134.99C232.772 134.958 232.772 134.958 232.789 134.937C232.811 134.912 232.835 134.888 232.86 134.867C232.966 134.771 233.118 134.705 233.269 134.669C233.435 134.631 233.365 134.374 233.199 134.416C232.885 134.493 232.539 134.697 232.443 135.028C232.405 135.169 232.422 135.331 232.507 135.455C232.599 135.588 232.74 135.676 232.895 135.722C233.093 135.782 233.312 135.775 233.513 135.729C233.584 135.715 233.622 135.634 233.605 135.567C233.584 135.497 233.513 135.458 233.442 135.476Z" fill="#263238"/>
<path d="M233.88 136.455C233.88 136.455 231.373 135.546 230.381 135.3C229.982 136.05 230.491 137.064 230.491 137.064L233.88 136.458V136.455Z" fill="#DE7E73"/>
<path d="M236.753 140.06C236.71 140 236.7 139.916 236.732 139.842C237.116 138.972 236.71 138.293 236.707 138.285C236.643 138.183 236.675 138.053 236.77 137.99C236.869 137.926 236.996 137.958 237.06 138.06C237.081 138.095 237.593 138.947 237.113 140.025C237.067 140.134 236.94 140.18 236.837 140.127C236.802 140.109 236.774 140.085 236.756 140.057L236.753 140.06Z" fill="#263238"/>
<path d="M234.674 132.722C234.674 132.68 234.684 132.641 234.706 132.603C234.766 132.504 234.896 132.472 234.995 132.536C235.983 133.173 236.005 134.159 236.012 134.205C236.012 134.324 235.92 134.42 235.807 134.423C235.69 134.423 235.595 134.332 235.592 134.212C235.592 134.17 235.567 133.413 234.773 132.898C234.709 132.86 234.677 132.789 234.674 132.722Z" fill="#263238"/>
<path d="M241.526 128.342C243.213 130.705 243.428 131.705 243.799 134.24C243.799 134.24 244.562 133.113 245.924 132.61C244.565 139.743 247.693 140.705 246.673 144.374C246.023 146.719 243.284 146.36 243.284 146.36C243.284 146.36 243.005 151.641 235.324 148.338C234.741 148.43 234.254 148.645 234.063 149.004C233.71 149.669 233.795 150.472 233.887 151.219C233.04 150.398 232.485 149.279 232.348 148.106C231.839 148.631 231.462 149.282 231.268 149.986C230.431 148.733 230.297 147.043 230.929 145.673L234.106 145.124C234 144.888 233.866 144.652 233.672 144.416C234.455 143.733 235.331 143.162 236.273 142.722C237.05 142.448 237.858 142.275 238.681 142.212C238.681 142.212 238.712 139.342 240.209 138.416C240.209 138.416 236.87 135.24 237.413 132.208C237.957 129.177 241.37 129.817 241.529 128.335L241.526 128.342Z" fill="#263238"/>
<path d="M234.027 147.968C232.845 147.877 231.811 147.233 231.182 146.465C230.236 145.31 231.511 144.497 232.884 144.306C234.119 144.134 235.679 144.152 236.092 145.56C236.502 146.944 235.376 148.074 234.024 147.968H234.027Z" fill="#FFB5AF"/>
<path opacity="0.2" d="M234.967 146.694C235.179 146.458 235.186 146.078 235.041 145.789C234.893 145.5 234.621 145.296 234.328 145.169C233.979 145.014 233.591 144.954 233.213 144.997" stroke="black" stroke-width="0.5" stroke-linecap="round" stroke-linejoin="round"/>
<path d="M91.8857 158.395L91.9634 153.226L103.383 150.828L104.354 157.796L91.8857 158.395Z" fill="#FFB5AF"/>
<path d="M92.9305 152.754L93.1176 154.423C93.16 154.8 93.0082 155.173 92.7258 155.43C91.515 156.539 92.0939 157.208 93.4494 158.117C93.6012 158.775 92.8564 159.039 92.6552 159.117L88.2427 160.867C87.8755 161.018 87.4555 160.842 87.3037 160.476C87.2754 160.409 87.2613 160.342 87.2543 160.272C87.0283 158.244 86.9224 157.286 86.6436 154.761L85.7858 147.043C85.5528 144.937 87.6284 144.268 87.9214 145.113C89.2169 148.916 90.6748 151.55 91.9456 152.627C92.168 152.828 92.2916 152.582 92.9376 152.758L92.9305 152.754Z" fill="#263238"/>
<path d="M91.1055 150.437C91.1761 150.962 91.3032 151.479 91.4833 151.979C91.5044 152.025 91.5609 152.046 91.6068 152.021C91.6315 152.011 91.6492 151.986 91.6562 151.958C91.7445 151.712 92.4928 149.514 92.0622 149.032C91.988 148.94 91.868 148.902 91.7515 148.93C91.5362 148.958 91.3421 149.085 91.2362 149.275C91.0702 149.638 91.0244 150.046 91.1055 150.437ZM91.568 151.638C91.3844 151.036 91.1055 149.905 91.4056 149.391C91.4903 149.257 91.6245 149.166 91.7833 149.141C91.8327 149.127 91.8857 149.141 91.9139 149.183C92.1469 149.451 91.8539 150.729 91.568 151.638Z" fill="#00A1D4"/>
<path d="M91.4724 151.959C91.4688 151.98 91.4724 152.004 91.4794 152.026C91.5077 152.05 91.5465 152.057 91.5818 152.043C91.67 152.033 93.6751 151.314 93.4174 150.184C93.3468 149.906 93.2021 149.839 93.0856 149.839C92.5313 149.828 91.6453 151.258 91.4512 151.913L91.4724 151.959ZM93.2656 150.314C93.3468 151.04 92.1889 151.592 91.7265 151.786C92.0124 151.064 92.7643 150.015 93.1032 150.04C93.1315 150.04 93.2056 150.029 93.2515 150.237L93.2656 150.314Z" fill="#00A1D4"/>
<path d="M90.7529 153.257C91.2118 152.895 91.4978 152.321 91.5119 151.736" stroke="#00A1D4" stroke-width="0.5" stroke-linecap="round" stroke-linejoin="round"/>
<path d="M90.6115 150.785C90.5974 151.37 90.3114 151.94 89.8525 152.306" stroke="#00A1D4" stroke-width="0.5" stroke-linecap="round" stroke-linejoin="round"/>
<path d="M89.8097 149.567C89.7956 150.152 89.5097 150.722 89.0508 151.089" stroke="#00A1D4" stroke-width="0.5" stroke-linecap="round" stroke-linejoin="round"/>
<path d="M138.944 157.934C158.927 159.5 178.07 162.627 183.026 160.613L181.035 146.976C180.711 146.99 152.997 143.074 142.297 143.265C128.167 143.574 94.8574 151.648 94.8574 151.648L95.0374 159.043C95.0374 159.043 122.928 159.398 138.94 157.934H138.944Z" fill="#00A1D4"/>
<path d="M124.45 147.497C124.323 147.371 145.637 122.29 160.639 122.825C178.498 123.462 179.564 149.357 179.437 149.357C179.31 149.357 162.87 146.18 162.87 146.18C162.87 146.18 160.537 132.434 157.293 134.656C152.686 137.814 137.768 146.434 137.133 146.561C136.498 146.688 124.45 147.497 124.45 147.497Z" fill="#00A1D4"/>
<path opacity="0.2" d="M126.995 144.536L143.357 143.12L145.468 141.892C145.468 141.892 131.919 141.881 128.121 143.335L126.995 144.532V144.536Z" fill="black"/>
<path opacity="0.2" d="M162.556 144.536L173.1 145.427L162.192 142.896L162.556 144.536Z" fill="black"/>
<path d="M181.248 161.47C177.658 161.515 178.233 143.568 179.893 143.202C180.404 143.089 200.649 137.92 220.848 142.399L226.757 148.361C226.757 148.361 226.023 155.85 220.477 158.797C214.935 161.744 181.244 161.47 181.244 161.47H181.248Z" fill="#7FF3FF"/>
<path d="M213.611 151.949C213.611 151.949 199.484 154.818 197.443 154.505C194.111 153.994 190.2 148.84 187.926 145.685C187.538 145.142 184.012 148.48 184.012 148.48C184.012 148.48 189.981 161.498 195.357 161.614C203.402 161.79 216.142 159.139 216.142 159.139L213.607 151.949H213.611Z" fill="#FFB5AF"/>
<path d="M184.749 149.357C184.749 149.357 180.009 144.582 179.846 144.198C179.73 143.92 179.412 143.572 179.511 143.114C179.582 142.797 179.892 142.603 180.22 142.607C180.305 142.607 180.376 142.589 180.401 142.54C180.475 142.392 180.401 141.79 181.004 141.529H181.873C181.873 141.529 181.798 140.797 182.857 140.628C183.916 140.455 184.068 141.047 184.068 141.008C184.068 140.97 184.072 140.392 184.901 140.596C185.731 140.801 188.251 146.396 188.251 146.396L184.749 149.357Z" fill="#FFB5AF"/>
<path opacity="0.2" d="M212.976 152.075L212.263 150.343C212.263 150.343 220.523 149.698 220.106 149.698C219.69 149.698 213.579 151.226 213.579 151.226L213.608 151.952L212.972 152.079L212.976 152.075Z" fill="black"/>
<path d="M212.651 111.472C212.651 111.472 215.468 112.838 217.434 111.472C219.397 110.106 217.498 103.757 212.086 102.43C206.675 101.102 205.478 97.4299 206.759 96.4968C208.041 95.5637 209.202 95.9898 208.549 98.1975C207.896 100.405 211.899 100.018 215.454 102.43C219.009 104.842 221.462 108.997 218.906 112.331C216.35 115.666 211.267 113.243 211.267 113.243L212.648 111.469L212.651 111.472Z" fill="#263238"/>
<path d="M187.895 114.229H214.081C214.081 114.229 218.62 111.427 211.832 106.743C205.044 102.06 193.773 105.124 190.875 107.937C190.892 107.937 183.988 110.05 187.895 114.233V114.229Z" fill="#263238"/>
<path opacity="0.1" d="M214.08 114.229H202.399C202.258 114.011 202.322 113.715 202.541 113.574C202.576 113.553 202.611 113.535 202.65 113.521C203.208 113.271 208.026 112.877 208.026 112.877C208.026 112.877 207.257 110.32 207.345 109.468C207.43 108.616 209.869 107.595 209.869 107.595C209.869 107.595 207.045 108.106 206.575 109.275C206.106 110.44 207.176 111.81 206.748 112.07C206.321 112.327 204.21 112.335 204.21 112.335C204.761 111.31 203.293 109.982 203.293 109.982C204.023 111.68 201.746 114.074 198.739 114.232H194.182C198.905 113.549 199.092 110.789 198.499 109.817C197.906 108.845 196.109 107.261 196.109 107.261V105.331C200.811 103.944 207.306 103.634 211.821 106.746C218.623 111.43 214.084 114.232 214.084 114.232L214.08 114.229Z" fill="#FBF0FF"/>
<path d="M192.134 105.778C192.134 105.778 192.364 104.313 195.156 103.169C195.442 104.225 195.463 105.338 195.213 106.401C195.213 106.401 195.724 107.236 196.353 108.468C196.61 108.975 196.621 109.933 196.533 110.873C196.399 112.44 195.343 113.775 193.846 114.271C193.846 114.271 188.573 113.535 187.881 112.609C187.274 111.662 186.755 110.662 186.331 109.62C185.473 109.102 184.753 108.387 184.224 107.535C185.509 107.007 186.899 106.796 188.28 106.912C188.28 106.912 190.708 105.831 192.131 105.775L192.134 105.778Z" fill="#263238"/>
<path opacity="0.1" d="M196.364 108.468C195.739 107.236 195.223 106.401 195.223 106.401C195.474 105.334 195.456 104.225 195.167 103.169C192.378 104.313 192.145 105.778 192.145 105.778C190.726 105.834 188.262 106.915 188.262 106.915C186.882 106.799 185.498 107.014 184.217 107.539C184.743 108.391 185.466 109.102 186.324 109.623C186.748 110.665 187.267 111.665 187.874 112.613C188.566 113.539 193.84 114.275 193.84 114.275C195.336 113.782 196.392 112.444 196.526 110.877C196.635 109.933 196.625 108.979 196.367 108.472L196.364 108.468Z" fill="#FBF0FF"/>
<path d="M189.352 111.867C190.256 112.081 191.41 112.282 192.088 111.465C192.198 111.335 192.011 111.148 191.901 111.279C191.287 112.018 190.235 111.807 189.423 111.61C189.257 111.571 189.187 111.824 189.352 111.863V111.867Z" fill="black"/>
<path d="M193.882 110.867C194.387 110.937 194.909 110.817 195.319 110.507C195.707 110.215 195.975 109.775 196.057 109.296C196.085 109.131 195.831 109.057 195.802 109.226C195.658 110.095 194.846 110.733 193.953 110.613C193.882 110.603 193.812 110.631 193.79 110.705C193.773 110.765 193.812 110.856 193.882 110.867Z" fill="black"/>
<path d="M194.458 113.342L193.392 112.877C193.727 112.409 194.203 112.251 194.825 112.409L194.458 113.342Z" fill="black"/>
<path d="M184.994 108.116C185.011 108.179 186.187 109.451 186.543 109.275C186.9 109.095 187.684 108.489 187.542 108.384C187.401 108.278 184.902 107.796 184.994 108.116Z" fill="#263238"/>
<path d="M193.427 105.761C193.427 105.761 194.648 106.384 194.775 106.12C194.899 105.856 195.072 104.324 194.775 104.433C194.475 104.542 193.646 105.183 193.427 105.761Z" fill="#263238"/>
<path d="M172.387 56.2998H141.288V99.8491H172.387V56.2998Z" fill="#9464B9"/>
<path d="M170.863 57.8281H142.813V98.0288H170.863V57.8281Z" fill="#FBF0FF"/>
<path d="M165.162 65.458H149.062V90.4017H165.162V65.458Z" fill="#B18DFF"/>
<path d="M155.705 65.8033C154.604 67.2012 153.417 68.6026 152.906 70.3385C152.422 71.9794 152.542 73.8315 153.202 75.4019C153.848 76.9406 155.048 78.1801 156.647 78.7118C158.148 79.2118 159.906 79.0568 161.18 78.078C162.479 77.078 163.146 75.159 162.038 73.7716C161.099 72.5956 159.394 72.3315 157.992 72.6167C156.309 72.9582 154.826 74.0287 153.788 75.3667C152.616 76.8773 152.02 78.7294 151.783 80.6061C151.656 81.6026 151.536 82.7188 151.801 83.7047C152.048 84.6237 152.726 85.2787 153.622 85.5674C155.712 86.2399 157.661 84.8244 159.74 85.0111C159.602 84.8737 159.464 84.7364 159.327 84.5991C159.323 86.504 159.313 88.4054 159.309 90.3104C159.309 90.8385 160.132 90.8421 160.135 90.3104C160.139 88.4054 160.149 86.504 160.153 84.5991C160.153 84.3632 159.962 84.2083 159.74 84.1871C158.017 84.0322 156.457 84.9935 154.752 84.9266C154.134 84.9019 153.474 84.7399 153.029 84.2857C152.486 83.7259 152.468 82.8843 152.489 82.1519C152.574 78.9864 153.693 75.5568 156.655 73.9723C157.816 73.3491 159.277 73.0639 160.52 73.6308C161.074 73.8843 161.551 74.3104 161.72 74.909C161.918 75.6167 161.646 76.3808 161.194 76.9336C160.326 78.0005 158.84 78.3456 157.53 78.0921C156.107 77.8209 154.953 76.9336 154.251 75.6801C153.449 74.254 153.234 72.4583 153.615 70.8737C154.032 69.1378 155.207 67.7505 156.287 66.3808C156.612 65.9688 156.033 65.3843 155.705 65.7998V65.8033Z" fill="#FBF0FF"/>
<path opacity="0.2" d="M143.449 98.0324V58.7507H170.863V57.8281H142.813V98.0324H143.449Z" fill="black"/>
<path opacity="0.5" d="M155.641 62.0215H149.404C147.538 62.0215 146.025 63.5302 146.025 65.3912V71.613C146.025 73.4741 147.538 74.9828 149.404 74.9828H155.641C157.507 74.9828 159.019 73.4741 159.019 71.613V65.3912C159.019 63.5302 157.507 62.0215 155.641 62.0215Z" fill="#FBF0FF"/>
</g>
</g>
<defs>
<clipPath id="clip0_834_268367">
<rect width="300" height="225" fill="white" transform="translate(0.876953)"/>
</clipPath>
<clipPath id="clip1_834_268367">
<rect width="264.75" height="148.919" fill="white" transform="translate(19.002 48.3877)"/>
</clipPath>
</defs>
</svg>
