<svg width="124" height="124" viewBox="0 0 124 124" fill="none" xmlns="http://www.w3.org/2000/svg">
<path d="M95.5815 104.939C96.1458 104.969 96.641 104.981 97.0762 104.978C94.1859 104.738 93.0064 104.801 95.5815 104.939Z" fill="#E6E6E6"/>
<path d="M86.098 100.412C86.6112 101.544 86.5872 100.943 86.239 99.5117C85.9719 99.6918 85.9029 99.9829 86.098 100.412Z" fill="#E6E6E6"/>
<path d="M46.0242 105.375C30.4173 94.5705 17.5117 75.3621 26.2155 57.0541C27.1159 55.2533 28.9167 54.3529 30.7175 53.4525C36.42 51.3516 40.0215 54.9532 43.9232 59.155C44.5235 60.0554 46.3243 58.8549 46.6244 57.6543C47.8249 53.1524 46.6244 48.3503 47.5248 43.8483C47.8249 41.4473 49.3256 39.3463 51.1264 37.8457C54.1277 35.7448 57.129 34.2441 60.7306 33.3437C62.5314 33.0436 64.3321 33.3437 66.1329 33.3437C70.86 33.3437 78.1562 35.9218 78.0121 41.3092C81.9048 45.1058 75.0979 48.7615 70.923 53.2484C69.2363 55.0612 67.8317 56.94 71.5353 57.4112C76.5475 58.0475 77.9101 52.8852 80.9684 52.3C82.9073 51.9278 82.1119 57.8945 84.0628 57.6063C88.6308 56.931 92.3284 51.7628 93.1267 47.657C96.2211 31.741 80.7763 22.629 68.3419 22.3649C57.8823 22.1458 45.0727 23.4724 39.6434 33.7669C38.722 35.5167 38.0407 37.3835 37.3744 39.2383C33.5087 34.3852 29.9641 33.0916 25.039 35.9399C19.3425 39.2323 14.9786 49.956 16.7764 55.8505C10.4076 55.5474 5.78558 58.9899 6.00767 65.4277C6.24778 72.4148 13.622 81.0496 20.9932 82.8023C15.2787 89.5433 22.821 96.1522 28.2654 100.261C33.4937 104.208 39.5263 107.602 45.688 110.171C51.6966 111.414 57.7923 111.975 63.942 112.14C59.8452 111.138 55.7874 109.937 51.7296 108.377C49.6287 107.476 47.8279 106.576 46.0272 105.375H46.0242Z" fill="#D8DBDC"/>
<path d="M81.6311 111.767C88.2641 111.325 94.6748 110.44 101.527 109.336C104.864 108.78 108.115 108.186 111.317 107.547C106.44 105.992 100.485 105.611 97.0729 104.981C90.9952 103.858 87.0515 100.029 86.0521 97.3994C83.0688 89.5509 83.621 86.1234 80.4156 85.13C77.4773 84.2176 77.5253 88.7316 74.9982 89.4399C71.9939 90.2833 71.6938 87.297 69.809 85.085C62.0866 76.033 50.0363 65.0422 54.1842 51.9565C56.9454 43.2377 71.0335 35.7974 77.4323 40.8036C77.6484 40.9717 77.8405 41.1398 78.0116 41.3079C78.1526 35.9175 70.8594 33.3424 66.1324 33.3424C64.3316 33.3424 62.5308 33.0422 60.73 33.3424C57.1284 34.2428 54.1271 35.7434 51.1258 37.8443C49.325 39.345 47.8244 41.4459 47.5242 43.847C46.6238 48.3489 47.8244 53.151 46.6238 57.653C46.3237 58.8535 44.5229 60.0541 43.9227 59.1537C40.021 54.9518 36.4194 51.3502 30.7169 53.4512C28.9161 54.3516 27.1153 55.252 26.2149 57.0527C17.5111 75.3607 30.4168 94.5691 46.0236 105.374C47.8244 106.574 49.6252 107.475 51.7261 108.375C55.7839 109.936 59.8416 111.136 63.9384 112.139C69.791 112.295 75.6976 112.094 81.6311 111.767Z" fill="#C3CDD1"/>
<path d="M61.3867 100.33C59.4508 97.4964 58.8055 93.5707 59.1417 90.1973C59.4448 87.1509 61.4107 84.2546 61.1886 81.1693C60.9305 77.5857 58.0552 76.9164 55.4411 78.8673C53.3702 80.41 51.2782 82.8921 50.804 78.6962C50.4499 75.5538 52.3887 72.3815 51.4523 69.2931C50.4469 65.9857 47.2025 65.3284 45.3086 68.2246C44.0511 70.1545 42.3073 75.782 39.258 72.1954C36.6709 69.1521 41.635 60.3822 38.0995 59.4548C27.823 56.7596 27.3338 75.1607 29.9029 85.6833C31.0344 90.3143 34.9751 97.4694 38.5047 100.933C41.7731 104.138 49.5765 109.559 61.6238 111.786C62.4131 111.933 63.2055 112.05 64.0008 112.146C69.8354 112.299 75.7179 112.095 81.6335 111.771C84.3617 111.588 87.0509 111.329 89.7491 111.014C89.7491 111.014 67.4283 109.169 61.3867 100.333V100.33Z" fill="#C3CDD1"/>
<path d="M105.969 22.1126C92.4663 22.2327 90.0322 28.6435 90.0322 28.6435C93.2016 26.9627 96.8782 24.9188 100.582 25.9033C104.466 26.9327 106.894 30.6693 110.03 32.9023C112.512 34.6671 117.332 35.9486 117.419 31.3686C117.521 25.9122 110.447 22.0736 105.966 22.1126H105.969Z" fill="#E6E6E6"/>
<path d="M43.2687 14.0659C42.6355 11.2777 38.1755 11.7849 36.4648 12.8473C34.2828 14.2009 32.383 17.0732 31.4136 19.4382C29.6668 23.6881 30.5702 29.4986 30.5642 33.9526C30.5642 33.9526 34.0967 25.2277 36.6749 22.2144C38.1035 20.5457 43.854 16.644 43.2687 14.0659Z" fill="#E6E6E6"/>
<path d="M81.7424 59.0439C79.5694 61.2409 77.1654 62.1113 74.2601 63.0177C71.829 63.774 67.9333 65.1276 68.1524 68.342C68.3595 71.3493 71.6069 71.3403 73.6418 70.1998C76.0969 68.8192 78.1348 66.4452 79.8995 64.2872C81.1991 62.6965 81.7424 59.0469 81.7424 59.0469V59.0439Z" fill="#D8DADB"/>
<path d="M91.6919 58.1582C91.6919 58.1582 83.0182 60.4602 85.029 63.4735C87.16 66.6699 89.8912 63.4495 91.0076 61.7688C91.788 60.5923 92.0161 59.5448 91.6949 58.1612L91.6919 58.1582Z" fill="#D8DADB"/>
<path d="M96.8954 46.2061C96.8954 46.2061 94.4493 51.5454 97.0814 52.3617C100.089 53.2952 100.146 49.9577 99.6476 48.5411C99.2994 47.5507 97.8528 46.7043 96.8954 46.2061Z" fill="#E4E9EA"/>
</svg>
