<svg width="124" height="124" viewBox="0 0 124 124" fill="none" xmlns="http://www.w3.org/2000/svg">
<path d="M117.564 70.2637C117.45 68.8763 116.977 66.223 115.183 66.1066C113.307 65.9852 112.103 68.636 110.981 69.7137C108.043 72.533 107.585 63.8695 105.097 67.0827C103.294 69.4164 104.783 76.8239 100.142 74.4853C98.9904 75.1467 98.3586 77.2575 97.7269 78.4095C96.4436 80.7432 94.8184 81.9101 92.4376 82.9828C89.9923 84.0853 87.7825 84.8211 85.0994 84.6427C84.2744 84.5882 83.4495 84.5064 82.627 84.4296C85.6048 85.8418 88.7512 86.8377 91.9892 86.4413C96.3767 85.9012 100.804 84.7467 105.429 82.7648C110.654 80.5252 118.136 77.3219 117.561 70.2637H117.564Z" fill="#CED1D2"/>
<path d="M61.1625 23.126C57.756 23.0219 54.5453 22.9798 51.2478 22.0409C48.1684 21.1663 45.406 19.5882 42.5025 18.2876C39.6212 16.9943 36.5121 16.0282 33.3187 16.2561C31.5349 16.3824 28.2152 16.9919 27.846 19.2116C27.5413 21.0499 29.6545 22.3208 30.9651 23.1285C31.9387 23.728 33.2592 23.9906 32.132 24.766C30.6926 25.7545 25.3612 24.2037 25.7303 28.1205C26.0325 31.3164 29.1516 33.6996 29.3994 34.7674C30.0881 37.7329 28.1136 38.5777 25.5618 39.747C23.9416 40.4903 21.8705 41.1443 20.8349 42.7101C19.7622 44.3303 20.0669 46.6046 20.3716 48.4082C20.6317 49.9442 21.0529 52.8155 23.0324 52.979C25.7897 53.2094 29.0748 48.6658 30.6182 46.9415C35.2089 41.8083 38.7517 36.2737 45.1657 31.1306C49.2138 27.8851 61.1674 23.126 61.1674 23.126H61.1625Z" fill="#CED1D2"/>
<path d="M109.195 34.1441C109.715 31.6245 111.98 28.1066 110.476 25.5697C109.428 23.8033 107.354 24.1155 105.878 25.1832C103.98 26.5557 103.831 29.219 104.052 31.3719C104.483 35.5934 109.725 43.6227 109.725 43.6227C108.494 40.7117 108.566 37.1839 109.195 34.1441Z" fill="#CED1D2"/>
<path d="M11.4555 40.5641C9.31 40.1578 7.25871 42.5014 6.30242 44.1118C5.40807 45.6181 4.25356 48.4993 5.31638 50.1914C6.47086 52.0321 8.45035 50.3376 9.42645 49.193C10.524 47.9047 12.3102 45.0631 12.3201 45.026C12.3325 44.9789 13.7025 40.9902 11.4555 40.5641Z" fill="#E6E6E6"/>
<path d="M90.4677 102.768C85.7754 100.274 89.2958 98.4132 89.0555 97.9871C87.9234 95.9804 85.0248 97.608 83.3005 97.9623C78.4943 98.9483 74.954 97.6006 70.7919 95.4353C67.165 93.5475 64.15 90.8422 61.125 88.1319C59.0762 86.2936 53.5391 82.684 53.7349 79.4658L52.2484 78.9703C52.1989 79.1066 52.3252 79.3444 52.1221 79.1586C50.7174 76.8249 48.8295 74.942 46.0152 74.5357C41.5806 73.8941 38.6102 77.3649 38.7762 81.6261C39.0487 88.6521 44.8508 95.0761 49.7487 99.5231C55.5013 104.748 62.4777 109.168 70.0091 111.278C75.0457 112.691 80.2879 112.787 85.3419 111.415C88.3371 110.602 92.0632 109.336 94.1814 106.913C97.1642 103.499 92.6577 103.933 90.4677 102.768Z" fill="#CED1D2"/>
<path d="M111.685 87.9146C109.633 85.6452 105.001 89.5076 103.346 90.6521C100.727 92.4631 95.0264 94.8241 95.0264 94.8241C97.2808 95.7631 99.4362 96.1 101.874 95.9712C104.394 95.8374 107.215 95.5698 109.366 94.1255C110.956 93.0552 113.431 89.8445 111.685 87.9146Z" fill="#CED1D2"/>
<path d="M102.511 43.0751C100.221 40.5977 97.2238 37.6099 93.9982 36.3811C91.6347 35.4818 89.3579 36.8914 89.7395 38.8337C90.2027 41.1898 94.4243 44.6557 93.8694 47.091C93.4284 49.016 92.1772 49.5338 90.5669 49.8979C88.9318 50.2696 86.1522 51.4934 86.769 53.0368C87.9062 55.8908 93.9016 57.9966 91.7313 60.2932C79.9982 72.6927 82.8052 59.9736 78.5118 59.4781C76.2449 59.218 75.0186 62.8375 73.8914 64.646C71.8772 67.8741 69.4939 70.6216 66.2336 72.6605C62.7504 74.8382 58.234 76.4708 54.0769 75.7028C50.9479 75.1256 49.1592 73.0396 47.6554 70.4036C49.9743 71.0502 56.096 71.8578 54.8201 67.4431C53.7325 63.6749 47.4671 64.0441 44.5462 63.0258C39.1851 61.1554 34.8248 56.0717 34.473 50.2943C34.255 46.712 35.8653 43.2435 37.8844 40.2756L37.384 40.6497C36.0016 41.7967 34.6489 42.9785 33.5118 44.3757C29.9839 48.7162 28.6288 54.5382 28.0986 59.9885C27.3801 67.3539 29.813 73.5276 33.4201 80.1226C42.0961 95.9831 66.0255 92.6063 79.6662 87.2253C91.8948 82.4018 99.9539 75.1008 105.342 62.6393C108.504 55.3284 108.02 49.0383 102.513 43.0751H102.511Z" fill="#C9D1D6"/>
<path d="M60.9758 23.1885C58.2631 24.2835 51.626 26.9121 49.0545 28.3069C43.6611 31.2352 40.3686 33.3831 36.8631 36.9952C31.4647 42.5595 26.7923 48.7803 21.8449 54.736C19.9645 56.9979 18.4508 59.7281 15.9981 61.3557C14.5934 62.2873 9.96808 61.9578 9.47259 64.1032C9.21246 65.2304 12.7552 65.2106 13.766 66.2511C16.0056 68.5551 15.9461 69.3256 16.2434 72.3629C16.6001 76.0097 19.2287 92.9256 21.1487 96.0471C23.9779 100.65 27.1614 105.328 31.0237 109.133C33.0032 111.083 41.6519 116.251 44.3226 114.147C46.0667 112.772 41.1069 107.845 43.6487 107.936C46.8743 108.053 49.7853 110.389 52.9762 110.892C56.4347 111.437 59.3482 109.762 59.8783 106.155C60.4605 102.211 58.1912 98.4602 55.0647 96.2379C51.5567 93.7431 47.189 92.8414 43.7577 90.1979C39.2488 86.7246 36.9522 81.1826 35.3394 75.8933C33.6127 70.2373 31.43 64.3088 31.8859 58.4101C32.4284 51.3891 34.7523 48.1907 36.3923 44.7817C41.0425 35.1223 51.8341 28.8692 60.9758 23.191V23.1885Z" fill="#E4E9EA"/>
<path d="M9.88482 69.3877C6.85988 71.7165 -3.62214 78.3932 1.2906 83.0854C5.60628 87.2054 7.79634 76.5351 8.20263 74.0527C8.58911 71.6942 9.88482 69.3877 9.88482 69.3877Z" fill="#E4E9EA"/>
<path d="M20.8323 35.9842L21.0231 36.1105C23.0496 36.9207 25.7624 33.752 22.8489 32.4241C20.8373 31.5075 18.6918 33.5315 20.8348 35.9842H20.8323Z" fill="#C9D1D6"/>
<path d="M81.3194 29.4194C80.6827 28.7431 78.4307 27.269 77.5735 27.222C74.6254 27.0609 73.5874 30.7027 75.8517 33.3338C80.5019 38.7321 83.9851 32.2536 81.3194 29.4194Z" fill="#E4E9EA"/>
<path d="M21.1795 28.0213C21.6824 27.6299 22.6114 26.0444 22.6114 26.0444C24.4299 22.244 18.3825 21.2059 17.2701 24.7437C16.2073 28.1204 19.3858 29.4211 21.1795 28.0213Z" fill="#CDCDCD"/>
<path d="M101.099 13.425C101.614 11.6908 102.471 10.0185 104.114 9.27776C105.806 8.51719 108.082 9.32482 107.446 11.6239C106.965 13.3606 105.662 14.4754 104.309 15.4416C102.939 16.4227 101.686 17.5251 100.392 18.5508C99.7805 17.3071 100.742 14.6191 101.096 13.4225L101.099 13.425Z" fill="#E4E9EA"/>
<path d="M123.102 51.2208C124.418 47.8045 123.952 45.4856 121.019 43.6473C115.266 40.0402 121.616 51.5503 115.375 60.3452C118.643 58.6531 121.546 55.259 123.102 51.2208Z" fill="#E6E6E6"/>
</svg>
