<svg width="175" height="174" viewBox="0 0 175 174" fill="none" xmlns="http://www.w3.org/2000/svg">
<rect x="0.140625" width="174" height="174" rx="87" fill="white"/>
<path d="M96.6828 62.4366C96.2443 63.9503 95.2069 66.9257 94.0186 70.4198C94.0469 70.4056 94.0799 70.4009 94.1129 70.3868C93.9903 70.5848 93.8866 70.7593 93.8347 70.8913C93.2924 72.1786 92.8728 73.5178 92.3777 74.8334C91.2884 77.7522 89.8974 80.6616 88.5676 83.4814C79.4528 102.852 67.2352 120.789 52.3723 136.209C50.2504 138.411 48.0719 140.561 45.8415 142.659C43.6536 144.72 41.0743 145.941 38.495 147.497C38.047 147.771 37.5849 148.049 37.269 148.469C36.953 148.888 36.8116 149.483 37.0615 149.945C37.1652 149.973 37.2643 149.992 37.368 150.011C39.1646 150.317 40.9281 149.157 42.4276 148.054C51.1086 141.665 58.4788 132.493 65.2689 124.109C71.9931 115.81 78.0853 106.992 83.244 97.6323C85.3847 93.7468 87.3558 89.7717 89.1618 85.7212C90.5952 82.5053 92.5616 79.5016 93.8441 76.2244C96.8431 68.5713 97.9607 60.4609 101.794 53.1049C103.718 49.4174 105.991 46.1591 108.952 43.3016C111.258 41.0712 116.907 37.3131 116.577 36.2285C107.802 39.2181 100.045 50.7755 96.6828 62.4366Z" fill="#8FAF05"/>
<path d="M91.5488 48.002C89.2902 52.8682 87.7246 58.4277 87.0598 63.8739C86.4138 69.1457 81.6701 91.7607 84.0042 94.1467C86.2959 97.5041 86.2487 81.3161 87.1541 72.6445C87.8189 66.2929 88.6253 59.8894 90.634 53.8537C91.2093 52.1232 91.8836 50.4728 92.6475 48.8743C92.2656 48.6008 91.8978 48.3132 91.5488 48.002Z" fill="#8FAF05"/>
<path d="M90.7963 28.4676C92.0364 29.3164 94.5922 25.6572 96.1294 25.28C98.3079 24.7424 101.745 25.0537 103.443 26.6522C106.23 29.2739 106.612 33.6404 103.184 35.8047C100.34 37.5919 97.0064 41.4255 95.6296 44.4622C94.6252 46.6784 94.9977 50.4649 92.0317 51.2052C90.7491 51.5258 88.1745 51.54 87.123 50.5167C86.0479 49.4793 86.5289 47.6215 86.5572 46.3059C86.6326 42.8165 86.543 39.2753 85.5292 35.9132C84.9634 34.0317 82.9216 32.0324 83.2753 30.0378C83.478 28.8825 84.0014 28.5336 84.8266 27.8593C85.3406 27.4444 85.7084 27.5387 86.1894 27.0247C86.4864 26.7088 86.4015 26.0533 86.7363 25.7562C87.6134 24.9829 88.6131 25.1763 89.509 25.9449C90.3295 26.6475 90.1173 27.897 90.7397 28.411C90.7586 28.4393 90.7774 28.4582 90.7963 28.4676Z" fill="#F9F200"/>
<path d="M90.739 28.4235C90.1166 27.9096 90.3288 26.6553 89.5083 25.9574C88.6124 25.1888 87.6127 24.9907 86.7356 25.7688C86.3961 26.0658 86.4857 26.7213 86.1887 27.0372C85.703 27.5465 85.3352 27.4522 84.8259 27.8718C84.0007 28.5461 83.4773 28.8951 83.2745 30.0503C83.0246 31.4744 83.9913 32.9032 84.774 34.2942C84.4393 32.9597 83.8168 31.8941 84.411 30.4464C84.8306 29.4232 86.382 28.1831 87.1695 27.3154C87.6127 26.8297 88.2776 26.9476 88.5841 27.5135C88.9 28.1076 89.1876 29.7721 90.225 29.5081C90.6871 29.3902 91.0644 29.8334 91.1445 30.2248C91.3237 31.0736 91.6962 32.4835 91.5312 33.3275C91.6396 32.7664 91.734 32.21 91.8848 31.6583C92.2055 30.4794 93.5258 29.3572 94.2614 28.4283C95.0489 27.4333 95.8835 26.6411 97.2085 26.4761C98.4062 26.3299 99.7171 27.6785 100.778 27.3956C101.127 27.3013 101.523 27.3249 101.749 27.6596C102.094 28.1595 102.013 28.4943 101.976 29.1167C101.933 29.8429 100.698 30.3804 101.91 29.8759C102.542 29.6118 103.725 29.7061 104.003 30.4747C104.541 31.9506 103.716 33.9217 103.018 35.2373C102.886 35.4872 102.787 35.8078 102.707 36.1521C102.867 36.0389 103.027 35.9116 103.188 35.8125C106.616 33.6529 106.234 29.2817 103.447 26.66C101.745 25.0615 98.3119 24.7503 96.1334 25.2878C94.5962 25.665 92.0405 29.3242 90.8003 28.4754C90.7767 28.4565 90.7579 28.4377 90.739 28.4235Z" fill="#F6FF48"/>
<path d="M100.301 32.256C98.9004 34.0478 96.9671 35.967 94.6141 36.2122C94.3123 33.8734 96.1608 31.6053 96.123 29.2004C93.0533 31.7892 93.6144 36.6319 90.672 39.1876C91.1907 38.7161 90.6202 35.321 90.4646 34.6514C89.9364 32.3739 87.8098 29.8228 85.5276 29.0872C86.7488 30.1152 90.7286 37.0515 87.5976 37.8154C86.3528 38.1172 85.7209 35.0333 84.4336 33.7036C84.8674 34.4581 85.3012 35.1984 85.5181 35.9246C86.5319 39.2866 86.6168 42.8279 86.5461 46.3173C86.5367 46.8784 86.4471 47.5385 86.4282 48.194C87.0035 49.9528 88.6114 50.8582 90.6532 50.4998C92.4026 50.1933 93.605 48.9343 94.7603 47.6281C95.0291 46.52 95.2177 45.3695 95.6232 44.4688C96.5993 42.3233 98.5467 39.7959 100.607 37.8579C99.1267 38.2492 97.7027 38.4426 96.5616 38.1785C95.892 38.0276 100.395 33.5197 100.598 33.2887C101.781 31.9448 103.012 30.1341 102.607 28.2715C101.664 29.4739 101.277 31.0064 100.301 32.256Z" fill="#E8D80A"/>
<path d="M93.7908 40.6554C93.5267 40.2169 94.484 38.3449 94.6537 37.8733C95.1913 36.4116 96.0778 35.0912 96.6295 33.6295C97.1764 32.1866 98.2233 30.6211 98.4496 29.1074C97.6385 30.9511 96.5587 32.9363 95.3186 34.5301C94.4934 35.5958 93.4984 36.4776 92.6874 37.5527C92.131 38.2977 91.2822 39.2974 90.8012 37.9063C90.2024 36.1664 90.3108 34.5207 89.2027 32.9693C90.0845 34.7187 89.8959 36.8548 89.8393 38.7032C89.8157 39.4671 89.5045 40.7261 88.5379 40.0047C87.7457 39.4153 87.4816 38.4297 86.7177 37.8309C86.4537 37.6234 86.1519 37.4159 85.8359 37.2179C86.5244 40.1839 86.6187 43.2583 86.5527 46.295C86.5432 46.8608 86.4489 47.5351 86.4301 48.1953C86.5008 48.4735 86.5857 48.7423 86.7366 49.0063C88.2031 51.5291 91.6736 50.5766 93.555 49.1242C94.0124 48.7706 94.3613 48.3179 94.6961 47.8511C95.0026 46.6722 95.1865 45.4085 95.6251 44.4419C96.0306 43.5506 96.6153 42.5887 97.2943 41.6315C97.1811 41.6786 97.068 41.7447 96.9548 41.7777C96.7426 41.8437 96.5257 41.8861 96.3088 41.905C95.9787 41.0043 96.9029 39.2125 97.3415 38.4345C98.2232 36.8595 99.5483 35.6099 100.213 33.8464C99.105 34.5348 98.4967 36.1758 97.6291 37.1472C96.7709 38.1044 95.7995 38.972 94.9791 39.9387C94.7197 40.2687 94.1114 41.1788 93.7908 40.6554Z" fill="#CCBA1B"/>
<path opacity="0.48" d="M92.8058 39.8711C93.2019 38.5036 93.7112 37.3201 94.4138 36.1035C93.0463 36.8627 91.8439 38.2679 91.1885 39.7061C90.9055 40.3332 90.7924 41.2763 89.9719 41.0688C89.208 40.8755 88.8874 39.8145 88.5478 39.2015C88.5997 39.857 88.7176 41.828 87.6331 41.7808C87.1521 41.7573 86.7654 41.2716 86.4023 40.7152C86.5721 42.573 86.5957 44.4497 86.5532 46.3123C86.5438 46.8687 86.4542 47.5242 86.4306 48.1702C86.6523 48.8633 86.9352 49.5141 87.5953 49.9856C89.3966 51.2871 91.9806 50.3534 93.5603 49.1463C93.9894 48.8162 94.3619 48.406 94.6778 47.958C94.9985 46.7509 95.1824 45.4541 95.6303 44.4639C95.9133 43.8462 96.2905 43.186 96.7149 42.5259C96.5074 42.6673 96.3094 42.8088 96.1019 42.9314C95.6681 43.1813 95.2343 43.3652 94.8287 43.4076C94.6731 42.7522 95.305 42.1439 95.5785 41.5875C95.8803 40.9792 96.017 40.2861 96.1632 39.6306C95.4229 39.9371 94.9042 41.7525 94.3949 42.4268C93.7395 43.2992 92.886 44.3366 91.7024 44.3083C91.179 42.9361 92.4333 41.1631 92.8058 39.8711Z" fill="#979E02"/>
<path d="M93.0591 44.0557C93.1109 43.603 93.1628 43.2635 93.1628 43.2211C93.342 42.0375 93.5353 40.3211 92.4885 39.4629C90.574 41.1321 90.2393 43.7256 88.2494 45.3241C87.5279 44.5649 87.4949 43.6124 87.113 42.7354C84.048 44.9139 84.7458 49.8084 84.6327 53.0526C84.5384 55.7074 85.3117 58.7582 87.1082 60.7293C90.956 64.9495 95.5912 51.9964 96.1099 49.4265C96.4306 47.8516 97.02 45.4137 96.1476 43.9755C95.9779 43.6926 93.4787 46.2766 93.1911 46.4747C92.8044 46.7529 92.9365 45.1072 93.0591 44.0557Z" fill="#8FAF05"/>
<path opacity="0.71" d="M96.1563 43.9778C96.0525 43.8033 95.034 44.7417 94.2182 45.5244C94.289 46.0856 95.515 46.2506 94.6049 51.0745C94.289 52.739 92.8555 55.7615 91.2381 56.4736C90.3941 55.8464 92.4217 48.7592 92.2661 47.8774C92.0869 46.8966 88.8663 55.1344 88.9983 54.1253C89.2529 52.2109 90.0263 47.8303 90.4931 45.963C90.8939 44.388 91.3607 42.9687 92.0727 41.4645C92.2944 40.9882 92.5914 40.4648 92.8743 39.9226C92.7659 39.7575 92.648 39.6066 92.4877 39.4746C91.4927 40.3422 90.9222 41.4645 90.328 42.5585C90.1677 43.03 90.0168 43.5063 89.8659 43.9967C89.385 45.5905 88.904 47.1371 88.3712 48.7309C87.9232 50.0748 87.2772 52.0883 86.2917 53.1162C85.5089 51.4658 85.8814 45.9818 87.4564 43.7656C87.3526 43.4261 87.2583 43.0819 87.1169 42.7518C84.0519 44.9303 84.7497 49.8249 84.6366 53.0691C84.5423 55.7238 85.3156 58.7747 87.1121 60.7457C90.9599 64.966 95.5951 52.0128 96.1138 49.4429C96.4392 47.8538 97.0286 45.416 96.1563 43.9778Z" fill="#637F1D"/>
<path d="M98.8598 62.421C97.8507 63.5668 95.5119 65.6981 95.3516 67.3297C95.7052 67.2778 95.9929 67.0232 96.3229 66.7261C98.0912 65.1323 104.4 58.7665 104.716 58.2431C105.051 57.6773 104.839 57.2435 104.136 57.2906C103.344 57.3472 102.698 58.3704 102.128 58.9834C101.048 60.1387 99.9161 61.2185 98.8598 62.421Z" fill="#8FAF05"/>
<path d="M116.524 48.7447C116.637 48.5089 116.736 48.2731 116.821 48.0232C117.056 47.3206 117.273 45.6844 116.429 45.3449C115.458 44.9535 113.817 46.2408 112.898 46.5426C111.827 46.8915 111.827 46.7736 110.974 46.1795C110.196 45.6372 109.493 45.9579 108.748 46.4294C106.386 47.9195 101.222 54.7521 101.576 58.6045C102.062 63.8669 112.808 57.6001 114.062 55.2896C114.303 54.8369 114.425 54.3371 114.543 53.8043C114.765 52.7622 115.048 51.904 115.425 50.9326C115.722 50.1734 116.175 49.4803 116.524 48.7447Z" fill="#B3D100"/>
<path opacity="0.71" d="M101.818 59.5109C101.912 59.7042 102.025 59.8693 102.162 60.006C102.19 60.0343 102.214 60.0626 102.238 60.0956C102.398 60.2371 102.577 60.3502 102.775 60.4398C102.794 60.4445 102.808 60.454 102.827 60.4634C103.025 60.5388 103.251 60.5907 103.478 60.619C103.539 60.6284 103.605 60.6332 103.666 60.6379C103.808 60.6473 103.963 60.6426 104.119 60.6379C106.326 60.5247 109.537 58.8413 112.031 57.2475C113.026 56.5119 113.786 55.8093 114.064 55.2953C114.285 54.8804 114.403 54.4183 114.512 53.9373C114.177 54.3051 113.786 54.7106 113.305 55.168C112.074 56.3327 109.141 57.9407 107.415 57.5729C107.104 56.5685 112.894 52.0134 113.281 51.2071C113.715 50.3065 106.274 55.0973 106.972 54.357C108.306 52.9518 111.494 49.8538 112.965 48.6136C114.21 47.5715 115.427 46.6945 116.879 45.8882C116.884 45.8882 116.888 45.8834 116.893 45.8834C116.799 45.6382 116.653 45.4402 116.422 45.3506C116.228 45.2752 116.007 45.2752 115.771 45.3082C115.455 45.4543 115.139 45.6005 114.828 45.7561C114.422 46.039 114.021 46.3361 113.611 46.6473C112.286 47.6564 110.994 48.6278 109.627 49.6133C108.481 50.4385 106.774 51.6975 105.373 51.9474C105.637 50.5045 107.967 47.5102 110.202 45.9306C109.712 45.907 109.235 46.1239 108.74 46.4351C106.378 47.9252 101.214 54.7578 101.568 58.6103C101.592 58.8885 101.662 59.1195 101.743 59.3364C101.776 59.3883 101.79 59.4543 101.818 59.5109Z" fill="#7DA012"/>
<path d="M71.1241 82.1836C72.3784 86.1068 72.8358 90.0489 72.7792 94.2078C72.6943 100.569 71.3504 106.883 69.8934 113.102C69.4737 114.89 68.9031 116.983 68.2996 119.148C69.1625 117.983 70.0584 116.846 70.9921 115.724C71.7984 111.009 72.4538 106.746 72.8641 104.846C75.4292 92.9818 74.0759 79.1328 67.762 72.3379C66.9557 73.1395 70.148 79.1233 71.1241 82.1836Z" fill="#8FAF05"/>
<path d="M70.7736 69.1189C70.137 70.5571 70.6416 72.3866 71.363 73.6739C71.9524 74.7255 72.8767 76.1731 70.7877 76.456C69.8258 76.5833 69.0666 75.9798 68.2131 75.7393C67.0201 75.4045 65.7564 76.0458 64.6012 75.7015C63.0074 75.23 63.3421 73.7871 62.6348 72.5988C62.069 71.6463 61.6022 71.2361 60.5601 71.038C58.3344 70.6089 56.0899 71.4105 53.9963 72.0848C50.8369 73.0987 47.6494 73.0986 44.5561 71.7689C41.8683 70.6184 37.7329 67.3317 38.2422 63.9744C38.5675 61.8289 40.9771 60.8387 42.1465 59.1317C44.0138 56.4062 41.8777 53.4261 42.7831 50.5544C43.3395 48.7908 46.1121 47.3385 47.6163 46.4756C49.4742 45.4052 51.6999 44.7922 53.8218 45.4806C57.5092 46.6784 59.8292 51.3277 61.39 54.5672C62.6207 57.1276 63.4459 59.839 64.8322 62.2721C65.714 63.8188 66.2232 64.1394 66.6665 62.0269C67.0484 60.1926 67.5577 58.4338 68.3122 56.7221C70.3681 52.0586 76.4745 43.9104 82.43 48.2344C84.8867 50.0168 85.1319 52.3227 85.91 54.9821C86.2401 56.1138 86.2259 57.1041 87.1171 57.9764C88.0743 58.9195 89.7672 58.9195 89.5644 60.5039C89.2249 63.1303 84.7877 65.4692 82.8686 66.8319C80.624 68.4257 77.9976 68.9585 75.3004 68.4021C73.5557 68.039 71.7167 66.9875 70.7736 69.1189Z" fill="#EFE306"/>
<path d="M50.6429 51.5996C51.2937 52.2032 53.1845 53.6555 54.2879 54.6693C57.0559 57.2109 59.904 59.0876 61.1158 62.7751C58.7298 61.2567 56.6173 59.6582 53.8494 58.8424C56.8107 59.7148 59.7672 63.2655 61.5402 65.7222C59.9181 63.6663 56.3533 61.8367 53.7362 61.6104C51.2135 61.3935 46.6113 62.5487 45.0977 64.765C47.2384 64.3359 49.4028 63.572 51.6143 63.5484C53.2788 63.5295 57.0794 63.5484 58.131 65.1799C55.8299 64.6989 52.4725 64.7697 50.4873 66.3399C53.1185 66.2975 55.066 65.7929 57.6123 66.769C59.7106 67.5706 62.4503 69.089 62.6908 71.607C62.719 71.9418 62.6389 72.2058 62.5257 72.4369C62.5634 72.4935 62.5964 72.5359 62.6342 72.5972C63.3368 73.7855 63.0067 75.2284 64.6005 75.6999C65.6709 76.0159 66.8403 75.516 67.9578 75.7047H67.9673C67.972 75.7047 67.9767 75.7094 67.9814 75.7094C68.0616 75.7235 68.1417 75.7141 68.2172 75.7377C68.2832 75.7565 68.3492 75.7895 68.4105 75.8084C68.9103 75.964 69.4007 76.2328 69.9242 76.1903C70.5183 76.1432 71.4142 75.6952 72.0319 75.1199C71.9188 74.6437 71.617 74.125 71.3671 73.6723C70.6456 72.385 70.1411 70.5555 70.7776 69.1173C71.7207 66.9859 73.5597 68.0422 75.3091 68.4005C78.0063 68.9617 80.6328 68.4241 82.8773 66.8303C83.1461 66.6417 83.4715 66.4248 83.8251 66.1937C84.2165 65.9344 84.6409 65.6609 85.0888 65.3638C85.103 65.3544 85.1218 65.345 85.136 65.3308C85.5321 65.0667 85.9423 64.7838 86.3384 64.4868C86.3714 64.4632 86.4044 64.4396 86.4374 64.416C86.8571 64.1048 87.2626 63.7794 87.6399 63.4399C86.5459 64.2698 85.3435 64.9724 84.0656 65.51C82.4435 66.1937 80.845 66.868 79.039 66.6794C78.0158 66.5757 77.0585 66.2032 76.0777 66.0617C75.6769 66.0051 72.6779 65.991 72.5223 66.2597C73.3805 64.7933 75.8042 64.1991 77.1953 63.4729C79.0531 62.5063 81.7268 60.8795 82.9716 59.2244C81.359 59.8893 79.9302 60.9691 78.2657 61.6104C76.7709 62.1856 74.5217 62.2045 73.2485 63.1146C74.5688 61.1341 76.8511 59.9883 78.6948 58.4275C77.0868 58.8424 75.7995 59.7667 74.4321 60.738C73.4748 61.417 72.4799 62.8977 71.2775 63.1287C69.1037 63.5531 71.8433 60.7805 72.428 60.1722C74.333 58.1823 76.3512 56.183 78.6806 54.5939C77.8319 55.1739 76.4172 55.3012 75.4647 55.8482C74.4179 56.4517 73.6069 57.1638 72.8147 58.0455C71.0747 59.9788 69.0754 61.7377 67.4863 63.803C66.9912 63.3362 66.8497 62.5252 66.7507 61.7518C66.7318 61.8414 66.6988 61.931 66.68 62.0206C66.2414 64.1331 65.7275 63.8125 64.8457 62.2658C64.6052 61.8509 64.4024 61.417 64.195 60.9832C62.5729 61.087 60.1822 57.7485 59.0128 56.7535C57.7585 55.6878 56.3391 54.8485 54.9104 54.0422C53.7551 53.4103 51.6096 52.4908 50.6429 51.5996Z" fill="#E0CF05"/>
<path opacity="0.48" d="M63.0413 63.4141C63.6118 64.6071 64.7907 66.5168 64.753 67.8277C63.8995 66.8044 63.178 65.7623 62.2491 64.8145C61.3862 63.9328 60.3912 63.2679 59.4576 62.4616C61.1174 64.5976 64.8473 67.1204 64.7105 70.1476C62.5556 68.186 60.7355 65.4794 57.5101 65.3049C59.915 66.4696 62.2491 68.6387 63.4704 71.0294C62.8951 70.6239 62.466 70.0015 61.7446 69.5865C60.792 69.0301 59.6415 68.403 58.5522 68.1389C56.8783 67.7334 54.9072 68.0352 53.2852 68.4925C55.209 68.054 58.557 68.535 60.08 69.9496C60.429 70.2702 60.9335 70.7748 61.2919 71.2652C61.8577 71.5151 62.2208 71.9112 62.631 72.6044C63.3336 73.7926 63.0036 75.2355 64.5974 75.7071C65.7526 76.0466 67.0211 75.4053 68.2093 75.7448C68.695 75.8816 69.1524 76.122 69.6287 76.2965C70.4397 75.8768 70.8452 74.8064 71.7506 74.4056C71.6233 74.1557 71.4865 73.9105 71.3592 73.6795C70.8688 72.8024 70.5057 71.6754 70.5105 70.5909C70.2653 69.6478 70.303 68.7283 71.147 67.8748C72.5051 66.5074 75.6266 66.5498 77.3761 66.8516C74.693 66.5074 72.2127 65.7765 69.7041 67.1911C69.9823 66.1631 71.6704 65.338 72.5239 64.7297C73.4811 64.0459 74.6176 62.9473 75.7445 62.6926C73.7499 63.2443 71.8873 63.7489 70.2181 65.0456C69.0393 65.9557 68.0585 67.1581 66.889 67.988C66.8466 67.1628 67.2474 66.3895 67.1955 65.503C67.1484 64.7815 66.9833 63.9799 66.7099 63.3575C66.4175 64.7863 66.3939 66.3518 65.913 67.7522C66.0544 64.4515 63.1167 60.9102 60.2168 59.6465C61.1787 60.8913 62.3057 61.8769 63.0413 63.4141Z" fill="#979E02"/>
<path opacity="0.63" d="M68.8181 65.5492C67.1913 66.1103 66.5406 68.2794 66.0407 69.8119C65.6022 68.6849 65.4749 67.7749 64.6639 66.7092C63.8481 65.6341 62.7588 65.0541 61.6602 64.2949C62.5702 66.2094 64.1499 67.7513 63.6029 69.9864C63.1125 69.5667 62.4759 69.0858 61.8723 68.9584C62.4759 69.081 62.8909 71.1747 62.7588 71.6698C62.6881 71.9291 62.5702 72.1272 62.4288 72.2875C62.4948 72.3865 62.5655 72.4761 62.6362 72.594C63.0701 73.3296 63.1125 74.1642 63.4567 74.8055C63.8952 74.8102 64.2819 74.8244 64.513 74.8668C65.6116 75.0696 66.5877 75.4374 67.5214 75.659C67.7524 75.6637 67.9882 75.6731 68.2145 75.7344C68.2806 75.7533 68.3419 75.7816 68.4079 75.8052C69.4217 75.9042 70.4072 75.6967 71.4587 74.6971C71.553 74.6075 71.6615 74.5132 71.7699 74.4141C71.6426 74.1595 71.4964 73.9002 71.3644 73.6691C71.0202 73.0514 70.7326 72.3111 70.5864 71.5519C70.2987 71.8395 70.0535 72.0706 69.9026 72.0895C68.5871 72.2168 68.9124 69.4394 69.3227 68.8123C69.9828 67.7985 71.553 67.1194 72.4961 66.3603C70.6194 66.4027 68.6436 67.2185 67.5827 68.8264C67.3139 67.9965 68.1108 66.0396 68.8181 65.5492Z" fill="#ADA405"/>
<path opacity="0.5" d="M67.5547 58.7788C72.9679 51.734 76.0377 49.3198 80.1118 49.8762C85.4496 50.6023 82.3468 57.218 86.5577 59.2409C88.4486 60.1463 88.7456 61.4477 88.3118 62.7633C88.9672 62.0466 89.4624 61.2921 89.5614 60.5046C89.7641 58.9203 88.076 58.925 87.1141 57.9772C86.2229 57.1049 86.237 56.1146 85.907 54.9829C85.1289 52.3235 84.8837 50.0176 82.427 48.2352C76.4715 43.9112 70.3651 52.0594 68.3091 56.7229C68.0168 57.3972 67.7857 58.0857 67.5547 58.7788Z" fill="#FCFF7D"/>
<path opacity="0.5" d="M42.787 50.5549C41.8816 53.4218 44.0177 56.4066 42.1504 59.1321C40.981 60.8391 38.5714 61.8293 38.2461 63.9748C37.7368 67.3322 41.8722 70.6188 44.56 71.7694C47.658 73.0944 50.8409 73.0991 54.0002 72.0853C56.0844 71.4157 58.3195 70.6235 60.5404 71.0385C58.5458 68.2093 52.5148 70.6424 49.9119 70.9536C47.5024 71.2412 45.8143 70.7603 43.6499 69.6239C38.0669 66.6909 41.2403 62.664 44.3572 59.2123C45.6869 57.7411 47.1817 56.9914 46.3424 54.2894C46.0547 53.3605 45.7058 52.3656 45.8756 51.38C46.1585 49.7014 47.8041 47.9378 49.4734 47.6077C51.9537 47.1173 53.4437 46.6317 55.4336 48.0227C56.952 49.0837 58.9985 51.4885 60.3754 52.5353C58.8617 49.6401 56.787 46.4525 53.8257 45.4905C51.6991 44.7974 49.4781 45.4151 47.6202 46.4855C46.1113 47.339 43.3434 48.7913 42.787 50.5549Z" fill="#FCFF7D"/>
<path d="M55.1445 61.8383C58.799 62.4513 60.7134 66.4641 62.5147 69.3122C63.5379 70.9296 64.5376 73.7258 65.6551 75.2961C66.551 75.4658 67.4281 75.579 68.2769 75.7912C68.5174 74.3011 68.1448 71.7076 68.159 70.8825C68.2014 67.2327 68.7673 62.2439 72.1246 60.0371C66.7397 60.4049 66.5086 70.0337 66.8717 74.3435C65.3203 69.3641 63.9529 61.8242 63.9151 57.5332C62.543 59.5608 63.0192 63.1068 63.5898 65.422C64.4291 68.8548 64.4951 70.227 65.1977 72.481C61.8828 66.7046 60.4069 60.9424 55.1445 61.8383Z" fill="#8D9309"/>
<path d="M56.5079 60.8836C55.8525 60.2895 54.3813 60.4592 53.7919 61.209C53.5372 61.5343 53.5184 61.9635 53.9333 62.468C54.5652 63.2413 56.5032 63.1376 56.7814 62.0247C56.9087 61.5061 56.7814 61.1335 56.5079 60.8836Z" fill="#B2AD02"/>
<path d="M56.509 60.8836C55.8536 60.2895 54.3824 60.4592 53.793 61.209C53.793 61.209 54.8445 60.596 55.7923 61.3835C56.7024 62.1379 55.9007 62.8688 55.9007 62.8688C56.3251 62.7321 56.6788 62.4539 56.7825 62.0295C56.9098 61.5061 56.7825 61.1335 56.509 60.8836Z" fill="#8D9309"/>
<path d="M64.4445 59.2629C65.0151 58.5933 64.8029 57.1268 64.039 56.5562C63.7042 56.311 63.2751 56.3063 62.78 56.7354C62.0303 57.3909 62.1906 59.3289 63.3128 59.5694C63.8362 59.6872 64.204 59.5458 64.4445 59.2629Z" fill="#B2AD02"/>
<path d="M64.4446 59.2633C65.0152 58.5937 64.803 57.1272 64.0391 56.5566C64.0391 56.5566 64.6804 57.5893 63.9259 58.556C63.1951 59.4896 62.4453 58.7116 62.4453 58.7116C62.5915 59.1312 62.8791 59.4755 63.3082 59.5651C63.8364 59.6877 64.2041 59.5462 64.4446 59.2633Z" fill="#8D9309"/>
<path d="M70.2611 60.0614C70.4733 59.2032 71.7936 58.5289 72.6989 58.8213C73.095 58.9486 73.3449 59.2975 73.2836 59.9482C73.1846 60.9385 71.5154 61.9287 70.6666 61.1601C70.2705 60.8017 70.1715 60.4198 70.2611 60.0614Z" fill="#B2AD02"/>
<path d="M70.2611 60.0614C70.4733 59.2032 71.7936 58.5289 72.6989 58.8213C72.6989 58.8213 71.4823 58.8967 71.1334 60.0708C70.7939 61.2072 71.8643 61.3676 71.8643 61.3676C71.4352 61.4902 70.9872 61.4524 70.6666 61.1601C70.2705 60.8017 70.1715 60.4198 70.2611 60.0614Z" fill="#8D9309"/>
<path d="M62.7546 74.1354C54.828 73.7157 47.2928 78.8413 43.4922 85.7163C41.8984 88.6069 44.2514 90.9646 44.6946 93.7985C46.7411 92.0868 50.9095 94.4209 53.3144 94.1286C56.2049 93.7796 58.6946 91.3229 60.5006 89.2576C62.3255 87.1687 64.8199 84.3725 65.4376 81.5621C65.7158 80.2842 64.8293 78.5348 65.3244 77.3654C66.0883 75.5641 67.8047 76.7854 69.0354 77.389C70.7943 75.6914 64.8435 74.3523 63.9051 74.2344C63.5184 74.1919 63.1365 74.1589 62.7546 74.1354Z" fill="#EFE306"/>
<path d="M47.2266 80.7132C47.8348 81.0008 49.009 80.2369 49.6078 80.0766C51.1026 79.6805 52.6021 79.0628 54.1157 78.695C56.4499 78.1292 54.9409 79.2892 54.1487 80.1285C54.7853 79.8644 55.8934 78.9968 56.464 79.4636C54.9787 80.5199 52.5314 82.1655 51.8335 83.8867C53.4509 82.9672 54.8325 81.6138 56.431 80.6519C55.6482 81.1187 55.3842 81.9816 54.7382 82.5616C55.9925 81.6704 57.3269 81.0008 58.5435 80.1709C58.0767 81.147 56.4121 82.0712 55.6152 82.9011C54.4788 84.08 52.786 85.2966 52.6445 87.0224C53.7102 85.7917 54.658 84.6128 56.0302 83.6367C56.7139 83.1511 60.6748 80.0531 61.3821 80.4633C62.0895 80.8735 60.9672 82.5239 60.5852 82.9672C61.4246 81.9911 64.334 80.2322 63.5041 82.8587C63.8389 82.373 64.0841 81.7977 64.6405 81.529C64.8244 82.142 64.8149 82.8163 64.7206 83.5047C65.0366 82.8587 65.2865 82.208 65.4327 81.5525C65.7109 80.2747 64.8244 78.5253 65.3195 77.3558C66.0834 75.5546 67.7998 76.7759 69.0305 77.3794C70.7893 75.6819 64.8385 74.3427 63.9002 74.2248C63.5182 74.1777 63.1316 74.1447 62.7543 74.1258C56.9214 73.8287 51.3054 76.5259 47.2266 80.7132Z" fill="#E0CF05"/>
<path opacity="0.5" d="M49.6316 91.5632C47.0335 91.1766 45.0389 90.7758 44.4683 88.0078C44.0628 86.0509 45.2133 83.6367 46.411 81.5996C45.2935 82.8728 44.3033 84.2497 43.4922 85.7161C41.8984 88.6067 44.2514 90.9644 44.6946 93.7983C46.7411 92.0866 50.9095 94.4207 53.3144 94.1284C56.2049 93.7795 58.6946 91.3227 60.5006 89.2574C61.2645 88.385 62.1368 87.3901 62.9432 86.3197C59.5811 90.1156 55.5023 92.4356 49.6316 91.5632Z" fill="#FCFF7D"/>
<path opacity="0.41" d="M47.0742 80.8638C48.9887 79.4067 51.2002 77.7422 52.992 76.8416C54.3359 76.1673 56.9105 75.3939 58.4241 75.5401C56.7125 76.3276 49.9034 79.9207 47.1921 83.0895C50.9125 80.364 59.8246 74.531 61.8381 75.7335C57.1746 79.4775 51.1106 81.5852 47.1921 87.8944C48.2719 86.2535 50.5495 84.6691 52.1291 83.4337C54.0011 81.9672 58.4006 78.6947 61.1261 77.6102C59.8718 79.1804 56.156 81.6418 54.7414 83.1036C52.4026 85.5179 51.2898 87.5219 50.7381 89.724C52.3366 87.4606 53.5862 85.0935 55.5996 83.1696C57.4952 81.3542 61.5504 78.6759 63.7054 77.0962C63.4507 79.7745 63.6064 83.8392 57.7781 90.5822C58.957 89.2242 61.8852 87.6634 63.8327 81.2033C64.1958 80.0103 63.8138 78.2326 65.1247 77.7045C65.1577 77.6903 65.2002 77.6903 65.2379 77.6762C65.2615 77.5725 65.2803 77.4687 65.3228 77.3744C66.0866 75.5731 67.803 76.7944 69.0338 77.398C70.7926 75.7005 64.8418 74.3613 63.9034 74.2434C63.5215 74.1962 63.1348 74.1632 62.7576 74.1444C56.8492 73.8237 51.1625 76.5869 47.0742 80.8638Z" fill="#979E02"/>
<path opacity="0.68" d="M54.8672 77.4167C55.8904 76.8272 57.786 75.3796 62.0723 74.8421C62.0723 74.8421 58.8281 77.1054 59.3609 77.5628C59.3609 77.5628 62.3364 74.776 65.0194 75.4456C65.4296 75.5494 61.7328 77.3082 62.0251 77.577C62.2515 77.7845 65.142 75.8983 65.5805 76.9451C66.4246 75.8134 67.9288 76.8414 69.0369 77.3884C70.7958 75.6908 64.8449 74.3517 63.9066 74.2338C63.5246 74.1866 63.138 74.1536 62.7607 74.1347C60.6341 74.0216 58.5358 74.3234 56.5317 74.9364C57.4512 74.8562 58.3801 74.8185 59.3185 74.8515C59.3185 74.8515 58.4509 74.9599 57.0221 75.7851C55.5886 76.6056 54.8672 77.4167 54.8672 77.4167Z" fill="#B2A906"/>
<path d="M72.2882 72.019C72.1231 72.0567 71.9628 72.1039 71.8072 72.151C70.2417 72.632 69.9493 74.0183 69.1807 75.2538C68.4498 76.4185 66.7665 77.1824 66.7429 78.7054C66.7099 80.8462 67.8699 82.8078 69.242 84.3828C71.3828 86.8395 74.2168 87.9382 77.1969 89.1594C79.6677 90.1732 82.2093 91.3097 84.8547 90.3571C87.3255 89.4659 89.5748 87.8297 90.6829 85.3871C91.5081 83.5717 92.4229 80.5067 91.6307 78.5923C90.8998 76.8193 89.8011 75.0887 88.2215 74.0372C86.0665 72.6084 82.8601 72.4434 80.3279 72.0897C77.9136 71.7502 74.7402 71.4249 72.2882 72.019Z" fill="#EFE306"/>
<path d="M66.7429 78.7052C66.7099 80.846 67.8699 82.8076 69.242 84.3826C69.3599 84.5193 69.4919 84.6372 69.6145 84.7692C69.2043 84.1987 68.9214 83.6045 68.9638 82.9868C69.9258 83.4772 70.8075 84.1562 71.8355 84.5193C72.2787 84.6749 73.8961 84.7079 74.179 85.0946C73.3444 83.9488 71.4441 83.6941 70.7698 82.487C72.241 82.5483 73.8348 83.5149 75.3013 83.8733C74.759 82.8878 73.1982 82.2559 72.3165 81.6052C76.1076 82.4728 79.8234 84.4203 83.7135 84.873C83.2137 84.0619 81.7802 83.5291 80.9692 83.0293C79.8658 82.3502 78.6964 81.7137 77.5034 81.2138C75.6927 80.4499 73.6179 79.521 71.7648 79.0353C74.0659 79.4126 76.4849 79.7096 78.7765 80.1953C80.4929 80.5631 82.3414 81.3836 84.0531 81.393C83.3222 80.0444 79.9978 79.3183 78.6445 78.7147C76.9941 77.9791 75.2494 77.0313 73.4482 76.8097C74.6317 76.6211 75.9473 77.2246 77.1309 77.0454C76.5462 76.7767 75.886 76.5833 75.3202 76.2202C77.1733 75.678 79.3801 76.2768 81.2851 76.0882C79.8422 74.4473 75.7021 74.5557 73.6698 74.5557C75.5229 73.0421 77.3666 73.0987 79.531 72.6271C79.3282 72.3442 78.9038 72.0849 78.3757 71.8444C76.3575 71.6416 74.1177 71.5709 72.2835 72.0141C72.1184 72.0518 71.9581 72.099 71.8025 72.1462C70.237 72.6271 69.9446 74.0134 69.176 75.2489C68.4498 76.4183 66.7665 77.1822 66.7429 78.7052Z" fill="#E0CF05"/>
<path opacity="0.5" d="M83.0774 73.3581C86.0622 74.735 91.8008 77.1634 90.5135 81.5204C89.3206 85.5615 86.166 89.3291 81.5873 88.8764C78.6779 88.5888 75.0518 88.0041 71.9727 86.6885C73.5712 87.6929 75.3536 88.4049 77.1926 89.1593C79.6635 90.1731 82.205 91.3096 84.8504 90.357C87.3212 89.4658 89.5705 87.8296 90.6786 85.387C91.5038 83.5716 92.4186 80.5066 91.6264 78.5922C90.8955 76.8192 89.7968 75.0886 88.2172 74.0371C86.0622 72.6083 82.8558 72.4433 80.3236 72.0896C80.2434 72.0802 80.1586 72.0661 80.0737 72.0566C81.1299 72.481 82.1485 72.929 83.0774 73.3581Z" fill="#FCFF7D"/>
<path opacity="0.41" d="M69.18 75.252C68.4492 76.4167 66.7658 77.1805 66.7422 78.7036C66.7422 78.713 66.7469 78.7225 66.7469 78.7319C67.143 79.1563 67.5721 79.5382 67.8927 79.8259C69.727 81.4998 70.7691 83.4284 73.3484 84.1122C71.5424 83.6312 69.5808 80.8114 68.6283 79.26C70.1325 79.5524 71.4623 80.9811 72.9995 81.4527C74.6122 81.9431 76.2625 82.4665 77.9035 82.9239C80.5724 83.6689 83.9863 84.5224 86.2309 86.2199C84.7172 84.032 81.0345 82.7871 78.625 81.9384C75.046 80.6794 71.5377 80.7501 68.6849 77.9492C70.274 77.9539 71.9904 78.7743 73.5135 79.2034C75.277 79.708 77.1113 79.8636 78.8796 80.2974C79.6293 80.4813 80.3885 80.7454 81.1524 80.9293C81.8456 81.0943 83.2177 81.0849 83.7977 81.4291C81.4825 80.0522 78.5542 79.2978 75.956 78.5904C73.6974 77.9727 71.3444 77.7087 69.048 77.223C73.5984 76.0206 77.6394 75.3085 82.336 76.577C82.2511 76.5534 82.1756 76.5628 82.1049 76.6006C84.2127 76.8363 85.9055 78.0812 87.7822 78.8356C87.2211 77.5059 84.9954 76.7232 83.7317 76.3459C80.1244 75.2708 76.984 74.6154 73.2541 75.351C72.08 75.582 70.5664 76.1809 69.3875 75.7471C70.7267 73.5827 73.6266 73.4743 75.8052 72.9933C75.1686 73.1347 73.9237 72.5783 73.1598 72.6349C72.2592 72.7009 71.7263 72.9697 70.8917 73.3658C70.7173 73.4507 70.5428 73.5261 70.3542 73.611C70.2552 73.6534 70.1231 73.7053 69.9958 73.7525C69.727 74.224 69.4913 74.7474 69.18 75.252Z" fill="#979E02"/>
<path d="M132.556 24.7047C133.687 28.1092 130.674 31.8863 128.463 34.1921C126.826 35.8943 124.62 37.3467 122.158 36.9883C118.527 36.4649 115.665 33.3999 118.546 30.2312C120.083 28.543 123.573 25.8034 125.827 25.2046C126.982 24.8981 131.943 22.8563 132.556 24.7047Z" fill="#F9F200"/>
<path d="M128.463 34.1913C129.75 32.8474 131.306 31.0037 132.16 29.0233C131.495 29.4571 130.632 29.6457 129.811 29.4146C129.014 29.1883 128.09 28.4857 127.982 27.6039C127.864 26.6656 128.425 25.9724 129.165 25.4726C130.052 24.8737 131.207 24.4635 132.339 24.355C131.202 23.1668 126.897 24.9256 125.831 25.2085C123.578 25.8027 120.088 28.5423 118.551 30.2351C115.67 33.3991 118.527 36.4641 122.163 36.9923C124.62 37.3412 126.826 35.8936 128.463 34.1913Z" fill="#E8D80A"/>
<path d="M128.46 34.1935C129.573 33.0335 130.889 31.4963 131.775 29.827C129.46 30.3505 127.017 30.2844 124.721 29.5205C124.433 29.4215 124.311 29.1386 124.377 28.851C124.764 27.243 125.81 25.9038 127.112 24.791C126.551 24.9749 126.084 25.1352 125.82 25.206C123.566 25.8001 120.076 28.5397 118.539 30.2326C115.658 33.3966 118.516 36.4616 122.151 36.9897C124.617 37.3434 126.824 35.8957 128.46 34.1935Z" fill="#CCBA1B"/>
<path opacity="0.48" d="M128.46 34.1905C128.955 33.6765 129.488 33.0777 130.006 32.4317C127.743 33.4219 125.178 33.9312 123.791 32.0969C122.41 30.2626 123.367 27.5088 124.862 25.5566C122.674 26.5186 119.878 28.7678 118.543 30.2343C115.662 33.3983 118.52 36.4633 122.155 36.9914C124.617 37.3404 126.823 35.8928 128.46 34.1905Z" fill="#979E02"/>
<path d="M125.453 33.0809C125.811 32.8027 126.089 32.6 126.122 32.5764C127.094 31.8785 128.461 30.8223 128.348 29.4737C125.811 29.2615 123.722 30.8364 121.19 30.5252C121.228 29.4784 121.888 28.7899 122.251 27.9081C118.554 27.2291 115.532 31.1429 113.127 33.3214C111.16 35.1085 109.51 37.7869 109.354 40.4511C109.015 46.152 121.53 40.4416 123.736 39.0176C125.085 38.15 127.245 36.8721 127.669 35.2453C127.754 34.9294 124.156 34.9341 123.817 34.868C123.34 34.7832 124.609 33.7316 125.453 33.0809Z" fill="#8FAF05"/>
<path opacity="0.71" d="M127.669 35.2422C127.721 35.0441 126.339 34.9734 125.208 34.931C124.854 35.3742 125.594 36.3692 121.497 39.0758C120.087 40.0094 116.918 41.0893 115.282 40.4291C115.145 39.3823 121.638 35.8976 122.161 35.1715C122.741 34.3557 114.593 37.7932 115.409 37.1849C116.96 36.0344 120.638 33.5305 122.308 32.5638C123.713 31.7528 125.061 31.0974 126.632 30.5551C127.122 30.3853 127.707 30.2297 128.296 30.0553C128.339 29.8666 128.367 29.6733 128.348 29.4706C127.032 29.3621 125.835 29.7299 124.632 30.0694C124.184 30.2816 123.736 30.5032 123.279 30.739C121.803 31.5029 120.36 32.2385 118.842 32.9694C117.569 33.5824 115.668 34.5302 114.244 34.5349C114.881 32.8232 119.073 29.2631 121.761 28.8528C121.935 28.5416 122.114 28.2351 122.251 27.9003C118.554 27.2213 115.532 31.1351 113.127 33.3136C111.16 35.1007 109.51 37.7791 109.354 40.4433C109.015 46.1442 121.53 40.4338 123.736 39.0098C125.09 38.1469 127.245 36.8737 127.669 35.2422Z" fill="#637F1D"/>
<path d="M99.4393 71.8352C98.1614 72.5802 96.8741 73.33 95.568 74.042C94.7239 74.4994 93.8704 74.9709 93.2009 75.6594C92.5266 76.3525 91.8947 77.4606 92.4039 78.3188C93.3187 78.0784 93.9647 77.371 94.6956 76.7863C97.4636 74.5654 100.467 73.047 103.589 71.3401C104.145 71.0336 104.758 70.7695 105.357 70.4913C106.361 70.0292 107.206 69.6142 108.243 69.2229C108.743 69.039 111.577 68.4967 111.096 67.4687C110.832 66.9076 109.412 67.1481 108.988 67.2235C107.257 67.5442 105.64 68.4213 104.079 69.204C102.514 70.0433 100.981 70.9393 99.4393 71.8352Z" fill="#8FAF05"/>
<path d="M128.373 54.7238C129.199 58.2179 125.865 61.712 123.46 63.8104C121.682 65.3664 119.353 66.6113 116.934 66.0407C113.364 65.1967 110.785 61.8912 113.935 58.9912C115.618 57.4399 119.334 55.0209 121.63 54.6248C122.805 54.4267 127.926 52.8282 128.373 54.7238Z" fill="#F9F200"/>
<path d="M123.453 63.8086C124.858 62.5826 126.57 60.8851 127.593 58.9895C126.895 59.3667 126.013 59.4752 125.217 59.1687C124.439 58.8716 123.585 58.0888 123.552 57.2023C123.514 56.2545 124.137 55.618 124.92 55.1842C125.858 54.6655 127.041 54.359 128.178 54.3495C127.15 53.0669 122.708 54.4344 121.619 54.623C119.322 55.0191 115.607 57.4381 113.923 58.9895C110.773 61.8894 113.353 65.1902 116.922 66.039C119.346 66.6095 121.675 65.3647 123.453 63.8086Z" fill="#E8D80A"/>
<path d="M123.453 63.8088C124.665 62.7526 126.113 61.3379 127.14 59.7536C124.787 60.0695 122.359 59.7913 120.143 58.8246C119.865 58.702 119.766 58.4097 119.855 58.1315C120.383 56.5613 121.543 55.3258 122.939 54.3262C122.364 54.4582 121.883 54.5808 121.619 54.628C119.322 55.024 115.607 57.443 113.923 58.9944C110.773 61.8944 113.353 65.1951 116.922 66.0439C119.346 66.6097 121.675 65.3649 123.453 63.8088Z" fill="#CCBA1B"/>
<path opacity="0.48" d="M123.453 63.8102C123.991 63.3386 124.575 62.7917 125.151 62.1975C122.812 62.985 120.209 63.2632 118.988 61.311C117.771 59.3636 118.973 56.7041 120.633 54.8887C118.365 55.6526 115.385 57.6472 113.923 58.9911C110.773 61.891 113.353 65.1918 116.922 66.0406C119.346 66.6111 121.675 65.3663 123.453 63.8102Z" fill="#979E02"/>
<path d="M120.559 62.4392C120.941 62.194 121.238 62.0195 121.271 61.996C122.304 61.3877 123.756 60.454 123.766 59.1007C121.257 58.6669 119.036 60.0485 116.542 59.5157C116.674 58.4736 117.39 57.8464 117.829 57.0024C114.208 55.998 110.85 59.6288 108.261 61.5904C106.149 63.1937 104.268 65.7211 103.871 68.357C103.027 74.0013 116.004 69.4227 118.324 68.2014C119.748 67.4564 122.007 66.3718 122.573 64.7922C122.686 64.481 119.102 64.1697 118.767 64.0754C118.305 63.9528 119.663 63.0145 120.559 62.4392Z" fill="#8FAF05"/>
<path opacity="0.71" d="M122.577 64.7977C122.647 64.6044 121.275 64.411 120.153 64.2696C119.757 64.6798 120.412 65.7361 116.093 68.0702C114.603 68.8765 111.349 69.6734 109.784 68.8671C109.741 67.8155 116.517 64.9156 117.102 64.2366C117.753 63.4774 109.326 66.1793 110.194 65.6465C111.84 64.6374 115.725 62.4683 117.47 61.6525C118.941 60.9688 120.341 60.436 121.954 60.0352C122.459 59.9078 123.058 59.8041 123.661 59.6815C123.722 59.4976 123.76 59.3043 123.765 59.1015C122.463 58.8799 121.237 59.144 120.011 59.3703C119.545 59.54 119.082 59.7239 118.606 59.9173C117.064 60.5491 115.565 61.1527 113.99 61.7468C112.67 62.2467 110.694 63.02 109.274 62.9021C110.057 61.2564 114.551 58.0783 117.262 57.9038C117.46 57.6115 117.668 57.3191 117.833 56.9985C114.211 55.9941 110.854 59.6249 108.265 61.5865C106.153 63.1898 104.271 65.7172 103.875 68.3531C103.031 73.9974 116.008 69.4188 118.328 68.1975C119.747 67.4619 122.011 66.3774 122.577 64.7977Z" fill="#637F1D"/>
<path d="M88.9244 88.2451C88.302 88.7685 87.3259 89.5229 86.1329 90.433C84.855 92.0079 83.629 93.6112 82.4219 95.2286C82.6199 95.0541 82.8132 94.8843 83.0019 94.7146C87.8257 90.532 92.791 86.4014 98.3787 83.3646C102.033 81.3795 105.735 79.9507 109.795 79.2293C112.954 78.6681 119.739 78.7106 120.069 77.6213C111.115 75.1976 98.2278 80.4505 88.9244 88.2451Z" fill="#8FAF05"/>
<path d="M140.396 68.277C140.076 69.7435 144.428 70.7385 145.357 72.0258C146.672 73.8412 147.672 77.1419 146.828 79.3205C145.442 82.8853 141.537 84.8846 138.251 82.5128C135.525 80.5465 130.72 78.8961 127.391 78.764C124.958 78.665 121.587 80.4286 119.79 77.9624C119.012 76.892 118.031 74.5108 118.583 73.1527C119.144 71.7711 121.04 71.5165 122.275 71.0497C125.533 69.8095 128.782 68.3949 131.522 66.1975C133.054 64.9668 134.144 62.3215 136.124 61.9018C137.27 61.6566 137.789 62.0103 138.722 62.5243C139.302 62.8402 139.354 63.2221 140.01 63.4768C140.415 63.6324 140.986 63.307 141.391 63.5098C142.438 64.0285 142.631 65.0281 142.254 66.1504C141.91 67.1736 140.67 67.4471 140.429 68.2157C140.41 68.2299 140.401 68.2535 140.396 68.277Z" fill="#F9F200"/>
<path d="M140.415 68.2055C140.66 67.4369 141.896 67.1634 142.24 66.1401C142.612 65.0179 142.424 64.0182 141.377 63.4995C140.976 63.2968 140.401 63.6221 139.995 63.4665C139.345 63.2119 139.288 62.8299 138.708 62.514C137.774 62.0047 137.256 61.6511 136.11 61.8916C134.69 62.1934 133.733 63.6268 132.738 64.8717C133.846 64.0607 134.601 63.0846 136.171 63.0893C137.274 63.094 139.01 64.0654 140.104 64.4709C140.721 64.6972 140.863 65.3621 140.453 65.8572C140.024 66.3759 138.585 67.2624 139.222 68.1253C139.505 68.512 139.236 69.0259 138.901 69.2476C138.18 69.7285 137.015 70.6056 136.171 70.7706C136.732 70.6575 137.284 70.5396 137.85 70.4736C139.062 70.3274 140.599 71.129 141.735 71.4638C142.952 71.8222 144.003 72.2937 144.654 73.4631C145.239 74.5147 144.48 76.2358 145.14 77.1175C145.357 77.4052 145.484 77.7824 145.258 78.1172C144.923 78.6218 144.583 78.6736 143.994 78.8717C143.305 79.1027 142.339 78.1644 143.263 79.0933C143.744 79.579 144.098 80.7107 143.494 81.2577C142.329 82.3092 140.189 82.2856 138.708 82.13C138.425 82.1017 138.095 82.13 137.741 82.1819C137.902 82.2903 138.086 82.3893 138.236 82.5025C141.528 84.8696 145.432 82.875 146.814 79.3102C147.658 77.1317 146.658 73.8309 145.343 72.0155C144.414 70.7282 140.066 69.738 140.382 68.2668C140.401 68.2526 140.41 68.2291 140.415 68.2055Z" fill="#F6FF48"/>
<path d="M140.458 78.504C138.27 77.8768 135.771 76.8065 134.658 74.7175C136.709 73.5576 139.51 74.4205 141.722 73.4868C138.166 71.6101 133.889 73.9536 130.424 72.1854C131.055 72.4919 133.984 70.6859 134.55 70.2898C136.464 68.9459 138.03 66.0177 137.855 63.627C137.36 65.1453 132.423 71.4403 130.546 68.8233C129.801 67.7812 132.423 66.0412 133.168 64.3484C132.635 65.0321 132.112 65.7159 131.518 66.1874C128.778 68.3895 125.529 69.7994 122.271 71.0395C121.743 71.2376 121.097 71.4026 120.484 71.6337C119.069 72.8314 118.833 74.6562 119.932 76.4151C120.87 77.9193 122.492 78.5606 124.133 79.1406C125.26 78.9708 126.401 78.7162 127.387 78.7539C129.74 78.8482 132.814 79.7111 135.389 80.89C134.469 79.664 133.757 78.4191 133.573 77.2591C133.46 76.5801 139.331 79.0604 139.619 79.1641C141.311 79.7583 143.452 80.2204 145.022 79.1453C143.547 78.7256 141.986 78.9425 140.458 78.504Z" fill="#E8D80A"/>
<path d="M130.227 75.6281C130.534 75.2226 132.627 75.4018 133.127 75.3829C134.683 75.3311 136.239 75.6564 137.8 75.6234C139.342 75.5904 141.186 75.9724 142.671 75.614C140.653 75.5527 138.413 75.2981 136.47 74.7511C135.174 74.3833 133.985 73.7939 132.679 73.4496C131.783 73.2139 130.534 72.7989 131.642 71.8323C133.028 70.6251 134.594 70.1112 135.617 68.4985C134.325 69.9697 132.278 70.6016 130.538 71.2381C129.822 71.5022 128.539 71.6861 128.846 70.5214C129.095 69.5689 129.911 68.9512 130.175 68.0175C130.265 67.6922 130.345 67.3385 130.411 66.9707C127.917 68.7201 125.106 69.965 122.268 71.0448C121.735 71.2476 121.079 71.4126 120.457 71.6437C120.231 71.8134 120.009 71.9926 119.82 72.2331C118.033 74.5389 120.221 77.3964 122.268 78.5988C122.767 78.8912 123.319 79.0421 123.876 79.1788C125.083 79.0185 126.323 78.7167 127.384 78.7592C128.36 78.7969 129.473 78.9808 130.614 79.2496C130.529 79.16 130.425 79.0845 130.35 78.9902C130.208 78.8158 130.086 78.6319 129.987 78.4385C130.699 77.7925 132.703 77.9811 133.589 78.0896C135.376 78.3112 137.036 79.0751 138.922 79.0279C137.866 78.2593 136.117 78.3112 134.891 77.8727C133.684 77.4341 132.514 76.8589 131.307 76.4628C130.934 76.3449 129.859 76.1185 130.227 75.6281Z" fill="#CCBA1B"/>
<path opacity="0.48" d="M130.584 74.4148C132.003 74.2687 133.286 74.297 134.681 74.495C133.46 73.5095 131.711 72.9248 130.131 72.8588C129.443 72.8305 128.528 73.0804 128.41 72.2411C128.302 71.4583 129.16 70.7651 129.603 70.2182C129.014 70.5152 127.231 71.364 126.868 70.3408C126.708 69.8881 127.014 69.3458 127.396 68.7988C125.736 69.6523 124.006 70.3785 122.266 71.0434C121.742 71.2414 121.106 71.4064 120.498 71.6281C119.936 72.0902 119.446 72.5994 119.253 73.3869C118.725 75.5418 120.554 77.5883 122.266 78.5974C122.733 78.8709 123.251 79.0595 123.789 79.1868C125.024 79.0312 126.297 78.7153 127.382 78.7577C128.061 78.786 128.811 78.8897 129.584 79.0312C129.381 78.8945 129.169 78.7624 128.981 78.6115C128.589 78.3003 128.254 77.9702 128.061 77.6072C128.613 77.2205 129.41 77.5742 130.032 77.6213C130.711 77.6732 131.404 77.5412 132.064 77.428C131.499 76.8527 129.627 77.0555 128.806 76.8386C127.75 76.5556 126.472 76.1595 126.048 75.0467C127.132 74.0565 129.245 74.5563 130.584 74.4148Z" fill="#979E02"/>
<path d="M126.798 76.2215C127.236 76.0989 127.571 76.0188 127.609 76.0093C128.774 75.7311 130.433 75.2643 130.844 73.9723C128.575 72.8217 126.048 73.4866 123.822 72.2465C124.251 71.2892 125.124 70.9026 125.793 70.2236C122.625 68.2007 118.348 70.6857 115.302 71.7985C112.807 72.7086 110.266 74.5711 109.115 76.976C106.649 82.1252 120.394 81.5593 122.974 81.0784C124.553 80.7813 127.034 80.4135 128.038 79.0696C128.236 78.8056 124.902 77.457 124.61 77.2683C124.204 77.0043 125.779 76.5045 126.798 76.2215Z" fill="#8FAF05"/>
<path opacity="0.71" d="M128.039 79.0657C128.161 78.9054 126.907 78.3113 125.879 77.8444C125.384 78.1179 125.695 79.3203 120.881 80.287C119.221 80.6218 115.878 80.4237 114.614 79.193C114.883 78.1745 122.21 77.3965 122.97 76.9202C123.814 76.3874 114.968 76.4911 115.953 76.2365C117.825 75.7555 122.173 74.8266 124.083 74.5578C125.69 74.3362 127.185 74.2372 128.845 74.3315C129.368 74.3598 129.967 74.4352 130.576 74.4965C130.684 74.3362 130.783 74.1664 130.844 73.9684C129.666 73.3742 128.416 73.2658 127.176 73.1243C126.681 73.1526 126.181 73.1903 125.672 73.2375C124.012 73.3884 122.399 73.5251 120.72 73.6289C119.311 73.7185 117.198 73.8741 115.873 73.346C117.108 72.0021 122.333 70.2857 124.974 70.9175C125.252 70.6959 125.535 70.479 125.789 70.2197C122.621 68.1968 118.344 70.6818 115.298 71.7946C112.803 72.7047 110.262 74.5672 109.111 76.9721C106.645 82.1213 120.39 81.5554 122.97 81.0745C124.549 80.7821 127.034 80.4143 128.039 79.0657Z" fill="#637F1D"/>
<path d="M42.5139 147.214C43.1081 146.912 43.7258 146.653 44.3388 146.389C45.2017 144.79 45.9184 143.484 46.4041 142.687C52.6803 132.299 55.8915 118.757 52.1192 110.283C51.0959 110.774 52.1757 117.474 52.1097 120.685C52.0201 124.802 51.1761 128.683 49.7756 132.596C47.9225 137.783 45.1781 142.617 42.2734 147.337C42.3536 147.294 42.4338 147.252 42.5139 147.214Z" fill="#8FAF05"/>
<path d="M47.669 122.307C48.5272 117.214 49.5552 112.819 55.6003 113.003C56.9348 113.046 58.2975 113.046 59.6131 113.225C63.8852 113.8 66.6296 117.634 70.7839 118.539C71.8542 116.078 65.314 113.838 63.7579 113.182C61.1739 112.098 58.4814 111.824 55.7371 111.249C52.79 110.641 53.6104 108.128 54.4073 105.765C55.1806 103.478 56.3406 101.347 57.5619 99.272C58.5993 97.5038 59.4386 95.1178 60.7212 93.5712C61.2069 92.9817 62.862 92.1094 61.372 91.5907C60.0092 91.1192 59.3396 92.9346 58.8351 93.7315C57.2036 96.2919 55.9728 99.0033 54.4215 101.601C52.9031 104.143 52.2477 106.458 51.2952 109.127C50.0079 108.698 48.6216 107.01 47.7162 106.039C46.2073 104.426 45.118 102.917 44.4579 100.805C43.9628 99.2107 43.2649 97.7584 42.6424 96.2212C42.1568 95.0235 42.0059 93.392 41.374 92.2933C40.5913 90.9305 39.5963 91.6237 39.1201 92.9817C38.5353 94.6463 39.2757 96.9474 39.8368 98.4987C40.9826 101.672 42.7698 104.223 45.2595 106.454C46.5751 107.632 49.6778 108.939 50.0928 110.778C50.47 112.437 48.8007 114.951 48.1594 116.403C47.4427 118.035 46.6647 119.591 46.2214 121.302C45.6367 123.561 45.4245 126.928 47.1126 128.79C47.5417 128.069 47.2588 126.8 47.3012 125.895C47.3484 124.693 47.471 123.457 47.669 122.307Z" fill="#AEC803"/>
<path d="M49.424 107.838C49.6127 108.376 49.608 108.951 49.3203 109.489C49.6975 109.89 49.9805 110.314 50.0842 110.776C50.2681 111.587 49.9616 112.596 49.5325 113.591C50.1785 113.478 50.7962 113.615 51.2253 114.096C52.2863 113.355 53.6868 112.95 55.6012 113.006C55.9501 113.021 56.3038 113.035 56.6527 113.049C55.8653 112.705 55.2475 112.087 55.455 111.182C52.8521 110.474 53.6302 108.055 54.3988 105.768C54.4318 105.674 54.4742 105.58 54.5072 105.485C53.8141 104.736 53.6726 103.769 53.8094 102.736C52.7201 104.844 52.0977 106.862 51.2866 109.126C50.6642 108.913 50.0229 108.414 49.424 107.838Z" fill="#878E00"/>
<path d="M58.0922 103.287C56.7341 104.796 55.2205 106.168 54.0322 107.828C53.6597 108.347 53.4192 108.785 53.1599 109.361C53.0231 109.672 52.8675 109.978 52.7402 110.294C52.5516 110.752 51.717 112.228 52.3819 112.605C52.8958 112.888 53.3957 111.954 53.6078 111.605C53.9096 111.11 54.1218 110.539 54.4236 110.025C55.0083 109.035 55.4516 107.965 56.14 107.045C56.8473 106.107 57.5876 105.192 58.3515 104.301C59.8604 102.542 61.2421 100.232 63.3451 99.0528C65.6604 97.7513 69.112 98.2889 71.7008 98.1757C74.7422 98.0437 78.0665 96.1623 80.2403 93.9413C81.4899 92.6587 80.9429 92.0929 80.9759 90.5981C81.0089 89.1599 82.4707 88.4196 82.9564 87.0097C84.3097 83.0959 80.8298 79.135 77.0999 78.3145C73.5068 77.5223 69.0696 79.649 66.5987 82.2189C63.9628 84.9585 63.3121 88.4573 62.3596 91.8807C61.2703 95.7992 60.912 100.151 58.0922 103.287Z" fill="#F9F200"/>
<path d="M70.2579 83.5879C66.8864 85.0214 64.4297 88.2184 62.4303 91.6229C62.4068 91.7078 62.3832 91.7974 62.3596 91.8822C61.2703 95.8007 60.912 100.158 58.0922 103.289C56.7341 104.798 55.2205 106.17 54.0322 107.83C53.6597 108.348 53.4192 108.787 53.1599 109.362C53.0231 109.673 52.8675 109.98 52.7402 110.296C52.5516 110.753 51.717 112.229 52.3819 112.606C52.8958 112.889 53.3957 111.956 53.6078 111.607C53.9096 111.112 54.1218 110.541 54.4236 110.027C55.0083 109.037 55.4516 107.966 56.14 107.047C56.8473 106.109 57.5876 105.194 58.3515 104.303C59.8604 102.544 61.2421 100.233 63.3451 99.0544C63.8355 98.7761 64.3919 98.597 64.9672 98.4602C66.7261 97.3945 68.6971 96.6495 70.8992 95.8149C72.5731 95.183 74.1858 93.8957 75.5344 92.6933C73.7755 93.4572 71.7809 94.023 70.041 95.0887C68.3811 96.1119 66.5987 97.2436 64.5711 97.3144C64.7597 97.3049 65.9056 95.8667 66.1508 95.6593C66.8628 95.0651 67.655 94.5842 68.4283 94.0749C69.6967 93.245 71.0642 92.4858 72.2195 91.4862C74.7045 89.3265 76.336 86.3983 78.4391 83.8991C77.0763 84.3942 75.5627 86.1106 74.5394 87.1857C73.2144 88.5862 72.1157 90.1989 70.6021 91.3494C68.6216 92.8536 66.7449 94.4616 64.6513 95.8149C65.4435 95.3056 66.1319 93.5562 66.7308 92.8017C67.6786 91.6135 68.7867 90.5478 69.8948 89.5151C68.169 90.1234 66.8345 92.1746 65.5425 93.377C66.561 90.4441 69.4845 88.4164 71.3047 86.0163C70.1353 87.5582 68.0322 88.5438 66.6647 89.9348C65.2124 91.4107 64.0901 93.2026 62.916 94.8954C62.8783 90.1989 66.9712 86.3417 70.2579 83.5879Z" fill="#E2D207"/>
<path d="M50.7846 101.181C49.601 96.9697 49.568 92.5891 50.148 88.2793C50.6101 84.8371 51.2184 81.1072 49.2332 78.0186C47.4744 75.2743 42.4902 73.2655 39.3073 74.5056C38.2087 74.9347 37.3882 75.6703 36.5677 76.4814C34.7853 78.2402 34.9126 79.6596 34.7947 81.989C34.7004 83.9081 34.1911 85.7566 34.4929 87.7323C35.3653 93.4379 41.7499 91.7168 45.5929 94.3338C47.8139 95.8428 48.9786 99.5726 49.4737 102.091C49.6812 103.152 50.0348 104.255 50.1857 105.316C50.3602 106.533 50.0584 107.754 50.247 108.975C50.3696 109.781 51.2656 112.106 52.3171 110.861C53.0055 110.045 52.3642 107.527 52.2275 106.547C51.9823 104.703 51.2844 102.954 50.7846 101.181Z" fill="#F9F200"/>
<path d="M43.7052 82.5848C42.4603 80.6374 40.6591 78.9115 38.6975 77.6855C39.1501 78.8078 40.1922 79.8358 40.9373 80.8071C41.786 81.9105 42.3424 83.1271 42.9885 84.3342C44.172 86.5458 46.2468 89.6532 46.5769 92.1948C45.6904 89.7286 43.0545 88.0641 41.2579 86.3383C39.8056 84.9425 38.7305 83.2686 36.75 82.5377C39.1124 85.4565 42.88 88.3329 44.3984 91.8741C42.0312 91.992 39.1831 91.6997 37.0376 90.8462C37.2121 90.9169 37.7497 91.6808 38.009 91.8553C38.0562 91.8883 38.1127 91.9119 38.1599 91.9402C40.494 92.7512 43.4506 92.8549 45.6008 94.3261C47.8217 95.8351 48.9864 99.5649 49.4815 102.083C49.689 103.144 50.0427 104.247 50.1936 105.308C50.368 106.525 50.0662 107.746 50.2549 108.967C50.3775 109.774 51.2734 112.098 52.3249 110.854C53.0134 110.038 52.3721 107.52 52.2353 106.539C51.9807 104.7 51.2875 102.955 50.7877 101.178C50.0615 98.5983 49.7739 95.9529 49.788 93.3029C49.1279 91.3272 48.7271 89.4174 48.6705 87.2814C48.6139 85.0651 49.1326 81.4673 47.7604 79.5764C47.4539 81.5286 48.0575 83.1978 48.0811 85.0793C48.0999 86.7721 47.0625 89.9408 47.7133 91.4828C47.2182 90.3086 46.6712 89.0213 46.1572 87.8378C45.398 86.0884 44.719 84.1786 43.7052 82.5848Z" fill="#E2D207"/>
<path d="M44.7648 107.908C46.566 108.78 48.4286 109.431 50.0507 110.605C50.5081 110.94 52.8752 113.529 50.9136 112.807C50.2959 112.581 47.0612 110.86 43.9914 110.218C42.9493 110.001 41.8648 110.133 40.8038 110.185C37.3805 110.346 34.0278 114.019 31.3448 110.511C30.2508 109.082 29.9019 107.564 28.8409 106.22C27.813 104.923 26.4125 103.989 27.5866 102.297C29.8311 99.0665 34.1127 102.858 36.2252 103.985C38.9365 105.432 41.978 106.55 44.7648 107.908Z" fill="#F9F200"/>
<path d="M36.2237 103.985C34.1112 102.858 29.8297 99.0665 27.5852 102.297C27.5239 102.381 27.4956 102.462 27.4531 102.546C28.2359 102.301 29.0469 102.141 29.3298 102.127C30.4474 102.089 32.027 102.886 33.1116 103.155C35.7003 103.796 37.4026 105.324 39.8593 106.257C38.7936 106.866 36.6953 105.909 35.5494 105.692C33.536 105.305 31.7017 105.013 29.6646 105.168C31.5649 105.31 33.1399 105.772 34.9459 106.314C35.9267 106.606 38.9162 106.743 39.4396 107.474C38.7795 108.068 37.1998 108.139 36.3322 108.342C35.2807 108.587 33.5784 109.2 32.5174 109.11C35.1581 109.332 37.7798 108.719 40.3308 109.087C39.0954 109.492 37.5723 109.704 36.4831 110.558C37.4073 110.431 38.3315 110.431 39.2463 110.482C39.765 110.332 40.2837 110.223 40.8024 110.195C41.8633 110.148 42.9479 110.011 43.99 110.228C47.0597 110.869 50.2944 112.59 50.9122 112.817C52.8738 113.533 50.5114 110.945 50.0492 110.614C48.4272 109.44 46.5646 108.79 44.7633 107.917C41.9765 106.55 38.9351 105.432 36.2237 103.985Z" fill="#E2D207"/>
<path d="M61.5715 125.803C63.2785 127.302 64.5752 125.793 66.8386 125.869C68.6351 125.93 69.8234 126.689 70.9881 124.775C71.9312 123.223 71.5445 121.04 70.361 119.79C68.9699 118.319 66.6971 118.06 64.8298 117.838C61.8544 117.485 59.9965 116.216 57.5634 114.622C56.5637 113.967 55.5594 113.462 54.4701 112.972C54.2061 112.849 51.0656 112.133 51.3061 112.383C53.3007 114.457 56.7241 115.198 58.2047 117.702C59.6005 120.069 59.2327 123.209 61.1471 125.373C61.2886 125.539 61.4347 125.68 61.5715 125.803Z" fill="#F9F200"/>
<path d="M54.4701 112.972C54.2061 112.849 51.0656 112.133 51.3061 112.383C53.3007 114.457 56.7241 115.198 58.2047 117.702C59.6005 120.069 59.2327 123.209 61.1471 125.373C61.2933 125.539 61.4347 125.68 61.5762 125.803C62.1562 126.312 62.6843 126.463 63.2219 126.458C62.3354 125.864 61.166 125.331 60.6991 124.251C60.1899 123.077 59.5769 122.087 59.9305 120.672C60.3172 121.229 60.8689 121.573 61.3451 122.026C61.845 122.502 62.359 123.006 62.8918 123.421C62.0525 122.323 61.3027 121.064 60.52 119.951C60.7086 120.215 61.6328 120.729 61.944 120.908C62.3731 121.153 62.7503 121.351 63.1559 121.667C64.1272 122.431 65.1222 123.186 66.2491 123.7C64.811 121.846 62.1703 120.54 60.3785 119.027C63.1276 120.295 66.2303 120.677 68.8662 121.912C67.8241 120.309 65.009 119.922 63.3775 119.291C61.911 118.72 59.7844 117.838 58.8979 116.49C60.7982 117.353 62.2694 118.201 64.4667 118.183C65.2023 118.178 66.0134 118.159 66.8339 118.126C66.1501 117.989 65.4664 117.909 64.8251 117.834C61.8497 117.48 59.9918 116.211 57.5587 114.618C56.5637 113.967 55.5594 113.458 54.4701 112.972Z" fill="#E2D207"/>
<path d="M45.0352 97.7589C48.0153 99.1593 48.6896 103.054 49.5431 105.931C50.0287 107.562 50.2126 110.198 50.7879 111.811C50.8775 112.41 51.2972 113.037 51.6084 113.183C52.0139 113.376 52.6977 113.188 52.9098 112.867C53.4757 111.646 53.7822 109.335 53.9897 108.637C54.9092 105.525 56.5926 101.39 59.9971 100.315C55.3005 99.3338 52.7825 107.515 52.0564 111.292C51.929 106.657 52.5751 99.8714 53.5747 96.1934C51.9149 97.5938 51.4669 100.748 51.3962 102.861C51.2878 106.001 51.0143 107.194 51.0708 109.288C49.6279 103.545 49.7553 98.2587 45.0352 97.7589Z" fill="#979E02"/>
<path d="M46.4293 97.2699C46.0096 96.605 44.7129 96.3976 44.0244 96.8927C43.7274 97.1096 43.6095 97.468 43.8405 98.0055C44.1942 98.8166 45.8776 99.1985 46.3869 98.312C46.6226 97.9018 46.599 97.5481 46.4293 97.2699Z" fill="#C9C90D"/>
<path d="M46.4283 97.2699C46.0086 96.605 44.7119 96.3976 44.0234 96.8927C44.0234 96.8927 45.0703 96.6239 45.6927 97.5198C46.2915 98.3875 45.4286 98.8166 45.4286 98.8166C45.8247 98.8024 46.1925 98.6515 46.3858 98.312C46.6216 97.9018 46.598 97.5481 46.4283 97.2699Z" fill="#979E02"/>
<path d="M53.61 97.7934C54.2607 97.3548 54.4305 96.0487 53.9118 95.3838C53.6855 95.0914 53.3177 94.9877 52.7942 95.2329C51.9926 95.6148 51.6626 97.3077 52.5632 97.7839C52.9876 98.0103 53.3365 97.9773 53.61 97.7934Z" fill="#C9C90D"/>
<path d="M53.6101 97.7943C54.2608 97.3558 54.4306 96.0496 53.9119 95.3848C53.9119 95.3848 54.2137 96.4221 53.3366 97.0729C52.4878 97.6953 52.0352 96.8513 52.0352 96.8513C52.0587 97.2473 52.2238 97.6104 52.568 97.7896C52.9877 98.0112 53.3366 97.9782 53.6101 97.7943Z" fill="#979E02"/>
<path d="M58.402 99.8824C58.7886 99.1987 60.0807 98.9394 60.788 99.4062C61.0945 99.6137 61.2265 99.9673 61.0143 100.514C60.6937 101.339 59.0244 101.787 58.4821 100.925C58.2322 100.514 58.2369 100.161 58.402 99.8824Z" fill="#C9C90D"/>
<path d="M58.4015 99.8824C58.7882 99.1987 60.0802 98.9394 60.7875 99.4062C60.7875 99.4062 59.7313 99.1751 59.1466 100.099C58.5854 100.991 59.4625 101.387 59.4625 101.387C59.0664 101.391 58.6939 101.25 58.4864 100.92C58.2318 100.514 58.2365 100.161 58.4015 99.8824Z" fill="#979E02"/>
<path d="M68.3945 120.131C71.5397 117.221 74.8216 114.463 78.4289 112.19C81.9465 109.974 85.5538 108.309 89.5525 107.328C92.6693 106.564 99.4453 106.168 99.7047 105.065C90.7266 103.24 78.3959 109.148 69.6347 117.367C69.2433 118.292 68.8236 119.211 68.3945 120.131Z" fill="#8FAF05"/>
<path d="M101.765 107.291C100.374 107.13 98.9547 108.04 98.0541 108.993C97.3185 109.771 96.333 110.935 95.5408 109.238C95.1777 108.46 95.4889 107.654 95.4701 106.866C95.4418 105.763 94.5647 104.857 94.5459 103.787C94.527 102.311 95.8379 102.207 96.6631 101.297C97.3185 100.566 97.5448 100.062 97.4411 99.1235C97.2148 97.1194 95.9463 95.4266 94.8193 93.8281C93.1218 91.4138 92.2872 88.7119 92.5937 85.7318C92.8625 83.1477 94.56 78.7671 97.5448 78.3145C99.4499 78.0268 100.926 79.8045 102.685 80.3515C105.49 81.2191 107.461 78.6163 110.135 78.6304C111.781 78.6351 113.747 80.6061 114.879 81.653C116.274 82.9497 117.387 84.6755 117.359 86.6607C117.312 90.1076 113.987 93.3094 111.644 95.4879C109.795 97.209 107.711 98.6283 106.014 100.444C104.934 101.599 104.797 102.118 106.702 101.934C108.367 101.774 109.989 101.74 111.644 101.929C116.147 102.443 124.672 105.475 122.579 111.676C121.711 114.232 119.82 115.047 117.769 116.415C116.897 116.995 116.053 117.245 115.548 118.23C114.996 119.296 115.449 120.729 114.049 120.975C111.729 121.38 108.569 118.235 106.91 116.966C104.962 115.481 103.816 113.392 103.576 110.954C103.415 109.365 103.826 107.531 101.765 107.291Z" fill="#F9F200"/>
<path d="M111.32 85.5772C110.98 86.294 110.245 88.2791 109.679 89.4816C108.25 92.4994 107.411 95.4135 104.6 97.4176C105.256 94.9891 106.057 92.7776 106.02 90.2077C106.062 92.9521 103.827 96.399 102.21 98.554C103.53 96.6348 104.133 93.1218 103.638 90.8443C103.157 88.6422 100.965 85.0444 98.6825 84.3418C99.6114 86.0441 100.833 87.685 101.436 89.557C101.889 90.9669 102.874 94.1922 101.771 95.5173C101.573 93.4331 100.625 90.6038 98.7673 89.3354C99.4982 91.5563 100.441 93.0747 100.286 95.4937C100.158 97.4883 99.5973 100.219 97.5225 101.086C97.2443 101.199 97.0038 101.204 96.7727 101.162C96.735 101.209 96.7067 101.246 96.6643 101.298C95.8391 102.208 94.5282 102.312 94.5471 103.788C94.5612 104.778 95.2921 105.641 95.4241 106.636C95.4241 106.636 95.4241 106.641 95.4289 106.646C95.4289 106.65 95.4289 106.655 95.4289 106.66C95.4383 106.73 95.4666 106.796 95.4666 106.867C95.4666 106.928 95.4619 106.99 95.4571 107.051C95.4571 107.518 95.3581 108.004 95.5326 108.437C95.7306 108.928 96.3484 109.569 96.9991 109.942C97.3716 109.72 97.7347 109.329 98.0506 108.994C98.9512 108.041 100.371 107.131 101.762 107.292C103.818 107.532 103.412 109.366 103.563 110.946C103.803 113.384 104.949 115.473 106.897 116.958C107.128 117.137 107.401 117.354 107.684 117.595C108.005 117.859 108.354 118.146 108.722 118.448C108.736 118.462 108.75 118.472 108.764 118.481C109.094 118.75 109.443 119.019 109.801 119.283C109.83 119.306 109.858 119.325 109.891 119.349C110.263 119.622 110.65 119.882 111.037 120.113C110.042 119.401 109.132 118.571 108.335 117.623C107.33 116.425 106.336 115.246 106.015 113.667C105.836 112.766 105.892 111.861 105.751 110.988C105.694 110.635 104.911 108.084 104.643 108.022C106.114 108.362 107.255 110.267 108.241 111.252C109.551 112.573 111.64 114.417 113.371 115.034C112.385 113.841 111.089 112.912 110.103 111.672C109.221 110.555 108.613 108.65 107.505 107.81C109.537 108.409 111.112 110.041 112.923 111.196C112.145 109.937 111.023 109.093 109.834 108.187C109.004 107.551 107.486 107.098 106.967 106.141C106.034 104.41 109.108 106 109.782 106.334C111.975 107.428 114.201 108.612 116.167 110.168C115.45 109.602 114.969 108.433 114.253 107.773C113.465 107.046 112.645 106.542 111.687 106.103C109.584 105.137 107.562 103.901 105.392 103.1C105.657 102.557 106.307 102.223 106.939 101.935C106.854 101.94 106.774 101.94 106.689 101.949C104.779 102.133 104.921 101.614 106.001 100.459C106.288 100.148 106.604 99.8601 106.916 99.5678C106.397 98.2192 108.599 95.3051 109.136 94.0508C109.712 92.7069 110.047 91.2781 110.353 89.8494C110.603 88.6988 110.82 86.6288 111.32 85.5772Z" fill="#E8D80A"/>
<path opacity="0.48" d="M104.568 99.2195C103.705 100.021 102.394 101.525 101.272 101.841C101.913 100.846 102.611 99.9598 103.168 98.9177C103.686 97.9511 103.993 96.9326 104.431 95.9282C103.059 97.9039 101.899 101.738 99.2916 102.417C100.386 100.068 102.206 97.8096 101.503 95.0276C101.149 97.3758 99.9234 99.9316 98.2212 101.601C98.4145 101.007 98.8247 100.474 98.9898 99.7524C99.2114 98.7951 99.4377 97.654 99.3717 96.6591C99.2727 95.1313 98.4994 93.5375 97.6789 92.2832C98.5607 93.8016 99.0322 96.7675 98.2353 98.4368C98.0561 98.8187 97.7591 99.3799 97.4384 99.8137C97.3771 100.361 97.1366 100.776 96.6604 101.304C95.8352 102.214 94.5243 102.318 94.5432 103.793C94.5573 104.864 95.4391 105.769 95.4674 106.873C95.4815 107.321 95.3967 107.773 95.3778 108.221C95.9484 108.801 96.9622 108.862 97.5469 109.523C97.7261 109.348 97.8958 109.164 98.0561 108.999C98.6691 108.349 99.532 107.745 100.452 107.462C101.187 107.009 101.979 106.792 102.927 107.283C104.445 108.07 105.233 110.734 105.44 112.3C105.025 109.933 104.988 107.632 103.13 105.878C104.073 105.845 105.224 107.057 105.964 107.622C106.794 108.259 108.034 108.929 108.548 109.82C107.553 108.273 106.633 106.825 105.096 105.75C104.007 104.991 102.729 104.472 101.715 103.704C102.404 103.449 103.163 103.591 103.903 103.308C104.507 103.077 105.139 102.728 105.596 102.327C104.309 102.454 102.97 102.85 101.659 102.813C104.497 102.058 106.728 98.6301 107.039 95.8386C106.218 96.9703 105.676 98.1916 104.568 99.2195Z" fill="#979E02"/>
<path opacity="0.63" d="M104.279 104.688C103.374 103.457 101.36 103.476 99.9268 103.457C100.771 102.787 101.506 102.438 102.2 101.467C102.897 100.491 103.105 99.4157 103.459 98.2793C102.072 99.5572 101.176 101.307 99.1393 101.434C99.3656 100.906 99.6061 100.236 99.5495 99.6939C99.6061 100.241 97.9416 101.146 97.4795 101.16C97.239 101.17 97.041 101.123 96.8665 101.043C96.7958 101.127 96.7439 101.208 96.6637 101.297C96.1545 101.863 95.4566 102.113 95.0039 102.58C95.1124 102.952 95.202 103.287 95.2302 103.49C95.3481 104.475 95.2963 105.404 95.3528 106.253C95.4094 106.451 95.466 106.649 95.4707 106.861C95.4707 106.923 95.4613 106.979 95.4613 107.04C95.6452 107.927 96.079 108.71 97.206 109.342C97.3097 109.398 97.4182 109.464 97.5314 109.53C97.7153 109.356 97.8944 109.162 98.0595 108.993C98.4933 108.535 99.045 108.097 99.6533 107.776C99.3326 107.606 99.0686 107.46 99.0167 107.338C98.5593 106.253 101.007 105.8 101.643 105.98C102.681 106.272 103.666 107.427 104.562 108.026C104.029 106.446 102.817 104.985 101.167 104.504C101.803 104.06 103.676 104.221 104.279 104.688Z" fill="#ADA405"/>
<path d="M109.699 101.826C117.107 104.561 119.965 106.532 120.573 110.135C121.37 114.859 114.929 113.973 114.325 118.085C114.056 119.929 113.028 120.523 111.798 120.504C112.58 120.872 113.349 121.089 114.042 120.971C115.438 120.725 114.99 119.292 115.542 118.226C116.051 117.241 116.89 116.991 117.763 116.411C119.814 115.048 121.705 114.232 122.572 111.672C124.671 105.471 116.14 102.439 111.637 101.925C110.991 101.854 110.345 101.84 109.699 101.826Z" fill="#FCFF7D"/>
<path d="M110.131 78.6303C107.457 78.6162 105.486 81.2191 102.68 80.3514C100.922 79.8092 99.4457 78.0268 97.5407 78.3144C94.5606 78.7671 92.8583 83.1477 92.5896 85.7317C92.2831 88.7118 93.1224 91.4137 94.8152 93.828C95.9375 95.4218 97.2012 97.1099 97.4323 99.0998C99.3043 96.662 95.6451 92.1823 94.6973 90.0557C93.8156 88.0847 93.7778 86.5239 94.1739 84.3831C95.1877 78.8661 99.4457 80.4976 103.199 82.2329C104.802 82.9732 105.835 84.0483 107.905 82.6195C108.617 82.1291 109.372 81.5727 110.253 81.4548C111.748 81.2521 113.686 82.1857 114.408 83.5107C115.473 85.4865 116.289 86.6276 115.634 88.6835C115.134 90.2537 113.634 92.6256 113.111 94.0732C115.172 92.022 117.326 89.4238 117.364 86.6512C117.388 84.666 116.28 82.9402 114.884 81.6435C113.743 80.6014 111.776 78.635 110.131 78.6303Z" fill="#FCFF7D"/>
<path d="M103.817 92.0996C104.26 95.3627 101.365 98.0504 99.4173 100.333C98.3139 101.625 96.2062 103.218 95.1641 104.581C95.2537 105.383 95.3951 106.161 95.4376 106.939C96.7673 106.75 98.8704 105.751 99.5729 105.543C102.68 104.619 107.07 103.78 109.829 106.048C108.094 101.573 99.8606 103.921 96.2958 105.364C100.11 102.733 106.156 99.5782 109.786 98.4135C107.707 97.7816 104.821 99.1255 103.006 100.22C100.313 101.842 99.1674 102.257 97.4416 103.45C101.464 99.1067 105.967 96.3293 103.817 92.0996Z" fill="#979E02"/>
<path d="M104.987 93.0068C105.317 92.2947 104.784 91.0876 103.992 90.7858C103.648 90.6538 103.28 90.7528 102.959 91.2385C102.469 91.9788 103.068 93.5962 104.086 93.5443C104.563 93.5113 104.845 93.3038 104.987 93.0068Z" fill="#C9C90D"/>
<path d="M104.988 93.0081C105.318 92.296 104.785 91.0889 103.993 90.7871C103.993 90.7871 104.79 91.518 104.375 92.5271C103.974 93.5032 103.145 93.0128 103.145 93.0128C103.371 93.3381 103.701 93.5598 104.092 93.5409C104.564 93.5126 104.847 93.3051 104.988 93.0081Z" fill="#979E02"/>
<path d="M108.455 99.3155C109.177 99.622 110.365 99.0562 110.643 98.2546C110.761 97.9056 110.657 97.5425 110.158 97.236C109.403 96.7739 107.805 97.4199 107.894 98.4338C107.937 98.91 108.154 99.1835 108.455 99.3155Z" fill="#C9C90D"/>
<path d="M108.456 99.3144C109.178 99.6209 110.366 99.0551 110.644 98.2535C110.644 98.2535 109.937 99.0739 108.913 98.6873C107.928 98.3148 108.39 97.4707 108.39 97.4707C108.069 97.7112 107.857 98.0413 107.895 98.4326C107.937 98.9089 108.154 99.1824 108.456 99.3144Z" fill="#979E02"/>
<path d="M109.318 104.465C110.1 104.417 111.025 105.361 111.015 106.209C111.011 106.577 110.784 106.884 110.209 107.001C109.341 107.181 108.059 106.021 108.488 105.101C108.695 104.667 108.992 104.483 109.318 104.465Z" fill="#C9C90D"/>
<path d="M109.318 104.465C110.101 104.417 111.025 105.361 111.016 106.209C111.016 106.209 110.629 105.195 109.54 105.21C108.489 105.224 108.635 106.172 108.635 106.172C108.418 105.841 108.333 105.45 108.493 105.101C108.696 104.667 108.993 104.483 109.318 104.465Z" fill="#979E02"/>
<path d="M95.3855 101.807C93.6502 94.9696 87.308 89.9241 80.4707 88.5142C77.5943 87.9201 76.2175 90.5418 73.9258 91.6688C75.9157 92.9514 75.0386 97.1104 75.9204 99.072C76.9813 101.434 79.721 102.896 81.9561 103.886C84.21 104.886 87.242 106.263 89.793 106.041C90.953 105.942 92.2026 104.726 93.3249 104.839C95.0554 105.013 94.4754 106.791 94.2868 107.993C96.1965 109.04 95.758 103.632 95.6071 102.802C95.5411 102.472 95.4704 102.137 95.3855 101.807Z" fill="#F9F200"/>
<path d="M85.7022 90.3691C85.622 90.9633 86.5792 91.7555 86.8716 92.2223C87.6025 93.387 88.5267 94.4951 89.234 95.6834C90.328 97.5129 88.9463 96.5416 88.0268 96.0889C88.4182 96.5652 89.4509 97.2725 89.201 97.8807C87.9137 96.8999 85.8672 95.2543 84.2215 95.1175C85.4287 96.2492 86.9423 97.065 88.1825 98.1684C87.5789 97.6308 86.7726 97.6308 86.1124 97.2347C87.1969 98.0646 88.1212 99.0219 89.1444 99.8376C88.1919 99.7009 86.9706 98.5315 86.0511 98.0741C84.7497 97.4186 83.269 96.3058 81.7695 96.6406C83.0946 97.2206 84.3488 97.711 85.5371 98.6211C86.1313 99.0737 89.8045 101.62 89.6442 102.327C89.4792 103.039 87.7864 102.521 87.3054 102.313C88.3569 102.766 90.6203 104.775 88.1683 104.765C88.6681 104.921 89.2198 104.977 89.5971 105.378C89.1255 105.694 88.5503 105.869 87.942 105.972C88.5738 106.067 89.1915 106.109 89.7857 106.057C90.9457 105.958 92.1952 104.742 93.3175 104.855C95.0481 105.029 94.4681 106.807 94.2794 108.009C96.1892 109.056 95.7506 103.648 95.5998 102.818C95.5385 102.478 95.463 102.148 95.3781 101.818C94.1097 96.7773 90.3327 92.7221 85.7022 90.3691Z" fill="#E8D80A"/>
<path d="M77.1283 95.2714C76.77 92.9655 76.5814 91.1643 78.7787 89.9477C80.3301 89.0895 82.6831 89.4243 84.7342 89.9052C83.3621 89.2922 81.9239 88.816 80.4668 88.5142C77.5904 87.9201 76.2136 90.5418 73.9219 91.6688C75.9118 92.9514 75.0347 97.1104 75.9165 99.072C76.9774 101.434 79.7171 102.896 81.9522 103.886C82.8953 104.301 83.9704 104.782 85.0879 105.188C80.9808 103.335 77.9347 100.482 77.1283 95.2714Z" fill="#FCFF7D"/>
<path d="M85.5371 90.2793C87.2818 91.5194 89.2764 92.9576 90.5166 94.2402C91.4455 95.2022 92.78 97.1826 93.0535 98.5076C91.9359 97.2628 87.0838 92.4295 83.6793 90.963C86.9753 93.4056 94.2795 99.4271 93.7938 101.455C89.3849 98.4841 85.9945 93.896 79.6005 92.2362C81.2791 92.7219 83.2266 94.2308 84.6931 95.2493C86.4331 96.4517 90.3751 99.3187 92.0161 101.346C90.3515 100.696 87.2771 98.1917 85.6692 97.3807C83.0003 96.0321 81.0057 95.6171 78.9922 95.7303C81.3357 96.4895 83.6746 96.9233 85.8436 98.1257C87.8854 99.2574 91.2286 101.992 93.1431 103.402C90.8042 103.893 87.395 105.1 80.1286 101.931C81.5951 102.572 83.6887 104.647 89.6914 104.595C90.7995 104.586 92.2094 103.794 93.0016 104.77C93.0205 104.793 93.0346 104.831 93.0535 104.859C93.1478 104.855 93.2421 104.84 93.3317 104.85C95.0622 105.024 94.4822 106.802 94.2936 108.004C96.2033 109.051 95.7648 103.643 95.6139 102.813C95.5526 102.473 95.4772 102.143 95.3923 101.813C94.0956 96.7158 90.2431 92.6181 85.5371 90.2793Z" fill="#CCBA1B"/>
<path opacity="0.68" d="M90.5156 95.9785C91.2842 96.6905 93.0148 97.9165 94.6039 101.415C94.6039 101.415 91.8265 99.2604 91.5813 99.831C91.5813 99.831 94.7265 101.618 94.8726 104.08C94.8962 104.457 92.4206 101.778 92.2745 102.099C92.1566 102.349 94.5237 104.301 93.7504 104.952C94.9339 105.372 94.4577 106.918 94.2879 108.003C96.1977 109.05 95.7591 103.641 95.6082 102.811C95.5469 102.472 95.4715 102.142 95.3866 101.811C94.9198 99.9772 94.1135 98.2749 93.0619 96.7377C93.3779 97.4969 93.6514 98.2749 93.873 99.0812C93.873 99.0812 93.5476 98.3692 92.4725 97.379C91.3974 96.3793 90.5156 95.9785 90.5156 95.9785Z" fill="#B2A906"/>
<path d="M99.7015 109.341C99.6261 109.213 99.5459 109.086 99.4658 108.968C98.6453 107.771 97.3863 107.884 96.1367 107.558C94.9531 107.247 93.8639 106.021 92.5624 106.403C90.7376 106.941 89.3748 108.445 88.4035 110.024C86.8851 112.491 86.7012 115.188 86.4513 118.041C86.2438 120.403 85.9515 122.864 87.4557 124.854C88.8656 126.717 90.8508 128.193 93.2179 128.49C94.972 128.712 97.8201 128.674 99.2347 127.5C100.546 126.406 101.724 125.019 102.196 123.402C102.837 121.195 102.135 118.432 101.767 116.188C101.418 114.047 100.857 111.265 99.7015 109.341Z" fill="#F9F200"/>
<path d="M92.5619 106.399C90.737 106.937 89.3743 108.441 88.4029 110.021C88.318 110.157 88.252 110.299 88.1719 110.44C88.5491 109.94 88.9782 109.544 89.511 109.417C89.3507 110.365 89.0065 111.294 88.9688 112.26C88.9546 112.68 89.3507 114.057 89.0961 114.406C89.8458 113.397 89.5629 111.713 90.4117 110.822C90.7465 112.086 90.3504 113.699 90.4305 115.033C91.1237 114.312 91.2463 112.822 91.567 111.897C91.831 115.344 91.1567 119.008 91.8027 122.436C92.3591 121.8 92.4346 120.442 92.6421 119.621C92.9297 118.504 93.156 117.348 93.2692 116.198C93.439 114.462 93.6794 112.454 93.5993 110.756C93.8869 112.807 94.2736 114.939 94.4669 117.013C94.6084 118.57 94.4009 120.357 94.8441 121.809C95.7919 120.833 95.5326 117.82 95.6882 116.509C95.8768 114.91 96.221 113.18 95.9334 111.596C96.4049 112.548 96.2399 113.826 96.7067 114.783C96.7822 114.217 96.7727 113.604 96.9283 113.029C97.8808 114.462 97.9563 116.495 98.6117 118.056C99.6255 116.396 98.4373 112.911 97.9044 111.19C99.6774 112.364 100.116 113.944 101.092 115.655C101.276 115.41 101.384 114.976 101.45 114.472C101.092 112.704 100.559 110.784 99.6963 109.346C99.6208 109.219 99.5407 109.092 99.4605 108.974C98.64 107.776 97.381 107.889 96.1314 107.564C94.9526 107.243 93.8633 106.017 92.5619 106.399Z" fill="#E8D80A"/>
<path d="M101.418 118.856C101.041 121.756 100.494 127.268 96.4526 127.324C92.7086 127.376 88.677 125.698 87.8471 121.69C87.3237 119.143 86.8615 115.913 87.168 112.947C86.7342 114.569 86.6022 116.272 86.4513 118.03C86.2438 120.393 85.9515 122.854 87.4557 124.844C88.8656 126.707 90.8508 128.183 93.2179 128.48C94.972 128.701 97.8201 128.664 99.2347 127.49C100.546 126.396 101.724 125.009 102.196 123.392C102.837 121.185 102.135 118.422 101.767 116.177C101.753 116.107 101.743 116.031 101.729 115.956C101.649 116.969 101.536 117.955 101.418 118.856Z" fill="#FCFF7D"/>
<path d="M96.1384 107.558C94.9549 107.247 93.8656 106.021 92.5641 106.403C92.5547 106.408 92.55 106.408 92.5406 106.413C92.2859 106.865 92.0785 107.327 91.9134 107.676C90.9751 109.676 89.617 111.071 89.7161 113.438C89.6453 111.779 91.5221 109.369 92.5877 108.148C92.7339 109.501 91.8757 111.01 91.8851 112.439C91.8946 113.934 91.8899 115.48 91.9323 116.994C92.003 119.455 92.1822 122.582 91.3334 124.935C92.7905 123.072 92.8754 119.616 92.9555 117.343C93.0781 113.971 92.0926 111.015 93.7194 107.851C94.1344 109.199 93.8939 110.873 93.9269 112.278C93.9646 113.91 94.3183 115.508 94.4173 117.126C94.4597 117.81 94.4362 118.526 94.4833 119.224C94.5258 119.856 94.8983 121.021 94.7568 121.601C95.3132 119.271 95.1812 116.584 95.0916 114.193C95.0209 112.113 94.6248 110.043 94.4267 107.969C96.6524 111.515 98.3216 114.759 98.4867 119.078C98.482 119.003 98.4584 118.937 98.4065 118.889C98.7649 120.743 98.1519 122.506 98.0104 124.303C98.9912 123.473 99.0667 121.379 99.0525 120.205C99.0101 116.857 98.7413 114.018 97.1286 111.043C96.6241 110.109 95.714 108.982 95.7706 107.865C97.9586 108.431 98.8215 110.864 99.807 112.585C99.5193 112.08 99.6608 110.883 99.4109 110.241C99.1185 109.496 98.746 109.114 98.1943 108.506C98.0812 108.384 97.9633 108.252 97.8454 108.115C97.7841 108.044 97.7039 107.94 97.6332 107.846C97.1569 107.752 96.6477 107.69 96.1384 107.558Z" fill="#CCBA1B"/>
</svg>
