<svg width="300" height="225" viewBox="0 0 300 225" fill="none" xmlns="http://www.w3.org/2000/svg">
<g clip-path="url(#clip0_834_264703)">
<rect x="0.000488281" width="300" height="225" fill="#EFDAEE"/>
<g clip-path="url(#clip1_834_264703)">
<path d="M72.9838 158.913C75.9805 161.281 79.2689 163.369 83.0491 164.177C84.1243 164.407 86.1888 163.942 87.0123 164.848C87.8987 165.823 87.1038 168.255 86.1888 169.063C85.3138 169.832 84.027 169.878 82.8661 169.769C77.8449 169.281 71.7828 166.345 71.2396 160.639C71.1195 159.4 71.4683 157.714 72.9838 158.913Z" fill="#DEDAED"/>
<path opacity="0.25" d="M145.814 215.006C202.044 215.006 247.628 211.953 247.628 208.187C247.628 204.421 202.044 201.368 145.814 201.368C89.5841 201.368 44.0005 204.421 44.0005 208.187C44.0005 211.953 89.5841 215.006 145.814 215.006Z" fill="#231F20"/>
<path d="M180.677 200.221C178.652 200.226 177.428 200.433 176.736 202.492C176.193 204.109 176.279 205.95 176.359 207.59C176.376 207.963 176.416 208.37 176.662 208.651C176.879 208.898 177.217 209.001 177.537 209.081C180.831 209.907 184.291 209.678 187.677 209.442C188.088 209.414 188.534 209.368 188.826 209.081C189.083 208.829 189.164 208.445 189.215 208.089C189.57 205.657 189.301 203.14 188.437 200.84C188.38 200.691 188.317 200.536 188.191 200.433C188.037 200.312 187.825 200.301 187.631 200.295C185.309 200.244 182.987 200.215 180.665 200.226L180.677 200.221Z" fill="#5E3628"/>
<path d="M113.022 198.776C109.099 198.105 105.244 198.684 101.321 198.598C100.761 198.586 100.126 198.586 99.7541 199.005C98.8562 200.02 99.451 202.572 99.4567 203.777C99.4567 204.27 99.4796 204.803 99.7941 205.182C100.057 205.497 100.469 205.629 100.864 205.726C102.213 206.059 103.614 206.134 105.004 206.185C108.716 206.323 112.896 206.753 116.556 206.082C116.819 206.036 117.088 205.973 117.3 205.818C117.746 205.491 117.826 204.866 117.843 204.31C117.86 203.61 117.837 202.905 117.631 202.24C117.014 200.221 114.966 199.108 113.022 198.776Z" fill="#343A4A"/>
<path d="M80.7558 198.105C84.679 197.434 88.5335 198.013 92.4567 197.927C93.0171 197.916 93.6519 197.916 94.0237 198.334C94.9215 199.349 94.3325 201.901 94.3211 203.106C94.3211 203.599 94.2982 204.132 93.9836 204.511C93.7206 204.826 93.3088 204.958 92.9142 205.056C91.5645 205.388 90.1634 205.463 88.7737 205.514C85.0621 205.652 80.8816 206.082 77.2215 205.411C76.9584 205.365 76.6897 205.302 76.4781 205.147C76.032 204.82 75.9519 204.195 75.9348 203.639C75.9176 202.939 75.9405 202.234 76.1464 201.569C76.764 199.55 78.8114 198.437 80.7558 198.105Z" fill="#343A4A"/>
<path d="M153.232 206.776C153.924 206.85 154.656 206.816 155.268 206.822C159.803 206.856 164.332 206.891 168.867 206.925C169.136 206.925 169.433 206.925 169.639 206.747C169.839 206.581 169.902 206.306 169.948 206.053C170.297 204.126 170.308 202.136 169.971 200.204C169.937 199.997 169.885 199.773 169.725 199.642C169.571 199.515 169.353 199.504 169.147 199.504C167.169 199.475 165.19 199.452 163.211 199.424C160.506 199.389 157.75 199.424 155.125 200.186C153.975 200.525 152.557 201.224 151.728 202.113C150.978 202.916 150.555 204.086 150.864 205.141C151.196 206.288 152.168 206.661 153.232 206.776Z" fill="#5E3628"/>
<path d="M113.868 173.691C113.348 181.531 112.536 189.388 112.044 197.153C112.015 197.583 111.987 198.031 111.764 198.398C111.363 199.069 110.5 199.258 109.734 199.372C106.211 199.894 98.9362 200.393 98.9362 200.393C98.9362 200.393 98.9019 194.836 98.8161 192.278C98.7761 191.063 98.7304 189.852 98.6846 188.637C98.3758 180.671 97.8039 172.716 97.0032 164.779C96.6086 160.891 96.1626 157.008 95.6593 153.132C95.4077 151.182 93.2917 144.506 95.522 143.571C97.5866 142.705 99.8856 142.585 102.122 142.574C104.306 142.562 106.491 142.642 108.676 142.763C110.746 142.872 112.667 142.694 114.738 142.545C115.046 147.867 115.126 153.206 114.966 158.534C114.818 163.609 114.114 168.645 113.863 173.686L113.868 173.691Z" fill="#876655"/>
<path d="M96.3287 174.15C96.9006 169.034 97.5926 163.924 97.8385 158.78C98.0501 154.376 98.5877 149.931 98.3589 145.504C98.3532 145.389 98.3418 145.269 98.2789 145.177C98.1931 145.056 98.0329 145.016 97.8843 144.988C95.0477 144.414 92.3884 144.19 89.4889 144.19C86.4865 144.213 83.484 144.236 80.4816 144.254C79.7096 144.254 78.8803 144.288 78.2741 144.764C77.3648 145.475 77.3705 146.834 77.4563 147.987C78.5772 162.554 81.7684 176.748 82.2488 191.406C82.2945 192.823 82.1801 194.234 82.2716 195.65C82.3574 196.935 82.1344 198.317 83.301 199.212C83.9187 199.682 84.7079 199.848 85.4685 199.98C87.1899 200.272 88.9342 200.45 90.6841 200.513C92.091 200.565 94.899 200.542 94.899 200.542C94.899 200.542 95.6768 179.976 96.323 174.15H96.3287Z" fill="#967254"/>
<path d="M159.214 46.1629C158.979 51.7257 160.735 57.7589 165.842 60.6379C167.06 61.326 168.393 61.7963 169.737 62.1863C172.447 62.972 175.284 63.4422 178.086 63.1383C180.888 62.8343 183.662 61.6988 185.595 59.6342C186.727 58.4242 187.534 56.9503 188.254 55.4535C189.541 52.7867 190.599 50.0167 191.417 47.1722C191.834 45.7213 192.069 43.8746 190.874 42.957C190.576 42.7276 190.205 42.5785 189.953 42.2975C189.736 42.0566 189.627 41.7412 189.53 41.4315C189.124 40.1182 188.878 38.7246 188.14 37.5719C187.071 35.8973 185.166 34.9969 183.353 34.194C181.655 33.4427 180.425 32.9037 178.578 33.1961C176.96 33.4485 175.37 33.8671 173.831 34.4292C171.984 35.1116 170.251 36.1898 168.33 36.6428C166.231 37.136 162.983 36.5568 161.61 38.5296C160.1 40.7032 159.334 43.542 159.22 46.1686L159.214 46.1629Z" fill="#343A4A"/>
<path d="M86.7606 91.75H97.1519V82.2644H86.7606V91.75Z" fill="#F79765"/>
<path d="M112.284 104.184C113.96 106.168 115.819 107.344 118.243 108.164C120.525 108.932 122.247 110.452 124.288 111.662C127.628 113.647 131.906 113.486 135.532 112.092C139.158 110.705 142.246 108.221 145.174 105.664C148.588 102.676 151.928 99.4583 154.044 95.4439C155.542 92.6051 156.371 89.4738 157.189 86.3769C158.013 83.2571 158.848 80.0054 158.219 76.8397C157.521 73.3357 155.068 70.084 155.605 66.5512C155.737 65.6738 156.057 64.8307 156.274 63.9705C157.344 59.7438 155.817 54.9666 152.494 52.1565C151.939 51.6862 151.327 51.2619 150.624 51.0611C149.903 50.8547 149.131 50.9063 148.399 50.7629C145.969 50.2869 144.402 47.8897 142.171 46.8115C139.598 45.5671 136.538 46.2266 133.833 47.1499C130.802 48.1822 127.645 49.507 124.855 51.0669C122.384 52.449 119.919 55.7064 118.558 58.1381C116.94 61.0342 116.322 64.7046 117.792 67.681C118.255 68.6215 118.93 69.5162 119.016 70.56C119.181 72.6417 117.088 74.0755 115.361 75.2397C113.354 76.5931 111.409 78.3537 110.82 80.7051C110.1 83.5897 111.604 86.5662 113.394 88.9347C113.708 89.3534 114.046 89.7835 114.166 90.2996C114.332 91.0165 114.04 91.762 113.657 92.3872C112.565 94.1822 110.66 95.507 110.071 97.5257C109.385 99.8655 110.712 102.326 112.279 104.19L112.284 104.184Z" fill="#5E3628"/>
<path d="M114.011 95.5295C114.778 95.9022 115.338 96.1947 115.561 96.3381C120.605 99.5611 124.986 103.707 129.298 107.831C130.785 109.253 132.3 110.716 133.158 112.585C134.016 114.455 134.073 116.841 132.752 118.418C131.168 120.304 128.194 120.362 125.947 119.37C123.699 118.377 121.932 116.565 119.993 115.051C116.579 112.373 111.678 111.369 108.544 108.571C106.159 106.449 104.546 102.578 103.26 99.693C102.831 98.7296 102.516 97.7202 102.207 96.7109C101.733 95.1739 101.258 93.6312 100.783 92.0942C100.76 92.0197 100.738 91.9394 100.772 91.8706C100.823 91.7673 100.961 91.7559 101.075 91.7559C103.711 91.7559 105.536 91.991 107.995 92.9201C110.037 93.6943 112.044 94.5775 114.005 95.5352L114.011 95.5295Z" fill="#544670"/>
<path d="M158.716 159.32C159.219 172.068 159.58 184.811 160.117 197.543C160.146 198.162 160.186 198.828 160.558 199.327C160.912 199.797 161.507 200.026 162.073 200.198C164.269 200.864 166.597 201.081 168.873 200.835C169.21 200.8 169.554 200.749 169.845 200.577C170.657 200.095 170.692 198.954 170.64 198.013C169.416 175.303 176.182 152.615 173.997 129.974C173.957 129.584 173.9 129.154 173.597 128.907C173.362 128.718 173.042 128.689 172.739 128.666C168.879 128.385 165.013 128.11 161.152 127.829C160.42 127.777 159.791 127.525 159.368 128.162C159.002 128.712 159.099 130.117 159.025 130.771C158.808 132.709 158.653 134.654 158.545 136.598C158.116 144.197 158.722 151.732 158.722 159.32H158.716Z" fill="#84879B"/>
<path d="M190.53 180.424C190.776 172.865 190.862 165.301 191.102 157.742C191.177 155.431 193.115 128.264 191.989 128.293C185.423 128.431 178.858 128.563 172.293 128.7C171.864 128.712 171.384 128.74 171.109 129.067C170.886 129.331 170.869 129.71 170.863 130.054C170.417 153.056 174.798 176.266 177.537 199.045C177.594 199.504 177.663 199.997 177.989 200.318C178.195 200.519 178.469 200.628 178.738 200.72C181.426 201.672 184.331 201.987 187.162 201.637C187.477 201.597 187.803 201.545 188.06 201.368C190.09 199.991 189.753 195.575 189.89 193.562C190.199 189.187 190.393 184.799 190.536 180.418L190.53 180.424Z" fill="#9193A8"/>
<path d="M141.107 80.3896H134.268V87.2486H141.107V80.3896Z" fill="#FAC39A"/>
<path d="M74.1565 102.933C74.1394 103.163 74.1279 103.398 74.1165 103.633C73.7391 110.762 73.8306 117.907 74.0422 125.042C74.2309 131.407 73.5561 138.725 75.2889 144.896C75.4147 145.343 75.5748 145.808 75.9294 146.112C76.2325 146.364 76.6271 146.467 77.0103 146.548C79.4122 147.058 81.8885 147.115 84.3476 147.15C93.8696 147.293 103.329 147.242 112.822 146.582C117.34 146.272 115.996 137.962 115.899 134.866C115.682 127.576 114.652 120.339 113.245 113.193C111.57 104.683 109.139 93.0406 99.3426 90.8958C97.7185 90.5402 96.0485 90.5173 94.3843 90.5058C90.4897 90.4886 86.5151 90.5631 82.8321 91.8248C80.4588 92.6392 78.2112 94.0041 76.5528 95.9081C74.7399 97.9842 74.3224 100.341 74.1508 102.933H74.1565Z" fill="#A99AA9"/>
<mask id="mask0_834_264703" style="mask-type:luminance" maskUnits="userSpaceOnUse" x="73" y="90" width="44" height="58">
<path d="M74.0369 103.073C74.0198 103.302 74.0083 103.538 73.9969 103.773C73.6194 110.901 73.7109 118.047 73.9225 125.181C74.1113 131.547 73.4364 138.865 75.1693 145.036C75.2951 145.483 75.4552 145.948 75.8098 146.251C76.1129 146.504 76.5075 146.607 76.8907 146.687C79.2926 147.198 81.7689 147.255 84.228 147.29C93.75 147.433 103.209 147.381 112.702 146.722C117.22 146.412 115.876 138.102 115.779 135.005C115.562 127.716 114.533 120.479 113.126 113.333C111.45 104.822 109.019 93.1803 99.223 91.0354C97.5988 90.6799 95.9289 90.6569 94.2647 90.6454C90.3701 90.6282 86.3955 90.7028 82.7125 91.9645C80.3392 92.7788 78.0916 94.1438 76.4331 96.0478C74.6202 98.1238 74.2028 100.481 74.0312 103.073H74.0369Z" fill="white"/>
</mask>
<g mask="url(#mask0_834_264703)">
<path d="M86.4645 91.666C88.2144 93.8453 91.8459 95.3651 94.5681 94.3557C97.3475 93.3234 99.5207 90.433 100.156 87.5999C95.9521 86.3841 91.4799 86.6135 87.1107 86.8659C86.2986 86.9117 84.8288 87.1411 84.6859 88.1849C84.5543 89.1656 85.8811 90.9491 86.4587 91.6717L86.4645 91.666Z" fill="#F79765"/>
<path d="M82.73 89.6928C83.9195 93.8908 87.9399 97.1138 92.2806 97.3547C93.5101 97.4235 94.7568 97.2687 95.8949 96.8099C99.0975 95.5195 100.882 92.1359 102.226 88.9473" stroke="#3D2F74" stroke-miterlimit="10"/>
<path d="M72.3384 105.785C79.4413 106.055 86.5556 106.152 93.6585 105.866C100.596 105.585 107.841 105.263 114.532 103.359" stroke="#3D2F74" stroke-miterlimit="10"/>
<path d="M72.207 109.358C79.3099 109.628 86.4242 109.726 93.5271 109.439C100.464 109.158 107.71 108.837 114.401 106.933" stroke="#3D2F74" stroke-miterlimit="10"/>
</g>
<path d="M131.557 203.266C134.319 204.728 137.396 205.474 140.559 205.164C140.919 205.13 141.308 205.072 141.565 204.814C142.023 204.361 141.8 203.53 141.302 203.128C140.804 202.721 140.135 202.618 139.506 202.486C138.088 202.176 135.692 201.408 135.966 199.504C136.035 199.016 136.246 198.552 136.252 198.064C136.252 197.99 136.252 197.915 136.201 197.858C136.149 197.795 136.069 197.772 135.989 197.749L130.602 196.344C130.076 197.864 129.55 199.423 129.613 201.029C129.63 201.436 129.693 201.855 129.933 202.182C130.122 202.434 130.402 202.606 130.671 202.767C130.962 202.939 131.254 203.105 131.551 203.266H131.557Z" fill="black"/>
<path d="M179.985 61.8369H169.593V74.4538H179.985V61.8369Z" fill="#FAC39A"/>
<path d="M156.709 103.157C159.191 99.171 160.992 94.7665 162.044 90.19C162.948 86.2444 163.342 82.1783 163.365 78.1466C163.371 76.9423 163.36 75.6864 162.816 74.6082C162.719 74.4075 162.588 74.2067 162.382 74.1207C162.204 74.0404 161.999 74.0691 161.804 74.0978C159.185 74.5279 156.12 76.191 154.352 78.1811C150.841 82.1382 148.325 86.8638 146.386 91.7958C146.1 92.5184 145.825 93.264 145.808 94.0382C145.774 95.3687 146.489 96.596 147.272 97.6627C149.188 100.272 151.699 102.446 154.558 103.965C154.804 104.097 155.062 104.223 155.342 104.229C155.948 104.229 156.383 103.667 156.703 103.151L156.709 103.157Z" fill="#B18CC2"/>
<path d="M194.608 100.817C194.934 103.466 195.008 106.145 195.014 108.817C195.025 114.604 194.694 120.385 194.025 126.131C193.956 126.704 193.876 127.312 193.527 127.777C193.235 128.167 192.789 128.408 192.349 128.62C190.37 129.572 188.226 130.18 186.041 130.403C184.594 130.553 183.136 130.535 181.683 130.518C175.844 130.455 170.005 130.386 164.166 130.323C162.29 130.3 160.163 130.163 158.979 128.706C158.104 127.628 158.018 126.131 157.973 124.743C157.744 117.867 157.509 110.996 157.281 104.12C157.069 97.8347 156.857 91.5378 157.223 85.258C157.378 82.5626 157.664 79.7983 158.676 77.2692C159.631 74.8835 160.861 74.2125 163.257 73.5014C164.967 72.9909 166.763 72.8533 168.541 72.7214C171.87 72.4691 175.198 72.211 178.532 72.1364C180.088 72.102 181.655 72.1078 183.199 72.297C185.892 72.6354 188.569 73.6333 190.708 75.3308C192.938 77.1029 193.321 79.7066 193.504 82.4135C193.927 88.5154 193.853 94.7608 194.596 100.811L194.608 100.817Z" fill="#EFDAEE"/>
<path d="M137.688 83.1538C144.283 83.1538 149.629 76.5088 149.629 68.3118C149.629 60.1147 144.283 53.4697 137.688 53.4697C131.093 53.4697 125.747 60.1147 125.747 68.3118C125.747 76.5088 131.093 83.1538 137.688 83.1538Z" fill="#FAC39A"/>
<path d="M156.738 96.2354C157.767 97.3251 158.482 98.4376 159.374 99.6248C160.501 101.122 161.141 102.928 161.759 104.7C161.822 104.884 161.89 105.09 161.822 105.274C161.507 106.163 158.596 107.327 157.807 107.745C156.028 108.692 154.17 109.483 152.254 110.108C150.298 104.694 148.319 99.1488 148.239 93.3909C148.211 91.3148 149.526 88.8775 151.545 90.8216C153.34 92.5536 155.028 94.4232 156.738 96.2354Z" fill="#C7A4D7"/>
<path d="M184.383 52.4539C184.86 43.8902 179.909 36.6486 173.325 36.2794C166.74 35.9103 161.015 42.5533 160.538 51.117C160.06 59.6808 165.011 66.9223 171.596 67.2915C178.18 67.6607 183.905 61.0176 184.383 52.4539Z" fill="#FAC39A"/>
<path d="M137.814 198.15C138.391 199.624 138.906 201.127 139.352 202.646C139.529 203.254 139.684 203.954 139.335 204.476C139.055 204.9 138.523 205.078 138.031 205.221C133.77 206.426 129.332 206.925 124.906 206.971C124.403 206.971 123.848 206.959 123.465 206.627C122.144 205.48 125.461 203.627 126.181 203.272C127.497 202.612 128.915 202.205 130.328 201.798C131.597 201.431 133.873 201.586 132.775 199.441C132.661 199.211 132.489 198.988 132.512 198.735C132.569 197.944 137.139 198.122 137.819 198.15H137.814Z" fill="#2D322E"/>
<path d="M152.168 105.428C151.859 107.252 151.202 108.932 150.693 110.698C150.332 111.943 150.212 113.187 149.818 114.443C149.566 115.246 147.827 124.554 148.622 124.548C141.537 124.606 134.457 124.382 127.388 123.883C127.56 119.731 127.668 115.498 126.559 111.496C126.073 109.752 125.363 108.072 124.883 106.328C123.819 102.486 123.888 98.437 123.957 94.4512C124.025 90.7063 125.615 89.2038 129.081 88.2174C132.363 87.2826 135.818 87.0302 139.22 87.0532C142.629 87.0761 146.083 87.7069 149.08 89.3242C149.703 89.6626 150.321 90.0525 150.733 90.6318C151.184 91.2741 151.339 92.077 151.476 92.8512C152.214 97.009 152.871 101.276 152.162 105.439L152.168 105.428Z" fill="#9E76B1"/>
<mask id="mask1_834_264703" style="mask-type:luminance" maskUnits="userSpaceOnUse" x="123" y="87" width="30" height="38">
<path d="M152.168 105.428C151.859 107.252 151.202 108.932 150.693 110.698C150.332 111.943 150.212 113.187 149.818 114.443C149.566 115.246 147.827 124.554 148.622 124.548C141.537 124.606 134.457 124.382 127.388 123.883C127.56 119.731 127.668 115.498 126.559 111.496C126.073 109.752 125.363 108.072 124.883 106.328C123.819 102.486 123.888 98.437 123.957 94.4512C124.025 90.7063 125.615 89.2038 129.081 88.2174C132.363 87.2826 135.818 87.0302 139.22 87.0532C142.629 87.0761 146.083 87.7069 149.08 89.3242C149.703 89.6626 150.321 90.0525 150.733 90.6318C151.184 91.2741 151.339 92.077 151.476 92.8512C152.214 97.009 152.871 101.276 152.162 105.439L152.168 105.428Z" fill="white"/>
</mask>
<g mask="url(#mask1_834_264703)">
<path d="M137.511 99.8137C137.568 99.8539 137.625 99.8883 137.676 99.9227C138.803 100.605 139.924 99.6245 140.639 98.6782C141.68 97.3076 142.726 95.9254 143.538 94.4057C145.002 91.6701 147.25 84.7652 144.064 82.649C142.292 81.4734 140.382 80.4525 138.311 79.9937C136.241 79.5292 133.976 79.6669 132.118 80.6877C130.585 81.525 129.413 82.9702 128.955 84.6563C128.475 86.4226 129.315 87.9539 130.053 89.5482C131.271 92.1805 132.918 94.5777 134.788 96.7857C135.555 97.6918 136.498 99.1083 137.511 99.808V99.8137Z" fill="#9E76B1"/>
<path d="M137.831 96.3557C137.991 96.5048 138.18 96.6596 138.403 96.6539C138.592 96.6424 138.752 96.5162 138.889 96.3901C141.657 93.8954 143.39 90.2824 143.596 86.5604C143.613 86.2106 143.619 85.8492 143.476 85.5338C143.172 84.8686 142.349 84.6506 141.628 84.5302C139.501 84.1746 137.339 83.9969 135.183 84.0083C134.314 84.0083 133.427 84.0485 132.621 84.3696C129.67 85.5453 131.866 88.4931 132.964 90.3455C134.285 92.5706 135.927 94.6065 137.831 96.3614V96.3557Z" fill="#9E76B1"/>
</g>
<path d="M74.0703 96.8029C74.036 96.8373 74.0074 96.8717 73.9845 96.9003C67.0646 104.826 61.6603 114.891 59.6872 125.288C59.3212 127.204 59.2583 129.159 59.224 131.109C59.1783 133.822 59.3155 136.85 61.2485 138.743C61.3457 138.84 61.4544 138.932 61.5916 138.955C61.809 138.995 62.0091 138.829 62.175 138.674C66.7558 134.35 71.4968 129.486 74.0188 123.499C75.5629 119.84 77.3816 116.302 78.7941 112.585C80.2868 108.668 81.116 104.579 81.5449 100.416C81.7165 98.7699 82.7402 93.8092 80.424 93.144C79.9894 93.0178 79.5261 93.121 79.0972 93.2587C77.0098 93.9411 75.5286 95.1455 74.0703 96.7971V96.8029Z" fill="#544670"/>
<path d="M152.877 147.207C152.832 148.56 152.734 149.908 152.591 151.25C151.756 159.147 148.817 166.591 146.146 174.001C143.401 181.622 140.793 189.296 138.145 196.946C138.145 197.428 137.797 198.563 137.436 198.896C136.779 199.515 136.35 198.931 135.755 198.621C134.76 198.105 133.399 198.082 132.301 197.887C131.014 197.663 129.727 197.434 128.44 197.21C130.368 191.664 132.158 186.067 133.799 180.43C134.148 179.237 134.594 178.09 134.966 176.926C135.389 175.595 135.469 174.041 135.635 172.653C135.967 169.843 136.144 167.021 136.476 164.211C137.116 158.763 136.544 153.298 137.093 147.838C137.448 144.294 138.248 140.79 138.426 137.234C138.632 133.07 137.997 128.827 138.9 124.76C139.003 124.302 139.135 123.82 139.466 123.487C139.821 123.126 140.347 122.988 140.85 122.897C142.675 122.564 146.489 122.203 147.828 123.7C148.588 124.548 149.04 126.217 149.475 127.272C152.088 133.569 153.106 140.411 152.872 147.207H152.877Z" fill="#47719E"/>
<path d="M138.837 183.739C138.797 178.904 138.757 174.075 138.74 169.241C138.717 161.321 138.763 153.395 139.003 145.481C139.123 141.524 139.289 137.567 139.518 133.615C139.632 131.637 139.764 129.664 139.912 127.691C140.021 126.206 140.381 124.416 140.175 122.96C136.561 122.564 132.735 122.834 129.092 122.788C128.777 122.788 128.446 122.782 128.16 122.914C127.92 123.023 127.725 123.218 127.542 123.407C124.019 127.077 120.931 131.889 120.285 137.039C118.878 148.302 121.6 159.463 124.477 170.273C125.929 175.733 127.451 181.181 128.554 186.727C128.858 188.241 131.557 199.951 131.557 199.951L139.432 199.94C139.432 199.94 138.877 189.147 138.831 183.744L138.837 183.739Z" fill="#4F77AA"/>
<path d="M128.126 65.5762C129.744 64.3776 131.557 63.4657 133.404 62.6857C136.189 61.5101 139.094 60.6212 141.828 59.3365C143.458 58.5738 145.225 57.3809 145.34 55.5744C145.414 54.3701 144.676 53.2346 143.71 52.5234C142.737 51.8123 141.559 51.4682 140.393 51.1642C137.751 50.4875 134.874 50.023 132.363 51.084C131.111 51.6173 130.036 52.5005 129.058 53.4525C128.011 54.479 127.056 55.6031 126.21 56.8017C125.403 57.9544 124.689 59.1817 124.214 60.5065C123.156 63.4542 123.327 66.6773 123.516 69.8028C123.55 70.405 123.693 71.1505 124.277 71.3111C125.238 71.5749 125.238 69.1662 125.529 68.5583C126.124 67.3253 127.028 66.3791 128.12 65.5704L128.126 65.5762Z" fill="#5E3628"/>
<path d="M106.108 67.8582C106.342 73.4211 104.587 79.4542 99.4797 82.3332C98.2616 83.0214 96.9291 83.4916 95.5851 83.8816C92.8744 84.6673 90.0378 85.1376 87.2355 84.8336C84.4332 84.5297 81.6596 83.3941 79.7266 81.3296C78.5942 80.1195 77.7879 78.6456 77.0673 77.1488C75.7805 74.482 74.7225 71.712 73.9047 68.8675C73.4873 67.4166 73.2528 65.5699 74.448 64.6523C74.7454 64.4229 75.1171 64.2738 75.3688 63.9928C75.5861 63.7519 75.6948 63.4365 75.792 63.1268C76.198 61.8135 76.4439 60.4199 77.1817 59.2672C78.2511 57.5926 80.1555 56.6922 81.9684 55.8893C83.6669 55.1381 84.8965 54.599 86.7437 54.8915C88.3621 55.1438 89.952 55.5624 91.4904 56.1245C93.3376 56.8069 95.0704 57.8851 96.992 58.3382C99.0908 58.8314 102.339 58.2521 103.712 60.225C105.221 62.3985 105.988 65.2373 106.102 67.8639L106.108 67.8582Z" fill="#DDCACC"/>
<path d="M62.2496 208.158C63.5478 208.634 67.5568 209.712 68.5461 208.307C69.5012 206.954 68.569 205.6 67.3623 204.895C66.3158 204.287 65.0919 204.029 63.8852 203.954C63.1075 203.908 62.2954 203.937 61.5977 204.293C59.516 205.348 60.4539 207.498 62.2496 208.152V208.158Z" fill="#EFDAEE"/>
<path d="M71.0112 208.313C72.3437 208.686 76.427 209.443 77.302 207.969C78.1484 206.546 77.1133 205.268 75.8551 204.66C74.7628 204.138 73.5275 203.977 72.3151 203.994C71.5373 204.006 70.7253 204.103 70.0619 204.511C68.0717 205.726 69.1754 207.797 71.0169 208.307L71.0112 208.313Z" fill="#EFDAEE"/>
<path d="M123.516 74.9352C122.836 74.247 122.327 73.3581 122.235 72.3946C122.069 70.7085 123.362 69.011 125.026 68.7242C125.535 68.6382 126.118 68.6898 126.467 69.0741C126.673 69.3035 126.759 69.6132 126.844 69.9114C127.13 70.9723 127.422 72.0333 127.708 73.0943C127.988 74.1266 128.84 76.1453 127.657 76.6671C126.336 77.2521 124.362 75.7782 123.522 74.9295L123.516 74.9352Z" fill="#FAC39A"/>
<path d="M198.868 69.4525C198.76 68.3972 198.697 67.3248 198.954 66.2982C199.212 65.2717 199.829 64.291 200.784 63.8322C200.75 63.8494 200.99 61.4637 201.076 61.2113C201.373 60.3167 201.865 59.4851 202.494 58.7797C203.123 58.0801 203.89 57.5008 204.753 57.1223C205.611 56.7438 206.686 56.8872 207.338 56.2162C208.556 54.9717 210.935 55.0348 212.508 55.4305C212.193 53.4118 212.903 51.2612 214.361 49.8389C216.717 47.5335 220.263 47.5564 223.008 49.0188C225.576 50.3895 227.829 52.563 228.744 55.333C229.659 58.103 228.984 61.4809 226.714 63.2989C228.618 64.2738 229.219 66.6595 229.619 68.7643C229.956 70.5421 230.294 72.3486 230.082 74.1436C229.756 76.8735 228.195 79.2764 226.679 81.5647C226.291 82.1496 225.879 82.7575 225.273 83.1131C224.701 83.4457 224.02 83.5145 223.363 83.5432C216.374 83.8759 209.746 80.7388 203.455 77.6764C201.957 76.948 200.87 76.4663 200.161 74.9179C199.383 73.2088 199.057 71.3163 198.874 69.4582L198.868 69.4525Z" fill="#CEB3B4"/>
<path d="M171.441 130.083C171.544 114.386 171.275 98.655 172.407 82.9871C172.568 80.7792 172.711 78.5712 172.779 76.3633" fill="#720085"/>
<path d="M171.441 130.083C171.544 114.386 171.275 98.655 172.407 82.9871C172.568 80.7792 172.711 78.5712 172.779 76.3633" stroke="#720085" stroke-miterlimit="10"/>
<path d="M185.704 55.5113C187.482 50.023 187.271 44.8558 186.745 39.2069C186.602 37.647 185.767 36.781 184.68 35.6512C183.851 34.791 182.999 33.9135 181.918 33.4031C178.835 31.9522 175.112 33.9594 171.824 33.0762C170.509 32.7207 169.348 31.9292 168.067 31.459C165.161 30.398 161.667 31.2296 159.545 33.4834C159.202 33.8447 158.888 34.2519 158.705 34.7164C158.304 35.7086 158.527 36.8498 158.985 37.8133C160.186 40.3654 162.228 40.893 164.572 41.8564C166.46 42.6307 168.696 42.7568 170.709 42.7798C172.973 42.8084 175.107 42.3382 177.234 43.4335C177.995 43.8293 178.669 44.3798 179.407 44.8157C180.156 45.263 180.991 45.6014 181.592 46.2379C182.415 47.1096 182.638 48.3713 182.856 49.5527C183.239 51.6173 183.714 53.6647 184.28 55.6834C184.354 55.9587 184.468 56.2684 184.737 56.3716C185.195 56.5436 185.561 55.9759 185.715 55.5113H185.704Z" fill="#343A4A"/>
<path d="M198.342 80.3144C203.072 83.9791 207.847 88.2287 210.518 93.5564C211.69 95.8963 211.656 97.9437 210.501 100.261C209.54 102.193 207.807 103.851 205.588 104.074C204.067 104.229 202.603 103.512 201.253 102.79C197.908 101.006 194.591 99.062 191.926 96.3666C186.659 91.0331 185.435 81.341 186.944 74.2698C186.985 74.0806 187.036 73.8798 187.173 73.7479C187.442 73.4956 187.871 73.6218 188.208 73.7651C190.988 74.958 193.51 76.6613 195.923 78.4678C196.724 79.0642 197.536 79.6836 198.354 80.3144H198.342Z" fill="#B18CC2"/>
<path d="M217.347 89.1299H208.196V97.1875H217.347V89.1299Z" fill="#FAC39A"/>
<path d="M187.505 53.2287C188.243 53.7564 188.82 54.7485 188.826 55.6604C188.832 56.383 188.494 57.0712 188.054 57.6446C187.076 58.9063 185.995 59.7379 184.411 59.9845C183.319 60.1508 181.729 60.0591 181.494 58.6999C181.283 57.4841 182.272 55.7521 182.97 54.8173C184.011 53.418 185.789 52.0015 187.505 53.2345V53.2287Z" fill="#FAC39A"/>
<path d="M80.9387 74.1551C81.4191 82.7174 87.1437 89.3642 93.7262 88.9914C100.309 88.6187 105.256 81.3812 104.781 72.8132C104.3 64.2509 98.5758 57.6041 91.9934 57.9769C85.4109 58.3439 80.4641 65.5871 80.9387 74.1551Z" fill="#F9B689"/>
<path d="M79.6176 77.2008C77.8391 71.7125 78.0507 66.5453 78.5768 60.8964C78.7198 59.3365 79.5547 58.4705 80.6413 57.3407C81.4706 56.4805 82.3227 55.603 83.4036 55.0926C86.486 53.6417 90.2091 55.6489 93.4974 54.7657C96.1396 54.0603 98.4557 52.4717 101.344 53.309C102.293 53.5843 103.288 53.9514 103.894 54.7313C104.895 56.0274 104.409 58.0289 103.237 59.1701C102.064 60.3114 100.406 60.7759 98.8046 61.0914C95.7106 61.705 92.5367 61.9172 89.3913 61.7222C88.2703 61.6534 87.0694 61.5559 86.1086 62.1409C85.3423 62.6111 84.8733 63.4542 84.5531 64.2972C83.7295 66.4707 83.6838 68.8622 82.7916 71.0071C81.9567 73.0143 81.6421 75.2567 81.0474 77.3786C80.973 77.6539 80.8586 77.9636 80.5898 78.0668C80.1323 78.2388 79.7663 77.6711 79.6119 77.2066L79.6176 77.2008Z" fill="#DDCACC"/>
<path d="M77.8219 74.9182C77.3644 75.2451 77.0441 75.7268 76.7925 76.2258C76.6438 76.524 76.5123 76.8394 76.478 77.172C76.3807 78.0609 76.9355 78.881 77.4902 79.5807C77.8848 80.0796 78.308 80.5786 78.8341 80.9342C80.0408 81.7542 83.4722 82.4539 83.8268 80.3893C84.0384 79.1735 83.049 77.4416 82.3513 76.5068C81.3104 75.1074 79.5319 73.6909 77.8162 74.9239L77.8219 74.9182Z" fill="#F9B689"/>
<path d="M224.43 77.3725C225.53 68.8667 221.12 61.2817 214.58 60.4311C208.04 59.5805 201.846 65.7863 200.746 74.2921C199.646 82.798 204.056 90.3829 210.596 91.2336C217.136 92.0842 223.33 85.8784 224.43 77.3725Z" fill="#FAC39A"/>
<path d="M217.833 69.6934C215.768 69.6017 213.726 69.4354 211.685 69.3264C209.637 69.2002 207.596 69.12 205.531 68.9708C207.579 68.6669 209.655 68.644 211.713 68.7529C213.772 68.8848 215.831 69.1544 217.833 69.6934Z" fill="#E59A7F"/>
<path d="M216.117 67.7319C214.619 67.6401 213.155 67.4738 211.679 67.3649C210.209 67.2387 208.74 67.1584 207.241 67.0093C208.717 66.7053 210.232 66.6824 211.725 66.7971C213.217 66.929 214.704 67.2043 216.111 67.7376L216.117 67.7319Z" fill="#E59A7F"/>
<path d="M60.6538 204.803C61.992 204.665 63.3302 204.522 64.6684 204.384C67.2305 198.46 68.2999 191.888 67.7452 185.453C67.7109 185.086 67.6709 184.702 67.4421 184.41C67.1333 184.008 66.5785 183.916 66.081 183.848C64.6456 183.658 61.889 183.268 60.9111 184.748C60.0533 186.05 60.648 189.003 60.648 190.5C60.648 191.716 60.8654 204.78 60.648 204.803H60.6538Z" fill="#9193A8"/>
<path d="M213.863 207.138C213.28 206.753 212.811 206.254 212.645 205.572C212.577 205.274 212.577 204.97 212.577 204.666C212.577 202.188 213.452 199.596 216.265 201.454C219.193 203.387 222.682 204.729 225.221 207.155C228.149 209.953 223.7 210.16 221.767 209.902C219.828 209.644 217.981 208.973 216.191 208.221C215.493 207.929 214.595 207.619 213.863 207.138Z" fill="#35669E"/>
<path d="M69.1524 205.096C70.4734 204.849 71.8002 204.608 73.1213 204.362C75.2144 198.254 75.7634 191.619 74.6997 185.247C74.6368 184.886 74.5624 184.502 74.3165 184.232C73.9734 183.859 73.4187 183.808 72.9154 183.779C71.4685 183.699 68.6891 183.532 67.8313 185.081C67.0764 186.446 67.9056 189.342 68.0257 190.833C68.1229 192.043 69.364 205.05 69.1524 205.09V205.096Z" fill="#9193A8"/>
<path d="M169.428 71.9013L172.762 76.776L179.973 71.3564L169.428 71.9013Z" fill="#FAC39A"/>
<path d="M55.5124 183.664C55.3008 184.346 55.9299 184.983 56.5304 185.367C57.1309 185.751 57.8457 186.17 57.9315 186.875C57.6684 187.099 57.2681 187.013 56.9536 186.875C56.1358 186.531 55.6611 186.52 55.6039 187.466C55.5524 188.321 55.4953 189.175 55.4438 190.03C55.4209 190.357 55.3637 190.741 55.0663 190.873C54.8776 190.959 54.6489 190.901 54.483 190.781C54.3114 190.661 54.1913 190.488 54.0712 190.322C54.0598 190.666 53.9855 191.102 53.648 191.194C53.4422 191.251 53.2248 191.137 53.0876 190.976C52.9503 190.815 52.8874 190.603 52.8245 190.402C52.5729 190.506 52.2641 190.448 52.0582 190.271C51.8523 190.093 51.7665 189.789 51.8352 189.525C51.6407 189.617 51.4062 189.473 51.3147 189.278C51.2289 189.083 51.2518 188.86 51.2861 188.648C51.6121 186.658 52.9732 185.184 53.5851 183.297" fill="#FAC39A"/>
<path d="M208.819 206.225C209.403 205.841 209.872 205.342 210.038 204.66C210.106 204.362 210.106 204.058 210.106 203.754C210.106 201.276 209.231 198.684 206.417 200.542C203.489 202.475 200.001 203.817 197.462 206.243C194.534 209.041 198.983 209.248 200.916 208.99C202.855 208.732 204.702 208.061 206.492 207.309C207.19 207.017 208.087 206.707 208.819 206.225Z" fill="#35669E"/>
<path d="M57.7945 171.266C57.8459 167.75 57.6572 162.56 60.3051 160.1C62.9072 157.68 66.6016 156.659 69.9186 157.611C71.1996 157.978 72.4234 158.614 73.4242 159.572C75.8605 161.901 76.5925 165.663 77.0558 169.173C77.7592 174.517 78.1538 179.914 78.2396 185.311C78.2396 185.729 68.4831 186.177 67.5738 186.205C64.4227 186.291 61.2544 186.309 58.1147 186.291C57.7602 181.308 57.7201 176.284 57.7945 171.277V171.266Z" fill="#E3D1F2"/>
<path d="M222.694 179.392C222.528 180.831 221.773 182.316 221.378 183.733C220.869 185.574 220.36 187.415 219.851 189.256C218.782 193.121 217.753 196.826 217.358 200.812C217.175 202.641 218.662 202.44 219.617 203.668C220.252 204.482 219.937 205.572 218.908 205.795C217.764 206.048 216.557 205.612 215.625 204.901C214.916 204.361 214.052 203.639 213.543 202.911C212.909 202.004 213.235 200.909 213.155 199.882C212.577 192.353 211.725 184.891 210.678 177.407" fill="#FAC39A"/>
<path d="M58.7955 161.419C59.3559 160.696 60.0022 159.991 60.8428 159.635C61.0544 159.549 61.3061 159.486 61.4948 159.612C61.6263 159.704 61.695 159.865 61.7464 160.019C62.5013 162.153 62.7415 164.435 62.6329 166.689C62.5928 167.572 62.6329 168.392 62.2954 169.195C61.8608 170.205 61.1345 171.151 60.6312 172.132C58.6067 176.072 57.2113 180.338 56.5308 184.72C55.0381 184.835 53.5398 184.857 52.0472 184.783C51.2579 184.748 53.5455 173.456 53.7971 172.504C54.8208 168.582 56.2849 164.648 58.7955 161.43V161.419Z" fill="#E3D1F2"/>
<path d="M199.989 178.479C200.155 179.919 200.91 181.404 201.305 182.821C201.814 184.662 202.323 186.503 202.832 188.344C203.901 192.209 204.93 195.914 205.325 199.899C205.508 201.729 204.021 201.528 203.066 202.755C202.431 203.57 202.746 204.659 203.775 204.883C204.919 205.135 206.126 204.7 207.058 203.988C207.767 203.449 208.631 202.727 209.14 201.998C209.774 201.092 209.448 199.997 209.528 198.97C210.106 191.44 210.958 183.979 212.005 176.495" fill="#FAC39A"/>
<path d="M172.808 76.4609L179.985 70.25L183.879 72.4063L176.027 80.3894L172.808 76.4609Z" fill="#720085"/>
<path d="M169.593 71.0244L172.807 76.4611L169.021 80.3896L165.201 73.0775L169.593 71.0244Z" fill="#720085"/>
<path d="M209.626 63.7805C210.724 67.3591 214.298 68.3627 217.712 67.9269C217.598 69.1083 218.221 70.261 219.096 71.0582C219.971 71.8553 221.075 72.3485 222.167 72.7901C222.053 74.459 221.933 76.1221 221.818 77.791C221.738 78.9322 221.664 80.1079 222.064 81.1803C222.322 81.8685 223.14 83.1073 223.94 82.8091C224.632 82.551 225.416 80.8707 225.747 80.2513C226.76 78.3415 227.286 76.1737 227.217 74.0059C227.126 71.1499 226.056 68.4316 225.004 65.7763C224.484 64.463 223.952 63.1325 223.094 62.0084C221.149 59.4564 217.867 58.3782 214.744 57.6499C210.724 56.7151 208.493 60.1159 209.62 63.7748L209.626 63.7805Z" fill="#CEB3B4"/>
<path d="M126.41 111.926C126.988 111.106 127.657 110.338 128.406 109.638C130.625 107.562 133.33 106.157 136.064 104.901C139.015 103.548 142.091 102.464 145.237 101.666C146.718 101.294 148.159 100.743 149.623 100.296C152.603 99.3839 155.708 98.6556 158.802 98.9882C161.896 99.3151 165.007 100.858 166.534 103.576C167.615 105.497 167.821 107.832 167.42 110.005C167.026 112.179 166.071 114.209 164.961 116.113C161.69 121.722 156.783 126.562 150.893 129.355C148.937 130.278 146.867 130.943 144.751 131.396C140.484 132.314 135.595 132.847 131.328 131.7C128.709 130.995 126.393 128.54 125.198 126.178C122.819 121.463 123.499 116.05 126.41 111.932V111.926Z" fill="#D9DCF4"/>
<path d="M153.375 100.891C156.08 100.278 159.763 101.132 161.272 103.69C162.736 106.173 162.205 109.345 160.455 111.57C157.618 115.177 151.327 115.475 148.319 111.903C144.813 107.745 148.834 101.929 153.38 100.897L153.375 100.891Z" fill="#FAC39A"/>
<path d="M69.9988 158.89C69.7186 159.509 69.1982 159.974 68.2545 160.1C63.8052 160.685 65.0748 155.047 65.0748 152.547H70.3362V156.057C70.3362 156.98 70.3705 158.07 69.9988 158.89Z" fill="#FAC39A"/>
<path d="M232.164 136.202C233.325 140.83 233.033 145.705 232.381 150.436C231.472 157.026 229.876 163.501 228.281 169.958C227.326 173.835 226.371 177.706 225.416 181.583C216.82 181.566 208.225 181.543 199.629 181.526C195.534 168.203 192.269 154.187 194.362 140.4C195.083 135.646 196.432 131.012 197.833 126.413C199 122.599 199.846 119.192 199.314 115.201C198.806 111.341 198.056 107.476 198.234 103.565C198.365 100.732 199.698 99.4011 201.905 97.7666C203.363 96.6885 204.953 95.7938 206.635 95.1171C208.613 94.3199 210.22 94.383 212.325 94.406C214.653 94.4289 216.992 94.6354 219.256 95.2031C222.997 96.1379 226.88 97.9616 227.743 102.074C228.029 103.45 228.012 104.872 227.995 106.283C227.995 111.49 227.303 116.95 227.8 122.129C228.275 127.072 230.969 131.442 232.158 136.202H232.164Z" fill="#CA9CC6"/>
<mask id="mask2_834_264703" style="mask-type:luminance" maskUnits="userSpaceOnUse" x="193" y="94" width="40" height="88">
<path d="M232.164 136.202C233.325 140.83 233.033 145.705 232.381 150.436C231.472 157.026 229.876 163.501 228.281 169.958C227.326 173.835 226.371 177.706 225.416 181.583C216.82 181.566 208.225 181.543 199.629 181.526C195.534 168.203 192.269 154.187 194.362 140.4C195.083 135.646 196.432 131.012 197.833 126.413C199 122.599 199.846 119.192 199.314 115.201C198.806 111.341 198.056 107.476 198.234 103.565C198.365 100.732 199.698 99.4011 201.905 97.7666C203.363 96.6885 204.953 95.7938 206.635 95.1171C208.613 94.3199 210.22 94.383 212.325 94.406C214.653 94.4289 216.992 94.6354 219.256 95.2031C222.997 96.1379 226.88 97.9616 227.743 102.074C228.029 103.45 228.012 104.872 227.995 106.283C227.995 111.49 227.303 116.95 227.8 122.129C228.275 127.072 230.969 131.442 232.158 136.202H232.164Z" fill="white"/>
</mask>
<g mask="url(#mask2_834_264703)">
<path d="M208.762 100.083C209.477 100.433 210.255 100.628 211.038 100.737C212.611 100.961 214.252 100.863 215.716 100.249C217.181 99.6358 218.45 98.4773 219.005 96.9862C219.468 95.7475 219.422 94.3883 219.377 93.0693C219.365 92.6965 219.342 92.3008 219.159 91.9739C219.016 91.7273 218.793 91.538 218.559 91.3717C215.516 89.2097 209.86 88.9 207.218 91.6126C204.61 94.2908 205.182 98.3168 208.762 100.077V100.083Z" fill="#FAC39A"/>
<path d="M203.364 87.7128C203.266 91.5495 203.815 95.3862 204.81 99.0852C205.76 102.618 207.687 111.41 213.029 110.022C216.86 109.03 218.765 102.985 219.634 99.653C220.818 95.1281 220.944 90.3566 220.383 85.7285" stroke="#EFA335" stroke-miterlimit="10"/>
</g>
<path d="M208.476 144.925C209.774 145.298 211.456 145.498 212.216 144.5C212.382 144.282 212.468 144.019 212.548 143.755C212.634 143.474 212.72 143.193 212.811 142.918C212.88 142.688 212.954 142.459 212.937 142.218C212.828 140.819 209.866 140.698 208.922 140.721C207.841 140.75 206.543 140.922 205.72 141.702C204.341 142.998 206.114 144.019 207.35 144.529C207.653 144.655 208.047 144.799 208.488 144.925H208.476Z" fill="#604E40"/>
<path d="M220.772 140.858C220.034 140.514 219.302 140.136 218.708 139.579C217.581 138.524 218.004 137.136 219.537 136.918C221.069 136.7 223.214 137.561 224.672 137.996C224.449 137.366 224.364 136.683 224.432 136.012C224.455 135.777 224.507 135.525 224.69 135.376C224.993 135.123 225.484 135.324 225.707 135.651C225.931 135.978 225.988 136.391 226.136 136.758C226.417 137.48 227.057 138.054 227.801 138.254C228.058 138.323 228.338 138.352 228.573 138.484C228.761 138.587 228.916 138.753 229.047 138.925C229.516 139.51 229.871 140.181 230.077 140.904C230.151 141.156 230.203 141.449 230.06 141.672C229.871 141.965 229.453 141.976 229.105 141.959C228.298 141.913 227.446 141.781 226.645 141.839C226.154 141.873 225.713 142.085 225.233 142.126C223.757 142.263 222.076 141.466 220.772 140.864V140.858Z" fill="#FAC39A"/>
<path d="M216.386 151.588C217.73 151.508 219.382 151.141 219.771 149.948C219.857 149.69 219.846 149.409 219.84 149.14C219.829 148.847 219.817 148.555 219.806 148.262C219.8 148.027 219.788 147.78 219.691 147.563C219.131 146.278 216.294 147.15 215.408 147.488C214.396 147.872 213.229 148.469 212.708 149.478C211.839 151.158 213.847 151.531 215.179 151.6C215.505 151.617 215.922 151.623 216.38 151.6L216.386 151.588Z" fill="#604E40"/>
<path d="M114.223 123.379C114.778 123.946 115.51 124.308 116.184 124.767C119.221 126.814 122.292 128.815 125.523 130.547C127.068 131.373 136.332 136.569 136.732 133.191C136.801 132.595 136.527 132.004 136.132 131.557C135.737 131.109 135.228 130.783 134.731 130.45C132.632 129.051 130.465 127.571 128.732 125.724C127.016 123.895 125.289 122.083 123.385 120.448C122.836 119.978 121.88 119.301 121.652 118.579C121.372 117.701 121.772 116.313 121.949 115.436C122.401 113.176 123.219 111.008 123.848 108.8C123.928 108.525 124.002 108.238 123.945 107.963C123.888 107.671 123.699 107.43 123.499 107.212C122.641 106.277 121.623 105.91 120.542 105.371C119.724 104.97 118.615 103.972 117.62 104.281C116.745 104.551 116.024 106.472 115.71 107.229C114.646 109.77 114.629 112.218 114.137 114.857C113.88 116.227 113.725 117.609 113.542 118.986C113.382 120.202 113.108 121.498 113.691 122.65C113.834 122.937 114.017 123.178 114.223 123.39V123.379Z" fill="#FAC39A"/>
<path d="M213.938 138.599C214.973 138.783 215.905 138.634 216.929 138.674C218.158 138.726 219.239 139.173 220.429 138.542C222.104 137.653 222.865 135.302 221.521 133.793C220.2 132.302 217.907 131.895 216.06 131.482C212.645 130.72 209.031 129.79 206.194 127.64C203.158 125.34 201.762 121.75 200.95 118.143C199.578 112.064 200.584 104.35 201.379 98.168C197.57 99.5616 194.448 103.306 192.795 106.897C190.65 111.548 190.067 117.047 191.428 122.008C192.601 126.286 195.552 130.226 198.983 132.956C200.464 134.138 202.117 135.164 203.85 135.944C207.029 137.384 210.506 137.997 213.949 138.594L213.938 138.599Z" fill="#4F2053"/>
<path d="M215.556 144.478C215.002 140.773 215.859 136.81 218.759 134.275C218.948 134.109 219.154 133.948 219.399 133.914C219.657 133.88 219.908 133.983 220.143 134.086C221.904 134.872 223.631 135.738 225.313 136.69C223.18 137.969 220.886 139.431 220.08 141.788C219.72 142.832 219.708 143.933 219.708 145.023C219.708 145.642 220.183 147.253 219.571 147.615C219.274 147.787 218.913 147.781 218.57 147.758C218.273 147.741 217.975 147.712 217.684 147.684C217.369 147.649 217.043 147.603 216.769 147.454C216.357 147.231 216.088 146.806 215.962 146.353C215.785 145.739 215.648 145.114 215.556 144.478Z" fill="#567991"/>
<path d="M120.851 92.9315C120.588 93.2412 120.342 93.5566 120.114 93.8892C118.695 95.8964 117.757 98.1962 116.837 100.473C116.185 102.084 115.533 103.696 114.881 105.313C114.726 105.703 114.126 107.389 114.126 107.389L124.048 110.515C124.048 110.515 126.856 103.386 126.908 100.146C126.931 98.7123 126.765 97.29 126.605 95.8678C126.364 93.763 126.124 91.6583 125.878 89.5479C123.894 90.0697 122.19 91.3544 120.857 92.9372L120.851 92.9315Z" fill="#C7A4D7"/>
<path d="M235.481 142.247C238.043 141.335 239.822 138.955 240.937 136.466C242.109 133.851 242.59 130.903 242.527 128.047C242.315 118.917 237.386 111.691 231.975 104.74C230.123 102.36 228.201 99.9228 225.582 98.4317C225.404 98.3342 225.21 98.2367 225.016 98.2768C224.838 98.317 224.707 98.4661 224.592 98.6095C222.951 100.628 222.379 103.123 222.425 105.715C222.471 108.112 222.842 110.527 223.786 112.735C224.935 115.413 226.863 117.638 228.767 119.8C230.637 121.916 232.776 123.803 233.806 126.516C234.583 128.569 234.652 130.966 233.623 132.904C232.902 134.252 231.672 135.319 230.237 135.841C229.705 136.03 229.145 136.15 228.647 136.42C228.15 136.69 227.709 137.154 227.669 137.722C227.646 138.037 227.749 138.347 227.846 138.645C228.161 139.574 228.504 140.515 229.099 141.295C230.546 143.199 233.445 142.969 235.487 142.241L235.481 142.247Z" fill="#4F2053"/>
<path d="M210.043 137.939C210.741 134.257 212.862 130.805 216.437 129.377C216.666 129.285 216.917 129.199 217.163 129.245C217.415 129.297 217.621 129.48 217.809 129.658C219.216 130.983 220.554 132.376 221.83 133.833C219.394 134.332 216.751 134.951 215.207 136.907C214.527 137.773 214.149 138.811 213.789 139.838C213.583 140.423 213.503 142.103 212.805 142.235C212.468 142.304 212.13 142.172 211.81 142.04C211.536 141.925 211.267 141.805 210.998 141.673C210.712 141.535 210.421 141.386 210.209 141.151C209.894 140.807 209.786 140.314 209.809 139.843C209.843 139.207 209.923 138.57 210.043 137.934V137.939Z" fill="#567991"/>
<path d="M140.307 134.929C141.788 134.843 143.464 134.573 144.779 133.845C145.843 133.254 146.58 132.142 146.826 130.96C144.928 131.282 143.109 131.264 141.188 131.253C140.421 131.247 139.643 131.241 138.894 131.058C139.798 130.679 140.661 130.203 141.468 129.641C141.748 129.446 142.051 129.171 142.011 128.833C141.982 128.563 141.725 128.357 141.456 128.305C141.188 128.253 140.913 128.328 140.656 128.414C139.683 128.752 138.82 129.337 137.888 129.779C136.853 130.272 135.366 130.639 134.25 130.186C133.942 130.06 133.45 130.037 133.175 130.255C133.004 130.393 132.889 130.593 132.798 130.794C132.472 131.517 132.34 132.325 132.438 133.111C132.449 133.186 132.46 133.266 132.489 133.335C132.535 133.426 132.609 133.489 132.689 133.553C134.799 135.262 137.768 135.09 140.313 134.935L140.307 134.929Z" fill="#FAC39A"/>
<path d="M234.812 121.056C232.811 118.12 229.436 116.302 225.988 116.485C223.231 116.634 221.842 119.685 220.664 121.87C219.4 124.205 218.153 126.762 215.808 128.185C213.092 129.831 218.405 134.516 219.88 135.405C221.859 136.592 224.101 137.275 226.36 137.739C227.24 137.917 227.372 137.968 227.909 137.303C228.573 136.489 229.356 136.409 230.391 136.042C232.811 135.176 233.325 133.117 234.618 131.264C235.258 130.347 235.55 128.838 235.773 127.76C236.236 125.483 236.128 123.04 234.812 121.056Z" fill="#FACE48"/>
<path d="M227.515 117.626C227.435 118.412 228.058 118.934 228.75 119.18C229.511 119.456 230.397 119.656 231.203 119.691C231.535 119.708 231.884 119.691 232.181 119.536C232.708 119.272 232.69 118.785 232.77 118.286C232.879 117.632 233.051 116.99 233.199 116.342C233.497 115.046 233.806 113.755 234.097 112.465L228.967 111.295C228.79 112.069 228.619 112.838 228.441 113.612C228.201 114.661 227.846 115.682 227.669 116.743C227.618 117.059 227.538 117.351 227.515 117.621V117.626Z" fill="#FAC39A"/>
<path d="M73.8644 134.631C74.0131 136.552 74.625 138.41 75.4657 140.131C75.8546 140.934 76.192 141.53 76.4265 142.367C76.6266 143.084 76.8096 143.933 77.3815 144.472C77.4959 144.581 77.6846 144.495 77.8104 144.397C78.6854 143.744 79.2688 142.757 79.5719 141.708C79.875 140.658 79.9093 139.551 79.8292 138.462C79.7034 136.673 78.9485 135.302 77.7533 134C77.1585 133.358 76.4951 132.715 75.6487 132.492C75.3113 132.406 74.9338 132.389 74.6193 132.543C73.9102 132.882 73.7958 133.839 73.8587 134.619L73.8644 134.631Z" fill="#604E40"/>
<path d="M68.8948 156.176C74.5547 156.176 79.1431 150.82 79.1431 144.213C79.1431 137.606 74.5547 132.25 68.8948 132.25C63.2348 132.25 58.6465 137.606 58.6465 144.213C58.6465 150.82 63.2348 156.176 68.8948 156.176Z" fill="#FAC39A"/>
<path d="M72.3662 136.448C73.5729 136.488 74.7796 136.431 75.9748 136.167C77.0214 135.938 78.0393 135.336 78.5026 134.366C78.7142 133.925 78.8 133.432 78.8114 132.944C78.8686 130.725 77.3759 128.677 75.4487 127.582C73.1325 126.263 69.7812 125.902 67.162 126.079C62.0779 126.418 57.0567 130.788 55.8328 135.708C55.3639 137.601 55.301 139.574 55.3238 141.529C55.3467 143.261 55.2838 144.62 56.1531 146.169C56.9594 147.603 58.1318 148.83 59.5387 149.679C60.4423 147.092 60.9055 144.351 60.9055 141.615C60.9055 140.508 60.8426 139.356 61.2772 138.335C61.9235 136.821 63.8107 135.898 65.4006 135.915C67.711 135.938 70.0443 136.379 72.3605 136.454L72.3662 136.448Z" fill="#604E40"/>
<path d="M54.9464 144.793C54.1057 145.43 53.9799 146.955 54.2773 148.079C54.752 149.891 55.5698 150.769 57.4856 150.918C58.6808 151.01 60.2535 151.015 60.3908 149.53C60.591 147.385 58.5036 145.114 56.5248 144.587C55.8386 144.403 55.3181 144.512 54.9407 144.793H54.9464Z" fill="#FAC39A"/>
<path d="M223.328 100.709C225.181 100.135 227.377 98.2312 227.846 96.9809C228.418 95.4612 228.355 93.7636 227.972 92.1865C227.841 91.6417 227.663 91.0911 227.32 90.6496C226.348 89.4108 223.832 89.5542 222.671 90.4488C222.35 90.6954 222.082 91.0051 221.853 91.3435C220.383 93.4884 220.475 96.3042 220.623 98.9021C220.732 100.829 221.933 101.15 223.328 100.714V100.709Z" fill="#5E3628"/>
<path d="M223.105 94.8123C223.174 95.2138 223.38 95.5751 223.763 95.8618C224.89 96.6991 227.028 95.0016 227.612 93.9922C228.189 92.9944 228.704 90.9929 227.109 90.6602C225.433 90.3104 222.791 92.9657 223.105 94.8123Z" fill="#EFDAEE"/>
<path d="M222.391 96.872C221.184 98.9939 220.721 101.615 221.51 103.92C222.385 99.9287 225.479 96.8089 228.779 94.4117C229.122 94.1651 229.493 93.8841 229.591 93.4711C229.808 92.5708 228.796 92.0775 228.081 91.9858C227.234 91.8768 226.748 92.3069 226.091 92.8059C224.621 93.9185 223.311 95.2604 222.391 96.8662V96.872Z" fill="#5E3628"/>
<path d="M241.368 106.367C242.831 99.9245 239.544 93.6804 234.025 92.4201C228.506 91.1597 222.847 95.3603 221.383 101.802C219.92 108.244 223.208 114.489 228.727 115.749C234.245 117.009 239.905 112.809 241.368 106.367Z" fill="#FAC39A"/>
<path d="M245.357 101.391C245.523 103.662 245.146 106.013 244.357 108.147C243.939 109.271 243.396 110.36 242.67 111.318C241.92 112.31 241.12 113.274 239.799 112.563C239.696 112.505 239.593 112.436 239.518 112.345C239.038 111.72 239.747 110.383 240.027 109.793C240.468 108.846 240.588 107.785 240.611 106.753C240.639 105.394 240.508 104.017 240.765 102.687C239.679 102.486 238.54 102.28 237.563 101.746C236.51 101.179 236.053 100.055 235.818 98.9306C234.068 99.8711 231.809 99.4525 230.225 98.2596C230.094 98.1621 229.968 98.0589 229.848 97.9557C228.481 96.7685 227.606 95.0652 227.074 93.3218C226.96 92.9433 226.862 92.5419 226.971 92.1634C227.108 91.7103 227.52 91.4006 227.926 91.1655C231.157 89.3016 235.344 89.0149 238.769 90.6035C242.893 92.5132 245.026 97.0037 245.346 101.385L245.357 101.391Z" fill="#5E3628"/>
<path d="M243.911 120.913C244.603 120.758 244.843 119.892 244.871 119.175C244.9 118.464 244.906 117.632 245.472 117.202C245.792 117.317 245.924 117.707 245.964 118.051C246.004 118.395 246.021 118.768 246.25 119.026C246.301 119.083 246.364 119.129 246.438 119.141C246.536 119.152 246.627 119.095 246.713 119.043C247.422 118.579 248.125 118.108 248.835 117.644C249.138 117.443 249.59 117.265 249.807 117.552C250.116 117.953 249.498 118.619 249.161 118.762C248.926 118.86 248.657 118.986 248.6 119.238C248.594 119.267 248.594 119.295 248.6 119.324C248.629 119.376 248.703 119.376 248.76 119.364C249.361 119.267 249.921 119.037 250.51 118.882C250.71 118.831 250.916 118.774 251.122 118.796C251.328 118.819 251.54 118.94 251.608 119.135C251.511 119.485 251.139 119.674 250.802 119.806C250.293 120.007 249.767 120.167 249.235 120.299C249.109 120.328 248.949 120.397 248.96 120.528C249.469 120.643 249.818 120.706 250.339 120.718C250.71 120.723 251.116 120.855 251.311 121.176C251.254 121.446 250.928 121.549 250.653 121.589C250.121 121.658 249.584 121.624 249.052 121.641C248.943 121.641 248.829 121.647 248.732 121.698C248.634 121.75 248.56 121.865 248.594 121.974C248.617 122.042 248.674 122.088 248.732 122.134C249.075 122.404 249.424 122.673 249.767 122.943C249.841 123 249.915 123.063 249.95 123.149C250.133 123.631 249.441 123.522 249.235 123.413C248.932 123.253 248.646 123.029 248.337 122.857C247.21 122.232 245.821 122.484 244.557 122.754" fill="#FAC39A"/>
<path d="M232.158 119.806C232.461 119.094 233.451 119.089 234.211 119.215C235.973 119.502 237.734 119.84 239.518 119.926C240.92 119.995 243.253 120.098 244.397 119.18C245.701 120.293 245.924 122.897 244.654 124.141C244.351 124.439 243.956 124.634 243.55 124.778C241.674 125.432 239.444 125.191 237.488 125.271C236.831 125.3 236.27 125.271 235.693 125.586C235.355 125.77 233.462 126.665 233.605 127.169C233.365 126.349 233.239 125.495 233.233 124.64C233.233 124.078 233.273 123.499 233.062 122.983C232.713 122.122 231.752 120.769 232.153 119.811L232.158 119.806Z" fill="#FACE48"/>
<path d="M243.808 108.944C244.488 109.752 244.271 111.266 243.734 112.299C242.87 113.962 241.881 114.639 239.976 114.352C238.792 114.174 237.26 113.83 237.448 112.35C237.729 110.217 240.268 108.462 242.31 108.393C243.024 108.37 243.505 108.588 243.808 108.95V108.944Z" fill="#FAC39A"/>
<path d="M213.646 117.449C212.972 117.231 212.811 116.342 212.851 115.631C212.886 114.92 212.96 114.088 212.434 113.606C212.102 113.692 211.936 114.065 211.868 114.403C211.793 114.742 211.748 115.115 211.496 115.35C211.439 115.401 211.376 115.447 211.302 115.447C211.204 115.447 211.119 115.384 211.039 115.327C210.375 114.799 209.712 114.271 209.054 113.738C208.774 113.514 208.339 113.297 208.093 113.56C207.744 113.933 208.305 114.656 208.625 114.828C208.848 114.948 209.106 115.097 209.14 115.35C209.14 115.378 209.14 115.407 209.128 115.43C209.094 115.482 209.02 115.47 208.963 115.459C208.374 115.304 207.836 115.028 207.264 114.816C207.07 114.742 206.87 114.673 206.664 114.679C206.458 114.679 206.235 114.782 206.149 114.971C206.212 115.332 206.566 115.55 206.892 115.717C207.384 115.963 207.887 116.175 208.408 116.348C208.534 116.388 208.682 116.474 208.66 116.6C208.145 116.669 207.79 116.703 207.27 116.663C206.898 116.634 206.481 116.726 206.258 117.03C206.292 117.305 206.606 117.437 206.875 117.5C207.396 117.615 207.933 117.632 208.465 117.695C208.574 117.707 208.688 117.724 208.78 117.781C208.871 117.844 208.934 117.965 208.888 118.068C208.86 118.131 208.797 118.177 208.74 118.211C208.374 118.447 208.002 118.682 207.636 118.923C207.556 118.974 207.476 119.026 207.436 119.112C207.213 119.576 207.91 119.53 208.128 119.439C208.442 119.307 208.751 119.106 209.071 118.968C210.249 118.447 211.61 118.831 212.846 119.215" fill="#FAC39A"/>
<path d="M251.746 95.9942C253.736 96.843 255.04 98.856 255.583 100.949C256.126 103.048 256.023 105.25 255.92 107.413C255.898 107.854 255.875 108.313 255.663 108.703C255.16 109.632 253.896 109.752 252.844 109.752C251.254 109.752 249.647 109.758 248.091 109.403C247.943 109.368 247.788 109.328 247.674 109.225C247.496 109.058 247.479 108.789 247.468 108.548C247.411 106.42 247.474 104.258 247.073 102.159C246.804 100.749 245.329 97.9326 246.387 96.6251C247.474 95.2888 250.367 95.3978 251.751 95.9885L251.746 95.9942Z" fill="#5E3628"/>
<path d="M244.111 100.651C244.26 101.7 244.425 103.014 245.718 102.979C246.85 102.95 247.565 101.809 247.617 100.777C247.68 99.5095 247.291 97.6112 245.935 97.1524C245.409 96.9747 244.791 97.0836 244.357 97.4335C243.276 98.3109 243.951 99.5439 244.105 100.645L244.111 100.651Z" fill="#EFDAEE"/>
<path d="M225.45 117.42C225.215 116.68 224.226 116.588 223.46 116.64C221.681 116.766 219.897 116.938 218.113 116.858C216.711 116.795 214.378 116.686 213.326 115.665C211.925 116.651 211.461 119.226 212.611 120.586C212.885 120.913 213.263 121.142 213.652 121.32C214.967 121.916 216.454 121.945 217.901 121.968C219.085 121.985 220.28 122.002 221.435 121.767C222.356 121.578 223.288 121.165 223.986 120.459C224.592 119.846 225.736 118.326 225.45 117.42Z" fill="#FACE48"/>
<path d="M142.263 64.6185C142.503 64.2687 142.875 64.0737 143.253 63.959C143.63 63.85 144.03 63.8328 144.408 63.8959C144.785 63.9532 145.151 64.0909 145.477 64.3031C145.797 64.5153 146.095 64.7963 146.249 65.192C145.832 65.2034 145.494 65.1748 145.163 65.1518C144.837 65.1232 144.528 65.083 144.225 65.0314C143.922 64.9798 143.619 64.9224 143.304 64.8594C142.989 64.7905 142.669 64.7217 142.263 64.6242V64.6185Z" fill="#AF735F"/>
<path d="M147.764 71.6611C147.782 72.4239 146.758 73.0604 145.488 73.0891C144.213 73.112 143.172 72.5156 143.155 71.7529C143.138 70.9901 144.162 70.3535 145.431 70.3249C146.706 70.3019 147.747 70.8984 147.764 71.6611Z" fill="#FF9CB0"/>
<path d="M142.612 67.9277C142.635 68.788 143.086 69.4819 143.63 69.4762C144.173 69.4704 144.596 68.765 144.573 67.8991C144.55 67.0388 144.099 66.3449 143.555 66.3506C143.012 66.3564 142.589 67.0618 142.612 67.9277Z" fill="#3D2217"/>
<path d="M132.935 64.7274C132.535 64.8421 132.215 64.9224 131.9 65.0026C131.591 65.0772 131.288 65.1518 130.985 65.2091C130.682 65.2722 130.373 65.3238 130.053 65.3639C129.721 65.4041 129.39 65.4385 128.972 65.4442C129.115 65.0428 129.401 64.756 129.71 64.5266C130.024 64.303 130.385 64.1539 130.762 64.0793C131.14 64.0048 131.534 64.0048 131.917 64.0965C132.295 64.194 132.672 64.3775 132.93 64.7159L132.935 64.7274Z" fill="#AF735F"/>
<path d="M127.714 71.9765C127.731 72.7392 128.772 73.3357 130.047 73.3127C131.323 73.2898 132.341 72.6475 132.324 71.8847C132.306 71.122 131.266 70.5256 129.99 70.5485C128.715 70.5714 127.697 71.2137 127.714 71.9765Z" fill="#FF9CB0"/>
<path d="M132.695 67.9791C132.718 68.8394 132.295 69.5448 131.752 69.5562C131.208 69.562 130.757 68.8738 130.734 68.0078C130.711 67.1476 131.134 66.4422 131.677 66.4307C132.221 66.425 132.673 67.1132 132.695 67.9791Z" fill="#3D2217"/>
<path d="M139.095 72.8935C139.095 73.2434 138.494 73.5244 137.757 73.5244C137.019 73.5244 136.418 73.2434 136.418 72.8935C136.418 72.5437 137.019 72.2627 137.757 72.2627C138.494 72.2627 139.095 72.5437 139.095 72.8935Z" fill="#E59A7F"/>
<path d="M138.609 79.4892C136.27 79.7129 134.096 78.3193 133.565 75.9737C133.553 75.9278 133.547 75.8877 133.536 75.8418C133.524 75.7959 133.519 75.75 133.507 75.7041C133.507 75.7041 135.046 76.3809 138.197 76.3235C141.337 76.2604 142.663 75.5321 142.675 75.5264C142.646 75.5436 142.623 75.8074 142.618 75.8418C142.429 76.6963 142.143 77.4648 141.537 78.1128C140.776 78.9329 139.718 79.386 138.614 79.4949L138.609 79.4892Z" fill="#820B0B"/>
<mask id="mask3_834_264703" style="mask-type:luminance" maskUnits="userSpaceOnUse" x="133" y="75" width="10" height="5">
<path d="M138.609 79.4892C136.27 79.7129 134.096 78.3193 133.565 75.9737C133.553 75.9278 133.547 75.8877 133.536 75.8418C133.524 75.7959 133.519 75.75 133.507 75.7041C133.507 75.7041 135.046 76.3809 138.197 76.3235C141.337 76.2604 142.663 75.5321 142.675 75.5264C142.646 75.5436 142.623 75.8074 142.618 75.8418C142.429 76.6963 142.143 77.4648 141.537 78.1128C140.776 78.9329 139.718 79.386 138.614 79.4949L138.609 79.4892Z" fill="white"/>
</mask>
<g mask="url(#mask3_834_264703)">
<path d="M140.902 76.7306C140.067 77.0575 139.066 77.1263 138.174 77.1492C137.367 77.1722 136.555 77.1034 135.76 76.9485C135.16 76.8338 134.434 76.6159 134.348 75.8933C134.296 75.4861 134.531 75.1535 134.954 75.1477L141.211 75.0216C141.571 75.0158 141.874 75.3026 141.88 75.6639C141.891 76.1972 141.416 76.5299 140.902 76.7306Z" fill="#FCFFFF"/>
<path d="M140.21 80.5955L136.166 80.6758C135.635 80.6873 135.188 80.2629 135.183 79.7238C135.177 79.3453 135.411 79.0471 135.732 78.8693C136.103 78.6628 136.544 78.5711 136.956 78.4908C137.905 78.3072 138.854 78.3474 139.798 78.5481C140.37 78.6686 141.142 78.8865 141.153 79.6033C141.165 80.1367 140.741 80.584 140.204 80.5898L140.21 80.5955Z" fill="#F799AB"/>
</g>
<path d="M215.213 73.2268C215.493 72.9056 215.882 72.7508 216.266 72.682C216.654 72.6189 217.049 72.6476 217.421 72.745C217.792 72.8483 218.141 73.0261 218.439 73.2669C218.736 73.5135 218.993 73.8232 219.108 74.2361C218.69 74.2017 218.359 74.1386 218.033 74.0756C217.712 74.0067 217.409 73.9379 217.112 73.8519C216.815 73.7716 216.523 73.6798 216.22 73.5766C215.911 73.4734 215.602 73.3702 215.208 73.2268H215.213Z" fill="#AF735F"/>
<path d="M219.891 80.8425C219.823 81.5996 218.736 82.1214 217.466 82.001C216.197 81.8806 215.225 81.1752 215.299 80.4124C215.368 79.6554 216.454 79.1335 217.724 79.2482C218.993 79.3687 219.966 80.0741 219.891 80.8368V80.8425Z" fill="#FF9CB0"/>
<path d="M215.196 76.5532C215.122 77.4134 215.499 78.1532 216.037 78.2048C216.574 78.2564 217.072 77.6027 217.152 76.7424C217.232 75.8822 216.849 75.1424 216.311 75.0907C215.773 75.0391 215.276 75.6929 215.196 76.5532Z" fill="#3D2217"/>
<path d="M205.932 72.2917C205.52 72.3605 205.194 72.4064 204.874 72.4523C204.553 72.4924 204.25 72.5326 203.941 72.5555C203.633 72.5842 203.324 72.6014 202.998 72.6071C202.666 72.6071 202.329 72.6071 201.911 72.567C202.1 72.1885 202.414 71.9304 202.746 71.7412C203.084 71.5576 203.461 71.4487 203.844 71.4143C204.227 71.3799 204.622 71.4257 204.994 71.5634C205.36 71.7068 205.714 71.9247 205.932 72.2917Z" fill="#AF735F"/>
<path d="M200.647 78.9788C200.578 79.7358 201.391 80.4355 202.46 80.5329C203.535 80.6304 204.462 80.0971 204.53 79.3401C204.599 78.5831 203.787 77.8834 202.717 77.7859C201.642 77.6884 200.716 78.2218 200.647 78.9788Z" fill="#FF9CB0"/>
<path d="M205.331 75.4973C205.257 76.3575 204.759 77.0113 204.216 76.9597C203.678 76.9081 203.301 76.1683 203.375 75.308C203.449 74.4478 203.947 73.794 204.49 73.8456C205.028 73.8972 205.405 74.6371 205.331 75.4973Z" fill="#3D2217"/>
<path d="M211.141 81.1008C211.101 81.4449 210.472 81.657 209.74 81.5768C209.002 81.4965 208.442 81.1466 208.476 80.8025C208.516 80.4584 209.145 80.2463 209.877 80.3265C210.615 80.4068 211.175 80.7567 211.141 81.1008Z" fill="#E59A7F"/>
<path d="M209.929 87.5927C207.578 87.5526 205.571 85.9238 205.308 83.5381C205.308 83.4922 205.297 83.4463 205.297 83.4062C205.297 83.3603 205.291 83.3144 205.285 83.2686C205.285 83.2686 206.738 84.1173 209.877 84.4041C213.006 84.6966 214.407 84.1173 214.413 84.1116C214.384 84.1231 214.332 84.3869 214.321 84.4155C214.035 85.2471 213.669 85.9697 212.994 86.5489C212.148 87.2773 211.044 87.6099 209.935 87.5927H209.929Z" fill="#820B0B"/>
<mask id="mask4_834_264703" style="mask-type:luminance" maskUnits="userSpaceOnUse" x="205" y="83" width="10" height="5">
<path d="M209.929 87.5927C207.578 87.5526 205.571 85.9238 205.308 83.5381C205.308 83.4922 205.297 83.4463 205.297 83.4062C205.297 83.3603 205.291 83.3144 205.285 83.2686C205.285 83.2686 206.738 84.1173 209.877 84.4041C213.006 84.6966 214.407 84.1173 214.413 84.1116C214.384 84.1231 214.332 84.3869 214.321 84.4155C214.035 85.2471 213.669 85.9697 212.994 86.5489C212.148 87.2773 211.044 87.6099 209.935 87.5927H209.929Z" fill="white"/>
</mask>
<g mask="url(#mask4_834_264703)">
<path d="M212.508 85.1092C211.639 85.3386 210.638 85.2985 209.752 85.2182C208.945 85.1493 208.145 84.9888 207.373 84.7479C206.789 84.5644 206.092 84.2662 206.086 83.5436C206.086 83.1306 206.349 82.8267 206.772 82.8668L213.006 83.4461C213.366 83.4805 213.629 83.8016 213.601 84.1629C213.549 84.6906 213.04 84.9716 212.508 85.1092Z" fill="#FCFFFF"/>
<path d="M211.393 88.877L207.367 88.5042C206.835 88.4526 206.446 87.9823 206.492 87.449C206.526 87.0705 206.795 86.8009 207.132 86.6633C207.527 86.497 207.973 86.4569 208.391 86.4282C209.357 86.3536 210.295 86.5027 211.21 86.801C211.765 86.9845 212.508 87.2884 212.44 88.0053C212.388 88.5386 211.919 88.9286 211.387 88.8827L211.393 88.877Z" fill="#F799AB"/>
</g>
<path d="M207.864 75.9676C207.584 78.3877 205.394 80.1197 202.98 79.8387C200.567 79.5576 198.84 77.3612 199.12 74.941C199.4 72.5209 201.591 70.7889 204.004 71.0699C206.417 71.3509 208.145 73.5474 207.864 75.9676Z" stroke="#3D2217" stroke-miterlimit="10"/>
<path d="M220.343 77.4305C220.063 79.8506 217.872 81.5826 215.459 81.3016C213.046 81.0205 211.318 78.8241 211.599 76.4039C211.879 73.9838 214.069 72.2518 216.483 72.5328C218.896 72.8138 220.623 75.0103 220.343 77.4305Z" stroke="#3D2217" stroke-miterlimit="10"/>
<path d="M207.887 75.7212C209.077 75.0617 210.838 75.2452 211.685 76.1284" stroke="#3D2217" stroke-miterlimit="10"/>
<path d="M220.343 77.4297L223.826 78.2096" stroke="#3D2217" stroke-miterlimit="10"/>
<path d="M227.023 77.9691C227.921 78.7204 228.321 79.9133 228.058 81.0602C227.778 82.2933 226.628 83.2911 225.576 83.8933C224.312 84.6216 220.841 85.069 220.635 82.9814C220.515 81.7542 221.624 80.1025 222.391 79.2193C223.529 77.9003 225.41 76.6214 227.029 77.9691H227.023Z" fill="#FAC39A"/>
<path d="M175.381 48.6467C175.644 48.3141 176.027 48.142 176.411 48.0503C176.794 47.9643 177.194 47.9757 177.566 48.0618C177.943 48.1478 178.298 48.3084 178.607 48.5378C178.91 48.7729 179.19 49.0711 179.322 49.4725C178.904 49.4553 178.572 49.4095 178.241 49.3636C177.915 49.312 177.612 49.2546 177.308 49.1858C177.005 49.117 176.708 49.0367 176.399 48.9564C176.085 48.8646 175.77 48.7786 175.375 48.6524L175.381 48.6467Z" fill="#343A4A"/>
<path d="M180.408 56.0333C180.374 56.796 179.316 57.3638 178.041 57.3064C176.771 57.2491 175.764 56.5838 175.799 55.8211C175.833 55.0583 176.891 54.4906 178.166 54.5479C179.442 54.6053 180.442 55.2705 180.408 56.0333Z" fill="#FF9CB0"/>
<path d="M175.518 51.973C175.484 52.8333 175.89 53.5559 176.433 53.5846C176.976 53.6132 177.44 52.9365 177.48 52.0763C177.514 51.216 177.108 50.4934 176.565 50.4647C176.021 50.4361 175.558 51.1128 175.518 51.973Z" fill="#3D2217"/>
<path d="M166.071 48.1364C165.659 48.2281 165.339 48.2855 165.024 48.3428C164.71 48.4002 164.406 48.4518 164.098 48.4919C163.789 48.5321 163.48 48.5665 163.154 48.5837C162.822 48.6009 162.491 48.6181 162.067 48.5952C162.239 48.2052 162.536 47.9357 162.862 47.7292C163.194 47.5285 163.56 47.4023 163.943 47.3507C164.326 47.2991 164.721 47.3277 165.098 47.4482C165.47 47.5744 165.836 47.7808 166.065 48.1364H166.071Z" fill="#343A4A"/>
<path d="M161.095 55.0641C161.061 55.8268 161.902 56.4806 162.982 56.5322C164.058 56.5838 164.961 56.0046 164.996 55.2419C165.03 54.4791 164.189 53.8253 163.108 53.7737C162.033 53.7221 161.13 54.3013 161.095 55.0641Z" fill="#FF9CB0"/>
<path d="M165.619 51.3712C165.585 52.2314 165.116 52.9082 164.572 52.8795C164.029 52.8508 163.623 52.1282 163.657 51.268C163.692 50.4077 164.161 49.731 164.704 49.7597C165.247 49.7883 165.653 50.5109 165.619 51.3712Z" fill="#3D2217"/>
<path d="M171.681 56.699C171.658 57.0431 171.04 57.284 170.303 57.2381C169.565 57.1922 168.982 56.8711 169.005 56.5212C169.027 56.1772 169.645 55.9363 170.383 55.9822C171.121 56.028 171.704 56.3492 171.681 56.699Z" fill="#E59A7F"/>
<path d="M170.766 63.242C168.415 63.3108 166.339 61.7796 165.962 59.4053C165.956 59.3594 165.951 59.3193 165.945 59.2734C165.939 59.2275 165.933 59.1816 165.928 59.1357C165.928 59.1357 167.42 59.9157 170.566 60.0591C173.705 60.2024 175.078 59.5601 175.084 59.5601C175.055 59.5716 175.015 59.8354 175.004 59.8698C174.758 60.7129 174.42 61.4527 173.774 62.0663C172.962 62.8348 171.875 63.219 170.766 63.2477V63.242Z" fill="white"/>
<path d="M91.3127 69.3954C90.7751 69.533 90.3005 69.6248 89.8201 69.7223C89.3454 69.814 88.8765 69.9001 88.4075 69.9746C87.9386 70.0549 87.4639 70.118 86.9835 70.1811C86.4974 70.2384 86.0113 70.2958 85.4565 70.313C85.794 69.8657 86.2458 69.5617 86.7204 69.3208C87.1951 69.0857 87.7041 68.9309 88.2245 68.8448C88.7449 68.7588 89.2768 68.7473 89.8086 68.8219C90.3348 68.9079 90.8609 69.0628 91.3127 69.3954Z" fill="#56575B"/>
<path d="M84.9135 76.8458C84.9478 77.6085 86.0058 78.1763 87.2811 78.1189C88.5507 78.0616 89.5572 77.3963 89.5229 76.6336C89.4886 75.8708 88.4306 75.3031 87.1553 75.3604C85.8799 75.4178 84.8791 76.083 84.9135 76.8458Z" fill="#FF9CB0"/>
<path d="M89.8088 72.7797C89.8431 73.6399 89.4371 74.3625 88.8938 74.3912C88.3505 74.4199 87.8873 73.7431 87.8472 72.8829C87.8129 72.0227 88.219 71.3001 88.7623 71.2714C89.3056 71.2427 89.7688 71.9194 89.8088 72.7797Z" fill="#3D2217"/>
<path d="M98.284 68.9942C98.6157 68.6271 99.0504 68.4264 99.4964 68.2945C99.9425 68.1741 100.406 68.1397 100.858 68.1855C101.309 68.2257 101.755 68.3461 102.173 68.5411C102.585 68.7418 102.979 69.0056 103.254 69.4128C102.768 69.4415 102.356 69.43 101.944 69.4128C101.538 69.3956 101.143 69.3669 100.749 69.3268C100.354 69.2924 99.9654 69.2465 99.5651 69.1949C99.159 69.1375 98.7587 69.0859 98.2783 68.9942H98.284Z" fill="#56575B"/>
<path d="M104.226 75.8766C104.26 76.6393 103.42 77.2931 102.339 77.3447C101.264 77.3963 100.36 76.8171 100.326 76.0544C100.291 75.2916 101.132 74.6378 102.213 74.5862C103.288 74.5346 104.192 75.1138 104.226 75.8766Z" fill="#FF9CB0"/>
<path d="M99.7081 72.1769C99.7424 73.0371 100.211 73.7138 100.755 73.6851C101.298 73.6565 101.704 72.9339 101.67 72.0736C101.635 71.2134 101.166 70.5367 100.623 70.5653C100.08 70.594 99.6738 71.3166 99.7081 72.1769Z" fill="#3D2217"/>
<path d="M93.6462 77.5047C93.669 77.8488 94.2867 78.0897 95.0244 78.0438C95.7622 77.9922 96.3455 77.6767 96.3226 77.3269C96.2997 76.9828 95.6821 76.742 94.9444 76.7878C94.2066 76.8337 93.6233 77.1549 93.6462 77.5047Z" fill="#E59A7F"/>
<path d="M94.5614 84.0545C96.9119 84.1233 98.9879 82.5921 99.3653 80.2178C99.371 80.1719 99.3767 80.1318 99.3825 80.0859C99.3882 80.04 99.3939 79.9941 99.3996 79.9482C99.3996 79.9482 97.907 80.7282 94.7616 80.8716C91.6219 81.0149 90.2494 80.3726 90.2437 80.3726C90.2722 80.3841 90.3123 80.6479 90.3237 80.6823C90.5696 81.5254 90.907 82.2652 91.5533 82.8788C92.3654 83.6473 93.452 84.0315 94.5614 84.0602V84.0545Z" fill="white"/>
<path d="M74.2593 141.397C74.4594 141.065 74.7797 140.875 75.1114 140.767C75.4431 140.663 75.7919 140.64 76.1294 140.698C76.4611 140.749 76.787 140.875 77.0673 141.07C77.3418 141.271 77.5991 141.529 77.7192 141.896C77.3361 141.931 77.0444 141.925 76.7584 141.919C76.4782 141.908 76.2094 141.879 75.9521 141.833C75.6947 141.793 75.4374 141.736 75.1686 141.667C74.8998 141.592 74.6253 141.518 74.2593 141.403V141.397Z" fill="#AF735F"/>
<path d="M78.5199 147.511C78.5313 148.171 77.7593 148.721 76.7985 148.744C75.8377 148.767 75.0428 148.245 75.0314 147.58C75.0199 146.921 75.792 146.37 76.7528 146.347C77.7193 146.33 78.5085 146.846 78.5199 147.511Z" fill="#FF9CB0"/>
<path d="M74.568 144.264C74.5851 145.01 74.9797 145.612 75.4487 145.606C75.9176 145.601 76.2836 144.987 76.2665 144.241C76.2493 143.496 75.8547 142.894 75.3858 142.899C74.9168 142.905 74.5508 143.519 74.568 144.264Z" fill="#3D2217"/>
<path d="M66.173 141.49C65.8128 141.621 65.544 141.707 65.2752 141.788C65.0121 141.868 64.7605 141.931 64.5031 141.983C64.2458 142.034 63.9827 142.074 63.7025 142.097C63.4165 142.12 63.1249 142.138 62.7417 142.115C62.8504 141.742 63.0906 141.472 63.3593 141.266C63.6338 141.059 63.9484 140.922 64.2801 140.859C64.6118 140.796 64.9606 140.796 65.2981 140.887C65.6297 140.985 65.9614 141.163 66.173 141.484V141.49Z" fill="#AF735F"/>
<path d="M61.6492 147.775C61.6606 148.434 62.5699 148.956 63.6737 148.933C64.7774 148.91 65.6638 148.36 65.6467 147.694C65.6352 147.035 64.7259 146.513 63.6222 146.536C62.5184 146.559 61.632 147.109 61.6492 147.775Z" fill="#FF9CB0"/>
<path d="M65.9672 144.305C65.9843 145.05 65.6183 145.664 65.1494 145.67C64.6804 145.676 64.2858 145.073 64.2686 144.328C64.2515 143.582 64.6175 142.969 65.0865 142.963C65.5554 142.957 65.95 143.559 65.9672 144.305Z" fill="#3D2217"/>
<path d="M71.5143 147.425C71.5143 147.723 70.9938 147.97 70.3533 147.97C69.7128 147.97 69.1924 147.723 69.1924 147.425C69.1924 147.126 69.7128 146.88 70.3533 146.88C70.9938 146.88 71.5143 147.126 71.5143 147.425Z" fill="#E59A7F"/>
<path d="M70.7879 152.563C68.7577 152.758 66.8762 151.548 66.4129 149.518C66.4015 149.478 66.3958 149.443 66.3901 149.403C66.3843 149.363 66.3729 149.323 66.3672 149.283C66.3672 149.283 67.6997 149.873 70.4333 149.816C73.1555 149.764 74.305 149.128 74.3108 149.122C74.2879 149.134 74.265 149.363 74.2593 149.392C74.0934 150.131 73.8475 150.797 73.3214 151.359C72.6637 152.07 71.743 152.466 70.7879 152.557V152.563Z" fill="#820B0B"/>
<mask id="mask5_834_264703" style="mask-type:luminance" maskUnits="userSpaceOnUse" x="66" y="149" width="9" height="4">
<path d="M70.7879 152.563C68.7577 152.758 66.8762 151.548 66.4129 149.518C66.4015 149.478 66.3958 149.443 66.3901 149.403C66.3843 149.363 66.3729 149.323 66.3672 149.283C66.3672 149.283 67.6997 149.873 70.4333 149.816C73.1555 149.764 74.305 149.128 74.3108 149.122C74.2879 149.134 74.265 149.363 74.2593 149.392C74.0934 150.131 73.8475 150.797 73.3214 151.359C72.6637 152.07 71.743 152.466 70.7879 152.557V152.563Z" fill="white"/>
</mask>
<g mask="url(#mask5_834_264703)">
<path d="M72.7781 150.177C72.0518 150.458 71.1826 150.521 70.4105 150.538C69.7071 150.555 69.0037 150.498 68.3174 150.36C67.797 150.257 67.1679 150.074 67.0935 149.449C67.0535 149.093 67.248 148.806 67.6197 148.8L73.0469 148.692C73.3615 148.686 73.6188 148.938 73.6245 149.248C73.636 149.707 73.2242 149.999 72.7781 150.171V150.177Z" fill="#FCFFFF"/>
<path d="M72.1776 153.526L68.6719 153.594C68.2087 153.606 67.8255 153.233 67.8141 152.769C67.8084 152.436 68.0142 152.184 68.2888 152.029C68.6147 151.845 68.9922 151.771 69.3525 151.702C70.176 151.547 70.9995 151.581 71.8173 151.748C72.3149 151.851 72.984 152.046 72.9954 152.665C73.0069 153.13 72.6351 153.514 72.1719 153.526H72.1776Z" fill="#F799AB"/>
</g>
<path d="M227.045 100.255C226.662 100.266 226.382 100.266 226.102 100.261C225.827 100.249 225.564 100.238 225.307 100.203C225.044 100.175 224.786 100.129 224.506 100.066C224.226 99.9968 223.946 99.9223 223.585 99.7846C223.803 99.4635 224.117 99.2857 224.438 99.171C224.764 99.062 225.107 99.0276 225.438 99.0735C225.776 99.1137 226.107 99.2284 226.399 99.4233C226.685 99.6183 226.948 99.8879 227.045 100.266V100.255Z" fill="#AF735F"/>
<path d="M221.281 104.969C221.087 105.6 221.681 106.34 222.602 106.627C223.523 106.908 224.426 106.627 224.621 105.996C224.815 105.365 224.221 104.625 223.3 104.338C222.379 104.057 221.475 104.338 221.281 104.969Z" fill="#FF9CB0"/>
<path d="M225.971 102.933C225.748 103.65 225.204 104.115 224.758 103.983C224.306 103.845 224.123 103.157 224.346 102.446C224.569 101.729 225.113 101.264 225.559 101.396C226.011 101.534 226.194 102.222 225.971 102.933Z" fill="#3D2217"/>
<path d="M234.795 102.56C235.087 102.308 235.453 102.228 235.801 102.228C236.15 102.228 236.488 102.325 236.791 102.474C237.094 102.629 237.357 102.847 237.569 103.116C237.769 103.392 237.929 103.719 237.935 104.103C237.563 104.017 237.283 103.925 237.014 103.822C236.751 103.719 236.505 103.61 236.276 103.489C236.042 103.369 235.819 103.237 235.584 103.088C235.35 102.933 235.109 102.778 234.801 102.554L234.795 102.56Z" fill="#AF735F"/>
<path d="M237.437 109.85C237.242 110.481 236.23 110.733 235.178 110.406C234.12 110.085 233.422 109.311 233.611 108.674C233.805 108.043 234.818 107.791 235.87 108.118C236.928 108.439 237.626 109.213 237.437 109.85Z" fill="#FF9CB0"/>
<path d="M234.229 105.33C234.006 106.047 234.194 106.735 234.64 106.867C235.092 107.005 235.636 106.535 235.853 105.818C236.076 105.101 235.887 104.413 235.441 104.281C234.989 104.143 234.446 104.613 234.229 105.33Z" fill="#3D2217"/>
<path d="M228.041 106.81C227.961 107.096 228.395 107.475 229.013 107.653C229.631 107.831 230.197 107.739 230.277 107.446C230.357 107.16 229.922 106.781 229.305 106.603C228.687 106.425 228.121 106.517 228.041 106.81Z" fill="#E59A7F"/>
<path d="M227.343 111.954C229.242 112.694 231.386 112.052 232.381 110.222C232.398 110.188 232.416 110.154 232.438 110.119C232.456 110.085 232.473 110.045 232.496 110.01C232.496 110.01 231.055 110.211 228.441 109.414C225.833 108.617 224.901 107.693 224.895 107.688C224.918 107.71 224.872 107.934 224.872 107.963C224.832 108.72 224.89 109.425 225.238 110.113C225.679 110.979 226.457 111.61 227.349 111.96L227.343 111.954Z" fill="#820B0B"/>
<mask id="mask6_834_264703" style="mask-type:luminance" maskUnits="userSpaceOnUse" x="224" y="107" width="9" height="6">
<path d="M227.343 111.954C229.242 112.694 231.386 112.052 232.381 110.222C232.398 110.188 232.416 110.154 232.438 110.119C232.456 110.085 232.473 110.045 232.496 110.01C232.496 110.01 231.055 110.211 228.441 109.414C225.833 108.617 224.901 107.693 224.895 107.688C224.918 107.71 224.872 107.934 224.872 107.963C224.832 108.72 224.89 109.425 225.238 110.113C225.679 110.979 226.457 111.61 227.349 111.96L227.343 111.954Z" fill="white"/>
</mask>
<g mask="url(#mask6_834_264703)">
<path d="M226.079 109.109C226.703 109.58 227.52 109.878 228.258 110.107C228.927 110.314 229.619 110.451 230.323 110.514C230.854 110.56 231.506 110.555 231.752 109.97C231.89 109.637 231.775 109.31 231.421 109.201L226.228 107.613C225.925 107.521 225.61 107.693 225.519 107.991C225.387 108.433 225.702 108.823 226.085 109.109H226.079Z" fill="#FCFFFF"/>
<path d="M225.742 112.499L229.093 113.525C229.533 113.663 230.002 113.411 230.14 112.969C230.237 112.654 230.111 112.35 229.882 112.126C229.619 111.862 229.276 111.684 228.95 111.524C228.201 111.145 227.4 110.956 226.565 110.893C226.062 110.858 225.364 110.858 225.187 111.455C225.05 111.897 225.301 112.367 225.742 112.504V112.499Z" fill="#F799AB"/>
</g>
<path d="M184.628 130.467C184.972 132.411 185.864 134.252 187.168 135.726C187.751 136.385 188.426 136.982 189.221 137.366C190.016 137.75 190.936 137.899 191.789 137.67" stroke="#84879B" stroke-miterlimit="10"/>
<path d="M159.185 135.388C159.94 135.543 160.723 135.313 161.433 135.003C163.154 134.235 164.698 132.79 165.047 130.932" stroke="#9193A8" stroke-miterlimit="10"/>
<path d="M188.832 88.4072H179.973V91.2976H188.832V88.4072Z" fill="#720085"/>
<path d="M150.275 107.166C150.418 107.688 150.612 108.078 150.841 108.445C151.064 108.812 151.322 109.144 151.602 109.466C151.882 109.787 152.185 110.096 152.511 110.389C152.843 110.687 153.192 110.962 153.649 111.255C153.135 111.45 152.557 111.364 152.054 111.163C151.55 110.957 151.099 110.63 150.738 110.217C150.384 109.804 150.109 109.299 150.001 108.754C149.892 108.21 149.943 107.602 150.275 107.16V107.166Z" fill="#EC573B"/>
<path d="M157.944 109.213C157.687 109.448 157.321 109.454 157.023 109.357C156.72 109.259 156.468 109.058 156.291 108.812C156.114 108.565 156.011 108.273 156 107.969C156 107.665 156.08 107.332 156.348 107.114C156.56 107.378 156.714 107.533 156.852 107.693C156.989 107.848 157.109 107.992 157.212 108.141C157.321 108.29 157.412 108.439 157.509 108.605C157.612 108.777 157.709 108.961 157.938 109.213H157.944Z" fill="#753301"/>
<path d="M154.947 105.233C154.69 105.468 154.324 105.474 154.027 105.376C153.724 105.279 153.472 105.078 153.295 104.831C153.117 104.585 153.014 104.292 153.003 103.988C153.003 103.684 153.083 103.352 153.352 103.134C153.563 103.398 153.718 103.552 153.861 103.713C153.998 103.868 154.118 104.011 154.221 104.16C154.33 104.309 154.421 104.459 154.518 104.625C154.621 104.797 154.719 104.98 154.947 105.233Z" fill="#753301"/>
<path d="M78.417 154.227C82.6147 154.52 86.8409 151.773 88.2935 147.815" stroke="#876655" stroke-miterlimit="10"/>
<path d="M109.23 146.829C109.654 148.051 110.248 149.209 110.992 150.259C111.427 150.872 111.924 151.457 112.565 151.853C113.205 152.249 114.006 152.426 114.721 152.186" stroke="#967254" stroke-miterlimit="10"/>
<path d="M87.9961 65.9714C89.9977 65.4323 92.0508 65.1628 94.1153 65.0309C96.1799 64.9162 98.2501 64.9448 100.297 65.2488C98.2329 65.4036 96.1913 65.4782 94.1439 65.6043C92.0966 65.7133 90.0606 65.8796 87.9961 65.9714Z" fill="#E59A7F"/>
<path d="M89.7118 64.0107C91.1186 63.4773 92.6055 63.2021 94.0982 63.0702C95.5908 62.9555 97.1063 62.9841 98.5818 63.2823C97.0835 63.4372 95.6194 63.5117 94.1439 63.6379C92.6742 63.7526 91.2101 63.9132 89.7061 64.0049L89.7118 64.0107Z" fill="#E59A7F"/>
<path d="M222.951 85.958C223.756 85.958 224.409 85.3033 224.409 84.4956C224.409 83.6879 223.756 83.0332 222.951 83.0332C222.146 83.0332 221.493 83.6879 221.493 84.4956C221.493 85.3033 222.146 85.958 222.951 85.958Z" fill="#EFA335"/>
</g>
</g>
<defs>
<clipPath id="clip0_834_264703">
<rect width="300" height="225" fill="white" transform="translate(0.000488281)"/>
</clipPath>
<clipPath id="clip1_834_264703">
<rect width="212" height="184" fill="white" transform="translate(44.0005 31)"/>
</clipPath>
</defs>
</svg>
