<svg width="300" height="225" viewBox="0 0 300 225" fill="none" xmlns="http://www.w3.org/2000/svg">
<g clip-path="url(#clip0_834_264700)">
<rect x="0.000488281" width="300" height="225" fill="#EFDAEE"/>
<g clip-path="url(#clip1_834_264700)">
<path d="M99.3262 57.8447C99.3262 57.8447 95.7751 55.4241 90.5827 57.2885C85.3902 59.1528 84.2248 66.1579 85.5001 71.8487C86.7814 77.5335 79.6304 96.9472 79.6304 96.9472C79.6304 96.9472 83.3462 102.186 96.3364 100.181C96.3364 100.181 106.02 82.5458 105.3 69.8927C104.58 57.2396 99.3262 57.8508 99.3262 57.8508V57.8447Z" fill="#0E3944"/>
<path d="M103.427 79.7224C108.308 78.1576 111.298 82.2286 114.092 89.8082C116.887 97.3879 117.833 98.1459 117.833 98.1459L128.626 105.096L127.729 109.149C127.729 109.149 117.454 105.12 114.971 102.553C112.488 99.9919 105.343 87.0026 105.343 87.0026L103.433 79.7224H103.427Z" fill="#EFDAEE"/>
<path d="M79.6363 128.678C79.6363 128.678 77.519 139.424 77.8668 155.598C77.8668 155.598 69.5199 167.927 76.4085 203.105H80.0207C80.0207 203.105 82.9738 173.178 85.2314 165.066C87.489 156.955 95.8298 154.467 96.2813 129.809L79.6363 128.678Z" fill="#FAC39A"/>
<path d="M63.1191 160.275C61.0202 153.343 55.6264 141.735 41.782 126.001C41.782 126.001 40.9582 125.573 39.8417 126.258C38.6641 126.979 38.6641 127.829 38.6641 127.829C38.6641 127.829 45.6076 142.982 50.0313 154.083C51.52 157.817 55.1261 160.275 59.1409 160.275H63.1191Z" fill="#FAC39A"/>
<path d="M88.3254 173.679C88.3254 173.679 88.3742 178.85 84.9878 178.936C80.2042 179.064 80.0273 173.844 74.6091 174.015C69.1909 174.186 58.0129 175.543 54.4557 167.059C52.6191 162.676 55.1329 157.047 49.2083 152.804C43.2837 148.562 46.1575 143.813 49.2083 141.27C52.2591 138.733 47.8965 135.952 51.0693 134.656C51.8259 134.35 52.5703 134.387 53.2658 134.613C53.6747 134.754 54.0529 134.956 54.419 135.194C56.097 136.313 57.2807 138.262 57.2807 138.262C66.2561 113.635 82.236 110.383 82.236 110.383L98.0391 115.848C98.4174 154.168 88.3315 173.673 88.3315 173.673L88.3254 173.679Z" fill="#164353"/>
<path d="M103.426 79.7221C103.426 79.7221 99.7409 80.9691 94.4936 80.1683C89.2463 79.3676 87.5439 76.0729 83.8586 78.194C78.3245 81.3786 80.9115 92.3508 82.3027 98.06C82.8213 100.187 83.4803 105.774 82.2295 110.389C82.2295 110.389 89.6002 116.135 98.0325 115.848L102.633 105.823C102.633 105.823 112.64 93.83 103.426 79.7221Z" fill="#CFD8DC"/>
<path d="M94.0601 70.5158C94.0601 70.5158 94.6764 75.7054 92.7544 80.4305C92.7544 80.4305 95.4879 84.477 98.0994 81.8119C98.0994 81.8119 98.3373 77.0563 101.272 71.6711C103.237 68.0646 94.054 70.5158 94.054 70.5158H94.0601Z" fill="#EFDAEE"/>
<path d="M89.8688 70.6948C89.8688 70.6948 87.5624 69.2339 87.8187 71.4894C88.1238 74.1056 90.6681 74.613 90.9366 73.7022C91.2051 72.7853 89.8627 70.6948 89.8627 70.6948H89.8688Z" fill="#FAC39A"/>
<path d="M103.109 67.8638C103.109 67.8638 104.574 65.5532 105.3 67.7048C106.142 70.1988 104.055 71.7453 103.42 71.0362C102.786 70.3272 103.109 67.8638 103.109 67.8638Z" fill="#FAC39A"/>
<path d="M98.3438 78.5065C94.1581 79.4478 91.1805 77.235 89.344 69.0197C88.3982 64.7836 89.9663 61.6967 94.6584 60.6454C99.3505 59.594 101.901 61.7518 102.853 65.9878C104.824 74.8144 102.67 77.5346 98.3438 78.5065Z" fill="#FAC39A"/>
<path d="M102.121 69.233C102.285 69.6364 102.017 70.1376 101.51 70.3455C101.004 70.5533 100.461 70.3944 100.29 69.9909C100.125 69.5875 100.394 69.0863 100.9 68.8784C101.407 68.6706 101.95 68.8295 102.121 69.233Z" fill="#E59A7F"/>
<path d="M93.56 71.3969C93.6271 71.8309 93.2427 72.2527 92.7057 72.3321C92.1627 72.4177 91.6746 72.1365 91.6014 71.7025C91.5342 71.2685 91.9186 70.8468 92.4556 70.7673C92.9986 70.6817 93.4867 70.9629 93.56 71.3969Z" fill="#E59A7F"/>
<path d="M99.2047 65.4069C99.162 65.4069 99.1253 65.3946 99.0887 65.3702C98.3749 64.8934 97.3559 65.144 97.3498 65.1501C97.2339 65.1807 97.1179 65.1073 97.0874 64.9973C97.0569 64.8812 97.124 64.765 97.24 64.7345C97.2888 64.7222 98.4542 64.4288 99.3267 65.0156C99.4243 65.0829 99.4487 65.2174 99.3877 65.3152C99.345 65.3763 99.2779 65.413 99.2108 65.413L99.2047 65.4069Z" fill="#0E3944"/>
<path d="M91.3207 67.173C91.2841 67.173 91.2475 67.1607 91.2109 67.1424C91.1072 67.0813 91.0767 66.9468 91.1377 66.849C91.6807 65.9443 92.8583 65.712 92.9071 65.7059C93.023 65.6876 93.1329 65.7609 93.1573 65.8771C93.1817 65.9932 93.1024 66.1032 92.9864 66.1277C92.9742 66.1277 91.9492 66.3355 91.5038 67.0752C91.4611 67.1424 91.3939 67.1791 91.3207 67.1791V67.173Z" fill="#0E3944"/>
<path d="M99.3873 67.7051C99.5032 68.2247 99.3629 68.7015 99.0761 68.7626C98.7893 68.8298 98.4599 68.457 98.3439 67.9374C98.228 67.4178 98.3683 66.941 98.6551 66.8799C98.9419 66.8127 99.2714 67.1855 99.3873 67.7051Z" fill="#1A4850"/>
<path d="M93.5724 68.958C93.6883 69.4776 93.5479 69.9544 93.2612 70.0155C92.9744 70.0828 92.6449 69.7099 92.529 69.1903C92.4131 68.6707 92.5534 68.194 92.8402 68.1328C93.1269 68.0656 93.4564 68.4385 93.5724 68.958Z" fill="#1A4850"/>
<path d="M95.4517 73.8915C95.4517 73.8915 98.1424 73.6714 99.3261 72.6689C99.3261 72.6689 99.0028 74.7717 97.5384 74.9184C96.074 75.0651 95.4517 73.8915 95.4517 73.8915Z" fill="#1A4850"/>
<path d="M97.9227 67.7656C97.9227 67.7656 98.0203 66.3964 98.539 66.378C99.0637 66.3597 99.6922 67.3683 99.6922 67.3683L100.345 66.8059L99.625 67.0688C99.625 67.0688 98.9844 66.0113 98.484 66.1213C97.7763 66.2741 97.9227 67.7656 97.9227 67.7656Z" fill="#1A4850"/>
<path d="M93.8893 68.8295C93.8893 68.8295 93.2181 67.6314 92.7361 67.8392C92.2541 68.0471 92.1199 69.2268 92.1199 69.2268L91.29 69.0006L92.0527 68.9334C92.0527 68.9334 92.1809 67.6986 92.6812 67.5886C93.389 67.4236 93.8893 68.8356 93.8893 68.8356V68.8295Z" fill="#1A4850"/>
<path d="M96.8059 71.4648L96.5923 71.0552C96.9401 70.8718 96.9706 70.6212 96.934 70.4501C96.8852 70.1994 96.6838 70.0038 96.5374 69.9916C96.452 69.9916 96.3787 70.0588 96.3238 70.2056L95.8906 70.0466C96.0737 69.5454 96.4276 69.5209 96.5679 69.5271C96.934 69.5576 97.294 69.9183 97.3855 70.3523C97.477 70.8046 97.2635 71.2202 96.8059 71.4648Z" fill="#E59A7F"/>
<path d="M90.1981 72.1733C90.1981 72.1733 88.9045 67.4115 89.6733 64.0496C89.6733 64.0496 93.316 58.97 100.345 61.4823C100.345 61.4823 102.432 64.8442 103.463 69.5509C103.463 69.5509 103.725 67.8577 103.024 64.0924C102.322 60.327 98.9904 57.9859 94.4142 58.7438C89.8442 59.4957 84.9507 64.0557 90.192 72.1733H90.1981Z" fill="#0E3944"/>
<path d="M97.5694 60.4245C97.5694 60.4245 97.8501 61.6654 96.6419 64.8684C96.6419 64.8684 95.7755 63.9576 94.7566 64.8684C93.7376 65.7792 91.6753 65.4735 90.9736 65.9626C90.2719 66.4516 90.2719 67.5763 90.2719 67.5763C90.2719 67.5763 89.6618 66.1765 90.2719 64.5016C90.2719 64.5016 88.8991 66.2498 89.0821 68.4015C89.0821 68.4015 87.2211 68.102 87.3066 65.0273C87.392 61.9527 91.7485 56.9831 96.6419 57.3071C101.535 57.631 102.695 65.388 102.695 65.388C102.695 65.388 102.249 65.0395 101.548 65.1924C101.548 65.1924 101.438 63.5481 100.339 61.482C100.339 61.482 100.846 62.9735 100.339 64.5872C100.339 64.5872 98.9788 63.872 97.905 64.0982C97.905 64.0982 98.57 62.7962 97.5633 60.4306L97.5694 60.4245Z" fill="#0E3944"/>
<path d="M82.6141 79.1716C84.9937 77.2889 86.8486 79.6851 87.3001 82.992C87.7516 86.2989 83.45 105.81 80.1308 105.089C78.8494 104.814 78.3247 99.6978 78.3247 99.6978C78.3247 99.6978 79.6243 94.2148 80.4603 85.9566C80.8446 82.1607 81.3633 80.1496 82.608 79.1716H82.6141Z" fill="#FAC39A"/>
<path d="M75.6885 102.332C72.4852 99.2699 66.7376 89.1229 65.2793 83.9517L67.7138 82.9736C67.7138 82.9736 75.0357 93.469 78.3732 96.1158C81.7108 98.7625 82.8884 101.709 81.3935 104.233C79.9047 106.758 76.3658 102.98 75.6885 102.332Z" fill="#FAC39A"/>
<path d="M66.2804 77.1855C66.1157 80.5047 68.8126 81.2932 67.6167 83.8422C67.3665 84.3678 66.9943 84.649 66.6038 84.7835C65.8594 85.0463 65.0357 84.7957 64.4866 84.2395C63.2052 82.9375 61.2161 81.5621 60.1606 80.957C58.9586 80.2602 59.6419 80.0707 59.6419 80.0707C59.526 80.0157 59.4101 79.9729 59.3003 79.924C58.446 79.5633 57.7566 79.4288 58.3789 79.0499C59.0806 78.6159 61.5578 79.5205 61.5578 79.5205C58.3301 77.3689 57.4576 77.8946 58.0433 77.4361C58.8487 76.8126 61.9117 78.2491 62.0032 78.2919C60.3009 76.6782 59.0623 76.3114 59.7396 76.0669C60.4229 75.8224 63.7971 78.2674 65.0296 79.1843C65.3042 79.3922 65.475 79.5205 65.475 79.5205C65.4323 76.8065 66.2865 77.1794 66.2865 77.1794L66.2804 77.1855Z" fill="#FAC39A"/>
<path d="M65.0234 79.1848C65.298 79.3926 65.4688 79.521 65.4688 79.521C65.4688 79.521 64.8892 80.4929 65.6397 81.7521C65.6397 81.7521 64.2668 80.8475 65.0234 79.1787V79.1848Z" fill="#EFDAEE"/>
<path d="M62.1924 81.091C61.9057 80.932 60.2765 80.0151 59.6298 80.0702C59.5138 80.0151 59.3979 79.9724 59.2881 79.9235C59.7213 79.3489 61.869 80.8587 62.1924 81.091Z" fill="#EFDAEE"/>
<path d="M74.9859 130.347C74.9859 130.708 74.693 131.001 74.333 131.001C73.9731 131.001 73.6802 130.708 73.6802 130.347C73.6802 129.987 73.9731 129.693 74.333 129.693C74.693 129.693 74.9859 129.987 74.9859 130.347Z" fill="#7A60B2"/>
<path d="M86.6036 134.834C86.6036 135.194 86.3107 135.488 85.9507 135.488C85.5907 135.488 85.2979 135.194 85.2979 134.834C85.2979 134.473 85.5907 134.18 85.9507 134.18C86.3107 134.18 86.6036 134.473 86.6036 134.834Z" fill="#7A60B2"/>
<path d="M96.5001 137.242C96.5001 137.603 96.2072 137.896 95.8472 137.896C95.4872 137.896 95.1943 137.603 95.1943 137.242C95.1943 136.881 95.4872 136.588 95.8472 136.588C96.2072 136.588 96.5001 136.881 96.5001 137.242Z" fill="#7A60B2"/>
<path d="M81.2891 121.826C81.2891 122.187 80.9963 122.48 80.6363 122.48C80.2763 122.48 79.9834 122.187 79.9834 121.826C79.9834 121.465 80.2763 121.172 80.6363 121.172C80.9963 121.172 81.2891 121.465 81.2891 121.826Z" fill="#7A60B2"/>
<path d="M82.833 128.678C83.1936 128.678 83.4859 128.385 83.4859 128.024C83.4859 127.663 83.1936 127.37 82.833 127.37C82.4725 127.37 82.1802 127.663 82.1802 128.024C82.1802 128.385 82.4725 128.678 82.833 128.678Z" fill="#7A60B2"/>
<path d="M93.7852 131.557C93.7852 131.918 93.4924 132.211 93.1324 132.211C92.7724 132.211 92.4795 131.918 92.4795 131.557C92.4795 131.197 92.7724 130.903 93.1324 130.903C93.4924 130.903 93.7852 131.197 93.7852 131.557Z" fill="#7A60B2"/>
<path d="M95.2008 120.867C95.2008 121.228 94.9079 121.521 94.5479 121.521C94.1879 121.521 93.895 121.228 93.895 120.867C93.895 120.506 94.1879 120.213 94.5479 120.213C94.9079 120.213 95.2008 120.506 95.2008 120.867Z" fill="#7A60B2"/>
<path d="M87.7994 119.295C88.1599 119.295 88.4522 119.003 88.4522 118.641C88.4522 118.28 88.1599 117.987 87.7994 117.987C87.4388 117.987 87.1465 118.28 87.1465 118.641C87.1465 119.003 87.4388 119.295 87.7994 119.295Z" fill="#7A60B2"/>
<path d="M69.2203 143.074C69.2203 143.435 68.9274 143.728 68.5674 143.728C68.2074 143.728 67.9146 143.435 67.9146 143.074C67.9146 142.713 68.2074 142.42 68.5674 142.42C68.9274 142.42 69.2203 142.713 69.2203 143.074Z" fill="#7A60B2"/>
<path d="M59.9395 140.299C59.9395 140.659 59.6466 140.953 59.2867 140.953C58.9267 140.953 58.6338 140.659 58.6338 140.299C58.6338 139.938 58.9267 139.645 59.2867 139.645C59.6466 139.645 59.9395 139.938 59.9395 140.299Z" fill="#7A60B2"/>
<path d="M54.4125 135.194C54.2965 135.372 54.0952 135.488 53.8633 135.488C53.5033 135.488 53.2104 135.194 53.2104 134.834C53.2104 134.754 53.2227 134.675 53.2593 134.607C53.6681 134.748 54.0464 134.95 54.4125 135.188V135.194Z" fill="#7A60B2"/>
<path d="M71.8994 152.236C72.26 152.236 72.5523 151.943 72.5523 151.582C72.5523 151.221 72.26 150.928 71.8994 150.928C71.5389 150.928 71.2466 151.221 71.2466 151.582C71.2466 151.943 71.5389 152.236 71.8994 152.236Z" fill="#7A60B2"/>
<path d="M55.8883 160.825C55.8883 161.186 55.5954 161.479 55.2354 161.479C54.8754 161.479 54.5825 161.186 54.5825 160.825C54.5825 160.464 54.8754 160.171 55.2354 160.171C55.5954 160.171 55.8883 160.464 55.8883 160.825Z" fill="#7A60B2"/>
<path d="M62.045 155.874C62.4055 155.874 62.6978 155.581 62.6978 155.219C62.6978 154.858 62.4055 154.565 62.045 154.565C61.6844 154.565 61.3921 154.858 61.3921 155.219C61.3921 155.581 61.6844 155.874 62.045 155.874Z" fill="#7A60B2"/>
<path d="M51.9102 150.916C52.2708 150.916 52.5631 150.624 52.5631 150.262C52.5631 149.901 52.2708 149.608 51.9102 149.608C51.5496 149.608 51.2573 149.901 51.2573 150.262C51.2573 150.624 51.5496 150.916 51.9102 150.916Z" fill="#7A60B2"/>
<path d="M60.7393 169.793C60.7393 170.153 60.4465 170.447 60.0865 170.447C59.7265 170.447 59.4336 170.153 59.4336 169.793C59.4336 169.432 59.7265 169.139 60.0865 169.139C60.4465 169.139 60.7393 169.432 60.7393 169.793Z" fill="#7A60B2"/>
<path d="M66.9449 135.488C66.9449 135.849 66.652 136.142 66.292 136.142C65.932 136.142 65.6392 135.849 65.6392 135.488C65.6392 135.127 65.932 134.834 66.292 134.834C66.652 134.834 66.9449 135.127 66.9449 135.488Z" fill="#7A60B2"/>
<path d="M73.1988 124.504C73.1988 124.864 72.9059 125.158 72.5459 125.158C72.1859 125.158 71.8931 124.864 71.8931 124.504C71.8931 124.143 72.1859 123.85 72.5459 123.85C72.9059 123.85 73.1988 124.143 73.1988 124.504Z" fill="#7A60B2"/>
<path d="M80.2764 115.359C80.2764 115.72 79.9836 116.013 79.6236 116.013C79.2636 116.013 78.9707 115.72 78.9707 115.359C78.9707 114.998 79.2636 114.705 79.6236 114.705C79.9836 114.705 80.2764 114.998 80.2764 115.359Z" fill="#7A60B2"/>
<path d="M65.9312 128.678C65.9312 129.039 65.6383 129.333 65.2784 129.333C64.9184 129.333 64.6255 129.039 64.6255 128.678C64.6255 128.318 64.9184 128.024 65.2784 128.024C65.6383 128.024 65.9312 128.318 65.9312 128.678Z" fill="#7A60B2"/>
<path d="M73.8511 117.988C73.8511 118.349 73.5583 118.642 73.1983 118.642C72.8383 118.642 72.5454 118.349 72.5454 117.988C72.5454 117.627 72.8383 117.334 73.1983 117.334C73.5583 117.334 73.8511 117.627 73.8511 117.988Z" fill="#7A60B2"/>
<path d="M61.3922 147.365C61.3922 147.726 61.0993 148.019 60.7393 148.019C60.3793 148.019 60.0864 147.726 60.0864 147.365C60.0864 147.004 60.3793 146.711 60.7393 146.711C61.0993 146.711 61.3922 147.004 61.3922 147.365Z" fill="#7A60B2"/>
<path d="M53.2095 141.6C53.2095 141.961 52.9167 142.254 52.5567 142.254C52.1967 142.254 51.9038 141.961 51.9038 141.6C51.9038 141.24 52.1967 140.946 52.5567 140.946C52.9167 140.946 53.2095 141.24 53.2095 141.6Z" fill="#7A60B2"/>
<path d="M76.2862 140.298C76.6467 140.298 76.939 140.006 76.939 139.644C76.939 139.283 76.6467 138.99 76.2862 138.99C75.9256 138.99 75.6333 139.283 75.6333 139.644C75.6333 140.006 75.9256 140.298 76.2862 140.298Z" fill="#7A60B2"/>
<path d="M89.7525 143.728C90.113 143.728 90.4053 143.435 90.4053 143.074C90.4053 142.713 90.113 142.42 89.7525 142.42C89.3919 142.42 89.0996 142.713 89.0996 143.074C89.0996 143.435 89.3919 143.728 89.7525 143.728Z" fill="#7A60B2"/>
<path d="M89.752 124.504C89.752 124.864 89.4591 125.158 89.0992 125.158C88.7392 125.158 88.4463 124.864 88.4463 124.504C88.4463 124.143 88.7392 123.85 89.0992 123.85C89.4591 123.85 89.752 124.143 89.752 124.504Z" fill="#7A60B2"/>
<path d="M97.5801 125.867C97.5801 126.228 97.2873 126.521 96.9273 126.521C96.5673 126.521 96.2744 126.228 96.2744 125.867C96.2744 125.506 96.5673 125.213 96.9273 125.213C97.2873 125.213 97.5801 125.506 97.5801 125.867Z" fill="#7A60B2"/>
<path d="M81.942 148.019C81.942 148.38 81.6491 148.673 81.2891 148.673C80.9291 148.673 80.6362 148.38 80.6362 148.019C80.6362 147.659 80.9291 147.365 81.2891 147.365C81.6491 147.365 81.942 147.659 81.942 148.019Z" fill="#7A60B2"/>
<path d="M75.6328 160.275C75.9934 160.275 76.2857 159.982 76.2857 159.621C76.2857 159.26 75.9934 158.967 75.6328 158.967C75.2723 158.967 74.98 159.26 74.98 159.621C74.98 159.982 75.2723 160.275 75.6328 160.275Z" fill="#7A60B2"/>
<path d="M65.6387 162.133C65.9993 162.133 66.2916 161.84 66.2916 161.479C66.2916 161.118 65.9993 160.825 65.6387 160.825C65.2781 160.825 64.9858 161.118 64.9858 161.479C64.9858 161.84 65.2781 162.133 65.6387 162.133Z" fill="#7A60B2"/>
<path d="M93.1324 152.236C93.4929 152.236 93.7852 151.943 93.7852 151.582C93.7852 151.221 93.4929 150.928 93.1324 150.928C92.7718 150.928 92.4795 151.221 92.4795 151.582C92.4795 151.943 92.7718 152.236 93.1324 152.236Z" fill="#7A60B2"/>
<path d="M84.7852 156.528C84.7852 156.889 84.4924 157.182 84.1324 157.182C83.7724 157.182 83.4795 156.889 83.4795 156.528C83.4795 156.167 83.7724 155.874 84.1324 155.874C84.4924 155.874 84.7852 156.167 84.7852 156.528Z" fill="#7A60B2"/>
<path d="M71.2457 171.094C71.2457 171.455 70.9528 171.749 70.5928 171.749C70.2328 171.749 69.9399 171.455 69.9399 171.094C69.9399 170.734 70.2328 170.44 70.5928 170.44C70.9528 170.44 71.2457 170.734 71.2457 171.094Z" fill="#7A60B2"/>
<path d="M80.6426 168.349C81.0032 168.349 81.2955 168.056 81.2955 167.695C81.2955 167.334 81.0032 167.041 80.6426 167.041C80.282 167.041 79.9897 167.334 79.9897 167.695C79.9897 168.056 80.282 168.349 80.6426 168.349Z" fill="#7A60B2"/>
<path d="M90.3189 164.511C90.6794 164.511 90.9717 164.218 90.9717 163.857C90.9717 163.496 90.6794 163.203 90.3189 163.203C89.9583 163.203 89.666 163.496 89.666 163.857C89.666 164.218 89.9583 164.511 90.3189 164.511Z" fill="#7A60B2"/>
<path d="M86.6036 175.079C86.6036 175.44 86.3107 175.733 85.9507 175.733C85.5907 175.733 85.2979 175.44 85.2979 175.079C85.2979 174.718 85.5907 174.425 85.9507 174.425C86.3107 174.425 86.6036 174.718 86.6036 175.079Z" fill="#7A60B2"/>
<path d="M85.8912 209.431H75.1952C74.4996 207.438 75.787 205.433 75.5674 203.673C75.1952 200.702 76.9219 202.34 76.9219 202.34C77.227 199.143 81.7116 198.538 81.6628 199.962C81.5896 202.059 81.9923 203.355 82.5903 204.223C83.7984 205.965 85.7753 205.953 86.1108 207.2C86.1475 207.322 86.1719 207.444 86.1902 207.554C86.5197 209.113 85.8851 209.419 85.8851 209.419L85.8912 209.431Z" fill="#164353"/>
<path d="M86.1962 207.567C83.9813 208.08 78.8743 207.408 78.673 206.124C78.4777 204.877 81.2295 204.29 82.5962 204.235C83.8044 205.977 85.7813 205.965 86.1168 207.212C86.1535 207.334 86.1779 207.457 86.1962 207.567Z" fill="#205260"/>
<path d="M41.9167 126.428C40.7757 125.389 38.9269 127.107 38.9269 127.107C38.9269 127.107 39.9215 128.586 39.2808 129.185C38.6402 129.784 37.8897 128.421 36.6266 129.014C36.5229 129.063 36.4192 129.124 36.3155 129.191C35.327 129.784 34.2959 131.025 33.466 131.966C33.2952 132.156 33.1366 132.333 32.984 132.486C32.0139 133.507 29.5183 134.099 29.0485 131.385C28.5787 128.671 31.6295 125.487 34.9731 122.565C38.3168 119.643 40.4828 121.379 40.4828 121.379C40.4828 121.379 41.2394 122.608 41.2394 123.372C41.2394 124.136 41.9167 124.515 42.295 125.236C42.6733 125.957 41.9167 126.422 41.9167 126.422V126.428Z" fill="#164353"/>
<path d="M36.3157 129.191C35.3272 129.784 34.2961 131.025 33.4662 131.966C32.2154 132.266 31.0866 132.174 30.9097 130.994C30.4826 128.146 36.157 124.521 35.7055 126.52C35.4737 127.522 35.8703 128.482 36.3157 129.185V129.191Z" fill="#205260"/>
<path d="M104.336 24.6584C105.074 24.6706 107.216 25.5264 107.216 25.5264C108.79 26.4983 109.662 27.024 110.706 27.1095C111.749 27.2012 112.17 28.9922 112.17 28.9922C112.17 28.9922 116.27 29.8908 116.502 27.299C116.502 27.299 114.208 24.0471 114.049 23.607C113.726 22.7329 114.318 21.4248 113.397 19.9517C112.469 18.4785 112.03 16.1863 112.03 16.1863C112.03 16.1863 111.121 15.899 111.017 16.7975C110.919 17.7083 111.591 18.9492 111.426 19.3404C111.389 19.4199 111.353 19.4932 111.304 19.5605C111.304 19.5605 111.304 19.5605 111.298 19.5788C111.121 19.8294 110.864 20.0189 110.602 20.0372C110.59 20.0372 110.565 20.0495 110.541 20.0434C109.516 20.0189 107.71 18.5947 106.972 17.8856C105.947 16.9015 104.452 15.6178 104.116 16.4858C103.781 17.3538 104.897 17.2988 106.776 19.9028L106.587 20.1717C106.709 20.3673 104.732 19.3771 103.158 18.1423C102.072 17.2927 101.84 18.3013 102.029 18.7414C102.212 19.1815 103.433 19.8783 104.214 20.5018C104.732 20.9113 105.275 21.327 105.599 21.5776L105.501 21.9994C102.816 21.4126 102.395 20.3979 101.822 20.9602C101.254 21.5165 102.939 22.6596 103.793 22.8552C104.159 22.9407 104.793 23.2769 105.391 23.6253C103.25 23.5764 102.725 22.8918 102.371 23.4359C102.005 24.0043 103.597 24.64 104.336 24.6523V24.6584Z" fill="#FAC39A"/>
<path d="M111.17 22.6721C110.517 21.4435 111.212 19.7808 111.304 19.5791C111.127 19.8297 110.871 20.0192 110.608 20.0375C110.047 21.7735 111.17 22.6721 111.17 22.6721Z" fill="#EFDAEE"/>
<path d="M225.061 24.6584C224.322 24.6706 222.181 25.5264 222.181 25.5264C220.606 26.4983 219.734 27.024 218.691 27.1095C217.647 27.2012 217.226 28.9922 217.226 28.9922C217.226 28.9922 213.126 29.8908 212.894 27.299C212.894 27.299 215.188 24.0471 215.347 23.607C215.67 22.7329 215.078 21.4248 216 19.9517C216.927 18.4785 217.366 16.1863 217.366 16.1863C217.366 16.1863 218.276 15.899 218.379 16.7975C218.477 17.7083 217.806 18.9492 217.971 19.3404C218.007 19.4199 218.044 19.4932 218.093 19.5605C218.093 19.5605 218.093 19.5605 218.099 19.5788C218.276 19.8294 218.532 20.0189 218.794 20.0372C218.806 20.0372 218.831 20.0495 218.855 20.0434C219.88 20.0189 221.686 18.5947 222.425 17.8856C223.45 16.9015 224.945 15.6178 225.28 16.4858C225.616 17.3538 224.499 17.2988 222.62 19.9028L222.809 20.1717C222.687 20.3673 224.664 19.3771 226.238 18.1423C227.324 17.2927 227.556 18.3013 227.367 18.7414C227.184 19.1815 225.964 19.8783 225.183 20.5018C224.664 20.9113 224.121 21.327 223.798 21.5776L223.895 21.9994C226.58 21.4126 227.001 20.3979 227.574 20.9602C228.142 21.5165 226.458 22.6596 225.604 22.8552C225.237 22.9407 224.603 23.2769 224.005 23.6253C226.147 23.5764 226.671 22.8918 227.025 23.4359C227.391 24.0043 225.799 24.64 225.061 24.6523V24.6584Z" fill="#FAC39A"/>
<path d="M218.227 22.6721C218.88 21.4435 218.184 19.7808 218.093 19.5791C218.27 19.8297 218.526 20.0192 218.788 20.0375C219.35 21.7735 218.227 22.6721 218.227 22.6721Z" fill="#EFDAEE"/>
<path d="M189.001 149.258L181.117 100.363L165.333 102.13L149.548 100.363L141.665 149.258L137.882 196.68C137.882 196.68 139.084 200.61 146.961 197.896C146.961 197.896 152.8 153.91 153.703 152.944C154.606 151.978 163.881 123.243 163.881 123.243H166.785C166.785 123.243 176.059 151.972 176.962 152.944C177.865 153.91 183.705 197.896 183.705 197.896C191.576 200.61 192.784 196.68 192.784 196.68L189.001 149.258Z" fill="#0E3944"/>
<path d="M160.366 53.0146C161.361 53.9866 166.266 55.7409 168.86 53.0146L170.617 54.7445C170.617 54.7445 168.616 59.4635 165.101 59.6285C161.587 59.7936 159.048 55.4291 159.048 55.4291L160.372 53.0146H160.366Z" fill="#0C476B"/>
<path d="M174.253 52.4831C180.123 49.9525 199.092 43.2225 199.092 43.2225C199.092 43.2225 211.845 27.2196 214.444 24.8418C214.444 24.8418 217.269 25.3491 218.093 28.87C218.093 28.87 209.88 46.4805 205.42 51.5234C200.959 56.5663 178.353 67.4712 178.353 67.4712L174.259 52.4831H174.253Z" fill="#0C476B"/>
<path d="M153.703 52.1168C155.448 51.0104 164.216 56.8846 164.216 56.8846C164.216 56.8846 175.613 50.8209 178.292 51.9945C178.292 51.9945 180.702 55.2281 181.672 63.5351C182.642 71.8422 182.703 106.042 182.703 106.042C182.703 106.042 175.04 108.756 164.673 108.756C152.855 108.756 146.497 105.364 146.497 105.364C146.497 105.364 144.386 58.0155 153.703 52.1168Z" fill="#BCA9DC"/>
<path d="M160.823 51.2305C160.823 51.2305 162.086 55.2098 160.823 56.7441C160.823 56.7441 162.135 59.5008 164.49 59.6231C167.212 59.7637 168.157 56.7441 168.157 56.7441C168.157 56.7441 166.717 52.8992 168.157 51.5483L160.823 51.2305Z" fill="#F3B282"/>
<path d="M157.681 47.3123C157.681 47.3123 155.026 42.1899 155.551 36.713C156.076 31.2361 164.313 29.983 169.859 32.6726C169.859 32.6726 168.212 31.0588 168.859 30.6126C169.505 30.1664 170.616 33.0332 170.616 33.0332C170.616 33.0332 172.367 32.4953 172.635 33.0332C172.904 33.5711 170.842 33.8645 170.842 33.8645C170.842 33.8645 174.423 35.8511 171.08 46.4443L157.687 47.3123H157.681Z" fill="#8B383E"/>
<path d="M157.278 44.0668C157.278 44.0668 155.295 42.0863 155.051 44.403C154.77 47.0864 157.199 48.1684 157.674 47.3126C158.15 46.4568 157.272 44.0668 157.272 44.0668H157.278Z" fill="#FAC39A"/>
<path d="M171.153 44.2074C171.153 44.2074 173.136 42.2269 173.38 44.5436C173.66 47.227 171.232 48.309 170.756 47.4532C170.28 46.5974 171.159 44.2074 171.159 44.2074H171.153Z" fill="#FAC39A"/>
<path d="M164.008 53.7859C159.615 53.7859 157.132 50.9069 157.132 42.2819C157.132 37.832 159.389 35.0996 164.313 35.0996C169.237 35.0996 171.312 37.832 171.312 42.2819C171.312 51.5548 168.548 53.7859 164.008 53.7859Z" fill="#FAC39A"/>
<path d="M169.853 45.356C169.932 45.7962 169.542 46.2363 168.993 46.3341C168.443 46.4319 167.931 46.1507 167.852 45.7045C167.772 45.2644 168.163 44.8242 168.712 44.7264C169.267 44.6286 169.774 44.9098 169.853 45.356Z" fill="#E59A7F"/>
<path d="M160.811 45.6007C160.78 46.047 160.305 46.3831 159.743 46.3465C159.182 46.3098 158.755 45.9186 158.785 45.4663C158.816 45.02 159.292 44.6838 159.853 44.7205C160.414 44.7572 160.841 45.1484 160.811 45.6007Z" fill="#E59A7F"/>
<path d="M167.846 40.8824C167.785 40.8824 167.73 40.858 167.687 40.8152C167.077 40.1734 166.009 40.2039 165.997 40.2039C165.881 40.2039 165.778 40.1123 165.771 39.99C165.771 39.8677 165.863 39.7699 165.985 39.7638C166.034 39.7638 167.266 39.7333 168.011 40.5157C168.096 40.6013 168.09 40.7419 168.005 40.8274C167.962 40.8702 167.907 40.8886 167.852 40.8886L167.846 40.8824Z" fill="#8B383E"/>
<path d="M159.566 40.8817C159.511 40.8817 159.456 40.8634 159.413 40.8206C159.328 40.735 159.322 40.6005 159.407 40.5088C160.152 39.7264 161.384 39.757 161.433 39.757C161.555 39.757 161.647 39.8609 161.647 39.9832C161.647 40.1054 161.537 40.1971 161.421 40.1971C161.415 40.1971 160.335 40.1727 159.731 40.8084C159.688 40.8512 159.627 40.8756 159.572 40.8756L159.566 40.8817Z" fill="#8B383E"/>
<path d="M167.468 43.2168C167.468 43.7608 167.224 44.2071 166.919 44.2071C166.614 44.2071 166.37 43.7608 166.37 43.2168C166.37 42.6728 166.614 42.2266 166.919 42.2266C167.224 42.2266 167.468 42.6728 167.468 43.2168Z" fill="#1A4850"/>
<path d="M161.592 43.2168C161.592 43.7608 161.348 44.2071 161.043 44.2071C160.738 44.2071 160.494 43.7608 160.494 43.2168C160.494 42.6728 160.738 42.2266 161.043 42.2266C161.348 42.2266 161.592 42.6728 161.592 43.2168Z" fill="#1A4850"/>
<path d="M161.592 49.0727C161.592 49.0727 165.466 49.5739 167.461 48.6143C167.461 48.6143 166.333 51.261 164.215 51.0226C162.098 50.7842 161.592 49.0727 161.592 49.0727Z" fill="#1A4850"/>
<path d="M170.853 45.1847C170.853 45.1847 170.719 40.3924 168.852 36.7126C168.852 36.7126 165.57 38.2347 164.85 37.874C164.13 37.5134 165.539 36.7126 165.539 36.7126C165.539 36.7126 160.127 38.5036 159.797 38.143C159.474 37.7823 161.591 36.7126 161.591 36.7126L158.217 37.874C158.217 37.874 157.18 42.1834 157.607 45.1847C157.607 45.1847 156.155 42.6785 155.978 40.9487C155.801 39.2188 156.558 34.2859 161.64 33.9253C166.723 33.5646 169.572 34.7199 170.835 37.061C172.092 39.3961 171.94 42.2751 170.853 45.1847Z" fill="#8B383E"/>
<path d="M164.77 47.6844C164.343 47.6844 163.91 47.5744 163.776 47.5377L163.898 47.0853C164.362 47.2137 165.082 47.2871 165.24 47.1037C165.295 47.0364 165.271 46.8897 165.179 46.6941C164.545 45.3432 164.41 41.9141 164.404 41.7674L164.874 41.749C164.874 41.7857 165.008 45.2271 165.6 46.4924C165.783 46.8775 165.777 47.1893 165.6 47.4032C165.423 47.6171 165.094 47.6844 164.77 47.6844Z" fill="#E59A7F"/>
<path d="M169.64 54.2742C169.64 54.2742 177.597 79.0181 178.353 99.1531C178.353 99.1531 181.227 99.9477 184.461 95.5344C187.695 91.1211 185.773 56.1813 179.573 50.3621C179.573 50.3621 176.761 49.7203 169.64 54.2742Z" fill="#105E99"/>
<path d="M170.934 58.6024C170.934 58.6024 172.356 55.2894 171.727 53.0155C171.099 50.7416 168.859 53.0155 168.859 53.0155C168.859 53.0155 169.762 56.7381 170.94 58.6024H170.934Z" fill="#0C476B"/>
<path d="M154.966 52.4828C149.097 49.9522 130.127 43.2222 130.127 43.2222C130.127 43.2222 117.344 26.7487 114.745 24.377C114.745 24.377 111.529 26.1985 111.31 29.9761C111.31 29.9761 119.339 46.4863 123.806 51.5292C128.272 56.5721 150.872 67.4771 150.872 67.4771L154.966 52.4889V52.4828Z" fill="#0C476B"/>
<path d="M159.579 54.2742C159.579 54.2742 151.623 79.0181 150.866 99.1531C150.866 99.1531 147.992 99.9477 144.758 95.5344C141.525 91.1211 143.447 56.1813 149.646 50.3621C149.646 50.3621 152.459 49.7203 159.579 54.2742Z" fill="#105E99"/>
<path d="M158.285 58.6024C158.285 58.6024 156.863 55.2894 157.492 53.0155C158.12 50.7416 160.36 53.0155 160.36 53.0155C160.36 53.0155 159.457 56.7381 158.279 58.6024H158.285Z" fill="#0C476B"/>
<path d="M199.807 209.431H184.01C182.905 203.141 184.669 196.839 184.669 196.839L191.893 195.598C192.552 199.577 193.345 201.142 194.437 201.949H194.443C195.243 202.529 196.201 202.725 197.39 203.135C198.751 203.611 199.471 204.473 199.831 205.408C200.545 207.267 199.813 209.424 199.813 209.424L199.807 209.431Z" fill="#662C33"/>
<path d="M199.825 205.415C195.932 205.904 187.371 206.735 187.896 204.48C188.329 202.591 191.941 202.083 194.431 201.955H194.437C195.236 202.536 196.194 202.731 197.384 203.141C198.745 203.618 199.465 204.48 199.825 205.415Z" fill="#8B383E"/>
<path d="M146.9 209.431H131.103C131.103 209.431 130.603 207.952 130.835 206.381C131.024 205.103 131.701 203.77 133.526 203.135C134.892 202.658 135.942 202.481 136.802 201.674C137.736 200.794 138.437 199.162 139.023 195.592L146.247 196.833C146.247 196.833 148.005 203.129 146.906 209.425L146.9 209.431Z" fill="#662C33"/>
<path d="M130.828 206.386C131.017 205.109 131.695 203.776 133.519 203.141C134.886 202.664 135.935 202.487 136.795 201.68C138.797 202.297 141.591 203.428 142.458 205.146C143.666 207.499 134.428 207.126 130.828 206.38V206.386Z" fill="#8B383E"/>
<path d="M260.316 208.3C260.316 208.966 260.248 209.431 260.248 209.431H241.059C241.059 209.052 241.065 208.673 241.083 208.3C241.303 203.269 242.883 198.905 242.883 198.905L247.679 196.839C248.094 199.314 249.156 200.898 250.492 201.931C250.846 202.212 251.212 202.438 251.59 202.634C251.767 202.731 251.944 202.817 252.127 202.896C252.53 203.08 252.939 203.227 253.354 203.349C255.05 203.862 256.758 203.972 257.96 204.156C260.004 204.474 260.316 206.845 260.316 208.288V208.3Z" fill="#164353"/>
<path d="M260.316 208.3C260.316 208.966 260.248 209.431 260.248 209.431H241.059C241.059 209.052 241.065 208.673 241.083 208.3H260.316Z" fill="#225866"/>
<path d="M251.591 202.64L248.93 203.496L248.369 202.518L250.499 201.938C250.852 202.219 251.219 202.445 251.597 202.64H251.591Z" fill="#225866"/>
<path d="M253.347 203.361L251.554 204.553L250.449 204.119L252.121 202.902C252.524 203.086 252.933 203.232 253.347 203.355V203.361Z" fill="#225866"/>
<path d="M186.986 208.301C186.938 208.955 186.767 209.432 186.767 209.432H173.984C173.819 209.059 173.703 208.686 173.624 208.301C172.367 202.17 180.86 194.676 180.86 194.676L183.557 198.282C183.557 198.282 183.246 204.053 185.528 205.251C186.895 205.972 187.072 207.329 186.986 208.307V208.301Z" fill="#164353"/>
<path d="M173.631 208.301H186.987C186.938 208.955 186.767 209.432 186.767 209.432H173.985C173.82 209.059 173.704 208.686 173.625 208.301H173.631Z" fill="#225866"/>
<path d="M184.949 204.787C184.949 204.787 179.561 203.558 177.108 205.147V204.255C177.108 204.255 181.636 202.048 184.949 204.781V204.787Z" fill="#225866"/>
<path d="M183.881 203.418C183.881 203.418 180.44 201.841 177.108 203.418L177.487 202.519C177.487 202.519 181.471 201.009 183.881 203.418Z" fill="#225866"/>
<path d="M254.525 153.819C254.531 158.972 249.967 200.966 249.967 200.966C245.403 201.418 241.742 200.502 241.742 200.502C240.491 179.217 240.369 160.916 240.369 160.916L218.489 144.485L218.434 144.443C218.434 144.443 218.355 144.816 218.202 145.482C217.116 150.299 212.534 170.482 210.624 175.104C208.452 180.373 184.674 202.519 184.674 202.519C180.257 201.907 176.51 198.704 176.51 198.704C185.046 184.523 196.682 170.293 196.682 170.293C197.591 165.183 198.238 153.813 198.628 145.317C198.635 145.188 198.641 145.054 198.647 144.926C198.903 139.174 199.031 134.828 199.031 134.828L195.022 126.588L220.502 117.211L226.214 124.534C226.214 124.534 227.519 125.75 229.582 127.688C229.679 127.774 229.771 127.865 229.868 127.951C237.514 135.176 254.531 151.509 254.531 153.813L254.525 153.819Z" fill="#8BBDDB"/>
<path d="M198.623 145.323C198.629 145.195 198.635 145.06 198.641 144.932C204.004 142.016 203.107 137.358 203.089 137.309L203.419 137.242C203.431 137.291 204.395 142.291 198.617 145.323H198.623Z" fill="#7A60B2"/>
<path d="M218.093 141.198C218.276 142.219 218.41 143.313 218.483 144.486L218.428 144.444C218.428 144.444 218.349 144.816 218.197 145.483C217.959 137.5 214.676 132.787 214.633 132.732L214.914 132.536C214.951 132.579 217.019 135.574 218.026 140.807C221.9 137.359 218.105 130.293 218.068 130.226L218.367 130.061C218.41 130.134 222.425 137.616 218.099 141.192L218.093 141.198Z" fill="#7A60B2"/>
<path d="M229.857 127.957C229.857 127.957 229.839 127.963 229.832 127.969C229.674 128.03 229.491 128.055 229.302 128.055C227.422 128.055 224.274 125.42 224.127 125.292L224.353 125.035C225.378 125.903 228.228 127.988 229.576 127.688C229.674 127.774 229.765 127.865 229.863 127.951L229.857 127.957Z" fill="#7A60B2"/>
<path d="M196.798 82.6617C196.798 82.6617 204.547 81.4147 208.434 83.8903C212.321 86.366 217.415 92.8453 217.415 92.8453C217.415 92.8453 211.363 93.6461 210.679 97.766C210.679 97.766 206.28 87.2767 196.804 82.6617H196.798Z" fill="#ADBEC4"/>
<path d="M185.145 86.708C181.868 88.4806 176.389 95.1495 176.139 99.2511C175.895 103.249 178.854 106.929 180.849 110.052C187.067 119.808 193.62 128.427 196.402 139.869C196.42 139.943 210.625 145.591 227.3 125.511C227.3 125.511 217.879 112.809 214.621 101.996C213.297 97.5945 211.949 92.9184 209.404 89.043C206.604 84.7703 201.802 82.258 196.805 82.6614C192.576 83.0037 188.378 84.9597 185.145 86.708Z" fill="#CFD8DC"/>
<path d="M183.765 82.6189C183.765 82.6189 185.864 86.207 184.894 88.1813C184.894 88.1813 192.087 90.6692 192.087 86.6349C192.087 86.6349 190.733 83.6091 191.239 81.6592L183.759 82.6189H183.765Z" fill="#F3B282"/>
<path d="M199.758 107.198C199.758 107.198 195.755 108.335 194.748 109.759C193.735 111.178 192.838 114.362 192.838 114.362H199.758L201.057 111.966L202.583 108.769L199.758 107.204V107.198Z" fill="#FAC39A"/>
<path d="M193.138 78.6155C193.138 78.6155 195.951 77.4358 194.132 68.9698C192.93 63.3584 191.191 62.521 190.075 62.4721C190.075 62.4721 188.702 60.3999 183.943 61.3901C180.684 62.0686 178.085 64.0491 176.938 67.7228C175.742 71.5493 178.134 79.7586 181.282 80.5776L193.144 78.6155H193.138Z" fill="#164353"/>
<path d="M193.802 72.8946C193.802 72.8946 195.572 70.4251 196.243 72.858C197.018 75.6759 194.608 77.2652 193.949 76.4338C193.29 75.6025 193.802 72.8946 193.802 72.8946Z" fill="#FAC39A"/>
<path d="M178.988 75.4986C178.988 75.4986 176.517 73.7321 176.67 76.2505C176.841 79.1723 179.635 79.8936 179.989 78.8973C180.349 77.9009 178.988 75.4986 178.988 75.4986Z" fill="#FAC39A"/>
<path d="M188.318 84.4776C193.022 83.7013 195.17 80.1866 193.65 70.9565C192.869 66.1948 189.965 63.6764 184.699 64.5443C179.434 65.4123 177.695 68.7009 178.476 73.4627C180.111 83.3835 183.461 85.2845 188.318 84.4776Z" fill="#FAC39A"/>
<path d="M180.575 76.4942C180.575 76.9832 181.063 77.3806 181.667 77.3867C182.277 77.3867 182.771 77.0016 182.777 76.5126C182.777 76.0235 182.295 75.6262 181.685 75.6201C181.075 75.6201 180.581 76.0052 180.575 76.4942Z" fill="#E59A7F"/>
<path d="M190.295 75.1556C190.404 75.6324 190.972 75.9014 191.564 75.7669C192.156 75.6263 192.546 75.1312 192.436 74.6605C192.326 74.1837 191.759 73.9148 191.161 74.0492C190.569 74.1898 190.179 74.6849 190.289 75.1556H190.295Z" fill="#E59A7F"/>
<path d="M181.898 71.354C181.849 71.354 181.807 71.3418 181.764 71.3112C181.654 71.2378 181.63 71.0911 181.703 70.9811C182.362 70.0153 183.68 69.8319 183.735 69.8197C183.875 69.8014 183.985 69.8931 184.003 70.0275C184.022 70.1559 183.93 70.2782 183.802 70.2965C183.79 70.2965 182.637 70.4615 182.1 71.2501C182.051 71.3173 181.978 71.354 181.904 71.354H181.898Z" fill="#1A4850"/>
<path d="M190.751 69.8927C190.703 69.8927 190.654 69.8744 190.605 69.8438C189.842 69.2692 188.701 69.4832 188.689 69.4893C188.561 69.5199 188.433 69.4282 188.408 69.2998C188.384 69.1714 188.469 69.0431 188.598 69.0186C188.653 69.0064 189.964 68.7558 190.892 69.4648C190.996 69.5443 191.02 69.691 190.941 69.801C190.892 69.8622 190.825 69.8988 190.751 69.8988V69.8927Z" fill="#1A4850"/>
<path d="M182.759 73.786C182.857 74.3728 183.198 74.8007 183.522 74.7457C183.845 74.6907 184.028 74.1772 183.936 73.5904C183.839 73.0036 183.497 72.5757 183.174 72.6307C182.85 72.6858 182.667 73.1992 182.759 73.786Z" fill="#1A4850"/>
<path d="M189.037 72.747C189.135 73.3338 189.477 73.7617 189.8 73.7066C190.123 73.6516 190.306 73.1382 190.215 72.5514C190.117 71.9645 189.775 71.5367 189.452 71.5917C189.129 71.6467 188.946 72.1602 189.037 72.747Z" fill="#1A4850"/>
<path d="M190.801 78.0586C190.801 78.0586 186.719 79.1528 184.461 78.7188C184.461 78.7188 186.023 80.6931 188.257 80.1247C190.49 79.5562 190.801 78.0586 190.801 78.0586Z" fill="#1A4850"/>
<path d="M190.99 66.6709C190.99 66.6709 185.681 70.5218 179.019 70.8152L179.208 76.7567C179.208 76.7567 172.996 65.2955 185.279 63.26C197.561 61.2306 193.986 74.0366 193.986 74.0366C193.986 74.0366 193.607 68.5169 190.99 66.6709Z" fill="#0E3944"/>
<path d="M186.651 76.4634L186.615 75.95C186.615 75.95 187.328 75.8949 187.511 75.4548C187.585 75.2715 187.286 74.6969 187.017 74.1895C186.645 73.4805 186.187 72.6002 185.992 71.6283L186.499 71.5244C186.682 72.4291 187.121 73.2726 187.475 73.9511C187.871 74.703 188.152 75.2531 187.987 75.6566C187.682 76.3901 186.688 76.4634 186.645 76.4634H186.651Z" fill="#E59A7F"/>
<path d="M193.87 66.6837C184.943 62.8022 176.517 70.8525 176.517 70.8525C176.517 70.8525 175.535 64.3303 177.255 62.8022C177.701 62.3988 178.183 62.0503 178.683 61.7386C182.625 59.2508 187.866 59.2935 190.276 60.1493C190.77 60.3266 191.149 60.5344 191.368 60.7606C192.79 62.2398 193.876 66.6837 193.876 66.6837H193.87Z" fill="#8B36CE"/>
<path d="M192.79 65.235C192.79 65.235 185.291 63.7496 178.299 68.383C178.299 68.383 177.853 64.1775 178.683 61.7386C182.625 59.2508 187.866 59.2935 190.276 60.1493C191.679 61.7508 192.79 65.235 192.79 65.235Z" fill="#CFD8DC"/>
<path d="M177.255 70.0883C177.255 70.0883 178.444 65.0331 180.043 63.6028C182.709 61.2311 190.196 60.4181 194.125 61.8423C198.055 63.2666 194.125 67.576 194.125 67.576C194.125 67.576 187.853 63.0771 177.249 70.0883H177.255Z" fill="#A02E44"/>
<path d="M188.836 103.695C188.836 103.695 191.899 108.451 197.122 111.251C197.122 111.251 203.65 105.572 212.119 106.085C212.119 106.085 205.102 118.769 199.074 120.175C195.907 120.915 184.461 113.317 184.461 113.317C184.461 113.317 186.749 105.242 188.836 103.701V103.695Z" fill="#FAC39A"/>
<path d="M177.548 95.0766C180.355 90.5044 186.823 97.265 189.025 102.094C191.228 106.923 192.833 107.95 192.833 107.95C192.833 107.95 186.365 110.658 186.414 115.511C186.414 115.511 171.428 105.065 177.548 95.0828V95.0766Z" fill="#ADBEC4"/>
<path d="M197.115 109.16C197.115 109.16 201.051 105.291 214.004 100.236L212.333 94.9668C213.815 93.0107 216.549 93.0107 216.549 93.0107C216.549 93.0107 223.181 102.394 222.04 105.199C221.326 106.948 207.488 108.787 197.115 109.16Z" fill="#FAC39A"/>
<path d="M211.301 101.501C211.301 101.501 211.405 100.945 211.881 100.272C212.357 99.5938 212.229 98.3652 212.4 97.9801C212.57 97.6011 213.589 96.0363 214.267 95.7367C214.944 95.4311 215.829 94.936 216.018 95.7979C216.207 96.6598 214.81 96.4153 214.181 97.65C214.181 97.65 215.554 97.2038 216.646 97.4605C217.738 97.7172 218.043 98.7197 216.701 98.683C215.627 98.6586 214.242 99.4227 214.242 99.4227C214.242 99.4227 215.646 99.6366 215.42 100.278C215.109 101.171 213.4 100.621 211.307 101.495L211.301 101.501Z" fill="#FAC39A"/>
<path d="M115.533 119.172C116.692 122.143 121.433 127.229 121.433 127.229C121.433 127.229 133.014 120.273 138.359 123.201C143.704 126.129 147.95 127.914 151.416 126.636C154.882 125.358 140.018 98.2856 140.018 98.2856L120.749 90.9199C120.749 90.9199 120.328 95.8039 118.126 96.6719C115.923 97.5399 113.574 105.596 113.733 107.124C113.891 108.653 115.527 119.172 115.527 119.172H115.533Z" fill="#3E6575"/>
<path d="M137.211 127.406C137.211 127.406 132.245 137.162 121.988 149.656C121.988 149.656 120.938 164.516 93.8109 187.897L90.9736 185.659C90.9736 185.659 107.124 160.31 110.358 152.535C113.592 144.76 108.571 137.639 123.434 117.98L137.211 127.4V127.406Z" fill="#FAC39A"/>
<path d="M121.396 110.144C117.119 118.353 115.685 128.842 115.685 128.842L113.738 133.763C113.738 133.763 120.645 137.498 128.626 138.855L131.823 130.37L121.396 110.144Z" fill="#662C33"/>
<path d="M143.704 126.642C143.704 126.642 145.821 137.388 145.473 153.562C145.473 153.562 153.82 165.891 146.931 201.069H143.319C143.319 201.069 140.366 171.142 138.109 163.03C135.851 154.919 127.51 152.431 127.059 127.772L143.704 126.642Z" fill="#FAC39A"/>
<path d="M145.821 138.175C145.821 138.175 139.024 139.398 127.058 138.835L126.869 137.484L126.82 137.136L125.582 128.395C125.582 128.395 124.429 126.971 123.245 124.648C123.105 124.379 122.964 124.098 122.83 123.804C121.219 120.363 119.785 115.363 121.396 110.143L123.922 110.259L124.276 110.277L132.733 110.662L133.093 110.68L135.869 110.809L136.302 110.827L138.102 110.907C138.102 110.907 147.261 119.165 145.625 134.434L145.741 136.561L145.754 136.91L145.821 138.163V138.175Z" fill="#8B383E"/>
<path d="M124.277 110.284C124.039 110.981 122.44 116.17 123.245 124.648C123.105 124.379 122.965 124.098 122.831 123.805C122.226 116.048 123.618 111.207 123.923 110.259C123.965 110.143 123.984 110.088 123.984 110.082L124.301 110.198C124.301 110.198 124.289 110.235 124.277 110.278V110.284Z" fill="#662C33"/>
<path d="M145.754 136.916C143.35 137.533 139.268 137.704 135.394 137.704C131.916 137.704 128.621 137.564 126.864 137.478L126.815 137.13C129.854 137.277 137.865 137.594 143.027 137.026L142.697 131.561C142.777 125.186 140.855 119.746 139 115.986C134.295 115.131 133.002 111.64 132.727 110.656C132.685 110.497 132.666 110.405 132.666 110.399L132.996 110.344C132.996 110.344 133.02 110.473 133.081 110.674C133.386 111.695 134.643 114.727 138.798 115.595C137.548 113.144 136.358 111.469 135.857 110.803C135.711 110.601 135.613 110.485 135.607 110.479L135.864 110.259C135.864 110.259 136.034 110.461 136.291 110.821C137.865 112.961 143.167 120.999 143.033 131.543L143.362 136.977C144.265 136.867 145.071 136.733 145.736 136.555L145.748 136.904L145.754 136.916Z" fill="#662C33"/>
<path d="M128.45 73.3207C125.753 71.8354 106.326 79.4639 106.326 79.4639C106.326 79.4639 103.452 84.5985 105.246 86.6157C107.039 88.6267 113.397 87.7404 115.344 86.6157C117.29 85.491 122.452 84.6352 122.452 84.6352L128.456 73.3146L128.45 73.3207Z" fill="#A58BDB"/>
<path d="M145.626 57.1168C145.626 57.1168 149.641 58.6694 151.105 63.3028C152.576 67.9361 148.183 79.6601 149.702 85.0515C151.221 90.4428 150.983 100.62 146.248 102.772C141.514 104.924 131.794 101.073 129.707 95.1923C127.62 89.312 128.523 67.0253 132.532 59.4518C136.541 51.8721 144.662 55.6925 145.626 57.1168Z" fill="#AC1F29"/>
<path d="M141.019 77.1052C142.074 78.2483 144.802 76.2128 144.802 76.2128C144.802 76.2128 144.747 86.3231 141.812 87.0933C138.877 87.8696 131.403 79.1285 131.714 76.7568C132.025 74.3851 138.676 74.5685 141.019 77.1052Z" fill="#A58BDB"/>
<path d="M129.712 74.5801C129.712 74.5801 132.678 77.1046 137.846 78.3027C143.014 79.5007 145.814 77.0679 148.456 80.4054C152.422 85.4178 145.967 94.6539 142.574 99.4401C141.311 101.225 138.639 106.176 138.096 110.92C138.096 110.92 129.126 113.53 121.396 110.143L120.816 99.1223C120.816 99.1223 115.941 84.2686 129.706 74.5801H129.712Z" fill="#0E3944"/>
<path d="M138.98 85.3023C138.98 85.3023 143.075 75.5221 144.264 74.8986C145.448 74.2752 148.462 75.7728 149.066 77.1114C149.67 78.4501 149.066 81.3658 149.066 81.3658C149.066 81.3658 145.833 77.6738 138.98 85.3023Z" fill="#A58BDB"/>
<path d="M158.603 126.636C156.742 130.457 152.166 131.557 152.166 131.557C152.166 131.557 151.819 131.025 151.239 130.078C151.178 129.98 151.111 129.876 151.05 129.766C147.45 123.922 136.461 105.224 136.674 95.4985C136.925 83.8784 144.491 77.5029 144.491 77.5029C148.335 78.4198 149.543 79.4712 149.543 79.4712C149.543 79.4712 150.836 86.0789 149.652 94.0376C148.469 101.984 146.315 104.087 147.395 104.686C148.475 105.279 147.395 106.465 147.395 106.465C147.395 106.465 153.771 115.365 154.961 118.134C155.736 119.937 157.048 123.005 157.865 124.919C157.92 125.053 157.975 125.188 158.03 125.31C158.378 126.117 158.597 126.642 158.597 126.642L158.603 126.636Z" fill="#7A60B2"/>
<path d="M147.535 79.4707C147.535 79.4707 142.971 82.8632 145.631 88.0406L158.28 101.164C151.336 108.579 150.647 111.623 145.631 115.04L147.535 117.999C147.535 117.999 165.113 104.465 165.138 101.171C165.15 99.7585 154.399 82.7043 147.535 79.4829V79.4707Z" fill="#FAC39A"/>
<path d="M145.351 115.034C145.351 115.034 142.941 115.303 141.422 115.682C139.902 116.061 137.877 116.44 137.816 116.758C137.755 117.076 141.172 116.758 141.172 116.758C141.172 116.758 138.389 117.901 138.322 118.348C138.261 118.788 141.867 118.03 141.867 118.03C141.867 118.03 139.591 119.423 139.713 119.802C139.841 120.181 142.648 119.234 142.648 119.234C142.648 119.234 142.123 120.566 141.587 121.196C141.587 121.196 142.13 121.496 143.234 120.267C144.338 119.038 146.096 119.436 147.493 118.348C148.884 117.259 146.626 114.869 145.357 115.034H145.351Z" fill="#FAC39A"/>
<path d="M132.422 76.2064C132.422 76.2064 128.95 78.4559 126.754 83.8839C124.563 89.3119 117.638 99.5322 116.021 102.167C114.398 104.807 115.527 119.172 115.527 119.172C115.527 119.172 113.495 110.462 112.592 107.069C111.689 103.677 115.509 95.2901 116.082 94.8438C116.656 94.3976 119.591 95.2106 119.029 91.8059C118.468 88.4011 126.339 73.7308 128.444 73.3213C128.444 73.3213 131.812 73.957 132.422 76.2003V76.2064Z" fill="#7A60B2"/>
<path d="M121.689 76.9401C121.628 77.0562 121.561 77.1724 121.482 77.2824C120.695 78.4132 119.23 79.3179 119.23 79.3179C119.23 79.3179 116.582 83.0344 116.552 83.4622C116.527 83.829 111.951 87.1543 109.919 87.087H109.913C109.632 87.0809 109.407 87.0076 109.242 86.8548C108.034 85.7117 113.348 76.1454 114.52 74.0855C114.593 73.951 114.654 73.8471 114.697 73.7798C114.721 73.7248 114.745 73.6943 114.745 73.6943C114.745 73.6943 113.812 70.204 117.711 70.858C120.957 71.3959 121.598 73.9816 121.939 75.7114C122.019 76.1271 121.903 76.5489 121.689 76.9462V76.9401Z" fill="#7A60B2"/>
<path d="M108.064 80.5588C110.743 77.0318 120.176 70.1856 125.142 68.1562L126.387 70.4668C126.387 70.4668 116.789 78.9206 114.532 82.5393C112.274 86.1579 109.486 87.6494 106.813 86.4452C104.147 85.241 107.503 81.2984 108.064 80.5527V80.5588Z" fill="#FAC39A"/>
<path d="M120.749 76.213L120.243 76.7937L119.987 77.0932L119.145 78.059C119.145 78.059 117.034 80.6263 117.113 81.6532C117.174 82.3929 113.104 85.7059 109.919 87.0812C108.626 87.6436 107.472 87.8881 106.801 87.503C104.501 86.1705 105.014 82.1728 106.319 79.4649C107.46 77.1054 112.488 74.0552 113.788 73.3095C113.952 73.2056 114.05 73.1445 114.087 73.1322H114.093L114.575 71.2495C114.575 71.2495 116.332 70.1921 117.711 70.84C117.711 70.84 114.66 70.9684 115.167 72.1542C115.679 73.3462 119.907 76.158 120.756 76.2008L120.749 76.213Z" fill="#A58BDB"/>
<path d="M131.818 66.4205C128.749 67.6858 129.188 70.4671 126.375 70.4671C124.636 70.4671 124.404 68.4744 124.404 68.4744C125.191 66.7689 125.692 63.8654 125.802 62.484C125.917 61.1025 126.375 61.6343 126.375 61.6343C126.375 61.506 126.369 61.3837 126.363 61.2615C126.32 60.3323 126.155 59.6538 126.759 60.0512C127.449 60.4974 127.687 63.1319 127.687 63.1319C128.254 59.2932 127.406 58.7186 128.071 59.0609C128.98 59.5255 128.987 62.918 128.987 63.0158C129.719 60.7847 129.524 59.5071 130.03 60.0145C130.542 60.5279 129.774 64.6295 129.469 66.1332C129.401 66.4755 129.353 66.6834 129.353 66.6834C131.787 65.4914 131.812 66.4205 131.812 66.4205H131.818Z" fill="#FAC39A"/>
<path d="M129.474 66.1328C129.407 66.4751 129.359 66.6829 129.359 66.6829C129.359 66.6829 128.236 66.5729 127.412 67.7893C127.412 67.7893 127.644 66.1634 129.474 66.1328Z" fill="#EFDAEE"/>
<path d="M126.552 64.3855C126.57 64.0616 126.71 62.1911 126.381 61.6287C126.381 61.5004 126.375 61.3781 126.369 61.2559C127.07 61.4026 126.625 63.9882 126.552 64.3855Z" fill="#EFDAEE"/>
<path d="M128.456 80.5775C128.456 80.5775 130.53 74.9478 131.189 73.6886C131.848 72.4294 135.283 72.6495 137.889 73.1324C140.488 73.6214 141.019 77.1056 141.019 77.1056C141.019 77.1056 133.105 73.3646 128.456 80.5775Z" fill="#A58BDB"/>
<path d="M141.806 69.4945C141.806 69.4945 139.322 74.0912 139.359 79.1891C139.359 79.1891 135.326 81.9398 133.88 78.4923C133.88 78.4923 135.411 73.9812 134.673 67.8991C134.179 63.822 141.806 69.4945 141.806 69.4945Z" fill="#F3B282"/>
<path d="M133.887 63.1132C133.887 63.1132 133.149 60.4787 131.837 62.3308C130.318 64.4764 131.867 66.5608 132.679 66.0656C133.491 65.5705 133.887 63.1132 133.887 63.1132Z" fill="#FAC39A"/>
<path d="M145.615 69.8918C145.615 69.8918 148.244 69.1583 147.347 71.2427C146.304 73.6571 143.723 73.4126 143.723 72.4591C143.723 71.5055 145.615 69.8918 145.615 69.8918Z" fill="#FAC39A"/>
<path d="M134.961 74.6047C131.221 72.4958 130.488 68.8588 134.613 61.5237C136.742 57.7399 139.964 56.5052 144.156 58.8647C148.342 61.2241 148.799 64.5433 146.676 68.327C142.246 76.2123 138.829 76.7869 134.967 74.6047H134.961Z" fill="#FAC39A"/>
<path d="M143.961 70.2457C143.814 70.6614 143.278 70.8448 142.765 70.6614C142.246 70.478 141.947 69.9951 142.094 69.5795C142.24 69.1638 142.777 68.9804 143.29 69.1638C143.808 69.3472 144.107 69.8301 143.961 70.2457Z" fill="#E59A7F"/>
<path d="M136.157 66.1134C135.919 66.4802 135.351 66.5352 134.893 66.2357C134.436 65.9361 134.259 65.3982 134.497 65.0253C134.735 64.6586 135.302 64.6036 135.76 64.9031C136.218 65.2026 136.394 65.7405 136.157 66.1134Z" fill="#E59A7F"/>
<path d="M144.497 65.5022C144.4 65.5022 144.314 65.435 144.29 65.3372C144.076 64.4998 143.155 64.0108 143.143 64.0046C143.039 63.9496 142.996 63.8213 143.051 63.7173C143.106 63.6134 143.234 63.5706 143.338 63.6257C143.381 63.6501 144.443 64.2125 144.699 65.2333C144.729 65.3494 144.656 65.4656 144.546 65.4961C144.528 65.4961 144.51 65.5022 144.491 65.5022H144.497Z" fill="#1A4850"/>
<path d="M139.367 61.8411C139.33 61.8411 139.294 61.8288 139.257 61.8105C139.251 61.8105 138.348 61.2665 137.524 61.5232C137.408 61.5599 137.292 61.4926 137.256 61.3826C137.219 61.2665 137.286 61.1503 137.396 61.1137C138.403 60.808 139.434 61.4193 139.477 61.4499C139.58 61.511 139.611 61.6455 139.55 61.7433C139.507 61.8105 139.44 61.8472 139.367 61.8472V61.8411Z" fill="#1A4850"/>
<path d="M142.954 67.2815C142.691 67.7461 142.27 68.0028 142.014 67.8622C141.758 67.7155 141.758 67.2204 142.02 66.7559C142.283 66.2913 142.704 66.0346 142.96 66.1752C143.216 66.3219 143.216 66.817 142.954 67.2815Z" fill="#1A4850"/>
<path d="M137.713 64.4642C137.45 64.9287 137.029 65.1854 136.773 65.0449C136.517 64.8982 136.517 64.403 136.779 63.9385C137.041 63.4739 137.462 63.2172 137.719 63.3578C137.975 63.5045 137.975 63.9996 137.713 64.4642Z" fill="#1A4850"/>
<path d="M135.894 69.2376C135.894 69.2376 138.042 70.8757 139.592 70.9246C139.592 70.9246 137.944 72.2694 136.761 71.3953C135.577 70.5212 135.9 69.2314 135.9 69.2314L135.894 69.2376Z" fill="#1A4850"/>
<path d="M141.825 66.3406C141.825 66.3406 142.808 65.3871 143.21 65.7233C143.613 66.0594 143.4 67.2331 143.4 67.2331L144.26 67.2575L143.546 66.9702C143.546 66.9702 143.778 65.7538 143.333 65.4971C142.704 65.1364 141.819 66.3406 141.819 66.3406H141.825Z" fill="#1A4850"/>
<path d="M138.116 64.4337C138.116 64.4337 138.421 63.0951 137.927 62.9239C137.433 62.7527 136.542 63.5413 136.542 63.5413L136.078 62.8139L136.694 63.2723C136.694 63.2723 137.616 62.441 138.061 62.6916C138.696 63.0462 138.128 64.4276 138.128 64.4276L138.116 64.4337Z" fill="#1A4850"/>
<path d="M145.144 60.4355C145.144 60.4355 143.808 58.5711 141.953 60.0504C140.104 61.5296 135.931 63.9013 133.881 63.1189C131.831 62.3365 138.372 53.5771 144.052 56.1444C149.733 58.7117 149.22 67.0616 146.859 69.7144C144.498 72.3673 145.614 69.8978 145.614 69.8978C145.614 69.8978 145.773 66.1325 146.56 63.6324C147.347 61.1384 145.144 60.4355 145.144 60.4355Z" fill="#8B383E"/>
<path d="M138.848 68.3819C138.744 68.3819 138.634 68.3697 138.524 68.3391L138.64 67.8868C139.025 67.9846 139.208 67.8195 139.299 67.6667C139.427 67.4467 139.409 67.1655 139.305 67.0616C139.244 67.0005 139.147 67.0066 139.006 67.0799L138.793 66.6704C139.263 66.4259 139.543 66.6398 139.641 66.7437C139.897 67.0127 139.922 67.52 139.696 67.9051C139.513 68.2169 139.208 68.3819 138.848 68.3819Z" fill="#E59A7F"/>
<path d="M166.225 100.639C165.999 103.928 157.872 114.649 156.517 115.028C156.163 115.126 155.803 115.321 155.468 115.548C155.327 115.652 155.181 115.755 155.047 115.866C154.272 116.489 153.692 117.21 153.692 117.21C151.318 117.051 144.662 113.964 146.803 113.286C146.931 113.243 147.072 113.17 147.23 113.06C147.316 112.999 147.413 112.931 147.511 112.84C150.031 110.725 154.937 102.13 154.967 101.476C154.992 100.761 155.84 100.627 155.84 100.627C155.84 100.627 151.215 93.8173 148.53 92.9982C145.845 92.1791 144.491 88.9272 144.491 88.9272C141.843 77.6983 149.543 79.4587 149.543 79.4587C155.217 82.8451 166.444 97.3259 166.218 100.627L166.225 100.639Z" fill="#A58BDB"/>
<path d="M155.468 115.548C155.327 115.652 155.181 115.756 155.047 115.866C151.41 115.615 148.359 113.824 147.23 113.06C147.316 112.999 147.414 112.932 147.511 112.84C148.725 113.634 151.825 115.407 155.474 115.542L155.468 115.548Z" fill="#3E6575"/>
<path d="M121.689 76.9405C121.628 77.0566 121.561 77.1728 121.481 77.2828C120.963 77.2644 120.462 77.2033 119.993 77.0994C117.589 76.6104 115.74 75.2595 114.526 74.0859C114.245 73.8169 114.007 73.5541 113.793 73.3218C113.958 73.2179 114.056 73.1568 114.092 73.1445C114.269 73.3401 114.471 73.5602 114.703 73.7802C115.911 74.9661 117.784 76.3537 120.249 76.7999C120.707 76.8855 121.189 76.9344 121.689 76.9405Z" fill="#3E6575"/>
<path d="M158.036 125.309C156.919 127.204 154.851 129.49 151.239 130.083C151.178 129.985 151.111 129.881 151.05 129.771C154.753 129.215 156.81 126.807 157.871 124.918C157.926 125.052 157.981 125.187 158.036 125.309Z" fill="#3E6575"/>
<path d="M96.3862 187.059C96.3862 187.059 95.5381 187.896 94.6594 189.424C93.7808 190.959 94.7449 192.371 90.486 195.928C90.486 195.928 81.8889 190.885 78.0083 184.406C78.0083 184.406 78.0754 182.554 79.9547 182.12C80.9615 181.888 83.7438 183.19 86.4101 183.697C86.7884 183.764 87.1667 183.825 87.5389 183.856C88.0088 183.899 88.4664 183.905 88.9057 183.85C89.3145 183.807 89.6989 183.721 90.0589 183.569H90.065C90.9741 183.196 91.688 182.456 92.0663 181.16C92.0663 181.16 94.3483 182.462 92.8229 184.669C92.8229 184.669 95.532 183.483 96.3862 187.065V187.059Z" fill="#CFD8DC"/>
<path d="M90.486 195.929C90.486 195.929 81.8889 190.886 78.0083 184.407C78.0083 184.407 79.4483 184.101 80.6442 186.247C81.834 188.398 91.1877 193.276 90.486 195.929Z" fill="#ADBEC4"/>
<path d="M90.5171 185.733C89.8215 186.839 89.8337 184.797 88.9062 183.838C89.3151 183.795 89.6995 183.709 90.0594 183.557H90.0655C90.4805 184.003 91.0662 184.865 90.5171 185.727V185.733Z" fill="#ADBEC4"/>
<path d="M87.8133 185.793C87.075 186.49 86.837 184.668 86.4038 183.69C86.7821 183.758 87.1604 183.819 87.5326 183.849C87.9658 184.442 88.3746 185.261 87.8133 185.799V185.793Z" fill="#ADBEC4"/>
<path d="M149.274 209.431H137.114C137.114 209.431 136.607 207.732 137.114 205.868C137.333 205.061 138.59 204.309 139.762 203.257C140.085 202.964 140.396 202.658 140.689 202.316C140.921 202.047 141.129 201.748 141.306 201.43C141.531 201.045 141.708 200.623 141.806 200.158C142.001 199.235 141.928 198.147 141.397 196.845C141.397 196.845 145.534 195.977 147.01 198.239C147.01 198.239 147.151 197.194 148.469 197.891C148.469 197.891 148.28 199.987 148.536 201.748C148.792 203.496 150.427 204.009 149.268 209.437L149.274 209.431Z" fill="#CFD8DC"/>
<path d="M146.107 202.096C145.998 202.218 145.851 202.279 145.699 202.279C145.57 202.279 145.448 202.236 145.339 202.157C144.71 201.656 143.319 200.873 141.299 201.423C141.525 201.038 141.702 200.617 141.8 200.152C142.611 199.852 144.143 199.675 146.034 201.295C146.278 201.497 146.315 201.857 146.101 202.096H146.107Z" fill="#ADBEC4"/>
<path d="M145.082 204.119L145.015 204.223C144.85 204.473 144.527 204.553 144.271 204.406C143.447 203.917 141.586 202.994 139.762 203.257C140.085 202.963 140.396 202.658 140.689 202.316C141.592 202.108 143.288 201.992 144.966 203.379C145.186 203.563 145.247 203.88 145.088 204.119H145.082Z" fill="#ADBEC4"/>
<path opacity="0.25" d="M157 217C224.379 217 279.001 213.866 279.001 210C279.001 206.134 224.379 203 157 203C89.6217 203 35.0005 206.134 35.0005 210C35.0005 213.866 89.6217 217 157 217Z" fill="#231F20"/>
</g>
</g>
<defs>
<clipPath id="clip0_834_264700">
<rect width="300" height="225" fill="white" transform="translate(0.000488281)"/>
</clipPath>
<clipPath id="clip1_834_264700">
<rect width="300" height="300" fill="white" transform="translate(0.000488281 -43)"/>
</clipPath>
</defs>
</svg>
