<svg width="300" height="225" viewBox="0 0 300 225" fill="none" xmlns="http://www.w3.org/2000/svg">
<g clip-path="url(#clip0_834_264706)">
<rect width="300" height="225" fill="#D9D9D9"/>
<g clip-path="url(#clip1_834_264706)">
<path d="M300 -75H0V225H300V-75Z" fill="#EFDAEE"/>
<path d="M146.522 50.7528L114.558 -2.59277H55L124.488 94.8042L146.522 50.7528Z" fill="#FAA7AF"/>
<path d="M215.793 32.8042C218.357 29.7633 220.623 27.0106 222.47 24.6589L244.82 -2.59277H177.481C177.481 -2.59277 122.347 81.942 120.721 88.2177C119.094 94.4934 113.08 131.224 121.599 155.804C121.599 155.804 130.993 182.812 132.619 185.835C134.245 188.858 154.469 208.677 155.983 208.181C157.492 207.685 160.916 205.595 158.041 200.247C158.041 200.247 166.326 210.911 168.881 209.546C171.435 208.181 171.67 201.18 167.719 195.832C163.768 190.485 152.378 166.698 154.235 150.231C156.095 133.769 161.177 149.781 161.177 149.781C161.177 149.781 169.111 171.892 172.134 175.379C175.157 178.866 180.036 178.402 182.131 176.776C184.221 175.149 170.043 134.238 169.579 131.449C169.115 128.66 162.047 109.581 162.43 99.9221C162.727 92.3895 197.101 54.9876 215.798 32.8178L215.793 32.8042Z" fill="#FAC39A"/>
<path d="M168.606 168.693C168.606 168.693 163.574 177.73 158.961 177.64C154.347 177.55 141.417 167.778 141.417 167.778C141.417 167.778 135.637 152.641 136.687 151.488C137.737 150.33 144.152 151.172 146.463 153.592C148.774 156.011 150.707 159.584 150.707 159.584C150.707 159.584 152.356 159.07 154.401 159.696L154.347 159.268C154.347 159.268 152.852 143.09 156.438 141.802C156.438 141.802 158.289 142.05 162.803 154.204C167.169 165.949 168.602 168.698 168.602 168.698L168.606 168.693Z" fill="#FAA7AF"/>
<path d="M127.98 160.214C127.98 160.214 125.168 153.457 121.316 154.966C117.379 156.507 123.285 174.068 123.285 174.068L130.192 175.37L127.975 160.21L127.98 160.214Z" fill="#FAA7AF"/>
<path d="M170.864 85.8711C170.864 85.8711 182.712 93.62 185.131 110.285C187.551 126.949 183.055 151.863 177.968 158.314L172.134 139.802C172.134 139.802 157.889 153.548 155.979 152.962C154.068 152.376 150.045 146.155 150.798 142.528C151.55 138.901 163.502 124.228 163.502 124.228C163.502 124.228 150.334 100.756 170.859 85.8756L170.864 85.8711Z" fill="#FAA7AF"/>
<path d="M139.084 167.026C139.084 167.026 133.714 155.439 129.019 156.088C124.33 156.741 126.934 175.613 127.848 177.645C128.758 179.672 145.112 184.069 145.112 184.069L139.084 167.026Z" fill="#FAA7AF"/>
<path d="M180.113 123.935C179.798 125.39 179.401 126.836 178.883 128.237C178.374 129.643 177.802 131.03 177.131 132.368C176.477 133.715 175.752 135.026 174.977 136.31C174.202 137.594 173.373 138.838 172.459 140.05C172.45 140.063 172.436 140.077 172.427 140.086L172.414 140.095C170.301 142.077 168.156 144.028 166.025 145.992L164.417 147.451C163.881 147.934 163.349 148.438 162.782 148.902C161.664 149.839 160.515 150.736 159.322 151.583C158.718 152.002 158.11 152.412 157.452 152.772L156.943 153.029C156.754 153.096 156.587 153.182 156.38 153.236L156.06 153.308C155.952 153.322 155.763 153.322 155.659 153.281C155.533 153.25 155.425 153.205 155.335 153.151C155.231 153.101 155.15 153.042 155.064 152.984C154.411 152.502 153.96 151.907 153.523 151.308C153.096 150.704 152.726 150.064 152.393 149.407C151.726 148.1 151.203 146.713 150.929 145.266C150.793 144.546 150.721 143.811 150.766 143.077C150.811 142.347 151.014 141.613 151.406 141.005C151.064 141.649 150.938 142.374 150.938 143.086C150.938 143.802 151.055 144.514 151.23 145.203C151.591 146.586 152.176 147.907 152.87 149.154C153.222 149.776 153.609 150.375 154.037 150.938C154.461 151.497 154.934 152.047 155.461 152.412C155.587 152.493 155.731 152.574 155.835 152.592C155.866 152.605 155.889 152.605 155.902 152.601C155.925 152.596 155.925 152.614 155.97 152.601L156.177 152.547C156.321 152.506 156.479 152.421 156.628 152.362L157.083 152.119C157.686 151.767 158.276 151.357 158.853 150.938C160.006 150.092 161.119 149.177 162.223 148.249C162.777 147.789 163.291 147.298 163.827 146.807L165.426 145.339C167.571 143.392 169.706 141.437 171.868 139.509L171.823 139.558C172.724 138.41 173.571 137.184 174.378 135.95C175.184 134.711 175.932 133.431 176.648 132.134C177.36 130.836 178 129.498 178.599 128.138C179.198 126.777 179.671 125.372 180.117 123.948L180.113 123.935Z" fill="#3D2F5B"/>
<path d="M163.786 206.69C159.965 202.667 156.235 198.562 152.617 194.355C150.802 192.255 149.031 190.115 147.315 187.926C146.468 186.817 145.607 185.732 144.877 184.502L144.346 183.569C144.188 183.254 144.053 182.93 143.904 182.61L143.467 181.65L143.08 180.677C142.048 178.082 141.192 175.437 140.368 172.784C139.962 171.455 139.566 170.126 139.187 168.788C138.795 167.454 138.44 166.116 138.075 164.778C136.633 159.417 135.345 154.02 134.2 148.596C135.687 153.939 137.201 159.273 138.755 164.589C139.552 167.243 140.323 169.901 141.183 172.532C142.026 175.163 142.886 177.798 143.918 180.348L144.296 181.308L144.715 182.24C144.859 182.551 144.99 182.866 145.139 183.173L145.63 184.047C146.301 185.209 147.171 186.304 147.99 187.408C149.657 189.611 151.405 191.755 153.153 193.904C156.672 198.184 160.226 202.437 163.786 206.69Z" fill="#3D2F5B"/>
<path d="M151.325 146.19C152.524 144.257 153.934 142.446 155.583 140.838C155.993 140.437 156.43 140.049 156.894 139.698C157.353 139.342 157.84 139.004 158.376 138.729C158.907 138.455 159.498 138.234 160.146 138.175C160.786 138.108 161.525 138.283 162.047 138.711C162.994 139.441 163.795 140.432 164.187 141.608C164.588 142.779 164.516 144.063 164.142 145.185C163.777 146.321 163.156 147.325 162.439 148.226C161.705 149.114 160.867 149.898 159.975 150.605C160.732 149.753 161.466 148.897 162.084 147.965C162.692 147.032 163.196 146.032 163.467 144.987C163.732 143.946 163.764 142.852 163.381 141.883C163.03 140.91 162.349 140.067 161.498 139.423C160.777 138.81 159.7 139.022 158.754 139.491C157.79 139.95 156.907 140.644 156.056 141.36C154.366 142.825 152.825 144.482 151.33 146.194L151.325 146.19Z" fill="#3D2F5B"/>
<path d="M176.81 177.645C176.715 177.641 176.67 177.537 176.612 177.478C176.558 177.406 176.508 177.334 176.463 177.258C176.373 177.104 176.287 176.951 176.206 176.794C176.044 176.478 175.909 176.154 175.774 175.83C175.517 175.172 175.301 174.501 175.129 173.816C174.783 172.446 174.602 171.027 174.647 169.594C174.715 168.171 175.008 166.684 175.841 165.445C176.251 164.832 176.792 164.301 177.418 163.931C178.044 163.562 178.738 163.341 179.432 163.265C178.121 163.769 177.049 164.652 176.44 165.81C175.828 166.963 175.594 168.297 175.544 169.63C175.485 170.968 175.616 172.329 175.814 173.681C175.918 174.356 176.04 175.032 176.193 175.703C176.265 176.041 176.346 176.375 176.436 176.708C176.481 176.875 176.531 177.041 176.58 177.204C176.607 177.285 176.634 177.366 176.666 177.447C176.702 177.519 176.724 177.623 176.805 177.65L176.81 177.645Z" fill="#3D2F5B"/>
<path d="M139.562 151.34C140.273 152.146 140.836 153.07 141.301 154.043C141.765 155.016 142.107 156.061 142.274 157.156C142.418 158.246 142.395 159.418 141.922 160.472C141.697 160.994 141.359 161.467 140.958 161.855C140.539 162.229 140.066 162.513 139.562 162.697C139.962 162.337 140.336 161.977 140.629 161.562C140.918 161.148 141.125 160.697 141.264 160.229C141.544 159.291 141.53 158.278 141.386 157.287C141.251 156.287 140.967 155.295 140.652 154.309C140.323 153.322 139.953 152.344 139.562 151.344V151.34Z" fill="#3D2F5B"/>
<path d="M150.707 159.579C151.806 159.209 152.987 159.101 154.153 159.164C155.325 159.227 156.492 159.511 157.582 159.971C157.857 160.088 158.127 160.205 158.379 160.358C158.636 160.507 158.902 160.638 159.15 160.804C159.623 161.165 160.118 161.489 160.519 161.931L160.835 162.241C160.943 162.341 161.042 162.449 161.127 162.57L161.659 163.269C161.839 163.494 161.97 163.76 162.114 164.012C162.254 164.269 162.384 164.526 162.511 164.782C162.303 164.575 162.105 164.368 161.911 164.161C161.713 163.958 161.546 163.733 161.321 163.552C160.907 163.174 160.51 162.782 160.06 162.462C159.195 161.777 158.244 161.219 157.235 160.804C156.235 160.367 155.172 160.065 154.077 159.867C152.982 159.678 151.86 159.583 150.712 159.583L150.707 159.579Z" fill="#3D2F5B"/>
<path d="M143.449 151.821C144.765 152.254 145.95 153.051 146.986 153.979C148.026 154.912 148.905 156.025 149.639 157.218C150.32 158.439 150.914 159.719 151.257 161.07C151.36 161.404 151.441 161.737 151.5 162.084L151.685 163.107C151.77 163.791 151.811 164.485 151.833 165.17C151.613 164.512 151.455 163.85 151.252 163.206L150.928 162.246L150.775 161.764C150.716 161.606 150.648 161.453 150.59 161.296C150.464 160.985 150.338 160.674 150.22 160.359C150.094 160.048 149.937 159.755 149.797 159.449C149.54 158.831 149.184 158.268 148.869 157.683C148.189 156.543 147.391 155.47 146.495 154.484C145.589 153.502 144.594 152.592 143.454 151.826L143.449 151.821Z" fill="#3D2F5B"/>
<path d="M159.678 202.04C160.025 201.581 160.525 201.234 161.088 201.018C161.656 200.806 162.3 200.765 162.908 200.9C163.521 201.031 164.066 201.333 164.57 201.671C164.809 201.851 165.039 202.054 165.255 202.248L165.872 202.838C166.674 203.644 167.44 204.482 168.147 205.374C168.855 206.262 169.526 207.181 170.085 208.181C168.391 206.654 166.832 205.05 165.237 203.477L164.647 202.883C164.449 202.694 164.25 202.527 164.057 202.351C163.651 202.022 163.205 201.761 162.728 201.581C161.768 201.234 160.637 201.414 159.682 202.045L159.678 202.04Z" fill="#3D2F5B"/>
<path d="M146.689 200.567C146.996 200.026 147.469 199.576 148.032 199.247C148.595 198.918 149.28 198.765 149.951 198.805C150.631 198.841 151.262 199.103 151.843 199.4C152.416 199.738 152.907 200.112 153.393 200.508C153.871 200.909 154.326 201.337 154.767 201.779C155.191 202.234 155.619 202.684 156.002 203.171C156.781 204.13 157.488 205.157 158.042 206.266C157.182 205.378 156.344 204.495 155.479 203.644C154.614 202.792 153.745 201.959 152.816 201.202C151.893 200.418 150.974 199.706 149.875 199.504C148.784 199.301 147.604 199.738 146.694 200.571L146.689 200.567Z" fill="#3D2F5B"/>
<path d="M129.817 156.06C129.042 155.992 128.312 156.366 127.835 156.911C127.344 157.461 127.083 158.182 126.92 158.903C126.578 160.358 126.646 161.871 126.722 163.39C126.902 166.44 127.042 169.494 127.348 172.513C127.506 174.013 127.677 175.545 128.11 176.928C128.222 177.257 128.362 177.603 128.538 177.793C128.583 177.847 128.614 177.865 128.655 177.896L128.889 178.018C129.042 178.099 129.227 178.171 129.394 178.252C130.087 178.554 130.79 178.847 131.493 179.135C134.322 180.275 137.165 181.419 139.985 182.604C137.043 181.748 134.124 180.825 131.241 179.788C130.515 179.532 129.799 179.266 129.078 178.973C128.898 178.896 128.722 178.829 128.533 178.739L128.254 178.608C128.137 178.541 128.011 178.446 127.93 178.356C127.578 177.977 127.443 177.59 127.294 177.207C127.024 176.441 126.88 175.671 126.745 174.905C126.619 174.139 126.519 173.373 126.438 172.607C126.141 169.539 126.042 166.476 126.006 163.417C125.988 161.889 126.015 160.299 126.483 158.79C126.722 158.047 127.069 157.303 127.655 156.754C127.939 156.474 128.29 156.267 128.659 156.136C129.033 156.015 129.434 155.988 129.808 156.069L129.817 156.06Z" fill="#3D2F5B"/>
<path d="M138.278 164.192C138.692 164.886 138.94 165.665 139.089 166.454C139.237 167.247 139.278 168.066 139.206 168.877C139.143 169.688 138.94 170.495 138.629 171.243C138.336 172.004 137.863 172.684 137.313 173.261C137.543 172.486 137.809 171.774 137.962 171.026C138.133 170.287 138.251 169.549 138.309 168.796C138.377 168.048 138.404 167.292 138.395 166.526C138.377 165.76 138.336 164.989 138.282 164.188L138.278 164.192Z" fill="#3D2F5B"/>
<path d="M130.848 157.016C131.254 157.971 131.475 158.993 131.569 160.034C131.668 161.075 131.61 162.142 131.348 163.188C131.078 164.224 130.542 165.247 129.695 165.967C129.272 166.323 128.781 166.58 128.276 166.756C127.767 166.927 127.235 166.981 126.722 166.972C127.699 166.634 128.573 166.152 129.209 165.458C129.83 164.755 130.245 163.89 130.474 162.958C130.722 162.03 130.821 161.048 130.866 160.052C130.902 159.056 130.884 158.047 130.848 157.016Z" fill="#3D2F5B"/>
<path d="M122.244 156.061C122.658 156.66 122.942 157.34 123.136 158.038C123.325 158.741 123.428 159.484 123.365 160.241C123.302 160.989 123.064 161.791 122.514 162.39C122.248 162.688 121.91 162.913 121.554 163.062C121.194 163.197 120.82 163.251 120.455 163.237C120.775 163.057 121.081 162.895 121.334 162.679C121.586 162.467 121.793 162.228 121.955 161.967C122.28 161.444 122.406 160.813 122.464 160.174C122.573 158.867 122.37 157.502 122.244 156.065V156.061Z" fill="#3D2F5B"/>
<path d="M117.793 108.581C117.838 105.431 118 102.282 118.293 99.1423C118.433 97.57 118.617 96.0067 118.843 94.4389C119.086 92.8756 119.343 91.3168 119.816 89.758C120.068 88.9606 120.415 88.2488 120.762 87.5325C121.109 86.8207 121.465 86.1134 121.843 85.4196C122.595 84.032 123.352 82.6489 124.15 81.2928C125.727 78.5672 127.389 75.8912 129.123 73.2646C127.691 76.0714 126.231 78.8555 124.762 81.6352C124.037 83.0273 123.298 84.4149 122.595 85.816C122.24 86.5143 121.884 87.2126 121.555 87.9154C121.221 88.6182 120.888 89.3255 120.672 90.0328C120.212 91.479 119.951 93.0378 119.685 94.5695C119.415 96.1103 119.212 97.6646 118.991 99.2189L117.797 108.576L117.793 108.581Z" fill="#3D2F5B"/>
<path d="M109.733 95.8622C109.62 95.1775 106.376 75.6341 100.362 75.8594C94.3657 76.0846 102.254 89.1676 102.57 89.6902C102.006 89.4514 87.9098 83.5632 88.563 89.5325C89.2208 95.5154 109.03 95.8623 109.724 95.8758L109.737 95.8848C109.737 95.8848 109.737 95.8803 109.737 95.8758H109.746L109.733 95.8668V95.8622Z" fill="#FAC39A"/>
<path d="M111.075 100.814C110.661 100.791 98.853 100.237 98.2313 103.774C97.6096 107.301 106.232 104.341 106.579 104.22C106.372 104.517 101.164 112.005 104.728 112.37C108.3 112.735 110.99 101.224 111.08 100.818H111.089C111.089 100.818 111.089 100.814 111.084 100.814V100.809H111.075V100.814Z" fill="#FAA7AF"/>
<path d="M188.708 104.349C189.325 104.03 206.891 94.875 204.809 89.2301C202.732 83.5986 192.744 95.1633 192.348 95.6229C192.398 95.0147 193.618 79.7827 188.149 82.2606C182.666 84.7429 188.487 103.683 188.694 104.34V104.354C188.694 104.354 188.694 104.354 188.694 104.349V104.358V104.345L188.708 104.349Z" fill="#FAA7AF"/>
<path d="M190.226 109.679C190.524 109.864 199.084 115.058 200.976 112.684C202.868 110.314 195.254 109.022 194.948 108.972C195.223 108.837 202.129 105.372 199.624 103.66C197.115 101.939 190.452 109.413 190.222 109.675L190.226 109.679Z" fill="#FAC39A"/>
</g>
</g>
<defs>
<clipPath id="clip0_834_264706">
<rect width="300" height="225" fill="white"/>
</clipPath>
<clipPath id="clip1_834_264706">
<rect width="300" height="300" fill="white" transform="translate(0 -75)"/>
</clipPath>
</defs>
</svg>
