<svg width="300" height="225" viewBox="0 0 300 225" fill="none" xmlns="http://www.w3.org/2000/svg">
<g clip-path="url(#clip0_834_264744)">
<rect width="300" height="225" fill="#EFDAEE"/>
<path opacity="0.25" d="M151.37 211C209.636 211 256.87 207.866 256.87 204C256.87 200.134 209.636 197 151.37 197C93.1041 197 45.8701 200.134 45.8701 204C45.8701 207.866 93.1041 211 151.37 211Z" fill="#231F20"/>
<path opacity="0.25" d="M235 170C251.016 170 264 167.538 264 164.5C264 161.462 251.016 159 235 159C218.984 159 206 161.462 206 164.5C206 167.538 218.984 170 235 170Z" fill="#231F20"/>
<path d="M241.942 93.0015C240.862 92.8854 237.867 99.3863 237.867 99.3863C237.867 99.3863 232.539 98.4112 228.046 99.1077C228.046 99.1077 224.877 92.8158 223.705 93.0247C222.532 93.2337 221.452 113.317 220.489 124.995C220.036 130.567 220.396 137.927 220.768 144.265C219.328 142.106 217.169 144.44 216.728 146.158C215.114 152.426 216.809 157.023 218.272 162.061C218.516 163.048 215.195 160.622 215.103 164.488L249.522 164.673C255.524 151.045 252.332 142.048 246.527 128.547C243.161 119.005 243.23 107.164 243.242 102.474C243.254 96.3564 243.021 93.1292 241.942 93.0015Z" fill="#EFB98F"/>
<path d="M220.314 134.119C220.291 133.144 220.279 132.18 220.279 131.229L223.611 132.111L220.314 134.107V134.119Z" fill="#C18257"/>
<path d="M221.104 116.938L223.495 118.227L220.906 119.574C220.964 118.715 221.034 117.832 221.104 116.938Z" fill="#C18257"/>
<path d="M220.465 138.484L222.531 139.192L220.569 140.794C220.535 140.028 220.5 139.262 220.465 138.496V138.484Z" fill="#D39468"/>
<path d="M220.36 127.072C220.395 126.364 220.43 125.668 220.488 124.994C220.511 124.669 220.546 124.321 220.569 123.984L223.913 124.983L220.36 127.072Z" fill="#C18257"/>
<path d="M227.349 112.469C227.396 114.675 229.648 116.428 232.387 116.381C235.127 116.335 237.309 114.5 237.275 112.283C237.228 110.078 234.5 109.648 231.76 109.706C229.021 109.753 227.314 110.263 227.349 112.469Z" fill="#F2E5DC"/>
<path d="M236.718 108.244C236.869 108.604 237.276 108.766 237.635 108.615C237.995 108.464 238.158 108.058 238.007 107.698C237.856 107.338 237.45 107.176 237.09 107.327C236.73 107.478 236.567 107.884 236.718 108.244Z" fill="#453F3F"/>
<path d="M227.222 108.244C227.373 108.593 227.767 108.767 228.127 108.616C228.475 108.465 228.65 108.07 228.499 107.71C228.348 107.362 227.953 107.188 227.593 107.339C227.245 107.49 227.071 107.884 227.222 108.244Z" fill="#453F3F"/>
<path d="M238.901 104.135C238.831 104.135 238.761 104.111 238.715 104.053C238.297 103.589 237.647 103.334 237.032 103.415C236.881 103.426 236.776 103.334 236.753 103.194C236.741 103.055 236.834 102.939 236.973 102.927C237.74 102.834 238.552 103.148 239.075 103.728C239.168 103.833 239.156 103.984 239.051 104.077C239.005 104.123 238.947 104.135 238.889 104.135H238.901Z" fill="#453F3F"/>
<path d="M226.351 104.331C226.282 104.331 226.212 104.308 226.166 104.25C226.073 104.146 226.084 103.995 226.177 103.902C226.793 103.345 227.663 103.043 228.487 103.101C228.627 103.101 228.731 103.229 228.72 103.368C228.72 103.507 228.592 103.6 228.453 103.6C227.733 103.554 227.025 103.809 226.514 104.273C226.467 104.32 226.409 104.343 226.351 104.343V104.331Z" fill="#453F3F"/>
<path d="M233.722 109.8C233.977 110.392 232.712 111.205 232.166 111.193C231.621 111.193 230.576 110.311 230.89 109.8C231.157 109.382 233.478 109.231 233.722 109.8Z" fill="#453F3F"/>
<path d="M230.321 112.888C230.008 112.888 229.671 112.818 229.311 112.679C229.184 112.632 229.114 112.482 229.172 112.354C229.218 112.226 229.358 112.157 229.497 112.215C230.066 112.435 230.554 112.435 230.971 112.249C231.668 111.924 231.935 111.135 231.935 111.123C231.97 111.019 232.063 110.961 232.167 110.949C232.272 110.949 232.364 111.019 232.399 111.112C232.399 111.112 232.771 112.064 233.514 112.319C233.908 112.458 234.361 112.365 234.86 112.064C234.976 111.994 235.127 112.029 235.197 112.145C235.267 112.261 235.232 112.412 235.116 112.493C234.489 112.876 233.897 112.981 233.351 112.795C232.782 112.598 232.399 112.122 232.167 111.762C231.981 112.075 231.656 112.47 231.18 112.691C230.913 112.818 230.623 112.876 230.321 112.876V112.888Z" fill="#453F3F"/>
<path d="M232.329 114.919C232.062 114.919 231.807 114.873 231.551 114.792C231.424 114.745 231.354 114.606 231.389 114.478C231.435 114.35 231.575 114.281 231.702 114.316C232.051 114.432 232.434 114.443 232.782 114.362C232.921 114.327 233.049 114.408 233.084 114.548C233.119 114.675 233.037 114.815 232.898 114.85C232.712 114.896 232.515 114.919 232.317 114.919H232.329Z" fill="#453F3F"/>
<path d="M241.291 110.961C241.175 110.961 241.071 110.879 241.048 110.752C241.024 110.612 241.117 110.485 241.245 110.461L244.112 109.939C244.252 109.916 244.379 110.009 244.402 110.136C244.426 110.276 244.333 110.403 244.205 110.427L241.338 110.949C241.338 110.949 241.303 110.949 241.291 110.949V110.961Z" fill="#453F3F"/>
<path d="M241.674 112.249C241.547 112.249 241.431 112.145 241.431 112.017C241.431 111.878 241.524 111.762 241.663 111.762L244.066 111.646C244.066 111.646 244.066 111.646 244.077 111.646C244.205 111.646 244.321 111.75 244.321 111.878C244.321 112.017 244.228 112.133 244.089 112.133L241.686 112.249C241.686 112.249 241.686 112.249 241.674 112.249Z" fill="#453F3F"/>
<path d="M223.309 111.146C223.309 111.146 223.275 111.146 223.263 111.146C222.833 111.065 222.172 110.995 221.533 110.925C220.883 110.856 220.221 110.774 219.78 110.693C219.641 110.67 219.56 110.542 219.583 110.403C219.606 110.264 219.734 110.171 219.873 110.206C220.291 110.287 220.953 110.357 221.591 110.426C222.241 110.496 222.915 110.577 223.356 110.658C223.495 110.682 223.576 110.809 223.553 110.949C223.53 111.065 223.425 111.158 223.309 111.158V111.146Z" fill="#453F3F"/>
<path d="M223.205 112.423C222.903 112.423 222.288 112.4 221.673 112.388C221.057 112.365 220.454 112.354 220.152 112.354C220.013 112.354 219.908 112.238 219.908 112.098C219.908 111.959 220.024 111.854 220.152 111.854C220.454 111.854 221.069 111.878 221.684 111.889C222.3 111.913 222.903 111.924 223.205 111.924C223.344 111.924 223.449 112.04 223.449 112.18C223.449 112.319 223.333 112.423 223.205 112.423Z" fill="#453F3F"/>
<path d="M226.792 99.3509C226.792 99.3509 224.459 100.187 223.379 100.674C223.379 100.674 223.623 94.8003 224.099 94.5681C224.575 94.3244 226.792 99.3625 226.792 99.3625V99.3509Z" fill="#F4C2C1"/>
<path d="M238.923 99.5374C238.923 99.5374 241.256 100.373 242.336 100.861C242.336 100.861 242.092 94.9868 241.616 94.7547C241.14 94.5109 238.923 99.549 238.923 99.549V99.5374Z" fill="#F4C2C1"/>
<path d="M250.497 163.954C250.497 163.954 250.706 163.803 251.043 163.512C251.38 163.234 251.821 162.816 252.355 162.247C253.4 161.121 254.769 159.38 255.919 157.012C256.464 155.816 257.022 154.504 257.37 153.041C257.776 151.59 257.997 150.023 258.124 148.41C258.124 147.585 258.206 146.819 258.148 145.902C258.113 145.136 258.078 144.358 257.939 143.453C257.73 141.7 257.335 140.075 256.847 138.438C255.884 135.187 254.479 132.181 253.458 129.487C252.958 128.141 252.529 126.852 252.355 125.715C252.181 124.565 252.25 123.672 252.459 122.534C252.645 121.628 252.97 120.711 253.33 120.038C253.69 119.341 254.096 118.796 254.456 118.39C255.187 117.577 255.71 117.333 255.57 117.414C256.604 116.834 256.975 115.511 256.395 114.477C255.814 113.444 254.491 113.073 253.458 113.653C253.318 113.734 252.39 114.268 251.252 115.569C250.683 116.219 250.079 117.066 249.557 118.123C249.035 119.191 248.617 120.375 248.35 121.849C248.118 123.068 248.013 124.821 248.315 126.411C248.594 128.002 249.139 129.487 249.708 130.95C250.869 133.864 252.25 136.673 253.167 139.587C253.632 141.026 254.015 142.536 254.201 143.917C254.328 144.567 254.375 145.368 254.433 146.146C254.491 146.784 254.433 147.551 254.444 148.224C254.363 149.605 254.201 150.94 253.876 152.171C253.609 153.413 253.156 154.516 252.726 155.526C251.809 157.522 250.683 159.008 249.836 159.949C249.406 160.413 249.058 160.761 248.814 160.97C248.582 161.179 248.489 161.249 248.466 161.272C247.723 161.829 247.572 162.886 248.129 163.629C248.686 164.371 249.743 164.522 250.486 163.965L250.497 163.954Z" fill="#EFB98F"/>
<path d="M224.609 164.546L226.792 149.582C227.964 150.929 229.218 152.728 233.525 154.342C237.832 155.955 241.163 155.421 241.163 155.421C241.535 158.08 242.15 160.285 242.963 162.073L238.83 161.539L239.91 164.662L224.609 164.557V164.546Z" fill="#D39468"/>
<path d="M222.218 164.742H215.114C214.975 164.742 214.87 164.626 214.87 164.499C214.87 162.688 215.776 162.212 216.054 162.107C216.402 161.98 216.751 162.003 217.087 162.026C217.412 162.049 217.703 162.072 217.97 161.956C216.948 159.182 214.592 148.583 217.192 144.799C217.807 143.916 218.643 143.371 219.444 143.348C220.024 143.348 220.57 143.603 220.965 144.137C221.046 144.242 221.023 144.404 220.918 144.485C220.814 144.567 220.651 144.543 220.57 144.439C220.28 144.044 219.908 143.847 219.49 143.847H219.455C218.817 143.858 218.121 144.323 217.61 145.077C215.033 148.815 217.563 159.623 218.515 161.98C218.562 162.084 218.515 162.212 218.422 162.281C217.97 162.583 217.482 162.548 217.064 162.525C216.762 162.502 216.484 162.49 216.228 162.583C215.845 162.723 215.427 163.233 215.369 164.255H222.218C222.358 164.255 222.462 164.371 222.462 164.499C222.462 164.626 222.346 164.742 222.218 164.742Z" fill="#D39468"/>
<path d="M241.884 125.053L244.914 122.696C245.134 123.729 245.39 124.763 245.668 125.784L241.872 125.053H241.884Z" fill="#D39468"/>
<path d="M241.523 119.214L244.031 117.484C244.135 118.32 244.275 119.168 244.414 120.015L241.523 119.214Z" fill="#D39468"/>
<path d="M247.188 136.732L248.999 134.491C249.324 135.327 249.638 136.163 249.94 136.975L247.2 136.732H247.188Z" fill="#D39468"/>
<path d="M243.764 131.519L246.399 128.164C246.445 128.292 246.48 128.419 246.527 128.547C247.002 129.65 247.455 130.718 247.885 131.774L243.764 131.519Z" fill="#D39468"/>
<path d="M249.429 142.211L250.984 140.109C251.24 140.957 251.472 141.793 251.681 142.617L249.429 142.211Z" fill="#D39468"/>
<path d="M228.371 134.758C228.371 134.758 227.605 162.073 227.117 163.965C226.629 165.857 217.946 165.974 219.061 163.768C220.175 161.562 222.114 161.574 222.114 161.574L220.314 134.247L228.371 134.758Z" fill="#EFB98F"/>
<path d="M222.555 165.649C220.988 165.649 219.433 165.37 218.91 164.685C218.748 164.476 218.608 164.139 218.829 163.675C218.899 163.42 219.375 161.98 221.847 161.365C221.65 159.113 219.99 140.028 220.326 131.937C220.326 131.798 220.443 131.682 220.582 131.693C220.721 131.693 220.826 131.809 220.814 131.949C220.466 140.481 222.335 161.319 222.358 161.527C222.358 161.655 222.288 161.771 222.161 161.794C219.653 162.34 219.316 163.745 219.305 163.803C219.305 163.826 219.293 163.849 219.282 163.861C219.154 164.116 219.224 164.267 219.293 164.372C219.851 165.103 222.625 165.382 224.877 164.917C226.015 164.685 226.758 164.302 226.862 163.884C227.338 162.038 227.768 140.91 227.779 140.702C227.779 140.562 227.895 140.458 228.035 140.458C228.174 140.458 228.278 140.574 228.278 140.713C228.267 141.584 227.837 162.108 227.35 164.012C227.152 164.801 225.945 165.207 224.982 165.405C224.273 165.544 223.414 165.625 222.544 165.625L222.555 165.649Z" fill="#D39468"/>
<path d="M249.522 164.744H238.737C238.598 164.744 238.494 164.628 238.494 164.5C238.494 164.163 238.494 163.873 238.47 163.629C238.436 162.863 238.424 162.41 238.853 162.062C239.492 161.528 240.514 161.691 241.407 161.83C241.872 161.9 242.336 161.969 242.638 161.923C241.419 158.73 240.676 154.656 240.757 151.487C240.815 149.188 240.966 146.611 242.197 145.16C243.288 143.86 245.389 143.291 247.281 143.778C248.465 144.08 250.567 145.055 251.217 148.19C251.24 148.329 251.159 148.457 251.019 148.48C250.88 148.503 250.752 148.422 250.729 148.283C250.137 145.404 248.245 144.521 247.165 144.254C245.47 143.825 243.543 144.336 242.591 145.473C241.477 146.797 241.326 149.281 241.268 151.487C241.187 154.679 241.953 158.8 243.207 161.969C243.253 162.085 243.207 162.213 243.102 162.271C242.696 162.515 242.069 162.41 241.349 162.306C240.56 162.19 239.654 162.051 239.19 162.434C238.958 162.619 238.958 162.863 238.993 163.594C238.993 163.78 239.004 163.989 239.016 164.233H249.417C249.916 163.42 252.981 158.046 252.354 148.143C251.983 142.339 250.683 139.356 249.023 135.571C247.897 132.994 246.62 130.08 245.447 125.739C245.412 125.611 245.494 125.472 245.621 125.437C245.749 125.402 245.888 125.483 245.923 125.611C247.096 129.918 248.361 132.82 249.475 135.374C251.089 139.054 252.47 142.223 252.842 148.12C253.538 159.044 249.905 164.407 249.754 164.628C249.708 164.697 249.626 164.732 249.545 164.732L249.522 164.744Z" fill="#D39468"/>
<path d="M241.628 134.758C241.628 134.758 240.861 162.073 240.374 163.965C239.886 165.857 231.203 165.973 232.317 163.768C233.432 161.562 235.371 161.574 235.371 161.574L234.059 134.131L241.628 134.758Z" fill="#EFB98F"/>
<path d="M235.824 165.649C234.257 165.649 232.701 165.37 232.179 164.685C232.016 164.477 231.877 164.14 232.097 163.675C232.167 163.42 232.643 161.981 235.127 161.365C235.069 159.508 234.628 145.566 234.187 140.737C234.175 140.597 234.28 140.481 234.408 140.47C234.559 140.447 234.663 140.563 234.675 140.69C235.139 145.845 235.615 161.389 235.626 161.551C235.626 161.667 235.545 161.772 235.429 161.807C232.922 162.352 232.585 163.757 232.573 163.815C232.573 163.838 232.562 163.861 232.55 163.873C232.423 164.128 232.492 164.279 232.562 164.384C233.119 165.115 235.894 165.394 238.146 164.929C239.283 164.697 240.026 164.314 240.131 163.896C240.607 162.05 241.361 135.014 241.373 134.747C241.373 134.607 241.501 134.515 241.628 134.503C241.768 134.503 241.872 134.619 241.872 134.758C241.837 135.873 241.094 162.12 240.618 164.024C240.421 164.813 239.214 165.219 238.25 165.417C237.542 165.556 236.683 165.637 235.812 165.637L235.824 165.649Z" fill="#D39468"/>
<path d="M232.109 117.694C231.285 117.694 230.461 117.554 229.695 117.276C229.567 117.229 229.497 117.09 229.544 116.962C229.59 116.835 229.741 116.765 229.857 116.811C231.146 117.276 232.585 117.322 233.897 116.951C234.025 116.916 234.164 116.985 234.199 117.125C234.234 117.252 234.164 117.392 234.025 117.427C233.398 117.601 232.748 117.694 232.098 117.694H232.109Z" fill="#B57950"/>
<path d="M235 155.061C235 155.061 234.965 155.061 234.942 155.061C234.733 155.015 229.671 153.866 227.605 150.824C227.524 150.708 227.558 150.557 227.674 150.476C227.779 150.395 227.941 150.429 228.023 150.546C229.985 153.425 235.011 154.562 235.058 154.574C235.197 154.609 235.278 154.736 235.243 154.864C235.22 154.98 235.116 155.061 235 155.061Z" fill="#D39468"/>
<path d="M248.361 121.849C248.408 121.617 248.454 121.408 248.5 121.188C249.58 122.151 250.985 122.708 252.424 122.778C252.378 123.01 252.343 123.242 252.32 123.474C250.869 123.393 249.476 122.859 248.338 121.965C248.338 121.93 248.338 121.884 248.35 121.849H248.361Z" fill="#D39468"/>
<path d="M251.322 128.675L250.985 128.733C250.567 128.803 250.172 128.838 249.812 128.838C249.487 128.838 249.197 128.803 248.919 128.745C248.826 128.478 248.756 128.199 248.675 127.92C249.22 128.129 249.94 128.176 250.869 128.025L251.205 127.967C251.739 127.874 252.308 127.781 252.877 127.77C252.958 128.013 253.028 128.257 253.121 128.501C252.552 128.478 251.937 128.559 251.333 128.663L251.322 128.675Z" fill="#D39468"/>
<path d="M253.76 135.721C252.993 135.721 252.239 135.547 251.542 135.222C251.391 134.851 251.229 134.479 251.066 134.119C252.297 135.001 253.957 135.257 255.373 134.711L255.524 134.653C255.605 134.874 255.698 135.094 255.78 135.326L255.629 135.384C255.025 135.617 254.398 135.721 253.76 135.721Z" fill="#D39468"/>
<path d="M253.655 141.258C253.585 140.991 253.504 140.736 253.435 140.469C254.723 140.689 256.058 140.55 257.277 140.074C257.335 140.306 257.405 140.55 257.463 140.782C256.557 141.131 255.582 141.328 254.595 141.328C254.282 141.328 253.969 141.305 253.655 141.27V141.258Z" fill="#D39468"/>
<path d="M254.363 145.124C254.34 144.799 254.294 144.497 254.247 144.207C255.327 145.008 256.801 145.217 258.078 144.787C258.101 145.043 258.113 145.287 258.124 145.542C257.683 145.67 257.207 145.739 256.743 145.739C255.919 145.739 255.094 145.53 254.363 145.136V145.124Z" fill="#D39468"/>
<path d="M254.34 149.478C254.363 149.234 254.386 149.002 254.409 148.758C255.594 149.106 256.87 149.129 258.078 148.839C258.055 149.094 258.02 149.35 257.985 149.605C257.463 149.71 256.94 149.779 256.406 149.779C255.71 149.779 255.013 149.652 254.34 149.466V149.478Z" fill="#D39468"/>
<path d="M253.585 153.215C253.678 152.913 253.782 152.623 253.852 152.298C253.887 152.333 253.945 152.356 253.956 152.402C254.456 153.552 255.698 154.318 256.952 154.376C256.87 154.608 256.812 154.863 256.731 155.084C255.477 154.968 254.27 154.283 253.585 153.215Z" fill="#D39468"/>
<path d="M255.582 117.402C255.733 117.321 255.21 117.576 254.467 118.377C254.108 118.784 253.701 119.318 253.341 120.026C253.33 120.061 253.306 120.096 253.295 120.13C252.529 119.84 250.962 119.074 249.894 117.576C250.335 116.787 250.811 116.091 251.275 115.568C252.413 114.268 253.341 113.734 253.481 113.653C254.514 113.072 255.837 113.432 256.418 114.477C256.998 115.51 256.638 116.834 255.593 117.414L255.582 117.402Z" fill="#D39468"/>
<path d="M111.88 97.6105C114.38 96.5905 117.78 97.2705 121.64 95.5705C124.13 94.4705 127.65 94.7805 127.54 95.9105C127.48 96.5205 124.4 96.3305 122.83 97.4405C120.6 99.0305 115.44 103.321 115.44 103.321L111.89 97.6105H111.88Z" fill="#EA7471"/>
<path d="M89.8697 98.3999C89.8697 98.3999 84.6497 83.1999 86.6897 82.0599C88.7297 80.9299 98.9397 89.3099 98.9397 89.3099L89.8597 98.3899L89.8697 98.3999Z" fill="#F2BA8E"/>
<path d="M95.2402 92.6704C95.2402 92.6704 98.1002 78.5404 100.43 78.3404C102.76 78.1404 106.91 89.9504 106.91 89.9504L95.2402 92.6704Z" fill="#E3A77F"/>
<path d="M90.6401 96.06C90.6401 96.06 86.9101 85.2 88.3701 84.38C89.8301 83.57 97.1302 89.56 97.1302 89.56L90.6401 96.05V96.06Z" fill="#CD8C5F"/>
<path d="M42 125.621C42 125.621 52.59 121.381 60.15 130.911L59.7 128.641C59.7 128.641 68.32 134.541 67.72 149.971C67.11 165.401 62.58 177.651 64.39 183.401C66.21 189.151 70.89 190.361 70.89 190.361L74.52 197.771C74.52 197.771 63.98 199.351 55.92 192.631C45.94 184.311 46.54 165.101 48.96 158.901L50.32 162.681C50.32 162.681 52.59 153.151 50.77 146.191C48.95 139.231 46.99 135.901 46.99 135.901L49.56 137.411C49.56 137.411 46.23 129.541 42 125.611V125.621Z" fill="#FFEFE4"/>
<path d="M74.5196 197.77L70.8896 190.36C70.8896 190.36 66.1996 189.15 64.3896 183.4C62.5696 177.65 67.1096 165.4 67.7196 149.97C67.8896 145.52 67.2996 141.86 66.3596 138.91C66.0796 140.58 66.3596 144.44 65.7496 144.69C64.9896 144.99 64.5396 142.57 63.3296 142.72C62.1196 142.87 62.7296 148.77 61.6696 149.22C60.6096 149.67 59.6996 146.65 59.0996 146.65C58.4996 146.65 58.7996 149.68 57.8896 149.83C56.9796 149.98 56.0696 146.35 55.4696 146.35C54.8696 146.35 54.8696 148.32 54.1096 148.47C53.3496 148.62 51.5396 143.48 50.7796 143.63C50.5896 143.67 50.3896 143.83 50.1896 144.06C50.3896 144.73 50.5896 145.44 50.7796 146.19C52.5996 153.15 50.3296 162.68 50.3296 162.68L48.9696 158.9C46.5496 165.1 45.9396 184.31 55.9296 192.63C63.9896 199.35 74.5296 197.77 74.5296 197.77H74.5196Z" fill="#F2BA8E"/>
<path d="M79.58 187.451C80.63 195.701 83.13 201.201 102.08 201.491C121.04 201.781 129.57 201.781 129.57 199.461C129.57 197.141 123.2 194.681 119.15 194.831C115.1 194.981 109.17 196.281 108.88 195.121C108.59 193.961 118.43 190.631 119.15 180.941C119.87 171.241 116.42 163.971 108.3 161.261C94.84 156.771 77.77 173.271 79.58 187.451Z" fill="#DBA275"/>
<path d="M119.74 139.08C119.74 139.08 123.07 154.81 125.79 170.24C128.51 185.67 131.24 195.05 132.6 195.8C133.96 196.56 138.05 196.1 138.65 198.98C139.26 201.85 128.52 204.58 126.1 198.68C123.68 192.78 118.08 177.05 115.36 168.28C112.64 159.51 107.49 144.99 107.49 144.99L119.74 139.09V139.08Z" fill="#F8DECC"/>
<path d="M90.7799 92.72C92.8199 87.73 101.44 85.46 106.66 86.82C109.8 87.64 109.27 88.08 112.79 87.95C116.22 87.83 123.31 86.24 124.1 86.84C125.33 87.77 126.29 89.83 122.66 93.68C119.03 97.54 113.02 96.13 113.24 97.94C113.37 98.96 114.88 99.69 118.69 98.73C121.25 98.09 124.5 96.26 125.04 96.8C125.95 97.71 124.08 99.47 120.62 101.39C116.45 103.71 113.93 103.75 113.25 106.01C112.57 108.28 118.47 118.8 120.74 130.82C123.01 142.84 117.31 155.53 109.17 163.26C100.09 171.88 89.8799 190.25 89.8799 190.25L69.9099 189.12C69.9099 189.12 68.4499 171.99 73.7699 155.55C78.7599 140.13 85.3399 128.78 88.0599 120.84C90.7799 112.9 88.0199 99.46 90.7799 92.7V92.72Z" fill="#FFEFE4"/>
<path d="M69.9003 189.15C71.0003 197.78 73.6103 203.52 93.4203 203.82C113.23 204.12 122.16 204.12 122.16 201.7C122.16 198.38 115.5 196.71 111.27 196.86C107.04 197.01 100.83 198.37 100.53 197.16C100.23 195.95 110.51 192.47 111.27 182.34C112.03 172.21 108.42 164.6 99.9303 161.77C85.8603 157.08 68.0103 174.32 69.9103 189.15H69.9003Z" fill="#FFEFE4"/>
<path d="M107.34 176.901C105.98 166.691 99.4004 165.331 99.1704 163.061C98.9504 160.891 112.41 150.641 116.37 143.801C99.8504 141.511 95.3104 120.641 88.4404 119.511C88.3204 119.971 88.2004 120.431 88.0504 120.861C85.3304 128.801 78.7504 140.151 73.7604 155.571C69.6204 168.361 69.5904 181.571 69.7804 186.801C69.7804 187.581 69.7604 188.371 69.8604 189.141C70.3304 192.831 71.0804 195.991 73.3404 198.431C80.0704 195.051 88.0604 195.271 95.7704 192.551C99.1704 192.101 108.55 185.981 107.34 176.891V176.901Z" fill="#F2BA8E"/>
<path d="M102.119 101.58C106.659 99.5397 110.289 94.5497 109.609 90.6897C109.239 88.5997 107.799 87.1797 106.319 86.4897C101.019 85.0297 92.5894 87.2796 90.5494 92.7196C88.6594 97.7496 89.8095 106.34 89.1895 113.49C95.1195 114.22 97.7394 103.55 102.119 101.58Z" fill="#F2BA8E"/>
<path d="M104.33 92.7403C104.58 93.1903 105.16 93.3603 105.61 93.1003C106.06 92.8503 106.23 92.2703 105.98 91.8203C105.73 91.3703 105.15 91.2003 104.7 91.4603C104.25 91.7103 104.08 92.2903 104.33 92.7403Z" fill="#4C4546"/>
<path d="M101.78 92.1005C101.78 92.1005 101.76 92.1005 101.75 92.1005C101.6 92.0805 101.49 91.9505 101.51 91.8005C101.64 90.5905 102.7 89.5805 103.91 89.4905C104.06 89.4705 104.19 89.5905 104.2 89.7405C104.21 89.8905 104.1 90.0205 103.95 90.0305C103.01 90.1005 102.16 90.9205 102.05 91.8605C102.03 92.0005 101.92 92.1005 101.78 92.1005Z" fill="#4C4546"/>
<path d="M113.39 105.931C113.39 105.931 113.36 105.931 113.35 105.931C113.2 105.911 113.1 105.771 113.12 105.621C113.37 104.081 116.2 102.861 118.94 101.671C119.88 101.261 120.77 100.881 121.51 100.501C123.74 99.3508 124.98 97.8108 124.97 97.1808C124.97 97.0808 124.94 97.0708 124.91 97.0608C124.62 96.9208 123.44 97.3908 122.4 97.8008C121.24 98.2608 119.93 98.7908 118.73 99.0108C113.97 99.8908 113.32 99.1208 113.1 98.8708C112.94 98.6908 112.8 98.3608 112.98 97.8608C113.23 97.1708 114.53 96.7707 116.32 96.2207C118.53 95.5407 121.27 94.6908 122.91 93.0608C125.65 90.3208 124.62 88.5608 124.57 88.4808C124.49 88.3508 124.53 88.1807 124.66 88.1007C124.79 88.0207 124.95 88.0608 125.03 88.1908C125.09 88.2808 126.36 90.3708 123.29 93.4408C121.56 95.1708 118.74 96.0408 116.48 96.7408C115.09 97.1708 113.64 97.6208 113.49 98.0508C113.39 98.3308 113.46 98.4508 113.52 98.5208C113.72 98.7608 114.62 99.2208 118.63 98.4808C119.78 98.2708 121.06 97.7508 122.19 97.3008C123.75 96.6708 124.66 96.3308 125.15 96.5808C125.38 96.6908 125.51 96.9108 125.51 97.1908C125.51 98.0908 124.08 99.8108 121.75 101.001C121 101.381 120.1 101.771 119.15 102.181C116.79 103.201 113.85 104.471 113.65 105.711C113.63 105.841 113.51 105.941 113.38 105.941L113.39 105.931Z" fill="#FED4B7"/>
<path d="M106.43 139.47C106.43 139.47 112.78 145.37 120.04 144.45C125.48 143.76 132.52 137.64 138.64 135.15C144.77 132.65 146.58 132.88 150.66 134.02C154.74 135.15 155.65 136.75 158.03 135.5C161.81 133.52 156.78 128.8 146.12 126.76C135.46 124.72 129.56 130.39 124.79 131.75C120.02 133.11 117.98 127.67 117.98 127.67L106.41 139.48L106.43 139.47Z" fill="#FFEFE4"/>
<path d="M120.89 131.66C120.89 131.66 120.84 131.66 120.82 131.66C116.72 130.52 114.09 128.22 113.2 125.03C113.16 124.89 113.24 124.74 113.39 124.7C113.54 124.66 113.69 124.75 113.72 124.89C114.77 128.68 118.24 130.38 120.96 131.14C121.1 131.18 121.19 131.33 121.15 131.48C121.12 131.6 121.01 131.68 120.89 131.68V131.66Z" fill="#B7A69E"/>
<path d="M84.4997 164.29C84.4097 164.29 84.3097 164.24 84.2597 164.15C84.1897 164.02 84.2297 163.85 84.3597 163.78C89.6997 160.73 95.2597 159.93 100.01 161.51C100.15 161.56 100.23 161.71 100.18 161.85C100.13 161.99 99.9797 162.07 99.8397 162.02C95.2397 160.48 89.8397 161.28 84.6297 164.25C84.5897 164.27 84.5397 164.29 84.4997 164.29Z" fill="#CD8C5F"/>
<path d="M100.54 197.441C100.42 197.441 100.3 197.351 100.27 197.231C100.14 196.711 100.81 196.241 102.15 195.311C105.06 193.281 110.47 189.511 111.01 182.321C111.79 171.891 107.83 164.691 99.85 162.031C99.71 161.981 99.63 161.831 99.68 161.691C99.73 161.551 99.88 161.471 100.02 161.521C108.25 164.261 112.35 171.671 111.55 182.371C110.99 189.821 105.44 193.691 102.46 195.771C101.7 196.301 100.83 196.911 100.8 197.121C100.84 197.271 100.75 197.411 100.6 197.441C100.58 197.441 100.56 197.441 100.54 197.441Z" fill="#FFC08F"/>
<path d="M95.5498 161.13C95.4898 161.13 95.4398 161.11 95.3898 161.08C93.5398 159.74 90.8199 159.49 87.9099 160.38C87.7699 160.43 87.6099 160.34 87.5699 160.2C87.5299 160.06 87.6099 159.9 87.7499 159.86C90.8199 158.91 93.7199 159.2 95.7099 160.63C95.8299 160.72 95.8598 160.89 95.7698 161.01C95.7198 161.08 95.6298 161.12 95.5498 161.12V161.13Z" fill="#CD8C5F"/>
<path d="M106.66 166.171C106.58 166.171 106.51 166.141 106.45 166.071C106.35 165.951 106.37 165.781 106.48 165.691C106.5 165.671 108.68 163.811 113.48 157.791C117.51 152.731 119.3 146.511 119.7 144.961C118.33 145.051 116.95 144.961 115.6 144.661C115.45 144.631 115.36 144.481 115.39 144.341C115.42 144.191 115.57 144.101 115.71 144.131C117.13 144.441 118.58 144.531 120.03 144.391C120.11 144.391 120.2 144.421 120.26 144.481C120.32 144.551 120.34 144.631 120.32 144.721C120.3 144.791 118.6 152.231 113.9 158.131C109.06 164.211 106.92 166.031 106.83 166.111C106.78 166.151 106.72 166.171 106.65 166.171H106.66Z" fill="#FFC08F"/>
<path d="M119.47 203.261C119.36 203.261 119.26 203.201 119.22 203.091C118.75 201.941 117.65 201.041 116.43 200.791C116.28 200.761 116.19 200.621 116.22 200.471C116.25 200.321 116.4 200.221 116.54 200.261C117.95 200.541 119.17 201.551 119.72 202.881C119.78 203.021 119.72 203.181 119.57 203.241C119.54 203.251 119.5 203.261 119.47 203.261Z" fill="#B7A69E"/>
<path d="M121.7 202.35C121.58 202.35 121.47 202.27 121.44 202.15C121.27 201.55 120.65 200.11 118.69 199.55C118.55 199.51 118.46 199.36 118.5 199.21C118.54 199.07 118.69 198.98 118.84 199.02C120.41 199.46 121.54 200.55 121.96 201.99C122 202.13 121.92 202.29 121.77 202.33C121.75 202.33 121.72 202.34 121.69 202.34L121.7 202.35Z" fill="#B7A69E"/>
<path d="M60.3104 193.491C60.2604 193.491 60.2104 193.481 60.1604 193.451C55.7204 190.581 52.3104 186.251 50.5804 181.261C50.5304 181.121 50.6104 180.961 50.7504 180.911C50.8904 180.861 51.0504 180.931 51.1004 181.081C52.7904 185.961 56.1204 190.191 60.4604 192.991C60.5904 193.071 60.6204 193.241 60.5404 193.371C60.4904 193.451 60.4004 193.491 60.3104 193.491Z" fill="#CD8C5F"/>
<path d="M52.4297 181.56C52.3297 181.56 52.2297 181.5 52.1797 181.4C51.4597 179.85 51.1397 178.13 51.2497 176.43C51.2597 176.28 51.3997 176.16 51.5397 176.18C51.6897 176.18 51.7997 176.32 51.7897 176.47C51.6797 178.08 51.9797 179.71 52.6697 181.18C52.7297 181.32 52.6697 181.48 52.5397 181.54C52.4997 181.56 52.4597 181.57 52.4197 181.57L52.4297 181.56Z" fill="#CD8C5F"/>
<path d="M63.9302 193.381C63.9302 193.381 63.9202 193.381 63.9102 193.381C62.2302 193.271 60.6102 192.261 59.7802 190.791C59.7102 190.661 59.7502 190.491 59.8802 190.421C60.0102 190.351 60.1802 190.391 60.2502 190.521C60.9902 191.831 62.4402 192.741 63.9402 192.841C64.0902 192.841 64.2002 192.981 64.1902 193.131C64.1902 193.271 64.0602 193.381 63.9202 193.381H63.9302Z" fill="#CD8C5F"/>
<path d="M65.5703 157.511C65.5703 157.511 65.5402 157.511 65.5202 157.511C65.3702 157.491 65.2702 157.351 65.3002 157.201C65.8402 153.971 65.9103 150.691 65.5003 147.451C65.4803 147.301 65.5902 147.161 65.7402 147.151C65.8902 147.131 66.0303 147.241 66.0403 147.391C66.4503 150.691 66.3903 154.021 65.8403 157.301C65.8203 157.431 65.7003 157.531 65.5703 157.531V157.511Z" fill="#CD8C5F"/>
<path d="M93.4204 203.821C97.2604 203.881 100.69 203.931 103.72 203.951C101.96 200.831 98.5704 200.791 95.6804 200.351C90.6904 199.591 94.4704 194.601 100.67 190.221H73.2904L70.9004 194.091C72.7904 199.911 77.6704 203.591 93.4104 203.831L93.4204 203.821Z" fill="#F2BA8E"/>
<path d="M103.52 204.22C102.1 204.22 93.8597 204.2 86.5997 203.65C78.8697 203.07 75.3497 200.56 74.9797 200.29C74.5397 200.09 70.5897 198.05 69.7097 190.25C68.7697 181.91 69.8497 163.5 75.1697 150.49C77.3197 145.24 79.6097 140.21 81.6297 135.77C84.7097 129 87.3697 123.15 88.1797 119.46C88.2097 119.31 88.3597 119.22 88.4997 119.25C88.6497 119.28 88.7397 119.43 88.7097 119.57C87.8897 123.32 85.2197 129.19 82.1197 135.98C80.0997 140.42 77.8097 145.45 75.6697 150.69C70.3797 163.62 69.3097 181.9 70.2397 190.19C71.1197 197.96 75.1797 199.78 75.2197 199.8C75.2397 199.8 75.2597 199.82 75.2797 199.84C75.3097 199.87 78.8097 202.52 86.6297 203.11C94.5397 203.71 103.62 203.68 103.72 203.68C103.87 203.68 103.99 203.8 103.99 203.95C103.99 204.1 103.87 204.22 103.72 204.22H103.51H103.52Z" fill="#CD8C5F"/>
<path d="M77.6101 152.22C77.6101 152.22 77.5601 152.22 77.5401 152.22C77.3901 152.18 77.3101 152.03 77.3501 151.89C78.4001 147.9 80.1001 144.13 82.3901 140.69C82.4701 140.57 82.6401 140.53 82.7701 140.61C82.9001 140.69 82.9301 140.86 82.8501 140.99C80.5901 144.38 78.9201 148.09 77.8901 152.02C77.8601 152.14 77.7501 152.22 77.6301 152.22H77.6101Z" fill="#CD8C5F"/>
<path d="M83.7696 143.291C83.7696 143.291 83.6896 143.291 83.6496 143.261C83.5196 143.191 83.4596 143.031 83.5296 142.891L85.7396 138.511C85.8096 138.371 85.9696 138.321 86.1096 138.391C86.2396 138.461 86.2995 138.621 86.2295 138.761L84.0196 143.141C83.9696 143.231 83.8796 143.291 83.7796 143.291H83.7696Z" fill="#CD8C5F"/>
<path d="M83.7403 137.931C83.7403 137.931 83.6603 137.931 83.6203 137.901C83.4903 137.831 83.4303 137.671 83.5003 137.531L84.8603 134.811C84.9303 134.681 85.0902 134.621 85.2302 134.691C85.3602 134.761 85.4203 134.921 85.3503 135.061L83.9903 137.781C83.9403 137.871 83.8503 137.931 83.7503 137.931H83.7403Z" fill="#CD8C5F"/>
<path d="M89.42 113.59H89.4C89.25 113.58 89.14 113.44 89.15 113.3C89.39 110.58 89.33 107.66 89.28 104.84C89.19 100.19 89.11 95.7902 90.3 92.6302C92.34 87.1902 100.54 84.7902 106.23 86.3402C106.37 86.3802 106.46 86.5302 106.42 86.6702C106.38 86.8202 106.23 86.9002 106.08 86.8602C100.73 85.3902 92.72 87.7202 90.81 92.8102C89.66 95.8702 89.74 100.21 89.83 104.81C89.88 107.65 89.94 110.58 89.7 113.33C89.69 113.47 89.57 113.58 89.43 113.58L89.42 113.59Z" fill="#CD8C5F"/>
<path d="M116.69 141.691C115.4 141.691 114.12 141.271 113.09 140.501C112.97 140.411 112.95 140.241 113.04 140.121C113.13 140.001 113.3 139.981 113.42 140.071C114.68 141.021 116.35 141.381 117.89 141.021C118.04 140.991 118.18 141.081 118.22 141.221C118.25 141.371 118.16 141.511 118.02 141.551C117.59 141.651 117.15 141.701 116.71 141.701L116.69 141.691Z" fill="#B7A69E"/>
<path d="M60.5299 134.381C60.4299 134.381 60.34 134.331 60.2899 134.241C58.7499 131.411 56.2799 129.121 53.3399 127.801C53.1999 127.741 53.1399 127.581 53.1999 127.441C53.2599 127.301 53.4199 127.241 53.5599 127.301C56.6099 128.671 59.16 131.051 60.76 133.981C60.83 134.111 60.7799 134.28 60.6499 134.35C60.6099 134.37 60.5599 134.381 60.5199 134.381H60.5299Z" fill="#B7A69E"/>
<path d="M54.0297 129.85C53.9797 129.85 53.9197 129.83 53.8797 129.8C52.6597 128.98 51.3097 128.39 49.8697 128.05C49.7197 128.02 49.6297 127.87 49.6697 127.72C49.6997 127.57 49.8397 127.48 49.9997 127.52C51.4997 127.88 52.9097 128.49 54.1897 129.35C54.3097 129.43 54.3497 129.6 54.2597 129.73C54.2097 129.81 54.1197 129.85 54.0297 129.85Z" fill="#B7A69E"/>
<path d="M88.7298 114.659C88.7298 114.659 103.33 118.369 115.58 112.689L117.32 117.679C117.32 117.679 103.71 123.809 88.0498 119.419L88.7298 114.659Z" fill="#D5645D"/>
<path d="M99.7296 121.29C96.0796 121.29 92.0896 120.86 87.9696 119.71C87.8296 119.67 87.7396 119.53 87.7596 119.39L88.4396 114.63C88.4496 114.55 88.4996 114.47 88.5696 114.43C88.6396 114.38 88.7196 114.37 88.8096 114.39C88.9596 114.43 103.45 118 115.46 112.44C115.53 112.4 115.62 112.4 115.7 112.44C115.78 112.47 115.84 112.53 115.86 112.61L117.6 117.6C117.65 117.74 117.58 117.9 117.44 117.96C117.34 118 109.87 121.29 99.7296 121.29ZM88.3796 119.21C102.5 123.07 115.05 118.3 116.95 117.52L115.41 113.09C104.26 118.1 91.1696 115.5 88.9796 115.01L88.3796 119.2V119.21Z" fill="#AA4646"/>
<path d="M94.6293 120.82C94.6293 120.82 94.6093 120.82 94.5893 120.82C94.4293 120.8 94.3093 120.65 94.3293 120.49L94.8993 115.73C94.9193 115.57 95.0593 115.46 95.2293 115.47C95.3893 115.49 95.5093 115.64 95.4893 115.8L94.9193 120.56C94.8993 120.71 94.7793 120.82 94.6293 120.82Z" fill="#AA4646"/>
<path d="M103.37 121.04C103.21 121.04 103.08 120.92 103.08 120.76L102.85 115.77C102.85 115.61 102.97 115.47 103.13 115.46C103.29 115.44 103.43 115.58 103.44 115.74L103.67 120.73C103.67 120.89 103.55 121.03 103.39 121.04H103.38H103.37Z" fill="#AA4646"/>
<path d="M111.419 119.461C111.289 119.461 111.169 119.37 111.139 119.24L110.119 115.04C110.079 114.88 110.179 114.72 110.339 114.69C110.499 114.65 110.659 114.751 110.689 114.901L111.709 119.1C111.749 119.26 111.649 119.421 111.489 119.451C111.469 119.451 111.439 119.451 111.419 119.451V119.461Z" fill="#AA4646"/>
<path d="M119.26 119.15C119.61 120.47 119.04 121.77 117.97 122.06C116.9 122.35 115.75 121.51 115.39 120.19C115.04 118.87 115.61 117.57 116.68 117.28C117.75 116.99 118.9 117.83 119.26 119.15Z" fill="#E8AF64"/>
<path d="M136.42 201.4C136.3 201.4 136.19 201.32 136.16 201.19C135.85 199.96 134.66 198.98 133.39 198.91C133.24 198.91 133.13 198.77 133.13 198.62C133.13 198.47 133.27 198.34 133.42 198.36C134.94 198.45 136.31 199.58 136.68 201.05C136.72 201.2 136.63 201.34 136.48 201.38C136.46 201.38 136.44 201.38 136.41 201.38L136.42 201.4Z" fill="#B7A69E"/>
<path d="M138.09 200.12C137.96 200.12 137.84 200.03 137.82 199.89C137.72 199.3 137.4 198.73 136.93 198.35C136.47 197.96 135.88 197.76 135.26 197.75C135.11 197.75 134.99 197.63 134.99 197.48C134.99 197.33 135.11 197.21 135.26 197.2C136 197.17 136.73 197.46 137.29 197.92C137.85 198.38 138.24 199.07 138.36 199.79C138.38 199.94 138.29 200.08 138.14 200.1C138.12 200.1 138.11 200.1 138.09 200.1V200.12Z" fill="#B7A69E"/>
<path d="M124.99 86.5704C125.49 87.6204 125.53 89.1005 124.82 89.4605C123.84 89.9605 120.6 88.6204 120.9 87.2404C121.04 86.5904 124.42 85.3804 125 86.5704H124.99Z" fill="#4C4546"/>
<path d="M232.48 187.83C237.31 187.18 242.45 191.77 242.45 195.28C242.45 197.41 241.68 199.65 243.19 199.42C244.6 199.2 245.8 197.31 246.83 193.99C248.26 189.38 242.8 182.88 241.43 181.97C238.5 180.01 231.92 181.03 231.92 181.03L232.47 187.84L232.48 187.83Z" fill="#5E5254"/>
<path d="M164.88 195.84C169.55 203.66 155.34 199.88 155.31 203.17C155.28 206.46 170.83 206.4 172.82 204.27C175.23 201.69 170.93 192.65 170.93 192.65L164.89 195.84H164.88Z" fill="#5E5254"/>
<path d="M176.46 132.73C176.01 133.79 172.22 136.06 159.67 140.44C147.12 144.83 144.85 148.01 143.33 151.49C141.82 154.97 142.27 161.92 150.29 176.59C158.31 191.26 162.39 196.56 162.39 196.56C162.39 196.56 169.95 198.46 173.58 192.33C173.58 192.33 171.01 179.47 168.13 172.36C165.25 165.25 164.5 163.28 164.5 163.28C164.5 163.28 181.52 160.34 189 154.21C195.11 149.21 176.45 132.72 176.45 132.72L176.46 132.73Z" fill="#A48DA8"/>
<path d="M165.03 197.14C163.46 197.14 162.35 196.87 162.32 196.86C162.15 196.82 162.05 196.65 162.09 196.48C162.13 196.31 162.31 196.21 162.48 196.25C162.55 196.27 169.77 197.99 173.26 192.27C172.99 190.95 170.54 179.12 167.86 172.48C165.02 165.45 164.24 163.41 164.23 163.39C164.2 163.3 164.2 163.2 164.25 163.12C164.3 163.04 164.38 162.98 164.47 162.96C164.64 162.93 181.49 159.96 188.83 153.96C188.96 153.85 189.17 153.87 189.28 154C189.39 154.14 189.37 154.34 189.24 154.45C182.31 160.12 167.59 163.03 164.97 163.52C165.3 164.36 166.26 166.81 168.46 172.24C171.31 179.29 173.9 192.13 173.92 192.26C173.94 192.34 173.92 192.42 173.88 192.48C171.56 196.39 167.67 197.13 165.05 197.13L165.03 197.14Z" fill="#7F6F89"/>
<path d="M180.85 139.24C180.85 139.24 183.42 161.01 185.99 174.63C188.56 188.24 190.46 201.47 197.64 202.76C203.99 203.9 211.94 200.17 219.57 197.01C228.34 193.38 236.51 190.201 236.51 190.201C236.51 190.201 238.78 181.58 234.85 178.25C234.85 178.25 221.54 176.74 208.98 180.37C208.98 180.37 210.19 164.95 210.8 156.93C211.41 148.91 210.95 140.13 210.95 140.13L180.85 139.23V139.24Z" fill="#A48DA8"/>
<path d="M200.51 144.99C200.51 144.99 202.33 149.38 208.53 149.07C208.53 149.07 208.68 145.59 208.68 143.02L200.51 144.99Z" fill="#7F6F89"/>
<path d="M200.1 203.29C199.24 203.29 198.399 203.22 197.579 203.08C190.719 201.85 188.549 190.13 186.239 177.72C186.049 176.72 185.869 175.71 185.679 174.7C184.519 168.56 183.32 160.14 182.35 153.37L182.269 152.83C182.229 152.62 181.479 151.98 180.669 151.46C180.589 151.41 180.54 151.33 180.53 151.23C179.6 144.32 179.169 138.86 179.169 138.81C179.159 138.64 179.289 138.48 179.459 138.47C179.649 138.45 179.789 138.59 179.799 138.76C179.799 138.81 180.229 144.18 181.139 151C181.729 151.38 182.819 152.17 182.899 152.73L182.979 153.27C183.949 160.03 185.149 168.44 186.299 174.57C186.489 175.58 186.679 176.59 186.859 177.6C189.119 189.79 191.26 201.3 197.69 202.45C203.35 203.47 210.42 200.5 217.26 197.63C217.99 197.32 218.72 197.02 219.45 196.72C227.47 193.4 235.079 190.43 236.239 189.97C236.509 188.8 238.09 181.42 234.64 178.5C234.51 178.39 234.489 178.19 234.599 178.05C234.709 177.91 234.909 177.9 235.049 178.01C239.089 181.43 236.91 189.92 236.82 190.28C236.79 190.38 236.72 190.46 236.63 190.49C236.55 190.52 228.36 193.71 219.7 197.29C218.97 197.59 218.25 197.89 217.52 198.2C211.56 200.7 205.429 203.27 200.109 203.27L200.1 203.29Z" fill="#7F6F89"/>
<path d="M133.64 78.9297C133.64 78.9297 130.2 81.2797 130.77 82.5797C131.17 83.4897 132.19 82.5197 132.36 82.6397C132.89 82.9997 132.53 88.6497 135.03 90.5397C138.22 92.9497 139.64 83.9597 139.64 83.9597L136.31 79.0397L133.64 78.9297Z" fill="#FCBB8B"/>
<path d="M141.22 88.2702C141.07 84.1902 141.45 82.5201 141.07 81.1601C140.69 79.8001 137.74 77.6102 136.46 77.4502C135.18 77.2902 132.68 78.9602 132.83 79.9502C132.98 80.9302 133.89 80.8602 135.63 79.9502C137.09 79.1902 138.88 86.0002 138.88 86.0002L141.22 88.2702Z" fill="#F6CCAC"/>
<path d="M135.36 83.4304C136.487 83.4304 137.4 82.5932 137.4 81.5604C137.4 80.5277 136.487 79.6904 135.36 79.6904C134.234 79.6904 133.32 80.5277 133.32 81.5604C133.32 82.5932 134.234 83.4304 135.36 83.4304Z" fill="#985448"/>
<path d="M161.94 97.1797C161.94 97.1797 154.12 103.25 150.44 103.09C147.11 102.94 142.27 92.0497 141.21 88.2697C141.21 88.2697 140.34 86.9697 140.08 85.6197C139.63 83.3497 137.43 80.9297 136.22 81.3797C135.01 81.8297 137.35 83.4597 137.05 84.8997C136.83 85.9397 135.67 86.9797 136.2 89.7797L135.01 90.5396C135.01 90.5396 138.25 113.7 150.89 115.34C159.06 116.4 171.76 105.21 171.76 105.21L161.93 97.1897L161.94 97.1797Z" fill="#F6CCAC"/>
<path d="M152.04 115.72C151.64 115.72 151.24 115.7 150.86 115.65C138.12 114 134.95 91.2402 134.82 90.2802C134.8 90.1102 134.92 89.9501 135.09 89.9201C135.26 89.9001 135.42 90.0202 135.45 90.1902C135.48 90.4202 138.69 113.43 150.94 115.02C158.86 116.04 171.44 105.07 171.56 104.96C171.69 104.84 171.89 104.86 172.01 104.99C172.13 105.12 172.11 105.32 171.98 105.44C171.48 105.88 160.21 115.73 152.04 115.73V115.72Z" fill="#FCBB8B"/>
<path d="M173.59 86.8203C167.54 90.0703 160.88 96.7303 160.88 96.7303C160.88 96.7303 165.42 107.02 170.26 108.53L176.16 104.29L173.59 86.8203Z" fill="#F2E5DC"/>
<path d="M197.279 55.1399C196.939 52.6299 195.269 50.5998 193.559 50.2898C192.339 50.0698 191.389 50.7098 190.399 51.5398C189.299 52.4698 180.519 53.6298 180.079 54.9698C179.639 56.3098 183.129 58.3198 183.029 59.6898C182.899 61.4598 187.429 60.8698 187.459 62.6298C187.479 63.9398 187.599 65.3398 188.459 66.2398C189.359 67.1698 189.509 74.1198 190.769 73.4398C190.769 73.4398 195.439 73.3198 197.029 63.9298C197.559 60.8398 197.569 57.3799 197.269 55.1399H197.279Z" fill="#3B3232"/>
<path d="M191.819 67.4795C191.819 67.4795 192.259 74.3795 192.889 78.0995C193.709 82.9695 197.039 83.4195 197.039 83.4195C197.039 83.4195 196.039 87.8395 187.219 89.3595C184.119 89.8895 178.989 88.7495 177.189 85.6395C177.189 85.6395 180.149 85.2395 180.589 82.2195C180.879 80.2695 179.999 74.1095 179.999 74.1095L189.169 67.0195L191.829 67.4695L191.819 67.4795Z" fill="#F6C39D"/>
<path d="M192.83 77.4395C192.45 74.0395 192.12 70.1095 192.12 68.2995L190.16 67.1895L189.16 67.0195L179.99 74.1095C179.99 74.1095 180.87 80.2595 180.58 82.2195C180.52 82.6095 180.42 82.9495 180.3 83.2495C180.85 83.5395 183.58 84.6995 188.26 82.4295C190.26 81.4595 191.84 79.5295 192.83 77.4395Z" fill="#F6C39D"/>
<path d="M191.449 65.8799C189.399 65.8499 188.789 63.1999 189.239 61.2899C189.239 61.2899 185.539 59.3799 185.959 55.2999C182.519 53.1899 173.039 53.0499 173.069 59.0299C173.109 69.0199 174.919 75.1399 176.429 77.7599C178.009 80.5099 181.389 81.1999 184.919 79.3599C187.239 78.1499 189.489 74.8899 190.339 70.9999C192.379 71.3999 193.849 69.9499 194.529 68.1099C195.589 64.1499 192.379 64.4799 191.459 65.8799H191.449Z" fill="#F6CCAC"/>
<path d="M194.17 46.6699C194.64 47.3099 194.45 48.4499 194.3 49.1899C194.13 50.0499 193.67 50.9499 192.87 51.3799C192.73 51.4499 192.49 51.4399 192.37 51.3299C192.15 51.1299 192.1 50.8999 192.27 50.6299C192.38 50.4599 192.63 50.3599 192.77 50.2199C192.96 50.0299 193.09 49.7999 193.2 49.5599C193.44 49.0599 193.58 48.5299 193.68 47.9899C193.76 47.5699 193.74 47.1299 193.88 46.7299C193.92 46.6199 194.09 46.5899 194.16 46.6799L194.17 46.6699Z" fill="#50504F"/>
<path d="M196.02 47.6604C196.21 48.4304 195.6 49.4104 195.18 50.0404C194.7 50.7704 193.92 51.4304 193.02 51.5104C192.86 51.5204 192.65 51.4204 192.58 51.2804C192.46 51.0204 192.5 50.7804 192.76 50.5904C192.93 50.4704 193.19 50.4804 193.38 50.4004C193.62 50.3004 193.84 50.1304 194.03 49.9604C194.45 49.5904 194.78 49.1504 195.07 48.6904C195.3 48.3304 195.46 47.9204 195.74 47.6004C195.82 47.5104 195.99 47.5504 196.01 47.6604H196.02Z" fill="#50504F"/>
<path d="M179.389 64.5904C179.389 64.5904 179.679 65.1103 179.939 65.9703C179.999 66.1903 180.059 66.4303 180.089 66.7003C180.109 66.8403 180.119 66.9703 180.109 67.1303C180.109 67.2703 180.109 67.3803 180.079 67.5403C180.009 68.1703 179.799 68.7503 179.509 69.3003C179.219 69.8403 178.869 70.3504 178.569 70.7804C178.499 70.8804 178.429 71.0003 178.409 71.0503C178.429 71.0003 178.409 70.9604 178.399 70.9004C178.369 70.8404 178.449 71.0203 178.399 70.9004C178.459 70.9804 178.649 71.0803 178.809 71.1403C179.149 71.2803 179.469 71.3303 179.689 71.3703C179.919 71.3903 180.049 71.4004 180.049 71.4004C180.229 71.4204 180.349 71.5703 180.329 71.7503C180.309 71.8903 180.219 71.9904 180.089 72.0304C180.089 72.0304 179.929 72.0704 179.649 72.0904C179.369 72.1104 178.969 72.0903 178.489 71.9503C178.249 71.8603 177.999 71.7803 177.719 71.5003C177.669 71.4803 177.519 71.1903 177.529 71.1903C177.489 71.0703 177.499 70.9603 177.519 70.8503C177.539 70.7703 177.559 70.7403 177.579 70.6803C177.669 70.5003 177.749 70.3903 177.829 70.2703C178.159 69.8103 178.489 69.3703 178.759 68.8903C179.019 68.4203 179.229 67.9003 179.309 67.4503C179.339 67.3503 179.339 67.1903 179.359 67.0703C179.369 66.9803 179.359 66.8503 179.359 66.7403C179.349 66.5203 179.309 66.3003 179.279 66.1003C179.199 65.7003 179.099 65.3703 179.019 65.1403C178.939 64.9103 178.889 64.7903 178.889 64.7903C178.839 64.6503 178.909 64.5003 179.049 64.4403C179.169 64.3903 179.309 64.4403 179.379 64.5503L179.389 64.5904Z" fill="#D5857C"/>
<path d="M191.18 67.6602C190.74 68.5702 190.86 69.4802 191.45 69.7002C192.04 69.9202 192.87 69.3402 193.31 68.4302C193.75 67.5202 193.63 66.6102 193.04 66.3902C192.45 66.1802 191.62 66.7502 191.18 67.6602Z" fill="#D4847B"/>
<path d="M177.38 61.8795C177.43 62.4495 176.31 62.7395 175.17 63.1295C173.49 63.7095 173.07 63.8296 172.8 63.3996C172.67 63.1896 172.57 62.0796 174.37 61.3996C176.48 60.5996 177.33 61.2895 177.38 61.8795Z" fill="#3B3232"/>
<path d="M184 62.3399C185.34 62.5399 186.38 62.9099 186.69 62.4199C186.95 62.0099 186.65 60.9999 184.5 60.4499C183.31 60.1399 181.42 60.2498 181.29 61.2898C181.17 62.2698 182.63 62.1299 184 62.3399Z" fill="#3B3232"/>
<path d="M170.78 55.63C170.78 55.63 168 52.96 170.04 50.34C172.08 47.72 174.64 48.59 174.64 48.59C174.64 48.59 175.12 44.93 179.71 44.99C184.3 45.05 185.64 48.36 185.64 48.36C185.64 48.36 186.83 46.56 190.05 47.63C193.27 48.7 193.7 50.79 193.7 50.79L186.56 55.8C183.94 57.67 180.86 58.51 177.08 57.75C175.93 59.94 173.44 60.97 171.68 60.09C170.2 59.35 169.4 57.5 170.77 55.61L170.78 55.63Z" fill="#3B3232"/>
<path d="M173.06 60.7604C172.53 60.7604 172.01 60.6504 171.54 60.4104C170.66 59.9704 170.04 59.2004 169.82 58.3104C169.67 57.6904 169.65 56.7504 170.35 55.6604C169.72 54.9404 167.92 52.5104 169.78 50.1304C171.94 47.3604 174.73 48.2605 174.76 48.2705C174.94 48.3305 175.03 48.5205 174.97 48.7005C174.91 48.8805 174.72 48.9704 174.54 48.9204C174.44 48.8904 172.17 48.1804 170.31 50.5504C168.48 52.8904 170.91 55.2804 171.02 55.3804C171.14 55.5004 171.16 55.6905 171.06 55.8305C170.5 56.6005 170.3 57.4005 170.48 58.1505C170.65 58.8505 171.15 59.4504 171.84 59.8004C173.46 60.6104 175.72 59.6104 176.78 57.6104C176.85 57.4804 177 57.4104 177.15 57.4304C180.6 58.1304 183.61 57.5004 186.36 55.5404C186.51 55.4304 186.73 55.4704 186.84 55.6204C186.95 55.7704 186.91 55.9904 186.76 56.1004C183.91 58.1304 180.8 58.8105 177.26 58.1505C176.31 59.7805 174.63 60.7705 173.06 60.7705V60.7604Z" fill="#413B33"/>
<path d="M173.16 55.1304H173.14C172.29 55.0804 171.49 54.6004 171.05 53.8804C170.6 53.1604 170.54 52.2304 170.87 51.4504C170.94 51.2804 171.15 51.2004 171.32 51.2704C171.49 51.3404 171.57 51.5504 171.5 51.7204C171.25 52.3004 171.3 52.9904 171.63 53.5204C171.96 54.0504 172.55 54.4104 173.18 54.4504C173.37 54.4604 173.51 54.6204 173.5 54.8104C173.49 54.9904 173.34 55.1304 173.16 55.1304Z" fill="#413B33"/>
<path d="M172.139 58.8902C172.089 58.8902 172.029 58.8802 171.979 58.8502C171.479 58.5802 171.139 58.0702 171.079 57.5102C171.019 56.9502 171.259 56.3802 171.689 56.0202C171.839 55.9002 172.049 55.9202 172.169 56.0602C172.289 56.2102 172.269 56.4202 172.129 56.5402C171.869 56.7502 171.729 57.1102 171.759 57.4402C171.789 57.7702 172.009 58.0902 172.299 58.2502C172.469 58.3402 172.529 58.5502 172.439 58.7102C172.379 58.8302 172.259 58.8902 172.139 58.8902Z" fill="#413B33"/>
<path d="M185.01 55.3404C184.85 55.3404 184.71 55.2304 184.68 55.0704C184.64 54.8804 184.76 54.7004 184.95 54.6704C186.43 54.3704 187.7 53.2004 188.11 51.7404C188.16 51.5604 188.34 51.4504 188.53 51.5004C188.71 51.5504 188.82 51.7404 188.77 51.9204C188.29 53.6204 186.81 54.9904 185.08 55.3304C185.06 55.3304 185.04 55.3304 185.01 55.3304V55.3404Z" fill="#413B33"/>
<path d="M192.19 61.1898C191.5 61.1898 190.8 61.0498 190.17 60.7698C189.08 60.2898 188.16 59.3998 187.65 58.3098C187.57 58.1398 187.65 57.9297 187.81 57.8497C187.98 57.7697 188.19 57.8498 188.27 58.0098C188.71 58.9398 189.5 59.7198 190.45 60.1298C191.39 60.5498 192.5 60.6097 193.48 60.2997C193.66 60.2397 193.85 60.3398 193.91 60.5198C193.97 60.6998 193.87 60.8898 193.69 60.9498C193.21 61.0998 192.7 61.1798 192.2 61.1798L192.19 61.1898Z" fill="#413B33"/>
<path d="M192.119 63.1305C191.309 63.1305 190.489 62.8005 189.939 62.2005C189.809 62.0605 189.819 61.8405 189.959 61.7205C190.099 61.5905 190.319 61.6005 190.439 61.7405C191.059 62.4105 192.109 62.6405 192.939 62.2805C193.119 62.2105 193.319 62.2805 193.389 62.4605C193.459 62.6305 193.389 62.8405 193.209 62.9105C192.859 63.0605 192.489 63.1305 192.109 63.1305H192.119Z" fill="#413B33"/>
<path d="M196.139 56.5403C196.139 56.5403 196.119 56.5403 196.099 56.5403C195.909 56.5203 195.779 56.3503 195.799 56.1603C195.969 54.6303 195.079 53.0503 193.689 52.3903C193.519 52.3103 193.449 52.1003 193.529 51.9303C193.609 51.7603 193.819 51.6903 193.989 51.7703C195.629 52.5503 196.679 54.4303 196.489 56.2303C196.469 56.4003 196.319 56.5303 196.149 56.5303L196.139 56.5403Z" fill="#413B33"/>
<path d="M184.23 49.58C184.06 49.58 183.91 49.46 183.89 49.28C183.74 48.09 182.77 47.03 181.6 46.77C181.42 46.73 181.3 46.55 181.34 46.36C181.38 46.17 181.56 46.06 181.75 46.1C183.2 46.42 184.38 47.72 184.57 49.19C184.59 49.38 184.46 49.55 184.27 49.57C184.26 49.57 184.24 49.57 184.23 49.57V49.58Z" fill="#413B33"/>
<path d="M191.819 51.3403C191.819 51.3403 191.769 51.3403 191.749 51.3403C191.559 51.3003 191.449 51.1203 191.489 50.9303C191.649 50.1603 191.129 49.3003 190.369 49.0803C190.189 49.0303 190.079 48.8403 190.129 48.6603C190.179 48.4803 190.369 48.3703 190.549 48.4203C191.659 48.7303 192.399 49.9403 192.159 51.0703C192.129 51.2303 191.979 51.3403 191.829 51.3403H191.819Z" fill="#413B33"/>
<path d="M177.4 84.7798C177.4 84.7798 178.76 88.6398 184.43 88.6398C190.1 88.6398 196 82.5098 196 82.5098C196 82.5098 202.7 83.3497 206.56 91.7397C210.42 100.13 208.07 118.13 214.43 140.82C206.33 154.11 177.56 144.58 172.91 135.15C172.46 127.44 177.74 133.92 174.35 119.27C171.93 108.83 170.95 106.19 171.17 100.06C171.4 93.9298 173.54 86.8198 173.54 86.8198L177.4 84.7798Z" fill="#F2E5DC"/>
<path d="M194.189 136.9C188.139 136.9 182.019 134.78 177.339 130.99C177.199 130.88 177.179 130.68 177.289 130.54C177.399 130.4 177.599 130.38 177.739 130.49C183.069 134.82 190.329 136.91 197.149 136.09C197.319 136.06 197.479 136.19 197.499 136.37C197.519 136.54 197.399 136.7 197.219 136.72C196.209 136.84 195.199 136.9 194.179 136.9H194.189Z" fill="#CCB9AD"/>
<path d="M192.499 134.54H192.479C189.909 134.35 187.389 133.79 184.979 132.87C184.819 132.81 184.729 132.62 184.799 132.46C184.859 132.29 185.049 132.22 185.209 132.28C187.559 133.17 190.019 133.72 192.529 133.91C192.699 133.92 192.839 134.07 192.819 134.25C192.809 134.42 192.669 134.54 192.499 134.54Z" fill="#CCB9AD"/>
<path d="M171.17 100.38H171.16C170.98 100.38 170.85 100.23 170.85 100.05C170.87 99.5301 170.9 99.0101 170.95 98.4901C170.96 98.3201 171.12 98.1802 171.29 98.2002C171.46 98.2102 171.59 98.3701 171.58 98.5401C171.54 99.0601 171.51 99.5702 171.49 100.08C171.49 100.25 171.34 100.39 171.17 100.39V100.38Z" fill="#CCB9AD"/>
<path d="M172.91 135.47C172.74 135.47 172.6 135.34 172.59 135.17C172.4 131.95 173.2 131.07 173.96 130.23C174.98 129.11 176.03 127.96 174.03 119.34C173.61 117.55 173.24 115.99 172.91 114.6C171.32 107.93 170.66 105.17 170.85 100.05C170.85 99.8802 171.02 99.7502 171.18 99.7402C171.36 99.7402 171.49 99.8903 171.49 100.07C171.3 105.1 171.96 107.84 173.54 114.45C173.87 115.84 174.25 117.4 174.66 119.2C176.73 128.14 175.62 129.37 174.44 130.66C173.73 131.44 173.06 132.18 173.23 135.13C173.24 135.3 173.11 135.46 172.93 135.47H172.91Z" fill="#CCB9AD"/>
<path d="M186.3 107.92C186.3 107.92 183.27 115.79 179.49 119.11C175.45 122.66 162.9 127.46 159.37 127.59C157.33 127.67 156.94 127.4 155.21 127.29C153.39 127.18 150.9 126.84 150.45 127.52C150 128.2 151.43 127.88 153.17 129.34C153.85 129.91 153.71 131.49 151.58 132.33C148.61 133.5 147.94 133.01 147.27 133.58C146.29 134.41 147.72 135.24 149.09 135.09C149.09 135.09 148.45 135.65 148.86 136.38C149.38 137.29 151.36 136.68 151.36 136.68C151.36 136.68 150.96 137.27 151.66 137.74C152.37 138.22 154 137.82 156.35 136.98C158.31 136.29 159.98 134.94 161 134.37C162.02 133.8 177.03 134.44 186.3 128.21C195.07 122.31 200.1 111.11 200.1 111.11L186.3 107.93V107.92Z" fill="#F6CCAC"/>
<path d="M152.52 138.25C152.09 138.25 151.74 138.17 151.48 137.99C151.18 137.79 151 137.54 150.94 137.25C150.94 137.2 150.92 137.15 150.92 137.11C150.22 137.25 149.02 137.34 148.57 136.53C148.35 136.14 148.3 135.77 148.4 135.44C148.4 135.43 148.4 135.42 148.4 135.41C147.88 135.37 147.22 135.23 146.91 134.78C146.67 134.42 146.69 133.97 146.97 133.44C147.05 133.28 147.24 133.22 147.4 133.3C147.56 133.38 147.62 133.57 147.54 133.73C147.38 134.04 147.35 134.28 147.45 134.43C147.69 134.78 148.63 134.82 149.05 134.78C149.2 134.76 149.34 134.86 149.38 135.01C149.42 135.16 149.35 135.31 149.21 135.38C149.21 135.38 149.05 135.47 149 135.64C148.95 135.8 149 135.99 149.12 136.22C149.43 136.79 150.79 136.52 151.24 136.37C151.37 136.33 151.51 136.37 151.59 136.48C151.67 136.59 151.67 136.74 151.59 136.85C151.53 136.95 151.42 137.21 151.81 137.47C152.48 137.92 154.51 137.28 156.21 136.68C157.55 136.2 158.76 135.41 159.73 134.77C160.14 134.5 160.51 134.26 160.81 134.09C161.1 133.93 161.83 133.88 163.62 133.75C168.62 133.41 179.02 132.69 186.08 127.94C194.67 122.16 199.72 111.09 199.77 110.97C199.84 110.81 200.03 110.74 200.19 110.81C200.35 110.88 200.42 111.07 200.35 111.23C200.3 111.34 195.18 122.58 186.44 128.46C179.23 133.31 168.72 134.03 163.67 134.38C162.46 134.46 161.32 134.54 161.12 134.64C160.83 134.8 160.47 135.03 160.08 135.3C159.08 135.96 157.84 136.77 156.43 137.27C154.75 137.86 153.44 138.25 152.5 138.25H152.52Z" fill="#FCBB8B"/>
<path d="M184.779 108.39C184.779 108.39 192.719 112.92 200.889 112.47C200.889 112.47 208.809 90.3203 198.389 87.5203C188.559 84.8803 184.779 108.39 184.779 108.39Z" fill="#F2E5DC"/>
<path d="M199.74 112.81C191.99 112.81 184.7 108.7 184.62 108.66C184.49 108.59 184.43 108.44 184.47 108.29C184.49 108.23 186.3 102.02 187.99 95.8897C188.04 95.7197 188.21 95.6197 188.38 95.6697C188.55 95.7197 188.65 95.8897 188.6 96.0597C187.11 101.5 185.51 107.01 185.15 108.22C186.47 108.92 193.49 112.46 200.65 112.15C201.15 110.66 204.22 101.29 204.08 94.9997C204.08 94.8197 204.22 94.6797 204.39 94.6797C204.56 94.6797 204.7 94.8197 204.71 94.9897C204.86 101.92 201.21 112.46 201.18 112.56C201.14 112.68 201.03 112.77 200.9 112.77C200.51 112.79 200.12 112.8 199.73 112.8L199.74 112.81Z" fill="#CCB9AD"/>
<path d="M182.28 65.7804C182.48 66.3504 183.08 66.7603 183.6 66.7003C184.13 66.6403 184.39 66.1303 184.18 65.5703C183.98 65.0003 183.38 64.5904 182.86 64.6504C182.33 64.7104 182.07 65.2204 182.28 65.7804Z" fill="#5E5254"/>
<path d="M185.53 65.9098C185.28 64.9898 184.42 64.2398 183.1 64.2298C182.33 64.2098 181.68 65.1598 181.84 65.6298C181.84 65.6298 182.37 64.9898 183.17 65.0198C183.97 65.0498 185.53 65.9098 185.53 65.9098Z" fill="#5E5254"/>
<path d="M174.31 66.4493C174.51 66.9893 175.06 67.3893 175.55 67.3293C176.04 67.2693 176.28 66.7892 176.08 66.2492C175.88 65.7092 175.33 65.3092 174.84 65.3692C174.35 65.4292 174.11 65.9093 174.31 66.4493Z" fill="#5E5254"/>
<path d="M177.2 66.5695C177.14 65.6795 176.22 64.8195 175.16 64.9295C174.31 64.9695 173.73 66.0395 173.88 66.4995C173.88 66.4995 174.35 65.7195 175.23 65.6895C176.21 65.6595 177.2 66.5795 177.2 66.5795V66.5695Z" fill="#5E5254"/>
<path d="M171.21 104.73C171.11 104.73 171.01 104.68 170.95 104.59C170.01 103.22 169.47 101.55 169.42 99.8798C169.42 99.6998 169.55 99.5598 169.73 99.5498C169.94 99.5698 170.05 99.6798 170.06 99.8598C170.11 101.4 170.61 102.95 171.48 104.23C171.58 104.37 171.54 104.57 171.4 104.67C171.35 104.71 171.28 104.72 171.22 104.72L171.21 104.73Z" fill="#CCB9AD"/>
<path d="M203.95 100.87C203.88 100.87 203.8 100.84 203.74 100.79C203.61 100.67 203.59 100.47 203.71 100.34C204.37 99.5803 204.82 98.6502 205.02 97.6602C205.05 97.4902 205.23 97.3802 205.39 97.4102C205.56 97.4402 205.67 97.6103 205.64 97.7803C205.43 98.8803 204.92 99.9102 204.19 100.76C204.13 100.83 204.04 100.87 203.95 100.87Z" fill="#CCB9AD"/>
<path d="M149.09 135.4C148.94 135.4 148.81 135.29 148.78 135.14C148.75 134.97 148.86 134.8 149.03 134.77C149.03 134.77 149.81 134.62 150.4 134.41C150.56 134.35 150.75 134.44 150.81 134.6C150.87 134.76 150.79 134.95 150.62 135.01C149.98 135.24 149.19 135.39 149.15 135.4C149.13 135.4 149.11 135.4 149.09 135.4Z" fill="#D4847B"/>
<path d="M151.35 136.99C151.2 136.99 151.07 136.89 151.04 136.74C151 136.57 151.12 136.4 151.29 136.36C151.56 136.31 152.35 136.11 152.73 135.9C152.88 135.81 153.08 135.87 153.16 136.02C153.25 136.17 153.19 136.37 153.04 136.45C152.49 136.75 151.46 136.97 151.42 136.98C151.4 136.98 151.38 136.98 151.36 136.98L151.35 136.99Z" fill="#D4847B"/>
<path d="M186.52 125.94C186.4 125.94 186.29 125.88 186.24 125.76C186.16 125.6 186.23 125.41 186.38 125.33C187.36 124.84 188.21 124.04 188.75 123.09C188.84 122.94 189.03 122.88 189.18 122.97C189.33 123.06 189.39 123.25 189.3 123.4C188.69 124.46 187.75 125.35 186.66 125.9C186.61 125.92 186.57 125.93 186.52 125.93V125.94Z" fill="#D4847B"/>
<path d="M180.85 151.51C180.8 151.51 180.74 151.5 180.69 151.47C180.39 151.3 173.34 147.31 171.65 144.55C171.56 144.4 171.61 144.2 171.76 144.11C171.91 144.02 172.11 144.07 172.2 144.22C173.8 146.84 180.94 150.88 181.01 150.92C181.16 151.01 181.22 151.2 181.13 151.35C181.07 151.45 180.96 151.51 180.85 151.51Z" fill="#7F6F89"/>
<path d="M182.689 154.48C182.689 154.48 182.589 154.47 182.549 154.45C181.839 154.09 181.059 153.77 180.309 153.47C178.489 152.73 176.609 151.97 175.459 150.48C175.349 150.34 175.379 150.14 175.519 150.03C175.659 149.93 175.859 149.95 175.969 150.09C177.019 151.45 178.739 152.14 180.559 152.88C181.319 153.19 182.109 153.51 182.849 153.88C183.009 153.96 183.069 154.15 182.989 154.31C182.929 154.42 182.819 154.48 182.709 154.48H182.689Z" fill="#7F6F89"/>
<path d="M208.08 187.66C208.08 187.66 208 187.66 207.96 187.64C207.8 187.57 207.72 187.39 207.78 187.23C208.62 185.13 208.98 182.82 208.81 180.56C208.8 180.41 208.9 180.27 209.04 180.23C209.19 180.19 209.34 180.25 209.41 180.39C210.31 182.1 210.74 183.83 210.66 185.4C210.65 185.57 210.49 185.7 210.33 185.7C210.15 185.7 210.02 185.54 210.03 185.36C210.1 184.18 209.84 183.05 209.49 182.1C209.44 183.94 209.06 185.77 208.38 187.47C208.33 187.59 208.21 187.67 208.08 187.67V187.66Z" fill="#7F6F89"/>
<path d="M164.509 163.6C164.399 163.6 164.299 163.55 164.239 163.45L162.579 160.74C162.489 160.59 162.539 160.4 162.679 160.3C162.829 160.21 163.029 160.26 163.119 160.4L164.779 163.11C164.869 163.26 164.819 163.45 164.679 163.55C164.629 163.58 164.569 163.6 164.509 163.6Z" fill="#7F6F89"/>
<path d="M146.63 156.94C146.63 156.94 146.58 156.94 146.56 156.94C146.39 156.9 146.28 156.73 146.32 156.56C146.7 154.91 146.83 153.21 146.71 151.52C146.7 151.35 146.83 151.19 147 151.18C147.17 151.16 147.33 151.3 147.34 151.47C147.47 153.23 147.33 154.99 146.93 156.7C146.9 156.85 146.77 156.95 146.62 156.95L146.63 156.94Z" fill="#7F6F89"/>
<path d="M204.769 199.3C204.639 199.3 204.519 199.22 204.469 199.1C204.159 198.29 203.539 197.58 202.779 197.16C202.629 197.07 202.569 196.88 202.659 196.73C202.739 196.58 202.939 196.52 203.089 196.61C203.979 197.1 204.699 197.93 205.069 198.88C205.129 199.04 205.049 199.23 204.889 199.29C204.849 199.3 204.809 199.31 204.779 199.31L204.769 199.3Z" fill="#7F6F89"/>
<path d="M184.88 71.7002C184.88 71.7002 183.44 72.6502 181.79 73.4302C180.24 74.1702 178.81 74.4402 178.81 74.4402C178.81 74.4402 180.29 76.8902 183.1 75.5102C185.22 74.4602 184.88 71.7002 184.88 71.7002Z" fill="#5E5254"/>
<path d="M182.94 75.0401C181.32 75.8401 180.29 74.6101 180.29 74.6101C180.29 74.6101 181.25 74.2901 182.4 73.6901C183.85 72.9301 184.28 72.6201 184.28 72.6201C184.28 72.6201 184.52 74.2601 182.94 75.0401Z" fill="#F2EFF6"/>
<path d="M139.779 87.1497C139.779 87.1497 139.759 87.1497 139.739 87.1497C139.569 87.1297 139.439 86.9697 139.459 86.7997C139.459 86.7997 139.559 85.8497 139.349 84.2697C139.139 82.7897 137.349 81.6097 137.339 81.5997C137.189 81.5097 137.149 81.3096 137.249 81.1596C137.339 81.0096 137.539 80.9697 137.689 81.0697C137.769 81.1197 139.739 82.4197 139.989 84.1897C140.219 85.8597 140.109 86.8397 140.099 86.8797C140.079 87.0397 139.939 87.1596 139.779 87.1596V87.1497Z" fill="#FCBB8B"/>
<path d="M136.459 90.93C136.329 90.93 136.209 90.8499 136.159 90.7199C136.129 90.6299 135.379 88.41 135.929 86.59C135.979 86.42 136.159 86.33 136.329 86.38C136.499 86.43 136.59 86.61 136.54 86.78C136.05 88.4 136.76 90.5 136.76 90.52C136.82 90.69 136.729 90.8699 136.559 90.9199C136.529 90.9299 136.489 90.94 136.459 90.94V90.93Z" fill="#FCBB8B"/>
<path d="M154.34 109.84C154.17 109.84 154.03 109.71 154.02 109.54C153.92 107.35 152.99 105.2 151.46 103.64C151.34 103.51 151.34 103.31 151.46 103.19C151.59 103.07 151.79 103.07 151.91 103.19C153.55 104.87 154.55 107.17 154.65 109.51C154.65 109.68 154.52 109.83 154.35 109.84H154.34Z" fill="#FCBB8B"/>
<path d="M33.9443 202.611C33.9443 202.611 36.0418 197.415 39.8481 197.21C43.6601 197.005 46.2319 195.927 47.0377 194.187C47.8436 192.448 48.4722 191.21 53.9702 191.005C59.4682 190.8 60.7998 197.027 63.2802 196.805C65.7606 196.583 67.8523 200.512 67.8523 201.55C67.8523 202.588 35.9332 203.746 33.9443 202.611Z" fill="#813718"/>
<path d="M31.955 202.035C31.955 202.035 35.3098 200.216 68.532 201.231C71.5553 201.322 75.053 215.426 75.053 215.426H27C27.3543 213.435 31.955 202.035 31.955 202.035Z" fill="#CE747A"/>
<path d="M50.3007 207.328C50.3007 207.328 45.4371 208.559 46.843 212.175C48.2718 215.842 50.2378 211.896 53.5526 212.797C56.5588 213.618 56.5188 206.261 50.3007 207.328Z" fill="white"/>
<path d="M50.4321 205.799C50.4321 205.799 51.1008 201.408 48.4547 202.166C45.8143 202.925 49.2491 208.662 50.4321 205.799Z" fill="white"/>
<path d="M47.2033 207.984C47.2033 207.984 46.649 203.581 44.3115 205.024C41.974 206.472 46.849 211.058 47.2033 207.984Z" fill="white"/>
<path d="M53.8959 206.346C53.8959 206.346 56.1476 202.52 53.4158 202.24C50.684 201.961 51.7413 208.565 53.8959 206.346Z" fill="white"/>
<path d="M56.7987 209.517C56.7987 209.517 59.5534 207.493 57.5588 206.352C55.5642 205.212 54.5526 210.401 56.7987 209.517Z" fill="white"/>
<path d="M279.717 153.949C278.145 153.949 276.699 153.105 276.625 153.059C276.465 152.962 276.414 152.757 276.505 152.597C276.602 152.438 276.808 152.386 276.968 152.478C276.991 152.489 279.003 153.664 280.643 153.134C281.374 152.9 281.929 152.352 282.306 151.508C282.329 151.451 282.357 151.394 282.38 151.337C282.169 151.217 281.957 151.075 281.757 150.909C280.809 150.139 280.203 149.05 280.323 148.326C280.38 147.989 280.58 147.744 280.894 147.624C281.574 147.368 282.512 147.322 283.106 147.944C283.518 148.377 283.838 149.25 283.237 150.983C283.626 151.109 284.066 151.137 284.518 150.966C286.569 150.179 285.672 146.461 285.661 146.421C285.615 146.239 285.724 146.056 285.906 146.01C286.089 145.965 286.272 146.073 286.318 146.256C286.364 146.432 287.37 150.596 284.763 151.594C284.215 151.805 283.603 151.805 283.003 151.605C282.98 151.662 282.957 151.719 282.929 151.776C282.472 152.803 281.774 153.476 280.854 153.772C280.483 153.892 280.1 153.938 279.723 153.938L279.717 153.949ZM281.843 148.132C281.597 148.132 281.34 148.189 281.134 148.269C281.06 148.297 281.009 148.337 280.991 148.451C280.923 148.873 281.386 149.757 282.186 150.407C282.306 150.504 282.455 150.613 282.626 150.715C283.117 149.273 282.849 148.668 282.615 148.423C282.415 148.212 282.134 148.138 281.843 148.138V148.132Z" fill="#272E41"/>
<path d="M249.724 160.462C249.724 160.462 258.274 144.95 269.922 147.887C281.569 150.824 284.775 161.061 277.574 166.216C270.373 171.378 243.838 172.096 249.724 160.462Z" fill="#CCC4BA"/>
<path d="M255.971 166.387C256.656 166.387 257.211 165.833 257.211 165.15C257.211 164.466 256.656 163.912 255.971 163.912C255.286 163.912 254.73 164.466 254.73 165.15C254.73 165.833 255.286 166.387 255.971 166.387Z" fill="#272E41"/>
<path d="M253.49 161.283C254.175 161.283 254.73 160.729 254.73 160.045C254.73 159.362 254.175 158.808 253.49 158.808C252.805 158.808 252.25 159.362 252.25 160.045C252.25 160.729 252.805 161.283 253.49 161.283Z" fill="#272E41"/>
<path d="M262.938 159.378C262.938 159.378 266.95 156.401 269.424 160.074C271.899 163.747 267.178 167.1 263.566 163.997C263.566 163.997 266.727 164.134 267.67 163.216C268.613 162.298 269.218 158.574 262.938 159.384V159.378Z" fill="#272E41"/>
<path d="M256.353 154.257C256.353 154.257 256.668 149.278 261.074 149.763C265.48 150.247 265 156.008 260.291 156.76C260.291 156.76 262.434 154.439 262.337 153.128C262.24 151.816 259.788 148.947 256.348 154.257H256.353Z" fill="#272E41"/>
<path d="M248.878 163.433C248.878 163.433 250.93 166.148 249.953 166.387C248.975 166.627 248.552 166.285 248.13 165.868C247.707 165.452 248.415 162.777 248.878 163.433Z" fill="#272E41"/>
<path d="M260.145 190.066C260.145 190.066 261.122 179.19 271.044 179.002C280.965 178.814 290.475 191.617 279.982 200.389C269.489 209.16 258.613 199.225 260.145 190.06V190.066Z" fill="#779A99"/>
<path d="M260.448 194.954C260.448 194.954 276.119 180.981 277.742 180.821C278.154 180.781 279.257 181.323 279.657 182.145C280.057 182.966 262.214 196.933 261.397 197.326C260.58 197.72 260.162 195.222 260.448 194.954Z" fill="#4F7F85"/>
<path d="M262.625 199.237C262.625 199.237 280.148 184.665 281.502 183.935C282.177 183.57 282.96 185.276 282.897 185.863C282.8 186.798 264.974 200.486 264.157 200.879C263.339 201.273 262.339 199.505 262.625 199.237Z" fill="#4F7F85"/>
<path d="M266.289 202.401C266.289 202.401 282.274 187.762 283.891 187.944C284.954 188.064 284.623 189.165 284.56 190.1C284.497 191.035 269.421 202.983 268.603 203.377C267.786 203.77 266.009 202.675 266.294 202.407L266.289 202.401Z" fill="#4F7F85"/>
<path d="M274.901 184.517C274.901 184.517 270.072 178.825 269.049 179.133C268.026 179.441 265.654 179.122 272.69 185.578L274.901 184.511V184.517Z" fill="#4F7F85"/>
<path d="M270.975 186.912C270.975 186.912 265.174 180.839 264.157 181.152C263.14 181.466 262.58 183.023 268.523 188.669L270.975 186.912Z" fill="#4F7F85"/>
<path d="M266.849 190.106C266.849 190.106 262.511 184.591 261.494 184.899C260.477 185.207 259.688 187.751 264.643 191.167L266.855 190.1L266.849 190.106Z" fill="#4F7F85"/>
<path d="M272.861 197.668C272.861 197.668 276.325 202.898 277.365 202.653C278.405 202.407 279.668 201.82 275.142 196.75L272.867 197.662L272.861 197.668Z" fill="#4F7F85"/>
<path d="M277.005 193.904C277.005 193.904 280.623 199.521 281.657 199.282C282.691 199.042 283.703 197.365 279.28 192.991L277.005 193.904Z" fill="#4F7F85"/>
</g>
<defs>
<clipPath id="clip0_834_264744">
<rect width="300" height="225" fill="white"/>
</clipPath>
</defs>
</svg>
