<svg width="301" height="225" viewBox="0 0 301 225" fill="none" xmlns="http://www.w3.org/2000/svg">
<g clip-path="url(#clip0_834_266735)">
<path d="M300.877 1H0.876953V226H300.877V1Z" fill="#EFDAEE"/>
<mask id="mask0_834_266735" style="mask-type:alpha" maskUnits="userSpaceOnUse" x="38" y="-12" width="238" height="238">
<rect x="38.877" y="-11.5" width="237" height="237" fill="#D9D9D9"/>
</mask>
<g mask="url(#mask0_834_266735)">
<g style="mix-blend-mode:multiply">
<path d="M154.829 194.571C198.235 194.571 233.424 159.383 233.424 115.976C233.424 72.5691 198.235 37.3809 154.829 37.3809C111.422 37.3809 76.2334 72.5691 76.2334 115.976C76.2334 159.383 111.422 194.571 154.829 194.571Z" fill="#C1CCD3"/>
</g>
<path d="M146.297 192.053C191.496 192.053 228.136 155.413 228.136 110.214C228.136 65.0156 191.496 28.375 146.297 28.375C101.099 28.375 64.458 65.0156 64.458 110.214C64.458 155.413 101.099 192.053 146.297 192.053Z" fill="#41180B"/>
<path d="M222.311 128.153C232.222 86.1619 206.216 44.0868 164.224 34.1759C122.233 24.2651 80.1578 50.2715 70.247 92.2628C60.3361 134.254 86.3425 176.329 128.334 186.24C170.325 196.151 212.4 170.145 222.311 128.153Z" fill="#785C55"/>
<path d="M146.298 186.988C188.698 186.988 223.071 152.615 223.071 110.215C223.071 67.8139 188.698 33.4414 146.298 33.4414C103.897 33.4414 69.5244 67.8139 69.5244 110.215C69.5244 152.615 103.897 186.988 146.298 186.988Z" fill="#130100"/>
<path d="M206.222 124.356C214.036 91.2505 193.533 58.0787 160.427 50.265C127.321 42.4514 94.1491 62.9547 86.3354 96.0605C78.5217 129.166 99.0251 162.338 132.131 170.152C165.237 177.966 198.409 157.462 206.222 124.356Z" fill="#FBAE4F"/>
<path d="M150.045 74.2942C158.118 74.2942 166.205 75.7014 173.774 78.5306C177.196 79.8045 189.979 88.9586 192.142 86.4849C193.134 85.3444 193.223 83.6261 192.734 82.1893C190.809 76.4865 185.802 71.5836 181.269 67.836C176.885 64.2069 171.923 61.9406 167.124 59.0966C161.628 55.8379 155.97 53.4679 149.556 52.7569C147.897 52.5791 146.134 52.5199 144.683 53.3197C143.764 53.8234 143.053 54.6232 142.135 55.1269C139.72 56.4748 136.254 53.9122 133.558 54.4159C131.707 54.7566 130.24 56.1045 128.774 57.2895C124.523 60.726 118.687 62.3702 114.169 65.6289C109.473 69.021 105.326 73.1537 101.904 77.8196C95.0607 87.1811 91.3428 98.6164 91.3428 110.215C91.3428 111 91.3724 111.77 91.402 112.555C99.3119 90.3658 122.582 74.2942 150.045 74.2942Z" fill="#FFD27A"/>
<path d="M93.1063 96.7938C93.1063 96.7938 87.0479 94.7793 76.9606 96.7938C66.8733 98.8083 52.7422 99.9636 52.7422 99.9636C52.7422 99.9636 53.0236 113.517 64.2811 121.871C75.5238 130.226 80.7082 131.677 86.4851 131.959C92.2471 132.24 101.475 129.07 104.645 125.619C107.815 122.153 119.635 103.134 93.1063 96.7938Z" fill="#53652F"/>
<path d="M93.1062 96.7938C93.1062 96.7938 87.0479 94.7793 76.9606 96.7938C67.5251 98.675 54.5789 99.8155 52.9199 99.9488C54.0457 101.015 55.5862 102.274 57.6451 103.711C64.2811 108.318 85.3149 115.813 101.46 116.109C104.601 116.169 107.282 116.05 109.578 115.813C111.133 108.97 109.03 100.601 93.1062 96.7938Z" fill="#24330C"/>
<g style="mix-blend-mode:multiply" opacity="0.28">
<path d="M120.316 97.0754C120.242 96.6902 120.167 96.2903 120.079 95.8756C119.634 93.8018 118.923 91.3577 117.783 88.6174C117.664 88.3508 117.56 88.0842 117.457 87.8027C117.427 87.7287 117.398 87.6546 117.368 87.5806C117.294 87.388 117.205 87.1806 117.131 86.9881C117.086 86.8844 117.057 86.7807 117.012 86.677C116.938 86.4992 116.879 86.3215 116.805 86.1437C116.761 86.0401 116.716 85.9216 116.672 85.8179C116.598 85.6401 116.538 85.4772 116.479 85.2994C116.435 85.1809 116.39 85.0624 116.346 84.9587C116.287 84.781 116.213 84.618 116.153 84.4403C116.109 84.3218 116.064 84.2033 116.02 84.0848C115.961 83.9219 115.887 83.7441 115.827 83.5664C115.783 83.4479 115.739 83.3294 115.694 83.1961C115.635 83.0331 115.576 82.8554 115.516 82.6924C115.472 82.5739 115.427 82.4406 115.383 82.3221C115.324 82.1592 115.265 81.9814 115.205 81.8185C115.161 81.7 115.116 81.5815 115.072 81.4482C115.013 81.2704 114.953 81.1075 114.894 80.9297C114.85 80.8112 114.805 80.6927 114.776 80.5742C114.716 80.3965 114.657 80.2187 114.598 80.0558C114.554 79.9373 114.524 79.8336 114.479 79.7151C114.42 79.5374 114.361 79.3596 114.302 79.1819C114.257 79.0782 114.228 78.9597 114.183 78.856C114.124 78.6782 114.065 78.4857 113.991 78.3079C113.961 78.2042 113.931 78.1154 113.887 78.0117C113.813 77.7895 113.739 77.5821 113.665 77.3599C113.65 77.3007 113.62 77.2414 113.606 77.1822C113.517 76.9156 113.428 76.6637 113.354 76.4119C113.354 76.3971 113.354 76.3823 113.339 76.3527C113.25 76.0861 113.161 75.8046 113.072 75.538C113.043 75.4639 113.028 75.4047 113.013 75.3306C112.954 75.1381 112.895 74.9455 112.835 74.7529C112.806 74.6492 112.776 74.5604 112.746 74.4567C112.702 74.2937 112.643 74.1456 112.598 73.9975C112.569 73.8938 112.539 73.7901 112.495 73.6864C112.45 73.5383 112.406 73.405 112.361 73.2569C112.332 73.1532 112.302 73.0643 112.272 72.9754C112.228 72.8273 112.184 72.694 112.139 72.5459C112.109 72.4718 112.095 72.3829 112.065 72.3089C112.021 72.1607 111.976 72.0126 111.932 71.8645C111.902 71.7904 111.887 71.7016 111.858 71.6275C111.813 71.4942 111.784 71.3757 111.739 71.2572C111.71 71.1683 111.68 71.0794 111.665 71.0054C111.635 70.8869 111.591 70.7832 111.561 70.6647C111.532 70.5758 111.502 70.4869 111.487 70.3981C111.458 70.2944 111.428 70.2055 111.398 70.1166C111.369 70.0277 111.354 69.9537 111.324 69.8796C111.295 69.7759 111.265 69.6871 111.236 69.5982C111.221 69.5241 111.191 69.4649 111.176 69.3908C111.147 69.3019 111.117 69.2131 111.102 69.1242C111.087 69.0649 111.073 69.0057 111.043 68.9464C111.013 68.8724 110.999 68.7983 110.984 68.7242C110.969 68.6502 110.939 68.5909 110.924 68.5169C110.924 68.5021 110.924 68.4872 110.924 68.4724C110.791 68.0281 110.702 67.6874 110.643 67.5096C110.613 67.4059 110.599 67.3467 110.599 67.3467C110.599 67.3467 98.4523 70.0574 92.9569 81.7148C87.4614 93.3722 87.1059 98.3196 87.891 103.578C88.6761 108.836 93.2087 116.598 96.897 118.835C98.6449 119.901 103.903 122.079 109.043 121.412C109.058 121.412 109.073 121.412 109.088 121.412C109.265 121.383 109.443 121.368 109.621 121.323C109.651 121.323 109.665 121.323 109.695 121.323C109.888 121.294 110.065 121.249 110.258 121.205C110.258 121.205 110.273 121.205 110.288 121.205C110.687 121.116 111.073 121.012 111.473 120.879C111.473 120.879 111.502 120.879 111.517 120.864C111.695 120.805 111.858 120.746 112.021 120.672C112.065 120.657 112.095 120.642 112.139 120.627C112.287 120.568 112.435 120.509 112.583 120.435C112.628 120.42 112.672 120.39 112.717 120.375C112.865 120.301 113.013 120.227 113.161 120.153C113.191 120.138 113.22 120.124 113.265 120.109C113.62 119.916 113.976 119.694 114.331 119.457C114.361 119.427 114.405 119.413 114.435 119.383C114.568 119.294 114.702 119.19 114.835 119.087C114.879 119.042 114.939 119.013 114.983 118.968C115.102 118.879 115.22 118.776 115.339 118.672C115.383 118.628 115.442 118.583 115.487 118.539C115.605 118.435 115.724 118.316 115.842 118.198C115.887 118.154 115.931 118.124 115.961 118.079C116.272 117.754 116.568 117.413 116.864 117.043C116.909 116.983 116.938 116.939 116.983 116.88C117.086 116.746 117.19 116.598 117.279 116.465C117.323 116.391 117.368 116.332 117.427 116.258C117.516 116.124 117.605 115.976 117.694 115.843C117.738 115.769 117.783 115.695 117.827 115.621C117.916 115.472 118.005 115.31 118.094 115.147C118.138 115.073 118.168 114.998 118.212 114.939C118.331 114.717 118.449 114.48 118.568 114.228C118.686 113.976 118.79 113.725 118.894 113.458C118.923 113.369 118.953 113.295 118.997 113.206C119.071 113.028 119.145 112.836 119.205 112.643C119.234 112.54 119.279 112.436 119.308 112.332C119.368 112.154 119.427 111.962 119.486 111.769C119.516 111.666 119.56 111.547 119.59 111.443C119.649 111.236 119.708 111.029 119.768 110.807C119.797 110.703 119.827 110.599 119.842 110.495C119.916 110.184 119.99 109.873 120.064 109.547C120.064 109.547 120.064 109.533 120.064 109.518C120.138 109.177 120.197 108.836 120.256 108.481C120.271 108.362 120.301 108.244 120.316 108.125C120.36 107.874 120.39 107.637 120.434 107.385C120.449 107.252 120.464 107.103 120.493 106.97C120.523 106.718 120.553 106.481 120.582 106.215C120.597 106.067 120.612 105.918 120.627 105.785C120.656 105.518 120.671 105.237 120.701 104.956C120.701 104.822 120.716 104.689 120.73 104.556C120.76 104.141 120.775 103.711 120.79 103.282C120.79 103.282 120.864 102.704 120.849 101.667C120.849 100.616 120.73 99.0899 120.39 97.1642L120.316 97.0754Z" fill="#24330C"/>
</g>
<path d="M138.906 57.526C138.906 57.526 136.165 54.6672 134.625 54.919C133.084 55.1708 130.581 57.7778 129.515 59.1998C128.448 60.6218 125.352 65.0212 124.878 67.7615C124.404 70.5018 125.234 74.4123 127.367 75.8343C129.5 77.2563 133.307 74.6493 136.521 75.3603C139.735 76.0713 147.69 76.6638 149.941 75.9528C152.193 75.2418 152.43 73.4643 152.43 73.4643C152.43 73.4643 147.201 72.5163 145.423 69.302C143.646 66.0877 144.12 61.4662 138.891 57.5408L138.906 57.526Z" fill="#F89B3C"/>
<path d="M144.728 58.2366C144.728 58.2366 142.832 59.5401 143.306 60.977C143.78 62.399 146.875 67.3908 148.771 69.3016C150.667 71.1976 153.645 72.5159 156.726 72.7529C159.822 72.9899 162.073 72.0419 163.614 69.7756C165.154 67.5241 167.065 64.9023 162.31 60.6215C157.555 56.3406 153.985 54.5631 153.985 54.5631C153.985 54.5631 151.497 53.1411 149.705 54.6816C147.927 56.2221 146.727 57.7775 144.713 58.2515L144.728 58.2366Z" fill="#F89B3C"/>
<path d="M145.438 69.2872C143.66 66.0729 144.134 61.4514 138.906 57.526C138.906 57.526 138.624 57.2298 138.18 56.8299C137.039 56.2522 135.884 55.7485 135.469 55.867C134.521 56.104 132.862 59.0814 132.136 62.0439C131.41 65.0064 132.018 69.1687 132.847 70.25C133.677 71.3165 137.128 71.0795 138.195 72.62C139.261 74.1605 139.143 74.6345 142.357 75.4788C143.986 75.9084 145.468 76.175 146.919 76.2639C148.223 76.249 149.334 76.1454 149.971 75.9528C152.222 75.2418 152.459 73.4643 152.459 73.4643C152.459 73.4643 147.23 72.5163 145.453 69.302L145.438 69.2872Z" fill="#FFE7B9"/>
<path d="M163.036 66.4431C162.443 65.2581 156.148 58.6073 153.882 56.815C151.63 55.0375 151.023 55.393 148.06 56.6965C147.66 56.8742 147.29 57.0223 146.949 57.1408C146.283 57.6445 145.587 58.0444 144.728 58.237C144.728 58.237 142.832 59.5405 143.306 60.9773C143.78 62.3993 146.875 67.3911 148.771 69.3019C150.667 71.1979 153.645 72.5162 156.726 72.7532C157.466 72.8125 158.163 72.7976 158.814 72.7088C160.221 71.9978 161.688 70.8128 162.31 70.0129C163.14 68.9464 163.614 67.6429 163.021 66.4431H163.036Z" fill="#FFE7B9"/>
<path d="M136.195 180.247C133.78 180.247 130.21 177.611 126.404 172.989C119.782 164.99 117.575 153.94 117.472 153.481V153.422V153.363C117.323 150.993 117.605 149.497 118.375 148.697C118.775 148.267 119.294 148.045 119.886 148.045C120.612 148.045 122.819 148.045 129.055 156.088C133.825 162.235 137.913 172.737 138.52 176.989C138.713 178.322 138.328 179.077 137.987 179.492C137.691 179.833 137.143 180.232 136.209 180.232L136.195 180.247Z" fill="#729629"/>
<path d="M118.286 153.333C118.286 153.333 120.478 164.546 127.04 172.471C133.602 180.396 138.253 180.944 137.705 177.122C137.157 173.3 133.217 162.813 128.403 156.607C123.589 150.4 117.738 144.579 118.286 153.318V153.333Z" fill="#C4B27B"/>
<path d="M123.381 160.354C123.381 160.354 124.877 167.968 129.351 173.345C133.824 178.722 136.994 179.092 136.624 176.5C136.253 173.908 133.572 166.783 130.284 162.576C127.01 158.369 123.011 154.414 123.381 160.354Z" fill="#DED2A3"/>
<path d="M117.99 173.478C115.68 172.767 113.043 169.198 110.762 163.673C106.777 154.074 107.903 142.876 107.962 142.402V142.343L107.977 142.283C108.54 139.973 109.236 138.639 110.214 138.077C110.718 137.78 111.28 137.721 111.858 137.899C112.554 138.106 114.658 138.758 118.257 148.282C121.012 155.57 121.827 166.798 121.16 171.034C120.953 172.368 120.36 172.975 119.916 173.271C119.531 173.508 118.894 173.73 117.99 173.464V173.478Z" fill="#729629"/>
<path d="M108.763 142.475C108.763 142.475 107.563 153.836 111.503 163.346C115.443 172.856 119.739 174.737 120.331 170.915C120.939 167.094 120.242 155.925 117.458 148.578C114.673 141.231 110.792 133.943 108.748 142.475H108.763Z" fill="#C4B27B"/>
<path d="M111.577 150.683C111.577 150.683 110.762 158.4 113.458 164.858C116.154 171.316 119.072 172.605 119.486 170.013C119.886 167.421 119.412 159.837 117.516 154.845C115.62 149.853 112.969 144.906 111.577 150.697V150.683Z" fill="#DED2A3"/>
<path d="M104.334 168.546C102.201 167.435 100.246 163.436 98.9866 157.585C96.8092 147.438 99.9346 136.61 100.068 136.151V136.106L100.098 136.062C101.06 133.885 101.994 132.7 103.045 132.329C103.593 132.137 104.171 132.181 104.689 132.448C105.326 132.788 107.282 133.796 109.118 143.824C110.511 151.482 109.296 162.68 107.874 166.739C107.43 168.013 106.748 168.516 106.245 168.709C105.83 168.872 105.149 168.975 104.319 168.546H104.334Z" fill="#729629"/>
<path d="M100.853 136.403C100.853 136.403 97.6241 147.364 99.7867 157.422C101.949 167.479 105.83 170.116 107.104 166.472C108.393 162.828 109.726 151.704 108.319 143.987C106.912 136.269 104.408 128.389 100.853 136.403Z" fill="#C4B27B"/>
<path d="M102.142 144.979C102.142 144.979 99.9496 152.415 101.431 159.258C102.912 166.102 105.549 167.894 106.423 165.405C107.297 162.917 108.185 155.377 107.223 150.134C106.26 144.89 104.541 139.528 102.127 144.979H102.142Z" fill="#DED2A3"/>
<g style="mix-blend-mode:multiply" opacity="0.28">
<path d="M123.693 156.77C123.693 156.696 123.693 156.607 123.678 156.519C123.678 156.489 123.678 156.459 123.678 156.43C123.678 156.356 123.678 156.267 123.664 156.193C123.664 156.178 123.664 156.163 123.664 156.148C123.664 156.059 123.664 155.956 123.649 155.837C123.649 155.808 123.649 155.763 123.649 155.734C123.649 155.63 123.649 155.526 123.634 155.408C123.634 155.378 123.634 155.348 123.634 155.334C123.634 155.23 123.634 155.111 123.619 154.993C123.619 154.934 123.619 154.874 123.619 154.83C123.619 154.726 123.619 154.608 123.604 154.489C123.604 154.43 123.604 154.386 123.604 154.326C123.604 154.208 123.604 154.089 123.59 153.956C123.59 153.897 123.59 153.838 123.59 153.763C123.59 153.645 123.59 153.526 123.575 153.408C123.575 153.334 123.575 153.26 123.575 153.186C123.575 153.067 123.575 152.934 123.56 152.801C123.56 152.727 123.56 152.653 123.56 152.578C123.56 152.445 123.56 152.312 123.545 152.179C123.545 152.09 123.545 152.016 123.545 151.927C123.545 151.779 123.545 151.645 123.53 151.497C123.53 151.423 123.53 151.349 123.53 151.275C123.53 151.112 123.53 150.949 123.516 150.771C123.516 150.712 123.516 150.638 123.516 150.579C123.486 149.868 123.456 149.127 123.441 148.372C123.441 148.312 123.441 148.253 123.441 148.209C123.441 148.016 123.441 147.824 123.427 147.616C123.427 147.527 123.427 147.424 123.427 147.335C123.427 147.172 123.427 147.009 123.427 146.831C123.427 146.728 123.427 146.609 123.427 146.505C123.427 146.357 123.427 146.209 123.427 146.046C123.427 145.928 123.427 145.809 123.427 145.705C123.427 145.557 123.427 145.394 123.427 145.246C123.427 145.128 123.427 145.024 123.427 144.906C123.427 144.743 123.427 144.595 123.427 144.432C123.427 144.313 123.427 144.209 123.427 144.091C123.427 143.928 123.427 143.78 123.427 143.617C123.427 143.498 123.427 143.395 123.427 143.276C123.427 143.113 123.427 142.965 123.427 142.802C123.427 142.684 123.427 142.58 123.427 142.462C123.427 142.313 123.427 142.15 123.427 142.002C123.427 141.884 123.427 141.78 123.427 141.662C123.427 141.514 123.427 141.351 123.427 141.202C123.427 141.084 123.427 140.965 123.427 140.862C123.427 140.714 123.427 140.551 123.427 140.403C123.427 140.284 123.427 140.18 123.427 140.062C123.427 139.899 123.427 139.736 123.427 139.588C123.427 139.484 123.427 139.395 123.427 139.292C123.427 139.114 123.427 138.936 123.441 138.758C123.441 138.684 123.441 138.595 123.441 138.521C123.441 138.27 123.456 138.018 123.471 137.766C123.501 137.248 123.501 136.759 123.516 136.27C123.516 135.307 123.486 134.389 123.441 133.544C123.382 132.7 123.293 131.9 123.19 131.174C123.042 130.078 122.834 129.13 122.642 128.316C122.568 128.049 122.508 127.797 122.434 127.56C121.96 125.901 121.516 125.027 121.516 125.027C121.368 124.687 121.234 124.346 121.086 124.02C121.042 123.916 120.997 123.813 120.938 123.709C120.834 123.487 120.731 123.265 120.642 123.057C120.583 122.939 120.523 122.82 120.479 122.702C120.39 122.509 120.286 122.317 120.183 122.124C120.123 122.02 120.064 121.902 120.005 121.798C119.901 121.606 119.798 121.413 119.694 121.22C119.649 121.132 119.59 121.043 119.546 120.954C119.398 120.687 119.235 120.421 119.072 120.169C119.072 120.169 119.072 120.169 119.072 120.154C118.924 119.902 118.761 119.665 118.613 119.443C118.568 119.369 118.509 119.295 118.45 119.221C118.346 119.058 118.227 118.91 118.124 118.762C118.065 118.673 118.005 118.599 117.946 118.525C117.842 118.391 117.739 118.258 117.635 118.125C117.576 118.051 117.516 117.976 117.457 117.902C117.339 117.769 117.235 117.636 117.117 117.502C117.072 117.443 117.013 117.384 116.968 117.325C116.805 117.147 116.643 116.969 116.465 116.791C116.302 116.629 116.139 116.466 115.976 116.317C115.917 116.273 115.872 116.229 115.813 116.169C115.695 116.066 115.576 115.962 115.458 115.873C115.398 115.829 115.339 115.769 115.28 115.725C115.161 115.636 115.058 115.547 114.939 115.458C114.88 115.414 114.821 115.369 114.761 115.325C114.643 115.236 114.51 115.147 114.391 115.073C114.347 115.044 114.302 115.014 114.243 114.984C113.902 114.762 113.547 114.57 113.191 114.407C113.147 114.377 113.102 114.362 113.058 114.347C112.925 114.288 112.806 114.229 112.673 114.184C112.614 114.155 112.569 114.14 112.51 114.125C112.391 114.081 112.258 114.036 112.14 113.992C112.08 113.977 112.036 113.962 111.977 113.933C111.843 113.888 111.695 113.844 111.562 113.814C111.532 113.814 111.488 113.799 111.458 113.785C111.103 113.696 110.747 113.622 110.392 113.562C110.362 113.562 110.332 113.562 110.303 113.562C110.155 113.548 110.007 113.533 109.873 113.518C109.829 113.518 109.799 113.518 109.755 113.518C109.621 113.518 109.473 113.503 109.34 113.488C109.31 113.488 109.266 113.488 109.236 113.488C109.073 113.488 108.925 113.488 108.762 113.488C108.762 113.488 108.733 113.488 108.718 113.488C108.362 113.488 108.007 113.533 107.651 113.577C107.651 113.577 107.637 113.577 107.622 113.577C107.459 113.592 107.296 113.622 107.133 113.651C107.118 113.651 107.088 113.651 107.074 113.651C106.911 113.681 106.763 113.71 106.614 113.74H106.57C102.171 114.733 98.5269 118.08 97.4159 119.458C95.0607 122.376 93.6832 130.049 94.6015 134.566C95.5199 139.084 97.2974 143.01 105.252 150.875C113.206 158.74 123.945 157.333 123.945 157.333C123.945 157.333 123.945 157.156 123.915 156.83L123.693 156.77Z" fill="#24330C"/>
</g>
<path d="M124.494 123.22C124.494 123.22 126.819 127.752 126.449 135.973C126.079 144.18 126.879 155.481 126.879 155.481C126.879 155.481 116.14 156.889 108.185 149.023C100.231 141.158 98.4535 137.232 97.5351 132.715C96.6168 128.197 97.9943 120.524 100.35 117.606C102.705 114.688 116.288 103.045 124.509 123.22H124.494Z" fill="#53652F"/>
<path d="M124.494 123.22C124.494 123.22 126.82 127.753 126.449 135.974C126.094 143.647 126.775 154.015 126.864 155.334C125.887 154.563 124.702 153.512 123.324 152.06C118.88 147.379 110.422 131.678 108.23 118.954C107.8 116.481 107.578 114.348 107.475 112.511C112.689 110.467 119.562 111.104 124.494 123.22Z" fill="#24330C"/>
<path d="M215.472 93.891C208.332 92.9281 201 92.6615 193.787 92.4541C186.173 92.2468 178.189 92.0394 170.635 93.2392C169.761 93.3725 169.894 94.6168 170.768 94.5871C178.233 94.3798 185.64 93.7873 193.12 93.8317C200.556 93.8613 208.021 94.3946 215.457 94.1724C215.62 94.1724 215.635 93.9058 215.457 93.8761L215.472 93.891Z" fill="#B3330D"/>
<path d="M219.457 100.897C210.673 97.8303 200.704 96.749 191.506 95.6381C186.81 95.0752 182.1 94.616 177.375 94.305C173.657 94.068 169.761 93.7569 166.443 95.6825C165.85 96.0232 166.25 97.0749 166.917 96.9416C184.337 93.5347 202.067 99.5486 219.353 101.222C219.531 101.237 219.65 100.956 219.457 100.897Z" fill="#B3330D"/>
<path d="M228.745 84.0398C224.212 86.632 220.124 88.6909 214.91 89.5648C210.111 90.3647 205.178 90.4536 200.319 90.5276C195.342 90.6017 190.069 89.95 185.166 90.9424C180.323 91.92 174.901 92.9569 170.354 94.8825C169.717 95.1491 169.924 96.1564 170.635 96.0823C176.338 95.5343 181.7 92.9569 187.373 92.2755C193.195 91.5793 199.297 92.1422 205.163 91.8459C212.895 91.446 223.605 90.8091 228.893 84.1879C228.967 84.0842 228.848 83.9805 228.745 84.0398Z" fill="#B3330D"/>
<path d="M134.004 79.6267C132.567 78.9898 131.619 77.9529 129.693 78.4417C127.16 79.0935 126.079 80.397 126.079 80.397C126.079 80.397 124.301 78.5751 121.783 79.4194C119.265 80.2637 117.68 82.4263 117.68 82.4263C113.873 83.5224 110.748 85.7887 110.822 90.0992C110.437 89.9362 110.111 90.4399 109.992 90.8398C108.393 96.1871 108.763 100.083 112.155 104.452C114.851 107.919 118.687 109.948 123.013 110.526C127.916 111.177 133.53 110.851 138.225 109.192C140.684 108.319 141.158 107.267 142.432 105.238C143.972 102.793 146.964 101.623 149.542 100.572C152.312 99.4459 155.126 98.4386 157.985 97.5647C165.021 95.3872 172.264 93.9801 179.522 92.7951C183.166 92.2026 186.81 91.6545 190.454 91.0916C192.35 90.7954 194.261 90.4547 196.157 90.1881C196.971 90.0696 209.118 90.6769 209.695 90.8842C199.741 85.2555 181.389 89.8177 173.005 84.2186C171.568 83.2706 169.865 82.7226 168.146 82.6781C165.495 82.6189 162.858 83.7002 160.251 83.241C157.022 82.6781 154.8 79.9674 151.764 79.0046C148.416 77.9381 143.958 78.1899 140.625 79.1231C138.803 79.6416 136.566 80.4859 134.655 79.8934C134.418 79.8193 134.211 79.7452 134.004 79.6416V79.6267Z" fill="#D9400B"/>
<path d="M134.655 79.8635C134.418 79.7895 134.211 79.7154 134.003 79.6117C132.567 78.9748 131.618 77.9379 129.693 78.4267C127.16 79.0784 126.079 80.3819 126.079 80.3819C126.079 80.3819 126.034 80.3375 125.945 80.2635C126.479 80.7226 126.834 82.041 127.13 82.6779C127.515 83.5222 127.901 84.3813 128.256 85.2553C128.893 86.8106 129.5 88.3807 130.063 89.9656C130.374 90.8396 130.552 91.995 131.026 92.7948C131.174 93.0466 131.056 93.0022 131.278 93.1503C131.559 93.3281 132.285 93.2836 132.641 93.3577C133.159 93.491 133.663 93.6688 134.137 93.9058C133.352 92.2616 133.144 90.2026 133.026 88.4103C132.907 86.5439 133.026 84.6331 133.485 82.826C133.826 81.4781 134.018 81.0337 135.04 80.1301C135.055 80.1301 135.144 80.0561 135.248 79.9968C135.04 79.9672 134.833 79.9228 134.64 79.8635H134.655Z" fill="#DC741B"/>
<path d="M130.123 93.1947C130.123 93.1947 127.975 85.6699 126.049 80.367C125.857 80.1745 124.139 78.6043 121.769 79.4042C120.065 79.9819 118.806 81.1373 118.154 81.8335C120.184 84.0257 123.665 87.8029 125.057 90.484L127.027 94.2908C127.027 94.2908 128.538 93.3428 129.323 93.2687L130.123 93.1947Z" fill="#DC741B"/>
<path d="M123.975 95.802C123.856 94.617 125.841 94.4244 125.841 94.4244C125.841 94.4244 124.567 91.5508 121.664 86.4257C120.242 83.9224 118.909 82.7077 117.917 82.1152C117.769 82.293 117.68 82.4115 117.68 82.4115C113.873 83.5076 110.747 85.7739 110.821 90.0844C110.777 90.0695 110.747 90.0695 110.718 90.0547C115.991 92.1729 123.99 95.802 123.99 95.802H123.975Z" fill="#DC741B"/>
<path d="M122.79 96.3197C122.701 96.379 119.442 94.6015 119.057 94.4237C117.754 93.8164 116.45 93.1943 115.147 92.5869C113.517 91.8167 111.903 91.0613 110.273 90.291C110.155 90.4391 110.051 90.6317 110.007 90.8243C108.718 95.1643 108.703 98.5416 110.555 101.993C112.14 100.823 115.206 98.8082 117.843 98.4083C119.265 98.2009 120.672 97.9935 122.109 98.0676C122.227 97.3862 122.153 96.7937 122.79 96.3345V96.3197Z" fill="#DC741B"/>
<path d="M122.064 98.7793C122.064 98.7793 114.895 98.9571 110.688 102.245C111.088 102.956 111.577 103.682 112.14 104.423C112.851 105.341 113.666 106.156 114.525 106.882C115.606 105.326 117.176 103.282 118.598 102.334C121.042 100.69 122.82 100.527 122.82 100.527C122.82 100.527 122.124 99.594 122.05 98.8089L122.064 98.7793Z" fill="#DC741B"/>
<path d="M123.309 101.253C117.962 102.542 115.562 105.608 114.718 107C117.073 108.896 119.917 110.066 123.013 110.481C125.101 110.763 127.323 110.851 129.545 110.748C128.019 109.681 125.442 107.756 124.613 106.334C123.413 104.245 124.642 102.527 124.642 102.527L123.324 101.253H123.309Z" fill="#DC741B"/>
<path d="M144.698 101.178C145.202 100.127 142.565 99.7859 138.181 100.008C133.796 100.23 125.975 101.993 125.975 101.993C123.353 105.711 128.019 109.34 130.123 110.717C132.922 110.54 135.692 110.036 138.21 109.147C140.669 108.273 141.143 107.222 142.417 105.192C142.891 104.452 143.498 103.83 144.18 103.296C144.091 102.659 144.387 101.83 144.698 101.163V101.178Z" fill="#DC741B"/>
<path d="M158.607 94.0238C161.703 92.9277 163.673 90.5281 161.851 90.3059C160.029 90.0837 153.571 89.506 152.268 86.4398C151.438 84.4846 154.282 82.6478 156.459 81.5813C154.934 80.6185 153.482 79.5224 151.764 78.9743C148.416 77.9078 143.958 78.1597 140.625 79.0928C139.425 79.4335 138.062 79.8927 136.714 80.026C132.315 86.8398 134.789 93.935 134.789 93.935C145.602 100.275 155.511 95.12 158.592 94.009L158.607 94.0238Z" fill="#DC741B"/>
<path d="M194.231 88.0847C186.973 87.3292 179.567 88.5439 173.019 84.1742C171.583 83.2262 169.879 82.6781 168.161 82.6337C165.509 82.5744 162.873 83.6557 160.266 83.1966C159.17 83.004 158.177 82.5596 157.244 82.0264C156.222 82.3819 153.511 83.4484 153.334 84.9148C153.111 86.7367 155.704 88.6772 159.362 89.3289C163.021 89.9659 164.428 90.0399 164.428 90.0399C164.428 90.0399 177.241 90.1881 184.573 89.4771C187.669 89.1808 191.194 88.6179 194.231 88.0699V88.0847Z" fill="#DC741B"/>
<path d="M146.727 103.356C149.482 103.445 152.341 103.356 155.111 103.297C158.074 103.223 160.858 102.364 163.791 102.068C164.473 101.994 164.354 101.031 163.687 101.016C160.577 100.972 157.54 102.023 154.4 102.157C151.793 102.26 149.097 102.068 146.668 103.119C146.535 103.179 146.594 103.356 146.727 103.356Z" fill="#B3330D"/>
<path d="M183.077 114.555C177.389 109.044 172.204 103.845 164.635 101.046C163.776 100.734 163.169 101.979 164.028 102.349C167.538 103.89 170.96 105 174.026 107.4C177.048 109.755 179.996 112.259 182.988 114.658C183.047 114.717 183.136 114.614 183.077 114.555Z" fill="#B3330D"/>
<path d="M143.173 106.51C148.505 108.007 155.201 108.095 160.563 106.718C161.081 106.585 160.859 105.785 160.355 105.814C154.519 106.199 149.053 106.362 143.188 106.17C142.98 106.17 143.01 106.451 143.188 106.51H143.173Z" fill="#B3330D"/>
<path d="M172.828 110.392C170.621 109.207 168.384 108.289 166.029 107.444C164.207 106.793 162.341 105.845 160.385 105.785C159.971 105.771 159.971 106.348 160.267 106.511C162.222 107.622 164.799 107.918 166.932 108.615C168.888 109.266 170.828 109.888 172.813 110.466C172.857 110.466 172.872 110.407 172.843 110.392H172.828Z" fill="#B3330D"/>
<path d="M146.047 104.837C151.572 105.711 158.933 105.77 164.325 104.259C164.844 104.111 164.607 103.356 164.118 103.37C161.081 103.474 158.059 103.889 155.023 104.037C152.075 104.185 148.965 104.081 146.061 104.615C145.943 104.629 145.928 104.807 146.061 104.837H146.047Z" fill="#B3330D"/>
<path d="M170.798 107.503C169.598 106.748 168.309 106.155 167.08 105.444C165.998 104.822 164.991 103.741 163.791 103.444C163.525 103.385 163.332 103.726 163.48 103.933C164.206 104.94 165.747 105.414 166.828 105.992C168.102 106.659 169.361 107.281 170.753 107.651C170.857 107.681 170.872 107.533 170.798 107.488V107.503Z" fill="#B3330D"/>
<path d="M149.927 101.757C155.096 101.105 160.888 98.8681 165.687 96.8981C166.472 96.5722 166.013 95.4612 165.228 95.6834C160.236 97.0906 154.311 98.8977 149.867 101.594C149.793 101.638 149.838 101.771 149.927 101.757Z" fill="#B3330D"/>
<path d="M180.84 102.912C178.337 100.794 175.404 99.0901 172.59 97.4014C170.501 96.1424 168.249 94.9278 165.791 95.5499C165.213 95.698 165.346 96.6312 165.909 96.6905C171.464 97.3866 175.626 101.119 180.781 103.03C180.855 103.06 180.914 102.971 180.855 102.912H180.84Z" fill="#B3330D"/>
<path d="M184.025 108.955C183.728 107.74 183.284 106.733 182.677 105.622C182.114 104.6 181.581 103.43 180.736 102.6C180.514 102.393 180.203 102.674 180.292 102.926C180.647 103.978 181.388 104.896 181.951 105.859C182.588 106.955 183.195 107.977 184.01 108.97H184.039L184.025 108.955Z" fill="#B3330D"/>
<path d="M155.733 101.416C163.865 101.564 172.634 99.964 180.677 98.7642C181.61 98.6309 181.492 97.2385 180.529 97.2977C172.471 97.7569 163.331 98.5124 155.673 101.164C155.525 101.208 155.599 101.416 155.733 101.416Z" fill="#B3330D"/>
<path d="M180.574 98.2752C183.063 100.201 186.159 101.208 189.047 102.393C191.98 103.608 194.913 105.03 197.994 105.83C198.779 106.037 199.001 104.911 198.394 104.556C195.535 102.912 192.246 101.845 189.18 100.645C186.425 99.5787 183.67 98.3049 180.707 98.0234C180.574 98.0234 180.47 98.1864 180.589 98.2752H180.574Z" fill="#B3330D"/>
<path d="M198.097 105.548C201.785 109.133 206.599 112.006 210.851 114.88C214.391 117.265 218.079 119.872 222.197 121.116C222.582 121.234 222.834 120.627 222.523 120.405C218.464 117.576 214.02 115.295 209.917 112.495C206.199 109.947 202.511 106.94 198.438 105C198.082 104.837 197.845 105.296 198.097 105.548Z" fill="#B3330D"/>
<path d="M171.302 86.3065C171.391 87.2397 170.487 88.084 169.272 88.2025C168.058 88.321 167.006 87.6693 166.917 86.7361C166.828 85.8029 167.732 84.9586 168.946 84.8401C170.161 84.7216 171.213 85.3733 171.302 86.3065Z" fill="#120100"/>
<path d="M170.709 86.0551C170.753 86.5291 170.279 86.9735 169.657 87.0327C169.035 87.092 168.487 86.7513 168.442 86.2773C168.398 85.8033 168.872 85.3589 169.494 85.2997C170.116 85.2404 170.664 85.5811 170.709 86.0551Z" fill="#703527"/>
<g style="mix-blend-mode:overlay" opacity="0.23">
<path d="M134.744 85.3735C145.231 87.2991 155.422 90.4986 160.473 90.4394C163.939 90.3949 185.506 88.8841 198.601 87.9361C189.358 87.0621 178.811 88.0398 173.019 84.1737C171.583 83.2257 169.879 82.6776 168.161 82.6332C165.51 82.5739 162.873 83.6553 160.266 83.1961C157.037 82.6332 154.815 79.9225 151.778 78.9597C148.431 77.8932 143.972 78.145 140.639 79.0782C138.817 79.5966 136.581 80.4409 134.67 79.8484C134.433 79.7744 134.226 79.7003 134.018 79.5966C132.581 78.9597 131.633 77.9228 129.708 78.4116C127.175 79.0634 126.093 80.3669 126.093 80.3669C126.093 80.3669 124.316 78.5449 121.798 79.3893C119.28 80.2336 117.695 82.3962 117.695 82.3962C113.888 83.4923 110.763 85.7586 110.837 90.0691C110.451 89.9061 110.126 90.4098 110.007 90.8097C108.407 96.157 108.778 100.053 112.17 104.422C114.866 107.889 118.702 109.918 123.027 110.496C127.93 111.147 133.544 110.821 138.24 109.162C140.699 108.288 141.173 107.237 142.446 105.207C143.987 102.763 146.979 101.593 149.556 100.542C151.334 99.8157 153.141 99.1491 154.963 98.527C154.963 98.4085 154.948 98.3493 154.948 98.3493C154.948 98.3493 145.424 99.9046 140.032 102.749C134.625 105.593 126.479 108.274 120.331 105.504C114.925 103.074 112.999 94.3943 117.087 89.9654C117.828 89.1655 118.746 88.5434 119.709 87.9953C124.42 85.2846 129.441 84.3959 134.774 85.3735H134.744Z" fill="white"/>
</g>
<path d="M128.212 100.542C128.301 100.571 128.39 100.616 128.479 100.66C127.694 100.275 126.894 99.0308 126.301 98.3938C125.798 97.8458 125.057 96.6904 124.183 96.7793C123.65 96.8385 123.457 97.5347 123.591 97.9791C123.872 99.016 125.857 99.5936 126.627 100.26C126.701 100.319 126.775 100.379 126.849 100.408C126.968 100.453 127.086 100.423 127.205 100.408C127.546 100.379 127.886 100.408 128.212 100.527V100.542Z" fill="#E18835"/>
<path d="M125.62 97.0756C127.027 98.2606 128.093 99.5789 129.693 100.527C129.293 100.29 129.175 99.6974 128.952 99.3271C128.656 98.8087 128.241 98.3347 127.871 97.8755C127.293 97.1793 126.582 96.2758 125.812 95.7869C125.338 95.4907 124.42 95.6092 124.775 96.4091C124.909 96.7201 125.412 96.8831 125.634 97.0756H125.62Z" fill="#E18835"/>
<path d="M129.515 98.9272C129.204 97.4904 128.611 96.1128 127.752 94.8982C127.693 94.8093 127.619 94.7056 127.5 94.6612C127.397 94.6167 127.293 94.6464 127.189 94.6612C125.812 94.8834 126.834 95.4907 127.397 96.0684C128.211 96.9275 128.863 97.9347 129.5 98.9124L129.515 98.9272Z" fill="#E18835"/>
<path d="M130.686 100.127C130.567 99.0309 130.36 97.9644 130.064 96.8979C129.871 96.2314 129.693 94.2761 128.553 94.9575C129.086 95.8018 129.412 96.7054 129.767 97.6237C130.064 98.4088 130.612 99.2827 130.701 100.127H130.686Z" fill="#E18835"/>
<path d="M235.247 149.468C227.396 146.402 219.16 144.076 211.028 141.869C202.437 139.529 193.431 137.1 184.544 136.389C183.522 136.3 183.314 137.751 184.321 137.959C192.853 139.781 201.415 141.144 209.903 143.247C218.331 145.335 226.656 148.002 235.158 149.794C235.351 149.838 235.439 149.527 235.247 149.468Z" fill="#9F3110"/>
<path d="M237.839 158.533C228.715 152.638 217.694 148.668 207.562 144.861C202.393 142.921 197.164 141.099 191.891 139.455C187.729 138.151 183.388 136.744 179.093 138.003C178.323 138.225 178.5 139.529 179.285 139.573C200.008 140.506 218.464 152.208 237.632 158.889C237.839 158.963 238.047 158.681 237.839 158.548V158.533Z" fill="#9F3110"/>
<path d="M253.022 141.943C247.171 143.646 241.957 144.846 235.795 144.402C230.122 143.987 224.508 142.728 218.968 141.484C213.295 140.195 207.503 138.003 201.652 137.781C195.875 137.558 189.446 137.247 183.744 138.166C182.944 138.299 182.899 139.484 183.744 139.602C190.365 140.55 197.164 139.099 203.8 139.899C210.599 140.713 217.368 143.024 224.108 144.313C232.995 146.001 245.334 148.209 253.14 142.165C253.259 142.076 253.14 141.913 253.022 141.958V141.943Z" fill="#9F3110"/>
<path d="M146.698 110.837C145.247 109.711 144.462 108.274 142.136 108.304C139.085 108.334 137.5 109.519 137.5 109.519C137.5 109.519 135.989 106.956 132.893 107.223C129.797 107.489 127.398 109.504 127.398 109.504C122.761 109.696 118.599 111.415 117.503 116.317C117.103 116.021 116.614 116.495 116.362 116.925C113.074 122.554 112.422 127.071 115.059 132.967C117.162 137.633 120.969 141.01 125.709 142.847C131.101 144.935 137.559 146.12 143.336 145.513C146.373 145.202 147.187 144.135 149.202 142.18C151.631 139.825 155.334 139.321 158.563 138.847C162.015 138.329 165.481 137.959 168.976 137.751C177.568 137.218 186.174 137.618 194.75 138.27C199.046 138.595 203.341 138.981 207.637 139.351C209.874 139.543 212.125 139.677 214.362 139.899C215.31 139.988 228.923 144.032 229.545 144.417C219.798 135.277 197.713 135.411 189.729 126.745C188.366 125.264 186.574 124.183 184.633 123.664C181.641 122.865 178.353 123.353 175.509 122.124C171.998 120.598 170.221 116.91 167.036 114.97C163.54 112.837 158.4 111.889 154.357 112.037C152.149 112.126 149.365 112.451 147.365 111.266C147.128 111.118 146.906 110.97 146.698 110.807V110.837Z" fill="#C13C0D"/>
<path d="M147.364 111.296C147.127 111.148 146.905 111 146.698 110.837C145.246 109.711 144.461 108.275 142.136 108.304C139.084 108.334 137.499 109.519 137.499 109.519C137.499 109.519 137.455 109.46 137.381 109.356C137.855 110.022 137.899 111.622 138.062 112.437C138.27 113.503 138.462 114.585 138.625 115.666C138.921 117.606 139.173 119.562 139.381 121.502C139.499 122.583 139.381 123.946 139.692 124.983C139.78 125.294 139.662 125.22 139.884 125.457C140.151 125.738 140.995 125.872 141.365 126.079C141.913 126.375 142.432 126.716 142.921 127.101C142.476 125.013 142.817 122.628 143.187 120.554C143.572 118.406 144.224 116.273 145.246 114.333C146.002 112.911 146.357 112.437 147.764 111.711C147.794 111.711 147.898 111.667 148.031 111.607C147.809 111.518 147.587 111.415 147.379 111.296H147.364Z" fill="#C56C21"/>
<path d="M138.566 125.175C138.566 125.175 138.196 116.051 137.485 109.504C137.307 109.237 135.796 106.986 132.893 107.237C130.804 107.415 129.041 108.393 128.123 109C129.812 112.051 132.73 117.28 133.574 120.717L134.759 125.575C134.759 125.575 136.729 124.909 137.647 125.042L138.566 125.175Z" fill="#C56C21"/>
<path d="M130.863 126.435C131.056 125.057 133.366 125.383 133.366 125.383C133.366 125.383 132.7 121.769 130.819 115.162C129.9 111.933 128.715 110.185 127.753 109.237C127.53 109.4 127.397 109.504 127.397 109.504C122.761 109.696 118.598 111.415 117.502 116.318C117.458 116.288 117.428 116.273 117.384 116.258C122.79 120.11 130.863 126.435 130.863 126.435Z" fill="#C56C21"/>
<path d="M129.367 126.701C129.249 126.745 126.035 123.827 125.649 123.516C124.331 122.465 123.028 121.398 121.709 120.346C120.08 119.028 118.436 117.71 116.806 116.406C116.629 116.54 116.466 116.747 116.347 116.925C113.681 121.487 112.748 125.323 113.903 129.752C116.021 128.864 120.065 127.412 123.161 127.693C124.835 127.842 126.494 128.004 128.094 128.478C128.419 127.738 128.493 127.056 129.353 126.701H129.367Z" fill="#C56C21"/>
<path d="M127.871 129.293C127.871 129.293 119.695 127.515 114.007 130.093C114.273 131.011 114.614 131.974 115.059 132.951C115.621 134.196 116.303 135.336 117.088 136.388C118.732 134.921 121.102 133.04 122.968 132.344C126.183 131.159 128.256 131.455 128.256 131.455C128.256 131.455 127.723 130.211 127.857 129.293H127.871Z" fill="#C56C21"/>
<path d="M128.597 132.448C122.169 132.433 118.614 135.248 117.266 136.611C119.413 139.41 122.317 141.528 125.709 142.847C128.005 143.735 130.493 144.446 133.041 144.935C131.604 143.306 129.205 140.417 128.656 138.566C127.871 135.87 129.738 134.255 129.738 134.255L128.582 132.448H128.597Z" fill="#C56C21"/>
<path d="M152.904 138.24C153.763 137.188 150.86 136.077 145.839 135.129C140.803 134.181 131.441 134.019 131.441 134.019C127.427 137.514 131.737 142.921 133.752 145.054C136.966 145.617 140.269 145.824 143.365 145.498C146.402 145.187 147.216 144.121 149.231 142.165C149.971 141.454 150.831 140.921 151.749 140.506C151.823 139.751 152.386 138.907 152.934 138.225L152.904 138.24Z" fill="#C56C21"/>
<path d="M170.664 133.959C174.486 133.559 177.375 131.381 175.36 130.626C173.36 129.87 166.176 127.441 165.554 123.605C165.154 121.146 168.887 119.857 171.642 119.25C170.176 117.739 168.828 116.095 167.035 114.999C163.54 112.866 158.4 111.918 154.356 112.066C152.904 112.125 151.231 112.273 149.675 112.051C142.802 118.568 143.661 127.308 143.661 127.308C154.193 137.499 166.858 134.359 170.664 133.959Z" fill="#C56C21"/>
<path d="M212.732 137.041C204.704 134.182 195.949 133.515 189.728 126.761C188.365 125.279 186.573 124.198 184.633 123.68C181.641 122.88 178.352 123.369 175.508 122.139C174.308 121.621 173.316 120.85 172.398 119.977C171.139 120.095 167.776 120.554 167.169 122.184C166.413 124.183 168.813 127.116 172.798 128.849C176.782 130.582 178.352 131.042 178.352 131.042C178.352 131.042 192.854 134.745 201.371 135.944C204.955 136.448 209.118 136.789 212.717 137.011L212.732 137.041Z" fill="#C56C21"/>
<path d="M154.593 141.276C157.704 142.135 160.962 142.832 164.132 143.528C167.51 144.254 170.916 144.061 174.323 144.52C175.123 144.624 175.242 143.498 174.501 143.306C170.991 142.402 167.243 142.757 163.644 142.032C160.651 141.439 157.644 140.476 154.608 140.995C154.445 141.024 154.46 141.232 154.608 141.276H154.593Z" fill="#9F3110"/>
<path d="M192.78 164.013C187.848 156.192 183.389 148.875 175.568 143.602C174.68 143.009 173.657 144.254 174.531 144.92C178.086 147.646 181.671 149.853 184.5 153.408C187.285 156.918 189.936 160.562 192.677 164.102C192.736 164.176 192.854 164.102 192.795 164.013H192.78Z" fill="#9F3110"/>
<path d="M149.705 143.883C155.349 147.053 162.918 149.008 169.376 148.905C170.013 148.905 169.969 147.927 169.376 147.823C162.652 146.653 156.386 145.335 149.794 143.498C149.557 143.439 149.513 143.78 149.691 143.868L149.705 143.883Z" fill="#9F3110"/>
<path d="M182.293 156.444C180.116 154.504 177.835 152.83 175.391 151.23C173.495 150.001 171.643 148.401 169.436 147.779C168.962 147.646 168.814 148.312 169.095 148.564C171.006 150.371 173.85 151.408 176.087 152.786C178.131 154.06 180.16 155.304 182.249 156.504C182.293 156.533 182.338 156.459 182.293 156.43V156.444Z" fill="#9F3110"/>
<path d="M153.423 142.772C159.467 145.276 167.791 147.379 174.338 147.142C174.975 147.112 174.901 146.194 174.338 146.075C170.872 145.364 167.317 144.994 163.821 144.328C160.429 143.676 156.934 142.713 153.482 142.521C153.349 142.521 153.275 142.713 153.408 142.772H153.423Z" fill="#9F3110"/>
<path d="M180.782 152.608C179.612 151.423 178.323 150.386 177.123 149.246C176.071 148.253 175.227 146.728 173.938 146.076C173.657 145.928 173.346 146.268 173.464 146.55C174.012 147.898 175.627 148.861 176.693 149.809C177.953 150.92 179.212 151.971 180.693 152.771C180.797 152.83 180.871 152.682 180.797 152.608H180.782Z" fill="#9F3110"/>
<path d="M158.681 140.344C164.724 141.025 171.923 140.092 177.922 139.174C178.9 139.026 178.693 137.633 177.73 137.678C171.671 137.9 164.443 138.33 158.666 140.151C158.562 140.181 158.592 140.344 158.696 140.359L158.681 140.344Z" fill="#9F3110"/>
<path d="M193.461 150.179C191.21 147.083 188.336 144.328 185.611 141.647C183.581 139.647 181.374 137.647 178.397 137.662C177.701 137.662 177.597 138.758 178.204 138.995C184.322 141.306 188.025 146.698 193.328 150.297C193.402 150.342 193.506 150.268 193.447 150.179H193.461Z" fill="#9F3110"/>
<path d="M195.401 157.911C195.401 156.445 195.164 155.171 194.794 153.764C194.438 152.446 194.157 150.964 193.416 149.809C193.224 149.513 192.794 149.75 192.824 150.046C192.942 151.335 193.535 152.594 193.905 153.823C194.335 155.245 194.735 156.563 195.371 157.911C195.371 157.926 195.401 157.911 195.401 157.911Z" fill="#9F3110"/>
<path d="M165.361 141.558C174.545 143.957 184.943 144.565 194.409 145.424C195.519 145.527 195.742 143.913 194.646 143.72C185.373 142.032 174.782 140.358 165.361 141.261C165.183 141.276 165.198 141.528 165.361 141.558Z" fill="#9F3110"/>
<path d="M194.424 144.846C196.734 147.705 199.949 149.705 202.896 151.853C205.888 154.03 208.836 156.459 212.095 158.207C212.939 158.651 213.502 157.437 212.895 156.874C210.11 154.208 206.674 152.104 203.504 149.897C200.674 147.927 197.89 145.72 194.616 144.594C194.468 144.55 194.305 144.713 194.424 144.846Z" fill="#9F3110"/>
<path d="M212.318 157.926C215.518 163.022 220.184 167.599 224.227 172.028C227.59 175.716 231.056 179.686 235.381 182.233C235.781 182.47 236.24 181.863 235.944 181.522C232.108 177.197 227.693 173.39 223.813 169.08C220.302 165.169 216.94 160.726 212.837 157.408C212.481 157.126 212.081 157.585 212.303 157.926H212.318Z" fill="#9F3110"/>
<path d="M187.195 128.687C187.047 129.768 185.773 130.479 184.366 130.271C182.959 130.064 181.936 129.042 182.085 127.961C182.233 126.879 183.507 126.168 184.914 126.376C186.321 126.583 187.343 127.605 187.195 128.687Z" fill="#100100"/>
<path d="M186.589 128.242C186.515 128.805 185.863 129.161 185.122 129.057C184.382 128.953 183.863 128.42 183.952 127.857C184.041 127.294 184.678 126.939 185.419 127.042C186.145 127.146 186.678 127.679 186.589 128.242Z" fill="#643A2F"/>
<g style="mix-blend-mode:overlay" opacity="0.23">
<path d="M145.958 117.577C157.334 122.643 168.028 129.101 173.761 130.404C177.716 131.308 202.601 135.529 217.724 138.077C207.474 134.537 195.239 132.745 189.729 126.76C188.366 125.279 186.574 124.198 184.633 123.679C181.641 122.88 178.353 123.368 175.509 122.139C171.998 120.613 170.221 116.925 167.036 114.984C163.54 112.851 158.4 111.903 154.357 112.052C152.149 112.14 149.365 112.466 147.365 111.281C147.128 111.133 146.906 110.985 146.698 110.822C145.247 109.696 144.462 108.26 142.136 108.289C139.085 108.319 137.5 109.504 137.5 109.504C137.5 109.504 135.989 106.941 132.893 107.208C129.797 107.475 127.398 109.489 127.398 109.489C122.761 109.682 118.599 111.4 117.503 116.303C117.103 116.007 116.614 116.481 116.362 116.91C113.074 122.539 112.422 127.057 115.059 132.952C117.162 137.618 120.969 140.995 125.709 142.832C131.101 144.921 137.559 146.106 143.336 145.498C146.373 145.187 147.187 144.121 149.202 142.165C151.631 139.81 155.334 139.307 158.563 138.833C160.785 138.507 163.022 138.24 165.259 138.033C165.273 137.899 165.288 137.825 165.288 137.825C165.288 137.825 154.06 136.966 147.143 138.714C140.225 140.447 130.242 141.247 124.021 136.418C118.555 132.167 118.747 121.783 124.628 117.888C125.694 117.177 126.909 116.732 128.138 116.377C134.226 114.599 140.181 114.984 145.958 117.562V117.577Z" fill="white"/>
</g>
<path d="M134.374 132.997C134.478 133.056 134.566 133.13 134.655 133.204C133.87 132.552 133.307 130.923 132.819 130.034C132.404 129.264 131.885 127.768 130.848 127.62C130.226 127.531 129.826 128.271 129.841 128.819C129.886 130.064 131.959 131.278 132.656 132.241C132.715 132.33 132.789 132.419 132.878 132.478C132.996 132.552 133.144 132.567 133.278 132.582C133.678 132.641 134.048 132.789 134.389 132.997H134.374Z" fill="#C98241"/>
<path d="M132.375 128.346C133.634 130.079 134.478 131.871 136.048 133.397C135.663 133.026 135.678 132.301 135.53 131.827C135.323 131.16 134.997 130.508 134.7 129.886C134.226 128.938 133.693 127.709 132.938 126.938C132.493 126.479 131.412 126.361 131.59 127.353C131.664 127.738 132.182 128.064 132.375 128.346Z" fill="#C98241"/>
<path d="M136.285 131.515C136.329 129.797 136.033 128.064 135.396 126.464C135.352 126.346 135.293 126.212 135.189 126.138C135.085 126.064 134.967 126.064 134.833 126.049C133.204 125.916 134.211 126.894 134.67 127.708C135.367 128.908 135.826 130.227 136.285 131.53V131.515Z" fill="#C98241"/>
<path d="M137.292 133.189C137.455 131.915 137.515 130.641 137.47 129.353C137.441 128.538 137.766 126.272 136.285 126.731C136.655 127.842 136.789 128.938 136.922 130.093C137.041 131.056 137.411 132.211 137.292 133.189Z" fill="#C98241"/>
<path d="M122.73 100.023C122.73 100.023 123.456 94.1872 119.797 85.4478C116.153 76.6936 112.554 64.1475 112.554 64.1475C112.554 64.1475 100.407 66.8581 94.912 78.5156C89.4165 90.173 89.061 95.1204 89.8461 100.379C90.6312 105.637 95.1638 113.399 98.8521 115.636C102.54 117.872 121.826 125.116 122.73 100.009V100.023Z" fill="#6E762C"/>
<path d="M122.73 100.023C122.73 100.023 123.455 94.1874 119.797 85.448C116.39 77.2715 113.027 65.777 112.598 64.3105C111.842 65.5252 110.983 67.1397 110.065 69.2579C107.117 76.0865 104.169 96.4389 106.836 111.074C107.354 113.918 107.947 116.317 108.569 118.347C115.012 118.509 122.167 115.103 122.715 100.023H122.73Z" fill="#24330C"/>
<path d="M249.881 99.7712C241.467 99.5935 232.921 100.26 224.537 100.986C215.664 101.756 206.377 102.571 197.785 104.97C196.793 105.252 197.104 106.674 198.111 106.526C206.747 105.296 215.264 103.622 223.944 102.674C232.58 101.726 241.319 101.356 249.911 100.112C250.103 100.082 250.073 99.7712 249.881 99.7712Z" fill="#C0421C"/>
<path d="M255.436 107.385C244.845 104.986 233.128 105.06 222.3 104.986C216.775 104.941 211.25 105.045 205.725 105.311C201.37 105.519 196.808 105.697 193.208 108.363C192.571 108.837 193.179 110.007 193.934 109.77C213.709 103.504 235.069 108.141 255.362 107.8C255.584 107.8 255.673 107.459 255.436 107.4V107.385Z" fill="#C0421C"/>
<path d="M263.967 86.573C259.064 90.1873 254.576 93.1201 248.636 94.8236C243.17 96.3937 237.467 97.1491 231.839 97.875C226.062 98.6304 219.87 98.5563 214.315 100.363C208.82 102.141 202.673 104.067 197.637 106.896C196.926 107.296 197.311 108.421 198.125 108.244C204.658 106.851 210.538 103.148 217.056 101.608C223.721 100.038 230.876 99.8746 237.645 98.7489C246.562 97.2676 258.916 95.0902 264.159 86.7211C264.234 86.6026 264.085 86.4841 263.982 86.573H263.967Z" fill="#C0421C"/>
<path d="M153.436 94.0091C151.674 93.4462 150.459 92.3797 148.281 93.2092C145.423 94.2905 144.356 95.9495 144.356 95.9495C144.356 95.9495 142.045 94.0683 139.246 95.3866C136.431 96.7049 134.876 99.4156 134.876 99.4156C130.595 101.193 127.277 104.244 127.929 109.221C127.455 109.088 127.159 109.71 127.07 110.184C125.929 116.598 126.863 121.071 131.38 125.693C134.965 129.352 139.69 131.203 144.786 131.307C150.563 131.411 157.036 130.3 162.264 127.737C165.005 126.389 165.405 125.115 166.619 122.597C168.086 119.546 171.389 117.798 174.263 116.243C177.329 114.569 180.454 113.028 183.654 111.621C191.534 108.17 199.755 105.578 208.02 103.222C212.168 102.052 216.33 100.926 220.492 99.8007C222.655 99.2082 224.818 98.5565 226.995 97.9936C227.928 97.7566 242.089 96.8531 242.8 97.016C230.506 91.802 209.813 99.5193 199.34 94.1424C197.548 93.224 195.504 92.8241 193.504 93.0018C190.423 93.2832 187.505 94.883 184.409 94.7052C180.588 94.483 177.655 91.6391 173.996 90.9132C169.967 90.1134 164.827 91.0021 161.094 92.5278C159.05 93.3721 156.562 94.646 154.266 94.2164C153.984 94.172 153.732 94.0979 153.481 94.0239L153.436 94.0091Z" fill="#E94E18"/>
<path d="M154.22 94.2014C153.939 94.157 153.687 94.0829 153.435 94.0089C151.673 93.446 150.458 92.3795 148.281 93.209C145.422 94.2903 144.355 95.9493 144.355 95.9493C144.355 95.9493 144.296 95.9049 144.192 95.8308C144.874 96.3048 145.451 97.7712 145.881 98.4822C146.444 99.4154 146.992 100.363 147.525 101.311C148.473 103.03 149.377 104.778 150.251 106.54C150.725 107.503 151.095 108.836 151.747 109.695C151.939 109.962 151.806 109.932 152.087 110.08C152.443 110.258 153.272 110.08 153.687 110.154C154.309 110.243 154.917 110.377 155.509 110.584C154.383 108.777 153.865 106.422 153.495 104.348C153.11 102.2 152.991 99.9635 153.287 97.8009C153.509 96.2011 153.672 95.6382 154.739 94.4681C154.754 94.4532 154.843 94.3792 154.946 94.2903C154.709 94.2903 154.457 94.2607 154.22 94.2162V94.2014Z" fill="#ED8D3B"/>
<path d="M150.741 110.273C150.741 110.273 147.26 101.83 144.327 95.9347C144.075 95.7422 141.883 94.1424 139.231 95.3867C137.335 96.2754 136.017 97.7863 135.351 98.6899C137.987 100.971 142.535 104.881 144.505 107.814L147.289 111.977C147.289 111.977 148.919 110.673 149.822 110.481L150.726 110.288L150.741 110.273Z" fill="#ED8D3B"/>
<path d="M143.956 114.095C143.66 112.732 145.941 112.243 145.941 112.243C145.941 112.243 144.075 109.073 140.031 103.519C138.061 100.808 136.343 99.5785 135.113 99.0156C134.965 99.2378 134.876 99.3859 134.876 99.3859C130.595 101.163 127.277 104.215 127.929 109.192C127.885 109.192 127.84 109.192 127.796 109.192C134.195 110.955 143.956 114.095 143.956 114.095Z" fill="#ED8D3B"/>
<path d="M142.638 114.865C142.549 114.954 138.52 113.31 138.061 113.147C136.461 112.613 134.861 112.065 133.276 111.532C131.291 110.866 129.306 110.184 127.322 109.518C127.203 109.71 127.114 109.947 127.07 110.169C126.151 115.369 126.581 119.294 129.188 123.056C130.876 121.501 134.165 118.746 137.172 117.931C138.801 117.502 140.401 117.072 142.075 116.968C142.134 116.154 141.956 115.487 142.638 114.865Z" fill="#ED8D3B"/>
<path d="M142.134 117.812C142.134 117.812 133.839 118.968 129.396 123.338C129.958 124.123 130.61 124.893 131.366 125.663C132.314 126.641 133.365 127.47 134.461 128.196C135.498 126.256 137.068 123.663 138.594 122.375C141.216 120.153 143.26 119.708 143.26 119.708C143.26 119.708 142.342 118.716 142.134 117.812Z" fill="#ED8D3B"/>
<path d="M143.897 120.538C137.853 122.73 135.483 126.611 134.698 128.359C137.69 130.24 141.127 131.233 144.771 131.292C147.23 131.336 149.822 131.144 152.384 130.729C150.474 129.692 147.23 127.811 146.074 126.256C144.4 124.004 145.6 121.842 145.6 121.842L143.897 120.538Z" fill="#ED8D3B"/>
<path d="M168.708 117.606C169.152 116.317 166.041 116.273 160.99 117.117C155.939 117.961 147.081 121.042 147.081 121.042C144.519 125.708 150.414 129.293 153.051 130.611C156.265 130.033 159.435 129.085 162.235 127.723C164.975 126.375 165.375 125.101 166.589 122.583C167.034 121.664 167.656 120.864 168.382 120.153C168.189 119.428 168.426 118.42 168.708 117.606Z" fill="#ED8D3B"/>
<path d="M183.906 107.459C187.342 105.77 189.312 102.734 187.164 102.719C185.017 102.704 177.447 102.897 175.537 99.5045C174.322 97.3419 177.373 94.8386 179.758 93.3129C177.862 92.4093 176.025 91.3132 173.966 90.9132C169.937 90.1134 164.798 91.0021 161.065 92.5278C159.717 93.0759 158.191 93.8017 156.665 94.1276C152.459 102.615 156.28 110.525 156.28 110.525C169.671 116.45 180.484 109.147 183.92 107.459H183.906Z" fill="#ED8D3B"/>
<path d="M224.447 95.8454C215.93 95.9342 207.487 98.319 199.311 94.1271C197.518 93.2087 195.474 92.8088 193.475 92.9866C190.394 93.268 187.475 94.8677 184.38 94.69C183.076 94.6159 181.876 94.2308 180.721 93.742C179.58 94.2901 176.573 95.875 176.559 97.6081C176.544 99.7559 179.803 101.667 184.143 101.933C188.483 102.2 190.112 102.081 190.112 102.081C190.112 102.081 204.999 100.556 213.412 98.7634C216.952 98.008 220.981 96.8971 224.433 95.8602L224.447 95.8454Z" fill="#ED8D3B"/>
<path d="M171.344 119.871C174.558 119.605 177.862 119.145 181.076 118.686C184.498 118.212 187.623 116.849 190.985 116.094C191.77 115.916 191.504 114.82 190.734 114.894C187.119 115.25 183.727 116.879 180.098 117.442C177.091 117.916 173.936 118.049 171.255 119.59C171.107 119.679 171.196 119.871 171.359 119.856L171.344 119.871Z" fill="#C0421C"/>
<path d="M215.027 128.047C207.695 122.419 200.999 117.071 191.83 114.82C190.793 114.568 190.26 116.094 191.312 116.42C195.593 117.753 199.711 118.582 203.591 120.952C207.413 123.293 211.161 125.796 214.953 128.181C215.042 128.24 215.116 128.107 215.042 128.047H215.027Z" fill="#C0421C"/>
<path d="M167.641 123.99C174.04 125.012 181.802 124.241 187.845 121.931C188.438 121.709 188.068 120.805 187.475 120.909C180.765 122.138 174.425 123.042 167.611 123.605C167.374 123.619 167.434 123.96 167.641 123.99Z" fill="#C0421C"/>
<path d="M202.569 124.567C199.859 123.485 197.133 122.7 194.289 122.049C192.082 121.545 189.786 120.686 187.52 120.864C187.031 120.908 187.12 121.575 187.475 121.723C189.89 122.76 192.911 122.745 195.489 123.278C197.844 123.767 200.184 124.241 202.554 124.641C202.614 124.641 202.614 124.567 202.569 124.552V124.567Z" fill="#C0421C"/>
<path d="M170.752 121.679C177.284 121.96 185.816 121.057 191.889 118.583C192.482 118.346 192.096 117.502 191.534 117.576C188.023 118.094 184.572 118.983 181.061 119.561C177.654 120.124 174.04 120.42 170.737 121.427C170.604 121.472 170.604 121.679 170.752 121.679Z" fill="#C0421C"/>
<path d="M199.828 121.471C198.332 120.76 196.762 120.241 195.237 119.575C193.903 118.997 192.585 117.871 191.148 117.694C190.822 117.649 190.66 118.079 190.852 118.301C191.83 119.367 193.681 119.723 195.014 120.241C196.57 120.849 198.125 121.412 199.799 121.649C199.917 121.663 199.932 121.5 199.828 121.456V121.471Z" fill="#C0421C"/>
<path d="M174.855 117.575C180.765 116.138 187.194 112.776 192.512 109.843C193.371 109.369 192.704 108.14 191.815 108.495C186.216 110.776 179.566 113.68 174.766 117.383C174.677 117.442 174.766 117.59 174.855 117.56V117.575Z" fill="#C0421C"/>
<path d="M210.878 114.82C207.694 112.687 204.05 111.102 200.569 109.517C197.977 108.332 195.207 107.221 192.422 108.273C191.77 108.525 192.052 109.577 192.703 109.591C199.236 109.666 204.568 113.443 210.804 114.983C210.893 114.998 210.952 114.894 210.878 114.835V114.82Z" fill="#C0421C"/>
<path d="M215.382 121.412C214.879 120.035 214.227 118.924 213.383 117.724C212.598 116.613 211.827 115.324 210.731 114.48C210.45 114.273 210.124 114.628 210.257 114.91C210.805 116.08 211.798 117.057 212.568 118.094C213.457 119.279 214.301 120.375 215.368 121.427C215.368 121.427 215.397 121.427 215.397 121.412H215.382Z" fill="#C0421C"/>
<path d="M181.535 116.421C190.986 115.517 200.954 112.495 210.138 110.051C211.205 109.77 210.879 108.17 209.783 108.363C200.495 109.977 189.978 112.051 181.446 116.139C181.283 116.213 181.387 116.436 181.55 116.421H181.535Z" fill="#C0421C"/>
<path d="M209.96 109.488C213.115 111.384 216.833 112.155 220.329 113.147C223.884 114.169 227.498 115.428 231.157 115.947C232.105 116.08 232.209 114.747 231.453 114.406C227.913 112.866 223.958 112.066 220.24 111.088C216.907 110.214 213.53 109.103 210.064 109.162C209.901 109.162 209.812 109.37 209.96 109.473V109.488Z" fill="#C0421C"/>
<path d="M231.261 115.606C236.016 119.279 241.971 121.975 247.303 124.745C251.732 127.041 256.354 129.589 261.301 130.477C261.76 130.566 261.982 129.826 261.582 129.618C256.487 126.878 251.036 124.819 245.911 122.108C241.26 119.649 236.579 116.642 231.587 114.939C231.158 114.791 230.935 115.369 231.261 115.62V115.606Z" fill="#C0421C"/>
<path d="M197.607 96.8236C197.829 97.8901 196.896 99.001 195.504 99.2973C194.111 99.5935 192.793 98.9714 192.571 97.9049C192.349 96.8384 193.282 95.7275 194.674 95.4312C196.067 95.135 197.385 95.7571 197.607 96.8236Z" fill="#130100"/>
<path d="M196.882 96.6013C197 97.1494 196.511 97.7271 195.785 97.8752C195.06 98.0233 194.393 97.7123 194.275 97.1642C194.156 96.6162 194.645 96.0385 195.356 95.8903C196.082 95.7422 196.748 96.0533 196.867 96.6013H196.882Z" fill="#785C55"/>
<g style="mix-blend-mode:overlay" opacity="0.23">
<path d="M155.065 100.585C167.493 101.429 179.743 103.799 185.594 103.044C189.608 102.526 214.434 97.9189 229.513 95.0897C218.67 95.2971 206.568 97.83 199.325 94.1121C197.533 93.1937 195.489 92.7938 193.489 92.9715C190.408 93.253 187.49 94.8527 184.394 94.675C180.572 94.4528 177.64 91.6088 173.981 90.883C169.952 90.0831 164.812 90.9718 161.079 92.4975C159.035 93.3418 156.547 94.6157 154.251 94.1862C153.969 94.1417 153.717 94.0677 153.466 93.9936C151.703 93.4307 150.488 92.3642 148.311 93.1937C145.452 94.275 144.385 95.934 144.385 95.934C144.385 95.934 142.075 94.0528 139.275 95.3712C136.461 96.6895 134.905 99.4002 134.905 99.4002C130.625 101.178 127.307 104.229 127.958 109.206C127.484 109.073 127.188 109.68 127.099 110.169C125.959 116.583 126.892 121.056 131.41 125.678C134.994 129.336 139.72 131.188 144.815 131.291C150.592 131.395 157.065 130.284 162.294 127.722C165.034 126.374 165.434 125.1 166.649 122.582C168.115 119.53 171.418 117.782 174.292 116.227C176.262 115.146 178.276 114.139 180.306 113.161C180.276 113.028 180.261 112.954 180.261 112.954C180.261 112.954 169.419 116.02 163.523 120.034C157.628 124.048 148.533 128.24 141.023 125.855C134.431 123.752 131.039 113.931 135.202 108.258C135.957 107.221 136.95 106.392 137.972 105.621C143.082 101.844 148.8 100.156 155.11 100.585H155.065Z" fill="white"/>
</g>
<path d="M149.497 119.057C149.615 119.087 149.719 119.117 149.823 119.146C148.875 118.805 147.764 117.472 147.008 116.806C146.357 116.228 145.349 114.999 144.327 115.221C143.705 115.354 143.587 116.184 143.794 116.687C144.268 117.843 146.638 118.272 147.616 118.939C147.705 118.998 147.793 119.057 147.897 119.087C148.03 119.117 148.179 119.087 148.312 119.057C148.697 118.983 149.112 118.983 149.497 119.057Z" fill="#F2B175"/>
<path d="M146.015 115.368C147.807 116.553 149.214 117.946 151.199 118.835C150.71 118.612 150.473 117.931 150.177 117.531C149.762 116.983 149.229 116.479 148.725 116.005C147.955 115.265 147.022 114.317 146.059 113.843C145.482 113.561 144.43 113.828 144.933 114.702C145.126 115.043 145.733 115.176 146.015 115.368Z" fill="#F2B175"/>
<path d="M150.784 116.998C150.236 115.368 149.362 113.843 148.206 112.554C148.118 112.45 148.014 112.347 147.895 112.317C147.777 112.287 147.658 112.317 147.54 112.347C145.97 112.791 147.244 113.354 147.969 113.961C149.036 114.85 149.91 115.931 150.799 116.983L150.784 116.998Z" fill="#F2B175"/>
<path d="M152.31 118.242C152.029 116.998 151.644 115.769 151.155 114.584C150.844 113.828 150.37 111.592 149.141 112.525C149.881 113.443 150.37 114.436 150.903 115.472C151.348 116.346 152.103 117.294 152.31 118.242Z" fill="#F2B175"/>
<path d="M176.485 153.571C176.485 153.571 174.056 152.445 172.308 153.719C170.56 154.992 170.664 156.118 171.405 157.348C172.145 158.577 174.145 159.718 175.522 159.703C176.9 159.688 176.485 153.571 176.485 153.571Z" fill="#939037"/>
<path d="M177.996 153.659C176.322 153.215 174.515 153.244 173.626 154.518C172.263 156.473 172.915 158.725 174.337 159.466C175.774 160.206 183.551 162.399 188.409 165.376C193.268 168.353 197.593 175.641 197.593 175.641C197.593 175.641 198.881 176.426 199.03 175.419C199.178 174.411 198.2 167.405 189.653 160.606C188.142 159.406 186.602 158.221 184.973 157.17C183.654 156.325 182.114 155.866 180.884 154.977C180.218 154.503 179.136 153.985 177.981 153.689L177.996 153.659Z" fill="#EF4632"/>
<path d="M187.698 162.932C185.891 161.584 184.069 160.251 182.144 159.051C180.588 158.073 178.811 157.496 177.33 156.488C176.53 155.94 175.271 155.333 173.938 154.948C173.775 154.903 173.612 154.859 173.449 154.814C172.353 156.696 172.99 158.755 174.352 159.451C175.789 160.191 183.566 162.384 188.424 165.361C193.283 168.338 197.608 175.626 197.608 175.626C197.608 175.626 198.186 175.982 198.615 175.907C197.386 172.856 194.394 167.968 187.684 162.947L187.698 162.932Z" fill="#C70000"/>
<path d="M172.782 157.569C172.915 157.836 173.064 158.088 173.197 158.31C173.064 158.088 173.004 157.525 173.019 157.258C173.019 156.873 173.182 156.488 173.449 156.207C173.523 156.133 173.597 156.058 173.686 156.014C174.16 155.718 175.3 155.644 175.819 155.866C175.819 155.866 174.249 155.185 174.634 154.414C175.019 153.644 176.041 153.333 176.041 153.333C176.041 153.333 173.745 153.111 172.723 154.399C171.967 155.347 172.279 156.562 172.782 157.569Z" fill="#939037"/>
<path d="M174.278 146.668C174.278 146.668 170.441 146.031 168.486 148.49C166.531 150.949 167.108 152.504 168.619 153.926C170.13 155.348 173.389 156.178 175.3 155.629C177.225 155.067 174.263 146.668 174.263 146.668H174.278Z" fill="#939037"/>
<path d="M176.44 146.224C173.936 146.253 171.403 146.994 170.663 149.112C169.507 152.371 171.3 155.289 173.581 155.763C175.862 156.237 187.638 156.281 195.592 158.563C203.546 160.844 212.449 169.361 212.449 169.361C212.449 169.361 214.552 169.953 214.374 168.487C214.197 167.02 210.108 157.585 195.488 151.378C192.896 150.282 190.289 149.216 187.593 148.386C185.416 147.705 183.09 147.661 181.002 146.905C179.876 146.49 178.158 146.194 176.44 146.224Z" fill="#EF4632"/>
<path d="M193.622 155.452C190.571 154.252 187.49 153.096 184.32 152.163C181.758 151.408 179.047 151.274 176.588 150.445C175.255 150.001 173.255 149.63 171.241 149.601C171.004 149.601 170.752 149.601 170.515 149.601C169.7 152.652 171.418 155.303 173.581 155.748C175.862 156.222 187.638 156.266 195.592 158.547C203.547 160.828 212.449 169.346 212.449 169.346C212.449 169.346 213.397 169.612 213.96 169.346C211.042 165.554 204.954 159.866 193.622 155.437V155.452Z" fill="#C70000"/>
<path d="M170.648 153.734C170.93 154.06 171.241 154.356 171.522 154.623C171.241 154.356 170.959 153.586 170.87 153.216C170.737 152.668 170.796 152.075 171.063 151.572C171.137 151.438 171.211 151.32 171.315 151.201C171.878 150.609 173.418 150.046 174.248 150.164C174.248 150.164 171.774 149.809 172.026 148.594C172.278 147.38 173.566 146.521 173.566 146.521C173.566 146.521 170.263 147.113 169.33 149.305C168.649 150.92 169.552 152.505 170.633 153.719L170.648 153.734Z" fill="#939037"/>
<path d="M175.818 142.15C175.818 142.15 171.937 142.313 170.515 145.113C169.108 147.912 169.982 149.32 171.745 150.416C173.508 151.512 176.87 151.66 178.633 150.727C180.395 149.794 175.804 142.165 175.804 142.165L175.818 142.15Z" fill="#939037"/>
<path d="M177.847 141.277C175.403 141.825 173.078 143.054 172.767 145.276C172.293 148.698 174.633 151.201 176.973 151.201C179.314 151.201 190.838 148.861 199.089 149.483C207.339 150.105 217.782 156.652 217.782 156.652C217.782 156.652 219.959 156.815 219.5 155.408C219.041 154.001 213.116 145.587 197.533 142.477C194.778 141.929 192.008 141.41 189.209 141.144C186.942 140.921 184.646 141.351 182.454 141.025C181.269 140.847 179.521 140.907 177.847 141.277Z" fill="#EF4632"/>
<path d="M196.54 146.831C193.311 146.283 190.053 145.765 186.764 145.498C184.098 145.276 181.417 145.705 178.84 145.38C177.447 145.202 175.403 145.261 173.433 145.631C173.196 145.676 172.959 145.735 172.722 145.78C172.544 148.935 174.751 151.186 176.973 151.186C179.314 151.186 190.838 148.846 199.088 149.468C207.339 150.09 217.782 156.637 217.782 156.637C217.782 156.637 218.759 156.711 219.263 156.326C215.634 153.201 208.524 148.861 196.526 146.816L196.54 146.831Z" fill="#C70000"/>
<path d="M173.701 149.795C174.041 150.047 174.397 150.284 174.738 150.491C174.412 150.284 173.982 149.602 173.819 149.247C173.582 148.743 173.523 148.136 173.671 147.603C173.716 147.454 173.76 147.321 173.849 147.188C174.278 146.492 175.686 145.632 176.515 145.573C176.515 145.573 174.027 145.736 174.027 144.477C174.027 143.218 175.123 142.137 175.123 142.137C175.123 142.137 172.012 143.381 171.538 145.721C171.197 147.44 172.397 148.802 173.716 149.78L173.701 149.795Z" fill="#939037"/>
<path d="M174.651 164.397C177.227 153.481 170.467 142.544 159.551 139.967C148.635 137.391 137.697 144.151 135.121 155.067C132.545 165.983 139.305 176.921 150.221 179.497C161.137 182.073 172.074 175.313 174.651 164.397Z" fill="#729629"/>
<path d="M154.903 179.581C165.866 179.581 174.752 170.695 174.752 159.733C174.752 148.77 165.866 139.884 154.903 139.884C143.941 139.884 135.055 148.77 135.055 159.733C135.055 170.695 143.941 179.581 154.903 179.581Z" fill="#A1CD3A"/>
<path d="M173.628 164.156C176.071 153.806 169.66 143.434 159.31 140.991C148.959 138.549 138.588 144.959 136.145 155.309C133.702 165.66 140.112 176.031 150.463 178.474C160.814 180.917 171.185 174.507 173.628 164.156Z" fill="#FBEADA"/>
<path d="M154.503 157.007V141.246C149.704 141.35 145.349 143.275 142.12 146.371L153.274 157.525C153.511 157.451 153.763 157.481 153.985 157.614L154.459 157.673L154.059 157.584C154.118 157.318 154.281 157.125 154.503 157.021V157.007Z" fill="#C6D92D"/>
<path d="M156.548 157.51L167.702 146.357C164.472 143.261 160.118 141.335 155.318 141.231V157.007C155.541 157.125 155.703 157.318 155.763 157.57C155.763 157.57 155.763 157.599 155.792 157.599C156.044 157.451 156.311 157.436 156.548 157.51Z" fill="#C6D92D"/>
<path d="M152.178 159.318C152.296 159.096 152.489 158.933 152.741 158.873L152.77 158.799C152.622 158.577 152.607 158.325 152.681 158.088L141.527 146.935C138.432 150.164 136.506 154.519 136.402 159.318H152.178Z" fill="#C6D92D"/>
<path d="M154.503 162.472C154.281 162.354 154.118 162.161 154.059 161.91L153.985 161.88C153.763 162.028 153.511 162.043 153.274 161.969L142.12 173.123C145.349 176.218 149.704 178.144 154.503 178.248V162.487V162.472Z" fill="#C6D92D"/>
<path d="M152.681 161.377C152.607 161.14 152.637 160.888 152.77 160.666L152.829 160.192L152.74 160.592C152.474 160.533 152.281 160.37 152.177 160.147H136.417C136.521 164.947 138.446 169.302 141.542 172.531L152.696 161.377H152.681Z" fill="#C6D92D"/>
<path d="M157.125 158.088C157.199 158.325 157.169 158.577 157.036 158.799L156.977 159.273L157.065 158.873C157.317 158.933 157.525 159.096 157.628 159.318H173.404C173.3 154.519 171.374 150.164 168.279 146.935L157.125 158.088Z" fill="#C6D92D"/>
<path d="M157.643 160.147C157.525 160.37 157.332 160.533 157.08 160.592L157.051 160.666C157.199 160.888 157.214 161.14 157.14 161.377L168.293 172.531C171.389 169.302 173.315 164.947 173.419 160.147H157.658H157.643Z" fill="#C6D92D"/>
<path d="M156.548 161.955C156.311 162.029 156.059 161.999 155.837 161.866L155.363 161.807L155.763 161.896C155.703 162.162 155.541 162.355 155.318 162.458V178.234C160.118 178.13 164.472 176.204 167.702 173.109L156.548 161.955Z" fill="#C6D92D"/>
<g style="mix-blend-mode:multiply" opacity="0.24">
<path d="M134.596 159.733C134.596 170.946 143.691 180.041 154.904 180.041V139.439C143.691 139.439 134.596 148.534 134.596 159.747V159.733Z" fill="#729629"/>
</g>
<path d="M169.049 55.7786C169.81 55.7786 170.427 55.1618 170.427 54.401C170.427 53.6402 169.81 53.0234 169.049 53.0234C168.289 53.0234 167.672 53.6402 167.672 54.401C167.672 55.1618 168.289 55.7786 169.049 55.7786Z" fill="#CE6D4B"/>
<path d="M172.101 56.3266C172.551 56.3266 172.916 55.9619 172.916 55.512C172.916 55.062 172.551 54.6973 172.101 54.6973C171.651 54.6973 171.286 55.062 171.286 55.512C171.286 55.9619 171.651 56.3266 172.101 56.3266Z" fill="#CE6D4B"/>
<path d="M140.18 50.5942C140.63 50.5942 140.995 50.2295 140.995 49.7795C140.995 49.3296 140.63 48.9648 140.18 48.9648C139.73 48.9648 139.365 49.3296 139.365 49.7795C139.365 50.2295 139.73 50.5942 140.18 50.5942Z" fill="#CE6D4B"/>
<path d="M177.907 59.0815C178.357 59.0815 178.722 58.7168 178.722 58.2668C178.722 57.8169 178.357 57.4521 177.907 57.4521C177.458 57.4521 177.093 57.8169 177.093 58.2668C177.093 58.7168 177.458 59.0815 177.907 59.0815Z" fill="#CE6D4B"/>
<path d="M188.143 67.0659C188.593 67.0659 188.958 66.7012 188.958 66.2512C188.958 65.8013 188.593 65.4365 188.143 65.4365C187.693 65.4365 187.328 65.8013 187.328 66.2512C187.328 66.7012 187.693 67.0659 188.143 67.0659Z" fill="#CE6D4B"/>
<path d="M194.053 83.7739C194.503 83.7739 194.868 83.4092 194.868 82.9592C194.868 82.5093 194.503 82.1445 194.053 82.1445C193.603 82.1445 193.238 82.5093 193.238 82.9592C193.238 83.4092 193.603 83.7739 194.053 83.7739Z" fill="#CE6D4B"/>
<path d="M204.111 129.93C204.561 129.93 204.925 129.565 204.925 129.115C204.925 128.666 204.561 128.301 204.111 128.301C203.661 128.301 203.296 128.666 203.296 129.115C203.296 129.565 203.661 129.93 204.111 129.93Z" fill="#CE6D4B"/>
<path d="M143.66 53.3345C144.11 53.3345 144.475 52.9697 144.475 52.5198C144.475 52.0698 144.11 51.7051 143.66 51.7051C143.21 51.7051 142.846 52.0698 142.846 52.5198C142.846 52.9697 143.21 53.3345 143.66 53.3345Z" fill="#CE6D4B"/>
<path d="M177.655 64.3552C177.991 64.3552 178.262 64.0833 178.262 63.7479C178.262 63.4125 177.991 63.1406 177.655 63.1406C177.32 63.1406 177.048 63.4125 177.048 63.7479C177.048 64.0833 177.32 64.3552 177.655 64.3552Z" fill="#CE6D4B"/>
<path d="M133.751 51.1277C134.086 51.1277 134.358 50.8558 134.358 50.5204C134.358 50.185 134.086 49.9131 133.751 49.9131C133.415 49.9131 133.144 50.185 133.144 50.5204C133.144 50.8558 133.415 51.1277 133.751 51.1277Z" fill="#CE6D4B"/>
<path d="M118.539 56.3709C118.874 56.3709 119.146 56.099 119.146 55.7636C119.146 55.4282 118.874 55.1562 118.539 55.1562C118.204 55.1562 117.932 55.4282 117.932 55.7636C117.932 56.099 118.204 56.3709 118.539 56.3709Z" fill="#CE6D4B"/>
<path d="M163.435 76.8269C163.771 76.8269 164.043 76.555 164.043 76.2196C164.043 75.8842 163.771 75.6123 163.435 75.6123C163.1 75.6123 162.828 75.8842 162.828 76.2196C162.828 76.555 163.1 76.8269 163.435 76.8269Z" fill="#CE6D4B"/>
<path d="M172.915 79.8191C173.25 79.8191 173.522 79.5472 173.522 79.2118C173.522 78.8764 173.25 78.6045 172.915 78.6045C172.58 78.6045 172.308 78.8764 172.308 79.2118C172.308 79.5472 172.58 79.8191 172.915 79.8191Z" fill="#CE6D4B"/>
<path d="M189.891 67.8504C190.226 67.8504 190.498 67.5785 190.498 67.2431C190.498 66.9076 190.226 66.6357 189.891 66.6357C189.555 66.6357 189.283 66.9076 189.283 67.2431C189.283 67.5785 189.555 67.8504 189.891 67.8504Z" fill="#CE6D4B"/>
<path d="M158.458 51.1277C158.793 51.1277 159.065 50.8558 159.065 50.5204C159.065 50.185 158.793 49.9131 158.458 49.9131C158.122 49.9131 157.851 50.185 157.851 50.5204C157.851 50.8558 158.122 51.1277 158.458 51.1277Z" fill="#CE6D4B"/>
<path d="M177.107 58.4443C177.107 59.5108 176.248 60.3848 175.167 60.3848C174.086 60.3848 173.227 59.5257 173.227 58.4443C173.227 57.363 174.086 56.5039 175.167 56.5039C176.248 56.5039 177.107 57.363 177.107 58.4443Z" fill="#CE6D4B"/>
<path d="M138.936 51.2158C138.936 52.2823 138.076 53.1563 136.995 53.1563C135.914 53.1563 135.055 52.2971 135.055 51.2158C135.055 50.1345 135.914 49.2754 136.995 49.2754C138.076 49.2754 138.936 50.1345 138.936 51.2158Z" fill="#CE6D4B"/>
<path d="M192.32 69.9238C192.32 70.9903 191.461 71.8643 190.38 71.8643C189.299 71.8643 188.439 71.0052 188.439 69.9238C188.439 68.8425 189.299 67.9834 190.38 67.9834C191.461 67.9834 192.32 68.8425 192.32 69.9238Z" fill="#CE6D4B"/>
</g>
</g>
<defs>
<clipPath id="clip0_834_266735">
<rect width="300" height="225" fill="white" transform="translate(0.876953)"/>
</clipPath>
</defs>
</svg>
