<svg width="300" height="225" viewBox="0 0 300 225" fill="none" xmlns="http://www.w3.org/2000/svg">
<g clip-path="url(#clip0_834_264114)">
<rect width="300" height="225" fill="#D9D9D9"/>
<g clip-path="url(#clip1_834_264114)">
<path d="M373 0.5H-286V233.5H373V0.5Z" fill="url(#paint0_linear_834_264114)"/>
<path style="mix-blend-mode:screen" opacity="0.9" d="M102.295 119.458C93.2507 117.388 90.1496 123.601 90.1496 123.601C90.1496 123.601 88.3393 114.542 83.1719 113.765C78.0046 112.988 74.6437 117 74.6437 117C74.6437 117 69.2166 90.4648 43.4459 90.4648C17.6751 90.4648 12.1046 121.403 12.1046 121.403C12.1046 121.403 8.22813 111.179 1.25048 111.695C-5.72717 112.212 -10.6386 122.568 -10.6386 122.568C-10.6386 122.568 -16.0657 114.285 -30.5366 117.004C-45.0074 119.722 -57.6719 131.112 -57.6719 131.112L117.029 132.215C117.029 132.215 111.342 121.535 102.298 119.462L102.295 119.458Z" fill="url(#paint1_linear_834_264114)"/>
<path style="mix-blend-mode:screen" d="M309.814 17.7149C281.128 29.8814 309.814 79.3317 309.814 79.3317C309.814 79.3317 286.555 42.8284 274.41 50.5951C262.265 58.3617 286.039 101.509 286.039 101.509C286.039 101.509 268.723 92.5351 256.062 99.7814C243.398 107.032 250.635 121.788 250.635 121.788C250.635 121.788 234.614 99.0047 223.76 100.302C212.906 101.595 217.557 122.825 217.557 122.825C217.557 122.825 200.672 68.1555 182.58 75.9222C164.489 83.6888 174.141 120.984 174.141 120.984C174.141 120.984 157.86 105.222 151.917 108.27C145.975 111.323 151.917 121.012 151.917 121.012C151.917 121.012 143.649 107.292 136.152 108.325C128.658 109.362 130.984 133.695 130.984 133.695L373.004 155.958V55.5152C373.004 55.5152 338.503 5.54839 309.817 17.7188L309.814 17.7149Z" fill="url(#paint2_linear_834_264114)"/>
<path d="M3.02172 64.292C2.31621 65.1968 1.90918 65.8647 1.90918 65.8647C1.90918 65.8647 2.34722 65.2706 3.02172 64.292Z" fill="#F9F4DE"/>
<path d="M25.5712 63.0837C22.6987 62.4042 20.241 68.6175 20.241 68.6175C20.241 68.6175 19.2874 64.641 17.2367 64.54C15.1861 64.439 14.0076 66.0428 14.0076 66.0428C14.0076 66.0428 15.6861 59.6664 10.9065 59.3208C7.61146 59.0839 4.58395 62.276 3.02173 64.2876C2.34722 65.2662 1.90918 65.8603 1.90918 65.8603C1.90918 65.8603 2.31621 65.1963 3.02173 64.2876C6.18493 59.6936 14.531 46.6145 6.74701 46.9446C-2.69219 47.3485 -11.829 61.1537 -11.829 61.1537C-11.829 61.1537 -8.53404 54.0861 -14.6007 54.2919C-20.6674 54.4977 -33.4946 64.4274 -33.4946 64.4274L31.3316 70.6096C31.3316 70.6096 28.4436 63.7594 25.5712 63.0799V63.0837Z" fill="#F9F4DE"/>
<path d="M247.015 45.1579C233.447 44.3813 224.919 48.8432 224.919 48.8432C224.919 48.8432 232.866 30.4013 220.848 29.6246C209.076 28.8635 206.975 48.0355 206.897 48.816C206.897 48.8355 206.897 48.8432 206.897 48.8432C206.897 48.8432 206.897 48.8316 206.897 48.816C206.947 48.2918 207.645 40.1407 201.078 41.0804C194.295 42.0513 196.039 53.0295 196.039 53.0295C196.039 53.0295 187.898 41.962 184.022 55.9847L261.358 51.3713C261.358 51.3713 260.582 45.9346 247.015 45.1579Z" fill="#F9F4DE"/>
<path d="M316.062 103.602C311.845 103.505 310.174 117 310.174 117C310.174 117 310.879 107.292 306.325 107.754C301.77 108.216 298.087 120.312 298.087 120.312C298.087 120.312 298.087 118.355 296.924 118.355C295.761 118.355 294.308 119.761 294.308 119.761C294.308 119.761 295.323 115.781 293.276 116.118C291.23 116.456 286.101 124.514 286.101 124.514L318.392 122.425L321.447 118.006C321.447 118.006 320.284 103.684 316.066 103.591L316.062 103.602Z" fill="#8BA896"/>
<path d="M373 127.396H-286V233.5H373V127.396Z" fill="#FBD4A1"/>
<path d="M3.05679 178.648C-56.8231 180.904 370.275 129.869 370.275 129.869L-286 135.473V233.5H-1.31586C67.2162 212.86 134.647 193.261 158.891 188.461C214.708 177.409 103.585 174.858 3.05679 178.648Z" fill="#FFE2BD"/>
<path opacity="0.3" d="M306.685 148.373L310.042 228.028L373 193.389V130.735L189.674 139.096L306.685 148.373Z" fill="#D69F55"/>
<path d="M-204.722 190.422C-191.026 188.635 -164.147 185.474 -152.777 180.445C-141.408 175.416 -93.0797 173.308 -60.0018 169.681C-26.9238 166.058 -31.5756 163.728 -22.0124 161.312C-12.4491 158.901 41.8215 159.84 82.3926 155.957C122.968 152.074 116.246 149.483 122.448 147.93C128.651 146.377 224.043 136.886 224.043 136.886L114.955 131.62L-141.927 150.516L-286 177.983V191.948C-282.748 191.959 -218.076 192.161 -204.722 190.422Z" fill="#F0BF7E"/>
<path d="M-210.409 187.537C-196.713 185.75 -169.834 182.589 -158.464 177.561C-147.094 172.532 -98.7665 170.423 -65.6885 166.796C-32.6106 163.173 -37.2624 160.843 -27.6991 158.427C-18.1359 156.016 36.1347 158.121 76.7058 154.237C117.281 150.354 115.924 146.439 122.32 146.377C134.795 146.257 218.356 134.001 218.356 134.001L109.268 128.735L-147.614 147.632L-286 174.015V189.075C-269.296 189.09 -221.654 189.001 -210.409 187.537Z" fill="#D9AC72"/>
<path d="M-286 190.422C-286 190.422 -177.846 182.178 -168.931 175.607C-160.015 169.037 -40.2318 165.623 -35.9677 160.536C-31.7035 155.445 109.788 154.338 114.827 147.705C119.804 141.158 366.747 132.428 372.884 132.211C372.961 132.207 373 132.207 373 132.207V127.396H-286V190.422Z" fill="url(#paint3_linear_834_264114)"/>
<path d="M373 233.5V174.089L210.653 233.5H373Z" fill="#FFBD65"/>
<path d="M80.3265 189.56C68.3792 187.49 -239.665 204.111 -286 206.627V233.5H-236.424C-156.293 223.275 91.1612 191.439 80.3265 189.56Z" fill="#FBD4A1"/>
<g style="mix-blend-mode:overlay" opacity="0.5">
<path d="M-286 136.952L372.884 129.869L373 127.396H-286V136.952Z" fill="#02325C"/>
</g>
<g style="mix-blend-mode:overlay" opacity="0.34">
<path d="M-286 141.981V151.79L92.9909 136.952L-286 141.981Z" fill="#02325C"/>
</g>
<path d="M-216.894 184.57C-215.258 184.314 -213.684 183.914 -212.122 183.444C-208.959 183.075 -205.866 182.698 -202.869 182.318C-199.9 182.69 -196.926 182.853 -193.938 182.403C-192.007 182.112 -189.794 181.448 -188.092 180.248C-185.735 179.879 -183.533 179.506 -181.517 179.133C-179.219 179.199 -176.87 178.788 -174.714 178.143C-173.284 177.716 -171.706 177.122 -170.28 176.322C-169.71 176.081 -169.256 175.84 -168.934 175.603C-160.019 169.033 -40.2356 165.619 -35.9715 160.532C-31.7074 155.441 109.784 154.334 114.823 147.702C119.801 141.154 366.743 132.424 372.88 132.207C367.592 132.3 182.816 138.747 111.528 142.762C111.834 142.704 112.141 142.649 112.447 142.587C112.78 142.517 112.683 142.032 112.369 142.016C104.903 141.659 97.224 141.554 89.7579 141.989C86.2148 142.195 82.726 142.77 79.2682 143.57C75.3646 144.474 71.1625 145.616 67.1348 145.581C67.0689 145.581 67.0689 145.678 67.1348 145.682C70.643 145.783 73.8566 145.329 77.2912 144.63C81.4196 143.791 85.5558 143.577 89.7579 143.48C92.7157 143.414 95.7238 143.5 98.7397 143.539C89.975 144.125 84.6371 144.63 83.9355 145.022C78.5084 148.067 103.318 145.733 100.992 147.612C100.465 148.035 93.4871 148.463 82.7648 148.894C83.7998 148.692 84.8077 148.404 85.7884 147.993C85.9629 147.919 85.9667 147.597 85.738 147.628C82.664 148.02 79.7334 148.311 76.6283 148.179C73.2791 148.032 69.9492 147.577 66.6038 147.379C60.1727 146.999 53.6641 147.946 47.2524 148.358C47.2059 148.358 47.2059 148.432 47.2524 148.432C53.6525 148.202 60.2076 147.721 66.6038 148.199C69.4995 148.416 72.6123 148.933 75.7173 149.162C55.6644 149.872 26.9126 150.583 1.62247 151.294C5.43304 150.754 9.27463 150.373 13.155 150.098C21.8422 149.48 30.5255 149.235 39.0886 147.527C39.1739 147.511 39.139 147.383 39.0537 147.395C30.2619 148.781 21.3266 148.999 12.4572 149.468C6.69678 149.775 0.804535 150.21 -4.87061 151.476C-26.1369 152.09 -44.0307 152.699 -50.6944 153.301C-71.3676 155.173 -39.8402 155.833 -42.9414 157.818C-44.8293 159.021 -91.7694 161.452 -129.817 164.085C-131.286 163.946 -132.957 163.786 -134.791 163.623C-134.159 163.549 -133.531 163.417 -132.903 163.212C-132.647 163.126 -132.705 162.777 -132.965 162.757C-136.004 162.528 -138.826 162.637 -141.826 161.868C-144.296 161.235 -146.567 160.866 -149.122 160.928C-152.076 161.002 -155.022 161.235 -157.968 161.491C-159.321 161.608 -160.712 161.674 -162.096 161.806C-164.333 161.716 -166.562 161.65 -168.752 161.608C-172.218 161.285 -175.544 160.117 -179.002 159.79C-178.552 159.674 -178.188 159.161 -178.502 158.711C-179.572 157.161 -181.386 157.212 -182.704 158.132C-184.913 159.243 -187.103 160.171 -189.418 160.866C-191.104 160.606 -192.848 160.435 -194.519 160.482C-196.485 160.54 -198.295 161.709 -200.121 162.443C-201.795 162.532 -203.47 162.594 -205.137 162.703C-207.172 162.835 -209.238 163.095 -211.297 163.472C-210.017 163.037 -208.765 162.509 -207.556 161.864C-207.203 161.674 -207.459 161.181 -207.815 161.25C-214.487 162.54 -221.015 163.542 -227.822 162.757C-234.78 161.953 -241.479 160.338 -248.53 160.373C-248.6 160.373 -248.6 160.482 -248.53 160.482C-241.215 160.61 -234.319 163.74 -227.105 164.679C-223.635 165.13 -220.053 165.204 -216.569 164.711C-218.278 165.204 -219.964 165.79 -221.604 166.45C-226.209 165.705 -230.923 165.646 -235.563 165.223C-238.796 164.928 -241.983 164.361 -245.084 163.41C-248.014 162.509 -250.837 161.309 -253.783 160.451C-259.772 158.707 -266.133 158.093 -272.297 157.278C-276.84 156.68 -281.418 156.315 -286 156.086V156.33C-275.01 157.134 -264.024 159.006 -253.554 162.384C-251.015 163.204 -248.546 164.233 -246.018 165.083C-261.822 163.584 -278.181 161.949 -286 161.161V172.73C-276.375 173.266 -255.039 174.396 -237.986 174.908C-262.939 175.452 -286 175.137 -286 175.137V190.418C-286 190.418 -254.74 188.034 -224.449 184.811C-221.93 184.954 -219.406 184.958 -216.894 184.566V184.57ZM-194.232 181.323C-195.701 181.615 -197.194 181.739 -198.694 181.778C-196.682 181.51 -194.732 181.238 -192.848 180.966C-193.298 181.102 -193.752 181.226 -194.236 181.323H-194.232ZM-157.235 161.946C-154.332 161.767 -151.413 161.713 -148.505 161.682C-145.773 161.65 -143.012 162.555 -140.252 163.161C-145.567 162.73 -151.665 162.299 -157.867 161.992C-157.658 161.977 -157.445 161.957 -157.235 161.942V161.946ZM-138.345 164.691C-155.561 165.949 -169.861 167.235 -175.524 168.442C-175.811 168.431 -176.094 168.419 -176.381 168.407C-180.211 168.237 -184.053 168.07 -187.89 168.101C-184.63 167.083 -181.7 166.233 -179.269 165.802C-173.896 164.846 -153.049 164.683 -138.345 164.695V164.691ZM-177.68 160.784C-176.466 160.963 -175.272 161.266 -174.082 161.557C-179.331 161.565 -184.173 161.763 -188.111 162.233C-185.107 160.497 -180.758 160.326 -177.68 160.784ZM-178.502 169.499C-182.867 171.537 -194.035 172.866 -207.606 173.724C-201.656 172.481 -195.826 170.617 -190.658 168.974C-186.607 168.982 -182.553 169.254 -178.502 169.499ZM-194.523 161.429C-193.825 161.425 -193.143 161.518 -192.469 161.627C-192.542 161.643 -192.616 161.658 -192.689 161.674C-194.589 162.031 -196.519 162.221 -198.45 162.349C-197.182 161.934 -195.942 161.441 -194.523 161.429ZM-215.72 165.561C-211.335 164.295 -206.738 164.112 -202.202 163.911C-199.729 163.802 -196.981 163.709 -194.244 163.371C-206.66 166.307 -206.47 167.996 -217.39 167.518C-217.425 167.421 -217.495 167.336 -217.611 167.305C-218.243 167.134 -218.883 166.982 -219.519 166.846C-218.263 166.38 -217.003 165.938 -215.712 165.565L-215.72 165.561Z" fill="#F2F7FF"/>
<path d="M137.097 139.62C134.074 139.608 131.003 139.954 127.976 140.051C124.995 140.148 121.874 139.989 118.936 140.533C118.835 140.552 118.874 140.684 118.959 140.692C122.15 141.092 125.522 140.715 128.732 140.634C131.376 140.568 134.663 141.104 137.179 140.179C137.473 140.071 137.438 139.616 137.101 139.616L137.097 139.62Z" fill="#F2F7FF"/>
<path d="M139.249 138.505C136.919 138.412 134.593 138.692 132.271 138.669C132.19 138.669 132.19 138.793 132.271 138.797C134.624 138.913 136.931 139.119 139.28 138.738C139.415 138.715 139.377 138.509 139.249 138.505Z" fill="#F2F7FF"/>
<path d="M190.294 136.715C179.611 136.894 168.923 137.534 158.248 137.884C158.182 137.884 158.182 137.985 158.248 137.985C168.916 137.822 179.654 137.694 190.294 136.851C190.38 136.843 190.384 136.711 190.294 136.715Z" fill="#F2F7FF"/>
<path d="M190.03 135.395C188.394 135.41 186.759 135.492 185.123 135.464C184.894 135.461 184.894 135.814 185.123 135.818C186.766 135.845 188.425 135.826 190.057 135.581C190.166 135.565 190.139 135.391 190.03 135.395Z" fill="#F2F7FF"/>
<path d="M-1.27307 225.053C-3.21131 224.762 -8.15381 226.898 -8.15381 228.742L1.73119 227.869C1.73119 227.869 0.665162 225.344 -1.27307 225.053Z" fill="#E6B575"/>
<path d="M125.421 209.45C118.444 209.683 117.021 214.833 117.021 214.833L142.346 211.493C142.346 211.493 132.395 209.217 125.417 209.45H125.421Z" fill="#FFE2BD"/>
<path d="M142.35 197.901C139.249 197.901 136.923 204.049 136.923 204.049L147.002 203.078C147.002 203.078 145.451 197.901 142.35 197.901Z" fill="#FFE2BD"/>
<path d="M131.496 207.578H135.132C135.132 207.578 133.775 206.219 133.047 206.219C131.69 206.219 131.496 207.578 131.496 207.578Z" fill="#FFE2BD"/>
<path d="M26.8311 212.134L56.1643 210.328C56.1643 210.328 49.9619 205.668 40.6584 205.668C31.3549 205.668 26.8311 212.134 26.8311 212.134Z" fill="#FBD4A1"/>
<path d="M21.5322 216.413H33.6772C33.6772 216.413 27.8625 210.848 21.5322 216.413Z" fill="#FBD4A1"/>
<path d="M365.898 83.6339C359.773 82.7291 350.408 82.7951 340.011 88.0027C321.788 97.1285 324.137 119.135 291.121 122.63C290.954 122.65 290.788 122.665 290.621 122.685C259.547 125.822 257.415 112.009 225.853 112.553C224.38 112.58 222.845 112.639 221.236 112.728C205.707 113.609 194.004 118.227 186.794 122.048C181.312 124.953 178.428 127.395 178.428 127.395H373V85.428C372.182 85.1057 369.647 84.1892 365.898 83.6339Z" fill="#A9C4B2"/>
<path d="M12.1433 221.842C12.1007 221.838 12.0619 221.83 12.0193 221.827C11.7479 221.792 11.4805 221.931 11.4805 222.238C11.4805 222.545 11.7518 222.689 12.0193 222.65C12.0619 222.646 12.1007 222.638 12.1433 222.634C12.5349 222.58 12.5349 221.896 12.1433 221.842Z" fill="#FBD4A1"/>
<path d="M19.2722 221.679C18.8031 221.679 18.8031 222.409 19.2722 222.409C19.7413 222.409 19.7413 221.679 19.2722 221.679Z" fill="#FBD4A1"/>
<path d="M17.8881 223.815C17.7137 224.094 17.6594 224.405 17.4229 224.661C17.295 224.801 17.2563 225.007 17.357 225.174C17.4656 225.357 17.7486 225.465 17.9346 225.325C18.3339 225.03 18.7564 224.58 18.7332 224.044C18.7138 223.59 18.1323 223.427 17.8881 223.815Z" fill="#FBD4A1"/>
<path d="M22.0669 204.068C21.6987 203.956 21.4428 204.53 21.7994 204.701C21.9971 204.794 22.125 204.969 22.1948 205.175C22.2491 205.33 22.2607 205.462 22.4197 205.556C22.536 205.625 22.6367 205.606 22.7492 205.544C23.0631 205.369 22.9158 204.876 22.7996 204.624C22.6716 204.352 22.3421 204.154 22.0669 204.068Z" fill="#FBD4A1"/>
<path d="M5.12288 212.824C4.75461 212.824 4.75461 213.399 5.12288 213.399C5.49114 213.399 5.49114 212.824 5.12288 212.824Z" fill="#FBD4A1"/>
<path d="M215.487 125.803C214.549 125.803 213.774 126.677 213.774 126.677C213.774 126.677 213.708 124.801 212.32 124.801C210.932 124.801 210.448 127.065 210.448 127.065C210.448 127.065 210.223 126.32 209.641 126.257C209.06 126.195 208.413 127.034 208.413 127.034C208.413 127.034 208.122 125.644 207.606 125.644C207.091 125.644 206.897 126.063 206.897 126.063C206.897 126.063 207.157 122.891 204.99 122.891C202.823 122.891 200.985 127.395 200.985 127.395H217.104C217.104 127.395 216.425 125.803 215.487 125.803Z" fill="#74877B"/>
<path d="M247.53 126.544C246.398 126.478 245.332 126.933 245.332 126.933C245.332 126.933 245.46 124.051 242.553 123.601C239.645 123.147 237.544 126.774 237.544 126.774C237.544 126.774 237.448 125.737 236.544 125.737C235.641 125.737 234.734 126.288 234.734 126.288C234.734 126.288 235.769 122.727 231.858 122.082C227.95 121.434 224.702 127.399 224.702 127.399H249.205C249.205 127.399 248.654 126.614 247.526 126.548L247.53 126.544Z" fill="#74877B"/>
<path d="M312.011 126.059C310.624 126.028 308.666 126.999 308.666 126.999C308.666 126.999 308.91 122.952 306.003 122.89C303.096 122.824 299.459 127.395 299.459 127.395H313.756C313.756 127.395 313.399 126.094 312.011 126.059Z" fill="#74877B"/>
<path d="M212.952 121.333C212.611 121.869 212.402 122.269 212.375 122.331C212.437 122.269 212.937 121.76 212.952 121.333Z" fill="#B5D1BF"/>
<path d="M186.794 122.047L196.962 125.143C196.962 125.143 201.319 119.426 205.389 119.182C209.332 118.949 208.824 122.649 208.789 122.879C208.855 122.708 209.657 120.735 211.786 120.735C212.712 120.735 212.968 121.011 212.952 121.333C213.728 120.114 215.189 118.187 216.825 117.923C219.252 117.535 219.88 120.642 219.88 120.642L225.853 112.553C224.38 112.58 222.845 112.638 221.236 112.727C205.707 113.609 194.004 118.226 186.794 122.047Z" fill="#B7D4C1"/>
<path d="M340.011 88.0027C321.788 97.1285 324.137 119.135 291.121 122.63C290.954 122.65 290.788 122.665 290.621 122.685L336.86 118.036L365.898 83.6339C359.773 82.7291 350.408 82.7951 340.011 88.0027Z" fill="#B7D4C1"/>
<path d="M298.184 69.5219C295.664 64.757 293.78 61.429 292.985 60.0466C292.718 59.5767 292.575 59.332 292.575 59.332H291.082C291.082 59.332 291.415 59.767 292.028 60.6873C293.071 62.2639 294.935 65.2774 297.339 69.9918C300.731 76.6439 305.196 86.694 309.949 100.884C320.028 130.98 325.618 160.73 325.618 160.73L331.173 159.052C331.173 159.052 316.694 108.262 308.398 90.2045C304.623 81.9874 301.006 74.8537 298.184 69.5219Z" fill="#D89D9C"/>
<path d="M297.625 67.7359C297.672 67.6699 297.594 67.5883 297.525 67.6077C297.424 67.6349 297.319 67.6699 297.218 67.7165C295.183 63.9186 293.671 61.2507 292.981 60.0508L292.024 60.6915C292.935 62.0701 294.474 64.5438 296.451 68.2912C296.397 68.3961 296.451 68.5397 296.579 68.532C296.827 69.0019 297.075 69.4873 297.335 69.996L298.18 69.5261C297.905 69.0057 297.641 68.5087 297.381 68.0271C297.47 67.9378 297.552 67.8407 297.622 67.7398L297.625 67.7359Z" fill="#9E7171"/>
<path d="M294.54 58.7497C294.637 58.4584 307.041 44.0901 302.099 41.4688C302.048 41.4416 302.002 41.4183 301.952 41.3989C297.087 39.232 293.571 58.1672 293.571 58.1672C293.571 58.1672 291.923 32.1488 287.368 32.7313C283.096 33.2789 290.043 54.8197 290.977 57.2662C289.904 55.375 280.674 42.2998 274.77 46.0317C268.567 49.95 289.415 57.5381 289.791 57.7788C289.5 57.7788 264.303 69.2347 267.114 76.613C269.874 83.8632 289.19 60.6603 289.869 59.8409C289.256 60.6952 276.165 83.1098 281.871 85.8553C281.926 85.8864 281.98 85.9097 282.038 85.933C288.241 88.3601 290.822 60.2059 291.082 60.6913C291.342 61.1767 291.923 86.2281 296.09 86.0806C300.258 85.933 293.695 61.2893 293.695 61.2893C293.695 61.2893 306.266 76.9042 308.301 74.7684C310.336 72.6326 295.024 60.7884 295.024 60.7884C295.024 60.7884 311.143 64.1863 311.127 59.8176C311.112 55.4488 294.443 59.0409 294.54 58.7497Z" fill="#7E8732"/>
<path d="M293.571 58.1672C293.571 58.1672 291.923 32.1488 287.368 32.7313C283.096 33.2789 290.043 54.8197 290.977 57.2662C289.904 55.375 280.674 42.2998 274.77 46.0317C268.567 49.95 289.415 57.5381 289.791 57.7788C289.5 57.7788 264.303 69.2347 267.114 76.613C269.874 83.8632 289.19 60.6603 289.869 59.8409C289.256 60.6952 276.165 83.1098 281.871 85.8553L290.694 59.4021H293.152L301.952 41.3989C297.087 39.232 293.571 58.1672 293.571 58.1672Z" fill="#8F9939"/>
<path d="M337.731 52.1481C337.731 52.1481 362.149 17.8466 355.625 14.7399C349.101 11.6332 335.506 51.1889 335.506 51.1889C335.506 51.1889 331.913 9.04306 323.516 12.6662C315.12 16.2894 334.599 49.9462 333.514 49.5579C332.432 49.1695 313.825 12.2779 303.874 19.1397C299.35 22.258 304.929 28.8325 312.271 35.1468C316.826 38.4438 321.148 41.9077 324.575 44.6921C328.971 47.8842 332.184 50.1015 331.917 50.3345C331.669 50.5442 328.804 48.1327 324.575 44.6921C320.861 41.997 316.302 38.6108 312.271 35.1468C301.804 27.5743 290.117 20.8911 285.267 25.3531C275.704 34.1566 329.331 51.8879 328.556 52.0199C327.781 52.1481 286.562 74.9316 289.663 81.5993C291.52 85.5952 306.053 75.1102 317.248 66.1203C324.013 59.7827 330.145 54.9751 330.44 54.8703C330.727 54.7654 324.734 60.1089 317.248 66.1203C307.402 75.3393 296.218 87.7971 299.742 93.7036C305.685 103.672 332.304 56.8119 331.917 57.7168C331.529 58.6216 311.759 100.045 320.935 105.742C330.11 111.439 335.15 55.7751 335.15 55.7751C335.15 55.7751 348.33 100.22 355.307 98.5151C362.285 96.8103 337.216 54.2218 337.216 54.2218C337.216 54.2218 366.805 45.8066 365.514 40.6301C364.223 35.4536 337.731 52.1519 337.731 52.1519V52.1481Z" fill="#5F6625"/>
<path d="M248.925 75.8713C248.72 75.6654 248.518 75.4596 248.313 75.2538C229.973 56.8235 212.126 43.3561 198.326 34.2458C187.898 27.3607 179.777 22.9608 175.493 20.7823C173.326 19.6755 172.14 19.1396 172.14 19.1396L170.396 21.4696C170.396 21.4696 170.647 21.59 171.128 21.823H171.132C173.76 23.1201 183.176 27.9043 195.364 35.8846C208.145 44.2532 223.972 56.1323 238.234 71.1841C262.059 96.3364 279.057 126.7 289.403 148.548C297.532 165.716 301.552 177.622 301.552 177.622L307.623 173.696C307.623 173.696 293.667 121.198 248.944 75.8946C248.933 75.879 248.925 75.8713 248.925 75.8713Z" fill="#D89D9C"/>
<path opacity="0.41" d="M248.968 75.9219C250.076 77.316 273.692 105.552 281.778 121.011C289.737 136.226 292.028 139.62 292.028 139.62L289.403 148.552C290.69 151.27 291.873 153.856 292.954 156.284C298.703 169.188 301.552 177.622 301.552 177.622L307.623 173.696C307.623 173.696 304.793 163.048 297.594 147.204C288.814 127.877 273.537 100.814 248.968 75.9219Z" fill="#9E7171"/>
<path d="M292.954 156.283C298.703 169.188 301.552 177.622 301.552 177.622L307.623 173.696C307.623 173.696 304.793 163.048 297.594 147.204L292.954 156.283Z" fill="#9E7171"/>
<path d="M171.128 21.823H171.132C173.761 23.12 183.176 27.9043 195.364 35.8845L198.326 34.2457C187.898 27.3606 179.777 22.9608 175.493 20.7822L171.128 21.823Z" fill="#9E7171"/>
<path d="M168.845 18.9924C167.779 18.2119 162.255 14.4528 150.432 11.0821C137.155 7.29583 119.808 11.4704 120.002 13.0238C120.195 14.5771 164.096 20.1108 164.096 20.1108C164.096 20.1108 153.049 20.5963 141.71 25.0621C130.371 29.5279 116.222 39.2363 122.424 38.4596C128.538 37.6946 162.98 23.8233 163.608 23.6058C163.162 23.835 147.505 32.5608 138.415 43.9933C130.949 53.3794 125.324 66.9982 128.801 69.4214C129.565 69.9612 130.774 69.9534 132.503 69.235C146.408 63.4721 166.329 23.932 166.705 23.136C166.368 24.0291 151.622 62.8741 162.449 66.8079C173.4 70.7883 171.559 23.6058 171.559 23.6058C171.559 23.6058 178.342 64.7692 189.1 63.8954C199.857 63.0217 175.047 22.4408 175.047 22.4408C175.047 22.4408 223.794 26.2271 223.6 22.4408C223.406 18.6546 198.112 17.7808 191.522 17.975C184.932 18.1692 175.144 20.2079 175.532 20.0138C175.92 19.8196 199.275 10.8879 196.95 4.48042C196.775 3.995 196.488 3.66492 196.108 3.46687C191.464 1.05143 172.908 18.5342 172.819 18.2663C172.753 18.0682 174.997 7.54825 173.834 0.5H166.108C166.829 7.95212 171.555 19.3963 171.361 19.14C171.21 18.9381 166.763 9.07052 161.216 0.5H148.936C155.677 8.59287 167.217 17.7187 168.841 18.9924H168.845Z" fill="#6B732B"/>
<path d="M292.919 3.0432C294.765 2.35197 295.866 1.9248 295.866 1.9248C295.866 1.9248 294.706 2.2976 292.919 3.0432Z" fill="#7E8732"/>
<path d="M279.84 2.31354C279.452 2.31354 250.251 6.10367 251.414 12.449C252.391 17.7847 283.158 6.70559 292.919 3.04749C294.702 2.30189 295.865 1.92909 295.865 1.92909C295.865 1.92909 294.768 2.35626 292.919 3.04749C287.504 5.31147 276.324 10.9967 274.285 20.0487C272.948 25.9902 304.715 1.88249 305.25 1.41261C305.25 1.41261 305.25 1.41261 305.25 1.40872C305.262 1.40096 305.258 1.40484 305.25 1.41261C304.727 1.90579 328.052 35.9626 334.63 31.6987C341.22 27.4271 312.274 1.40484 312.274 1.40484C312.274 1.40484 339.817 23.6175 345.352 20.5691C348.764 18.6896 337.871 12.0025 329.121 7.23761C323.714 4.68237 319.45 2.34072 319.248 2.18927C319.05 2.04171 323.667 4.26686 329.121 7.23761C337.626 11.2569 348.969 15.8042 351.81 13.1908C354.423 10.7909 343.654 5.03964 333.626 0.503906H253.922C264.144 2.62032 280.103 2.31742 279.836 2.31742L279.84 2.31354Z" fill="#7E8732"/>
<path d="M168.845 18.9924C167.779 18.2119 162.255 14.4528 150.432 11.0821C137.155 7.29583 119.808 11.4704 120.002 13.0238C120.195 14.5771 164.096 20.1108 164.096 20.1108C164.096 20.1108 153.049 20.5963 141.71 25.0621C130.371 29.5279 116.222 39.2363 122.424 38.4596C128.538 37.6946 162.98 23.8233 163.608 23.6058C163.162 23.835 147.505 32.5608 138.415 43.9933C130.949 53.3794 125.324 66.9982 128.801 69.4214L165.938 22.5069L172.85 21.5982L196.108 3.46687C191.464 1.05143 172.908 18.5342 172.819 18.2663C172.753 18.0682 174.997 7.54825 173.834 0.5H166.108C166.829 7.95212 171.555 19.3963 171.361 19.14C171.21 18.9381 166.763 9.07052 161.216 0.5H148.936C155.677 8.59287 167.217 17.7187 168.841 18.9924H168.845Z" fill="#7E8732"/>
<path d="M185.774 26.0916C185.033 27.1362 184.347 28.4566 184.134 29.7303C184.115 29.839 184.258 29.9128 184.316 29.808C184.971 28.6779 185.456 27.377 185.937 26.1615C185.975 26.0606 185.824 26.014 185.77 26.0916H185.774Z" fill="#7D5959"/>
<path d="M193.775 30.6503C192.627 31.6522 191.542 33.1744 190.802 34.5025C190.744 34.6074 190.879 34.7083 190.964 34.6268C191.577 34.0521 192.127 33.3802 192.666 32.7395C193.162 32.1492 193.701 31.5628 194.097 30.8988C194.221 30.6891 193.945 30.4988 193.775 30.6503Z" fill="#7D5959"/>
<path d="M203.718 37.57C203.284 37.9273 202.939 38.3856 202.598 38.8244C202.272 39.2477 201.95 39.6826 201.803 40.2029C201.768 40.3233 201.916 40.3932 202.001 40.3194C202.396 39.9855 202.675 39.535 202.966 39.1078C203.28 38.6457 203.637 38.2069 203.908 37.7137C203.978 37.5856 203.823 37.4807 203.718 37.5662V37.57Z" fill="#7D5959"/>
<path d="M211.137 43.2321C210.032 43.7797 209.156 44.7233 208.528 45.7757C208.49 45.8379 208.575 45.9039 208.629 45.8534C209.49 45.0146 210.401 44.2185 211.226 43.3486C211.284 43.2865 211.211 43.1972 211.137 43.236V43.2321Z" fill="#7D5959"/>
<path d="M221.042 50.1091C220.011 50.7499 219.236 51.9498 218.538 52.9246C218.429 53.076 218.681 53.2741 218.798 53.1265C219.177 52.6411 219.573 52.1634 219.972 51.6935C220.375 51.2198 220.84 50.7654 221.151 50.2179C221.189 50.1519 221.112 50.0664 221.042 50.1091Z" fill="#7D5959"/>
<path d="M229.488 56.6568C228.132 57.0529 226.88 58.0897 225.833 59.0101C225.682 59.146 225.903 59.3673 226.054 59.2314C227.147 58.2722 228.391 57.6587 229.554 56.8199C229.636 56.7616 229.589 56.6218 229.485 56.6529L229.488 56.6568Z" fill="#7D5959"/>
<path d="M239.265 66.218C238.688 66.5714 238.284 67.2199 237.85 67.7325C237.354 68.3228 236.873 68.9247 236.389 69.5227C236.269 69.6703 236.47 69.8839 236.602 69.7363C237.114 69.1616 237.629 68.5946 238.129 68.0121C238.579 67.4917 239.157 66.983 239.42 66.3384C239.459 66.2452 239.335 66.1675 239.261 66.2141L239.265 66.218Z" fill="#7D5959"/>
<path d="M252.569 78.563C250.747 79.5105 248.976 80.8503 247.44 82.2172C247.305 82.3376 247.479 82.5473 247.627 82.4619C249.406 81.4406 251.236 80.1824 252.709 78.7494C252.809 78.6523 252.681 78.5048 252.565 78.563H252.569Z" fill="#7D5959"/>
<path d="M261.745 90.1037C260.95 90.3988 260.318 91.1677 259.713 91.7502C258.76 92.6667 257.725 93.5676 256.911 94.6161C256.794 94.7676 256.95 95.0433 257.136 94.9074C258.047 94.2394 258.83 93.3968 259.636 92.6084C260.361 91.9056 261.415 91.2182 261.927 90.3483C261.997 90.2318 261.88 90.0571 261.741 90.1076L261.745 90.1037Z" fill="#7D5959"/>
<path d="M271.347 99.6686C268.68 100.372 265.722 102.216 263.629 103.991C263.559 104.049 263.648 104.138 263.718 104.103C265.052 103.501 266.311 102.721 267.598 102.026C268.878 101.331 270.261 100.752 271.436 99.8861C271.541 99.8084 271.483 99.6337 271.347 99.6686Z" fill="#7D5959"/>
<path d="M278.534 111.431C276.049 112.705 273.393 114.487 271.304 116.343C271.211 116.429 271.331 116.561 271.432 116.51C273.928 115.256 276.568 113.454 278.677 111.617C278.782 111.524 278.65 111.373 278.534 111.431Z" fill="#7D5959"/>
<path d="M287.492 127.477C284.829 128.005 282.24 129.784 280.119 131.411C279.98 131.516 280.104 131.753 280.259 131.652C282.608 130.118 285.205 129.143 287.593 127.714C287.725 127.636 287.636 127.446 287.492 127.477Z" fill="#7D5959"/>
<path d="M295.551 143.496C292.884 144.448 290.493 146.634 288.613 148.7C288.45 148.879 288.698 149.127 288.876 148.964C291.02 147.022 293.47 145.558 295.691 143.737C295.803 143.644 295.683 143.446 295.551 143.492V143.496Z" fill="#7D5959"/>
<path d="M302.839 157.985C300.211 159.34 297.73 161.367 295.548 163.356C295.358 163.526 295.613 163.868 295.823 163.713C298.222 161.919 300.754 160.175 302.987 158.175C303.095 158.078 302.955 157.923 302.839 157.985Z" fill="#7D5959"/>
<path d="M253.715 215.897L287.816 211.019L304.683 192.593L275.252 197.354L253.715 215.897Z" fill="#BFAE41"/>
<path d="M301.136 166.991C297.767 169.057 302.167 173.938 305.26 176.796C306.842 178.058 307.811 178.986 307.811 178.986C307.811 178.986 306.671 178.101 305.26 176.796C301.264 173.608 293.332 168.265 287.083 170.226C278.361 172.967 300.748 177.383 300.748 177.383C300.748 177.383 285.048 174.956 284.176 179.421C283.304 183.887 310.102 180.827 310.102 180.827C310.102 180.827 306.043 163.977 301.14 166.987L301.136 166.991Z" fill="#7E8732"/>
<path d="M346.192 174.454L306.16 173.18L281.738 209.07L192.707 216.413L155.524 233.5H221.47L316.514 198.791L383.817 174.171V171.138L346.192 174.454Z" fill="#D9C85D"/>
<path d="M192.707 216.413L151 233.5H221.47L241.171 226.308L192.707 216.413Z" fill="#BFAE41"/>
<path d="M231.336 233.5H239.24L383.817 177.122V175.996L231.336 233.5Z" fill="#FBD4A1"/>
<path d="M264.197 228.549C262.518 228.713 261.743 232.79 261.708 232.561C261.673 232.332 260.964 227.932 259.51 228.095C258.057 228.258 257.409 232.173 257.347 231.947C257.281 231.722 253.277 217.998 251.079 218.81C249.377 219.435 253.378 229.159 255.266 233.501H267.457L267.232 232.724C267.232 232.724 265.875 228.386 264.197 228.549Z" fill="#535921"/>
<path d="M304.997 214.666C303.252 214.926 303.054 217.318 303.054 217.318C303.054 217.318 303.252 213.047 300.085 212.79C296.918 212.53 298.186 218.639 297.992 218.573C297.992 218.573 297.178 217.676 296.158 218.355C294.522 219.45 297.061 224.363 297.061 224.363L306.16 218.452C306.16 218.452 306.741 214.406 304.997 214.666Z" fill="#535921"/>
<path d="M289.882 229.217L293.666 226.658L294.542 226.068L299.438 222.755C299.438 222.755 284.192 220.425 276.698 221.462C275.09 221.687 273.675 222.153 272.438 222.771C271.876 223.047 271.349 223.357 270.86 223.687H270.857C269.833 224.382 268.961 225.171 268.228 225.963C267.972 226.235 267.74 226.507 267.523 226.775C266.778 227.687 266.209 228.573 265.786 229.307C265.604 229.621 265.453 229.908 265.325 230.153C265.224 230.343 265.139 230.514 265.069 230.654C264.658 231.473 264.41 232.557 264.255 233.501H283.552L288.661 230.044L289.882 229.217Z" fill="#ACAEB0"/>
<path d="M281.819 222.852C278.695 222.511 275.555 222.499 272.438 222.771C271.876 223.046 271.349 223.357 270.86 223.687C274.027 223.446 277.21 223.458 280.396 223.71C284.622 224.044 289.634 224.701 293.666 226.658L294.542 226.068C293.491 225.427 292.297 225.015 291.065 224.646C288.049 223.742 284.944 223.194 281.819 222.852Z" fill="#77797A"/>
<path d="M280.904 233.501H314.25L327.542 205.638L280.904 233.501Z" fill="#FBD4A1"/>
<path d="M303.574 186.834C301.376 186.706 307.966 199.715 307.966 199.715C307.966 199.715 302.023 189.529 300.667 190.092C299.31 190.655 305.512 202.045 305.512 202.045C305.512 202.045 302.768 198.88 303.124 200.352C304.675 206.771 313.773 213.866 313.773 213.866L317.301 211.757C317.301 211.757 305.772 186.966 303.578 186.834H303.574Z" fill="#535921"/>
<path d="M190.179 222.313C189.9 222.111 189.598 222.491 189.737 222.755C190.024 223.303 190.439 223.773 190.823 224.258C191.172 224.701 191.532 225.241 192.125 225.326C192.284 225.349 192.443 225.264 192.443 225.085C192.443 224.495 192.021 224.118 191.648 223.707C191.199 223.21 190.726 222.705 190.179 222.313Z" fill="#838C35"/>
<path d="M194.455 221.066C194.277 220.716 193.824 220.98 193.874 221.31C194.048 222.491 194.56 224.467 195.762 224.984C195.925 225.054 196.13 224.976 196.13 224.77C196.13 224.095 195.777 223.594 195.452 223.023C195.091 222.382 194.789 221.714 194.455 221.062V221.066Z" fill="#838C35"/>
<path d="M258.46 208.266C258.421 209.008 258.483 209.746 258.51 210.488C258.537 211.226 258.541 211.882 258.921 212.526C259.014 212.686 259.258 212.693 259.351 212.526C260.026 211.327 259.595 209.408 259.15 208.173C259.014 207.797 258.475 207.859 258.452 208.266H258.46Z" fill="#838C35"/>
<path d="M263.364 209.035C263.247 210.437 263.119 211.881 263.55 213.24C263.619 213.466 263.933 213.466 264.007 213.24C264.437 211.881 264.309 210.441 264.193 209.035C264.15 208.503 263.41 208.503 263.367 209.035H263.364Z" fill="#838C35"/>
<path d="M284.816 200.539C284.537 200.166 284.005 200.477 284.195 200.9C284.506 201.603 284.862 202.279 285.234 202.95C285.579 203.576 285.928 204.259 286.568 204.62C286.711 204.702 286.897 204.601 286.897 204.43C286.897 203.781 286.568 203.23 286.246 202.69C285.804 201.948 285.331 201.226 284.816 200.535V200.539Z" fill="#838C35"/>
<path d="M288.498 198.438C288.281 198.006 287.645 198.383 287.855 198.814C288.409 199.956 288.901 201.148 289.677 202.162C289.816 202.344 290.134 202.247 290.068 201.999C289.735 200.736 289.076 199.599 288.498 198.441V198.438Z" fill="#838C35"/>
<path d="M253.265 213.703C253.327 214.448 253.346 215.229 253.715 215.897C253.819 216.083 254.122 216.048 254.172 215.838C254.343 215.093 254.145 214.339 253.994 213.606C253.912 213.194 253.226 213.283 253.261 213.706L253.265 213.703Z" fill="#838C35"/>
<path d="M233.196 204.053C221.679 205.412 220.319 212.134 220.319 212.134L250.206 209.617C250.206 209.617 244.717 202.69 233.196 204.053Z" fill="#D9C85D"/>
<path d="M212.477 211.023C207.31 210.914 204.918 214.277 204.918 214.277L217.447 212.65C217.447 212.65 217.644 211.136 212.477 211.023Z" fill="#BFAE41"/>
<path d="M179.229 218.79L176.79 216.825L176.166 216.324L173.654 214.301L166.374 216.829L165.099 217.272L159.176 219.326L157.703 222.77L157.137 224.091L155.857 227.089L155.679 227.496V227.5L155.032 229.019L154.617 229.986L153.562 232.451L181.845 220.899L179.682 219.155L179.229 218.79Z" fill="#989A9C"/>
<path d="M157.703 222.771L157.137 224.091C160.397 221.943 163.444 219.431 166.374 216.829L165.099 217.272C162.688 219.182 160.238 221.031 157.703 222.771Z" fill="#77797A"/>
<path d="M168.859 219.71C164.374 221.905 160.044 224.374 155.858 227.089L155.679 227.497C159.854 224.988 164.138 222.654 168.51 220.503C171.228 219.167 174.003 217.982 176.79 216.825L176.166 216.324C173.689 217.377 171.255 218.534 168.859 219.71Z" fill="#77797A"/>
<path d="M167.444 223.869C163.346 225.632 159.141 227.236 155.032 229.019L154.617 229.986C158.59 228.471 162.49 226.693 166.378 225.042C170.84 223.143 175.294 221.217 179.682 219.155L179.228 218.79C175.29 220.46 171.371 222.18 167.444 223.869Z" fill="#77797A"/>
<path opacity="0.18" d="M204.509 190.993C202.385 190.993 200.299 191.013 198.26 191.051L191.736 185.603L194.973 185.25L187.662 179.813L198.214 185.591L211.727 187.013L238.506 180.687C238.506 180.687 229.319 178.873 228.462 178.683C227.601 178.493 224.023 171.798 224.023 171.798L124.666 174.326L126.216 178.683L131.573 180.687L146.998 184.687L153.348 189.382L180.273 186.186L176.42 181.04L183.301 185.828L187.619 185.316L189.678 185.459L196.481 191.09C177.161 191.56 162.574 193.692 162.574 196.255C162.574 199.16 181.355 201.517 204.521 201.517C227.687 201.517 246.468 199.16 246.468 196.255C246.468 193.35 227.687 190.993 204.521 190.993H204.509Z" fill="#4F0000"/>
<path d="M202.865 164.943L206.017 158.148L184.51 157.837L202.865 164.943Z" fill="#FEF3DA"/>
<path d="M222.674 160.094C221.86 157.876 220.767 156.28 219.294 156.117C215.956 155.744 214.433 160.567 213.254 164.936C212.956 166.035 212.685 167.107 212.405 168.058C212.045 169.297 211.685 170.338 211.27 170.979C210.432 172.268 209.773 170.427 209.285 167.841C209.095 166.831 208.932 165.709 208.793 164.614C208.44 161.779 208.262 159.13 208.262 159.13L206.843 158.963C206.843 158.963 207.075 162.113 207.723 165.336C207.889 166.159 208.079 166.986 208.304 167.767C208.99 170.171 209.963 172.144 211.316 172.19C212.08 172.217 212.844 170.47 213.615 168.14C213.937 167.185 214.251 166.128 214.576 165.056C215.786 161.033 217.026 156.781 218.34 156.696C219.027 156.649 219.627 158.039 220.139 160.086C220.569 161.798 220.934 163.973 221.232 166.148C221.883 170.881 222.225 175.619 222.225 175.619H224.981C224.981 175.619 224.868 170.489 224.016 165.487C223.69 163.569 223.252 161.67 222.674 160.086V160.094Z" fill="#484F54"/>
<path d="M207.723 165.336C207.889 166.159 208.079 166.986 208.304 167.767L209.289 167.836C209.099 166.827 208.936 165.704 208.796 164.609L207.727 165.332L207.723 165.336Z" fill="#343A3D"/>
<path d="M212.406 168.058L213.611 168.143C213.933 167.188 214.247 166.132 214.573 165.06L213.255 164.936C212.956 166.035 212.685 167.106 212.406 168.058Z" fill="#343A3D"/>
<path d="M220.131 160.093C220.562 161.805 220.926 163.98 221.224 166.155L224.012 165.494C223.686 163.576 223.248 161.677 222.67 160.093H220.127H220.131Z" fill="#343A3D"/>
<path d="M203.598 167.052H220.79L228.454 151.542L211.293 150.133L203.598 167.052Z" fill="#DB651A"/>
<path d="M210.08 155.922L225.147 156.097L225.791 154.901L211.46 153.328L210.08 155.922Z" fill="#C95D18"/>
<path d="M208.734 158.932L223.574 159.697L224.434 157.693L209.436 157.142L208.734 158.932Z" fill="#C95D18"/>
<path d="M206.979 162.442L221.717 162.411L223.008 160.912L207.889 160.57L206.979 162.442Z" fill="#C95D18"/>
<path d="M205.401 166.268L219.942 166.594L221.372 164.385L206.075 164.365L205.401 166.268Z" fill="#C95D18"/>
<path d="M204.812 166.547L220.182 166.769L227.322 152.462L211.824 151.538L204.812 166.547ZM226.442 152.948L219.833 166.19L205.707 165.984L212.173 152.144L226.442 152.944V152.948Z" fill="#484F54"/>
<path d="M184.51 160.221L203.598 167.052L204.296 165.107L184.51 157.837V160.221Z" fill="#F19860"/>
<path d="M193.082 163.289L194.326 163.735L194.733 161.592L193.636 161.087L193.082 163.289Z" fill="#DB651A"/>
<path d="M185.623 160.617L186.937 161.087L185.464 158.598L185.623 160.617Z" fill="#DB651A"/>
<path d="M209.099 148.4L202.792 163.941L203.133 164.365L210.611 149.651L227.357 150.874L225.845 150.004L209.099 148.4Z" fill="#FEEDC5"/>
<path d="M210.057 149.569L202.304 165.86L203.598 167.052L211.293 150.132L228.454 151.542L227.357 150.874L210.057 149.569Z" fill="#F19860"/>
<path d="M198.032 155.166C192.031 154.498 191.174 168.567 188.891 172.097C186.604 175.627 185.464 158.598 185.464 158.598L183.844 158.408C183.844 158.408 184.941 173.336 188.937 173.479C191.508 173.573 194.081 156.024 196.938 155.83C199.795 155.635 201.365 177.39 201.365 177.39H204.509C204.509 177.39 204.032 155.83 198.036 155.162L198.032 155.166Z" fill="#636D74"/>
<path d="M203.598 175.961L224.826 173.386V172.582L204.079 174.815L203.598 175.961Z" fill="#636D74"/>
<path d="M206.839 162.866L208.064 174.388L208.293 163.942L219.077 163.511L221.205 172.971L219.864 162.866H206.839Z" fill="#636D74"/>
<path d="M175.746 171.386L176.017 180.259C176.017 180.259 177.474 181.137 180.362 181.502C183.25 181.867 186.243 180.344 186.243 180.344L186.596 171.428L186.697 168.881H175.672L175.749 171.389L175.746 171.386Z" fill="#C8C4C3"/>
<path d="M181.242 169.366C180.172 169.366 178.889 169.114 177.711 168.881H175.672L175.749 171.389C176.912 171.751 178.94 171.991 181.242 171.991C183.545 171.991 185.417 171.774 186.6 171.432L186.7 168.885H184.731C183.669 169.122 182.456 169.37 181.242 169.37V169.366Z" fill="#969392"/>
<path d="M181.114 167.872C178.843 167.872 175.629 166.734 174.455 167.084C174.455 167.084 174.571 168.913 174.571 169.181C174.571 169.903 177.502 170.489 181.114 170.489C184.727 170.489 187.658 169.903 187.658 169.181C187.658 168.998 187.542 167.084 187.542 167.084C186.549 166.614 183.824 167.872 181.114 167.872Z" fill="#C8C4C3"/>
<path d="M181.002 168.396C184.616 168.396 187.545 167.81 187.545 167.087C187.545 166.364 184.616 165.778 181.002 165.778C177.388 165.778 174.458 166.364 174.458 167.087C174.458 167.81 177.388 168.396 181.002 168.396Z" fill="#F3ECF1"/>
<path d="M179.832 110.581L180.262 166.746C180.262 167.095 180.549 167.379 180.898 167.379H181.278C181.63 167.379 181.913 167.091 181.913 166.738L181.572 110.581H179.839H179.832Z" fill="#835353"/>
<path d="M179.917 122.716L181.634 122.467V113.648H179.832L179.917 122.716Z" fill="#613D3D"/>
<path d="M181.215 118.93V119.28L185.615 112.597H184.619L181.215 118.93Z" fill="#613D3D"/>
<path d="M180.87 119.388L181.215 119.256L191.658 111.804H189.708L180.87 119.388Z" fill="#613D3D"/>
<path d="M173.982 112.596L180.266 117.78L174.761 111.617L173.982 112.596Z" fill="#613D3D"/>
<path d="M167.101 112.93L179.909 117.955L180.266 117.997L167.624 111.943L167.101 112.93Z" fill="#613D3D"/>
<path d="M144.993 169.584L148.816 161.34L122.723 160.959L144.993 169.584Z" fill="#FEF3DA"/>
<path d="M169.032 163.701C168.043 161.01 166.721 159.072 164.93 158.874C160.883 158.424 159.034 164.272 157.604 169.577C157.243 170.909 156.91 172.213 156.573 173.367C156.135 174.87 155.7 176.132 155.193 176.908C154.177 178.473 153.375 176.236 152.785 173.099C152.557 171.872 152.355 170.512 152.188 169.184C151.758 165.744 151.545 162.532 151.545 162.532L149.824 162.33C149.824 162.33 150.103 166.151 150.89 170.062C151.091 171.064 151.324 172.066 151.595 173.013C152.429 175.93 153.611 178.322 155.247 178.38C156.173 178.411 157.1 176.295 158.038 173.468C158.426 172.307 158.809 171.025 159.201 169.728C160.666 164.847 162.174 159.69 163.767 159.585C164.601 159.53 165.326 161.216 165.946 163.701C166.465 165.779 166.911 168.415 167.272 171.056C168.063 176.8 168.477 182.547 168.477 182.547H171.823C171.823 182.547 171.683 176.326 170.652 170.256C170.257 167.93 169.726 165.623 169.028 163.705L169.032 163.701Z" fill="#484F54"/>
<path d="M150.886 170.061C151.087 171.063 151.32 172.065 151.591 173.013L152.785 173.094C152.557 171.867 152.355 170.508 152.188 169.18L150.89 170.057L150.886 170.061Z" fill="#343A3D"/>
<path d="M156.573 173.362L158.034 173.467C158.422 172.306 158.806 171.025 159.197 169.728L157.6 169.576C157.239 170.908 156.906 172.213 156.569 173.366L156.573 173.362Z" fill="#343A3D"/>
<path d="M165.946 163.701C166.465 165.779 166.911 168.416 167.272 171.056L170.652 170.252C170.256 167.926 169.725 165.62 169.028 163.701H165.942H165.946Z" fill="#343A3D"/>
<path d="M145.885 172.143H166.745L175.672 153.698L155.22 151.612L145.885 172.143Z" fill="#DB651A"/>
<path d="M153.747 158.641L172.032 158.85L172.811 157.398L155.421 155.491L153.747 158.641Z" fill="#C95D18"/>
<path d="M152.119 162.287L170.121 163.219L171.164 160.784L152.968 160.12L152.119 162.287Z" fill="#C95D18"/>
<path d="M149.986 166.551L167.868 166.512L169.431 164.691L151.091 164.279L149.986 166.551Z" fill="#C95D18"/>
<path d="M148.071 171.188L165.713 171.584L167.45 168.904L148.889 168.881L148.071 171.188Z" fill="#C95D18"/>
<path d="M147.358 171.529L166.008 171.801L174.304 155.184L155.871 153.32L147.362 171.529H147.358ZM173.23 155.771L165.582 171.098L148.44 170.85L156.286 154.058L173.23 155.771Z" fill="#484F54"/>
<path d="M122.723 163.852L145.885 172.143L146.734 169.782L122.723 160.959V163.852Z" fill="#F19860"/>
<path d="M133.124 167.576L134.636 168.116L135.128 165.514L133.795 164.904L133.124 167.576Z" fill="#DB651A"/>
<path d="M124.076 164.338L125.669 164.905L123.878 161.884L124.076 164.338Z" fill="#DB651A"/>
<path d="M152.56 148.4L144.908 168.368L145.319 168.881L154.39 149.919L174.342 152.886L172.509 151.829L152.56 148.4Z" fill="#FEEDC5"/>
<path d="M153.72 149.817L144.315 170.698L145.885 172.143L155.22 151.611L175.672 153.697L174.343 152.885L153.72 149.817Z" fill="#F19860"/>
<path d="M139.132 157.716C131.852 156.905 130.813 173.98 128.042 178.263C125.27 182.547 123.882 161.883 123.882 161.883L121.917 161.65C121.917 161.65 123.247 179.766 128.1 179.937C131.217 180.05 134.341 158.753 137.807 158.524C141.272 158.291 143.179 184.682 143.179 184.682H146.994C146.994 184.682 146.416 158.524 139.136 157.713L139.132 157.716Z" fill="#636D74"/>
<path d="M145.885 182.95L171.641 179.824V178.85L146.467 181.56L145.885 182.95Z" fill="#636D74"/>
<path d="M149.82 167.063L151.301 181.04L151.58 168.368L164.667 167.844L167.248 179.323L165.62 167.063H149.82Z" fill="#636D74"/>
<path d="M227.989 101.832C227.989 101.832 226.4 102.663 223.597 103.882C221.267 104.896 218.104 106.177 214.313 107.474C210.994 108.616 207.192 109.765 203.059 110.759C198.985 111.738 194.585 112.565 189.992 113.078C186.829 113.435 183.568 113.645 180.266 113.649C179.793 113.649 179.324 113.649 178.855 113.645C173.889 113.602 169.074 113.326 164.55 112.899C160.438 112.511 156.561 112.01 153.022 111.454C148.661 110.775 144.819 110.025 141.668 109.342C135.954 108.095 132.539 107.07 132.539 107.07L146.316 100.585L179.328 85.0439H179.335L208.676 95.1678L227.989 101.832Z" fill="#FEEDC5"/>
<path d="M141.668 109.342L179.328 85.0439L132.539 107.07C132.539 107.07 135.954 108.099 141.668 109.342Z" fill="#DB5639"/>
<path d="M164.551 112.899L179.328 85.0439L153.022 111.454C156.561 112.006 160.438 112.511 164.551 112.895V112.899Z" fill="#DB5639"/>
<path d="M178.854 113.645C179.32 113.649 179.793 113.649 180.262 113.649C183.568 113.645 186.825 113.435 189.992 113.082L179.327 85.0439L178.858 113.645H178.854Z" fill="#DB5639"/>
<path d="M179.328 85.0439L203.059 110.759C207.192 109.765 210.995 108.616 214.313 107.474L179.335 85.0478H179.328V85.0439Z" fill="#DB5639"/>
<path d="M223.597 103.882C226.4 102.663 227.989 101.832 227.989 101.832L179.335 85.0479C179.944 85.308 213.379 99.8239 223.597 103.882Z" fill="#DB5639"/>
<path opacity="0.3" d="M208.676 95.1678C204.963 104.165 191.593 110.825 175.672 110.825C163.159 110.825 152.223 106.713 146.315 100.585L179.327 85.0439H179.335L208.676 95.1678Z" fill="white"/>
<path style="mix-blend-mode:overlay" opacity="0.68" d="M373 0.5H-286V233.5H373V0.5Z" fill="url(#paint4_radial_834_264114)"/>
</g>
</g>
<defs>
<linearGradient id="paint0_linear_834_264114" x1="391.801" y1="123.99" x2="-192.166" y2="-51.1615" gradientUnits="userSpaceOnUse">
<stop stop-color="#E4F8FF"/>
<stop offset="0.505" stop-color="#FFF6C8"/>
<stop offset="1" stop-color="#92F2FF"/>
</linearGradient>
<linearGradient id="paint1_linear_834_264114" x1="41.4495" y1="74.7568" x2="31.5309" y2="122.511" gradientUnits="userSpaceOnUse">
<stop stop-color="#F9F698"/>
<stop offset="0.13" stop-color="#F4F195"/>
<stop offset="0.25" stop-color="#E8E58E"/>
<stop offset="0.38" stop-color="#D4D181"/>
<stop offset="0.51" stop-color="#B7B570"/>
<stop offset="0.64" stop-color="#939159"/>
<stop offset="0.77" stop-color="#66653E"/>
<stop offset="0.89" stop-color="#32311E"/>
<stop offset="1"/>
</linearGradient>
<linearGradient id="paint2_linear_834_264114" x1="216.98" y1="6.27845" x2="262.998" y2="121.969" gradientUnits="userSpaceOnUse">
<stop stop-color="#F9F698"/>
<stop offset="0.13" stop-color="#F4F195"/>
<stop offset="0.25" stop-color="#E8E58E"/>
<stop offset="0.38" stop-color="#D4D181"/>
<stop offset="0.51" stop-color="#B7B570"/>
<stop offset="0.64" stop-color="#939159"/>
<stop offset="0.77" stop-color="#66653E"/>
<stop offset="0.89" stop-color="#32311E"/>
<stop offset="1"/>
</linearGradient>
<linearGradient id="paint3_linear_834_264114" x1="43.5" y1="164.213" x2="43.5" y2="118.778" gradientUnits="userSpaceOnUse">
<stop stop-color="#54FFF5"/>
<stop offset="0.33" stop-color="#33E1E7"/>
<stop offset="0.77" stop-color="#0EBFD7"/>
<stop offset="1" stop-color="#00B3D1"/>
</linearGradient>
<radialGradient id="paint4_radial_834_264114" cx="0" cy="0" r="1" gradientUnits="userSpaceOnUse" gradientTransform="translate(45.2754 12.2976) scale(273.175 273.659)">
<stop stop-color="#FFD18F"/>
<stop offset="0.03" stop-color="#FACC8C"/>
<stop offset="0.5" stop-color="#B58366"/>
<stop offset="0.83" stop-color="#8A564E"/>
<stop offset="1" stop-color="#7A4545"/>
</radialGradient>
<clipPath id="clip0_834_264114">
<rect width="300" height="225" fill="white"/>
</clipPath>
<clipPath id="clip1_834_264114">
<rect width="659" height="233" fill="white" transform="translate(-286 0.5)"/>
</clipPath>
</defs>
</svg>
